<svg width="20" height="20" viewBox="0 0 20 20" fill="none" xmlns="http://www.w3.org/2000/svg">
<g clip-path="url(#clip0)">
<path d="M3.47854 7.07031V6.97031H3.37854H1.08167H0.981665V7.07031V8.24219V8.34219H1.08167H3.37854H3.47854V8.24219V7.07031Z" fill="#0957C3" stroke="#0957C3" stroke-width="0.2"/>
<path d="M3.47854 11.7578V11.6578H3.37854H1.08167H0.981665V11.7578V12.9297V13.0297H1.08167H3.37854H3.47854V12.9297V11.7578Z" fill="#0957C3" stroke="#0957C3" stroke-width="0.2"/>
<path d="M3.47852 9.41406V9.31406H3.37852H0H-0.1V9.41406V10.5859V10.6859H0H3.37852H3.47852V10.5859V9.41406Z" fill="#0957C3" stroke="#0957C3" stroke-width="0.2"/>
<path d="M12.2752 2.1749C7.96048 2.1749 4.45035 5.68503 4.45035 9.99971C4.45035 14.3144 7.96044 17.8245 12.2752 17.8245C16.5899 17.8245 20.1 14.3144 20.1 9.99971C20.1 5.68503 16.5899 2.1749 12.2752 2.1749ZM12.2752 16.4526C8.71711 16.4526 5.82223 13.5578 5.82223 9.99971C5.82223 6.44165 8.71711 3.54678 12.2752 3.54678C15.8333 3.54678 18.7281 6.44166 18.7281 9.99971C18.7281 13.5578 15.8333 16.4526 12.2752 16.4526Z" fill="#0957C3" stroke="#0957C3" stroke-width="0.2"/>
<path d="M12.7536 6.50586V6.40586H12.6536H11.4817H11.3817V6.50586V10.9104V10.9633L11.4254 10.993L14.4452 13.051L14.5279 13.1073L14.5842 13.0246L15.2441 12.0562L15.3004 11.9736L15.2178 11.9173L12.7536 10.238V6.50586Z" fill="#0957C3" stroke="#0957C3" stroke-width="0.2"/>
</g>
<defs>
<clipPath id="clip0">
<rect width="20" height="20" fill="white"/>
</clipPath>
</defs>
</svg>
