<svg width="131" height="20" viewBox="0 0 131 20" fill="none" xmlns="http://www.w3.org/2000/svg">
<path d="M36.8556 9.99769C36.8556 14.6004 33.7467 16.0336 29.8065 16.0336H25.8359V3.9834H29.8065C33.7467 3.9834 36.8556 5.41228 36.8556 9.99769ZM28.6764 6.37786V13.6435H29.8584C31.9541 13.6435 33.8463 13.1932 33.8463 10.002C33.8463 6.82817 31.9498 6.37786 29.8584 6.37786H28.6764Z" fill="white"/>
<path d="M37.6527 10.0154C37.6527 6.257 40.1944 3.78027 43.9008 3.78027C47.5899 3.78027 50.1532 6.257 50.1532 10.0154C50.1532 13.7738 47.5943 16.2505 43.9008 16.2505C40.1987 16.2505 37.6527 13.7738 37.6527 10.0154ZM47.1483 10.0154C47.1483 7.45639 45.6674 6.1271 43.9051 6.1271C42.1429 6.1271 40.662 7.45639 40.662 10.0154C40.662 12.5744 42.1429 13.9037 43.9051 13.9037C45.6674 13.908 47.1483 12.5787 47.1483 10.0154Z" fill="white"/>
<path d="M57.0027 16.2506C53.2443 16.2506 50.9668 13.8561 50.9668 10.0025C50.9668 6.19644 53.3266 3.78467 57.085 3.78467C60.1116 3.78467 62.2377 5.74613 62.6533 8.48698H59.8605C59.5444 6.8416 58.332 6.12716 56.9854 6.12716C55.2881 6.12716 53.9761 7.53872 53.9761 10.0025C53.9761 12.5441 55.2881 13.9081 57.0201 13.9081C58.2498 13.9081 59.6137 13.3755 59.9471 11.5483H62.7399C62.3069 14.3367 60.0467 16.2506 57.0027 16.2506Z" fill="white"/>
<path d="M63.4551 13.0767H66.5467V16.034H63.4551V13.0767Z" fill="white"/>
<path d="M66.9615 10.0154C66.9615 6.257 69.5032 3.78027 73.2096 3.78027C76.8988 3.78027 79.4621 6.257 79.4621 10.0154C79.4621 13.7738 76.9031 16.2505 73.2096 16.2505C69.5032 16.2505 66.9615 13.7738 66.9615 10.0154ZM76.4528 10.0154C76.4528 7.45639 74.9719 6.1271 73.2096 6.1271C71.4474 6.1271 69.9665 7.45639 69.9665 10.0154C69.9665 12.5744 71.4474 13.9037 73.2096 13.9037C74.9719 13.908 76.4528 12.5787 76.4528 10.0154Z" fill="white"/>
<path d="M83.4156 7.72014V16.0336H80.6748V3.9834H84.1344L88.971 12.2969V3.9834H91.7118V16.0336H88.2522L83.4156 7.72014Z" fill="white"/>
<path d="M102.268 13.5223V16.0336H93.6387V3.9834H96.4791V13.5266H102.268V13.5223Z" fill="white"/>
<path d="M103.099 16.0336V3.9834H105.939V16.0336H103.099Z" fill="white"/>
<path d="M110.612 7.72014V16.0336H107.871V3.9834H111.331L116.167 12.2969V3.9834H118.908V16.0336H115.448L110.612 7.72014Z" fill="white"/>
<path d="M130.079 3.9834V6.47745H123.679V8.59045H129.728V11.1018H123.679V13.5309H130.079V16.0423H120.839V3.99206H130.079V3.9834Z" fill="white"/>
<path d="M2.36199 2.95835L0 7.04932L17.32 17.0493L19.682 12.9583L2.36199 2.95835Z" fill="#FE5000"/>
<path d="M12.2047 0H7.48071V20H12.2047V0Z" fill="white"/>
<path d="M0.00324416 12.9574L2.36523 17.0483L19.6852 7.04834L17.3232 2.95737L0.00324416 12.9574Z" fill="#47D7AC"/>
</svg>
