<svg width="12" height="14" viewBox="0 0 12 14" fill="none" xmlns="http://www.w3.org/2000/svg">
<path d="M6.19017 0C2.35242 0.000583333 0.3125 2.45933 0.3125 5.14033C0.3125 6.38342 1.00725 7.9345 2.11967 8.42625C2.437 8.56917 2.395 8.39475 2.668 7.35058C2.68958 7.26367 2.6785 7.18842 2.6085 7.10733C1.01833 5.26808 2.29817 1.48692 5.96325 1.48692C11.2675 1.48692 10.2764 8.82642 6.88608 8.82642C6.01225 8.82642 5.36125 8.14042 5.56717 7.29167C5.81683 6.28075 6.30567 5.194 6.30567 4.46542C6.30567 2.62908 3.56983 2.9015 3.56983 5.33458C3.56983 6.0865 3.83583 6.594 3.83583 6.594C3.83583 6.594 2.95558 10.15 2.79225 10.8144C2.51575 11.9391 2.82958 13.7597 2.857 13.9166C2.87392 14.0029 2.97075 14.0303 3.025 13.9592C3.11192 13.8454 4.17592 12.3276 4.474 11.2303C4.5825 10.8308 5.02758 9.20908 5.02758 9.20908C5.321 9.73875 6.16683 10.1821 7.06808 10.1821C9.74908 10.1821 11.6869 7.82542 11.6869 4.90117C11.6776 2.09767 9.27833 0 6.19017 0V0Z" fill="#0957C3"/>
</svg>
