<svg width="14" height="14" viewBox="0 0 14 14" fill="none" xmlns="http://www.w3.org/2000/svg">
<g clip-path="url(#clip0)">
<path d="M7.47602 7.90947C7.31591 8.06969 7.05625 8.06969 6.89603 7.90947L5.03217 6.04561C4.95527 5.9687 4.91201 5.86435 4.91201 5.75562C4.91201 5.64677 4.95527 5.54253 5.03217 5.46552L5.3635 5.13429L4.39034 4.16113L3.5931 4.95837C3.32479 5.22668 3.3249 5.66322 3.5931 5.93153L7.01011 9.34875C7.13924 9.47789 7.31206 9.54892 7.49674 9.54892C7.68142 9.54892 7.85424 9.47778 7.98337 9.34865L8.78062 8.55151L7.80746 7.57825L7.47602 7.90947Z" fill="#0957C3"/>
<path d="M13.4117 4.94131C13.4117 3.62636 12.8965 2.38692 11.9606 1.45114C11.0248 0.515366 9.78539 0 8.47054 0H5.54272C5.54272 0 5.54272 0 5.54262 0C4.22787 0 2.98843 0.515366 2.05276 1.45103C1.11699 2.38681 0.601624 3.62636 0.601624 4.94121V7.24257C0.601624 8.2608 0.912231 9.24037 1.49991 10.0753C2.01837 10.8119 2.71564 11.3872 3.52858 11.752V13.0739C3.52858 13.7574 3.91129 13.9999 4.23898 14C4.47311 14 4.70735 13.8844 4.93529 13.6566L6.4079 12.1838H8.47064C9.78549 12.1838 11.0249 11.6684 11.9607 10.7326C12.8965 9.79686 13.4118 8.55742 13.4118 7.24257L13.4117 4.94131ZM9.6507 8.84175L8.56335 9.92899C8.27924 10.2131 7.90048 10.3694 7.49673 10.3694C7.09299 10.3694 6.71423 10.213 6.43011 9.92899L3.013 6.51176C2.425 5.92355 2.425 4.96663 3.013 4.37852L4.10034 3.29129C4.17725 3.21428 4.28149 3.17113 4.39034 3.17113C4.49907 3.17113 4.60342 3.21428 4.68033 3.29129L6.23358 4.84454C6.31049 4.92145 6.35364 5.0258 6.35364 5.13454C6.35364 5.24327 6.31049 5.34763 6.23347 5.42453L5.90225 5.75575L7.18613 7.03963L7.51746 6.7083C7.67767 6.54819 7.93733 6.54819 8.09744 6.7084L9.6507 8.26166C9.72771 8.33856 9.77086 8.44292 9.77086 8.55165C9.77086 8.66049 9.72771 8.76485 9.6507 8.84175ZM6.69608 3.98183C6.69608 3.75539 6.87968 3.57167 7.10623 3.57167C8.52736 3.57167 9.68359 4.7278 9.68359 6.14882C9.68359 6.37537 9.49998 6.55898 9.27344 6.55898C9.047 6.55898 8.86328 6.37537 8.86328 6.14882C8.86328 5.18015 8.07512 4.39198 7.10623 4.39198C6.87968 4.39198 6.69608 4.20837 6.69608 3.98183ZM11.0306 6.55919C10.804 6.55919 10.6204 6.37547 10.6204 6.14903C10.6205 5.21027 10.2549 4.32779 9.5912 3.66396C8.92737 3.00023 8.04489 2.63461 7.10612 2.63461C6.87968 2.63461 6.69597 2.451 6.69597 2.22446C6.69597 1.99802 6.87968 1.8143 7.10612 1.8143C8.26396 1.8143 9.35248 2.26526 10.1712 3.08397C10.99 3.90268 11.4409 4.9912 11.4408 6.14903C11.4408 6.37547 11.2571 6.55919 11.0306 6.55919Z" fill="#0957C3"/>
</g>
<defs>
<clipPath id="clip0">
<rect width="14" height="14" fill="white"/>
</clipPath>
</defs>
</svg>
