<svg width="17" height="17" viewBox="0 0 17 17" fill="none" xmlns="http://www.w3.org/2000/svg">
<mask id="path-1-outside-1" maskUnits="userSpaceOnUse" x="0" y="0" width="17" height="17" fill="black">
<rect fill="white" width="17" height="17"/>
<path d="M15.9566 1.28284C15.8816 1.11015 15.7213 1 15.5454 1H1.45464C1.27868 1 1.11853 1.11015 1.04343 1.28284C0.968385 1.45553 0.991904 1.65966 1.10386 1.80697L6.52054 8.93452V15.5068C6.52054 15.6774 6.60183 15.8359 6.73543 15.9259C6.80865 15.9751 6.89176 16 6.97516 16C7.04408 16 7.11325 15.983 7.17701 15.9487L10.2204 14.3122C10.375 14.2291 10.4729 14.0582 10.4731 13.871L10.4791 8.93472L15.896 1.8069C16.0081 1.65966 16.0316 1.45547 15.9566 1.28284ZM9.67396 8.44361C9.60698 8.53173 9.57024 8.64241 9.57012 8.7567L9.5643 13.5641L7.42984 14.7119V8.75736C7.42984 8.64287 7.39317 8.53193 7.32601 8.44361L2.41868 1.98637H14.5813L9.67396 8.44361Z"/>
</mask>
<path d="M15.9566 1.28284C15.8816 1.11015 15.7213 1 15.5454 1H1.45464C1.27868 1 1.11853 1.11015 1.04343 1.28284C0.968385 1.45553 0.991904 1.65966 1.10386 1.80697L6.52054 8.93452V15.5068C6.52054 15.6774 6.60183 15.8359 6.73543 15.9259C6.80865 15.9751 6.89176 16 6.97516 16C7.04408 16 7.11325 15.983 7.17701 15.9487L10.2204 14.3122C10.375 14.2291 10.4729 14.0582 10.4731 13.871L10.4791 8.93472L15.896 1.8069C16.0081 1.65966 16.0316 1.45547 15.9566 1.28284ZM9.67396 8.44361C9.60698 8.53173 9.57024 8.64241 9.57012 8.7567L9.5643 13.5641L7.42984 14.7119V8.75736C7.42984 8.64287 7.39317 8.53193 7.32601 8.44361L2.41868 1.98637H14.5813L9.67396 8.44361Z" fill="#333536"/>
<path d="M15.9566 1.28284L15.6815 1.40241L15.6815 1.40244L15.9566 1.28284ZM1.04343 1.28284L0.768318 1.1632L0.768282 1.16328L1.04343 1.28284ZM1.10386 1.80697L1.34271 1.62545L1.34271 1.62544L1.10386 1.80697ZM6.52054 8.93452H6.82054V8.83346L6.7594 8.753L6.52054 8.93452ZM6.73543 15.9259L6.56786 16.1747L6.56798 16.1748L6.73543 15.9259ZM7.17701 15.9487L7.319 16.213L7.31909 16.2129L7.17701 15.9487ZM10.2204 14.3122L10.0784 14.048L10.0783 14.048L10.2204 14.3122ZM10.4731 13.871L10.7731 13.8713V13.8713L10.4731 13.871ZM10.4791 8.93472L10.2402 8.7532L10.1792 8.8335L10.1791 8.93436L10.4791 8.93472ZM15.896 1.8069L15.6573 1.62526L15.6572 1.62538L15.896 1.8069ZM9.67396 8.44361L9.91279 8.62515L9.91281 8.62513L9.67396 8.44361ZM9.57012 8.7567L9.87012 8.75707V8.75702L9.57012 8.7567ZM9.5643 13.5641L9.70638 13.8283L9.86409 13.7435L9.8643 13.5645L9.5643 13.5641ZM7.42984 14.7119H7.12984V15.2138L7.57192 14.9761L7.42984 14.7119ZM7.32601 8.44361L7.08715 8.62513L7.08721 8.6252L7.32601 8.44361ZM2.41868 1.98637V1.68637H1.81388L2.17983 2.16789L2.41868 1.98637ZM14.5813 1.98637L14.8201 2.16789L15.1861 1.68637H14.5813V1.98637ZM16.2317 1.16328C16.1134 0.890848 15.8512 0.7 15.5454 0.7V1.3C15.5915 1.3 15.6498 1.32946 15.6815 1.40241L16.2317 1.16328ZM15.5454 0.7H1.45464V1.3H15.5454V0.7ZM1.45464 0.7C1.1488 0.7 0.886741 0.890897 0.768318 1.1632L1.31854 1.40249C1.35032 1.32941 1.40855 1.3 1.45464 1.3V0.7ZM0.768282 1.16328C0.650951 1.43329 0.685931 1.75287 0.865015 1.9885L1.34271 1.62544C1.29788 1.56645 1.28582 1.47778 1.31857 1.40241L0.768282 1.16328ZM0.865008 1.98849L6.28169 9.11604L6.7594 8.753L1.34271 1.62545L0.865008 1.98849ZM6.22054 8.93452V15.5068H6.82054V8.93452H6.22054ZM6.22054 15.5068C6.22054 15.7702 6.34582 16.0252 6.56786 16.1747L6.90299 15.677C6.85784 15.6466 6.82054 15.5846 6.82054 15.5068H6.22054ZM6.56798 16.1748C6.69022 16.257 6.83152 16.3 6.97516 16.3V15.7C6.95199 15.7 6.92708 15.6933 6.90287 15.677L6.56798 16.1748ZM6.97516 16.3C7.09382 16.3 7.21175 16.2706 7.319 16.213L7.03502 15.6844C7.01474 15.6953 6.99434 15.7 6.97516 15.7V16.3ZM7.31909 16.2129L10.3625 14.5764L10.0783 14.048L7.03493 15.6845L7.31909 16.2129ZM10.3625 14.5765C10.6221 14.4369 10.7727 14.1597 10.7731 13.8713L10.1731 13.8706C10.173 13.9567 10.128 14.0213 10.0784 14.048L10.3625 14.5765ZM10.7731 13.8713L10.7791 8.93508L10.1791 8.93436L10.1731 13.8706L10.7731 13.8713ZM10.7179 9.11624L16.1349 1.98842L15.6572 1.62538L10.2402 8.7532L10.7179 9.11624ZM16.1348 1.98854C16.314 1.75299 16.3491 1.43327 16.2317 1.16324L15.6815 1.40244C15.7142 1.47766 15.7021 1.56633 15.6573 1.62526L16.1348 1.98854ZM9.43512 8.26207C9.3272 8.40404 9.27031 8.57884 9.27012 8.75638L9.87012 8.75702C9.87018 8.70597 9.88675 8.65942 9.91279 8.62515L9.43512 8.26207ZM9.27012 8.75634L9.2643 13.5637L9.8643 13.5645L9.87012 8.75707L9.27012 8.75634ZM9.42222 13.2999L7.28776 14.4476L7.57192 14.9761L9.70638 13.8283L9.42222 13.2999ZM7.72984 14.7119V8.75736H7.12984V14.7119H7.72984ZM7.72984 8.75736C7.72984 8.57964 7.67308 8.4044 7.5648 8.26202L7.08721 8.6252C7.11326 8.65945 7.12984 8.70609 7.12984 8.75736H7.72984ZM7.56486 8.26209L2.65753 1.80484L2.17983 2.16789L7.08715 8.62513L7.56486 8.26209ZM2.41868 2.28637H14.5813V1.68637H2.41868V2.28637ZM14.3424 1.80484L9.4351 8.26209L9.91281 8.62513L14.8201 2.16789L14.3424 1.80484Z" fill="#333536" mask="url(#path-1-outside-1)"/>
</svg>
