<svg width="40" height="40" viewBox="0 0 40 40" fill="none" xmlns="http://www.w3.org/2000/svg">
<g clip-path="url(#clip0)">
<path d="M35.2405 5.77907C32.047 2.28034 27.682 0.234652 22.9498 0.0189501C18.2178 -0.197299 13.6846 1.44316 10.1858 4.63674C9.22186 5.51657 8.3564 6.49954 7.61344 7.55836C7.4207 7.83305 7.48711 8.21195 7.76179 8.40468C8.03648 8.59757 8.41538 8.53109 8.60812 8.25632C9.30022 7.27008 10.1066 6.35423 11.0051 5.53423C17.7328 -0.60675 28.2021 -0.12933 34.343 6.59829C40.484 13.3259 40.0067 23.7953 33.279 29.9363C31.707 31.3711 29.9147 32.4687 27.9456 33.2056C27.8082 32.9242 27.6238 32.6602 27.3907 32.4263C27.2258 32.2609 27.0411 32.1152 26.8363 31.9906L25.3233 31.0893C27.595 30.5584 29.6832 29.4593 31.4349 27.8604C34.1462 25.3855 35.7315 22.003 35.8986 18.3359C36.0658 14.6688 34.7949 11.156 32.3202 8.44476C32.0938 8.19687 31.7095 8.17937 31.4618 8.40562C31.214 8.63187 31.1964 9.01616 31.4227 9.26398C33.6787 11.7355 34.8372 14.9377 34.6848 18.2806C34.5323 21.6234 33.0873 24.7069 30.6158 26.9629C28.6863 28.7242 26.3094 29.8201 23.7308 30.1407L22.2319 29.2478C20.9773 28.5026 19.3807 28.7035 18.3474 29.7386L17.3021 30.7968C17.2168 30.8835 17.0848 30.9089 16.9739 30.8603C13.5236 29.3433 10.7921 26.606 9.28249 23.1524C9.28124 23.1495 9.27991 23.1466 9.27858 23.1437C9.22835 23.0336 9.25155 22.9014 9.33069 22.8204L10.3887 21.7668C11.4215 20.7358 11.6224 19.1393 10.8765 17.8834L9.75834 16.0097C10.154 13.1107 11.5567 10.4351 13.7238 8.45703C15.8382 6.52696 18.4622 5.40447 21.3119 5.21087C24.0781 5.02314 26.8611 5.76564 29.1485 7.30211C29.4271 7.48922 29.8046 7.41508 29.9917 7.13657C30.1788 6.85805 30.1047 6.48055 29.8261 6.29345C27.3162 4.60744 24.2633 3.79229 21.2295 3.99854C18.1028 4.21096 15.2241 5.44236 12.9046 7.55953C10.8819 9.40585 9.46655 11.8062 8.82163 14.4403L8.13414 13.2884C8.13156 13.2841 8.1289 13.2798 8.12617 13.2754C8.00203 13.0788 7.85461 12.8968 7.69281 12.7393C7.38031 12.4283 7.01399 12.2031 6.6236 12.0626C6.84313 11.4606 7.09789 10.8703 7.38469 10.3008C7.53562 10.0012 7.415 9.63585 7.11531 9.48491C6.81571 9.33397 6.4504 9.45468 6.29938 9.75428C5.95157 10.4451 5.6479 11.1645 5.3929 11.898C4.72478 11.9507 4.07197 12.2297 3.56299 12.7365L2.81964 13.467C0.198011 16.0921 -0.591437 20.0085 0.808554 23.4441C3.37948 29.7628 8.12312 34.9853 14.1656 38.1495C14.4629 38.3053 14.83 38.1903 14.9857 37.8932C15.1414 37.5959 15.0266 37.2287 14.7293 37.0731C8.94093 34.042 4.39681 29.0391 1.93394 22.9858C0.718711 20.0036 1.40394 16.6042 3.67549 14.3296L4.41767 13.6004C4.77275 13.247 5.24634 13.0837 5.7129 13.1075C5.75142 13.115 5.78993 13.12 5.82813 13.12C5.83313 13.12 5.83806 13.1189 5.84306 13.1188C6.20719 13.165 6.56 13.326 6.84055 13.6053C6.93711 13.6993 7.02274 13.8045 7.09516 13.9182L9.83256 18.505C10.2936 19.2813 10.1693 20.2691 9.53077 20.9064L8.46788 21.9651C8.03578 22.4066 7.91672 23.0804 8.17093 23.6432C9.80342 27.3751 12.7559 30.3332 16.4854 31.973C17.0555 32.2229 17.7317 32.0928 18.1674 31.6501L19.2098 30.5949C19.8476 29.956 20.8353 29.8316 21.6109 30.2923L23.2788 31.2859C23.2798 31.2865 23.2809 31.2871 23.2819 31.2878L26.2092 33.0315C26.3258 33.1026 26.4338 33.1876 26.5302 33.2844C27.1956 33.9519 27.1938 35.0362 26.5206 35.7074L25.7994 36.4457C23.5208 38.7214 20.1216 39.4065 17.1392 38.1913C16.8286 38.0647 16.4739 38.214 16.3473 38.5247C16.2206 38.8354 16.3699 39.19 16.6806 39.3165C17.8091 39.7764 18.9889 40 20.1584 40C22.5499 40 24.8968 39.0644 26.6634 37.3001L27.3841 36.5622C27.9812 35.9669 28.2663 35.1758 28.2403 34.393C30.4071 33.6016 32.3761 32.4059 34.0983 30.8339C37.597 27.6403 39.6427 23.2754 39.8584 18.5431C40.074 13.8107 38.434 9.27772 35.2405 5.77907Z" fill="white"/>
<path d="M21.437 21.1769C21.3445 21.058 21.2366 20.9987 21.1134 20.9987H17.2308V20.4978C17.2308 20.2255 17.3781 19.9441 17.6732 19.6541C17.968 19.3641 18.3246 19.0763 18.7428 18.7907C19.1609 18.5051 19.5791 18.2019 19.9974 17.8811C20.4155 17.5605 20.772 17.1695 21.0671 16.708C21.3619 16.2466 21.5095 15.7525 21.5095 15.2251C21.5095 14.4472 21.2342 13.8131 20.6841 13.3224C20.1337 12.8317 19.4668 12.5864 18.6833 12.5864C17.9438 12.5864 17.3077 12.8043 16.7751 13.2401C16.2423 13.6759 15.9761 14.2372 15.9761 14.9238C15.9761 15.4434 16.1875 15.703 16.61 15.703C16.83 15.703 17.0082 15.6506 17.1449 15.5458C17.2813 15.4409 17.3496 15.3184 17.3496 15.1784C17.3496 14.7502 17.4728 14.4269 17.7193 14.2084C17.9657 13.9898 18.2871 13.8805 18.6834 13.8805C19.15 13.8805 19.5043 14.0189 19.7464 14.2956C19.9885 14.5725 20.1096 14.8955 20.1096 15.2644C20.1096 15.6335 19.9621 16.0027 19.6672 16.3716C19.3724 16.7409 19.0138 17.0792 18.5911 17.3867L17.3233 18.3095C16.903 18.6173 16.5492 18.9603 16.2619 19.3383C15.9746 19.7163 15.8311 20.1033 15.8311 20.499V21.7783C15.8311 21.9104 15.8987 22.0202 16.0343 22.1081C16.1696 22.1961 16.3075 22.24 16.4474 22.24H21.1165C21.2389 22.24 21.346 22.1762 21.4378 22.0484C21.5296 21.9209 21.5757 21.7734 21.5757 21.606C21.5757 21.4389 21.5294 21.2958 21.437 21.1769Z" fill="white"/>
<path d="M27.7592 18.963C27.6754 18.8322 27.5589 18.7669 27.4093 18.7669H26.7622V16.9339C26.7622 16.7834 26.6938 16.6684 26.5574 16.5887C26.4208 16.509 26.2558 16.469 26.0622 16.469C25.5954 16.469 25.3622 16.624 25.3622 16.9339V18.7669H23.421L26.1415 13.3392C26.1854 13.2513 26.2076 13.1807 26.2076 13.1278C26.2076 12.9782 26.1283 12.8506 25.9698 12.7449C25.8114 12.6392 25.6572 12.5864 25.5076 12.5864C25.2345 12.5864 25.0322 12.7139 24.9001 12.9689L21.7042 19.261C21.6515 19.3578 21.625 19.4546 21.625 19.5512C21.625 19.708 21.6712 19.8322 21.7637 19.9237C21.8561 20.0154 21.9727 20.061 22.1136 20.061H25.3623V21.7749C25.3622 21.9169 25.4304 22.0297 25.5669 22.114C25.7033 22.1982 25.8684 22.2401 26.0622 22.2401C26.247 22.2401 26.4098 22.1982 26.5508 22.114C26.6915 22.0298 26.7622 21.9169 26.7622 21.775V20.061H27.4093C27.5325 20.061 27.6424 19.9935 27.7394 19.8584C27.8361 19.7234 27.8847 19.5773 27.8847 19.4205C27.8847 19.2464 27.8428 19.0939 27.7592 18.963Z" fill="white"/>
</g>
<defs>
<clipPath id="clip0">
<rect width="40" height="40" fill="white"/>
</clipPath>
</defs>
</svg>
