<svg width="40" height="40" viewBox="0 0 40 40" fill="none" xmlns="http://www.w3.org/2000/svg">
<g clip-path="url(#clip0)">
<path d="M17.8146 0C17.8142 0 17.8138 0 17.8134 0C17.6343 0 17.4625 0.0711951 17.3359 0.197721C17.2086 0.324634 17.1374 0.496818 17.1374 0.676354V4.49342C9.01655 4.82811 2.49019 11.4295 2.27119 19.579C2.26964 19.5972 2.26074 19.6131 2.26074 19.6321C2.26074 19.6464 2.26809 19.6588 2.26887 19.6731C2.26693 19.7822 2.26074 19.8905 2.26074 20C2.26074 28.3426 8.87686 35.1661 17.1374 35.5062V39.3237C17.1374 39.5032 17.2086 39.6754 17.3359 39.8023C17.4625 39.9289 17.6343 40 17.8134 40H17.8146C28.8258 39.9826 37.784 31.0109 37.784 20C37.784 8.98877 28.8258 0.0170249 17.8146 0V0ZM3.62893 20.308H6.31809C6.69148 20.308 6.99445 20.0054 6.99445 19.6321C6.99445 19.2583 6.69148 18.9557 6.31809 18.9557H3.66607C3.88546 15.9725 5.02033 13.2415 6.8064 11.0538L8.75305 12.9386C8.8846 13.0655 9.05408 13.1289 9.22355 13.1289C9.40038 13.1289 9.57682 13.06 9.70915 12.9231C9.96917 12.6549 9.9622 12.2266 9.69406 11.967L7.71143 10.0474C10.1394 7.59041 13.4589 6.02953 17.1374 5.86238V8.13636C17.1374 8.50975 17.44 8.81272 17.8134 8.81272C18.1868 8.81272 18.4898 8.50975 18.4898 8.13636V5.86547C21.8266 6.03108 24.8579 7.34974 27.1988 9.43954L25.463 11.2322C25.2034 11.5003 25.2104 11.9287 25.4789 12.1883C25.6097 12.3152 25.7795 12.3787 25.949 12.3787C26.1254 12.3787 26.3023 12.3098 26.4346 12.1724L28.1638 10.3864C30.2853 12.6751 31.6585 15.6567 31.9012 18.9553H29.3091C28.9357 18.9553 28.6328 19.2583 28.6328 19.6317C28.6328 20.0051 28.9357 20.308 29.3091 20.308H31.9383C31.859 23.9575 30.3964 27.2654 28.0512 29.7375L26.2129 27.9576C25.9447 27.6976 25.516 27.7042 25.2572 27.9731C24.9972 28.2412 25.0041 28.6696 25.2726 28.9288L27.0746 30.6735C24.7511 32.6987 21.7674 33.9717 18.4898 34.1342V31.8033C18.4898 31.4299 18.1868 31.1274 17.8134 31.1274C17.44 31.1274 17.1374 31.4299 17.1374 31.8033V34.1373C13.8447 33.9879 10.8452 32.718 8.51005 30.6894L9.97342 29.1776C10.2331 28.9095 10.2265 28.4811 9.95795 28.2219C9.6898 27.9615 9.26109 27.9685 9.00184 28.2374L7.53228 29.7557C5.17704 27.282 3.70825 23.9664 3.62893 20.308ZM18.4898 38.6346V35.5051C26.7225 35.1344 33.3065 28.3225 33.3065 20.0004C33.3065 11.6779 26.7225 4.86603 18.4898 4.49535V1.36548C28.4435 1.73886 36.4317 9.96035 36.4317 20C36.4317 30.0397 28.4435 38.2612 18.4898 38.6346Z" fill="white"/>
<path d="M17.8135 22.3364C17.8135 23.8277 19.0269 25.0415 20.5181 25.0415C22.0097 25.0415 23.2231 23.8277 23.2231 22.3364V19.6318C23.2231 18.1402 22.0097 16.9268 20.5181 16.9268C19.0269 16.9268 17.8135 18.1402 17.8135 19.6318V22.3364ZM19.1658 19.6318C19.1658 18.8858 19.7725 18.2791 20.5181 18.2791C21.2641 18.2791 21.8708 18.8858 21.8708 19.6318V22.3364C21.8708 23.0824 21.2641 23.6888 20.5181 23.6888C19.7725 23.6888 19.1658 23.0824 19.1658 22.3364V19.6318Z" fill="white"/>
<path d="M14.4326 23.689C13.6866 23.689 13.0799 23.0827 13.0799 22.3367C13.0799 21.9633 12.7773 21.6604 12.4039 21.6604C12.0305 21.6604 11.7275 21.9633 11.7275 22.3367C11.7275 23.8279 12.941 25.0417 14.4326 25.0417C15.9238 25.0417 17.1372 23.8279 17.1372 22.3367C17.1372 21.53 16.782 20.8041 16.2198 20.308C16.782 19.812 17.1372 19.0865 17.1372 18.2794C17.1372 16.7881 15.9238 15.5747 14.4326 15.5747C12.941 15.5747 11.7275 16.7881 11.7275 18.2794C11.7275 18.6527 12.0305 18.9557 12.4039 18.9557C12.7773 18.9557 13.0799 18.6527 13.0799 18.2794C13.0799 17.5337 13.6866 16.927 14.4326 16.927C15.1782 16.927 15.7849 17.5337 15.7849 18.2794C15.7849 19.0254 15.1782 19.6321 14.4326 19.6321C14.0588 19.6321 13.7562 19.9346 13.7562 20.308C13.7562 20.6814 14.0588 20.9844 14.4326 20.9844C15.1782 20.9844 15.7849 21.5907 15.7849 22.3367C15.7849 23.0827 15.1782 23.689 14.4326 23.689Z" fill="white"/>
<path d="M17.8136 14.8984C18.187 14.8984 18.4895 14.5958 18.4895 14.2224V10.841C18.4895 10.4676 18.187 10.165 17.8136 10.165C17.4402 10.165 17.1372 10.4676 17.1372 10.841V14.2224C17.1372 14.5958 17.4402 14.8984 17.8136 14.8984Z" fill="white"/>
<path d="M17.8136 25.042C17.4402 25.042 17.1372 25.3446 17.1372 25.718V29.099C17.1372 29.4723 17.4402 29.7753 17.8136 29.7753C18.187 29.7753 18.4895 29.4723 18.4895 29.099V25.718C18.4895 25.3446 18.187 25.042 17.8136 25.042Z" fill="white"/>
</g>
<defs>
<clipPath id="clip0">
<rect width="40" height="40" fill="white"/>
</clipPath>
</defs>
</svg>
