<svg width="20" height="12" viewBox="0 0 20 12" fill="none" xmlns="http://www.w3.org/2000/svg">
<path d="M4.06999 11.8366L0.178091 8.26556C-0.0593636 8.04769 -0.0593636 7.69434 0.178091 7.47646C0.415594 7.25854 0.8006 7.25854 1.0381 7.47646L3.89188 10.0949L3.89188 0.557968C3.89188 0.249836 4.16417 0 4.49999 0C4.83577 0 5.1081 0.249836 5.1081 0.557968L5.1081 10.0949L7.96188 7.47655C8.19939 7.25863 8.58439 7.25863 8.8219 7.47655C8.94055 7.58547 9 7.72831 9 7.8711C9 8.0139 8.94055 8.15669 8.8219 8.26565L4.93 11.8366C4.6925 12.0545 4.30749 12.0545 4.06999 11.8366Z" fill="#484848"/>
<path d="M15.07 0.163441L11.1781 3.73444C10.9406 3.95231 10.9406 4.30566 11.1781 4.52354C11.4156 4.74146 11.8006 4.74146 12.0381 4.52354L14.8919 1.90506V11.442C14.8919 11.7502 15.1642 12 15.5 12C15.8358 12 16.1081 11.7502 16.1081 11.442V1.90506L18.9619 4.52345C19.1994 4.74137 19.5844 4.74137 19.8219 4.52345C19.9406 4.41453 20 4.27169 20 4.1289C20 3.9861 19.9406 3.84331 19.8219 3.73435L15.93 0.163441C15.6925 -0.0544796 15.3075 -0.0544796 15.07 0.163441Z" fill="#484848"/>
</svg>
