<svg width="16" height="16" viewBox="0 0 16 16" fill="none" xmlns="http://www.w3.org/2000/svg">
<path d="M8 16C12.4183 16 16 12.4183 16 8C16 3.58172 12.4183 0 8 0C3.58172 0 0 3.58172 0 8C0 12.4183 3.58172 16 8 16Z" fill="#3DB39E"/>
<path d="M14.7 3.63745L7.625 10.9625L7.6375 11.75H7.96251L15.6251 5.57496C15.4 4.88747 15.0875 4.22496 14.7 3.63745Z" fill="#37A18E"/>
<path d="M15.8501 3.2876L14.4375 1.88758C14.25 1.70007 13.9375 1.70007 13.7375 1.88758L7.69999 8.12511L5.08747 5.55011C4.89996 5.3626 4.58746 5.3626 4.38748 5.55011L3.13746 6.78762C2.94995 6.97513 2.94995 7.28763 3.13746 7.47514L7.3125 11.6126C7.42501 11.7251 7.57501 11.7626 7.725 11.7501C7.875 11.7626 8.025 11.7251 8.13751 11.6126L15.8501 3.98759C16.0376 3.78757 16.0376 3.47508 15.8501 3.2876Z" fill="#F2F1EF"/>
<path d="M8.1377 11.6126L15.8502 3.98753C16.0378 3.80002 16.0378 3.48752 15.8502 3.30001L15.6252 3.08752L7.71269 10.8626L3.33767 6.60005L3.15015 6.78756C2.96264 6.97507 2.96264 7.28757 3.15015 7.47508L7.32519 11.6126C7.43771 11.7251 7.5877 11.7626 7.7377 11.7501C7.87519 11.7626 8.02519 11.7251 8.1377 11.6126Z" fill="#E6E5E3"/>
</svg>
