<svg width="38" height="40" viewBox="0 0 38 40" fill="none" xmlns="http://www.w3.org/2000/svg">
<path d="M24.827 19.4173C27.1735 16.6772 28.638 12.6929 28.638 9.67717C28.638 4.33858 24.2995 0 18.9609 0C13.6223 0 9.28371 4.33858 9.28371 9.67717C9.28371 12.6929 10.7483 16.6772 13.0947 19.4173C-1.10212 24.189 0.38607 37.3228 1.00812 40H36.9136C39.0317 30.8268 33.4254 21.9291 24.827 19.4173ZM18.9609 1.29134C22.3546 1.29134 25.2758 3.31496 26.5908 6.22047C23.3703 8.41732 20.1026 5.93701 20.1026 5.93701C17.8191 4.6063 14.953 4.73228 12.7955 6.24409L10.8428 7.61417C11.764 3.99213 15.0475 1.29134 18.9609 1.29134ZM10.575 9.67717C10.575 9.5748 10.5829 9.47244 10.5908 9.37008L13.5357 7.29921C15.2837 6.07087 17.6065 5.97638 19.4491 7.04724C19.4491 7.04724 23.0475 9.80315 27.0396 7.46457C27.2286 8.16535 27.3467 8.90551 27.3467 9.66929C27.3467 14.252 23.5908 21.2835 18.9609 21.2835C14.331 21.2835 10.575 14.2598 10.575 9.67717ZM35.8428 38.7087H2.08686C1.11048 32.6535 3.5908 26.8346 8.15773 23.3307C8.43332 25.1417 8.96875 26.8819 9.76402 28.5354C7.7719 29.7874 6.83489 32.2992 7.64591 34.6063L8.71678 37.6457L11.1499 36.7874L10.7247 35.5669L9.50418 35.9921L8.85851 34.1654C8.14985 32.1496 9.21284 29.937 11.2286 29.2283C13.2365 28.5197 15.4569 29.5827 16.1656 31.5984L16.8034 33.4252L15.5829 33.8504L16.0081 35.0709L18.4412 34.2126L17.3703 31.1654C16.4412 28.5197 13.5672 27.1102 10.9215 27.9685C10.0869 26.2362 9.55143 24.3937 9.33883 22.4803C10.7719 21.5748 12.3782 20.8819 14.1184 20.4488C15.5278 21.7323 17.1656 22.5512 18.953 22.5512C20.7404 22.5512 22.3782 21.7323 23.7876 20.4488C25.8191 20.9528 27.6695 21.811 29.2758 22.9606C28.8979 24.6772 28.268 26.3071 27.3861 27.8189C27.1656 27.7559 26.9373 27.7087 26.6932 27.7087C25.268 27.7087 24.1105 28.8661 24.1105 30.2913C24.1105 31.7165 25.268 32.874 26.6932 32.874C28.1184 32.874 29.2758 31.7165 29.2758 30.2913C29.2758 29.5748 28.9845 28.9291 28.5042 28.4567C29.3467 27 29.9766 25.4567 30.3939 23.8268C34.5593 27.4094 36.764 32.9606 35.8428 38.7087ZM27.9924 30.3228C27.9924 31.0315 27.4097 31.6142 26.701 31.6142C25.9924 31.6142 25.4097 31.0394 25.4097 30.3228C25.4097 29.6063 25.9924 29.0315 26.701 29.0315C27.4176 29.0315 27.9924 29.6142 27.9924 30.3228Z" fill="white"/>
</svg>
