<svg width="32" height="40" viewBox="0 0 32 40" fill="none" xmlns="http://www.w3.org/2000/svg">
<path d="M28.7052 28.6988L21.9055 26.6989H10.0945L3.29479 28.6988C1.64736 29.1834 0.516113 30.6953 0.516113 32.4125V38.0645C0.516113 39.1334 1.38268 40 2.45158 40H29.5484C30.6173 40 31.4838 39.1334 31.4838 38.0645V32.4125C31.4838 30.6953 30.3525 29.1834 28.7052 28.6988Z" fill="#EDEBED"/>
<path d="M19.2258 40H12.7742L11.4839 27.0968H20.5161L19.2258 40Z" fill="#A5CDFF"/>
<path d="M11.4839 27.0968L11.677 29.028C12.7402 30.2158 14.2805 30.9678 16.0001 30.9678C17.7197 30.9678 19.2599 30.2158 20.3231 29.028L20.5162 27.0968H11.4839V27.0968Z" fill="#8CB4EB"/>
<path d="M16.0001 29.6774C13.5058 29.6774 11.4839 27.6555 11.4839 25.1613V20.6452H20.5162V25.1613C20.5162 27.6555 18.4943 29.6774 16.0001 29.6774Z" fill="#F7D291"/>
<path d="M11.4839 23.3749C12.8394 24.0988 14.3763 24.5162 16 24.5162C17.6237 24.5162 19.1607 24.0988 20.5161 23.3749V20.6452H11.4839V23.3749Z" fill="#F0C382"/>
<path d="M24.7095 12.2581H24.3869V5.80649H7.61272V12.2581H7.29014C6.40303 12.2581 5.67725 12.9839 5.67725 13.871C5.67725 14.7581 6.40303 15.4839 7.29014 15.4839H7.64529C7.97576 19.8135 11.5855 23.2259 15.9998 23.2259C20.4141 23.2259 24.0239 19.8135 24.3544 15.4839H24.7095C25.5966 15.4839 26.3224 14.7581 26.3224 13.871C26.3224 12.9839 25.5966 12.2581 24.7095 12.2581Z" fill="#FFE1A0"/>
<path d="M12.129 14.2496C11.7724 14.2496 11.4839 13.9607 11.4839 13.6045V12.9593C11.4839 12.6031 11.7725 12.3142 12.129 12.3142C12.4856 12.3142 12.7742 12.6031 12.7742 12.9593V13.6045C12.7742 13.9608 12.4856 14.2496 12.129 14.2496Z" fill="#6E5A64"/>
<path d="M19.8707 14.2496C19.5141 14.2496 19.2256 13.9607 19.2256 13.6045V12.9593C19.2256 12.6031 19.5142 12.3142 19.8707 12.3142C20.2274 12.3142 20.5159 12.6031 20.5159 12.9593V13.6045C20.5159 13.9608 20.2274 14.2496 19.8707 14.2496Z" fill="#6E5A64"/>
<path d="M12.7743 11.6129H11.484C11.1274 11.6129 10.8389 11.3239 10.8389 10.9677C10.8389 10.6114 11.1275 10.3225 11.484 10.3225H12.7743C13.131 10.3225 13.4195 10.6114 13.4195 10.9677C13.4195 11.3239 13.1309 11.6129 12.7743 11.6129Z" fill="#A06E50"/>
<path d="M20.516 11.6129H19.2257C18.8691 11.6129 18.5806 11.3239 18.5806 10.9677C18.5806 10.6114 18.8692 10.3225 19.2257 10.3225H20.516C20.8727 10.3225 21.1612 10.6114 21.1612 10.9677C21.1612 11.3239 20.8727 11.6129 20.516 11.6129Z" fill="#A06E50"/>
<path d="M7.61271 5.80649V12.2581H7.34677C6.61224 12.2581 5.92615 12.7236 5.73584 13.4331C5.4481 14.506 6.26045 15.484 7.29013 15.484H7.64529C7.97576 19.8136 11.5855 23.2259 15.9998 23.2259C16.4411 23.2259 16.8715 23.183 17.2942 23.1173C13.2743 22.4968 10.1933 19.0324 10.1933 14.8388V10.9182C10.1933 9.4036 11.4726 8.17063 12.9821 8.295C13.4046 8.32985 13.8483 8.34844 14.3144 8.34844C16.1852 8.34844 18.274 8.04985 20.5231 7.46102C21.5057 7.20375 22.351 6.60485 22.9284 5.80649H7.61271Z" fill="#F7D291"/>
<path d="M10.7583 3.22577L10.8389 5.80639C10.8389 5.80639 8.90346 7.74186 8.90346 10.3225V11.1189C8.90346 11.7696 8.41892 12.3185 7.77314 12.3993L6.32275 12.5806V7.09678C6.32283 4.95889 8.33893 3.11827 10.7583 3.22577Z" fill="#A06E50"/>
<path d="M23.7295 30.3102L22.4516 29.0323L23.8192 27.2088C24.1149 26.8146 23.9814 26.2488 23.5405 26.0283L20.5162 24.5161L16 40H19.8709L23.9712 31.7995C24.2195 31.3028 24.1222 30.7028 23.7295 30.3102Z" fill="#DBD9DC"/>
<path d="M28.2581 35.8065H27.2904V34.8388C27.2904 34.4821 27.0018 34.1936 26.6453 34.1936C26.2887 34.1936 26.0001 34.4821 26.0001 34.8387V35.8064H25.0324C24.6757 35.8064 24.3872 36.095 24.3872 36.4516C24.3872 36.8081 24.6758 37.0967 25.0324 37.0967H26.0001V38.0645C26.0001 38.4211 26.2887 38.7096 26.6453 38.7096C27.0018 38.7096 27.2904 38.421 27.2904 38.0645V37.0967H28.2581C28.6148 37.0967 28.9033 36.8081 28.9033 36.4516C28.9033 36.095 28.6147 35.8065 28.2581 35.8065Z" fill="#A5CDFF"/>
<path d="M21.2418 1.29028L21.1611 5.80638C21.1611 5.80638 23.0966 7.74184 23.0966 10.3225V11.1189C23.0966 11.7696 23.5811 12.3185 24.2269 12.3993L25.6773 12.5806V5.1613C25.6773 3.02341 23.6612 1.18278 21.2418 1.29028Z" fill="#CD916E"/>
<path d="M16.0001 18.7096C15.0318 18.7096 14.1389 18.399 13.6116 17.8786C13.3577 17.6279 13.3552 17.2197 13.6053 16.9664C13.8567 16.7125 14.265 16.71 14.5175 16.96C14.7324 17.1718 15.249 17.4193 16 17.4193C16.751 17.4193 17.2677 17.1718 17.4825 16.96C17.7352 16.7099 18.1435 16.7125 18.3948 16.9664C18.6449 17.2197 18.6424 17.6279 18.3885 17.8786C17.8613 18.399 16.9685 18.7096 16.0001 18.7096Z" fill="#E3AA75"/>
<path d="M8.27055 30.3102L9.54844 29.0323L8.18086 27.2088C7.88515 26.8146 8.01867 26.2488 8.45953 26.0283L11.4839 24.5161L16 40H12.1291L8.02883 31.7995C7.78047 31.3028 7.87781 30.7028 8.27055 30.3102Z" fill="#DBD9DC"/>
<path d="M17.2501 0C11.8674 0 10.8359 1.63633 6.69109 2.95648C6.40625 3.04719 6.27804 3.37711 6.43906 3.62891C7.33843 5.03578 10.686 8.70281 20.1966 6.21273C21.3102 5.92117 22.1666 5.0232 22.3924 3.8943C22.654 2.58641 21.8591 1.29109 20.6641 0.698906C19.7148 0.228594 18.47 0 17.2501 0Z" fill="#B67F5F"/>
<path d="M9.54819 40H4.38686C4.03053 40 3.7417 39.7112 3.7417 39.3548V36.7742C3.7417 36.4179 4.03053 36.1291 4.38686 36.1291H9.54819C9.90452 36.1291 10.1933 36.4179 10.1933 36.7742V39.3548C10.1933 39.7112 9.90452 40 9.54819 40Z" fill="#A5CDFF"/>
<path d="M6.96791 37.4194C6.61127 37.4194 6.32275 37.1308 6.32275 36.7742V34.8388C6.32275 34.4821 6.61135 34.1936 6.96791 34.1936C7.32447 34.1936 7.61307 34.4822 7.61307 34.8388V36.7742C7.61307 37.1308 7.32455 37.4194 6.96791 37.4194Z" fill="white"/>
<path d="M9.54819 38.7097H4.38686C4.03053 38.7097 3.7417 38.4208 3.7417 38.0645V39.3548C3.7417 39.7111 4.03053 40 4.38686 40H9.54819C9.90452 40 10.1933 39.7111 10.1933 39.3548V38.0645C10.1933 38.4208 9.90452 38.7097 9.54819 38.7097Z" fill="#8CB4EB"/>
</svg>
