<svg width="17" height="17" viewBox="0 0 17 17" fill="none" xmlns="http://www.w3.org/2000/svg">
<g clip-path="url(#clip0)">
<path d="M2.87177 6.00977H0.919434V7.00586H2.87177V6.00977Z" fill="white"/>
<path d="M2.87177 9.99414H0.919434V10.9902H2.87177V9.99414Z" fill="white"/>
<path d="M2.87174 8.00195H0V8.99805H2.87174V8.00195Z" fill="white"/>
<path d="M10.4338 1.93384C6.81322 1.93384 3.86768 4.87939 3.86768 8.49992C3.86768 12.1205 6.81319 15.066 10.4338 15.066C14.0543 15.066 16.9999 12.1205 16.9999 8.49992C16.9999 4.87939 14.0543 1.93384 10.4338 1.93384ZM10.4338 14.0699C7.36247 14.0699 4.86377 11.5712 4.86377 8.49992C4.86377 5.42863 7.36247 2.92993 10.4338 2.92993C13.5051 2.92993 16.0038 5.42863 16.0038 8.49992C16.0038 11.5712 13.5051 14.0699 10.4338 14.0699Z" fill="white"/>
<path d="M10.7554 8.74731V5.53003H9.75928V9.27388L12.3261 11.0231L12.8871 10.2L10.7554 8.74731Z" fill="white"/>
</g>
<defs>
<clipPath id="clip0">
<rect width="17" height="17" fill="white"/>
</clipPath>
</defs>
</svg>
