<svg width="9" height="15" viewBox="0 0 9 15" fill="none" xmlns="http://www.w3.org/2000/svg">
<path d="M4.06999 14.2153L0.178091 10.0492C-0.0593636 9.79498 -0.0593636 9.38273 0.178091 9.12855C0.415594 8.8743 0.8006 8.8743 1.0381 9.12855L3.89188 12.1834L3.89188 1.05697C3.89188 0.697481 4.16417 0.406006 4.49999 0.406006C4.83577 0.406006 5.1081 0.697481 5.1081 1.05697L5.1081 12.1834L7.96188 9.12865C8.19939 8.87441 8.58439 8.87441 8.8219 9.12865C8.94055 9.25572 9 9.42236 9 9.58896C9 9.75555 8.94055 9.92215 8.8219 10.0493L4.93 14.2153C4.6925 14.4696 4.30749 14.4696 4.06999 14.2153Z" fill="#0957C3"/>
</svg>
