<svg width="41" height="41" viewBox="0 0 41 41" fill="none" xmlns="http://www.w3.org/2000/svg">
<g clip-path="url(#clip0)">
<path d="M32.6059 16.1705H32.5483C31.762 16.1661 31.0022 16.4551 30.4173 16.9808C29.9438 15.6704 28.7405 14.7285 27.3311 14.7285C26.4673 14.7345 25.6422 15.0891 25.0438 15.7125C24.4935 14.5985 23.3896 13.8428 22.1203 13.8428H22.059C21.3788 13.8323 20.715 14.0536 20.1768 14.4698V6.52785C20.1768 4.60862 18.6826 3.04736 16.8651 3.04736C15.0496 3.04736 13.5631 4.60761 13.5621 6.52549L13.5469 22.2828L12.6551 21.1998C11.8732 20.2262 10.7221 19.6217 9.47674 19.5304C8.25697 19.4469 7.05707 19.8712 6.16127 20.7037L5.38536 21.3466C5.13514 21.5541 5.06374 21.9077 5.2136 22.1959L12.7575 36.6968C14.1369 39.3468 16.7613 41 19.6067 41H28.1084V40.9926C32.419 40.9926 35.914 37.2521 35.9183 32.6593C35.92 30.6043 35.9123 29.0727 35.9136 27.8314C35.918 24.5102 35.9146 23.2847 35.9062 19.6257C35.9018 17.7109 34.4184 16.1705 32.6059 16.1705ZM34.5241 27.8267C34.5228 29.0683 34.5208 30.606 34.5187 32.661C34.515 36.4944 31.6212 39.6203 28.068 39.6203H19.607C17.2779 39.6203 15.1223 38.2513 13.9817 36.0596L6.69437 22.0565L7.05404 21.7565C7.06313 21.7491 7.07189 21.7403 7.08064 21.7325C7.69928 21.1503 8.53177 20.8512 9.37941 20.9068C10.2459 20.9731 11.0454 21.3968 11.5873 22.0761L13.6985 24.6449C13.883 24.8702 14.1895 24.9547 14.4636 24.8567C14.7377 24.7587 14.9209 24.4988 14.9209 24.2078L14.9334 6.52617C14.9341 5.36836 15.8096 4.42642 16.8657 4.42642C17.9218 4.42642 18.7974 5.36937 18.7974 6.52785V17.1889C18.7974 17.2259 18.7958 17.2633 18.7958 17.301C18.7958 17.3172 18.7974 17.3337 18.7974 17.3495V21.9077C18.7974 22.2886 19.1063 22.5974 19.4871 22.5974C19.868 22.5974 20.1768 22.2886 20.1768 21.9077V17.2121C20.1768 16.0951 21.0302 15.2222 22.059 15.2222H22.1203C23.1771 15.2222 24.0564 16.1432 24.0564 17.3017V21.4726C24.0564 21.8534 24.3652 22.1623 24.7461 22.1623C25.127 22.1623 25.4358 21.8534 25.4358 21.4726V18.2002C25.4358 17.0414 26.273 16.0988 27.3355 16.0988C28.3919 16.0988 29.2291 17.041 29.2291 18.2002V21.2873C29.2291 21.6682 29.538 21.977 29.9188 21.977C30.2997 21.977 30.6085 21.6682 30.6085 21.2873V19.6156C30.6085 18.4568 31.4915 17.5499 32.5483 17.5499H32.6059C33.66 17.5499 34.5191 18.4723 34.5218 19.6274C34.5302 23.2837 34.5285 24.5078 34.5241 27.8267Z" fill="#0957C3"/>
<path d="M11.3709 6.8256C11.7517 6.8256 12.0606 6.51678 12.0606 6.1359C12.0717 3.50406 14.2085 1.3767 16.84 1.3767C19.4718 1.3767 21.6082 3.50406 21.6194 6.1359C21.6194 6.51678 21.9282 6.8256 22.3091 6.8256C22.6899 6.8256 22.9988 6.51678 22.9988 6.1359C22.986 2.7433 20.2325 0 16.84 0C13.4477 0 10.6939 2.7433 10.6812 6.1359C10.6812 6.51678 10.99 6.8256 11.3709 6.8256Z" fill="#0957C3"/>
</g>
<defs>
<clipPath id="clip0">
<rect width="41" height="41" fill="white"/>
</clipPath>
</defs>
</svg>
