<svg width="134" height="150" viewBox="0 0 134 150" fill="none" xmlns="http://www.w3.org/2000/svg">
<path d="M117.769 110.452H91.6082C90.1497 110.452 88.9663 109.266 88.9663 107.81V89.3566C88.9663 87.898 90.1524 86.7118 91.6082 86.7118H117.769C119.227 86.7118 120.413 87.898 120.413 89.3566V107.81C120.411 109.266 119.224 110.452 117.769 110.452ZM91.6082 86.9843C90.3038 86.9843 89.2415 88.0466 89.2415 89.3539V107.807C89.2415 109.111 90.3038 110.174 91.6082 110.174H117.769C119.076 110.174 120.138 109.111 120.138 107.807V89.3539C120.138 88.0466 119.076 86.9843 117.769 86.9843H91.6082Z" fill="#C1DDFE"/>
<path d="M106.992 98.4002V102.63C106.992 104.056 107.671 105.418 108.863 106.2C109.68 106.736 110.616 106.954 111.656 106.899C112.873 106.836 113.907 105.993 114.213 104.813C114.675 103.016 114.81 100.005 112.284 96.6223C111.491 95.56 110.077 95.1747 108.847 95.6646C107.726 96.1132 106.992 97.1975 106.992 98.4002Z" fill="#CBE2FD"/>
<path d="M104.532 98.4002V102.63C104.532 104.056 103.852 105.418 102.66 106.2C101.843 106.736 100.907 106.954 99.867 106.899C98.6506 106.836 97.6158 105.993 97.3104 104.813C96.848 103.016 96.7132 100.005 99.2395 96.6223C100.032 95.56 101.447 95.1747 102.677 95.6646C103.797 96.1132 104.532 97.1975 104.532 98.4002Z" fill="#CBE2FD"/>
<path d="M101.169 101.772C101.1 101.772 101.042 101.722 101.031 101.653C101.02 101.579 101.075 101.507 101.15 101.499C103.841 101.141 105.184 99.2863 105.517 97.8029V89.7997C105.517 89.7227 105.578 89.6621 105.655 89.6621C105.732 89.6621 105.792 89.7227 105.792 89.7997V97.8167C105.792 97.8277 105.792 97.836 105.789 97.847C105.443 99.4212 104.028 101.394 101.188 101.772C101.183 101.772 101.174 101.772 101.169 101.772Z" fill="#545ECE"/>
<path d="M110.03 101.772C110.025 101.772 110.019 101.772 110.014 101.772C107.578 101.499 105.91 99.5891 105.522 97.847C105.506 97.7727 105.553 97.6984 105.627 97.6819C105.704 97.6654 105.776 97.7122 105.792 97.7865C106.161 99.435 107.74 101.238 110.047 101.499C110.121 101.507 110.176 101.576 110.168 101.65C110.157 101.719 110.099 101.772 110.03 101.772Z" fill="#545ECE"/>
<path d="M108.726 100.954C108.225 100.954 107.853 100.888 107.817 100.883C107.743 100.869 107.694 100.797 107.707 100.723C107.721 100.649 107.79 100.599 107.867 100.613C107.883 100.616 109.672 100.932 110.647 100.145C110.704 100.098 110.792 100.106 110.839 100.164C110.886 100.222 110.878 100.31 110.82 100.357C110.22 100.844 109.37 100.954 108.726 100.954Z" fill="#545ECE"/>
<path d="M110.03 102.878C110.008 102.878 109.986 102.872 109.967 102.861C108.88 102.292 108.723 101.414 108.714 101.378C108.703 101.304 108.753 101.232 108.827 101.218C108.899 101.205 108.973 101.257 108.987 101.331C108.992 101.367 109.135 102.116 110.093 102.616C110.159 102.652 110.187 102.735 110.151 102.804C110.126 102.853 110.077 102.878 110.03 102.878Z" fill="#545ECE"/>
<path d="M102.212 103.64C102.17 103.64 102.129 103.621 102.102 103.585C102.055 103.525 102.069 103.439 102.129 103.393C103.244 102.556 103.12 100.951 103.12 100.935C103.114 100.861 103.169 100.792 103.247 100.786C103.318 100.778 103.39 100.836 103.395 100.913C103.401 100.984 103.53 102.688 102.297 103.613C102.267 103.632 102.239 103.64 102.212 103.64Z" fill="#545ECE"/>
<path d="M102.767 100.731C102.027 100.731 101.092 100.687 100.489 100.497C100.417 100.475 100.376 100.398 100.398 100.324C100.42 100.252 100.497 100.211 100.571 100.233C101.623 100.566 103.86 100.423 103.882 100.423C103.959 100.417 104.022 100.475 104.028 100.552C104.033 100.629 103.976 100.693 103.899 100.698C103.857 100.701 103.378 100.731 102.767 100.731Z" fill="#545ECE"/>
<path d="M96.3363 94.1623L96.1106 93.711C96.017 93.5376 95.9592 93.4082 95.8877 93.2624H95.8794C95.8271 93.4055 95.7639 93.5348 95.6868 93.711L95.4804 94.1623H94.8364L95.5575 92.9018L94.8612 91.6716H95.5079L95.7253 92.1257C95.7996 92.2771 95.8547 92.3982 95.9152 92.5386H95.9235C95.9813 92.3789 96.0308 92.2688 96.0941 92.1257L96.306 91.6716H96.95L96.2482 92.8881L96.9885 94.1623H96.3363Z" fill="#4962D5"/>
<path d="M98.1279 92.7279V93.1022H97.1592V92.7279H98.1279Z" fill="#4962D5"/>
<path d="M98.4829 91.7041C98.6645 91.6739 98.9342 91.6519 99.2342 91.6519C99.603 91.6519 99.8617 91.7069 100.041 91.8473C100.189 91.9656 100.269 92.139 100.269 92.3674C100.269 92.6867 100.043 92.9041 99.8286 92.9811V92.9922C100.002 93.0637 100.098 93.2288 100.162 93.4573C100.239 93.738 100.316 94.0627 100.365 94.1591H99.7874C99.7461 94.0875 99.6883 93.8866 99.614 93.5784C99.5479 93.2674 99.4406 93.1821 99.2122 93.1793H99.0416V94.1591H98.4829V91.7041ZM99.0416 92.7747H99.2645C99.5452 92.7747 99.7131 92.6344 99.7131 92.417C99.7131 92.1885 99.5589 92.0729 99.3003 92.0702C99.1627 92.0702 99.0856 92.0812 99.0443 92.0894V92.7747H99.0416Z" fill="#4962D5"/>
<path d="M101.29 93.5233L101.114 94.1618H100.53L101.293 91.6711H102.033L102.806 94.1618H102.201L102.008 93.5233H101.29ZM101.92 93.0995L101.766 92.5711C101.722 92.4225 101.678 92.2381 101.639 92.0895H101.631C101.595 92.2381 101.557 92.4252 101.515 92.5711L101.367 93.0995H101.92Z" fill="#4962D5"/>
<path d="M103.359 94.1618V93.1407L102.572 91.6683H103.216L103.472 92.2683C103.549 92.4499 103.602 92.582 103.665 92.7444H103.673C103.728 92.5903 103.789 92.4444 103.863 92.2683L104.113 91.6683H104.746L103.926 93.1215V94.1618H103.359Z" fill="#4962D5"/>
<path d="M117.015 81.6368H92.1035C90.301 81.6368 88.8369 80.1699 88.8369 78.37V61.1636C88.8369 59.361 90.3037 57.8969 92.1035 57.8969H117.015C118.817 57.8969 120.281 59.3637 120.281 61.1636V78.37C120.281 80.1699 118.814 81.6368 117.015 81.6368ZM92.1008 58.1693C90.4496 58.1693 89.1094 59.5124 89.1094 61.1609V78.3673C89.1094 80.0186 90.4523 81.3589 92.1008 81.3589H117.012C118.663 81.3589 120.003 80.0158 120.003 78.3673V61.1609C120.003 59.5096 118.66 58.1693 117.012 58.1693H92.1008Z" fill="#C1DDFE"/>
<path d="M112.532 66.7285H102.682C102.3 66.7285 101.992 67.0395 101.992 67.4193V74.74C101.992 75.1225 102.303 75.4308 102.682 75.4308H110.671L112.634 77.3931C112.851 77.6105 113.225 77.4564 113.225 77.1481V74.74V74.0932V67.4193C113.223 67.0368 112.914 66.7285 112.532 66.7285Z" fill="#CBE2FD"/>
<path d="M95.3317 62.8259H105.181C105.564 62.8259 105.872 63.1369 105.872 63.5167V70.8374C105.872 71.22 105.561 71.5282 105.181 71.5282H97.192L95.2299 73.4905C95.0125 73.7079 94.6382 73.5538 94.6382 73.2456V70.8374V70.1907V63.5195C94.6409 63.1369 94.9519 62.8259 95.3317 62.8259Z" fill="#CBE2FD"/>
<path d="M105.184 71.6685H101.992V71.3933H105.184C105.489 71.3933 105.737 71.1456 105.737 70.8401V66.7312H106.012V70.8401C106.012 71.2942 105.641 71.6685 105.184 71.6685Z" fill="#3A46CE"/>
<path d="M100.591 64.6533H99.7651V69.4063H100.591V64.6533Z" fill="#3A46CE"/>
<path d="M102.553 66.6184H97.8003V67.444H102.553V66.6184Z" fill="#3A46CE"/>
<path d="M107.374 68.611L107.479 70.6998L107.504 71.1567L107.542 71.9025H108.371L108.42 70.9118L108.439 70.4494L108.53 68.6137H107.374V68.611ZM107.958 72.2658C107.572 72.2658 107.303 72.541 107.303 72.9263C107.303 73.3034 107.567 73.5868 107.958 73.5868C108.348 73.5868 108.604 73.3034 108.604 72.9263C108.593 72.541 108.34 72.2658 107.958 72.2658Z" fill="#545ED6"/>
<path d="M117.015 52.8219H92.1035C90.301 52.8219 88.8369 51.355 88.8369 49.5551V32.3487C88.8369 30.546 90.3037 29.0819 92.1035 29.0819H117.015C118.817 29.0819 120.281 30.5488 120.281 32.3487V49.5551C120.281 51.355 118.814 52.8219 117.015 52.8219ZM92.1008 29.3544C90.4496 29.3544 89.1094 30.6974 89.1094 32.3459V49.5523C89.1094 51.2036 90.4523 52.5439 92.1008 52.5439H117.012C118.663 52.5439 120.003 51.2009 120.003 49.5523V32.3459C120.003 30.6947 118.66 29.3544 117.012 29.3544H92.1008Z" fill="#C1DDFE"/>
<path d="M113.576 36.7164C113.521 36.5705 113.452 36.4247 113.38 36.2843C112.946 35.4312 112.307 34.6881 111.481 34.1487C110.65 33.6037 109.742 33.3395 108.837 33.3175C107.254 33.2845 105.691 34.0221 104.632 35.3926C103.627 33.9808 102.1 33.1799 100.515 33.1496C99.6121 33.1331 98.693 33.3643 97.8426 33.8679C95.6438 35.1835 94.6283 37.9273 95.2502 40.4401C95.3548 40.8804 95.5144 41.3152 95.7263 41.7336C96.5162 43.2885 99.092 45.6581 101.222 47.4525C101.349 47.5598 101.47 47.6644 101.591 47.7635C102.094 48.1818 102.562 48.5616 102.967 48.8809C103.239 49.101 103.481 49.2909 103.682 49.4478C103.875 49.5992 104.106 49.679 104.34 49.6845C104.574 49.69 104.808 49.6212 105.009 49.4781C105.237 49.313 105.518 49.112 105.834 48.8809C107.037 47.9947 108.771 46.6737 110.29 45.3389C110.293 45.3334 110.298 45.3306 110.301 45.3279C111.564 44.216 112.676 43.0931 113.207 42.2042C113.232 42.1656 113.251 42.1299 113.27 42.0968C113.565 41.5712 113.774 41.0125 113.903 40.4428C114.181 39.1823 114.06 37.8696 113.576 36.7164Z" fill="#CBE2FD"/>
<path d="M105.055 43.8224C105.052 43.8224 105.046 43.8224 105.041 43.8224C104.98 43.8169 104.931 43.7729 104.92 43.7151L103.535 37.4815L101.871 42.0418C101.851 42.0968 101.802 42.1326 101.744 42.1326C101.678 42.1299 101.637 42.0996 101.615 42.0473L100.533 39.3447L99.7983 39.8951C99.768 39.9171 99.7322 39.9254 99.6937 39.9199C99.6579 39.9144 99.6249 39.8951 99.6029 39.8648L99.2506 39.375L98.5489 40.5116C98.5241 40.5529 98.4801 40.5776 98.4305 40.5776H95.1859C95.1089 40.5776 95.0483 40.5171 95.0483 40.44C95.0483 40.363 95.1089 40.3024 95.1859 40.3024H98.3535L99.124 39.0557C99.1488 39.0172 99.1901 38.9924 99.2369 38.9897C99.2837 38.9897 99.3277 39.0089 99.3525 39.0475L99.7432 39.5896L100.511 39.0172C100.544 38.9924 100.588 38.9842 100.629 38.9952C100.671 39.0062 100.704 39.0365 100.72 39.0777L101.736 41.6125L103.439 36.9476C103.461 36.8898 103.511 36.8512 103.577 36.8568C103.637 36.8595 103.69 36.9035 103.703 36.9641L105.099 43.239L106.351 40.2887C106.367 40.2501 106.403 40.2199 106.444 40.2089C106.486 40.1979 106.53 40.2089 106.563 40.2336L107.22 40.7538L108.715 36.2733C108.734 36.2183 108.781 36.1825 108.839 36.1797C108.894 36.177 108.949 36.21 108.971 36.2595L110.773 40.2501L111.783 39.0392C111.811 39.0062 111.852 38.9897 111.902 38.9897C111.946 38.9924 111.987 39.0199 112.009 39.0585L112.713 40.3024H114.056C114.133 40.3024 114.194 40.363 114.194 40.44C114.194 40.5171 114.133 40.5776 114.056 40.5776H112.634C112.584 40.5776 112.537 40.5501 112.515 40.5088L111.869 39.3695L110.848 40.5969C110.817 40.6327 110.77 40.652 110.724 40.6437C110.677 40.6382 110.636 40.6079 110.616 40.5639L108.869 36.6916L107.424 41.0235C107.41 41.0648 107.375 41.0978 107.333 41.1116C107.289 41.1253 107.245 41.1143 107.209 41.0868L106.541 40.5556L105.192 43.7371C105.159 43.7894 105.11 43.8224 105.055 43.8224Z" fill="#3A46CE"/>
<path d="M74.7634 123.992H3.41797C1.53011 123.992 0 122.465 0 120.577V3.61909C0 1.73112 1.53011 0.200928 3.41797 0.200928H74.7634C76.6512 0.200928 78.1813 1.73112 78.1813 3.61909V120.577C78.1786 122.465 76.6485 123.992 74.7634 123.992Z" fill="#C1DDFE"/>
<path d="M77.2704 123.992H9.24393C6.43965 123.992 4.1665 121.719 4.1665 118.915V5.27863C4.1665 2.4742 6.43965 0.200928 9.24393 0.200928H77.2704C80.0747 0.200928 82.3479 2.4742 82.3479 5.27863V118.915C82.3479 121.719 80.0747 123.992 77.2704 123.992Z" fill="white"/>
<path d="M77.3449 124.196H9.16984C6.30226 124.196 3.96582 121.862 3.96582 118.992V5.2043C3.96582 2.33382 6.29951 0 9.16984 0H77.3477C80.2153 0 82.5517 2.33382 82.5517 5.2043V118.992C82.549 121.862 80.2153 124.196 77.3449 124.196ZM9.16984 0.401813C6.52242 0.401813 4.37036 2.55399 4.37036 5.20155V118.989C4.37036 121.636 6.52242 123.789 9.16984 123.789H77.3477C79.9951 123.789 82.1472 121.636 82.1472 118.989V5.2043C82.1472 2.55674 79.9951 0.404565 77.3477 0.404565H9.16984V0.401813Z" fill="#C1DDFE"/>
<path d="M82.549 14.0882H3.96582V5.2043C3.96582 2.33382 6.29951 0 9.16984 0H77.3477C80.2153 0 82.5517 2.33382 82.5517 5.2043V14.0882H82.549ZM4.37036 13.6837H82.1472V5.2043C82.1472 2.55674 79.9951 0.404565 77.3477 0.404565H9.16984C6.52242 0.404565 4.37036 2.55674 4.37036 5.2043V13.6837Z" fill="#C1DDFE"/>
<path d="M77.3449 124.069H9.16984C6.30226 124.069 3.96582 121.735 3.96582 118.865V109.981H82.5489V118.865C82.5489 121.735 80.2152 124.069 77.3449 124.069ZM4.37036 110.386V118.868C4.37036 121.515 6.52242 123.667 9.16984 123.667H77.3477C79.9951 123.667 82.1471 121.515 82.1471 118.868V110.386H4.37036Z" fill="#C1DDFE"/>
<path d="M47.8929 8.27845H38.4838C37.7656 8.27845 37.1821 7.695 37.1821 6.97669C37.1821 6.25838 37.7656 5.67493 38.4838 5.67493H47.8929C48.6112 5.67493 49.1946 6.25838 49.1946 6.97669C49.1973 7.695 48.6139 8.27845 47.8929 8.27845Z" fill="white"/>
<path d="M47.8931 8.47934H38.484C37.6557 8.47934 36.9814 7.80506 36.9814 6.97667C36.9814 6.14827 37.6557 5.474 38.484 5.474H47.8931C48.7214 5.474 49.3957 6.14827 49.3957 6.97667C49.3957 7.80506 48.7242 8.47934 47.8931 8.47934ZM38.484 5.87306C37.8758 5.87306 37.3832 6.36845 37.3832 6.97392C37.3832 7.57939 37.8758 8.07477 38.484 8.07477H47.8931C48.5013 8.07477 48.9939 7.57939 48.9939 6.97392C48.9939 6.36845 48.5013 5.87306 47.8931 5.87306H38.484Z" fill="#C1DDFE"/>
<path d="M72.5317 20.4126H13.3501V105.536H72.5317V20.4126Z" fill="#CBE2FD"/>
<path d="M38.63 33.0422C38.63 33.0422 40.2152 42.5646 37.7686 46.4039C37.7686 46.4039 36.1202 49.3184 33.1343 50.2404C33.1343 50.2404 39.8381 54.3989 44.7119 54.7154C49.2912 55.0126 54.4512 49.5138 54.7539 48.7157C54.7539 48.7157 50.2599 46.569 49.4343 44.1939C48.6087 41.8161 48.6968 38.5245 48.6968 38.5245L38.63 33.0422Z" fill="#FFCBC5"/>
<path d="M64.2287 105.536C64.2094 105.47 64.1929 105.402 64.1764 105.333C63.3893 102.264 62.4757 99.234 61.4217 96.5122C61.2428 96.0526 61.0611 95.6012 60.874 95.1609C60.8327 95.059 60.7887 94.96 60.7474 94.8609C60.7309 94.8196 60.7116 94.7811 60.6951 94.7425C60.6786 94.704 60.6649 94.6682 60.6483 94.6325C60.1888 93.5866 59.7072 92.5986 59.2008 91.6932C58.9586 91.2583 58.7082 90.84 58.4523 90.4437C58.4523 90.4437 59.7622 78.6095 61.2428 74.9712C61.2483 74.9519 61.2565 74.9354 61.2648 74.9189L62.6848 77.0931L62.7646 77.2141L62.9655 77.5224L63.4939 78.3315C63.4939 78.3315 63.5792 77.305 63.67 75.6509C63.6783 75.5106 63.6865 75.3647 63.6948 75.2133C63.7003 75.1198 63.7058 75.0234 63.7113 74.9244C63.7333 74.473 63.7553 73.9859 63.7801 73.4712C64.0691 66.6019 64.1324 54.5503 61.262 51.5532C58.9751 49.1698 57.8523 48.8258 55.8021 48.0332C54.6683 47.5929 53.7051 47.2846 52.984 47.0755C52.3181 46.8828 51.8557 46.7755 51.6548 46.7314C51.5778 46.7177 51.5393 46.7094 51.5393 46.7094L51.4237 47.2186L51.3411 47.5901L50.1357 52.9568C50.1357 52.9568 50.1357 52.9568 50.1357 52.9595C50.133 52.9953 50.1137 53.1742 50.0394 53.4164C49.7037 54.5365 48.2341 57.1043 42.0064 54.231C42.0036 54.2283 41.8825 54.0026 41.8825 54.0026L37.7683 46.4039C37.7545 46.4067 37.738 46.4094 37.7077 46.4177C37.694 46.4232 37.6747 46.4259 37.6527 46.4315C37.6362 46.4315 37.6224 46.437 37.6004 46.4425C37.4931 46.47 37.3858 46.4948 37.2757 46.525C37.0693 46.5773 36.8601 46.6324 36.651 46.6929C36.051 46.8525 35.4456 47.0369 34.8429 47.2351C32.4542 48.0194 30.0627 49.068 28.007 50.3175C26.3503 51.322 24.8532 52.6706 23.9698 54.3961C23.5295 55.2576 23.2515 56.1933 22.9928 57.1263C22.0186 60.6545 21.4242 64.2626 20.7252 67.8431C20.0455 71.3218 19.3822 74.8473 19.2859 78.3976C19.2749 78.7939 19.2722 79.1654 19.2777 79.5204C19.2969 81.2956 19.4675 82.6441 19.4483 84.122C19.4097 86.9265 19.4097 88.7401 19.4097 88.7401C19.4097 88.7401 19.5584 90.3199 22.1039 91.6932C23.1414 92.2546 24.578 92.7803 26.5622 93.1546L27.9602 93.5564L29.9912 94.1398C29.9912 94.1398 29.9554 94.4426 29.8948 94.9489C29.6279 97.1809 28.8683 103.39 28.4555 105.333C28.4418 105.407 28.4253 105.476 28.4115 105.536C28.3923 105.616 28.3757 105.682 28.3592 105.737H64.2782C64.2617 105.671 64.2452 105.605 64.2287 105.536Z" fill="white"/>
<path d="M50.8681 68.0137C50.8571 68.0137 50.8489 68.0137 50.8379 68.0109C50.7636 67.9944 50.7168 67.9201 50.7333 67.8485L53.2431 56.3198L51.9882 53.0117C51.9607 52.9429 51.9965 52.8631 52.0653 52.8356L54.6384 51.7733L55.6676 48.0001C55.6869 47.9258 55.7639 47.8845 55.8355 47.9038C55.9098 47.923 55.9511 48.0001 55.9318 48.0716L54.8833 51.9081C54.8723 51.9494 54.842 51.9824 54.8035 51.999L52.2909 53.0365L53.5128 56.2593C53.5211 56.284 53.5238 56.3116 53.5183 56.3363L51.0002 67.9063C50.9892 67.9696 50.9314 68.0137 50.8681 68.0137Z" fill="#C0D6FD"/>
<path d="M44.7529 68.2724C44.7006 68.2724 44.6539 68.2449 44.6291 68.1953L39.1554 56.862C39.1471 56.8427 39.1416 56.8235 39.1416 56.8015V53.0971H35.4429C35.3714 53.0971 35.3136 53.0448 35.3053 52.9732L34.7054 47.2323C34.6972 47.158 34.7522 47.0892 34.8292 47.0809C34.9036 47.0726 34.9724 47.1277 34.9806 47.2047L35.5668 52.8219H39.2792C39.3563 52.8219 39.4168 52.8824 39.4168 52.9595V56.7712L44.8768 68.0742C44.9098 68.143 44.8823 68.2256 44.8135 68.2586C44.7942 68.2669 44.775 68.2724 44.7529 68.2724Z" fill="#C0D6FD"/>
<path d="M58.1222 75.3206C58.0534 75.3206 57.9928 75.2684 57.9846 75.1968L57.5965 71.1649C57.5883 71.0906 57.6433 71.0218 57.7204 71.0135C57.7974 71.0108 57.8635 71.0603 57.8717 71.1374L58.2598 75.1693C58.268 75.2436 58.213 75.3124 58.1359 75.3206C58.1332 75.3206 58.1277 75.3206 58.1222 75.3206Z" fill="#C0D6FD"/>
<path d="M33.9269 71.2255C33.8554 71.2255 33.7948 71.1704 33.7893 71.0989L33.704 69.8989C33.7013 69.8631 33.7123 69.8274 33.737 69.7998C33.7618 69.7723 33.7948 69.7558 33.8306 69.7531L42.5874 69.1311C42.6562 69.1283 42.7278 69.1834 42.7333 69.2577L42.8186 70.4576C42.8214 70.4934 42.8104 70.5292 42.7856 70.5567C42.7608 70.5842 42.7278 70.6007 42.692 70.6035L33.9352 71.2255C33.9324 71.2255 33.9297 71.2255 33.9269 71.2255ZM33.9875 70.0145L34.0535 70.942L42.5379 70.3393L42.4719 69.4118L33.9875 70.0145Z" fill="#C0D6FD"/>
<path d="M46.5943 105.333C46.6273 102.947 46.6438 100.371 46.6383 97.6846V97.6681C46.6383 97.2993 46.6383 96.9278 46.6355 96.5562C46.6355 96.1324 46.6328 95.7058 46.63 95.2765C46.6273 95.1058 46.6273 94.938 46.6245 94.7673C46.6163 93.9362 46.608 93.0968 46.5943 92.2519V92.2491C46.5915 92.0647 46.5888 91.8803 46.586 91.6932C46.5365 88.7456 46.4539 85.7376 46.3273 82.757C46.3053 82.2644 46.2833 81.7745 46.2585 81.2846C46.1319 78.626 45.9641 76.0005 45.7494 73.4713C45.6558 72.3511 45.5513 71.253 45.4357 70.177C44.7257 63.4507 43.6304 57.685 41.9654 54.22C41.9296 54.1457 41.8939 54.0769 41.8608 54.0054C41.8608 54.0054 41.8691 54.0054 41.8829 54.0026C42.3012 53.9834 48.4711 53.6834 49.9957 52.7339L50.015 53.0339V53.0394L50.0398 53.4164L50.3205 57.7868L50.9452 67.5211L51.113 70.1384L51.3277 73.4713L52.4863 91.5446C52.4863 91.5446 52.4918 91.5969 52.4973 91.6932C52.4973 91.7317 52.5 91.7757 52.5028 91.828C52.5303 92.2987 52.5936 93.3307 52.6707 94.7426C52.6817 94.9214 52.6927 95.1058 52.7037 95.2957C52.7175 95.5599 52.7312 95.8379 52.7477 96.1269C52.7752 96.625 52.8028 97.1562 52.8303 97.7121C52.8551 98.2048 52.8826 98.7194 52.9073 99.2506C52.9349 99.8092 52.9651 100.387 52.9927 100.979C53.0587 102.371 53.1247 103.844 53.1853 105.333C53.188 105.402 53.1908 105.468 53.1935 105.536C53.1963 105.603 53.1991 105.671 53.2046 105.737H46.5888C46.5888 105.671 46.5915 105.605 46.5915 105.536C46.5915 105.468 46.5943 105.402 46.5943 105.333Z" fill="#DAEBFE"/>
<path d="M44.7009 75.9206C44.2936 75.9206 43.9634 75.5904 43.9634 75.1831C43.9634 74.7785 44.2936 74.4482 44.7009 74.4482C45.1055 74.4482 45.4357 74.7785 45.4357 75.1831C45.4357 75.5904 45.1055 75.9206 44.7009 75.9206ZM44.7009 74.7235C44.4477 74.7235 44.2386 74.9299 44.2386 75.1831C44.2386 75.4363 44.445 75.6454 44.7009 75.6454C44.9568 75.6454 45.1605 75.439 45.1605 75.1831C45.1605 74.9271 44.9541 74.7235 44.7009 74.7235Z" fill="#C0D6FD"/>
<path d="M45.2978 89.0869C44.8932 89.0869 44.563 88.7566 44.563 88.3493C44.563 87.9448 44.8932 87.6145 45.2978 87.6145C45.7051 87.6145 46.0353 87.9448 46.0353 88.3493C46.0353 88.7566 45.7051 89.0869 45.2978 89.0869ZM45.2978 87.8897C45.0446 87.8897 44.8382 88.0961 44.8382 88.3493C44.8382 88.6025 45.0446 88.8117 45.2978 88.8117C45.551 88.8117 45.7601 88.6053 45.7601 88.3493C45.7601 88.0961 45.5537 87.8897 45.2978 87.8897Z" fill="#C0D6FD"/>
<path d="M60.6129 95.1828C60.6129 95.1828 57.3794 98.3671 56.0199 98.8129C54.6604 99.2615 52.4203 99.2615 52.4203 99.2615L49.8664 96.5809L49.4536 95.114H51.4681L51.724 94.7452H60.7973L60.6129 95.1828Z" fill="#FFC3BD"/>
<path d="M55.5435 97.3406C55.5325 97.3406 55.5215 97.3406 55.5104 97.3378L53.4162 96.8177C53.3969 96.8121 53.3804 96.8039 53.3639 96.7929L51.3797 95.2214C51.3191 95.1746 51.3109 95.0865 51.3577 95.0287C51.4045 94.9682 51.4925 94.9599 51.5503 95.0067L53.5097 96.5589L55.5737 97.0736C55.648 97.0929 55.6921 97.1672 55.6728 97.2415C55.6618 97.2993 55.6068 97.3406 55.5435 97.3406Z" fill="#FFA89E"/>
<path d="M53.8537 98.4799C53.8289 98.4799 53.8041 98.4717 53.7821 98.4606L50.9173 96.6965C50.8512 96.658 50.832 96.5727 50.8733 96.5066C50.9145 96.4406 50.9998 96.4213 51.0631 96.4626L53.8839 98.1992L55.1196 97.9873C55.1939 97.9763 55.2654 98.0258 55.2792 98.1001C55.293 98.1744 55.2407 98.246 55.1664 98.2597L53.8812 98.4799C53.8702 98.4799 53.8619 98.4799 53.8537 98.4799Z" fill="#FFA89E"/>
<path d="M64.5371 73.906C64.5371 73.906 60.2027 80.8937 61.9667 91.6931H18.9834C18.9834 91.6931 14.2802 80.5249 24.6415 73.4712H64.9031L64.5371 73.906Z" fill="#08F7C8"/>
<path d="M64.9058 73.4712C64.9058 73.4712 67.9908 84.9339 65.2002 94.7425C65.2002 94.7425 61.7933 94.7425 61.9666 91.6931C61.9666 91.6931 59.6274 79.6938 64.9058 73.4712Z" fill="#00D1A7"/>
<path d="M61.9668 91.6931H18.9834C18.9834 91.6931 21.5538 94.4122 25.302 94.7425C29.0502 95.0727 62.2585 95.8076 65.1976 94.7425C65.1976 94.7425 62.0768 93.3774 61.9668 91.6931Z" fill="#00D1A7"/>
<path d="M39.4002 93.3169C39.8433 93.3637 40.3799 93.3335 40.6909 93.3059C40.8725 93.2922 41.0514 93.3087 41.2248 93.3582C43.3933 93.9609 48.5561 95.2544 48.5561 95.2544C48.5561 95.2544 50.6889 95.6095 50.3696 96.6663C50.0532 97.7259 47.5489 96.9993 47.5489 96.9993C47.5489 96.9993 46.4893 98.4304 42.2568 98.7827C38.0242 99.135 35.4346 96.1544 35.4346 96.1544L39.4002 93.3169Z" fill="#FFCBC5"/>
<path d="M47.5491 97.1396C47.5299 97.1396 47.5078 97.1341 47.4886 97.1259L44.921 95.8737C44.8522 95.8407 44.8247 95.7581 44.8577 95.6893C44.8907 95.6205 44.9733 95.593 45.0421 95.626L47.6097 96.8782C47.6785 96.9112 47.706 96.9938 47.673 97.0626C47.6482 97.1121 47.5987 97.1396 47.5491 97.1396Z" fill="#FFAFA6"/>
<path d="M54.4206 38.6126C54.4206 38.6126 42.477 29.2911 46.2335 16.4689C46.2335 16.4689 51.1925 17.7624 54.4784 22.3887C56.7103 25.5317 56.7543 29.6626 54.9518 33.0698C54.1427 34.5972 53.6693 36.7632 54.7178 39.5291L54.4206 38.6126Z" fill="#D86B4B"/>
<path d="M48.5726 40.8116C48.1791 41.0923 47.6947 41.2299 47.2104 41.1859C44.9482 40.985 37.9114 39.6062 35.2282 30.2626C32.0111 19.0587 41.6211 15.5112 41.6211 15.5112C41.6211 15.5112 55.1499 14.4406 52.5685 32.2029C52.5712 32.2029 52.3346 38.1365 48.5726 40.8116Z" fill="#FFCBC5"/>
<path d="M39.8601 22.9123C41.5479 18.9475 39.3405 14.2112 34.9298 12.3334C30.5191 10.4556 25.5753 12.1474 23.8875 16.1122C22.1998 20.077 24.4071 24.8134 28.8178 26.6912C33.2285 28.569 38.1723 26.8771 39.8601 22.9123Z" fill="#D86B4B"/>
<path d="M39.0648 15.4257C49.8829 11.7324 52.3184 23.2446 52.3184 23.2446C52.3184 23.2446 49.5692 26.66 47.164 26.4591C45.9613 26.36 45.0587 27.0095 44.456 27.6865C43.5864 28.6663 42.5131 29.4452 41.2829 29.891L41.1811 29.9268C40.0996 30.3203 39.607 31.5753 40.1326 32.5991L40.4986 33.3092C41.0435 34.3687 41.382 35.5301 41.4371 36.7218C41.4838 37.7208 41.3545 38.8465 40.7573 39.7244C40.7573 39.7244 40.0198 38.4777 38.7098 38.1061C38.2447 37.974 37.6421 37.2667 37.0614 36.4081C35.5946 34.2449 34.747 31.7212 34.5213 29.1176C33.5086 17.4045 39.0648 15.4257 39.0648 15.4257Z" fill="#D86B4B"/>
<path d="M50.4388 31.3084C50.4196 31.6497 50.1939 31.9166 49.938 31.9029C49.682 31.8891 49.4894 31.5974 49.5087 31.2561C49.5279 30.9148 49.7536 30.6479 50.0095 30.6616C50.2654 30.6754 50.4581 30.9644 50.4388 31.3084Z" fill="#7E5251"/>
<path d="M46.0633 31.2039C46.0441 31.5452 45.8184 31.8121 45.5625 31.7984C45.3065 31.7846 45.1139 31.4929 45.1332 31.1516C45.1524 30.8103 45.3781 30.5434 45.634 30.5571C45.8927 30.5737 46.0854 30.8626 46.0633 31.2039Z" fill="#7E5251"/>
<path d="M47.998 35.4008C47.8356 35.4008 47.6732 35.3733 47.5384 35.3183C47.4668 35.2908 47.4338 35.2109 47.4613 35.1394C47.4888 35.0678 47.5686 35.0348 47.6402 35.0623C47.9374 35.1807 48.3557 35.1284 48.5016 34.9522C48.5814 34.8559 48.5649 34.7211 48.4575 34.5504C47.9842 33.8129 47.8411 31.5864 47.8411 31.5644C47.8411 31.4873 47.9016 31.4268 47.9787 31.4268C48.0557 31.4268 48.1163 31.4873 48.1163 31.5644C48.119 31.735 48.2842 33.7661 48.6887 34.4018C48.9254 34.7706 48.807 35.0155 48.7135 35.1256C48.5594 35.3155 48.2787 35.4008 47.998 35.4008Z" fill="#FF7E70"/>
<path d="M47.2797 37.7622C47.2715 37.7622 47.2632 37.7622 47.255 37.7594C47.1779 37.7457 45.3561 37.3851 45.3836 35.9898C45.3864 35.9127 45.4414 35.8467 45.524 35.8549C45.601 35.8577 45.6616 35.9182 45.6588 35.9953C45.6368 37.1595 47.2907 37.4842 47.3072 37.487C47.3815 37.5007 47.4311 37.5723 47.4173 37.6466C47.4008 37.7154 47.343 37.7622 47.2797 37.7622Z" fill="#FF7E70"/>
<path d="M51.4184 30.2351C51.0606 30.0727 50.7579 29.9378 50.4359 29.858C50.2763 29.8167 50.1167 29.781 49.9461 29.7644C49.7755 29.7397 49.5993 29.7369 49.3984 29.7121C49.7012 29.4534 50.1442 29.3819 50.535 29.4865C50.7304 29.536 50.9148 29.6323 51.0689 29.7589C51.223 29.8855 51.3524 30.0452 51.4184 30.2351Z" fill="#D86B4B"/>
<path d="M44.3789 30.0259C44.445 29.836 44.5743 29.6764 44.7284 29.5498C44.8825 29.4232 45.0642 29.3269 45.2623 29.2774C45.6531 29.1728 46.0961 29.2443 46.3989 29.503C46.198 29.5278 46.0218 29.5306 45.8512 29.5553C45.6806 29.5718 45.521 29.6104 45.3614 29.6489C45.0366 29.7287 44.7367 29.8636 44.3789 30.0259Z" fill="#D86B4B"/>
<path d="M48.7793 40.6602C48.7793 40.6602 48.1188 41.1281 47.6675 41.1941C46.7869 41.3262 43.0524 40.8859 41.1343 38.9924C41.1343 38.9924 45.5787 44.3811 49.437 44.1912C49.0765 43.0518 48.8619 41.8739 48.7793 40.6602Z" fill="#FFB4AB"/>
<path d="M65.1975 94.7425C64.4407 94.5828 63.7417 94.1838 63.1637 93.6581C63.0179 93.5288 62.8885 93.3802 62.7564 93.2371C62.6409 93.0802 62.5088 92.9343 62.4152 92.7609C62.1978 92.4362 62.0629 92.0647 61.9639 91.6931C62.1648 92.0234 62.3547 92.3454 62.5913 92.6371C62.8197 92.9316 63.0702 93.2068 63.3481 93.4545C63.6206 93.7077 63.915 93.9388 64.2233 94.1535C64.537 94.3627 64.859 94.5636 65.1975 94.7425Z" fill="white"/>
<path d="M18.9834 91.6932L24.3718 91.6271L29.7574 91.5886L40.5287 91.5555L51.3 91.5886L56.6857 91.6271L62.0713 91.6932L56.6857 91.7592L51.3 91.7977L40.5287 91.8308L29.7574 91.7977L24.3718 91.7592L18.9834 91.6932Z" fill="white"/>
<path d="M30.5023 62.9248L26.388 76.9415L39.5618 93.0883L34.4211 97.0569L19.2852 79.0799" fill="white"/>
<path d="M34.4002 97.247L19.1816 79.1681L19.3908 78.9893L34.4414 96.8672L39.3675 93.0665L26.2377 76.9719L30.3712 62.8865L30.6354 62.9635L26.5405 76.9114L39.761 93.1132L34.4002 97.247Z" fill="#C0D6FD"/>
<path d="M48.6882 74.0216C48.3855 74.0216 48.1378 73.7739 48.1378 73.4712V72.6428C48.1378 71.586 47.2792 70.7273 46.2224 70.7273H42.0284C40.9716 70.7273 40.113 71.586 40.113 72.6428V73.4712C40.113 73.7739 39.8653 74.0216 39.5626 74.0216C39.2599 74.0216 39.0122 73.7739 39.0122 73.4712V72.6428C39.0122 70.9805 40.3662 69.6265 42.0284 69.6265H46.2224C47.8846 69.6265 49.2386 70.9805 49.2386 72.6428V73.4712C49.2386 73.7739 48.9937 74.0216 48.6882 74.0216Z" fill="#00D1A7"/>
<path d="M64.5373 73.906C64.0227 74.4179 63.6677 75.0619 63.3512 75.7032C63.2081 76.0334 63.0485 76.3554 62.9357 76.6994L62.7513 77.2058L62.5999 77.7232C62.2036 79.1076 61.9312 80.5277 61.8018 81.967C61.7496 82.3248 61.733 82.6853 61.7055 83.0459L61.6285 84.1275C61.6147 84.8485 61.5899 85.5723 61.5844 86.2961C61.5982 87.02 61.5927 87.7438 61.6202 88.4648C61.6505 89.1886 61.689 89.9125 61.711 90.6363C61.6285 89.9152 61.5597 89.1942 61.4854 88.4731C61.4276 87.7493 61.4111 87.0227 61.3725 86.2989C61.3478 85.9356 61.3643 85.5723 61.3643 85.209L61.3753 84.1192L61.4386 83.0294C61.4634 82.6661 61.4744 82.3028 61.5239 81.9423L61.6615 80.8579C61.7165 80.4974 61.7908 80.1396 61.8541 79.7818C61.9119 79.4213 62.0055 79.069 62.0936 78.714L62.2257 78.1828L62.3963 77.6627L62.5697 77.1425L62.7761 76.6361C62.9026 76.2949 63.076 75.9701 63.2329 75.6426C63.4145 75.3261 63.5961 75.0096 63.8136 74.7151C64.0227 74.4207 64.2539 74.1344 64.5373 73.906Z" fill="white"/>
<path d="M50.023 61.626C49.8717 61.626 49.7478 61.5049 49.7478 61.3536C49.7451 61.0233 49.7093 53.2925 53.1245 53.1769C53.152 53.1769 53.1796 53.1742 53.2071 53.1742C56.5452 53.1742 57.1177 60.2389 57.1397 60.5444C57.1507 60.6958 57.0379 60.8279 56.8865 60.8389C56.7379 60.8527 56.603 60.7371 56.592 60.5857C56.5865 60.5169 56.0389 53.7274 53.2071 53.7274C53.1878 53.7274 53.1658 53.7274 53.1465 53.7274C50.7523 53.8072 50.2817 59.2564 50.301 61.3481C50.2982 61.5022 50.1771 61.626 50.023 61.626Z" fill="#545ECE"/>
<path d="M55.3427 70.1962L55.3345 69.9209C55.4115 69.9182 57.2058 69.8301 57.1563 67.3504C57.104 64.7304 56.7297 60.6215 56.7242 60.5802L56.9994 60.5554C57.0022 60.5967 57.3792 64.7139 57.4315 67.3449C57.4865 70.1053 55.3647 70.1962 55.3427 70.1962Z" fill="#545ECE"/>
<path d="M55.0979 70.6805L55.3676 70.6613L55.2713 69.3981L55.0016 69.4173C54.7566 69.4366 54.5695 69.6513 54.5888 69.8962L54.6163 70.2677C54.6356 70.5154 54.8502 70.6998 55.0979 70.6805Z" fill="#545ECE"/>
<path d="M55.0622 70.8181C54.9218 70.8181 54.7897 70.7686 54.6824 70.6778C54.564 70.5759 54.4925 70.4328 54.4787 70.2787L54.4512 69.9072C54.4402 69.7503 54.4897 69.5989 54.5916 69.4806C54.6934 69.3622 54.8337 69.2907 54.9906 69.2797L55.3979 69.2494L55.5135 70.7878L55.1062 70.8181C55.0924 70.8181 55.0759 70.8181 55.0622 70.8181ZM55.142 69.5439L55.0099 69.5549C54.9273 69.5604 54.853 69.5989 54.798 69.6622C54.7429 69.7255 54.7182 69.8053 54.7237 69.8879L54.7512 70.2594C54.7567 70.342 54.7952 70.4163 54.8585 70.4713C54.9218 70.5264 54.9989 70.5539 55.0842 70.5457L55.2163 70.5347L55.142 69.5439Z" fill="#545ECE"/>
<path d="M51.9854 70.5154C51.9331 70.5154 49.8388 70.4879 49.7865 67.7495C49.7342 65.1212 49.8553 61.3012 49.8581 61.2627L50.1333 61.271C50.1333 61.3095 50.0094 65.1212 50.0617 67.744C50.1113 70.2347 51.9028 70.2347 51.9854 70.2402V70.5154Z" fill="#545ECE"/>
<path d="M52.2521 70.9888L51.9824 70.9778L52.0292 69.7118L52.2989 69.7228C52.5466 69.7311 52.7392 69.9402 52.731 70.1852L52.7172 70.5567C52.7062 70.8044 52.497 70.997 52.2521 70.9888Z" fill="#545ECE"/>
<path d="M52.2687 71.1264C52.2604 71.1264 52.2549 71.1264 52.2467 71.1264L51.8394 71.1126L51.8944 69.5714L52.3017 69.5852C52.4586 69.5907 52.6017 69.6567 52.709 69.7723C52.8163 69.8879 52.8714 70.0365 52.8659 70.1906L52.8521 70.5622C52.8466 70.719 52.7805 70.8621 52.665 70.9695C52.5576 71.0713 52.4173 71.1264 52.2687 71.1264ZM52.1256 70.8484L52.2577 70.8539C52.4228 70.8594 52.5714 70.7273 52.5796 70.5567L52.5934 70.1851C52.5989 70.0145 52.4668 69.8714 52.2962 69.8659L52.1641 69.8604L52.1256 70.8484Z" fill="#545ECE"/>
<path d="M49.478 44.2986C49.5661 44.5243 49.6844 44.7444 49.8275 44.9618C50.2211 45.2453 50.5651 45.6554 50.8678 46.1425C51.7319 47.5296 52.263 49.5497 52.5658 51.1184C52.8245 52.4422 52.9235 53.4467 52.9263 53.4742L53.3391 53.4357C53.3253 53.3146 53.218 52.2055 52.929 50.7881C52.6786 49.5524 52.2906 48.0855 51.7071 46.8443C51.1567 45.6609 50.4302 44.6784 49.478 44.2986Z" fill="#545ECE"/>
<path d="M35.5778 64.5735L35.9796 64.4772C34.5596 58.5325 34.6421 54.3218 35.2338 51.421C35.4787 50.2156 35.8117 49.2386 36.1612 48.457C36.1805 48.4157 36.1997 48.3771 36.2162 48.3359C36.8795 46.891 37.6693 45.9608 38.272 45.3993V45.3966C38.3683 45.1516 38.4564 44.8984 38.5362 44.6315C37.8812 45.1158 36.7281 46.1947 35.8007 48.2478C35.6989 48.4707 35.5998 48.7101 35.5035 48.9633C35.2586 49.6073 35.0329 50.3559 34.8513 51.2201C34.2293 54.1814 34.1247 58.4885 35.5778 64.5735Z" fill="#545ECE"/>
<path d="M35.8862 67.6669C36.9471 67.6669 37.8071 66.8069 37.8071 65.7459C37.8071 64.685 36.9471 63.825 35.8862 63.825C34.8253 63.825 33.9653 64.685 33.9653 65.7459C33.9653 66.8069 34.8253 67.6669 35.8862 67.6669Z" fill="#545ECE"/>
<path d="M35.886 66.8413C36.4887 66.8413 36.9785 66.3514 36.9785 65.7487C36.9785 65.146 36.4887 64.6561 35.886 64.6561C35.2833 64.6561 34.7935 65.146 34.7935 65.7487C34.7935 66.3487 35.2833 66.8413 35.886 66.8413Z" fill="#C1DDFE"/>
<path d="M46.2582 81.2845L43.8833 81.2129L43.9686 78.4498L41.6789 78.381L41.5936 81.1441L39.1141 81.0671L39.0508 83.1697L41.5303 83.244L41.445 86.087L43.7347 86.1585L43.82 83.3156L46.3078 83.3899L46.327 82.7569L46.3711 81.2872L46.2582 81.2845Z" fill="white"/>
<path d="M52.6706 20.209L52.9458 20.6135H72.3281V105.333H13.551V20.6135H23.5765C23.5408 20.4787 23.5105 20.3438 23.483 20.209H13.1465V105.737H72.7299V20.209H52.6706Z" fill="#C1DDFE"/>
<path d="M132.541 94.0874V108.619C132.541 108.619 133.375 110.124 133.012 111.112C132.649 112.1 131.559 112.664 131.559 112.664H130.832C130.832 112.664 130.516 109.56 130.832 108.525C131.149 107.49 130.651 106.266 130.651 106.266L130.106 94.6543C130.109 94.6543 131.738 94.5332 132.541 94.0874Z" fill="#FFCBC5"/>
<path d="M121.853 145.547V147.721H119.393L120.07 146.634V145.547H121.853Z" fill="#FFCBC5"/>
<path d="M122.505 150V147.721C122.505 147.721 122.409 146.865 121.674 146.843C120.936 146.819 120.391 147.721 120.391 147.721H119.392L119.72 147.196C119.72 147.196 118.633 148.029 117.681 148.42C117.681 148.42 116.349 148.717 116.137 149.43V150H122.505Z" fill="#4962D5"/>
<path d="M130.992 145.671L131.157 147.512H129.566L129.398 145.671H130.992Z" fill="#FFCBC5"/>
<path d="M129.162 149.981H132.775V148.651L131.16 147.275C131.16 147.275 131.16 146.67 130.161 146.758C129.162 146.846 129.402 147.416 129.402 147.416L129.162 149.981Z" fill="#4962D5"/>
<path d="M131.198 105.071L131.908 145.789L128.639 145.778C126.668 134.134 125.204 123.403 124.976 114.91L122.389 145.693L119.607 145.778C118.341 129.375 117.179 113.405 117.711 104.447C117.711 104.447 122.337 105.9 131.198 105.071Z" fill="white"/>
<path d="M132.049 145.93L128.523 145.916L128.504 145.8C126.429 133.531 125.279 124.339 124.926 117.161L122.518 145.825L119.483 145.919L119.472 145.786C118.126 128.354 117.056 113.209 117.576 104.436L117.587 104.259L117.755 104.312C117.802 104.325 122.461 105.746 131.187 104.931L131.336 104.917L131.339 105.066L132.049 145.93ZM128.757 145.641L131.768 145.652L131.063 105.223C123.289 105.93 118.745 104.868 117.837 104.625C117.345 113.386 118.401 128.382 119.733 145.638L122.263 145.558L124.838 114.896L125.114 114.905C125.314 122.355 126.473 132.122 128.757 145.641Z" fill="#4962D5"/>
<path d="M113.784 80.767L113.046 71.9354L111.945 72.0235C111.945 72.0235 110.784 78.3149 110.102 82.1266L110.187 83.2935L111.139 84.0614C111.142 84.0614 111.034 83.1779 113.784 80.767Z" fill="#FFB7B0"/>
<path d="M111.948 72.0235C111.948 72.0235 111.557 69.2411 111.566 69.0815C111.568 68.9934 111.401 68.4815 111.252 68.0522C111.117 67.6641 111.255 67.232 111.585 67.0119C112.155 66.6321 113.019 66.211 113.478 66.7642L113.932 69.1393C113.932 69.1393 114.048 69.7117 114.395 69.5658C114.742 69.42 114.777 68.3934 114.777 68.3934C114.777 68.3934 115.033 68.2944 115.149 68.5806C115.264 68.8668 114.772 70.108 114.772 70.108L113.049 71.9382L111.948 72.0235Z" fill="#FFB7B0"/>
<path d="M118.033 87.3502L117.268 105.564C117.268 105.564 124.321 107.072 131.344 105.564L130.411 94.6131C130.411 94.6131 131.696 94.7892 134.003 93.504L133.436 86.6099C133.221 85.3301 132.585 83.8935 131.435 83.2L127.549 81.2487C127.549 81.2487 124.949 81.8459 122.403 81.2487L117.504 81.6533L113.85 80.7671C113.85 80.7671 111.417 81.2129 111.145 84.0642L118.033 87.3502Z" fill="#4962D5"/>
<path d="M125.873 76.7737L127.546 81.2486C127.546 81.2486 124.415 81.8844 122.463 81.2486C122.868 79.6469 123.297 78.4635 123.017 77.0792L125.873 76.7737Z" fill="#FFB7B0"/>
<path d="M126.352 78.07C126.352 78.07 125.711 78.5021 124.77 78.3755C123.831 78.2489 123.187 77.9434 123.187 77.9434C123.187 77.9434 123.176 76.9003 123.077 76.6224C122.981 76.3416 123.636 74.8417 123.077 74.5637C123.077 74.5637 122.375 74.3601 122.252 75.0481C122.252 75.0481 121.935 73.0391 122.009 72.4033C122.081 71.7676 122.276 70.0888 123.537 69.5549C124.797 69.0209 126.374 68.5366 127.585 69.5549C128.796 70.5731 129.063 71.9189 129.063 71.9189C129.063 71.9189 129.814 73.8262 128.87 75.249C127.929 76.6719 126.352 78.07 126.352 78.07Z" fill="#D86B4B"/>
<path d="M123.19 78.4002C123.19 78.4002 121.506 78.2488 121.118 77.437C120.73 76.6223 121.118 74.4867 121.118 74.4867C121.118 74.4867 121.456 73.2675 121.434 72.962C121.409 72.6565 121.822 70.8318 122.684 70.2704C122.684 70.2704 121.715 71.751 122.26 75.0481C122.26 75.0481 122.477 74.2335 123.085 74.5637C123.085 74.5637 123.438 74.7206 123.262 75.5765C123.085 76.4324 123.085 76.4324 123.085 76.4324C123.085 76.4324 123.347 78.1938 123.19 78.4002Z" fill="#FFB7B0"/>
<path d="M130.412 94.7369C130.414 94.7369 130.414 94.7369 130.417 94.7369C130.486 94.7341 130.538 94.6763 130.535 94.6075L130.233 87.5978C130.23 87.529 130.172 87.4767 130.103 87.4795C130.035 87.4822 129.982 87.54 129.985 87.6088L130.288 94.6185C130.29 94.6846 130.345 94.7369 130.412 94.7369Z" fill="white"/>
<path d="M124.976 115.034C125.045 115.034 125.1 114.979 125.1 114.91L125.128 110.642L126.22 109.367C126.264 109.315 126.259 109.238 126.206 109.194C126.154 109.15 126.077 109.155 126.033 109.208L124.883 110.551L124.855 114.91C124.852 114.976 124.907 115.034 124.976 115.034Z" fill="#4962D5"/>
<path d="M117.562 24.0069H91.402C89.9434 24.0069 88.7573 22.8207 88.7573 21.3621V2.90897C88.7573 1.45033 89.9434 0.26416 91.402 0.26416H117.562C119.021 0.26416 120.207 1.45033 120.207 2.90897V21.3621C120.207 22.8207 119.021 24.0069 117.562 24.0069ZM91.402 0.539374C90.0948 0.539374 89.0325 1.6017 89.0325 2.90897V21.3621C89.0325 22.6694 90.0948 23.7317 91.402 23.7317H117.562C118.87 23.7317 119.932 22.6694 119.932 21.3621V2.90897C119.932 1.6017 118.87 0.539374 117.562 0.539374H91.402Z" fill="#C1DDFE"/>
<path d="M111.125 7.05204V19.9486C111.125 20.3724 110.781 20.7137 110.36 20.7137H98.6039C98.1801 20.7137 97.8389 20.3724 97.8389 19.9486V4.32467C97.8389 3.90359 98.1801 3.55957 98.6039 3.55957H107.463L111.125 7.05204Z" fill="#CBE2FD"/>
<path d="M111.125 6.96006V7.15547H108.104C107.594 7.15547 107.182 6.74264 107.182 6.2335V3.55566H107.622L111.125 6.96006Z" fill="#3A46CE"/>
<path d="M107.182 12.3928H99.5727C99.4956 12.3928 99.4351 12.3322 99.4351 12.2552C99.4351 12.1781 99.4956 12.1176 99.5727 12.1176H107.182C107.259 12.1176 107.32 12.1781 107.32 12.2552C107.32 12.3322 107.259 12.3928 107.182 12.3928Z" fill="#545ECE"/>
<path d="M107.182 14.4569H99.5727C99.4956 14.4569 99.4351 14.3963 99.4351 14.3192C99.4351 14.2422 99.4956 14.1816 99.5727 14.1816H107.182C107.259 14.1816 107.32 14.2422 107.32 14.3192C107.32 14.3936 107.259 14.4569 107.182 14.4569Z" fill="#545ECE"/>
<path d="M107.182 16.5183H99.5727C99.4956 16.5183 99.4351 16.4577 99.4351 16.3807C99.4351 16.3036 99.4956 16.243 99.5727 16.243H107.182C107.259 16.243 107.32 16.3036 107.32 16.3807C107.32 16.4577 107.259 16.5183 107.182 16.5183Z" fill="#545ECE"/>
<path d="M99.493 7.10041C99.7187 7.06463 100.052 7.03711 100.423 7.03711C100.883 7.03711 101.202 7.10591 101.422 7.2793C101.607 7.42516 101.706 7.64258 101.706 7.92605C101.706 8.31961 101.425 8.59207 101.161 8.68839V8.70215C101.375 8.79022 101.496 8.99663 101.573 9.2801C101.67 9.62963 101.766 10.0314 101.827 10.1525H101.111C101.062 10.0645 100.987 9.81402 100.897 9.43147C100.814 9.04617 100.682 8.94159 100.396 8.93609H100.184V10.1525H99.4902V7.10041H99.493ZM100.186 8.43244H100.462C100.811 8.43244 101.018 8.25906 101.018 7.9866C101.018 7.70313 100.825 7.56002 100.503 7.55451C100.332 7.55451 100.236 7.56827 100.186 7.57653V8.43244Z" fill="#545ECE"/>
<path d="M103.88 10.1525L103.599 9.59386C103.483 9.37919 103.412 9.21682 103.324 9.03793H103.315C103.252 9.21682 103.172 9.37644 103.076 9.59386L102.82 10.1525H102.022L102.916 8.58933L102.055 7.06189H102.859L103.128 7.62608C103.219 7.81322 103.288 7.96459 103.362 8.14073H103.37C103.445 7.94258 103.503 7.80497 103.582 7.62608L103.844 7.06189H104.642L103.769 8.57006L104.686 10.1525H103.88Z" fill="#545ECE"/>
</svg>
