<svg width="208" height="150" viewBox="0 0 208 150" fill="none" xmlns="http://www.w3.org/2000/svg">
<g clip-path="url(#clip0)">
<path d="M179.395 36.4108C179.296 36.2093 179.194 36.0107 179.092 35.8121C178.987 35.6075 178.879 35.4029 178.768 35.2014C177.297 32.4755 175.574 29.8941 173.738 27.4932C173.141 26.7169 172.533 25.9587 171.916 25.2246C171.032 24.1596 170.124 23.1366 169.216 22.1618C167.916 20.7598 166.606 19.451 165.33 18.2355C160.845 13.9903 153.911 8.02408 145.453 5.34938C135.208 2.11206 123.292 4.27228 114.453 10.5604C112.598 11.8752 110.878 13.3765 109.338 15.0463C108.892 15.5367 108.448 16.0392 108.023 16.5536C107.001 17.7722 106.03 19.0448 105.083 20.2904C105.08 20.2994 105.077 20.2994 105.071 20.3085C102.489 23.7022 99.8249 27.2073 96.2264 29.4578C95.9028 29.6624 95.5702 29.855 95.2316 30.0355C94.1829 30.6011 93.0683 31.0554 91.8877 31.3924C89.6405 32.0483 87.1566 32.298 84.406 32.1506C84.0884 32.1355 83.7618 32.1115 83.4352 32.0844C80.8404 31.8678 78.0209 31.3081 74.9587 30.4086C73.2268 29.9001 71.477 29.3224 69.7811 28.7598C65.7211 27.4179 61.5382 26.0309 57.2296 25.5044C56.3906 25.3991 55.5457 25.3269 54.7007 25.2968C46.4968 24.9839 38.9881 28.2935 33.1333 32.1325C32.7049 32.4153 32.2854 32.6981 31.8749 32.984C30.4217 33.9889 29.0883 35.0178 27.8838 36.0107C27.3595 36.4409 26.8112 36.9133 26.2329 37.4278C20.3841 42.6207 12.2072 51.9506 11.7038 63.7837C11.4521 69.6265 13.0911 75.6679 16.6717 82.0643C17.9092 84.2787 19.3833 86.5352 21.0972 88.8428C21.7504 89.7304 22.4485 90.63 23.1796 91.5386C25.5527 94.4841 28.0876 97.3122 30.7153 100.053C33.4629 102.923 36.3154 105.691 39.2009 108.402C41.9005 110.938 44.6241 113.421 47.3238 115.873C47.5845 116.107 47.8452 116.348 48.1028 116.583L48.9268 116.688C48.5014 116.3 48.0729 115.912 47.6474 115.524C44.8279 112.963 41.9814 110.373 39.1649 107.719C36.3454 105.063 33.5588 102.349 30.8771 99.5356C28.3243 96.8639 25.8643 94.108 23.5482 91.2438C22.868 90.3983 22.2148 89.5589 21.6006 88.7255C19.8777 86.4148 18.3946 84.1523 17.1481 81.938C13.5645 75.5776 11.9285 69.5814 12.1772 63.7927C12.6656 52.2996 20.5219 43.1803 26.2868 38.0024C26.955 37.4007 27.5932 36.8561 28.1865 36.3627C29.3191 35.424 30.5715 34.4612 31.9258 33.5105C32.639 33.011 33.385 32.5116 34.1551 32.0242C36.9267 30.2762 40.0368 28.6695 43.4017 27.5172C46.9253 26.3107 50.7216 25.6037 54.6797 25.7541C55.7344 25.7963 56.7771 25.8956 57.8168 26.046C61.8559 26.6236 65.799 27.9264 69.6372 29.1961C71.3331 29.7557 73.089 30.3393 74.8268 30.8478C77.3767 31.597 79.7587 32.1115 81.991 32.3913C82.4974 32.4575 82.9947 32.5086 83.4861 32.5477C87.4412 32.8726 90.881 32.4183 93.8743 31.1848C94.4166 30.9591 94.947 30.7094 95.4593 30.4356C95.8668 30.216 96.2683 29.9813 96.6519 29.7316C100.184 27.4631 102.809 24.0482 105.347 20.7176C105.383 20.6695 105.422 20.6214 105.458 20.5702C106.369 19.3698 107.304 18.1482 108.28 16.9688C108.742 16.4153 109.212 15.8677 109.695 15.3442C111.187 13.7225 112.85 12.2663 114.645 10.9816C123.367 4.7326 135.175 2.57539 145.312 5.78263C153.677 8.42725 160.563 14.3423 165.009 18.5604C166.238 19.7278 167.499 20.9854 168.752 22.3303C169.579 23.2178 170.406 24.1385 171.218 25.0952C171.91 25.9106 172.593 26.753 173.258 27.6195C175.032 29.9242 176.701 32.3943 178.133 34.9998C178.451 35.5654 178.75 36.1401 179.038 36.7207C179.137 36.9133 179.233 37.1119 179.326 37.3074C179.61 37.9001 179.886 38.4989 180.144 39.1036C180.171 39.1698 180.198 39.233 180.225 39.3022C182.007 43.5143 183.101 48.0273 183.083 52.7298V52.7328C183.08 53.4459 183.053 54.162 182.999 54.884C182.996 54.9051 182.996 54.9322 182.993 54.9532C182.966 55.3143 182.933 55.6753 182.888 56.0334C182.001 63.8378 178.163 70.5923 173.558 76.1974C172.71 77.2324 171.835 78.2313 170.942 79.191C170.532 79.6363 170.115 80.0756 169.699 80.4998C167.406 82.8556 165.075 84.9496 162.939 86.7669C162.51 87.1369 162.103 87.4829 161.722 87.8139C156.901 92.005 155.964 93.5424 155.209 98.982C155.188 99.1656 155.161 99.3581 155.134 99.5537C155.023 100.402 154.918 101.338 154.798 102.391C154.139 108.161 152.841 115.56 148.563 121.622C146.615 124.387 144.2 126.767 141.282 128.786L141.962 128.873C144.742 126.884 147.056 124.556 148.949 121.878C153.282 115.731 154.603 108.261 155.265 102.433C155.388 101.359 155.499 100.402 155.613 99.5417C155.637 99.3521 155.661 99.1656 155.691 98.9881C156.413 93.7951 157.336 92.2577 161.881 88.2893C162.304 87.9192 162.759 87.5311 163.245 87.1159C165.348 85.3227 167.64 83.2678 169.905 80.9511C170.262 80.5901 170.615 80.22 170.972 79.8409C171.934 78.815 172.887 77.7499 173.804 76.6337C178.586 70.848 182.58 63.8348 183.401 55.6843C183.425 55.4737 183.443 55.2571 183.458 55.0435C183.461 55.0224 183.461 55.0014 183.464 54.9773C183.521 54.2552 183.548 53.5331 183.55 52.8201C183.553 52.8081 183.553 52.805 183.553 52.796C183.58 47.9912 182.466 43.3879 180.65 39.0916C180.623 39.0224 180.593 38.9562 180.563 38.884C180.198 38.0566 179.805 37.2262 179.395 36.4108Z" fill="#FFDDD9"/>
<path d="M172.698 33.1825C171.712 31.6992 170.651 30.2731 169.561 28.9072C168.704 27.8451 167.832 26.8222 166.945 25.8413C166.448 25.2908 165.95 24.7522 165.456 24.2317C164.44 23.1666 163.424 22.1587 162.427 21.214C155.676 14.8116 150.031 11.1199 144.125 9.25156C141.114 8.29781 137.902 7.85855 134.588 7.94279C127.445 8.13233 120.4 10.792 115.094 15.2027C114.129 16 113.224 16.8605 112.385 17.7721C111.007 19.2704 109.734 20.9402 108.379 22.7153C108.376 22.7214 108.37 22.7244 108.37 22.7304C107.468 23.9128 106.561 25.1072 105.602 26.2746C105.599 26.2776 105.593 26.2836 105.593 26.2896C104.403 27.7308 103.142 29.1268 101.728 30.3934C100.532 31.4645 99.2256 32.4454 97.7694 33.2908C97.5716 33.4051 97.3679 33.5194 97.1642 33.6278C95.9267 34.2897 94.6113 34.8312 93.224 35.2494C91.1626 35.8692 88.9423 36.2122 86.5872 36.2754C84.379 36.3326 82.0598 36.152 79.5849 35.7218C77.7242 35.3999 75.7766 34.9425 73.7181 34.3378C72.8222 34.073 71.9263 33.7932 71.0364 33.5104C70.1495 33.2276 69.2686 32.9358 68.4027 32.6499C65.0858 31.5518 61.8947 30.4957 58.7127 29.894C57.2984 29.6202 55.8871 29.4457 54.4699 29.3886C53.9635 29.3705 53.4422 29.3645 52.9208 29.3795C49.6279 29.4668 46.4488 30.2129 43.4915 31.3382C41.5019 32.0964 39.6053 33.02 37.8434 34.0309C35.803 35.1953 33.9333 36.474 32.2853 37.7346C31.6621 38.2069 31.0688 38.6793 30.5085 39.1396C29.3609 40.0874 28.0455 41.2487 26.6822 42.6086C21.7653 47.5097 16.2222 54.9652 15.8446 63.8919C15.6109 69.3737 17.3368 75.1473 21.0881 81.3933C22.3196 83.4452 23.7698 85.5483 25.4478 87.7115C25.7684 88.1237 26.098 88.5419 26.4335 88.9601C28.3901 91.3821 30.4636 93.7349 32.6149 96.0275C38.164 101.94 44.2345 107.46 50.1552 112.846C51.8811 114.416 53.619 115.999 55.3958 117.545L56.2437 117.657C54.2871 115.963 52.3695 114.224 50.4758 112.503C44.5372 107.105 38.4547 101.575 32.9055 95.6484C30.7812 93.3859 28.7347 91.0632 26.8051 88.6653C26.5084 88.2982 26.2178 87.9312 25.9302 87.5641C24.2792 85.449 22.847 83.3881 21.6275 81.3753C17.8252 75.1263 16.0813 69.3587 16.309 63.904C16.6776 55.2901 21.9481 48.0543 26.7362 43.2134C28.1864 41.7421 29.5946 40.4935 30.8081 39.4947C31.2935 39.0945 31.7999 38.6883 32.3333 38.2792C33.9782 37.0095 35.8479 35.7158 37.8884 34.5334C39.6981 33.4864 41.6487 32.5266 43.7012 31.7473C46.5986 30.6552 49.7058 29.9301 52.9268 29.8459C53.4362 29.8308 53.9426 29.8338 54.4459 29.8519C55.8842 29.906 57.3164 30.0926 58.7576 30.3724C61.8708 30.9771 65.0019 32.0091 68.2589 33.0892C68.7952 33.2697 69.3405 33.4502 69.8889 33.6278C71.1024 34.0279 72.3368 34.419 73.5773 34.7831C75.3121 35.2885 76.9691 35.6977 78.5631 36.0076C81.4246 36.5642 84.0763 36.8019 86.5932 36.7387C89.7064 36.6545 92.5918 36.0889 95.2016 35.0448C95.9537 34.75 96.6788 34.41 97.3829 34.0309C97.7994 33.8083 98.1979 33.5766 98.5904 33.3329C100.029 32.4454 101.317 31.4224 102.495 30.3152C104.877 28.0858 106.836 25.5134 108.757 22.9951C110.096 21.2321 111.364 19.5653 112.733 18.079C113.485 17.2606 114.294 16.4904 115.148 15.7623C120.403 11.2975 127.451 8.59868 134.594 8.40913C137.857 8.32489 141.018 8.75513 143.978 9.69082C149.815 11.5442 155.4 15.1997 162.1 21.551C163.08 22.4837 164.08 23.4735 165.078 24.5175C165.564 25.029 166.049 25.5465 166.528 26.082C167.403 27.0418 168.266 28.0527 169.105 29.0937C170.082 30.3062 171.029 31.5668 171.922 32.8756C172.599 33.8624 173.249 34.8764 173.854 35.9143C174.01 36.1761 174.163 36.4439 174.313 36.7116C175.014 37.9542 175.652 39.2329 176.218 40.5417C176.626 41.4744 176.998 42.4281 177.324 43.3909C177.369 43.5203 177.414 43.6556 177.453 43.785C177.537 44.0377 177.615 44.2845 177.69 44.5402C177.762 44.7779 177.833 45.0125 177.896 45.2502C177.929 45.3736 177.962 45.4969 177.995 45.6233C178.469 47.4285 178.78 49.2728 178.885 51.1562C178.891 51.2164 178.894 51.2736 178.897 51.3368C178.933 52.0077 178.945 52.6816 178.927 53.3556C178.915 53.8099 178.894 54.2642 178.858 54.7185C178.75 56.0844 178.544 57.4444 178.223 58.7952C177.657 61.2022 176.755 63.5941 175.499 65.998C174.367 68.1702 172.947 70.3545 171.224 72.5569C171.065 72.7615 170.903 72.9661 170.735 73.1676C169.794 74.341 168.77 75.5204 167.655 76.7088C165.516 78.9984 163.062 81.3151 160.278 83.6889C160.272 83.695 160.266 83.701 160.26 83.704C158.741 85.0007 157.492 86.1109 156.455 87.1369C153.608 89.962 152.386 92.1252 151.622 95.6063C151.409 96.5841 151.232 97.6702 151.062 98.9038C151.032 99.1234 151.002 99.346 150.969 99.5837C150.873 100.336 150.777 101.148 150.678 102.018C150.076 107.298 148.904 114.04 145.174 119.333C142.681 122.868 139.151 125.723 134.54 127.919L135.376 128.031C139.754 125.84 143.133 123.033 145.557 119.597C149.354 114.218 150.537 107.403 151.145 102.066C151.244 101.178 151.343 100.354 151.442 99.5897C151.472 99.3611 151.499 99.1384 151.529 98.9188C151.721 97.5168 151.933 96.3133 152.191 95.2392C152.862 92.4712 153.893 90.5487 155.964 88.3163C157.105 87.0887 158.561 85.7649 160.446 84.1553C160.485 84.1192 160.527 84.0861 160.563 84.056C163.325 81.7032 165.77 79.3986 167.904 77.127C168.925 76.0409 169.875 74.9608 170.762 73.8837C171.014 73.5738 171.26 73.2669 171.502 72.954C173.768 70.0717 175.526 67.2285 176.806 64.3883C177.609 62.6072 178.223 60.8231 178.651 59.0329C178.69 58.8644 178.732 58.6929 178.768 58.5245C178.789 58.4372 178.807 58.3469 178.825 58.2627C179.071 57.0953 179.239 55.925 179.329 54.7516C179.395 53.9242 179.416 53.0998 179.401 52.2815C179.401 52.2153 179.398 52.1521 179.398 52.0859C179.401 52.0739 179.398 52.0649 179.398 52.0558C179.329 49.2999 178.831 46.6041 178.016 43.9986C177.992 43.9264 177.971 43.8542 177.947 43.782C177.932 43.7339 177.917 43.6827 177.899 43.6376C177.86 43.5172 177.822 43.3909 177.78 43.2766C177.738 43.1532 177.696 43.0328 177.654 42.9125C177.345 42.0159 176.992 41.1374 176.614 40.2679C175.535 37.7918 174.193 35.4209 172.698 33.1825Z" fill="#FFDDD9"/>
<path d="M166.624 31.8828C166.304 31.4767 165.977 31.0795 165.654 30.6884C165.237 30.1859 164.818 29.6955 164.398 29.2171C164.257 29.0607 164.12 28.9042 163.985 28.7538C163.826 28.5733 163.664 28.3958 163.502 28.2183C163.059 27.7339 162.612 27.2615 162.169 26.7952C161.285 25.8805 160.404 25.008 159.535 24.1867C153.252 18.2295 148.092 14.8267 142.807 13.1509C140.236 12.3355 137.485 11.9625 134.633 12.0347C127.376 12.2272 120.26 15.3412 115.556 20.3747C115.514 20.4168 115.478 20.4559 115.439 20.495C114.183 21.858 112.967 23.4556 111.675 25.1494C110.54 26.6447 109.344 28.2153 108.023 29.7497C106.749 31.2269 105.356 32.6831 103.774 34.016C103.705 34.0731 103.636 34.1333 103.564 34.1905C102.222 35.3037 100.748 36.3296 99.0969 37.2142C98.7044 37.4248 98.3059 37.6234 97.9044 37.8129C94.5215 39.3985 90.7432 40.2559 86.6353 40.3612C84.1543 40.4244 81.5685 40.2289 78.8269 39.7505C76.8044 39.4045 74.698 38.902 72.4838 38.2552C72.4238 38.2371 72.3609 38.2191 72.301 38.198C70.4972 37.6685 68.7444 37.0878 67.0515 36.5282C64.9031 35.8152 62.8177 35.1292 60.7802 34.5846C60.2139 34.4312 59.6566 34.2868 59.0963 34.1634C57.4423 33.7843 55.8273 33.5316 54.2483 33.4714C53.8288 33.4564 53.3973 33.4534 52.9689 33.4654C50.3591 33.5346 47.8062 34.1002 45.3912 34.9727C44.9358 35.1352 44.4833 35.3097 44.0399 35.4962C42.6616 36.0649 41.3402 36.7238 40.0788 37.4368C37.4331 38.9321 35.075 40.6591 33.1424 42.2537C33.0045 42.368 32.8637 42.4854 32.7229 42.6057C31.0659 43.9987 29.0794 45.8551 27.1707 48.0785C23.5752 52.2635 20.2583 57.7604 19.9916 63.9853C19.7759 69.079 21.6126 74.5848 25.5767 80.7135C26.7483 82.5247 28.1056 84.384 29.6547 86.3036C29.6667 86.3246 29.6846 86.3487 29.7026 86.3667C31.6053 88.7316 33.6367 91.0302 35.7491 93.2746C41.1784 99.0573 47.159 104.497 52.9988 109.804C56.2858 112.792 59.6266 115.831 63.1233 118.544L64.0492 118.668C60.3398 115.843 56.7981 112.62 53.3194 109.455C47.5126 104.175 41.562 98.7655 36.1596 93.0219C34.0442 90.7805 32.0187 88.4848 30.1191 86.1261C30.1011 86.108 30.0861 86.0869 30.0712 86.0719C28.54 84.1734 27.1947 82.3351 26.0351 80.548C22.08 74.4705 20.2493 69.0158 20.465 63.9943C20.7137 58.0733 23.7969 52.8021 27.2277 48.7253C29.1093 46.4779 31.1019 44.5944 32.7798 43.1623C33.0075 42.9668 33.2263 42.7832 33.445 42.6057C33.9424 42.1935 34.4667 41.7723 35.021 41.3511L35.03 41.3421C35.1768 41.2308 35.3237 41.1164 35.4795 41.0081C36.8817 39.9551 38.4428 38.9051 40.1237 37.9423C41.3822 37.2232 42.7065 36.5553 44.0818 35.9776C44.7081 35.7159 45.3403 35.4752 45.9845 35.2495C46.5298 35.063 47.0871 34.8945 47.6444 34.7411C49.3763 34.2687 51.1591 33.9708 52.9719 33.9257C53.3913 33.9137 53.8108 33.9167 54.2213 33.9317C55.8183 33.9919 57.4573 34.2537 59.1382 34.6448C59.3869 34.705 59.6326 34.7621 59.8813 34.8223V34.8253C62.1435 35.3909 64.4866 36.1642 66.8957 36.9615C68.4268 37.4699 70.0058 37.9934 71.6298 38.4778C71.8665 38.553 72.1062 38.6222 72.3429 38.6944C74.0149 39.1849 75.6299 39.591 77.1939 39.9099C80.5468 40.5989 83.6659 40.8968 86.6383 40.8186C91.2645 40.6982 95.4893 39.6392 99.1958 37.6745C99.2377 37.6565 99.2767 37.6324 99.3126 37.6143C101.203 36.6034 102.86 35.415 104.352 34.1243C104.361 34.1153 104.37 34.1092 104.376 34.1002C105.985 32.7102 107.4 31.2029 108.688 29.6745C109.893 28.2484 110.992 26.8042 112.047 25.4172C113.266 23.8136 114.426 22.2912 115.603 20.9915C115.663 20.9253 115.72 20.8621 115.777 20.8019C120.395 15.7865 127.445 12.6785 134.633 12.492C137.432 12.4168 140.131 12.7868 142.651 13.5811C147.865 15.2359 152.973 18.6056 159.206 24.5116C160.06 25.3239 160.931 26.1874 161.803 27.093C162.28 27.5834 162.756 28.0889 163.224 28.6094C163.406 28.808 163.586 29.0065 163.76 29.2081C163.922 29.3856 164.081 29.5662 164.236 29.7437C164.569 30.1197 164.893 30.5049 165.222 30.896C165.624 31.3804 166.022 31.8738 166.415 32.3762C168.956 35.6196 171.227 39.2089 172.758 43.0119C173.258 44.2394 173.675 45.491 174.001 46.7637C174.04 46.9021 174.073 47.0375 174.106 47.1759C174.271 47.8829 174.418 48.596 174.523 49.309C174.78 51.0029 174.858 52.7269 174.723 54.4598C174.583 56.3072 174.205 58.1515 173.591 59.9988C173.549 60.1372 173.498 60.2786 173.45 60.42C173.378 60.6276 173.3 60.8352 173.222 61.0398C172.428 63.1338 171.329 65.2399 169.905 67.3791C169.612 67.8213 169.303 68.2666 168.983 68.7119C168.854 68.8894 168.725 69.0669 168.593 69.2414C167.613 70.5592 166.511 71.889 165.285 73.2339V73.2369C163.565 75.1324 161.6 77.0609 159.385 79.0376C158.804 79.5581 158.202 80.0786 157.582 80.6082C151.637 85.6748 149.237 88.6684 147.928 93.398C147.496 94.9595 147.184 96.7015 146.906 98.7775C146.873 99.0031 146.84 99.2378 146.813 99.4755C146.726 100.152 146.642 100.862 146.555 101.615C146.007 106.41 144.97 112.494 141.782 117.016C138.621 121.496 133.348 124.727 125.809 126.764L126.971 126.915C127.652 126.716 128.314 126.505 128.958 126.286C135.017 124.21 139.388 121.219 142.169 117.278C145.42 112.665 146.474 106.51 147.023 101.66C147.11 100.899 147.193 100.177 147.283 99.4905C147.316 99.2498 147.343 99.0182 147.379 98.7865C147.643 96.858 147.934 95.2122 148.329 93.738C149.605 88.9723 151.958 86.0057 157.887 80.9572C158.313 80.5931 158.732 80.2291 159.143 79.871C161.57 77.7349 163.706 75.6559 165.567 73.613C166.801 72.2621 167.913 70.9233 168.905 69.6025C169.013 69.455 169.123 69.3136 169.225 69.1662C169.501 68.7871 169.768 68.414 170.022 68.038C171.682 65.61 172.932 63.2181 173.801 60.8382C173.864 60.6697 173.92 60.5012 173.977 60.3328C174.019 60.2094 174.061 60.083 174.1 59.9567C174.69 58.1334 175.053 56.3132 175.197 54.4869C175.338 52.6396 175.245 50.8103 174.954 49.0081C174.843 48.2951 174.696 47.5881 174.52 46.881C174.487 46.7486 174.454 46.6102 174.415 46.4718C174.082 45.2082 173.657 43.9566 173.156 42.7291C171.571 38.8509 169.228 35.1833 166.624 31.8828Z" fill="#FFDDD9"/>
<path d="M166.804 64.6472C166.469 65.1707 166.112 65.6972 165.731 66.2297C165.842 66.338 165.953 66.4494 166.064 66.5577C166.415 66.0763 166.744 65.5949 167.05 65.1165C167.778 63.9973 168.404 62.8901 168.931 61.798L168.794 60.9977C168.254 62.1981 167.592 63.4136 166.804 64.6472ZM110.135 33.5316C109.635 34.0791 109.107 34.6267 108.562 35.1653C108.733 35.2134 108.904 35.2615 109.074 35.3097C109.686 34.7019 110.264 34.0791 110.824 33.4563L110.135 33.5316ZM106.644 36.9344C104.987 38.3544 103.13 39.6813 101.02 40.8125C99.5941 41.5767 98.102 42.2206 96.5559 42.7471C96.0046 42.9366 95.4413 43.1111 94.875 43.2676L94.9169 43.7339C96.1065 43.409 97.257 43.0209 98.3776 42.5606C99.3604 42.1664 100.313 41.7181 101.242 41.2217C103.603 39.9551 105.641 38.4567 107.444 36.8531L106.644 36.9344ZM164.437 35.8633C164.317 35.6978 164.194 35.5323 164.068 35.3668C163.814 35.0299 163.556 34.6989 163.292 34.371C162.978 33.9768 162.663 33.5857 162.34 33.2006C162.235 33.0772 162.133 32.9509 162.028 32.8275C161.33 32.0122 160.62 31.2209 159.907 30.4567C158.813 29.2833 157.707 28.1882 156.635 27.1682C150.816 21.6533 146.145 18.5334 141.476 17.0591C139.343 16.3822 137.054 16.0753 134.669 16.1385C128.472 16.3009 122.42 18.9546 118.477 23.2329C117.692 24.0843 116.892 25.0862 116.056 26.1663C115.702 26.6267 115.34 27.099 114.971 27.5864C114.579 28.1009 114.174 28.6334 113.752 29.175C112.664 30.5861 111.474 32.0693 110.138 33.5316C109.638 34.0791 109.11 34.6267 108.565 35.1653C107.96 35.764 107.322 36.3537 106.647 36.9313C104.99 38.3514 103.133 39.6783 101.023 40.8095C99.5971 41.5737 98.105 42.2176 96.5589 42.7441C96.0076 42.9336 95.4443 43.1081 94.878 43.2646C93.4158 43.6708 91.9026 43.9746 90.3476 44.1762C89.149 44.3327 87.9236 44.4289 86.6741 44.459C85.0112 44.5012 83.3153 44.441 81.5654 44.2665C78.3204 43.9536 74.9076 43.2616 71.2432 42.1905C69.8589 41.7843 68.5225 41.3571 67.2311 40.9329C67.1322 40.9028 67.0364 40.8727 66.9405 40.8366C66.515 40.6982 66.0895 40.5598 65.673 40.4214C63.5337 39.7114 61.4543 39.0254 59.4737 38.5019C58.3051 38.192 57.1785 37.9393 56.0879 37.7738C56.0849 37.7738 56.0819 37.7768 56.0819 37.7768C55.3718 37.6685 54.6826 37.5963 54.0145 37.5722C53.6879 37.5602 53.3463 37.5571 53.0047 37.5662C52.6811 37.5752 52.3545 37.5933 52.0309 37.6203C50.335 37.7647 48.6631 38.1559 47.0421 38.7155C46.7125 38.8298 46.3829 38.9502 46.0563 39.0795C45.445 39.3232 44.8428 39.585 44.2525 39.8648C44.0188 39.9761 43.7881 40.0874 43.5604 40.2048C42.4847 40.7463 41.454 41.3421 40.4712 41.9618C38.7183 43.072 37.1273 44.2695 35.767 45.3917C33.9303 46.9051 31.5422 49.1044 29.4088 51.7821C26.6582 55.23 24.3301 59.4783 24.1324 64.0996C23.9496 68.4531 25.6605 73.3272 29.3429 78.8842C30.3886 80.4667 31.5931 82.1004 32.9595 83.7973C33.1992 84.0892 33.4359 84.381 33.6756 84.6758C35.4734 86.8481 37.382 88.9813 39.3715 91.0693C44.5551 96.524 50.2601 101.714 55.8302 106.784C61.0677 111.543 66.4671 116.456 72.217 119.751L73.4844 119.913C67.3929 116.655 61.682 111.465 56.1538 106.435C50.6107 101.395 44.9417 96.2382 39.782 90.8165C37.8075 88.7406 35.9078 86.6285 34.122 84.4683C33.8583 84.1463 33.5947 83.8244 33.334 83.4995C31.9707 81.8146 30.7782 80.1899 29.7384 78.6254C26.1129 73.1497 24.426 68.3689 24.6058 64.1116C24.8005 59.5385 27.1526 55.3233 29.9062 51.9085C31.9827 49.3331 34.2898 47.2089 36.0726 45.7437C37.364 44.6756 38.8652 43.5384 40.5191 42.4793C42.245 41.3691 44.1416 40.3402 46.1282 39.5519C46.4428 39.4316 46.7544 39.3112 47.072 39.1999C48.699 38.6282 50.3799 38.2281 52.0818 38.0897C52.3965 38.0596 52.7081 38.0415 53.0227 38.0355C53.3493 38.0265 53.6789 38.0295 53.9995 38.0446C54.5867 38.0656 55.201 38.1228 55.8272 38.213C55.8272 38.213 55.8272 38.213 55.8332 38.216C57.0107 38.3815 58.2452 38.6583 59.5246 39.0013C61.4423 39.5188 63.4528 40.1807 65.5262 40.8697C65.715 40.9299 65.9038 40.993 66.0925 41.0562C66.1944 41.0893 66.2993 41.1254 66.4071 41.1585C67.9143 41.655 69.4753 42.1604 71.1053 42.6418C74.0327 43.4993 76.7953 44.11 79.447 44.4891C81.9519 44.8471 84.355 44.9916 86.6861 44.9284C87.9475 44.8983 89.185 44.799 90.3925 44.6395C91.9506 44.441 93.4637 44.1401 94.9259 43.7369C96.1154 43.412 97.266 43.0239 98.3866 42.5636C99.3694 42.1694 100.322 41.7211 101.251 41.2247C103.612 39.9581 105.65 38.4597 107.453 36.8561C108.023 36.3507 108.565 35.8362 109.086 35.3157C109.698 34.7079 110.276 34.0851 110.836 33.4624C112.152 31.9971 113.32 30.5169 114.402 29.1148C114.731 28.6846 115.055 28.2604 115.37 27.8482C115.627 27.5112 115.879 27.1803 116.131 26.8553C117.069 25.6278 117.967 24.4875 118.839 23.5428C122.696 19.3547 128.622 16.7613 134.69 16.6018C137.024 16.5386 139.262 16.8395 141.342 17.5014C145.941 18.9576 150.561 22.0415 156.32 27.5052C157.471 28.5913 158.651 29.7737 159.817 31.0374C160.437 31.7023 161.051 32.3913 161.65 33.0983C161.884 33.3721 162.115 33.6459 162.343 33.9257C162.69 34.3499 163.032 34.7741 163.37 35.2074C163.625 35.5383 163.874 35.8663 164.119 36.2033C164.134 36.2153 164.143 36.2363 164.155 36.2484C166.283 39.1397 168.119 42.2777 169.291 45.5271C169.576 46.3094 169.818 47.0976 170.016 47.8889C170.043 47.9882 170.07 48.0905 170.094 48.1868C170.265 48.9058 170.4 49.6309 170.496 50.359C170.663 51.6377 170.708 52.9314 170.606 54.2252C170.466 56.0243 170.055 57.8325 169.363 59.6648C169.36 59.6738 169.357 59.6799 169.351 59.6889C169.261 59.9296 169.162 60.1733 169.06 60.417C168.982 60.6065 168.899 60.7991 168.812 60.9946C168.269 62.1981 167.61 63.4136 166.822 64.6472C166.487 65.1707 166.13 65.6972 165.749 66.2297C164.854 67.4843 163.829 68.763 162.672 70.0598C160.542 72.4607 157.956 74.9428 154.918 77.5363C152.365 79.7116 150.375 81.595 148.811 83.4062C146.912 85.6025 145.635 87.6905 144.721 90.0794C143.79 92.5134 143.226 95.2513 142.762 98.7233C142.735 98.9339 142.705 99.1475 142.681 99.3702C142.6 99.9689 142.528 100.586 142.453 101.233C141.962 105.541 141.06 110.969 138.411 114.723C134.402 120.404 125.428 123.837 111.708 124.923L113.824 125.2C119.199 124.658 123.804 123.734 127.625 122.423C132.82 120.644 136.556 118.159 138.798 114.985C141.506 111.146 142.42 105.646 142.921 101.281C142.999 100.622 143.073 99.993 143.148 99.3822C143.175 99.1596 143.205 98.9399 143.235 98.7263C143.679 95.4409 144.209 92.8233 145.075 90.4946C145.971 88.0787 147.223 85.9786 149.117 83.7763C150.672 81.956 152.659 80.0726 155.226 77.8883C158.265 75.2978 160.847 72.8157 162.987 70.4088C164.149 69.106 165.183 67.8213 166.088 66.5577C166.439 66.0763 166.768 65.5949 167.074 65.1165C167.802 63.9973 168.428 62.8901 168.955 61.798C169.12 61.455 169.279 61.115 169.42 60.772C169.552 60.4681 169.675 60.1673 169.791 59.8664C169.8 59.8393 169.809 59.8153 169.818 59.7912C170.52 57.9258 170.939 56.0845 171.08 54.2492C171.179 52.9465 171.137 51.6467 170.975 50.356C170.885 49.652 170.756 48.948 170.594 48.2439C170.564 48.1176 170.535 47.9912 170.499 47.8648C170.283 46.9833 170.01 46.1048 169.696 45.2353C168.467 41.9438 166.6 38.7787 164.437 35.8633Z" fill="#FFDDD9"/>
<path d="M184.308 100.838C173.495 96.0095 172.389 87.7266 168.416 71.886C164.443 56.0454 138.465 28.498 98.2995 30.7605C73.9996 32.1295 58.9552 56.8848 53.6187 67.4452C52.5431 69.5723 51.6562 71.7807 50.8532 74.0252C45.8523 88.0004 27.3143 94.12 23.0865 94.9053C2.41801 98.7383 0 127.919 0 127.919H29.969H33.6394H157.108H207.997C208 127.919 202.061 108.763 184.308 100.838Z" fill="#C1DDFE"/>
<g opacity="0.8">
<g opacity="0.8">
<g opacity="0.8">
<g opacity="0.8">
<g opacity="0.8">
<g opacity="0.8">
<path opacity="0.8" d="M180.566 122.699C180.602 122.344 184.422 86.9384 193.627 76.5284C199.733 69.6235 200.213 66.8345 199.955 65.7874C199.826 65.2579 199.5 65.1285 199.485 65.1255L199.607 64.7795C199.628 64.7856 200.12 64.9661 200.303 65.6761C200.656 67.036 199.832 70.0658 193.899 76.7751C184.773 87.0978 180.967 122.386 180.928 122.741L180.566 122.699Z" fill="#C1DDFE"/>
</g>
</g>
</g>
</g>
</g>
<g opacity="0.8">
<g opacity="0.8">
<g opacity="0.8">
<g opacity="0.8">
<g opacity="0.8">
<path opacity="0.8" d="M200.186 66.1214C200.186 66.1214 194.067 62.147 200.108 55.6603C200.105 55.6603 206.853 60.3087 200.186 66.1214Z" fill="#C1DDFE"/>
</g>
</g>
</g>
</g>
</g>
<g opacity="0.8">
<g opacity="0.8">
<g opacity="0.8">
<g opacity="0.8">
<g opacity="0.8">
<path opacity="0.8" d="M192.425 72.8097C192.425 72.8097 186.936 71.507 189.663 65.2008C189.666 65.2008 195.787 66.8315 192.425 72.8097Z" fill="#C1DDFE"/>
</g>
</g>
</g>
</g>
</g>
<g opacity="0.8">
<g opacity="0.8">
<g opacity="0.8">
<g opacity="0.8">
<g opacity="0.8">
<path opacity="0.8" d="M190.451 92.3901C190.451 92.3901 194.846 95.9403 198.127 89.9079C198.127 89.9079 193.087 86.0568 190.451 92.3901Z" fill="#C1DDFE"/>
</g>
</g>
</g>
</g>
</g>
<g opacity="0.8">
<g opacity="0.8">
<g opacity="0.8">
<g opacity="0.8">
<g opacity="0.8">
<path opacity="0.8" d="M194.829 81.6761C194.829 81.6761 199.224 85.2263 202.505 79.194C202.508 79.197 197.468 75.3429 194.829 81.6761Z" fill="#C1DDFE"/>
</g>
</g>
</g>
</g>
</g>
<g opacity="0.8">
<g opacity="0.8">
<g opacity="0.8">
<g opacity="0.8">
<g opacity="0.8">
<path opacity="0.8" d="M184.671 84.8293C184.671 84.8293 179.092 85.6597 179.299 78.7879C179.299 78.7879 185.588 78.0267 184.671 84.8293Z" fill="#C1DDFE"/>
</g>
</g>
</g>
</g>
</g>
<g opacity="0.8">
<g opacity="0.8">
<g opacity="0.8">
<g opacity="0.8">
<g opacity="0.8">
<g opacity="0.8">
<path opacity="0.8" d="M193.582 76.6728C193.579 76.6427 193.192 73.7695 192.039 72.4667L192.311 72.223C193.54 73.61 193.929 76.5013 193.944 76.6247L193.582 76.6728Z" fill="#C1DDFE"/>
</g>
</g>
</g>
</g>
</g>
<g opacity="0.8">
<g opacity="0.8">
<g opacity="0.8">
<g opacity="0.8">
<g opacity="0.8">
<path opacity="0.8" d="M190.079 82.9639L189.884 82.654C190.028 82.5638 193.438 80.4246 195.4 81.3362L195.248 81.6702C193.462 80.8398 190.112 82.9429 190.079 82.9639Z" fill="#C1DDFE"/>
</g>
</g>
</g>
</g>
</g>
<g opacity="0.8">
<g opacity="0.8">
<g opacity="0.8">
<g opacity="0.8">
<g opacity="0.8">
<path opacity="0.8" d="M187.056 89.8749C187.044 89.8268 185.935 85.1302 184.081 84.6007L184.179 84.2487C186.241 84.8353 187.365 89.5921 187.412 89.7937L187.056 89.8749Z" fill="#C1DDFE"/>
</g>
</g>
</g>
</g>
</g>
<g opacity="0.8">
<g opacity="0.8">
<g opacity="0.8">
<g opacity="0.8">
<g opacity="0.8">
<path opacity="0.8" d="M186.127 94.2795L185.923 93.9756C186.055 93.8854 189.18 91.7913 190.75 92.0019L190.702 92.366C189.267 92.1704 186.16 94.2585 186.127 94.2795Z" fill="#C1DDFE"/>
</g>
</g>
</g>
</g>
</g>
</g>
</g>
<path d="M94.4882 41.5708C94.4882 41.5708 62.2451 49.1948 61.457 80.6804C61.457 80.6804 62.2421 88.6203 63.5544 92.1013C63.5544 92.1013 61.457 116.565 63.8151 127.919H157.108C157.108 127.919 154.78 107.412 152.682 102.55C152.682 102.55 160.808 90.8858 150.324 62.1741C150.324 62.1741 145.62 44.6818 118.219 41.5738C118.219 41.5708 106.809 45.2053 94.4882 41.5708Z" fill="white"/>
<path d="M94.4883 41.5708C94.4883 41.5708 101.272 115.115 109.284 127.919H127.388C127.388 127.919 119.813 45.4068 118.219 41.5708C118.219 41.5708 105.5 45.2053 94.4883 41.5708Z" fill="#C1DDFE"/>
<path d="M113.919 31.0314C113.919 31.0314 122.153 29.2803 118.402 9.77515C118.402 9.77515 97.3799 10.5724 96.8585 18.1633C96.8585 18.1633 95.8817 18.5063 96.3012 20.7839C96.7177 23.0614 98.1559 23.3863 98.1559 23.3863C98.1559 23.3863 100.361 35.4782 94.7881 44.0619C94.7881 44.0619 98.2129 47.0194 107.223 45.7558C109.937 45.3737 113.383 43.8062 117.116 42.6719C117.113 42.6719 115.118 35.1201 113.919 31.0314Z" fill="#FFCBC5"/>
<path d="M112.634 21.0846C112.634 21.3735 112.87 21.6081 113.158 21.6081C113.446 21.6081 113.679 21.3704 113.679 21.0816C113.679 20.7928 113.443 20.5581 113.155 20.5581C112.867 20.5581 112.634 20.7928 112.634 21.0846Z" fill="#625E7A"/>
<path d="M106.935 21.0967C106.935 21.3855 107.172 21.6202 107.459 21.6202C107.747 21.6202 107.981 21.3825 107.981 21.0937C107.981 20.8049 107.744 20.5702 107.456 20.5702C107.169 20.5732 106.935 20.8079 106.935 21.0967Z" fill="#625E7A"/>
<path d="M110.552 26.4731C110.468 26.4731 110.402 26.407 110.402 26.3227C110.402 26.2385 110.468 26.1723 110.552 26.1723C111.055 26.1723 111.358 25.8804 111.468 25.745C110.824 24.4784 110.408 21.5119 110.39 21.3825C110.378 21.3013 110.435 21.223 110.519 21.214C110.594 21.202 110.677 21.2591 110.686 21.3434C110.689 21.3765 111.133 24.5265 111.777 25.6879C111.804 25.736 111.801 25.7962 111.774 25.8413C111.756 25.8684 111.364 26.4731 110.552 26.4731Z" fill="#FF7E70"/>
<path d="M110.198 29.1329C109.823 29.1329 109.332 29.0366 108.903 28.6455C108.844 28.5883 108.838 28.4951 108.894 28.4319C108.951 28.3717 109.044 28.3657 109.107 28.4228C109.793 29.0517 110.677 28.7719 110.716 28.7598C110.797 28.7357 110.881 28.7779 110.905 28.8561C110.932 28.9343 110.887 29.0186 110.809 29.0456C110.788 29.0547 110.539 29.1329 110.198 29.1329Z" fill="#FF7E70"/>
<path d="M115.274 19.6495C115.274 19.6495 113.724 18.2987 112.499 18.7409C112.499 18.7409 112.442 19.2012 112.835 19.2283C112.835 19.2313 114.198 19.2313 115.274 19.6495Z" fill="#625E7A"/>
<path d="M105.137 19.6736C105.137 19.6736 106.794 18.4581 107.978 19.0027C107.978 19.0027 107.996 19.466 107.603 19.46C107.606 19.463 106.249 19.3487 105.137 19.6736Z" fill="#625E7A"/>
<path d="M101.503 19.6225C101.503 19.6225 101.601 12.0227 109.742 14.4145C109.742 14.4145 118.144 19.43 121.608 13.7827C125.071 8.13245 118.545 3.62848 118.545 3.62848C118.545 3.62848 114.725 0.057198 108.388 2.38891C108.388 2.38891 104.106 -2.52725 97.1789 1.74205C97.1789 1.74205 94.3144 4.10084 95.0036 7.26897C95.0036 7.26897 93.5563 7.30206 93.6133 8.36713C93.6702 9.4322 94.2485 10.4732 94.2485 10.4732C94.2485 10.4732 89.817 14.6252 96.301 20.7809C96.301 20.7809 95.8995 17.2698 100.118 18.9606L101.503 19.6225Z" fill="#625E7A"/>
<path d="M109.812 48.3854L108.179 50.9819L106.462 51.2557L104.625 48.8638L106.456 45.1722L107.693 45.115C107.693 45.112 109.173 47.6934 109.812 48.3854Z" fill="#00BD97"/>
<path d="M108.178 50.9818C108.178 50.9818 123.612 100.877 120.307 107.876L115.025 113.574L108.757 108.092C108.757 108.092 101.296 67.2888 106.461 51.2556L108.178 50.9818Z" fill="#00D1A7"/>
<path d="M115.72 38.7396C115.72 38.7396 118.402 39.555 118.539 43.2677C118.677 46.9773 111.855 50.9217 111.855 50.9217C111.855 50.9217 108.295 47.6032 107.693 45.112C107.693 45.112 112.853 44.6426 116.19 40.7675L115.72 38.7396Z" fill="#545ECE"/>
<path d="M106.455 45.1691C106.455 45.1691 104.742 50.2928 102.434 50.5155C100.739 50.678 96.3879 47.7626 94.7759 44.5042C93.904 42.7441 94.3504 40.614 95.8306 39.3263C96.283 38.9321 96.8883 38.547 97.4995 38.2762L96.8553 40.2108C96.8583 40.2138 100.739 44.6997 106.455 45.1691Z" fill="#545ECE"/>
<path d="M121.638 18.1905C129.77 20.6606 123.013 42.1635 115.058 39.7205C114.123 39.4377 113.674 38.0657 113.955 37.127C114.186 36.2906 114.366 35.8092 114.597 34.9728C114.878 34.0341 115.891 33.5317 116.826 33.8145L118.417 34.3019C120.463 34.8946 123.409 25.1315 121.437 24.5147L119.846 24.0273C118.911 23.7445 118.411 22.7275 118.692 21.7888C118.923 20.9524 119.025 20.4951 119.334 19.6346C119.612 18.6899 120.703 17.9077 121.638 18.1905Z" fill="#4A55CE"/>
<path d="M108.349 130.02L121.125 147.987H148.125L134.255 130.02H108.349Z" fill="#FF7867"/>
<path d="M109.266 128.792L122.042 146.76H149.042L135.172 128.792H109.266Z" fill="#E0EEFE"/>
<path d="M133.027 134.8C132.979 134.8 132.937 134.779 132.907 134.74C132.871 134.692 132.868 134.629 132.895 134.578L133.881 132.733C133.56 132.408 132.97 132.384 132.559 132.601C132.119 132.83 131.807 133.248 131.538 133.663C131.496 133.786 131.424 133.898 131.328 133.985C131.274 134.036 131.187 134.039 131.13 133.991C131.073 133.943 131.058 133.859 131.097 133.795C131.148 133.711 131.202 133.624 131.259 133.537C131.277 133.47 131.286 133.398 131.28 133.326C131.268 133.155 131.187 133.001 131.067 132.914C130.845 132.76 130.489 132.824 130.315 133.049C130.216 133.179 130.036 133.218 129.89 133.14C129.162 132.748 128.197 132.845 127.547 133.374C127.469 133.437 127.364 133.464 127.265 133.446C127.175 133.428 127.097 133.374 127.052 133.296C126.977 133.164 126.735 133.037 126.489 133.001C125.398 132.848 124.278 132.977 123.25 133.374C123.202 133.392 123.151 133.398 123.103 133.392C122.468 133.317 121.806 133.666 121.491 134.238C121.431 134.346 121.32 134.412 121.197 134.412C121.075 134.403 120.979 134.355 120.922 134.253C120.838 134.108 120.799 133.937 120.811 133.771C120.811 133.753 120.805 133.738 120.799 133.732C119.789 133.702 118.77 133.901 117.854 134.301C117.779 134.334 117.689 134.301 117.656 134.223C117.623 134.147 117.656 134.057 117.734 134.024C118.689 133.606 119.75 133.395 120.793 133.422C120.88 133.425 120.961 133.461 121.021 133.528C121.084 133.597 121.116 133.693 121.111 133.789C121.102 133.895 121.128 134.006 121.182 134.099C121.206 134.105 121.221 134.099 121.23 134.087C121.605 133.41 122.387 133.001 123.139 133.088C124.221 132.673 125.392 132.541 126.531 132.7C126.818 132.739 127.172 132.893 127.313 133.143C127.328 133.149 127.343 133.146 127.355 133.137C128.095 132.532 129.195 132.423 130.027 132.872C130.033 132.875 130.057 132.887 130.075 132.863C130.345 132.514 130.887 132.42 131.235 132.664C131.385 132.769 131.493 132.929 131.547 133.112C131.78 132.806 132.059 132.517 132.416 132.33C132.91 132.071 133.602 132.087 134.025 132.451L134.369 131.807C134.408 131.735 134.498 131.704 134.573 131.747C134.645 131.786 134.672 131.876 134.633 131.951L134.234 132.697C134.246 132.715 134.258 132.736 134.267 132.757C134.282 132.788 134.294 132.824 134.303 132.857C134.387 133.257 134.297 133.702 134.058 134.075C133.818 134.448 133.449 134.713 133.051 134.797C133.048 134.8 133.039 134.8 133.027 134.8ZM134.04 133.076L133.353 134.364C133.533 134.259 133.695 134.102 133.815 133.913C133.98 133.654 134.058 133.356 134.04 133.076Z" fill="white"/>
<path d="M116.724 121.694L116.739 121.685C116.928 121.547 117.191 121.589 117.329 121.779L124.739 131.975L124.044 132.484L116.634 122.287C116.496 122.098 116.538 121.833 116.724 121.694Z" fill="#FF7867"/>
<path d="M125.006 133.073L124.739 131.975L124.044 132.484L125.006 133.073Z" fill="#545ECE"/>
<path d="M105.599 127.919L111.262 130.835L121.329 131.25C121.575 131.259 121.803 131.112 121.89 130.88C122.006 130.579 121.851 130.239 121.548 130.128L120.376 129.698L122.147 130.128C122.387 130.185 122.642 130.131 122.836 129.974C123.235 129.655 123.238 129.051 122.845 128.726L121.955 127.986L123.451 128.921C123.834 129.159 124.335 129.039 124.568 128.654C124.793 128.28 124.685 127.796 124.323 127.558L118.579 123.74C118.12 123.437 117.563 123.331 117.027 123.446L113.305 124.24L108.244 120.888L105.599 127.919Z" fill="#FFCBC5"/>
<path d="M118.474 131.118C118.45 131.118 118.426 131.112 118.402 131.1L115.891 129.74C115.819 129.701 115.792 129.61 115.831 129.535C115.87 129.46 115.963 129.436 116.035 129.475L118.546 130.835C118.617 130.874 118.644 130.964 118.605 131.039C118.578 131.091 118.528 131.118 118.474 131.118Z" fill="#FF9E94"/>
<path d="M120.694 129.926C120.673 129.926 120.649 129.92 120.628 129.911L117.009 128.157C116.934 128.121 116.904 128.031 116.94 127.956C116.976 127.88 117.066 127.85 117.141 127.886L120.76 129.64C120.835 129.676 120.865 129.767 120.829 129.842C120.805 129.893 120.751 129.926 120.694 129.926Z" fill="#FF9E94"/>
<path d="M122.219 128.299C122.192 128.299 122.165 128.293 122.141 128.277L118.111 125.807C118.04 125.765 118.019 125.672 118.061 125.6C118.102 125.528 118.195 125.507 118.267 125.549L122.297 128.019C122.369 128.061 122.39 128.154 122.348 128.226C122.318 128.274 122.267 128.299 122.219 128.299Z" fill="#FF9E94"/>
<path d="M123.57 43.1624L122.557 34.001L121.146 32.1025L121.182 33.1736C121.194 33.4895 120.972 33.7663 120.664 33.8235C120.358 33.8806 120.056 33.7061 119.951 33.4113L119.552 32.283C119.432 31.9431 119.504 31.567 119.738 31.2932L120.811 30.0476L118.893 30.7215L117.958 31.6061C117.754 31.7987 117.434 31.7866 117.245 31.576C117.086 31.3985 117.074 31.1367 117.212 30.9442L117.979 29.8912C118.18 29.6144 118.453 29.4007 118.767 29.2744L119.453 28.9976L118.59 29.0277C118.378 29.0337 118.21 28.8502 118.237 28.6396C118.246 28.5643 118.279 28.4951 118.33 28.441L119.181 27.5564C119.552 27.1683 120.05 26.9276 120.58 26.8705L122.734 26.6388L120.613 24.987C120.418 24.8336 120.367 24.5598 120.493 24.3462C120.625 24.1205 120.91 24.0423 121.14 24.1627L124.736 26.0521L127.025 30.7877L130.111 40.6893L123.57 43.1624Z" fill="#FFCBC5"/>
<path d="M123.606 31.7113C123.582 31.7113 123.558 31.7053 123.534 31.6933L120.735 30.1829C120.664 30.1438 120.637 30.0536 120.676 29.9784C120.715 29.9061 120.804 29.8761 120.879 29.9182L123.678 31.4285C123.75 31.4676 123.78 31.5579 123.738 31.6331C123.711 31.6813 123.657 31.7113 123.606 31.7113Z" fill="#FF9E94"/>
<path d="M124.37 30.4388C124.34 30.4388 124.313 30.4297 124.286 30.4147L121.611 28.6245L119.322 29.151C119.241 29.1691 119.16 29.118 119.142 29.0367C119.124 28.9555 119.175 28.8743 119.256 28.8562L121.608 28.3146C121.647 28.3056 121.689 28.3146 121.725 28.3357L124.454 30.162C124.523 30.2071 124.541 30.3004 124.496 30.3696C124.466 30.4177 124.418 30.4388 124.37 30.4388Z" fill="#FF9E94"/>
<path d="M125.856 29.8219C125.811 29.8219 125.769 29.8039 125.739 29.7648L123.495 26.9396L122.71 26.7892C122.629 26.7741 122.575 26.6959 122.59 26.6147C122.605 26.5334 122.683 26.4793 122.764 26.4943L123.603 26.6538C123.639 26.6598 123.669 26.6809 123.693 26.7079L125.973 29.5782C126.024 29.6444 126.015 29.7377 125.949 29.7888C125.922 29.8099 125.889 29.8219 125.856 29.8219Z" fill="#FF9E94"/>
<path d="M104.083 30.7606C108.898 34.2507 113.068 31.5669 113.068 31.5669L113.434 32.7193C113.437 32.7193 108.934 34.9427 104.083 30.7606Z" fill="#FF9E94"/>
<path d="M123.606 43.8904L123.292 40.5658L129.892 39.4346L133.785 46.5892L123.606 43.8904Z" fill="white"/>
<path d="M145.464 104.563C144.356 104.563 143.172 104.431 141.95 104.097C137.557 102.896 133.83 99.4634 130.869 93.8944C128.709 89.8327 127.382 85.3347 126.926 80.5269L123.145 40.5778C123.139 40.4996 123.193 40.4274 123.268 40.4154L129.872 39.2841C129.935 39.2721 129.998 39.3022 130.027 39.3593C130.21 39.6873 148.443 72.2892 150.651 84.718C150.666 84.7992 150.612 84.8774 150.531 84.8925C150.447 84.9075 150.372 84.8534 150.357 84.7721C148.218 72.7194 130.902 41.5406 129.821 39.603L123.46 40.6922L127.229 80.4998C127.681 85.2655 128.997 89.7274 131.139 93.753C134.06 99.2438 137.725 102.626 142.034 103.805C147.721 105.36 152.566 102.448 152.614 102.418C152.682 102.373 152.775 102.397 152.82 102.469C152.862 102.541 152.841 102.632 152.769 102.677C152.724 102.701 149.626 104.563 145.464 104.563Z" fill="#C0D6FD"/>
<path d="M105.599 127.919L108.844 120.786C108.844 120.786 105.449 119.188 105.134 118.74L105.599 127.919Z" fill="white"/>
<path d="M105.598 128.07C105.592 128.07 105.583 128.07 105.577 128.07C89.0739 125.732 78.4909 116.089 72.5163 108.411C66.0473 100.095 63.4405 92.2277 63.4166 92.1495C63.3896 92.0712 63.4345 91.987 63.5124 91.9599C63.5903 91.9359 63.6742 91.978 63.7012 92.0562C63.7252 92.1344 66.32 99.963 72.759 108.237C78.6857 115.849 89.1727 125.407 105.509 127.757L108.643 120.861C107.588 120.374 100.777 117.043 94.7878 109.861C88.8072 102.689 82.4341 90.1006 86.0506 70.8511C86.0656 70.7699 86.1465 70.7157 86.2244 70.7308C86.3053 70.7458 86.3592 70.8241 86.3442 70.9053C82.7487 90.0404 89.0769 102.544 95.0155 109.666C101.452 117.383 108.825 120.614 108.897 120.645C108.933 120.66 108.963 120.69 108.978 120.729C108.993 120.768 108.99 120.81 108.975 120.846L105.73 127.98C105.709 128.034 105.655 128.07 105.598 128.07Z" fill="#C0D6FD"/>
<path d="M181.983 146.495C184.605 146.495 186.81 146.42 187.116 143.805L188.054 135.342H175.916L176.853 143.805C177.156 146.42 179.361 146.495 181.983 146.495Z" fill="#C1DDFE"/>
<path d="M188.051 135.435C188.051 135.577 187.286 135.706 186.07 135.793C185.447 135.835 184.704 135.874 183.886 135.895H183.862C183.643 135.901 183.415 135.907 183.188 135.91C183.134 135.91 183.08 135.91 183.029 135.913C182.69 135.916 182.343 135.919 181.983 135.919C181.845 135.919 181.71 135.919 181.576 135.916C181.552 135.919 181.525 135.919 181.498 135.916C181.306 135.916 181.12 135.913 180.934 135.913C180.719 135.91 180.506 135.904 180.299 135.901H180.266C180.215 135.898 180.164 135.898 180.116 135.895C179.418 135.877 178.777 135.85 178.22 135.814C176.814 135.724 175.916 135.589 175.916 135.435C175.916 135.303 176.563 135.185 177.617 135.101C178.295 135.047 179.149 135.002 180.104 134.978C180.11 134.975 180.119 134.975 180.128 134.975C180.167 134.975 180.212 134.975 180.254 134.972C180.575 134.966 180.91 134.96 181.255 134.957C181.366 134.957 181.474 134.954 181.588 134.957C181.626 134.954 181.668 134.954 181.707 134.954H181.983C182.358 134.954 182.729 134.957 183.086 134.963C183.223 134.963 183.361 134.966 183.496 134.969C183.703 134.972 183.913 134.978 184.11 134.981C184.152 134.984 184.194 134.987 184.233 134.987C185.255 135.02 186.133 135.074 186.795 135.14C187.583 135.218 188.051 135.321 188.051 135.435Z" fill="#545ECE"/>
<path d="M188.533 120.864C188.533 121.872 188.521 122.705 188.431 123.494V123.497C188.257 125.076 187.781 126.466 186.505 128.636L186.502 128.639C186.433 128.762 186.358 128.885 186.283 129.012C186.283 129.015 186.28 129.015 186.28 129.018C186.28 129.021 186.28 129.021 186.277 129.024C185.249 130.73 184.221 132.866 183.493 134.966C183.379 135.282 183.281 135.598 183.185 135.907C183.131 135.907 183.077 135.907 183.026 135.91C182.687 135.913 182.34 135.916 181.98 135.916C181.842 135.916 181.707 135.916 181.573 135.913C181.549 135.916 181.522 135.916 181.495 135.913C181.303 135.913 181.117 135.91 180.931 135.91C180.716 135.907 180.503 135.901 180.296 135.898C180.281 135.847 180.272 135.79 180.26 135.736C180.26 135.733 180.26 135.733 180.26 135.73C180.206 135.483 180.158 135.231 180.125 134.972C180.113 134.9 180.101 134.824 180.095 134.749V134.746C180.024 134.202 179.988 133.639 180.006 133.055V133.049C180.009 132.857 180.018 132.658 180.033 132.463C180.042 132.342 180.051 132.219 180.059 132.105V132.099C180.275 129.346 180.422 127.212 180.925 125.103C181.243 123.771 181.701 122.453 182.409 120.988C183.955 117.774 183.967 114.901 186.181 113.791C187.005 113.376 187.991 113.941 188.102 114.862C188.287 116.423 188.533 118.89 188.533 120.864Z" fill="#00BD97"/>
<path d="M187.185 116.857C187.14 117.892 186.906 118.93 186.447 119.868C186.001 120.81 185.384 121.643 184.886 122.525C184.401 123.373 183.999 124.267 183.664 125.182C183.649 125.221 183.634 125.263 183.619 125.302C183.616 125.311 183.613 125.317 183.61 125.326C183.259 126.274 182.993 127.255 182.771 128.238C182.651 128.735 182.561 129.243 182.465 129.743C182.378 130.248 182.292 130.754 182.214 131.262C182.058 132.276 181.923 133.29 181.794 134.313C181.767 134.524 181.737 134.74 181.707 134.954C181.665 135.273 181.62 135.595 181.575 135.917C181.551 135.92 181.525 135.92 181.498 135.917C181.528 135.598 181.557 135.279 181.587 134.957C181.608 134.737 181.629 134.515 181.647 134.295C181.746 133.272 181.851 132.252 181.98 131.229C182.106 130.206 182.28 129.192 182.498 128.181C182.717 127.173 182.978 126.171 183.334 125.2C183.604 124.475 183.91 123.765 184.266 123.076C184.269 123.067 184.275 123.061 184.278 123.052C184.395 122.829 184.518 122.606 184.644 122.39C185.165 121.496 185.77 120.669 186.235 119.766C186.702 118.869 186.957 117.868 187.032 116.851C187.122 115.834 187.032 114.805 186.888 113.788C187.104 114.79 187.223 115.822 187.185 116.857Z" fill="white"/>
<path d="M181.255 134.957C181.114 135.438 181.012 135.715 181.012 135.715L180.934 135.913C180.719 135.91 180.506 135.904 180.299 135.901H180.266C180.215 135.898 180.164 135.898 180.116 135.895C179.418 135.877 178.777 135.85 178.22 135.814C178.025 135.592 177.821 135.351 177.617 135.098C175.906 132.992 174.055 130.026 174.564 127.516C175.466 123.069 171.502 122.29 169.944 117.185C168.596 112.762 171.679 109.518 172.533 108.727C172.533 108.727 172.533 108.724 172.539 108.721C172.667 108.601 172.742 108.541 172.742 108.541C172.742 108.541 172.73 108.604 172.712 108.724V108.727C172.509 110.036 171.574 117.919 177.812 121.737C179.301 122.645 180.29 123.822 180.928 125.106C182.732 128.726 181.755 133.2 181.255 134.957Z" fill="#00D1A7"/>
<path d="M180.012 133.055V133.052C179.841 130.91 179.409 128.72 178.391 126.993V126.99C178.385 126.975 178.376 126.963 178.364 126.948C178.364 126.948 178.361 126.942 178.361 126.945C178.253 126.755 178.136 126.578 178.007 126.397C177.549 125.759 176.973 125.194 176.422 124.649C176.185 124.414 175.943 124.177 175.712 123.933C173.746 121.878 172.239 119.206 171.577 116.613C170.828 113.67 171.158 110.948 172.533 108.727C172.533 108.727 172.533 108.724 172.539 108.721C172.581 108.649 172.632 108.571 172.68 108.499L172.743 108.541L172.803 108.58C172.773 108.628 172.74 108.676 172.71 108.724V108.727C169.839 113.249 171.862 119.42 175.445 123.428C175.469 123.455 175.49 123.482 175.514 123.509C175.613 123.62 175.712 123.725 175.814 123.831C176.045 124.074 176.287 124.312 176.521 124.544C177.081 125.097 177.657 125.663 178.124 126.316C179.272 127.907 179.811 129.998 180.063 132.105V132.108C180.179 133.076 180.23 134.048 180.251 134.978C180.257 135.234 180.26 135.489 180.26 135.739C180.26 135.742 180.26 135.742 180.26 135.745C180.263 135.799 180.263 135.853 180.263 135.907C180.212 135.904 180.161 135.904 180.114 135.901C180.114 135.601 180.108 135.294 180.102 134.984C180.102 134.906 180.099 134.833 180.096 134.758V134.755C180.084 134.196 180.057 133.627 180.012 133.055Z" fill="white"/>
<path d="M183.886 135.896C184.704 135.874 185.447 135.838 186.07 135.793C186.343 135.598 186.585 135.381 186.792 135.14C187.002 134.894 187.167 134.626 187.272 134.328C187.46 133.789 187.532 133.221 187.727 132.685C188.084 131.704 188.83 130.925 189.492 130.116C190.325 129.087 191.053 127.971 191.652 126.788C192.096 125.913 192.578 124.64 191.721 123.855C191.619 123.762 191.511 123.683 191.392 123.614C191.053 123.419 190.651 123.313 190.259 123.268C189.645 123.199 189.003 123.253 188.434 123.491V123.494C188.383 123.512 188.332 123.533 188.284 123.557C187.604 123.891 187.083 124.481 186.606 125.076C185.024 127.05 183.898 128.915 183.448 131.422C183.239 132.598 183.155 133.771 183.086 134.957C183.068 135.273 183.05 135.589 183.029 135.908C183.08 135.905 183.134 135.905 183.188 135.905C183.418 135.902 183.643 135.896 183.862 135.889H183.886V135.896Z" fill="#00D1A7"/>
<path d="M183.886 135.895C184 135.592 184.111 135.288 184.23 134.987C184.449 134.418 184.68 133.856 184.911 133.293C185.303 132.366 185.708 131.449 186.157 130.555C186.603 129.659 187.092 128.783 187.649 127.956C187.931 127.543 188.23 127.146 188.56 126.77C188.887 126.394 189.252 126.048 189.66 125.753C188.773 126.244 188.069 127.011 187.46 127.817C187.155 128.223 186.882 128.651 186.621 129.084C186.499 129.288 186.379 129.496 186.268 129.707V129.71C186.217 129.806 186.16 129.899 186.112 129.999C186.109 129.999 186.109 129.999 186.109 130.002C186.04 130.14 185.965 130.275 185.896 130.417C185.447 131.325 185.045 132.255 184.701 133.203C184.485 133.789 184.284 134.382 184.111 134.978C184.021 135.282 183.937 135.586 183.862 135.892H183.886V135.895Z" fill="white"/>
<path d="M186.049 130.444C186.238 129.893 186.369 129.331 186.486 128.762C186.594 128.193 186.684 127.619 186.699 127.038C186.567 127.604 186.45 128.166 186.339 128.735C186.229 129.3 186.121 129.866 186.049 130.444Z" fill="white"/>
<path d="M184.338 123.241C184.248 122.976 184.203 122.702 184.176 122.426C184.147 122.149 184.144 121.872 184.159 121.598C184.185 121.045 184.278 120.5 184.413 119.962C184.542 119.417 184.638 118.86 184.686 118.304C184.728 117.744 184.743 117.182 184.659 116.628C184.671 116.908 184.665 117.185 184.647 117.464C184.632 117.741 184.608 118.018 184.572 118.295C184.5 118.845 184.401 119.393 184.269 119.931L184.179 120.341C184.15 120.479 184.129 120.617 184.105 120.756C184.072 121.036 184.039 121.315 184.045 121.598C184.042 122.155 184.108 122.729 184.338 123.241Z" fill="white"/>
<path d="M183.358 125.573C183.487 125.443 183.613 125.314 183.745 125.188C183.874 125.061 184.003 124.935 184.134 124.812C184.401 124.568 184.668 124.327 184.949 124.105C185.231 123.882 185.525 123.674 185.839 123.512C185.998 123.431 186.16 123.358 186.334 123.316C186.505 123.268 186.684 123.253 186.864 123.28C186.69 123.22 186.502 123.22 186.319 123.244C186.136 123.274 185.959 123.334 185.791 123.407C185.453 123.554 185.147 123.762 184.857 123.987C184.572 124.216 184.302 124.463 184.054 124.73C183.805 124.998 183.568 125.275 183.358 125.573Z" fill="white"/>
<path d="M178.504 127.038C178.115 126.761 177.683 126.554 177.231 126.4C177.003 126.325 176.769 126.271 176.526 126.25C176.29 126.229 176.032 126.238 175.819 126.355C176.05 126.295 176.284 126.328 176.511 126.367C176.739 126.412 176.964 126.469 177.183 126.545C177.626 126.686 178.061 126.866 178.504 127.038Z" fill="white"/>
<path d="M175.565 123.668C175.481 123.382 175.409 123.097 175.334 122.811C175.262 122.525 175.196 122.239 175.149 121.95C175.098 121.661 175.059 121.373 175.05 121.081C175.044 120.789 175.056 120.497 175.14 120.211C174.999 120.476 174.945 120.783 174.933 121.081C174.918 121.382 174.951 121.683 175.002 121.977C175.056 122.272 175.128 122.561 175.223 122.844C175.316 123.127 175.427 123.404 175.565 123.668Z" fill="white"/>
<path d="M84.9119 137.544L71.7581 133.943L71.108 119.769L36.1471 111.961C35.4101 111.796 34.7149 112.377 34.7389 113.135L35.6168 139.422C35.6348 139.987 36.0243 140.475 36.5696 140.622L71.839 149.958C72.2525 150.066 72.696 149.961 73.0166 149.675L85.9876 138.092C86.1254 137.968 86.2033 137.794 86.2033 137.61V136.614L84.9119 137.544Z" fill="#4651CE"/>
<path d="M72.5012 148.848L86.1973 136.615L69.46 132.029L70.1191 148.216L72.5012 148.848Z" fill="#4A55CE"/>
<path d="M34.7716 112.882L35.6465 139.094L71.659 148.625C72.0755 148.736 72.48 148.408 72.462 147.975L71.1736 120.575C71.1347 119.718 70.5354 118.993 69.7054 118.791L37.1387 110.942C35.9042 110.647 34.7297 111.609 34.7716 112.882Z" fill="#545ECE"/>
<path d="M51.9737 132.637C53.4929 132.637 54.7243 131.4 54.7243 129.875C54.7243 128.35 53.4929 127.113 51.9737 127.113C50.4546 127.113 49.2231 128.35 49.2231 129.875C49.2231 131.4 50.4546 132.637 51.9737 132.637Z" fill="#5D68D9"/>
</g>
<defs>
<clipPath id="clip0">
<rect width="208" height="150" fill="white"/>
</clipPath>
</defs>
</svg>
