<svg width="208" height="150" viewBox="0 0 208 150" fill="none" xmlns="http://www.w3.org/2000/svg">
<path d="M178.099 38.3426C178.079 38.2721 178.058 38.2045 178.035 38.134C177.763 37.2936 177.462 36.4591 177.138 35.6364C177.061 35.4336 176.981 35.2338 176.899 35.034C176.816 34.8283 176.73 34.6226 176.645 34.4169C175.474 31.6608 174.055 29.0221 172.509 26.5422C172.007 25.74 171.494 24.9554 170.972 24.1915C170.219 23.0837 169.443 22.0171 168.665 20.9916C167.546 19.5224 166.414 18.1414 165.301 16.8544C161.401 12.347 155.315 5.95899 147.511 2.57107C138.065 -1.53088 126.577 -0.619986 117.673 4.54564C115.802 5.62695 114.047 6.89632 112.448 8.34787C111.982 8.77099 111.522 9.21175 111.076 9.66425C110.005 10.7338 108.978 11.8592 107.975 12.9581C107.972 12.964 107.97 12.967 107.964 12.9728C105.232 15.9758 102.414 19.0729 98.812 20.8829C98.4875 21.0474 98.157 21.2002 97.8178 21.3413C96.7763 21.7791 95.6818 22.1052 94.5342 22.3168C92.348 22.7252 89.9672 22.7252 87.371 22.3168C87.0701 22.2698 86.7633 22.2169 86.4564 22.1581C84.0136 21.6968 81.385 20.8888 78.5528 19.7281C76.9537 19.0729 75.34 18.3471 73.7793 17.6448C70.0384 15.9611 66.1854 14.2305 62.1406 13.3049C61.3529 13.1198 60.5593 12.9699 59.7569 12.8582C52.0007 11.7593 44.6015 14.204 38.7276 17.3128C38.2969 17.542 37.875 17.7712 37.462 18.0062C36.0016 18.829 34.6504 19.684 33.4261 20.5185C32.895 20.8799 32.3315 21.2796 31.7415 21.7144C25.7643 26.1249 17.2293 34.2671 15.7719 45.5592C15.0491 51.1362 16.0994 57.0834 18.967 63.5625C19.9583 65.8044 21.1679 68.111 22.6017 70.4882C23.1504 71.4049 23.7375 72.3335 24.3541 73.2737C26.3632 76.3296 28.5316 79.2856 30.7974 82.1681C33.1664 85.1858 35.6417 88.1183 38.1553 90.9979C40.5066 93.6894 42.8874 96.3339 45.2417 98.9461C50.8855 105.208 56.7211 111.684 64.014 116.291C66.4067 117.802 68.9026 119.077 71.4634 120.149C77.4258 122.659 83.7216 124.093 89.7666 124.936C90.8759 125.092 91.9793 125.227 93.0679 125.344C96.4459 125.712 99.7089 125.917 102.748 126.049C103.394 126.079 104.031 126.102 104.662 126.117C112.07 126.326 118.404 125.811 123.789 124.539C131.35 122.753 137.032 119.468 141.157 114.593C145.78 109.125 147.65 102.093 148.762 96.5749C148.969 95.5553 149.152 94.6502 149.332 93.8363C149.37 93.6571 149.408 93.4808 149.45 93.3133C150.568 88.4092 151.571 87.0252 156.215 83.6637C156.645 83.3493 157.109 83.0202 157.604 82.6706C159.749 81.1573 162.094 79.409 164.434 77.4109C164.803 77.0995 165.171 76.7792 165.54 76.4501C166.537 75.5627 167.529 74.6312 168.49 73.6528C173.506 68.5724 177.878 62.2373 179.336 54.5094C179.374 54.3067 179.409 54.1039 179.442 53.9012C179.448 53.8806 179.451 53.86 179.454 53.8395C179.569 53.1519 179.654 52.4643 179.716 51.7797C179.719 51.7709 179.719 51.765 179.719 51.7562C180.144 47.1547 179.468 42.6355 178.099 38.3426ZM168.296 73.2091C167.405 74.12 166.49 74.9927 165.567 75.8242C165.139 76.2121 164.708 76.5911 164.278 76.9584C161.906 78.9918 159.522 80.7724 157.345 82.3062C156.905 82.6177 156.492 82.9115 156.102 83.1907C151.182 86.7373 150.164 88.1183 148.998 93.2604C148.96 93.4338 148.919 93.616 148.877 93.8011C148.703 94.6032 148.523 95.4906 148.323 96.4867C147.219 101.952 145.373 108.916 140.811 114.308C133.837 122.556 122.29 126.185 104.562 125.668C103.972 125.653 103.373 125.629 102.768 125.603C99.8328 125.474 96.6849 125.28 93.4278 124.933C92.3628 124.821 91.283 124.692 90.1973 124.542C84.0107 123.702 77.5497 122.25 71.4516 119.659C68.9793 118.61 66.566 117.373 64.256 115.912C57.0131 111.337 51.1982 104.887 45.5751 98.6464C43.1146 95.9167 40.6246 93.1576 38.1759 90.3397C35.7213 87.5218 33.3022 84.6481 30.9921 81.6921C28.7913 78.883 26.6848 76.0005 24.7288 73.0298C24.1535 72.1542 23.6047 71.2874 23.0885 70.4294C21.6428 68.0464 20.4244 65.7339 19.4272 63.489C16.5537 57.0452 15.5005 51.142 16.2144 45.6179C17.6305 34.652 25.844 26.6773 31.7415 22.2757C32.423 21.7644 33.075 21.3031 33.6798 20.8888C34.8333 20.1013 36.099 19.2991 37.462 18.5175C38.1818 18.1091 38.9282 17.7036 39.7012 17.3128C42.4744 15.9053 45.5604 14.6683 48.8469 13.8925C52.2898 13.0786 55.9511 12.7701 59.6949 13.299C60.6891 13.44 61.6716 13.6369 62.6451 13.8837C66.4303 14.8299 70.062 16.4636 73.5964 18.0533C75.16 18.7555 76.7767 19.4842 78.3817 20.1424C80.7389 21.1062 82.9575 21.832 85.0492 22.3168C85.5242 22.4285 85.9932 22.5284 86.4564 22.6106C90.1796 23.31 93.4839 23.2071 96.4253 22.3168C96.9593 22.1552 97.4814 21.9671 97.9918 21.7526C98.399 21.5822 98.7972 21.3971 99.1837 21.1943C102.724 19.3638 105.497 16.349 108.179 13.4048C108.217 13.3607 108.259 13.3196 108.297 13.2755C109.262 12.2147 110.25 11.1305 111.274 10.0991C111.758 9.61136 112.25 9.13535 112.752 8.6799C114.301 7.27243 116 6.03832 117.809 4.98052C126.603 -0.158664 137.982 -1.07837 147.334 2.98244C155.052 6.33216 161.091 12.6702 164.962 17.1453C166.033 18.3853 167.125 19.7134 168.201 21.1238C168.912 22.0523 169.62 23.0191 170.311 24.0152C170.898 24.8644 171.476 25.737 172.037 26.6303C173.529 29.0104 174.907 31.5403 176.052 34.1789C176.303 34.7519 176.542 35.3308 176.766 35.9155C176.846 36.1094 176.919 36.3092 176.993 36.5061C177.214 37.1026 177.424 37.702 177.619 38.3044C177.639 38.372 177.66 38.4366 177.68 38.5013C179.02 42.7149 179.684 47.1429 179.279 51.6474C179.279 51.6504 179.279 51.6533 179.279 51.6533C179.218 52.335 179.132 53.0197 179.02 53.7043C179.017 53.7249 179.014 53.7484 179.011 53.7689C178.955 54.1127 178.893 54.4565 178.822 54.7944C177.332 62.1844 173.128 68.2844 168.296 73.2091Z" fill="#FFDDD9"/>
<path d="M175.202 42.7707C175.188 42.6973 175.173 42.6267 175.155 42.5562C175.146 42.5063 175.135 42.4592 175.123 42.4122C175.096 42.2918 175.07 42.1713 175.04 42.0537C175.011 41.9333 174.981 41.8128 174.949 41.6923C174.73 40.805 174.471 39.9264 174.182 39.0566C173.361 36.5855 172.288 34.1848 171.054 31.8929C170.24 30.3738 169.355 28.9046 168.432 27.4913C167.709 26.3894 166.965 25.3228 166.207 24.2973C165.782 23.7214 165.355 23.1601 164.927 22.6107C164.051 21.4912 163.171 20.4275 162.304 19.4255C156.43 12.632 151.379 8.54771 145.933 6.18233C143.154 4.97467 140.145 4.24008 136.991 4.00207C130.2 3.48786 123.296 5.35078 117.897 9.06192C116.915 9.7348 115.985 10.4694 115.112 11.2598C113.678 12.5615 112.333 14.0366 110.902 15.6086C110.896 15.6115 110.893 15.6174 110.89 15.6203C109.937 16.6664 108.976 17.7242 107.97 18.7467C107.967 18.7497 107.961 18.7526 107.958 18.7585C106.71 20.0249 105.397 21.2385 103.951 22.3168C102.727 23.2277 101.408 24.0416 99.9538 24.7057C99.7562 24.7968 99.5556 24.885 99.352 24.9702C98.1218 25.4844 96.8296 25.8752 95.4813 26.1396C93.4722 26.5334 91.3362 26.648 89.1 26.4775C86.9994 26.3189 84.8133 25.9193 82.5003 25.2669C80.7626 24.7792 78.9512 24.1474 77.0512 23.3717C76.2222 23.0309 75.3961 22.6753 74.576 22.3168C73.7588 21.9584 72.9474 21.594 72.1509 21.2355C69.0944 19.8604 66.156 18.5381 63.1851 17.6507C61.8664 17.254 60.5417 16.9455 59.1994 16.7545C58.7214 16.6869 58.2258 16.6341 57.7331 16.5959C54.6 16.3579 51.5229 16.7633 48.6228 17.5538C46.6727 18.0856 44.7993 18.7879 43.0439 19.5842C41.0112 20.5039 39.1319 21.547 37.4621 22.593C36.8307 22.9868 36.2289 23.3805 35.6595 23.7684C34.4942 24.5617 33.1489 25.549 31.7416 26.7214C26.6702 30.9409 20.7933 37.5434 19.6929 46.0617C19.0173 51.2919 20.1738 56.9923 23.2154 63.3421C24.2126 65.4284 25.4163 67.588 26.8265 69.8212C27.0979 70.2502 27.3753 70.6821 27.6614 71.117C29.3136 73.6293 31.0867 76.0828 32.9364 78.4893C37.7099 84.6951 43.0115 90.5748 48.1832 96.3134C53.6471 102.378 59.2997 108.649 66.1324 112.965C67.7786 114.005 69.5134 114.948 71.3543 115.801C73.9387 117.002 76.7326 118.022 79.7684 118.874C83.7895 120.002 88.2414 120.831 93.2037 121.389C94.1507 121.495 95.1184 121.592 96.1038 121.677C96.6201 121.724 97.1393 121.765 97.6645 121.807C99.3431 121.933 101.063 122.033 102.922 122.115C103.223 122.127 103.524 122.142 103.822 122.15C111.179 122.415 117.466 121.933 122.736 120.687C129.518 119.083 134.613 116.218 138.13 112.057C142.178 107.273 143.865 100.856 144.886 95.8021C145.054 94.9588 145.216 94.1801 145.373 93.4573C145.42 93.2428 145.467 93.0312 145.514 92.8256C145.812 91.5004 146.11 90.3662 146.447 89.3612C147.314 86.7755 148.45 85.033 150.6 83.0967C151.783 82.03 153.276 80.9017 155.2 79.5442C155.238 79.5148 155.279 79.4854 155.318 79.459C158.135 77.4727 160.643 75.504 162.856 73.5323C163.915 72.5921 164.909 71.6488 165.835 70.7027C166.101 70.4324 166.361 70.1591 166.617 69.8858C169.004 67.3442 170.91 64.7907 172.358 62.1932C173.267 60.5624 173.999 58.914 174.553 57.2392C174.606 57.0805 174.66 56.9218 174.707 56.7631C174.733 56.6809 174.76 56.5986 174.783 56.5163C175.114 55.4233 175.368 54.3184 175.553 53.2019C175.683 52.4144 175.775 51.6269 175.828 50.8394C175.834 50.7777 175.837 50.716 175.84 50.6514C175.843 50.6426 175.843 50.6337 175.843 50.6249C176.008 47.9745 175.76 45.3447 175.202 42.7707ZM175.427 49.8903C175.409 50.5368 175.362 51.1832 175.288 51.8297C175.241 52.2616 175.182 52.6965 175.111 53.1284C174.896 54.4272 174.586 55.7083 174.17 56.9747C173.435 59.2255 172.379 61.4293 170.986 63.6095C169.733 65.5811 168.201 67.5352 166.384 69.4803C166.219 69.6596 166.048 69.8388 165.871 70.0181C164.882 71.0494 163.812 72.0808 162.655 73.1121C160.436 75.0955 157.914 77.0789 155.076 79.0829C155.07 79.0858 155.064 79.0917 155.058 79.0946C153.509 80.1877 152.232 81.1339 151.164 82.0154C148.225 84.4454 146.889 86.3994 145.874 89.661C145.591 90.5777 145.331 91.6003 145.069 92.7668C145.022 92.9754 144.974 93.187 144.924 93.4074C144.771 94.1214 144.611 94.8883 144.446 95.714C143.437 100.715 141.767 107.062 137.788 111.769C131.619 119.065 120.476 122.318 103.733 121.701C103.471 121.692 103.208 121.68 102.942 121.668C101.087 121.589 99.3697 121.486 97.6969 121.36C97.2691 121.328 96.8443 121.292 96.4224 121.257C95.4459 121.175 94.4871 121.081 93.5459 120.975C84.6628 120.005 77.4229 118.16 71.3425 115.301C69.593 114.484 67.9409 113.579 66.3743 112.589C59.5918 108.305 53.9627 102.058 48.5166 96.0166C43.3301 90.2663 38.0197 84.3719 33.2433 78.1544C31.4171 75.7772 29.6676 73.3531 28.0361 70.8702C27.7853 70.4882 27.5375 70.1091 27.2986 69.7301C25.909 67.541 24.7201 65.4283 23.7288 63.3803C20.6428 57.0217 19.4657 51.3243 20.1354 46.1204C21.1975 37.8989 26.8 31.4786 31.7416 27.3062C33.2403 26.0397 34.68 24.979 35.9132 24.1386C36.4059 23.8036 36.9222 23.4599 37.4621 23.1219C39.129 22.0641 41.0083 21.0063 43.0439 20.0719C44.8495 19.2433 46.776 18.5146 48.788 17.9681C51.6291 17.2041 54.6354 16.8104 57.6977 17.0425C58.1816 17.0777 58.6654 17.1306 59.1374 17.1982C60.4975 17.3892 61.8428 17.7066 63.1851 18.115C66.0852 18.9965 68.9735 20.2923 71.9739 21.6439C72.4695 21.8673 72.971 22.0935 73.4755 22.3168C74.5937 22.8164 75.7325 23.3129 76.8801 23.7831C78.4821 24.4383 80.0221 24.9907 81.509 25.4432C84.176 26.2542 86.6749 26.742 89.0646 26.9242C92.0266 27.1475 94.8116 26.886 97.3724 26.1396C98.1099 25.9281 98.8269 25.6754 99.5261 25.3815C99.9391 25.2082 100.337 25.026 100.73 24.8291C102.169 24.118 103.473 23.263 104.686 22.3168C107.132 20.4128 109.203 18.1414 111.233 15.9112C112.652 14.3539 113.991 12.8788 115.413 11.5889C116.195 10.8778 117.027 10.2167 117.897 9.60258C123.252 5.83561 130.161 3.93449 136.956 4.4487C140.059 4.68377 143.021 5.40367 145.753 6.59076C151.137 8.92969 156.135 12.9758 161.965 19.7164C162.817 20.7037 163.685 21.7497 164.546 22.8487C164.962 23.3835 165.381 23.93 165.791 24.4883C166.541 25.4961 167.275 26.5451 167.986 27.6264C168.812 28.8841 169.606 30.1857 170.346 31.5256C170.907 32.5364 171.438 33.5707 171.928 34.6256C172.054 34.893 172.175 35.1633 172.296 35.4336C172.857 36.6942 173.358 37.9812 173.786 39.2888C174.096 40.2261 174.367 41.1722 174.598 42.1272C174.63 42.2565 174.66 42.3887 174.686 42.518C174.745 42.7678 174.798 43.0146 174.848 43.2644C174.896 43.4994 174.943 43.7315 174.984 43.9637C175.005 44.0842 175.025 44.2076 175.046 44.328C175.344 46.1057 175.486 47.904 175.432 49.717C175.432 49.7757 175.432 49.8316 175.427 49.8903Z" fill="#FFDDD9"/>
<path d="M171.877 47.2898C171.83 46.5963 171.751 45.9029 171.644 45.2094C171.624 45.0772 171.603 44.945 171.579 44.8098C171.367 43.564 171.069 42.324 170.694 41.0987C169.514 37.2142 167.597 33.4737 165.399 30.0564C165.127 29.6362 164.853 29.2248 164.576 28.8164C164.224 28.2963 163.865 27.785 163.505 27.2855C163.387 27.1209 163.269 26.9593 163.151 26.8007C163.015 26.6126 162.876 26.4275 162.738 26.2424C162.357 25.734 161.973 25.2375 161.59 24.7497C160.829 23.7859 160.062 22.8662 159.309 21.9935C153.843 15.6731 149.228 11.9091 144.352 9.79053C141.98 8.75917 139.401 8.1333 136.69 7.92762C129.789 7.40459 122.777 9.69651 117.897 14.0629C117.856 14.0982 117.814 14.1334 117.776 14.1687C116.472 15.3528 115.186 16.7662 113.82 18.2647C112.616 19.587 111.356 20.9739 109.973 22.3167C108.642 23.6125 107.2 24.8702 105.589 25.9926C105.518 26.0426 105.447 26.0925 105.376 26.1395C104.01 27.0769 102.526 27.9143 100.886 28.6019C100.497 28.7664 100.101 28.9192 99.703 29.0603C96.3633 30.2503 92.705 30.7028 88.7989 30.406C86.4417 30.2268 84.0048 29.7831 81.4411 29.0603C79.5529 28.5313 77.594 27.8467 75.5465 27.0122C75.4905 26.9887 75.4344 26.9652 75.3783 26.9417C73.7115 26.2571 72.0977 25.5313 70.537 24.829C68.5574 23.9387 66.6368 23.0748 64.7487 22.3549C64.2235 22.1522 63.7043 21.9612 63.1851 21.7878C61.648 21.2648 60.1375 20.8652 58.6447 20.6536C58.2464 20.5978 57.8392 20.5537 57.4321 20.5243C54.948 20.3363 52.4787 20.6301 50.1155 21.2325C49.6701 21.3441 49.2275 21.4675 48.7909 21.6027C47.4367 22.0141 46.1268 22.5165 44.873 23.0778C42.2384 24.2531 39.8576 25.6782 37.8927 27.0181C37.7511 27.1151 37.6095 27.212 37.462 27.3149C35.7774 28.4902 33.7359 30.074 31.7415 32.0192C27.9829 35.6774 24.3807 40.6256 23.6136 46.564C22.9852 51.4211 24.2686 56.8806 27.5227 63.1363C28.4845 64.9846 29.6174 66.9004 30.9273 68.8926C30.9391 68.9131 30.9538 68.9366 30.9686 68.9572C32.5794 71.4078 34.3141 73.8084 36.1315 76.165C40.8017 82.2356 46.0265 88.0301 51.1275 93.6864C56.4143 99.5514 61.8811 105.616 68.2506 109.639C69.2094 110.244 70.2066 110.817 71.2421 111.358C74.1658 112.877 77.3993 114.131 81.0133 115.133C85.3855 116.344 90.3124 117.19 95.9178 117.704C96.5905 117.769 97.272 117.825 97.9653 117.878C98.219 117.898 98.4757 117.916 98.7324 117.934C100.116 118.031 101.553 118.113 103.096 118.181H103.116C110.519 118.504 116.738 118.072 121.827 116.867C127.745 115.468 132.141 113.027 135.106 109.521C138.572 105.419 140.083 99.6219 141.009 95.0263C141.154 94.3035 141.295 93.6218 141.437 92.9724C141.487 92.7461 141.534 92.5257 141.584 92.3083C141.995 90.4836 142.408 88.9351 142.906 87.5629C144.511 83.1201 146.989 80.5079 153.034 76.2443C153.468 75.9388 153.896 75.6302 154.315 75.3276C156.796 73.5175 158.997 71.731 160.932 69.9533C162.215 68.778 163.381 67.6056 164.431 66.4332C164.546 66.3039 164.661 66.1775 164.77 66.0482C165.065 65.7133 165.349 65.3812 165.62 65.0463C167.396 62.8807 168.783 60.7093 169.8 58.5143C169.874 58.3586 169.945 58.2028 170.013 58.0471C170.063 57.9325 170.113 57.815 170.16 57.7004C170.871 56.0079 171.367 54.3007 171.653 52.5641C171.942 50.807 172.004 49.044 171.877 47.2898ZM171.211 52.4907C170.922 54.2478 170.414 55.9785 169.676 57.6886C169.623 57.8179 169.564 57.9472 169.508 58.0765C169.423 58.2675 169.331 58.4585 169.24 58.6495C168.314 60.58 167.095 62.4899 165.567 64.3998C165.251 64.7965 164.921 65.1932 164.579 65.5899C164.443 65.7456 164.304 65.9043 164.165 66.06C163.124 67.2265 161.968 68.3931 160.696 69.5625V69.5655C158.905 71.2139 156.881 72.8711 154.616 74.5489C154.02 74.9926 153.406 75.4333 152.775 75.88C146.715 80.1553 144.187 82.791 142.555 87.1985C142.015 88.6501 141.576 90.2926 141.139 92.2525C141.089 92.467 141.039 92.6874 140.991 92.9136C140.853 93.5542 140.714 94.2271 140.57 94.9381C139.652 99.4808 138.165 105.211 134.764 109.233C129.341 115.645 118.989 118.427 103.116 117.734C103.093 117.734 103.072 117.731 103.049 117.731C101.621 117.669 100.287 117.596 98.9979 117.508C98.6616 117.484 98.3282 117.461 97.9978 117.434C97.3871 117.387 96.7823 117.337 96.1863 117.281C85.7779 116.344 77.7238 114.273 71.2303 110.843C70.2833 110.347 69.3717 109.821 68.4896 109.263C62.1731 105.272 56.727 99.2311 51.4579 93.3838C46.3865 87.7568 41.1911 81.9947 36.5415 75.9652C34.7242 73.6116 32.9895 71.2139 31.3816 68.7692C31.3668 68.7515 31.355 68.731 31.3432 68.7133C30.0481 66.7446 28.9241 64.8523 27.9711 63.0276C24.7229 56.8159 23.4396 51.4123 24.0591 46.6228C24.7878 40.9723 28.1511 36.221 31.7415 32.648C33.7152 30.6763 35.7597 29.0661 37.4709 27.8585C37.7039 27.6939 37.9282 27.5382 38.1465 27.3883C38.6539 27.0416 39.1879 26.689 39.7484 26.3393L39.7573 26.3335C39.9048 26.2394 40.0553 26.1454 40.2087 26.0543C41.6277 25.1846 43.1973 24.3266 44.873 23.5685C46.1239 23.0014 47.4367 22.4901 48.7909 22.0699C49.4045 21.8789 50.027 21.7085 50.6554 21.5586C51.1894 21.4323 51.7293 21.3236 52.2722 21.2325C53.9538 20.9475 55.6738 20.8358 57.3967 20.968C57.795 20.9974 58.1933 21.0415 58.5798 21.0973C60.0903 21.3089 61.6244 21.7202 63.1851 22.258C63.4152 22.3373 63.6453 22.4166 63.8754 22.5019V22.5048C65.976 23.2658 68.1326 24.2355 70.3541 25.2345C71.7643 25.8721 73.2188 26.5245 74.7205 27.1503C74.9388 27.2444 75.1571 27.3354 75.3783 27.4265C76.9243 28.0583 78.423 28.6048 79.8804 29.0603C83.0047 30.0475 85.9402 30.6352 88.7665 30.8497C93.1653 31.1847 97.2602 30.5823 100.942 29.0603C100.98 29.0456 101.019 29.0279 101.057 29.0132C102.933 28.2287 104.606 27.2502 106.129 26.1601C106.137 26.1542 106.146 26.1483 106.155 26.1395C107.795 24.9642 109.262 23.6566 110.613 22.3167C111.876 21.0679 113.038 19.7897 114.153 18.5645C115.445 17.1452 116.67 15.7995 117.897 14.6682C117.956 14.6094 118.018 14.5565 118.077 14.5007C122.874 10.1461 129.822 7.85416 136.655 8.37425C139.316 8.57405 141.847 9.19111 144.172 10.199C148.984 12.2911 153.548 16.0169 158.97 22.2844C159.714 23.1453 160.469 24.0562 161.221 25.0083C161.631 25.5254 162.041 26.0573 162.445 26.6009C162.602 26.8065 162.755 27.0152 162.906 27.2267C163.044 27.4118 163.18 27.5999 163.313 27.7879C163.596 28.1817 163.873 28.5813 164.151 28.9868C164.493 29.4893 164.829 30.0005 165.16 30.5206C167.302 33.8762 169.157 37.5374 170.296 41.3308C170.668 42.5561 170.96 43.7961 171.163 45.0449C171.187 45.1801 171.208 45.3152 171.228 45.4504C171.329 46.1438 171.405 46.8402 171.447 47.5366C171.55 49.185 171.482 50.8423 171.211 52.4907Z" fill="#FFDDD9"/>
<path d="M165.045 58.1647C164.431 59.2666 163.702 60.3685 162.853 61.4733C162.49 61.9435 162.109 62.4136 161.705 62.8867C161.799 63.0013 161.897 63.1188 161.994 63.2334C162.366 62.8044 162.717 62.3754 163.05 61.9464C163.832 60.9444 164.519 59.9454 165.11 58.9464L165.045 58.1647ZM110.041 27.553C110.197 27.6176 110.356 27.6793 110.513 27.744C111.144 27.218 111.746 26.6803 112.327 26.1396H111.669C111.147 26.6156 110.604 27.0887 110.041 27.553ZM102.417 32.2308C101.001 32.8244 99.5318 33.2975 98.0183 33.6501C97.4784 33.7794 96.9327 33.891 96.381 33.985V34.4375C97.5345 34.2407 98.6615 33.9792 99.7619 33.6501C100.727 33.365 101.668 33.0301 102.591 32.6422C104.934 31.6608 106.993 30.4238 108.837 29.0604H108.076C106.385 30.2621 104.515 31.3523 102.417 32.2308ZM167.974 48.1832C167.948 47.4985 167.883 46.811 167.788 46.1234C167.771 46 167.753 45.8736 167.732 45.7502C167.6 44.8834 167.414 44.0166 167.186 43.1527C166.313 39.8764 164.803 36.6619 162.994 33.6559C162.894 33.4855 162.791 33.3151 162.687 33.1447C162.472 32.7979 162.257 32.4542 162.035 32.1162C161.77 31.7078 161.501 31.3023 161.227 30.9027C161.139 30.7734 161.05 30.6441 160.962 30.5148C160.368 29.6627 159.761 28.8341 159.147 28.0349C158.206 26.8066 157.25 25.646 156.315 24.5647C151.252 18.7144 147.078 15.2707 142.77 13.4019C140.806 12.5468 138.658 12.0267 136.389 11.8563C130.497 11.4097 124.535 13.3637 120.437 17.0807C119.623 17.8212 118.779 18.7027 117.897 19.6576C117.522 20.0631 117.139 20.4833 116.749 20.9123C116.333 21.3678 115.906 21.8379 115.46 22.3168C114.31 23.5656 113.059 24.8703 111.669 26.1396C111.147 26.6156 110.604 27.0887 110.041 27.553C109.415 28.0701 108.76 28.5726 108.076 29.0604C106.385 30.2621 104.515 31.3523 102.417 32.2308C101.001 32.8244 99.5318 33.2975 98.0183 33.6501C97.4784 33.7794 96.9327 33.891 96.381 33.985C94.959 34.2319 93.4986 34.3758 92.0058 34.417C90.8552 34.4493 89.6869 34.4229 88.498 34.3318C86.9166 34.2113 85.3117 33.988 83.6655 33.6501C80.612 33.033 77.4316 32.0399 74.0448 30.6559C72.7644 30.1299 71.5341 29.5922 70.3422 29.0604C70.2508 29.0192 70.1623 28.981 70.0738 28.9399C69.6814 28.7636 69.292 28.5902 68.9084 28.4169C66.9377 27.5295 65.02 26.6685 63.185 25.9751C62.1052 25.5637 61.0549 25.2141 60.0371 24.9496C60.0341 24.9496 60.0312 24.9496 60.0312 24.9496C59.3674 24.7762 58.7183 24.6411 58.087 24.5529C57.7772 24.5088 57.4556 24.4736 57.1311 24.4501C56.8213 24.4266 56.5116 24.4119 56.2018 24.406C54.5821 24.3796 52.9624 24.5911 51.3782 24.9702C51.0536 25.0466 50.7321 25.1318 50.4105 25.2229C49.8116 25.3933 49.2186 25.5872 48.6345 25.7988C48.4043 25.8811 48.1742 25.9663 47.95 26.0544C46.885 26.4687 45.8553 26.9389 44.8729 27.4384C43.1175 28.3346 41.5097 29.3248 40.126 30.268C38.2585 31.5403 35.8098 33.415 33.5617 35.7745C30.6676 38.8128 28.1038 42.6561 27.5344 47.0666C27.0004 51.2214 28.2189 56.058 31.2517 61.7437C32.1132 63.3598 33.1192 65.0434 34.2757 66.8006C34.4763 67.1032 34.6769 67.4088 34.8805 67.7115C36.4058 69.9711 38.0402 72.1983 39.7543 74.3933C44.218 80.126 49.2009 85.653 54.0658 91.0537C59.1727 96.7189 64.4565 102.578 70.3688 106.316C70.6196 106.474 70.8703 106.63 71.127 106.783C74.3368 108.699 78.0069 110.226 82.2641 111.39C86.8045 112.636 92.0146 113.467 98.0537 113.935C98.1245 113.941 98.1924 113.946 98.2632 113.952C99.107 114.017 99.9655 114.073 100.851 114.126C101.42 114.158 102.004 114.187 102.6 114.217C102.821 114.226 103.046 114.237 103.27 114.246C110.265 114.552 116.139 114.143 120.865 113.024C125.942 111.825 129.695 109.806 132.085 106.983C134.973 103.568 136.298 98.3849 137.132 94.2507C137.259 93.6277 137.383 93.0312 137.507 92.4553C137.551 92.2438 137.599 92.0381 137.643 91.8353C138.336 88.7295 139.056 86.273 140.071 84.128C141.121 81.8978 142.487 80.0085 144.464 78.0838C146.089 76.4913 148.131 74.8781 150.748 73.0328C153.846 70.8467 156.501 68.7193 158.731 66.6213C159.944 65.4842 161.029 64.3559 161.994 63.2334C162.366 62.8044 162.717 62.3754 163.05 61.9464C163.832 60.9444 164.519 59.9454 165.11 58.9464C165.295 58.6349 165.472 58.3234 165.635 58.012C165.785 57.7328 165.927 57.4566 166.062 57.1775C166.074 57.154 166.083 57.1305 166.095 57.1099C166.915 55.3909 167.464 53.6661 167.75 51.9237C167.954 50.6837 168.021 49.4349 167.974 48.1832ZM167.307 51.8532C167.024 53.5633 166.484 55.2558 165.676 56.9453C165.673 56.9512 165.67 56.96 165.664 56.9659C165.558 57.1892 165.446 57.4125 165.328 57.6358C165.236 57.8121 165.142 57.9884 165.045 58.1647C164.431 59.2666 163.702 60.3685 162.853 61.4733C162.49 61.9435 162.109 62.4136 161.705 62.8867C160.749 64.0033 159.672 65.1257 158.466 66.257C156.244 68.352 153.589 70.4794 150.488 72.6685C147.883 74.5049 145.842 76.1152 144.207 77.6989C142.222 79.6177 140.838 81.4953 139.77 83.6961C138.684 85.9351 137.923 88.5062 137.194 91.7883C137.15 91.9881 137.106 92.1909 137.062 92.3995C136.938 92.9637 136.817 93.5513 136.693 94.1625C135.87 98.2439 134.563 103.357 131.739 106.695C127.223 112.037 117.652 114.428 103.287 113.8C103.04 113.788 102.798 113.779 102.556 113.767C102.051 113.744 101.559 113.717 101.075 113.691C100.122 113.635 99.2014 113.576 98.2986 113.509C98.2898 113.509 98.2839 113.509 98.275 113.506C86.4121 112.604 77.7591 110.297 71.1152 106.254C70.9441 106.151 70.7759 106.045 70.6078 105.939C64.7486 102.234 59.4854 96.3986 54.3992 90.754C49.5608 85.3857 44.6074 79.8909 40.1643 74.1935C38.4621 72.0132 36.8365 69.8036 35.3201 67.5587C35.0959 67.2237 34.8716 66.8887 34.6504 66.5537C33.4998 64.8084 32.4997 63.1335 31.6441 61.5321C28.6585 55.9316 27.4548 51.1862 27.9799 47.1254C28.5434 42.759 31.1219 38.9479 34.019 35.9449C36.2022 33.6765 38.5683 31.8694 40.3797 30.6353C41.6955 29.7391 43.2149 28.7959 44.8729 27.9408C46.6017 27.0446 48.484 26.2425 50.4341 25.6813C50.7409 25.5931 51.0477 25.5108 51.3575 25.4344C52.9477 25.0436 54.5762 24.8233 56.2018 24.8556C56.5027 24.8585 56.8007 24.8703 57.0987 24.8938C57.4114 24.9173 57.7241 24.9525 58.025 24.9966C58.5826 25.076 59.1579 25.1905 59.745 25.3375C59.745 25.3375 59.745 25.3375 59.748 25.3404C60.8514 25.6137 61.999 25.9986 63.185 26.4511C64.961 27.1328 66.8167 27.9644 68.7255 28.8253C68.8996 28.9017 69.0736 28.981 69.2477 29.0604C69.3421 29.1015 69.4395 29.1456 69.5368 29.1896C70.9264 29.8126 72.3631 30.4473 73.8737 31.0673C76.5761 32.1721 79.1487 33.0301 81.6328 33.6501C83.9812 34.2348 86.2469 34.608 88.4655 34.7755C89.6633 34.8665 90.8463 34.8959 92.0058 34.8607C93.4986 34.8225 94.959 34.6814 96.381 34.4375C97.5345 34.2407 98.6615 33.9792 99.7619 33.6501C100.727 33.365 101.668 33.0301 102.591 32.6422C104.934 31.6608 106.993 30.4238 108.837 29.0604C109.418 28.6343 109.976 28.1935 110.513 27.744C111.144 27.218 111.746 26.6803 112.327 26.1396C113.696 24.8615 114.929 23.5568 116.071 22.3168C116.419 21.9378 116.758 21.5617 117.092 21.1973C117.363 20.9006 117.631 20.6067 117.897 20.3188C118.888 19.2345 119.835 18.2296 120.741 17.4098C124.747 13.7721 130.586 11.8622 136.357 12.3C138.575 12.4675 140.673 12.9758 142.593 13.8103C146.833 15.6527 150.96 19.0582 155.973 24.8556C156.973 26.0103 157.994 27.2591 158.997 28.5785C159.528 29.2778 160.053 29.9977 160.566 30.7352C160.764 31.0202 160.961 31.3053 161.153 31.5962C161.448 32.034 161.737 32.4777 162.021 32.9243C162.233 33.2651 162.443 33.606 162.649 33.9498C162.661 33.9645 162.67 33.9821 162.679 33.9968C164.458 36.9763 165.941 40.1585 166.782 43.3907C166.986 44.1664 167.151 44.9451 167.275 45.7238C167.293 45.8207 167.307 45.9206 167.322 46.0176C167.425 46.7228 167.493 47.431 167.523 48.1362C167.576 49.3791 167.511 50.622 167.307 51.8532Z" fill="#FFDDD9"/>
<g opacity="0.8">
<g opacity="0.8">
<g opacity="0.8">
<g opacity="0.8">
<g opacity="0.8">
<path opacity="0.8" d="M41.3594 102.052C41.085 101.658 13.7895 62.346 14.0373 43.664C14.2025 31.2729 12.2347 28.0172 11.0487 27.1798C10.4498 26.7567 10.0014 26.9124 9.98368 26.9212L9.80371 26.4628C9.83321 26.4511 10.4911 26.2013 11.3054 26.7596C12.866 27.8292 14.6922 31.6285 14.5329 43.6728C14.2881 62.1991 41.4921 101.379 41.7665 101.773L41.3594 102.052Z" fill="#C1DDFE"/>
</g>
</g>
</g>
</g>
<g opacity="0.8">
<g opacity="0.8">
<g opacity="0.8">
<g opacity="0.8">
<path opacity="0.8" d="M11.5827 27.3179C11.5827 27.3179 1.81743 28.6755 2.28062 16.7663C2.28062 16.7663 13.282 15.5381 11.5827 27.3179Z" fill="#C1DDFE"/>
</g>
</g>
</g>
</g>
<g opacity="0.8">
<g opacity="0.8">
<g opacity="0.8">
<g opacity="0.8">
<path opacity="0.8" d="M9.53219 40.946C9.53219 40.946 2.76436 44.4603 0 35.654C0 35.654 7.70305 31.9135 9.53219 40.946Z" fill="#C1DDFE"/>
</g>
</g>
</g>
</g>
<g opacity="0.8">
<g opacity="0.8">
<g opacity="0.8">
<g opacity="0.8">
<path opacity="0.8" d="M24.7672 62.5694C24.7672 62.5694 32.3965 62.302 30.4375 53.2842C30.4405 53.2842 21.8848 53.816 24.7672 62.5694Z" fill="#C1DDFE"/>
</g>
</g>
</g>
</g>
<g opacity="0.8">
<g opacity="0.8">
<g opacity="0.8">
<g opacity="0.8">
<path opacity="0.8" d="M19.8077 47.8335C19.8077 47.8335 27.437 47.5661 25.4781 38.5483C25.481 38.5483 16.9253 39.0772 19.8077 47.8335Z" fill="#C1DDFE"/>
</g>
</g>
</g>
</g>
<g opacity="0.8">
<g opacity="0.8">
<g opacity="0.8">
<g opacity="0.8">
<path opacity="0.8" d="M12.1877 59.9865C12.1877 59.9865 7.20766 65.7486 1.36621 58.5879C1.36621 58.5879 7.13096 52.2733 12.1877 59.9865Z" fill="#C1DDFE"/>
</g>
</g>
</g>
</g>
<g opacity="0.8">
<g opacity="0.8">
<g opacity="0.8">
<g opacity="0.8">
<g opacity="0.8">
<path opacity="0.8" d="M14.1198 43.8521C14.0903 43.8256 11.1637 41.2487 8.83301 40.9431L8.89791 40.4553C11.3791 40.7815 14.3234 43.376 14.4502 43.4848L14.1198 43.8521Z" fill="#C1DDFE"/>
</g>
</g>
</g>
</g>
<g opacity="0.8">
<g opacity="0.8">
<g opacity="0.8">
<g opacity="0.8">
<path opacity="0.8" d="M16.079 53.3253L15.6069 53.1843C15.6748 52.9639 17.2827 47.7895 20.0913 46.9844L20.227 47.4574C17.6721 48.1891 16.0937 53.2754 16.079 53.3253Z" fill="#C1DDFE"/>
</g>
</g>
</g>
</g>
<g opacity="0.8">
<g opacity="0.8">
<g opacity="0.8">
<g opacity="0.8">
<path opacity="0.8" d="M19.076 63.0072C19.0229 62.969 13.7479 59.1786 11.3818 60.2746L11.1724 59.8279C13.7981 58.6056 19.1409 62.446 19.3681 62.6076L19.076 63.0072Z" fill="#C1DDFE"/>
</g>
</g>
</g>
</g>
<g opacity="0.8">
<g opacity="0.8">
<g opacity="0.8">
<g opacity="0.8">
<path opacity="0.8" d="M22.0087 68.2991L21.5308 68.1698C21.5868 67.9612 22.938 63.0806 24.7347 61.9141L25.0061 62.3254C23.3629 63.3891 22.0205 68.2492 22.0087 68.2991Z" fill="#C1DDFE"/>
</g>
</g>
</g>
</g>
</g>
</g>
<path d="M204.642 71.3433C199.975 83.7255 193.904 94.1508 186.487 103.877C186.065 104.432 185.64 104.982 185.209 105.531C180.518 111.525 174.786 117.043 167.104 121.974C162.115 125.18 155.863 127.701 149.246 129.981C149.022 130.06 148.798 130.14 148.57 130.216C137.778 133.904 126.099 137.007 117.351 141.438C109.433 145.446 108.043 139.619 108.043 139.619C107.211 136.125 105.851 131.341 104.662 126.117C104.63 125.967 104.594 125.817 104.562 125.668C104.302 124.513 104.051 123.337 103.821 122.15C103.789 122 103.759 121.851 103.733 121.701C103.506 120.534 103.299 119.359 103.116 118.181C103.093 118.031 103.069 117.881 103.048 117.731C102.871 116.556 102.718 115.38 102.6 114.217C102.585 114.067 102.568 113.917 102.556 113.767C102.47 112.868 102.402 111.978 102.358 111.096C102.258 109.06 102.278 107.077 102.461 105.196C102.954 100.119 104.618 95.7757 108.232 93.1135C111.433 90.757 115.481 89.2466 118.602 86.8196C123.048 83.3582 125.154 78.4247 127.335 73.7468C127.373 73.6675 127.411 73.5852 127.45 73.5059C128.568 71.1229 129.786 68.8222 131.09 66.5802C131.261 66.2864 131.433 65.9955 131.607 65.7046C132.082 64.8995 132.571 64.1032 133.07 63.3127L133.073 63.3098C133.341 62.8837 133.616 62.4577 133.89 62.0346C134.038 61.8112 134.185 61.585 134.336 61.3617C134.341 61.3499 134.347 61.3382 134.356 61.3294C135.035 60.3009 135.731 59.2872 136.442 58.2764C136.693 57.9179 136.949 57.5624 137.203 57.2068C137.427 56.8954 137.652 56.5869 137.879 56.2783C139.201 54.4683 140.566 52.6788 141.965 50.9041C142.72 49.9491 143.484 48.9971 144.257 48.048C147.712 43.7874 151.341 39.5503 155.005 35.1633C155.793 34.2201 156.769 33.318 157.896 32.4747C158.227 32.225 158.569 31.984 158.926 31.7431C159.448 31.3963 159.994 31.0584 160.566 30.7352C160.646 30.6882 160.728 30.6441 160.811 30.5971C160.861 30.5707 160.911 30.5413 160.961 30.5148C161.074 30.4531 161.186 30.3914 161.301 30.3297C161.451 30.2533 161.605 30.174 161.758 30.0947C161.905 30.0183 162.056 29.9448 162.206 29.8713C162.319 29.8126 162.431 29.7567 162.546 29.7039C162.646 29.6568 162.746 29.6098 162.85 29.5658C162.885 29.5481 162.917 29.5334 162.953 29.5158C163.1 29.4423 163.254 29.3748 163.407 29.3072C163.652 29.1985 163.9 29.0927 164.151 28.9869C164.292 28.9281 164.434 28.8694 164.575 28.8165C164.873 28.6931 165.171 28.5785 165.475 28.4668C165.726 28.3728 165.98 28.2788 166.233 28.1935C166.809 27.9908 167.393 27.7998 167.986 27.6264C168.133 27.5794 168.281 27.5353 168.431 27.4913C169.045 27.3179 169.668 27.1534 170.296 27.0035C170.871 26.8683 171.449 26.742 172.037 26.6303C172.193 26.601 172.349 26.5716 172.509 26.5422C173.311 26.3953 174.122 26.2719 174.934 26.1778C175.592 26.0956 176.249 26.0309 176.907 25.9839C178.099 25.8987 179.288 25.8664 180.468 25.8957C183.038 25.9575 185.555 26.3012 187.891 26.9771C189.239 27.3649 190.514 27.8762 191.723 28.4815C195.219 30.2445 198.131 32.8185 200.5 35.5806C204.536 40.2819 207.33 45.8002 207.602 51.5153C207.911 57.9385 207.708 63.2158 204.642 71.3433Z" fill="#C1DDFE"/>
<path d="M112.472 143.142C111.666 143.142 110.935 142.992 110.28 142.689C108.276 141.764 107.781 139.772 107.76 139.689C107.427 138.288 106.999 136.645 106.548 134.909C105.866 132.285 105.09 129.314 104.379 126.185L104.279 125.732C103.993 124.46 103.751 123.305 103.538 122.209C103.506 122.062 103.476 121.909 103.45 121.754C103.223 120.581 103.013 119.394 102.833 118.228C102.81 118.078 102.786 117.925 102.765 117.772C102.574 116.509 102.429 115.354 102.317 114.246L102.302 114.093C102.29 113.994 102.282 113.891 102.273 113.791C102.181 112.842 102.116 111.966 102.075 111.111C101.969 108.966 102.004 106.968 102.178 105.167C102.73 99.4839 104.713 95.3497 108.067 92.8756C109.616 91.7355 111.383 90.7805 113.091 89.8549C114.926 88.8618 116.826 87.8334 118.431 86.5846C122.556 83.3729 124.656 78.842 126.689 74.4609L127.196 73.3767C128.273 71.0847 129.5 68.7458 130.849 66.4304C131.02 66.1366 131.191 65.8427 131.368 65.5518C131.81 64.8025 132.288 64.018 132.834 63.1541L132.858 63.1189C133.12 62.7016 133.389 62.2844 133.657 61.8701L133.781 61.6791C133.884 61.5204 133.991 61.3617 134.097 61.206C134.106 61.1913 134.117 61.1707 134.135 61.1472C134.761 60.1981 135.442 59.202 136.215 58.1031C136.401 57.8386 136.59 57.5742 136.779 57.3097L136.976 57.0335C137.2 56.7191 137.428 56.4106 137.655 56.1021C138.92 54.3684 140.26 52.6054 141.747 50.719C142.493 49.7758 143.263 48.815 144.042 47.86C146.396 44.9569 148.78 42.1273 151.303 39.1301C152.459 37.755 153.624 36.371 154.793 34.9724C155.583 34.0262 156.572 33.1065 157.734 32.2368C158.041 32.0046 158.383 31.7637 158.775 31.4963C159.327 31.129 159.885 30.7882 160.436 30.4767C160.484 30.4503 160.534 30.4209 160.587 30.3915L160.867 30.2387C160.97 30.1829 161.074 30.127 161.177 30.0683C161.333 29.9889 161.487 29.9096 161.637 29.8303C161.788 29.7539 161.938 29.6775 162.092 29.604C162.201 29.5482 162.316 29.4894 162.437 29.4336C162.54 29.3866 162.643 29.3366 162.749 29.2925L162.838 29.2485C162.985 29.175 163.139 29.1074 163.289 29.0398C163.549 28.9252 163.8 28.8165 164.05 28.7107C164.198 28.649 164.343 28.5903 164.487 28.5344C164.759 28.4228 165.057 28.3053 165.39 28.1848C165.641 28.0908 165.9 27.9938 166.157 27.9086C166.771 27.6911 167.349 27.506 167.921 27.3385C168.063 27.2915 168.213 27.2474 168.367 27.2034C169.033 27.0153 169.647 26.8537 170.246 26.7127C170.886 26.5628 171.459 26.4394 172.001 26.3366L172.476 26.2484C173.305 26.0956 174.128 25.9722 174.922 25.8811C175.583 25.7988 176.25 25.7342 176.908 25.6872C178.135 25.599 179.344 25.5696 180.498 25.599C183.189 25.6637 185.711 26.031 187.995 26.6921C189.299 27.0682 190.605 27.5795 191.877 28.2171C195.054 29.8214 198.04 32.2338 200.745 35.3867C205.183 40.5553 207.661 46.1264 207.917 51.4977C208.251 58.4263 207.876 63.6566 204.941 71.4432C200.495 83.2407 194.712 93.6043 186.744 104.05C186.322 104.605 185.894 105.158 185.463 105.707C180.339 112.254 174.394 117.655 167.284 122.218C162.962 124.995 157.433 127.475 149.361 130.254L149.32 130.269C149.108 130.343 148.898 130.419 148.683 130.489C145.691 131.512 142.585 132.505 139.581 133.463C131.825 135.94 123.803 138.502 117.502 141.693C115.59 142.66 113.911 143.142 112.472 143.142ZM133.3 63.5009C132.766 64.3471 132.294 65.1199 131.861 65.8545C131.686 66.1454 131.515 66.4363 131.344 66.7301C130.005 69.0308 128.786 71.3521 127.715 73.6323L127.211 74.7136C125.149 79.1593 123.019 83.7549 118.782 87.0547C117.136 88.3329 115.218 89.3731 113.36 90.378C111.669 91.2918 109.923 92.2379 108.406 93.3545C105.19 95.7228 103.288 99.719 102.754 105.228C102.582 107 102.547 108.969 102.65 111.085C102.692 111.928 102.757 112.798 102.848 113.741C102.857 113.841 102.866 113.938 102.877 114.035L102.892 114.19C103.004 115.286 103.149 116.432 103.338 117.69C103.358 117.843 103.382 117.99 103.406 118.137C103.586 119.297 103.792 120.478 104.019 121.645C104.046 121.798 104.075 121.942 104.108 122.089C104.32 123.188 104.562 124.334 104.848 125.603L104.949 126.055C105.657 129.17 106.43 132.138 107.111 134.759C107.565 136.498 107.993 138.144 108.327 139.551C108.33 139.569 108.784 141.358 110.527 142.158C112.18 142.916 114.428 142.584 117.213 141.173C123.556 137.959 131.601 135.391 139.378 132.905C142.378 131.947 145.479 130.957 148.467 129.934C148.68 129.864 148.889 129.79 149.099 129.714L149.14 129.699C157.168 126.934 162.655 124.472 166.936 121.721C173.987 117.196 179.887 111.837 184.968 105.343C185.398 104.794 185.82 104.247 186.242 103.692C194.175 93.2899 199.931 82.9763 204.356 71.2317C207.546 62.7721 207.575 57.3009 207.298 51.5212C207.05 46.2792 204.616 40.8315 200.267 35.7628C197.612 32.6658 194.689 30.3033 191.582 28.7343C190.346 28.1143 189.071 27.6147 187.8 27.2504C185.564 26.6039 183.091 26.2425 180.451 26.1808C179.315 26.1544 178.126 26.1808 176.919 26.269C176.273 26.316 175.612 26.3806 174.96 26.46C174.176 26.5511 173.367 26.6715 172.553 26.8214L172.081 26.9095C171.55 27.0094 170.984 27.1329 170.352 27.2798C169.762 27.4208 169.154 27.5795 168.499 27.7646C168.355 27.8057 168.21 27.8498 168.063 27.8968C167.493 28.0643 166.927 28.2465 166.319 28.461C166.065 28.5462 165.815 28.6402 165.567 28.7313C165.266 28.843 164.971 28.9546 164.676 29.078C164.528 29.1339 164.39 29.1897 164.254 29.2485C164.003 29.3542 163.758 29.46 163.516 29.5658C163.357 29.6363 163.213 29.701 163.074 29.7686L162.971 29.8185C162.856 29.8685 162.758 29.9125 162.661 29.9595C162.549 30.0124 162.44 30.0653 162.333 30.1212C162.177 30.1976 162.03 30.271 161.882 30.3445C161.729 30.4238 161.575 30.5031 161.422 30.5795C161.324 30.6324 161.221 30.6883 161.121 30.7441L160.844 30.8969C160.796 30.9233 160.749 30.9498 160.702 30.9762C160.159 31.2818 159.613 31.6197 159.076 31.9753C158.693 32.2338 158.362 32.4689 158.062 32.6952C156.937 33.5385 155.982 34.4258 155.217 35.3367C154.049 36.7354 152.884 38.1194 151.727 39.4945C149.205 42.4887 146.824 45.3183 144.473 48.2185C143.697 49.1734 142.927 50.1313 142.183 51.0716C140.702 52.9522 139.366 54.7064 138.103 56.4371C137.876 56.7456 137.652 57.0541 137.428 57.3626L137.23 57.6388C137.041 57.9003 136.852 58.1648 136.669 58.4293C135.894 59.5311 135.215 60.5272 134.59 61.4763L134.566 61.5116C134.457 61.6703 134.353 61.8319 134.247 61.9935L134.123 62.1815C133.852 62.6017 133.578 63.0278 133.309 63.4509L133.3 63.5009Z" fill="white"/>
<path d="M156.769 93.8834C145.068 93.5455 132.415 89.6845 121.228 92.1615C108.435 94.997 105.535 105.337 100.036 115.701C95.2125 124.786 82.4676 137.248 69.4069 144.285C63.1495 147.658 56.8183 149.788 51.2541 149.703C50.313 149.692 49.3896 149.612 48.4986 149.465C44.2946 148.778 40.3265 147.549 36.5915 145.863C36.1342 145.657 35.6769 145.443 35.2256 145.222C33.6944 144.476 32.2075 143.656 30.7619 142.76C21.9731 137.336 14.6802 129.317 8.8328 120.099C4.8736 113.861 -0.802643 100.307 1.01765 86.9929C3.14181 71.4255 12.2787 62.3842 23.7315 63.3774C34.2638 64.2912 41.0375 51.9619 49.13 45.0156C54.4315 40.4641 59.2404 35.2662 65.1674 31.558C74.2541 25.8722 85.3411 24.1239 96.0681 24.3619C112.592 24.7263 131.651 39.8676 145.706 48.9971C156.704 56.1402 169.308 68.208 170.715 82.0447C170.718 82.0447 171.966 94.3271 156.769 93.8834Z" fill="#08F7C8" fill-opacity="0.15"/>
<path d="M51.567 150C51.4608 150 51.3546 150 51.2513 149.997C50.2866 149.982 49.3455 149.903 48.4516 149.756C44.336 149.083 40.306 147.864 36.4707 146.133C36.0075 145.925 35.5443 145.71 35.0959 145.487C33.5647 144.74 32.0542 143.906 30.6086 143.01C22.3361 137.903 14.9252 130.248 8.58512 120.258C4.79112 114.281 -1.12999 100.539 0.725707 86.9548C1.76714 79.3151 4.5138 73.0299 8.66477 68.7722C12.7774 64.5528 17.9963 62.587 23.7552 63.0865C31.1721 63.7271 36.807 57.5477 42.2561 51.5711C44.4097 49.2087 46.6372 46.7669 48.9354 44.7953C50.5433 43.4143 52.1334 41.948 53.6705 40.5317C57.2049 37.276 60.8602 33.9057 65.0083 31.3112C73.1302 26.2308 83.5858 23.7919 96.0742 24.0711C109.934 24.3767 125.756 35.1428 138.472 43.7933C141.074 45.5622 143.532 47.2341 145.868 48.7532C150.282 51.6181 156.669 56.3871 162.035 62.825C167.343 69.1895 170.364 75.648 171.01 82.0154C171.031 82.2123 171.464 86.9078 168.157 90.4455C165.703 93.0695 161.867 94.3212 156.76 94.1773C152.58 94.0568 148.208 93.4779 143.98 92.9196C136.342 91.9088 128.447 90.8628 121.293 92.4495C110.687 94.8002 107.028 102.255 102.795 110.888C102.001 112.504 101.181 114.176 100.299 115.839C95.1566 125.527 81.9367 137.868 69.5487 144.546C62.9224 148.117 56.7122 150 51.567 150ZM22.0057 63.5978C11.3141 63.5978 3.27766 72.595 1.3069 87.0341C-0.52519 100.451 5.33102 114.035 9.08076 119.947C15.3736 129.861 22.7197 137.453 30.9184 142.513C32.3463 143.398 33.8391 144.223 35.3555 144.961C35.801 145.178 36.2583 145.393 36.7126 145.598C40.5007 147.309 44.4806 148.513 48.546 149.177C49.4104 149.318 50.325 149.398 51.2572 149.412C56.3582 149.498 62.592 147.629 69.2654 144.029C81.5649 137.4 94.6787 125.165 99.7738 115.566C100.653 113.911 101.47 112.242 102.261 110.632C106.382 102.228 110.277 94.2918 121.16 91.8795C128.418 90.2722 136.365 91.3241 144.054 92.3408C148.267 92.8991 152.621 93.475 156.772 93.5955C161.702 93.7424 165.384 92.5494 167.715 90.0577C170.842 86.7168 170.42 82.1271 170.417 82.08C168.732 65.5165 150.948 52.7641 145.538 49.2498C143.195 47.7278 140.735 46.0529 138.13 44.2811C125.479 35.6746 109.737 24.9643 96.0535 24.6617C83.6832 24.3855 73.3367 26.7949 65.3151 31.8136C61.2143 34.3788 57.5796 37.7285 54.0658 40.9666C52.5229 42.3888 50.9298 43.855 49.313 45.2448C47.0414 47.193 44.8287 49.623 42.6868 51.9707C37.4118 57.7564 31.9657 63.7271 24.8232 63.7271C24.4514 63.7271 24.0768 63.7124 23.6991 63.6771C23.1327 63.6243 22.5663 63.5978 22.0057 63.5978Z" fill="white"/>
<path d="M130.958 73.5088H65.4745C61.651 73.5088 58.5532 70.4235 58.5532 66.6154V29.2131C58.5532 25.405 61.651 22.3197 65.4745 22.3197H130.958C134.781 22.3197 137.879 25.405 137.879 29.2131V66.6124C137.879 70.4205 134.781 73.5088 130.958 73.5088Z" fill="white"/>
<path d="M137.876 29.0603C137.794 25.3227 134.729 22.3197 130.958 22.3197H65.4749C61.7045 22.3197 58.6392 25.3256 58.5566 29.0603H137.876Z" fill="#545ED6"/>
<path d="M124.204 61.5085H96.3809C96.2983 61.5085 96.2334 61.4438 96.2334 61.3616V33.65C96.2334 33.5677 96.2983 33.5031 96.3809 33.5031H124.204C124.287 33.5031 124.352 33.5677 124.352 33.65V61.3616C124.352 61.4438 124.287 61.5085 124.204 61.5085ZM96.5284 61.2147H124.057V33.7969H96.5284V61.2147Z" fill="#C0D6FD"/>
<path d="M108.043 41.7804C108.043 43.2319 107.4 44.5336 106.382 45.421C106.19 45.5914 105.984 45.7413 105.766 45.8764C105.019 46.3436 104.134 46.614 103.19 46.614C102.275 46.614 101.417 46.3583 100.682 45.9205C99.2751 45.0743 98.334 43.5346 98.334 41.7804C98.334 40.1701 99.1276 38.7421 100.343 37.8665C100.588 37.6872 100.853 37.5344 101.137 37.4052C101.762 37.1113 102.458 36.9497 103.193 36.9497C103.751 36.9497 104.288 37.0437 104.786 37.2171C105.196 37.3581 105.583 37.5521 105.931 37.793C107.208 38.6628 108.043 40.1261 108.043 41.7804Z" fill="#C0D6FD"/>
<path d="M102.007 43.4023V43.323C102.007 43.323 101.88 43.3729 102.007 43.4023Z" fill="#FFCEC8"/>
<path d="M106.385 45.421C106.193 45.5914 105.987 45.7413 105.768 45.8765L100.685 45.9117L102.033 44.7863C102.007 44.6923 102.027 44.6042 102.027 44.6042L102.013 43.5434V43.5287L102.01 43.3994C102.107 43.42 102.361 43.4288 102.948 43.3847C104.352 43.276 104.972 41.7775 105.043 41.5923C105.043 41.5865 105.043 41.5835 105.046 41.5806C105.048 41.5776 105.048 41.5747 105.048 41.5747V41.6775L105.054 42.18V42.2065C105.054 42.2065 105.054 42.2065 105.054 42.2094L105.06 43.1467L105.063 43.5698L106.385 45.421Z" fill="#FFCEC8"/>
<path d="M105.772 39.6795C105.798 39.941 105.654 40.1849 105.497 40.3641C105.491 40.3758 105.483 40.3935 105.465 40.4052C105.376 40.4993 105.288 40.5757 105.232 40.6256C105.217 40.6374 105.199 40.6521 105.182 40.6638C105.176 40.6697 105.167 40.6756 105.155 40.6814L105.164 41.4013C105.164 41.4013 105.126 41.5071 105.046 41.6775C105.043 41.6834 105.043 41.6864 105.04 41.6922C104.851 42.0977 104.435 42.8294 103.76 43.2613C103.68 43.3113 103.597 43.3553 103.518 43.3965C103.468 43.4229 103.42 43.4435 103.373 43.4611C102.987 43.6139 102.532 43.6609 102.013 43.5258C102.004 43.5258 101.995 43.5228 101.984 43.5199C100.219 43.0439 100.629 39.7588 100.874 38.4189C100.936 38.0692 100.992 37.8518 100.992 37.8518C101.031 37.6843 101.081 37.5345 101.137 37.3993C101.762 37.1055 102.459 36.9438 103.193 36.9438C103.751 36.9438 104.288 37.0379 104.786 37.2112L104.866 39.5502C104.866 39.5502 104.913 39.5237 104.987 39.5002C104.996 39.4943 105.008 39.4914 105.019 39.4885C105.046 39.4796 105.072 39.4708 105.102 39.4591C105.123 39.4503 105.146 39.4444 105.173 39.4414C105.188 39.4356 105.202 39.4326 105.217 39.4297C105.226 39.4268 105.235 39.4268 105.247 39.4238C105.474 39.3739 105.742 39.3827 105.772 39.6795Z" fill="#FFCEC8"/>
<path d="M106.3 40.1466C105.907 40.561 106.17 40.6726 105.99 41.3778C105.807 42.0889 105.055 42.2035 105.055 42.2035V42.177C105.04 42.0125 105.037 41.8509 105.043 41.6893V41.5894C105.043 41.5835 105.043 41.5806 105.046 41.5776C105.058 41.2779 105.096 40.9782 105.155 40.6785C105.164 40.6726 105.173 40.6667 105.182 40.6609C105.199 40.6491 105.217 40.6344 105.232 40.6227C105.247 40.6109 105.264 40.5962 105.279 40.5815C105.353 40.5286 105.412 40.464 105.465 40.4023C105.48 40.3905 105.491 40.3729 105.497 40.3611C105.666 40.1437 105.716 39.9233 105.727 39.7617C105.742 39.5766 105.598 39.4091 105.409 39.4091C105.353 39.4091 105.294 39.415 105.241 39.4238C105.232 39.4267 105.223 39.4267 105.211 39.4297C105.196 39.4326 105.182 39.4356 105.167 39.4414C105.14 39.4444 105.12 39.4503 105.096 39.4591C105.067 39.4679 105.04 39.4767 105.014 39.4885C105.005 39.4914 104.993 39.4943 104.981 39.5002C104.907 39.5266 104.86 39.5502 104.86 39.5502L104.429 38.8714C104.14 38.3131 103.597 38.1779 103.004 38.1838C102.488 38.1897 101.992 38.2426 101.497 38.3719C101.29 38.4248 101.066 38.46 100.868 38.4189C100.706 38.3866 100.562 38.3043 100.455 38.1427C100.405 38.0634 100.364 37.9693 100.337 37.8635C100.582 37.6843 100.848 37.5315 101.131 37.4022C101.756 37.1084 102.453 36.9468 103.187 36.9468C103.745 36.9468 104.282 37.0408 104.78 37.2142C105.191 37.3552 105.577 37.5491 105.925 37.7901C105.969 37.9576 106.07 38.0957 106.276 38.1368C106.869 38.2455 106.686 39.7353 106.3 40.1466Z" fill="#D86B4B"/>
<path d="M101.983 43.5228C101.983 43.5228 102.624 43.8431 103.518 43.3994C104.408 42.9557 105.055 42.2064 105.055 42.2064L105.06 43.1467C105.06 43.1467 103.267 44.5659 101.983 43.5228Z" fill="#FFB9B0"/>
<path d="M105.559 44.2662L105.043 45.0713C104.718 45.5797 104.155 45.8882 103.55 45.8941L103.104 45.897C102.617 45.9 102.193 45.5621 102.092 45.086L102.03 44.7893L100.694 45.9147H100.682V45.9235C101.414 46.3642 102.272 46.6169 103.19 46.6169C104.134 46.6169 105.022 46.3466 105.765 45.8794C105.765 45.8794 106.214 45.5767 106.382 45.4239L105.559 44.2662Z" fill="#545ED6"/>
<path d="M120.874 39.5766H110.498C110.212 39.5766 109.979 39.3445 109.979 39.0565V38.9096C109.979 38.6246 110.212 38.3925 110.498 38.3925H120.874C121.16 38.3925 121.396 38.6246 121.396 38.9096V39.0565C121.396 39.3445 121.163 39.5766 120.874 39.5766Z" fill="#C0D6FD"/>
<path d="M117.608 41.4718H110.294C110.212 41.4718 110.147 41.4072 110.147 41.3249C110.147 41.2426 110.212 41.178 110.294 41.178H117.608C117.691 41.178 117.756 41.2426 117.756 41.3249C117.756 41.4072 117.688 41.4718 117.608 41.4718Z" fill="#C0D6FD"/>
<path d="M115.688 43.182H110.294C110.212 43.182 110.147 43.1174 110.147 43.0351C110.147 42.9528 110.212 42.8882 110.294 42.8882H115.688C115.77 42.8882 115.835 42.9528 115.835 43.0351C115.835 43.1174 115.767 43.182 115.688 43.182Z" fill="#C0D6FD"/>
<path d="M112.991 44.8921H110.294C110.212 44.8921 110.147 44.8275 110.147 44.7452C110.147 44.6629 110.212 44.5983 110.294 44.5983H112.991C113.074 44.5983 113.139 44.6629 113.139 44.7452C113.139 44.8275 113.071 44.8921 112.991 44.8921Z" fill="#C0D6FD"/>
<path d="M115.687 58.7964C115.646 58.7964 115.608 58.7788 115.581 58.7523L113.908 57.004L110.023 58.1794C109.979 58.1911 109.931 58.1852 109.893 58.1588L108.521 57.1833L105.795 57.5535C105.739 57.5623 105.68 57.5359 105.651 57.4859L104.53 55.7053L102.051 58.0354C102.019 58.0648 101.975 58.0794 101.93 58.0736C101.886 58.0677 101.848 58.0442 101.824 58.006L101.146 56.9129L99.2723 58.1617C99.2044 58.2058 99.113 58.1882 99.0687 58.1206C99.0245 58.053 99.0422 57.9619 99.11 57.9178L101.11 56.5838C101.143 56.5603 101.184 56.5544 101.222 56.5633C101.261 56.5721 101.296 56.5956 101.317 56.6308L101.981 57.7004L104.456 55.3703C104.488 55.3409 104.533 55.3262 104.577 55.3321C104.621 55.338 104.659 55.3615 104.683 55.3997L105.848 57.2508L108.536 56.8865C108.574 56.8806 108.61 56.8894 108.642 56.9129L110.005 57.8796L113.908 56.6984C113.961 56.6808 114.02 56.6984 114.059 56.7366L115.687 58.4379L118.764 55.1117C118.794 55.0794 118.835 55.0647 118.877 55.0647C118.918 55.0647 118.959 55.0853 118.986 55.1176L120.774 57.2596C120.827 57.3214 120.818 57.4154 120.753 57.4653C120.691 57.5182 120.597 57.5094 120.546 57.4477L118.865 55.4349L115.797 58.7553C115.767 58.7788 115.729 58.7964 115.687 58.7964Z" fill="#C0D6FD"/>
<path d="M121.396 53.1724H99.1923C99.1599 53.1724 99.1333 53.1459 99.1333 53.1136C99.1333 53.0813 99.1599 53.0548 99.1923 53.0548H121.396C121.428 53.0548 121.455 53.0813 121.455 53.1136C121.455 53.1459 121.428 53.1724 121.396 53.1724Z" fill="#C0D6FD"/>
<path d="M100.325 48.4711L100.656 49.1351L101.39 49.2409L100.859 49.7581L100.983 50.4897L100.325 50.143L99.6674 50.4897L99.7913 49.7581L99.2603 49.2409L99.9949 49.1351L100.325 48.4711Z" fill="#FF7867"/>
<path d="M103.102 48.4711L103.429 49.1351L104.167 49.2409L103.633 49.7581L103.76 50.4897L103.102 50.143L102.441 50.4897L102.568 49.7581L102.034 49.2409L102.771 49.1351L103.102 48.4711Z" fill="#FF7867"/>
<path d="M105.875 48.4711L106.205 49.1351L106.94 49.2409L106.409 49.7581L106.533 50.4897L105.875 50.143L105.217 50.4897L105.344 49.7581L104.81 49.2409L105.544 49.1351L105.875 48.4711Z" fill="#FF7867"/>
<path d="M108.651 48.4711L108.978 49.1351L109.716 49.2409L109.182 49.7581L109.309 50.4897L108.651 50.143L107.99 50.4897L108.117 49.7581L107.586 49.2409L108.321 49.1351L108.651 48.4711Z" fill="#FF7867"/>
<path d="M111.424 48.4711L111.754 49.1351L112.489 49.2409L111.958 49.7581L112.082 50.4897L111.424 50.143L110.766 50.4897L110.893 49.7581L110.359 49.2409L111.096 49.1351L111.424 48.4711Z" fill="#FF7867"/>
<path d="M75.7057 41.7804C75.7057 43.2319 75.0626 44.5336 74.0448 45.421C73.853 45.5914 73.6465 45.7413 73.4282 45.8764C73.3485 45.9264 73.2659 45.9734 73.1863 46.0175C72.4959 46.3965 71.6964 46.614 70.8526 46.614C69.9971 46.614 69.1917 46.3907 68.4924 45.9999C68.4423 45.9734 68.3951 45.947 68.3479 45.9176C66.9406 45.0713 65.9995 43.5316 65.9995 41.7774C65.9995 40.1672 66.7931 38.7392 68.0086 37.8635C68.2535 37.6843 68.519 37.5315 68.8022 37.4022C69.4277 37.1084 70.1239 36.9468 70.8585 36.9468C71.4161 36.9468 71.9531 37.0408 72.4517 37.2142C72.8617 37.3552 73.2482 37.5491 73.5963 37.7901C74.8679 38.6628 75.7057 40.1261 75.7057 41.7804Z" fill="#C0D6FD"/>
<path d="M73.1865 46.0204C72.4961 46.3994 71.6966 46.6169 70.8529 46.6169C69.9973 46.6169 69.1919 46.3935 68.4927 46.0027L68.7316 44.6599L73.0301 44.7892L73.1865 46.0204Z" fill="#545ED6"/>
<path d="M73.3839 41.4042C73.3839 42.1975 72.7674 42.988 72.139 43.5874C71.3955 44.2955 70.2272 44.2955 69.4867 43.5874C68.8583 42.988 68.2417 42.1975 68.2417 41.4042C68.2417 39.7822 69.3923 38.4658 70.8143 38.4658C72.2363 38.4658 73.3839 39.7793 73.3839 41.4042Z" fill="#FFBFB8"/>
<path d="M70.0594 43.9607C70.0594 43.9607 70.1656 44.5513 69.8765 44.8862L70.1302 45.0067C70.6229 45.2653 71.2277 45.1742 71.7203 44.9156L71.9416 44.801C71.9416 44.801 71.6672 44.375 71.7174 43.896C71.7174 43.8931 70.853 44.3044 70.0594 43.9607Z" fill="#FFBFB8"/>
<path d="M71.9707 44.801C71.3187 45.1418 70.5428 45.1418 69.8908 44.801L69.8849 44.798C69.8436 44.7775 69.7935 44.7951 69.7758 44.8362C69.7551 44.8803 69.7315 44.9244 69.702 44.9685C69.6755 45.0067 69.6873 45.0625 69.7315 45.0831L69.8938 45.1683C70.5458 45.5091 71.3217 45.5091 71.9737 45.1683L72.136 45.0831C72.1773 45.0596 72.192 45.0067 72.1625 44.9655C72.1389 44.9332 72.1094 44.8862 72.0799 44.8333C72.0563 44.7951 72.0091 44.7804 71.9707 44.801Z" fill="#E0E8F9"/>
<path d="M69.2626 39.8058C69.2626 39.8058 70.8233 40.749 72.4961 40.7108C72.4961 40.7108 71.6582 42.7177 71.6228 44.6335C71.611 45.2594 72.1244 45.7736 72.7528 45.7736C73.7086 45.7736 74.4875 45.0125 74.5081 44.0635C74.5583 41.7186 74.1453 37.7783 70.8115 37.6725C67.5426 37.5668 67.1326 41.4336 67.1945 43.8636C67.2211 44.9273 67.8672 45.7765 69.1653 45.7765C69.3895 45.7765 69.7789 45.1066 69.953 44.7834C70.0356 44.6276 70.0887 44.4601 70.0975 44.2838C70.1005 44.1751 70.0887 44.0693 70.0592 43.9635C70.0592 43.9635 68.3717 42.9586 68.2418 41.4072C68.2418 41.4042 69.3069 40.5139 69.2626 39.8058Z" fill="#545ED6"/>
<path d="M70.0975 44.2221C70.0975 44.2221 70.9117 44.5629 71.6375 44.2574L71.667 43.9136C71.667 43.9136 71.2481 44.131 70.8085 44.0928C70.3689 44.0546 70.0562 43.9577 70.0562 43.9577L70.0975 44.2221Z" fill="#FF978C"/>
<path d="M92.0058 61.5085H64.1822C64.0996 61.5085 64.0347 61.4438 64.0347 61.3616V33.65C64.0347 33.5677 64.0996 33.5031 64.1822 33.5031H92.0058C92.0884 33.5031 92.1533 33.5677 92.1533 33.65V61.3616C92.1533 61.4438 92.0884 61.5085 92.0058 61.5085ZM64.3297 61.2147H91.8583V33.7969H64.3297V61.2147Z" fill="#C0D6FD"/>
<path d="M89.3063 39.5766H78.9304C78.6442 39.5766 78.4082 39.3445 78.4082 39.0565V38.9096C78.4082 38.6246 78.6413 38.3925 78.9304 38.3925H89.3063C89.5925 38.3925 89.8256 38.6246 89.8256 38.9096V39.0565C89.8285 39.3445 89.5955 39.5766 89.3063 39.5766Z" fill="#C0D6FD"/>
<path d="M86.0402 41.4718H78.7266C78.644 41.4718 78.5791 41.4072 78.5791 41.3249C78.5791 41.2426 78.644 41.178 78.7266 41.178H86.0402C86.1228 41.178 86.1878 41.2426 86.1878 41.3249C86.1878 41.4072 86.1199 41.4718 86.0402 41.4718Z" fill="#C0D6FD"/>
<path d="M84.1196 43.182H78.7266C78.644 43.182 78.5791 43.1174 78.5791 43.0351C78.5791 42.9528 78.644 42.8882 78.7266 42.8882H84.1196C84.2022 42.8882 84.2672 42.9528 84.2672 43.0351C84.2672 43.1174 84.1993 43.182 84.1196 43.182Z" fill="#C0D6FD"/>
<path d="M89.8284 53.1724H67.6249C67.5925 53.1724 67.5659 53.1459 67.5659 53.1136C67.5659 53.0813 67.5925 53.0548 67.6249 53.0548H89.8284C89.8608 53.0548 89.8874 53.0813 89.8874 53.1136C89.8874 53.1459 89.8608 53.1724 89.8284 53.1724Z" fill="#C0D6FD"/>
<path d="M68.7579 48.4711L69.0883 49.1351L69.8229 49.2409L69.2919 49.7581L69.4158 50.4897L68.7579 50.143L68.1 50.4897L68.2239 49.7581L67.6929 49.2409L68.4275 49.1351L68.7579 48.4711Z" fill="#FF7867"/>
<path d="M71.5343 48.4711L71.8618 49.1351L72.5993 49.2409L72.0653 49.7581L72.1922 50.4897L71.5343 50.143L70.8734 50.4897L71.0003 49.7581L70.4663 49.2409L71.2039 49.1351L71.5343 48.4711Z" fill="#FF7867"/>
<path d="M74.3072 48.4711L74.6376 49.1351L75.3722 49.2409L74.8412 49.7581L74.9651 50.4897L74.3072 50.143L73.6493 50.4897L73.7762 49.7581L73.2422 49.2409L73.9797 49.1351L74.3072 48.4711Z" fill="#FF7867"/>
<path d="M77.0836 48.4711L77.4111 49.1351L78.1486 49.2409L77.6146 49.7581L77.7415 50.4897L77.0836 50.143L76.4257 50.4897L76.5496 49.7581L76.0186 49.2409L76.7532 49.1351L77.0836 48.4711Z" fill="#FF7867"/>
<path d="M79.8565 48.4711L80.187 49.1351L80.9245 49.2409L80.3905 49.7581L80.5174 50.4897L79.8565 50.143L79.1986 50.4897L79.3255 49.7581L78.7915 49.2409L79.5291 49.1351L79.8565 48.4711Z" fill="#FF7867"/>
<path d="M89.8287 57.4976C89.7786 57.4976 89.7284 57.4712 89.7019 57.4242L88.9761 56.1871L86.5156 57.1891C86.492 57.1979 86.4655 57.2038 86.4389 57.1979L82.403 56.6396L80.4116 57.4859C80.3644 57.5064 80.3083 57.5006 80.2641 57.4682L76.774 54.8384L73.1157 57.4712C73.0626 57.5094 72.9859 57.5094 72.9357 57.4653L71.316 56.1107L69.9265 57.4565C69.8999 57.4829 69.8616 57.4976 69.8232 57.4976H67.941C67.8584 57.4976 67.7935 57.433 67.7935 57.3507C67.7935 57.2684 67.8584 57.2038 67.941 57.2038H69.7642L71.2069 55.8051C71.26 55.7522 71.3455 55.7493 71.4045 55.7993L73.039 57.1656L76.6914 54.5358C76.7445 54.4976 76.8153 54.5005 76.8654 54.5387L80.3762 57.1832L82.3263 56.3546C82.3499 56.3429 82.3794 56.3399 82.4059 56.3429L86.4448 56.9011L88.985 55.8668C89.0528 55.8404 89.1325 55.8668 89.1679 55.9285L89.9556 57.2772C89.9969 57.3478 89.9733 57.4359 89.9025 57.4771C89.8789 57.4917 89.8523 57.4976 89.8287 57.4976Z" fill="#C0D6FD"/>
<path d="M137.915 37.984C137.829 37.9164 137.744 37.8518 137.652 37.7901C137.301 37.5521 136.917 37.3552 136.507 37.2142C136.009 37.0408 135.472 36.9468 134.914 36.9468C134.183 36.9468 133.483 37.1113 132.858 37.4022C132.578 37.5315 132.312 37.6843 132.064 37.8635C130.849 38.7421 130.055 40.1672 130.055 41.7774C130.055 43.5316 130.996 45.0713 132.404 45.9176C132.451 45.947 132.498 45.9734 132.548 45.9999C133.25 46.3907 134.053 46.614 134.908 46.614C135.752 46.614 136.549 46.3965 137.242 46.0175C137.325 45.9734 137.407 45.9264 137.484 45.8764C137.631 45.7854 137.773 45.6825 137.909 45.5738V37.984H137.915Z" fill="#C0D6FD"/>
<path d="M137.248 46.0204C136.558 46.3994 135.758 46.6169 134.914 46.6169C134.059 46.6169 133.253 46.3935 132.554 46.0027L132.793 44.6599L137.092 44.7892L137.248 46.0204Z" fill="#545ED6"/>
<path d="M137.443 41.4043C137.443 42.1977 136.826 42.9881 136.198 43.5875C135.454 44.2957 134.286 44.2957 133.545 43.5875C132.917 42.9881 132.3 42.1977 132.3 41.4043C132.3 39.7823 133.451 38.4659 134.873 38.4659C136.292 38.463 137.443 39.7794 137.443 41.4043Z" fill="#FFBFB8"/>
<path d="M134.12 43.9607C134.12 43.9607 134.227 44.5513 133.938 44.8862L134.191 45.0067C134.684 45.2653 135.289 45.1742 135.781 44.9156L136.003 44.801C136.003 44.801 135.728 44.375 135.778 43.896C135.776 43.8931 134.911 44.3044 134.12 43.9607Z" fill="#FFBFB8"/>
<path d="M136.032 44.801C135.38 45.1418 134.604 45.1418 133.952 44.801L133.946 44.798C133.905 44.7775 133.855 44.7951 133.837 44.8362C133.817 44.8803 133.793 44.9244 133.764 44.9685C133.737 45.0067 133.749 45.0625 133.793 45.0831L133.955 45.1683C134.607 45.5091 135.383 45.5091 136.035 45.1683L136.197 45.0831C136.239 45.0596 136.254 45.0067 136.224 44.9655C136.2 44.9332 136.171 44.8862 136.141 44.8333C136.118 44.7951 136.071 44.7804 136.032 44.801Z" fill="#E0E8F9"/>
<path d="M137.915 39.8499C137.387 38.6451 136.463 37.7225 134.873 37.6725C131.604 37.5668 131.194 41.4336 131.256 43.8636C131.283 44.9273 131.929 45.7765 133.227 45.7765C133.451 45.7765 133.84 45.1066 134.014 44.7834C134.097 44.6276 134.15 44.4601 134.159 44.2838C134.162 44.1751 134.15 44.0693 134.121 43.9635C134.121 43.9635 132.433 42.9586 132.303 41.4072C132.303 41.4072 134.888 40.7519 136.558 40.7167C136.558 40.7167 137.145 43.1849 135.779 43.896C135.221 44.1869 136.186 45.465 136.817 45.465C137.236 45.465 137.617 45.3123 137.918 45.0684V39.8499H137.915Z" fill="#D86B4B"/>
<path d="M134.159 44.2221C134.159 44.2221 134.891 44.5629 135.613 44.2573L135.628 43.9606C135.628 43.9606 135.31 44.131 134.873 44.0957C134.433 44.0575 134.121 43.9606 134.121 43.9606L134.159 44.2221Z" fill="#FF978C"/>
<path d="M137.758 61.5085H128.244C128.161 61.5085 128.096 61.4438 128.096 61.3616V33.65C128.096 33.5677 128.161 33.5031 128.244 33.5031H137.758C137.841 33.5031 137.906 33.5677 137.906 33.65C137.906 33.7322 137.841 33.7969 137.758 33.7969H128.391V61.2147H137.758C137.841 61.2147 137.906 61.2793 137.906 61.3616C137.906 61.4438 137.841 61.5085 137.758 61.5085Z" fill="#C0D6FD"/>
<path d="M133.829 53.1724H131.687C131.654 53.1724 131.628 53.1459 131.628 53.1136C131.628 53.0813 131.654 53.0548 131.687 53.0548H133.829C133.861 53.0548 133.888 53.0813 133.888 53.1136C133.888 53.1459 133.861 53.1724 133.829 53.1724Z" fill="#C0D6FD"/>
<path d="M132.819 48.4711L133.147 49.1351L133.884 49.2409L133.35 49.7581L133.477 50.4897L132.819 50.143L132.159 50.4897L132.285 49.7581L131.751 49.2409L132.489 49.1351L132.819 48.4711Z" fill="#FF7867"/>
<path d="M135.593 48.4711L135.923 49.1351L136.658 49.2409L136.127 49.7581L136.251 50.4897L135.593 50.143L134.935 50.4897L135.062 49.7581L134.528 49.2409L135.265 49.1351L135.593 48.4711Z" fill="#FF7867"/>
<path d="M137.914 50.3809V49.1527L137.304 49.2409L137.835 49.758L137.711 50.4897L137.914 50.3809Z" fill="#FF7867"/>
<path d="M133.852 57.4977H132.002C131.92 57.4977 131.855 57.4331 131.855 57.3508C131.855 57.2685 131.92 57.2039 132.002 57.2039H133.852C133.935 57.2039 134 57.2685 134 57.3508C134 57.4331 133.935 57.4977 133.852 57.4977Z" fill="#C0D6FD"/>
<path d="M60.0285 36.0712H34.9014C33.1578 36.0712 31.7446 34.6638 31.7446 32.9272V15.6438C31.7446 13.9072 33.1578 12.4998 34.9014 12.4998H60.0285C61.7721 12.4998 63.1852 13.9072 63.1852 15.6438V32.9272C63.1852 34.6638 61.7721 36.0712 60.0285 36.0712Z" fill="#C1DDFE"/>
<path d="M55.5057 21.2325H45.5722C45.1858 21.2325 44.876 21.544 44.876 21.926V29.2778C44.876 29.6627 45.1887 29.9712 45.5722 29.9712H53.6293L55.6089 31.9428C55.8272 32.1603 56.2049 32.0075 56.2049 31.696V29.2748V28.6254V21.9289C56.2049 21.544 55.8921 21.2325 55.5057 21.2325Z" fill="white"/>
<path d="M38.1616 17.3127H48.095C48.4815 17.3127 48.7913 17.6242 48.7913 18.0062V25.358C48.7913 25.7429 48.4786 26.0514 48.095 26.0514H40.038L38.0583 28.026C37.84 28.2434 37.4624 28.0906 37.4624 27.7792V25.358V24.7115V18.0091C37.4624 17.6242 37.7751 17.3127 38.1616 17.3127Z" fill="white"/>
<path d="M48.0947 26.2042H44.8731C44.7905 26.2042 44.7256 26.1395 44.7256 26.0573C44.7256 25.975 44.7905 25.9103 44.8731 25.9103H48.0947C48.3986 25.9103 48.6435 25.6635 48.6435 25.3638V21.2325C48.6435 21.1502 48.7084 21.0856 48.791 21.0856C48.8736 21.0856 48.9385 21.1502 48.9385 21.2325V25.3609C48.9385 25.8251 48.5609 26.2042 48.0947 26.2042Z" fill="#C0D6FD"/>
<path d="M43.4896 19.1493H42.6045V23.9241H43.4896V19.1493Z" fill="#545ED6"/>
<path d="M45.4426 21.0974H40.6484V21.9789H45.4426V21.0974Z" fill="#545ED6"/>
<path d="M50.3047 23.1249L50.4109 25.2229L50.4345 25.6812L50.4729 26.4305H51.3078L51.3579 25.4344L51.3786 24.9702L51.4701 23.1249H50.3047ZM50.8918 26.7949C50.5024 26.7949 50.231 27.0711 50.231 27.4589C50.231 27.838 50.4965 28.123 50.8918 28.123C51.2871 28.123 51.5438 27.838 51.5438 27.4589C51.535 27.0711 51.2783 26.7949 50.8918 26.7949Z" fill="#545ED6"/>
<path d="M114.743 26.1396H89.6162C87.8726 26.1396 86.4595 24.7321 86.4595 22.9956V5.71215C86.4595 3.97559 87.8726 2.56812 89.6162 2.56812H114.743C116.487 2.56812 117.9 3.97559 117.9 5.71215V22.9956C117.9 24.7321 116.487 26.1396 114.743 26.1396Z" fill="#FFD3D1"/>
<path d="M111.274 10.0992C111.218 9.95223 111.15 9.80532 111.076 9.66427C110.636 8.80628 109.993 8.05993 109.161 7.51928C108.323 6.97274 107.406 6.70535 106.494 6.68478C104.898 6.65246 103.323 7.39293 102.252 8.76808C101.24 7.34885 99.697 6.54668 98.0979 6.51436C97.1863 6.49673 96.2599 6.72886 95.4014 7.23719C93.1828 8.55945 92.1591 11.3156 92.7875 13.8397C92.8937 14.2834 93.053 14.7182 93.2684 15.1384C94.065 16.7016 96.6641 19.0817 98.8119 20.8829C98.9387 20.9916 99.0627 21.0945 99.1836 21.1944C99.6911 21.6146 100.163 21.9965 100.57 22.3168C100.845 22.5372 101.089 22.7282 101.293 22.8869C101.488 23.0397 101.721 23.119 101.957 23.1249C102.193 23.1307 102.429 23.0602 102.632 22.9163C102.863 22.7517 103.146 22.549 103.464 22.3168C104.677 21.4265 106.426 20.0984 107.958 18.7585C107.961 18.7526 107.966 18.7497 107.969 18.7467C109.244 17.6302 110.365 16.5018 110.902 15.6086C110.926 15.5704 110.946 15.5351 110.967 15.4998C111.265 14.9709 111.474 14.4097 111.604 13.8397C111.884 12.5762 111.76 11.2569 111.274 10.0992Z" fill="white"/>
<path d="M102.68 17.2482C102.677 17.2482 102.671 17.2482 102.665 17.2482C102.6 17.2423 102.547 17.1953 102.535 17.1336L101.146 10.9014L99.4787 15.4558C99.4581 15.5117 99.405 15.5528 99.343 15.5528C99.2811 15.544 99.225 15.5175 99.2044 15.4617L98.1157 12.7584L97.3841 13.302C97.3516 13.3255 97.3103 13.3343 97.272 13.3285C97.2336 13.3226 97.1982 13.302 97.1746 13.2697L96.8265 12.7878L96.1243 13.9191C96.0978 13.9631 96.0506 13.9896 95.9975 13.9896H92.7227C92.6401 13.9896 92.5752 13.9249 92.5752 13.8427C92.5752 13.7604 92.6401 13.6957 92.7227 13.6957H95.9148L96.6908 12.4469C96.7173 12.4058 96.7616 12.3794 96.8117 12.3764C96.8589 12.3706 96.9091 12.397 96.9356 12.4381L97.3251 12.9759L98.0921 12.4058C98.1275 12.3794 98.1777 12.3706 98.219 12.3823C98.2632 12.3941 98.2986 12.4264 98.3163 12.4705L99.3312 14.9945L101.039 10.3284C101.063 10.2667 101.119 10.2285 101.187 10.2314C101.252 10.2344 101.308 10.2814 101.323 10.346L102.724 16.6224L103.978 13.6811C103.996 13.6399 104.034 13.6076 104.078 13.5958C104.122 13.5841 104.17 13.5958 104.205 13.6223L104.857 14.1365L106.359 9.64964C106.379 9.59087 106.429 9.55267 106.491 9.54973C106.55 9.54679 106.609 9.58205 106.633 9.63494L108.444 13.6311L109.453 12.4264C109.483 12.3882 109.53 12.3706 109.58 12.3735C109.628 12.3764 109.672 12.4058 109.695 12.4469L110.403 13.6899H111.752C111.834 13.6899 111.899 13.7545 111.899 13.8368C111.899 13.9191 111.834 13.9837 111.752 13.9837H110.318C110.265 13.9837 110.215 13.9543 110.191 13.9102L109.545 12.776L108.521 13.9984C108.489 14.0366 108.439 14.0572 108.388 14.0513C108.338 14.0454 108.294 14.0131 108.273 13.9661L106.518 10.0963L105.069 14.4274C105.055 14.4715 105.016 14.5067 104.972 14.5214C104.928 14.5361 104.878 14.5244 104.839 14.495L104.173 13.969L102.815 17.1542C102.792 17.213 102.739 17.2482 102.68 17.2482Z" fill="#FF7867"/>
<path d="M36.5916 145.866C36.7686 143.451 36.9486 139.504 36.4176 137.821C35.7567 135.726 36.512 133.313 36.7804 132.573C36.8365 132.423 36.8689 132.341 36.8689 132.341L37.0017 129.57L38.2231 104.174C38.2231 104.174 38.0343 104.162 37.7186 104.127C36.568 104.009 33.7299 103.648 32.1574 102.801V103.98V138.047C32.1574 138.047 30.7384 140.545 30.759 142.763C32.2046 143.659 33.6915 144.479 35.2227 145.225L36.5916 145.866Z" fill="#FFC4BD"/>
<path d="M36.5921 145.866C40.3241 147.553 44.2951 148.781 48.4992 149.468C49.3931 149.615 50.3136 149.692 51.2547 149.706C56.8188 149.792 63.153 147.661 69.4075 144.288C69.4576 140.116 69.4311 136.24 69.319 132.705C69.2658 131.03 69.195 129.441 69.1036 127.924C69.1036 127.924 58.0992 131.292 37.0021 129.57C36.5271 129.535 36.0463 129.49 35.5595 129.449C35.5388 129.446 35.5241 129.446 35.5034 129.443L35.4916 130.225V130.246L35.4533 132.317L35.2231 145.228L36.5921 145.866Z" fill="#545ED6"/>
<path d="M47.9471 61.1766C47.8881 65.0112 49.1419 68.8663 44.8848 73.1181C44.8848 73.1181 52.8002 74.8135 58.146 73.1181C57.0368 68.8457 56.5293 65.687 57.2993 61.9906L47.9471 61.1766Z" fill="#FFC4BD"/>
<path d="M57.0015 67.1092C57.0015 67.1092 55.8834 67.3472 54.0955 66.7654C54.0955 66.7654 53.9893 69.404 57.6742 71.1817L57.0015 67.1092Z" fill="#FFA69C"/>
<path d="M78.4614 70.5088L83.524 48.953L87.672 48.7855L87.7458 74.3933C87.3505 76.1592 86.1969 78.2161 84.6244 79.1211L83.9075 79.315C83.9075 79.3121 84.3855 77.2787 78.4614 70.5088Z" fill="#FFC4BD"/>
<path d="M70.6315 87.0018L71.7674 132.285C71.7674 132.285 53.2429 136.031 35.3114 132.285L37.6922 105.061C37.6922 105.061 34.4086 105.502 28.5259 102.305L29.9774 85.1594C30.5232 81.9743 32.1458 78.4042 35.0842 76.6793L45.0088 71.8281C45.0088 71.8281 51.6468 73.312 58.1491 71.8281L70.6551 72.836L78.842 70.2561C78.842 70.2561 86.2029 71.74 86.8932 78.8243L70.6315 87.0018Z" fill="#FF7867"/>
<path d="M82.8512 47.4545L79.3995 41.6013C79.2402 41.331 79.3257 40.9843 79.5912 40.8197C79.8213 40.6757 80.1223 40.7081 80.314 40.902L82.7185 43.3056L84.7246 34.9871C84.8013 34.6727 85.1052 34.467 85.4268 34.514C85.7749 34.564 86.0109 34.8872 85.9578 35.231L85.0905 40.6199L85.2911 40.6493L85.7071 38.7012C85.8074 38.2251 86.2794 37.9196 86.7573 38.0224C87.2235 38.1223 87.5273 38.5689 87.4447 39.0361L87.3857 39.377L87.4093 39.28C87.5037 38.8775 87.905 38.6277 88.3091 38.7188C88.7074 38.8069 88.9641 39.1977 88.8844 39.5974L88.7104 40.47L88.8431 39.8971C88.8962 39.6738 89.1205 39.5327 89.3447 39.5797C89.5659 39.6297 89.8787 39.6973 89.8315 40.0851L89.1883 44.8834C89.1352 45.2889 87.6748 48.7826 87.6748 48.7826L83.4826 49.1294L82.8512 47.4545Z" fill="#FFC4BD"/>
<path d="M86.9904 41.3104C86.9786 41.3104 86.9698 41.3104 86.958 41.3075C86.8783 41.2899 86.8281 41.2105 86.8458 41.1312L87.2441 39.3094C87.2618 39.2301 87.3385 39.1801 87.4211 39.1978C87.5008 39.2154 87.551 39.2947 87.5333 39.3741L87.135 41.1958C87.1202 41.2634 87.0583 41.3104 86.9904 41.3104Z" fill="#FFA69C"/>
<path d="M88.3771 42.8678C88.3712 42.8678 88.3623 42.8678 88.3564 42.8649C88.2768 42.8531 88.2207 42.7796 88.2325 42.6974L88.5629 40.4466C88.5747 40.3673 88.6485 40.3085 88.7311 40.3232C88.8108 40.3349 88.8668 40.4084 88.855 40.4907L88.5246 42.7415C88.5128 42.8149 88.4508 42.8678 88.3771 42.8678Z" fill="#FFA69C"/>
<path d="M51.402 149.712L51.1069 149.695L51.3961 145.493L47.248 139.751L47.487 139.578L51.697 145.407L51.402 149.712Z" fill="white"/>
<path d="M84.952 79.8028L84.657 79.7822C85.0169 74.4433 76.9923 71.0142 76.9097 70.9789L77.0247 70.7086C77.364 70.8526 85.3267 74.2552 84.952 79.8028Z" fill="#FFA69C"/>
<path d="M37.07 103.421C31.8068 103.421 28.5999 100.442 28.5645 100.412L28.768 100.201C28.8034 100.233 32.2876 103.463 37.9491 103.101L37.9668 103.395C37.6659 103.413 37.365 103.421 37.07 103.421Z" fill="#FFA69C"/>
<path d="M38.0811 88.7875L37.5386 105.053L37.8334 105.063L38.376 88.7972L38.0811 88.7875Z" fill="white"/>
<path d="M45.0088 71.8282L46.3393 69.1602C46.3393 69.1602 55.0868 70.7498 59.1197 70.2562V71.9075C59.1197 71.9075 52.3549 73.9849 45.0088 71.8282Z" fill="#FF5E4A"/>
<path d="M63.784 57.3509C63.0081 55.917 61.8605 53.9454 61.8605 53.9454C61.8605 53.9454 61.595 51.5036 61.6363 51.0041C61.7041 50.1902 60.5742 45.3213 58.217 43.8228C58.217 43.8228 59.282 45.4124 59.6832 48.815C58.4707 46.1235 56.435 44.3546 54.125 44.3546C50.4077 44.3546 47.3926 48.9325 47.3926 54.583C47.3926 60.2335 50.4048 64.8114 54.125 64.8114C55.0396 64.8114 55.9099 64.5323 56.7035 64.0327C56.6858 64.3853 56.6799 64.7056 56.6976 64.9642L54.5144 66.4833L57.0044 67.1151C57.0044 67.1151 63.3415 67.2855 62.9226 61.1825C62.9816 60.5714 62.9845 59.9044 62.9609 59.2403L63.0376 59.2168C63.8194 58.967 64.1764 58.0738 63.784 57.3509Z" fill="#FFC4BD"/>
<path d="M61.1052 55.9964C61.3154 55.9964 61.4858 55.7069 61.4858 55.3499C61.4858 54.9929 61.3154 54.7035 61.1052 54.7035C60.895 54.7035 60.7246 54.9929 60.7246 55.3499C60.7246 55.7069 60.895 55.9964 61.1052 55.9964Z" fill="#493F93"/>
<path d="M59.5537 53.9747C59.5537 53.9747 60.6423 52.7406 61.256 52.7553V53.3664L59.5537 54.4007V53.9747Z" fill="#493F93"/>
<path d="M62.5952 61.5351C61.657 61.5351 61.0581 60.9768 61.0286 60.9504C60.9696 60.8946 60.9666 60.8005 61.0227 60.7418C61.0787 60.683 61.1731 60.6801 61.2322 60.7359C61.2381 60.7418 61.9166 61.3677 62.9138 61.2149C62.9934 61.2031 63.0701 61.2589 63.0819 61.3383C63.0937 61.4176 63.0377 61.494 62.958 61.5058C62.8341 61.5263 62.7132 61.5351 62.5952 61.5351Z" fill="#FF7E70"/>
<path d="M48.1536 64.638C48.1536 64.638 40.0493 57.6036 39.3796 52.9727C38.7128 48.3419 42.0496 46.9726 42.0496 46.9726C42.0496 46.9726 43.2739 41.2781 48.9472 41.5983C54.6205 41.9157 56.9571 42.28 59.9073 41.8217C62.8546 41.3633 62.1996 47.287 61.1316 48.5299C61.1316 48.5299 56.8273 50.719 57.671 54.0746L58.6269 56.5222L56.9571 57.0982C56.9571 57.0982 55.9569 54.057 54.5084 55.4674C53.0628 56.8778 54.2606 59.2784 56.8332 58.9082C56.8361 58.9053 56.9276 65.9749 48.1536 64.638Z" fill="#545ED6"/>
<path d="M133.214 69.1042L132.193 67.3618L135.669 65.1345L136.861 67.2061L133.214 69.1042Z" fill="#FFB6AD"/>
<path d="M176.07 37.9547C176.07 37.9547 173.724 47.3192 175.896 50.716C175.896 50.716 177.362 53.2959 180.014 54.1098C180.014 54.1098 174.058 57.7886 169.727 58.0677C165.658 58.3293 161.074 53.4663 160.802 52.7581C160.802 52.7581 164.794 50.86 165.529 48.7561C166.26 46.6522 166.183 43.7403 166.183 43.7403L176.07 37.9547Z" fill="#FFBFB8"/>
<path d="M185.849 92.0881L182.805 92.9608C182.805 92.9608 184.421 97.5005 186.487 103.877C186.065 104.432 185.64 104.982 185.209 105.531C180.518 111.525 174.786 117.044 167.104 121.974C162.115 125.18 155.863 127.701 149.246 129.981C149.612 120.132 150.992 105.513 155.645 93.8481C155.645 93.8452 155.645 93.8423 155.648 93.8393C156.22 92.4054 156.84 91.0185 157.515 89.6874C157.515 89.6874 156.946 86.8431 156.214 83.6638C156.176 83.5051 156.141 83.3494 156.102 83.1907C155.816 81.9596 155.506 80.6961 155.199 79.5442C155.158 79.3885 155.117 79.2357 155.075 79.0829C154.721 77.793 154.376 76.6764 154.075 75.9477C154.075 75.9477 152.792 78.8596 151.163 82.0154C150.981 82.3739 150.792 82.7353 150.6 83.0967C149.196 85.7412 147.629 88.3417 146.446 89.3613C146.287 89.5023 146.136 89.611 145.995 89.6874C145.995 89.6874 145.953 89.6845 145.874 89.661C145.54 89.5728 144.525 89.1879 142.906 87.563C142.791 87.4484 142.673 87.325 142.555 87.1987C141.832 86.4347 141.003 85.4356 140.071 84.1281C139.97 83.987 139.87 83.8431 139.77 83.6961C139.189 82.8616 138.569 81.9096 137.917 80.8254L133.639 72.9682L131.96 69.8829L133.194 69.072L136.637 66.8153L137.389 66.3217L137.858 67.1091L144.012 77.3992C144.012 77.3992 147.222 64.0914 151.075 58.0443C151.795 56.9189 152.535 56.0462 153.279 55.5555C153.5 55.4086 153.721 55.2676 153.94 55.1324C156.141 53.7514 158.212 52.7993 159.87 52.1617C162.076 51.3096 163.557 51.007 163.655 50.9893C163.658 50.9893 163.658 50.9893 163.658 50.9893L164.906 56.5164L164.912 56.5751C164.932 56.7279 165.021 57.1804 165.328 57.6359C165.413 57.7622 165.513 57.8886 165.634 58.012C166.23 58.6026 167.304 59.058 169.24 58.6496C169.42 58.6114 169.605 58.5673 169.8 58.5144C170.479 58.3293 171.252 58.0443 172.131 57.6418V57.6388L175.288 51.8297L175.827 50.8395L175.892 50.719H175.895L175.907 50.7219C175.913 50.7219 175.919 50.7249 175.925 50.7249L175.984 50.7396C176.323 50.8218 177.609 51.1362 179.279 51.6475C179.338 51.6651 179.397 51.6828 179.456 51.7004C179.483 51.7092 179.512 51.718 179.539 51.7268C179.542 51.7268 179.542 51.7268 179.545 51.7268C179.601 51.7445 179.657 51.7621 179.716 51.7797C181.167 52.2352 182.846 52.8199 184.436 53.5134L184.563 53.5721C184.604 53.5898 184.646 53.6074 184.687 53.628C184.687 53.628 184.687 53.628 184.69 53.628C185.23 53.8689 185.758 54.1187 186.256 54.389C186.315 54.4184 186.36 54.4419 186.386 54.4566C186.392 54.4595 186.401 54.4625 186.413 54.4683L186.416 54.4713C187.935 55.2881 189.192 56.2167 189.82 57.2216C192.204 61.0473 192.204 88.1801 192.204 88.1801C192.204 88.1801 191.939 90.948 185.849 92.0881Z" fill="white"/>
<path d="M168.505 97.4594C168.478 97.4594 168.449 97.4506 168.425 97.4359C168.39 97.4124 168.363 97.3742 168.358 97.333L167.298 90.2781C167.287 90.2075 167.328 90.1429 167.393 90.1194L185.15 83.6344C184.826 81.5923 183.253 63.1835 183.185 62.3784C183.18 62.2961 183.239 62.2256 183.321 62.2197C183.395 62.2109 183.475 62.2726 183.48 62.3549C183.498 62.5576 185.203 82.5355 185.463 83.6991C185.478 83.7696 185.439 83.8431 185.369 83.8695L167.608 90.3574L168.623 97.1244L182.758 92.8227C182.837 92.7992 182.917 92.8432 182.941 92.9196C182.964 92.996 182.92 93.0783 182.843 93.1018L168.543 97.4535C168.535 97.4565 168.52 97.4594 168.505 97.4594Z" fill="#C0D6FD"/>
<path d="M175.456 41.0048C175.456 41.0048 172.438 45.5827 168.756 45.759C168.756 45.759 166.865 45.8325 166.118 45.4975C166.118 45.4975 166.03 46.902 165.814 47.7248C165.817 47.7218 173.562 50.8806 175.456 41.0048Z" fill="#FFA69C"/>
<path d="M162.699 24.2797C161.091 24.6235 159.699 26.4012 159.197 27.8733C158.321 30.4502 158.855 33.4973 160.926 35.3573C161.419 35.8009 161.958 36.2623 162.484 36.6531C162.788 35.1574 162.611 33.415 162.746 31.8753C162.891 30.2386 162.92 27.979 163.894 26.5686C163.295 25.8987 163.059 25.076 162.699 24.2797Z" fill="#D86B4B"/>
<path d="M176.765 37.8519C176.423 39.8793 175.497 41.7863 173.995 43.2937C172.314 44.9833 169.334 47.3868 166.118 45.4975C161.693 42.897 161.554 32.0486 162.466 28.3874C162.699 27.453 163.177 26.595 163.87 25.8957C165.085 24.6704 167.298 23.2218 170.529 24.071C175.748 25.4461 177.394 27.9144 177.358 34.3258L176.765 37.8519Z" fill="#FFBFB8"/>
<path d="M176.922 34.8724C176.922 34.8724 177.916 33.5913 179.114 34.8254C180.312 36.0595 178.837 39.2065 176.385 38.466L176.922 34.8724Z" fill="#FFBFB8"/>
<path d="M170.255 36.8881C170.249 37.2202 170.423 37.4905 170.644 37.4934C170.865 37.4964 171.051 37.2319 171.054 36.8999C171.06 36.5678 170.886 36.2975 170.665 36.2946C170.443 36.2916 170.257 36.5561 170.255 36.8881Z" fill="#7E5251"/>
<path d="M165.313 36.8587C165.307 37.1907 165.481 37.4611 165.703 37.464C165.924 37.4669 166.11 37.2025 166.113 36.8705C166.119 36.5384 165.944 36.2681 165.723 36.2652C165.505 36.2622 165.319 36.5296 165.313 36.8587Z" fill="#7E5251"/>
<path d="M166.667 34.3318C166.528 34.1261 166.295 33.985 166.044 33.9175C165.791 33.8528 165.513 33.8646 165.26 33.9615C165.009 34.0585 164.799 34.2201 164.637 34.4082C164.475 34.5992 164.348 34.8166 164.289 35.0575C164.484 34.9047 164.661 34.7578 164.844 34.6315C165.024 34.5051 165.21 34.3935 165.398 34.3229C165.584 34.2524 165.791 34.2172 166.003 34.2201C166.213 34.2172 166.431 34.2554 166.667 34.3318Z" fill="#D86B4B"/>
<path d="M170.075 34.5256C170.317 34.4757 170.538 34.4581 170.75 34.4816C170.963 34.5021 171.16 34.558 171.34 34.6491C171.52 34.7401 171.691 34.8694 171.86 35.0163C172.028 35.1633 172.187 35.3278 172.364 35.4982C172.332 35.2514 172.228 35.0222 172.087 34.8165C171.942 34.6109 171.756 34.4287 171.514 34.3053C171.273 34.1819 170.998 34.1407 170.739 34.1789C170.482 34.2201 170.237 34.3346 170.075 34.5256Z" fill="#D86B4B"/>
<path d="M167.576 41.2721C167.617 41.2721 167.658 41.2545 167.685 41.2163C167.729 41.1575 167.717 41.0723 167.655 41.0282C167.493 40.9078 167.077 40.5316 167.095 40.2231C167.104 40.0909 167.192 39.9792 167.369 39.8823C168.322 39.3504 168.296 36.656 168.29 36.3504C168.287 36.2769 168.228 36.2211 168.151 36.2181C168.077 36.2211 168.018 36.2798 168.018 36.3562C168.033 37.1408 167.924 39.2623 167.237 39.6472C166.977 39.7912 166.838 39.9792 166.823 40.2084C166.791 40.7168 167.422 41.1928 167.493 41.2457C167.52 41.2633 167.546 41.2721 167.576 41.2721Z" fill="#FF7E70"/>
<path d="M168.396 43.3995C169.538 43.3995 170.193 42.1654 170.202 42.1507C170.237 42.086 170.211 42.0038 170.143 41.9685C170.078 41.9333 169.995 41.9597 169.96 42.0273C169.927 42.089 169.154 43.5376 167.839 43.0175C167.771 42.9911 167.691 43.0234 167.662 43.0939C167.635 43.1615 167.667 43.2408 167.738 43.2702C167.974 43.3613 168.193 43.3995 168.396 43.3995Z" fill="#FF7E70"/>
<path d="M166.304 28.0202C166.304 28.0202 163.593 35.1428 161.018 34.3964C161.018 34.3964 160.979 26.8096 163.26 25.884L166.304 28.0202Z" fill="#D86B4B"/>
<path d="M182.356 50.5515C179.598 48.1978 181.371 44.0753 181.371 44.0753C182.356 40.5317 185.734 31.8106 180.678 26.2748C179.728 24.453 178.164 22.8722 175.925 21.7468C168.897 18.2149 162.699 24.2796 162.699 24.2796C162.289 29.0721 177.53 34.7637 177.53 34.7637C177.854 34.6726 178.126 34.6285 178.359 34.6197C179.164 34.6403 179.689 35.2309 179.474 36.5355C178.562 38.7099 176.388 38.466 176.388 38.466L175.249 41.9538C174.116 48.9765 175.898 50.716 175.898 50.716L179.542 51.7239C181.687 52.0324 186.422 54.4712 186.422 54.4712C185.758 52.8493 185.115 52.9051 182.356 50.5515Z" fill="#D86B4B"/>
<path d="M164.906 56.5164L165.941 68.8369L172.134 57.6417C172.131 57.6417 167.139 58.106 164.906 56.5164Z" fill="#545ED6"/>
<path d="M165.941 68.9837C165.933 68.9837 165.924 68.9837 165.915 68.9808C165.865 68.972 165.826 68.9397 165.806 68.8926L161.885 59.534C161.87 59.4987 161.87 59.4605 161.882 59.4253L162.959 56.5986L160.749 55.6906C160.708 55.673 160.675 55.6377 160.663 55.5937L159.731 52.1969C159.71 52.1176 159.755 52.0382 159.834 52.0177C159.914 51.9971 159.994 52.0412 160.014 52.1205L160.926 55.4467L163.201 56.3811C163.274 56.4105 163.31 56.4957 163.283 56.5692L162.177 59.4752L165.989 68.5724L174.406 59.8572V56.5163C174.406 56.434 174.47 56.3694 174.553 56.3694H177.828L178.347 51.4212C178.356 51.3389 178.427 51.2801 178.509 51.2919C178.592 51.3007 178.648 51.3712 178.642 51.4535L178.108 56.5339C178.099 56.6074 178.037 56.6662 177.961 56.6662H174.701V59.9189C174.701 59.9571 174.686 59.9924 174.659 60.0218L166.045 68.9397C166.018 68.969 165.98 68.9837 165.941 68.9837Z" fill="#C0D6FD"/>
<path d="M164.738 123.537C164.664 123.537 164.599 123.481 164.59 123.405C163.505 113.306 165.77 69.2718 165.791 68.8281C165.794 68.7488 165.856 68.6812 165.944 68.69C166.027 68.6929 166.089 68.7634 166.083 68.8457C166.059 69.2894 163.797 113.3 164.879 123.376C164.888 123.458 164.829 123.528 164.75 123.537C164.75 123.537 164.744 123.537 164.738 123.537Z" fill="#C0D6FD"/>
<path d="M145.906 80.4081C145.859 80.4081 145.812 80.3846 145.783 80.3435L143.889 77.4815C143.844 77.4139 143.862 77.3228 143.93 77.2788C143.998 77.2318 144.089 77.2523 144.133 77.3199L146.027 80.1819C146.072 80.2495 146.054 80.3405 145.986 80.3846C145.963 80.3993 145.936 80.4081 145.906 80.4081Z" fill="#C0D6FD"/>
<path d="M185.321 83.8753C185.259 83.8753 185.203 83.8371 185.183 83.7783C185.156 83.7019 185.195 83.6167 185.271 83.5903L187.23 82.888C187.307 82.8615 187.392 82.8998 187.419 82.9762C187.446 83.0526 187.407 83.1378 187.33 83.1642L185.372 83.8665C185.354 83.8724 185.339 83.8753 185.321 83.8753Z" fill="#C0D6FD"/>
<path d="M154.075 76.0975C154.058 76.0975 154.04 76.0946 154.022 76.0887C153.946 76.0593 153.907 75.9741 153.937 75.8977L155.229 72.5656C155.258 72.4892 155.344 72.451 155.421 72.4804C155.497 72.5097 155.536 72.595 155.506 72.6714L154.214 76.0035C154.19 76.0593 154.134 76.0975 154.075 76.0975Z" fill="#C0D6FD"/>
<path d="M167.357 71.2522C166.983 71.2522 166.679 70.9495 166.679 70.5763C166.679 70.2032 166.983 69.9005 167.357 69.9005C167.732 69.9005 168.036 70.2032 168.036 70.5763C168.039 70.9466 167.732 71.2522 167.357 71.2522ZM167.357 70.1914C167.145 70.1914 166.974 70.3618 166.974 70.5734C166.974 70.785 167.145 70.9554 167.357 70.9554C167.57 70.9554 167.741 70.785 167.741 70.5734C167.744 70.3648 167.57 70.1914 167.357 70.1914Z" fill="#C0D6FD"/>
<path d="M166.827 82.9028C166.452 82.9028 166.148 82.6001 166.148 82.227C166.148 81.8538 166.452 81.5511 166.827 81.5511C167.201 81.5511 167.505 81.8538 167.505 82.227C167.505 82.6001 167.201 82.9028 166.827 82.9028ZM166.827 81.842C166.614 81.842 166.443 82.0125 166.443 82.224C166.443 82.4356 166.614 82.606 166.827 82.606C167.039 82.606 167.21 82.4356 167.21 82.224C167.21 82.0154 167.039 81.842 166.827 81.842Z" fill="#C0D6FD"/>
<path d="M165.817 107.059C165.443 107.059 165.139 106.756 165.139 106.383C165.139 106.01 165.443 105.707 165.817 105.707C166.192 105.707 166.496 106.01 166.496 106.383C166.496 106.756 166.189 107.059 165.817 107.059ZM165.817 106.001C165.605 106.001 165.434 106.172 165.434 106.383C165.434 106.595 165.605 106.765 165.817 106.765C166.03 106.765 166.201 106.595 166.201 106.383C166.201 106.172 166.027 106.001 165.817 106.001Z" fill="#C0D6FD"/>
<path d="M179.309 72.7066C179.306 72.7066 179.303 72.7066 179.297 72.7066L171.515 72.1542C171.432 72.1483 171.373 72.0778 171.379 71.9985L171.456 70.9348C171.458 70.8966 171.476 70.8584 171.506 70.8349C171.535 70.8085 171.574 70.7967 171.612 70.7996L179.395 71.352C179.433 71.355 179.471 71.3726 179.495 71.402C179.521 71.4314 179.533 71.4696 179.53 71.5078L179.454 72.5715C179.451 72.6479 179.386 72.7066 179.309 72.7066ZM171.686 71.8751L179.173 72.404L179.229 71.6341L171.742 71.1052L171.686 71.8751Z" fill="#C0D6FD"/>
<path d="M167.8 91.3358L166.336 91.4974L166.732 95.1821L168.307 94.7237L167.8 91.3358Z" fill="#FFBFB8"/>
<path d="M166.336 91.4974L162.174 90.8716C162.174 90.8716 160.224 90.3779 158.571 92.088L158.176 92.9431C158.176 92.9431 157.793 93.0166 157.598 93.3692C157.406 93.7188 157.583 94.1596 157.946 94.3241C157.946 94.3241 157.781 95.091 158.309 95.5964C158.309 95.5964 158.144 96.2987 159.103 96.4632L160.769 96.9863C161.92 97.3448 163.168 97.2125 164.215 96.616L166.738 95.1792L166.336 91.4974Z" fill="#FFBFB8"/>
<path d="M160.191 94.8707C160.182 94.8707 160.174 94.8707 160.165 94.8677L158.094 94.474C158.014 94.4593 157.961 94.3829 157.976 94.3036C157.99 94.2242 158.07 94.1714 158.147 94.186L160.218 94.5798C160.297 94.5945 160.351 94.6709 160.336 94.7502C160.321 94.8207 160.259 94.8707 160.191 94.8707Z" fill="#FFA69C"/>
<path d="M161.082 96.2517C161.073 96.2517 161.064 96.2517 161.055 96.2487L158.427 95.7698C158.347 95.7551 158.294 95.6787 158.309 95.5994C158.323 95.52 158.403 95.4671 158.48 95.4818L161.108 95.9608C161.188 95.9754 161.241 96.0518 161.226 96.1312C161.215 96.2017 161.153 96.2517 161.082 96.2517Z" fill="#FFA69C"/>
<path d="M159.696 93.3045C159.687 93.3045 159.678 93.3045 159.669 93.3015L158.498 93.09C158.418 93.0753 158.365 92.9989 158.38 92.9195C158.395 92.8402 158.471 92.7873 158.551 92.802L159.669 93.0048L162.035 91.6678C162.106 91.6267 162.195 91.6531 162.236 91.7236C162.277 91.7942 162.251 91.8853 162.18 91.9234L159.766 93.2868C159.746 93.2986 159.719 93.3045 159.696 93.3045Z" fill="#FFA69C"/>
<path d="M130.477 62.3518L137.932 60.3919C138.354 60.2803 138.56 59.8102 138.36 59.4252L132.102 47.4191C131.94 47.1077 131.565 46.9725 131.241 47.1047L123.001 50.4868C122.632 50.6366 122.473 51.0715 122.659 51.4241L128.45 62.5164C128.612 62.8278 128.99 62.963 129.314 62.8278L130.385 62.3783C130.415 62.3695 130.447 62.3606 130.477 62.3518Z" fill="#545ED6"/>
<path d="M132.25 67.3618L131.205 64.6761C131.205 64.6761 127.314 64.5116 126.506 61.9082C126.423 61.6437 126.411 61.3616 126.456 61.0884C126.568 60.3773 126.898 58.7906 127.777 57.198C127.892 56.9894 128.161 56.9218 128.361 57.054C128.53 57.1657 128.586 57.3831 128.497 57.5623L128.24 58.0854L128.639 57.3596C128.751 57.1539 129.01 57.0775 129.217 57.1862C129.415 57.2891 129.497 57.5241 129.412 57.7298L129.093 58.485L129.187 58.2617C129.285 58.0266 129.583 57.9473 129.783 58.1059C129.919 58.2117 129.969 58.391 129.907 58.5526L129.645 59.2284L129.757 59.0345C129.866 58.8435 130.12 58.7876 130.3 58.914C130.435 59.008 130.491 59.1784 130.441 59.3371L129.73 61.5321C129.73 61.5321 129.665 62.5664 131.143 62.1726C132.598 61.7848 133.601 61.5262 133.601 61.5262L135.693 65.2461L132.25 67.3618Z" fill="#FFB6AD"/>
<path d="M129.135 60.8856C129.12 60.8856 129.102 60.8827 129.087 60.8768C129.011 60.8504 128.969 60.7681 128.996 60.6917L129.512 59.1843C129.539 59.1079 129.624 59.0668 129.698 59.0932C129.775 59.1197 129.816 59.2019 129.789 59.2783L129.273 60.7857C129.253 60.8445 129.196 60.8856 129.135 60.8856Z" fill="#FFA69C"/>
<path d="M128.314 60.6652C128.296 60.6652 128.279 60.6623 128.261 60.6564C128.184 60.627 128.146 60.5418 128.175 60.4654L129.052 58.2117C129.081 58.1353 129.167 58.0971 129.243 58.1265C129.32 58.1559 129.359 58.2411 129.329 58.3175L128.453 60.5712C128.429 60.63 128.373 60.6652 128.314 60.6652Z" fill="#FFA69C"/>
<path d="M127.565 60.2921C127.55 60.2921 127.532 60.2892 127.517 60.2833C127.441 60.2568 127.399 60.1716 127.426 60.0952L128.252 57.7298C128.279 57.6535 128.364 57.6123 128.441 57.6388C128.518 57.6652 128.559 57.7504 128.532 57.8268L127.706 60.1922C127.683 60.2539 127.624 60.2921 127.565 60.2921Z" fill="#FFA69C"/>
<path d="M132.428 47.9995L122.856 51.765L122.965 52.0383L132.536 48.2728L132.428 47.9995Z" fill="white"/>
<path d="M186.236 105.845C186.236 105.845 192.31 112.457 198.937 103.815C198.94 103.812 191.921 96.5749 186.236 105.845Z" fill="#FFD3D1"/>
<path d="M179.722 116.615C179.722 116.615 182.427 123.005 189.514 118.416C189.514 118.416 186.28 111.323 179.722 116.615Z" fill="#FFD3D1"/>
<path d="M156.382 122.994C156.382 122.994 151.175 118.386 157.816 113.18C157.816 113.18 163.519 118.507 156.382 122.994Z" fill="#FFD3D1"/>
<path d="M168.472 115.504C168.472 115.504 163.265 110.896 169.906 105.69C169.909 105.69 175.612 111.017 168.472 115.504Z" fill="#FFD3D1"/>
<path d="M166.735 128.462C166.735 128.462 166.874 135.396 175.161 133.748C175.161 133.748 174.795 125.967 166.735 128.462Z" fill="#FFD3D1"/>
<path d="M174.798 115.997C174.833 115.997 178.397 115.88 180.215 117.014L180.454 116.632C178.518 115.424 174.934 115.542 174.78 115.548L174.798 115.997Z" fill="#FFD3D1"/>
<path d="M167.888 121.525L168.304 121.698C168.387 121.504 170.278 116.935 168.77 114.743L168.399 114.995C169.767 116.991 167.906 121.48 167.888 121.525Z" fill="#FFD3D1"/>
<path d="M159.188 126.373C159.247 126.376 166.113 126.99 167.136 129.132L167.544 128.938C166.411 126.558 159.472 125.938 159.218 125.923L159.188 126.373Z" fill="#FFD3D1"/>
<path d="M155.005 127.877L155.415 128.062C155.498 127.883 157.371 124.41 156.79 122.55L156.359 122.682C156.89 124.384 155.023 127.833 155.005 127.877Z" fill="#FFD3D1"/>
<path d="M186.758 105.61C185.038 105.458 181.533 107.074 174.612 115.633C170.145 121.16 160.15 125.609 150.028 129.872C150.057 130.019 150.075 130.166 150.084 130.316C150.193 130.278 150.255 130.257 150.258 130.254C160.419 125.976 170.458 121.483 174.963 115.912C182.085 107.103 185.369 105.954 186.69 106.054C187.357 106.104 187.581 106.474 187.59 106.489L187.985 106.271C187.974 106.248 187.658 105.69 186.758 105.61Z" fill="#FFD3D1"/>
</svg>
