<svg width="108" height="24" viewBox="0 0 108 24" fill="none" xmlns="http://www.w3.org/2000/svg">
<path d="M44.048 11.9974C44.048 17.5207 40.3173 19.2405 35.589 19.2405H30.8192V4.78027H35.589C40.3225 4.78027 44.048 6.49493 44.048 11.9974ZM34.2381 7.65362V16.3724H35.6566C38.1714 16.3724 40.442 15.832 40.442 12.0026C40.442 8.194 38.1662 7.65362 35.6566 7.65362H34.2381Z" fill="white"/>
<path d="M45.0094 12.0173C45.0094 7.50722 48.0594 4.53516 52.5123 4.53516C56.9392 4.53516 60.0152 7.50722 60.0152 12.0173C60.0152 16.5274 56.9444 19.4994 52.5123 19.4994C48.0594 19.4994 45.0094 16.5274 45.0094 12.0173ZM56.3988 12.0173C56.3988 8.9465 54.6218 7.35135 52.5071 7.35135C50.3923 7.35135 48.6153 8.9465 48.6153 12.0173C48.6153 15.0881 50.3923 16.6832 52.5071 16.6832C54.6218 16.6884 56.3988 15.0933 56.3988 12.0173Z" fill="white"/>
<path d="M68.2246 19.5001C63.7145 19.5001 60.9814 16.6267 60.9814 12.0024C60.9814 7.43514 63.8132 4.54102 68.3233 4.54102C71.9552 4.54102 74.5064 6.89477 75.0053 10.1838H71.6539C71.2746 8.20934 69.8197 7.35201 68.2038 7.35201C66.167 7.35201 64.5926 9.04588 64.5926 12.0024C64.5926 15.0524 66.167 16.6891 68.2454 16.6891C69.721 16.6891 71.3577 16.05 71.7578 13.8573H75.1092C74.5896 17.2035 71.8773 19.5001 68.2246 19.5001Z" fill="white"/>
<path d="M75.9668 15.6914H79.6767V19.2402H75.9668V15.6914Z" fill="white"/>
<path d="M84.2227 13.4152C84.2227 15.53 84.7215 16.7043 87.0961 16.7043C89.4914 16.7043 89.9071 15.3481 89.9071 13.2126V4.77441H93.3156V12.932C93.3156 17.3797 91.6009 19.4945 87.0909 19.4945C82.7627 19.4945 80.809 17.8214 80.809 13.0515V4.77441H84.2227V13.4152Z" fill="white"/>
<path d="M102.435 4.78027L107.901 19.2405H104.191L103.313 16.6686H97.7272L96.8698 19.2405H93.2379L98.6832 4.78027H102.435ZM102.398 13.8939L100.543 8.38625L98.6676 13.8939H102.398Z" fill="white"/>
<path d="M2.83807 3.54252L0.00369263 8.45166L20.7877 20.4517L23.6221 15.5425L2.83807 3.54252Z" fill="#FE5000"/>
<path d="M14.6496 0H8.98087V24H14.6496V0Z" fill="white"/>
<path d="M-3.56882e-07 15.5411L2.83437 20.4502L23.6184 8.45019L20.784 3.54105L-3.56882e-07 15.5411Z" fill="#47D7AC"/>
</svg>
