<svg width="625" height="610" viewBox="0 0 625 610" fill="none" xmlns="http://www.w3.org/2000/svg">
<path opacity="0.4" d="M171.677 464.317L171.204 464.064L167.848 462.249L162.541 459.38L150.104 452.656C145.077 449.938 138.626 451.403 135.77 455.909C132.914 460.414 134.688 466.323 139.721 469.042L151.891 475.615L155.007 477.3L155.473 477.553L156.596 478.162L161.294 480.703C166.321 483.421 172.773 481.956 175.628 477.45C178.484 472.945 176.704 467.035 171.677 464.317Z" fill="#CAD9EB"/>
<path d="M132.086 467.747L155.391 480.983C160.945 484.14 168.068 482.175 171.225 476.622C174.382 471.068 172.417 463.94 166.863 460.791L143.557 447.555C138.003 444.398 130.88 446.363 127.723 451.917C124.566 457.463 126.531 464.591 132.086 467.747Z" fill="#E1E8F2"/>
<path d="M167.376 461.085L160.952 457.436C155.398 454.279 148.275 456.244 145.118 461.797C141.961 467.351 143.926 474.479 149.481 477.628L150.72 478.334L155.905 481.278C161.459 484.435 168.581 482.469 171.738 476.916C174.896 471.363 172.93 464.235 167.376 461.085Z" fill="#4285FF"/>
<path d="M165.623 460.086L157.295 455.354C151.741 452.197 146.522 455.245 143.365 460.798C140.208 466.351 139.975 472.226 145.529 475.382L148.967 477.334L154.151 480.278C159.706 483.435 166.828 481.47 169.985 475.917C173.143 470.363 171.177 463.242 165.623 460.086Z" fill="#2964D6"/>
<path opacity="0.61" d="M156.898 469.247L132.051 456.141C130.9 455.539 130.462 454.101 131.065 452.95C131.667 451.8 133.106 451.355 134.256 451.964L159.103 465.07C160.253 465.673 160.692 467.111 160.089 468.261C159.479 469.411 158.041 469.856 156.898 469.247Z" fill="#F3F3F3"/>
<path opacity="0.4" d="M109.375 453.695C117.792 453.529 124.532 449.131 124.429 443.872C124.325 438.613 117.417 434.484 108.999 434.649C100.581 434.815 93.8413 439.213 93.945 444.472C94.0486 449.732 100.957 453.861 109.375 453.695Z" fill="#89A8CC"/>
<path d="M105.39 452.544C113.808 452.378 120.548 447.98 120.444 442.721C120.34 437.462 113.432 433.333 105.014 433.499C96.5965 433.664 89.8565 438.062 89.9601 443.322C90.0638 448.581 96.9718 452.71 105.39 452.544Z" fill="#E1E8F2"/>
<path d="M120.366 437.078L89.8823 437.681L90.003 443.774L120.487 443.17L120.366 437.078Z" fill="#E1E8F2"/>
<path d="M105.295 447.558C113.713 447.392 120.453 442.994 120.349 437.735C120.245 432.476 113.337 428.346 104.92 428.512C96.5017 428.678 89.7618 433.076 89.8654 438.335C89.9691 443.594 96.8772 447.724 105.295 447.558Z" fill="#F3F3F3"/>
<path d="M105.23 444.348C111.387 444.227 116.316 441.011 116.24 437.166C116.164 433.321 111.112 430.302 104.956 430.423C98.7994 430.544 93.87 433.76 93.9458 437.605C94.0216 441.45 99.0738 444.469 105.23 444.348Z" fill="#E1E8F2"/>
<path d="M112.355 438.153L96.8357 438.632C96.0139 438.659 95.3153 438.002 95.2879 437.18C95.2605 436.359 95.918 435.66 96.7398 435.633L112.259 435.154C113.081 435.126 113.779 435.784 113.806 436.605C113.834 437.434 113.183 438.125 112.355 438.153Z" fill="#C2D6F2"/>
<path opacity="0.1" d="M192.237 450.013L191.97 449.862L135.606 417.331L191.888 384.847L192.155 384.998L248.519 417.529L192.237 450.013ZM137.723 417.324L192.237 448.794L246.403 417.522L191.888 386.052L137.723 417.324Z" fill="#66A3DE"/>
<path opacity="0.1" d="M247.806 482.085L247.539 481.935L191.175 449.403L247.457 416.92L247.724 417.07L304.088 449.602L247.806 482.085ZM193.292 449.403L247.806 480.874L301.971 449.602L247.457 418.132L193.292 449.403Z" fill="#66A3DE"/>
<path opacity="0.1" d="M137.01 481.887L136.743 481.736L80.3794 449.205L136.661 416.721L136.928 416.872L193.292 449.403L137.01 481.887ZM82.4956 449.198L137.01 480.668L191.176 449.397L136.661 417.926L82.4956 449.198Z" fill="#66A3DE"/>
<path opacity="0.1" d="M192.58 513.967L192.312 513.816L135.949 481.284L192.23 448.801L192.497 448.951L248.861 481.483L192.58 513.967ZM138.065 481.278L192.58 512.748L246.745 481.476L192.23 450.006L138.065 481.278Z" fill="#66A3DE"/>
<path opacity="0.1" d="M248.148 546.039L247.881 545.889L191.518 513.357L247.799 480.874L248.066 481.024L304.43 513.556L248.148 546.039ZM193.634 513.357L248.148 544.827L302.314 513.556L247.799 482.085L193.634 513.357Z" fill="#66A3DE"/>
<path opacity="0.1" d="M303.718 578.12L303.451 577.969L247.087 545.437L303.369 512.954L303.636 513.104L360 545.636L303.718 578.12ZM249.21 545.43L303.725 576.901L357.89 545.629L303.376 514.159L249.21 545.43Z" fill="#66A3DE"/>
<path opacity="0.1" d="M81.79 513.761L81.5229 513.61L25.1592 481.079L81.4407 448.595L81.7078 448.746L138.072 481.277L81.79 513.761ZM27.2754 481.079L81.79 512.549L135.955 481.284L81.4407 449.814L27.2754 481.079Z" fill="#66A3DE"/>
<path opacity="0.1" d="M137.359 545.841L137.092 545.69L80.7285 513.152L137.01 480.668L137.277 480.819L193.641 513.35L137.359 545.841ZM82.8447 513.152L137.359 544.622L191.525 513.357L137.01 481.887L82.8447 513.152Z" fill="#66A3DE"/>
<path opacity="0.1" d="M192.929 577.921L192.662 577.77L136.298 545.239L192.579 512.755L192.846 512.906L249.21 545.437L192.929 577.921ZM138.414 545.232L192.929 576.702L247.094 545.43L192.579 513.96L138.414 545.232Z" fill="#66A3DE"/>
<path opacity="0.1" d="M248.498 610L248.231 609.849L191.867 577.318L248.149 544.834L248.416 544.985L304.78 577.516L248.498 610ZM193.983 577.311L248.498 608.781L302.663 577.51L248.149 546.039L193.983 577.311Z" fill="#66A3DE"/>
<path opacity="0.1" d="M136.736 609.418L136.469 609.267L80.1055 576.736L136.387 544.252L136.654 544.403L193.018 576.934L136.736 609.418ZM82.2217 576.736L136.736 608.206L190.902 576.934L136.387 545.464L82.2217 576.736Z" fill="#66A3DE"/>
<path d="M236.737 73.4525C278.939 21.5947 347.932 7.53335 420.053 44.8162C526.653 99.9251 599.689 246.342 583.195 371.843C566.701 497.343 466.922 554.41 360.322 499.301C289.389 462.63 233.316 385.536 208.593 301.077L236.737 73.4525Z" fill="#EDF5FF"/>
<path d="M531.659 314.628C531.659 441.207 448.887 513.809 357.726 491.713C259.182 467.829 195.442 293.641 195.442 167.061C195.442 40.4818 270.708 -29.1006 363.554 11.6478C456.4 52.3961 531.659 188.048 531.659 314.628Z" fill="#CFE4FF"/>
<path d="M174.916 236.527C174.916 236.527 181.964 198.819 161.192 185.672C140.42 172.525 157.028 136.111 124.525 125.751C92.0213 115.391 91.6994 102.998 91.6994 102.998C91.6994 102.998 86.7822 150.094 106.766 166.26C126.75 182.427 138.064 219.32 147.139 226.975C156.22 234.631 169.349 253.94 169.349 253.94L174.916 236.527Z" fill="#497AD1"/>
<path d="M161.843 220.95C161.843 220.95 148.2 189.719 128.155 163.439C116.676 148.396 94.1789 120.39 92.5146 109.113" stroke="#B4C4F0" stroke-width="2.8252" stroke-miterlimit="10" stroke-linecap="round" stroke-linejoin="round"/>
<path d="M180.82 258.253C180.82 258.253 147.584 202.188 112.293 192.992C76.9957 183.796 63.9561 203.201 63.9561 203.201C63.9561 203.201 79.4133 201.215 94.4733 213.027C109.533 224.832 122.457 230.008 131.291 232.775C140.119 235.541 157.631 259.39 157.631 259.39L180.82 258.253Z" fill="#699EFF"/>
<path d="M150.748 231.59C150.748 231.59 120.833 205.105 107.636 204.085C94.4389 203.064 80.3171 196.751 70.3936 200.49" stroke="#B6CFF0" stroke-width="2.8252" stroke-miterlimit="10" stroke-linecap="round" stroke-linejoin="round"/>
<path d="M6.27743 153.079C9.51891 153.079 12.1466 150.452 12.1466 147.211C12.1466 143.97 9.51891 141.343 6.27743 141.343C3.03594 141.343 0.408203 143.97 0.408203 147.211C0.408203 150.452 3.03594 153.079 6.27743 153.079Z" fill="#D9E9FF"/>
<path d="M191.13 554.823C191.651 551.624 189.48 548.609 186.28 548.089C183.081 547.568 180.065 549.74 179.545 552.938C179.024 556.137 181.196 559.152 184.395 559.673C187.594 560.193 190.61 558.022 191.13 554.823Z" fill="#D9E9FF"/>
<path d="M460.459 596.415C461.204 593.261 459.251 590.1 456.096 589.356C452.941 588.611 449.78 590.564 449.035 593.718C448.29 596.872 450.244 600.033 453.398 600.777C456.553 601.522 459.714 599.569 460.459 596.415Z" fill="#D9E9FF"/>
<path d="M364.211 505.12L440.757 459.154C447.284 455.121 447.202 445.61 440.606 441.694L213.624 306.76L183.792 401.103L364.211 505.12Z" fill="#B5D0F2"/>
<path d="M353.137 511.536L193.599 405.759C183.621 400 175.533 384.546 175.533 371.249V23.1037C175.533 9.79937 183.621 3.69156 193.599 9.45015L360.17 105.6C370.148 111.359 378.237 126.813 378.237 140.111V486.612C378.237 495.363 374.963 499.013 369.457 502.19L353.137 511.536Z" fill="#A8C9ED"/>
<path d="M260.866 184.488C260.866 184.488 175.458 384.203 175.458 370.899L161.425 18.8513L182.361 7.79977C185.436 6.35499 189.305 6.66997 193.517 9.10076L360.095 105.251C364.964 108.065 369.388 113.187 372.642 119.24L260.866 184.488Z" fill="#EBF1F7"/>
<path d="M343.391 510.406L177.224 414.256C167.246 408.497 159.569 393.043 159.569 379.746V31.5939C159.569 18.2896 167.445 12.1818 177.423 17.9404L343.494 114.09C353.472 119.849 361.061 135.303 361.061 148.601V496.746C361.061 510.057 353.37 516.165 343.391 510.406Z" fill="white"/>
<path d="M340.056 511.646L173.896 415.489C163.917 409.73 156.24 394.276 156.24 380.978V32.8266C156.24 19.5223 164.116 13.4145 174.094 19.1731L340.165 115.323C350.144 121.082 357.732 136.536 357.732 149.833V497.978C357.725 511.289 350.034 517.404 340.056 511.646Z" fill="#2C1F9C"/>
<path d="M335.446 452.143L173.437 358.629C171.752 357.656 170.711 355.856 170.711 353.911V59.901C170.711 55.7105 175.252 53.0879 178.881 55.1832L340.891 148.704C342.576 149.676 343.617 151.477 343.617 153.422V447.432C343.617 451.622 339.076 454.245 335.446 452.143Z" fill="#699EFF"/>
<path d="M285.308 106.319L233.93 76.6563C232.129 75.6155 230.65 72.8013 230.65 70.3979C230.65 67.9945 232.122 66.8784 233.93 67.9192L285.308 97.5817C287.109 98.6225 288.589 101.437 288.589 103.84C288.589 106.244 287.109 107.36 285.308 106.319Z" fill="#4A3EB5"/>
<path d="M369.039 197.429C366.314 198.586 364.081 197.135 364.081 194.191V174.368C364.081 171.43 366.314 168.075 369.039 166.911C371.765 165.754 373.998 167.205 373.998 170.15V189.973C373.998 192.91 371.765 196.265 369.039 197.429Z" fill="#E6F0FF"/>
<path d="M371.169 197.696C368.444 198.854 366.211 197.402 366.211 194.458V174.635C366.211 171.697 368.444 168.342 371.169 167.178C373.895 166.021 376.128 167.472 376.128 170.417V190.24C376.121 193.177 373.895 196.532 371.169 197.696Z" fill="#6899E3"/>
<path d="M369.039 233.515C366.313 234.672 364.081 233.22 364.081 230.276V210.453C364.081 207.515 366.313 204.16 369.039 202.996C371.765 201.839 373.997 203.291 373.997 206.235V226.058C373.997 228.996 371.765 232.351 369.039 233.515Z" fill="#E6F0FF"/>
<path d="M371.169 233.775C368.444 234.932 366.211 233.48 366.211 230.536V210.713C366.211 207.775 368.444 204.42 371.169 203.256C373.895 202.099 376.128 203.551 376.128 206.495V226.318C376.121 229.262 373.895 232.618 371.169 233.775Z" fill="#6899E3"/>
<path opacity="0.4" d="M160.919 114.85C138.668 103.682 119.458 74.4854 118.006 49.6297C116.554 24.7808 133.415 13.6881 155.666 24.8561C177.917 36.0241 196.935 64.8992 198.805 89.9535C200.866 117.5 183.17 126.018 160.919 114.85Z" fill="#A8C4E5"/>
<path d="M154.392 105.031C133.264 94.4246 115.012 66.693 113.636 43.0903C112.259 19.4876 128.271 8.95648 149.399 19.563C170.527 30.1695 188.593 57.5861 190.367 81.3874C192.333 107.558 175.519 115.644 154.392 105.031Z" fill="#00D1A7"/>
<path d="M143.366 111.187C122.238 100.58 103.986 72.8485 102.61 49.2458C101.233 25.6432 117.245 15.112 138.373 25.7185C159.501 36.325 177.567 63.7416 179.341 87.5429C181.3 113.706 164.493 121.793 143.366 111.187Z" fill="#08F7C8"/>
<path d="M114.006 52.06L114.061 62.7076C114.068 63.7552 114.629 64.7139 115.533 65.2343L160.042 90.6309C162.001 91.7471 164.432 90.3297 164.418 88.0769L164.363 77.4293C164.357 76.3817 163.795 75.4231 162.891 74.9027L118.382 49.506C116.423 48.3899 113.992 49.8073 114.006 52.06Z" fill="#FCFEFF"/>
<path d="M133.189 95.2597L142.585 100.621C144.544 101.737 146.975 100.32 146.961 98.0671L146.715 47.397C146.708 46.3494 146.146 45.3908 145.242 44.8704L135.846 39.5089C133.887 38.3928 131.456 39.8102 131.47 42.063L131.716 92.7331C131.716 93.7739 132.278 94.7393 133.189 95.2597Z" fill="#FCFEFF"/>
<path opacity="0.71" d="M339.638 179.448L390.29 207.125C391.94 208.029 393.296 210.651 393.296 212.952V248.147L395.844 262.075L382.304 247.688L339.638 224.38C337.987 223.476 336.631 220.854 336.631 218.553V182.002C336.631 179.688 337.987 178.544 339.638 179.448Z" fill="#699EFF"/>
<path d="M359.513 169.17L306.655 138.658C304.93 137.666 303.519 138.727 303.519 141.028V176.223L299.129 194.396L314.99 188.39L359.513 214.088C361.239 215.081 362.649 214.02 362.649 211.719V175.168C362.649 172.861 361.239 170.163 359.513 169.17Z" fill="white"/>
<path d="M324.893 175.36C324.893 177.99 323.037 179.044 320.743 177.723C318.449 176.401 316.593 173.197 316.593 170.567C316.593 167.938 318.449 166.883 320.743 168.205C323.037 169.526 324.893 172.731 324.893 175.36Z" fill="#699EFF"/>
<path d="M337.672 182.858C337.672 185.487 335.816 186.542 333.522 185.22C331.228 183.899 329.372 180.694 329.372 178.065C329.372 175.435 331.228 174.381 333.522 175.702C335.816 177.024 337.672 180.228 337.672 182.858Z" fill="#699EFF"/>
<path d="M349.255 193.007C350.865 192.066 350.848 189.043 349.218 186.255C347.588 183.467 344.961 181.97 343.351 182.911C341.742 183.852 341.758 186.875 343.388 189.663C345.019 192.451 347.645 193.948 349.255 193.007Z" fill="#699EFF"/>
<path d="M252.976 412.825L137.913 346.406C134.599 344.496 131.894 339.319 131.894 334.902V263.677C131.894 259.26 134.606 257.213 137.913 259.123L252.976 325.542C256.291 327.453 258.996 332.629 258.996 337.046V408.271C258.996 412.695 256.284 414.742 252.976 412.825Z" fill="#D9E9FF"/>
<path d="M176.984 343.952C185.702 338.863 185.417 322.146 176.347 306.614C167.277 291.082 152.857 282.616 144.139 287.705C135.42 292.794 135.706 309.511 144.776 325.043C153.846 340.575 168.266 349.041 176.984 343.952Z" fill="white"/>
<path d="M168.554 334.539C170.54 335.772 172.965 334.053 172.403 331.801C171.862 329.616 171.15 327.548 170.547 326.631C170.006 325.809 169.335 325.152 168.753 324.577C168.15 323.981 167.356 323.146 166.596 322.331C166.342 322.057 166.082 321.783 165.829 321.516L164.281 319.804C164.048 319.503 163.822 319.195 163.589 318.893C163.548 318.839 163.466 318.75 163.425 318.681C163.411 318.572 163.418 318.448 163.418 318.346C163.391 317.633 163.356 316.928 163.329 316.216C163.952 315.901 164.336 315.162 164.452 314.169C165.486 314.833 165.712 313.491 165.808 312.539C165.87 311.861 165.952 310.149 165.151 309.471C165.171 309.362 165.185 309.266 165.205 309.177C165.322 308.622 165.425 308.04 165.425 307.383C165.418 306.726 165.308 305.993 165.02 305.254C164.952 305.082 164.863 304.897 164.76 304.761C164.774 304.541 164.705 304.247 164.63 303.98C164.021 301.926 162.788 300.056 161.514 298.886C160.24 297.715 158.918 297.174 157.692 296.955C156.788 296.797 155.597 296.879 155.583 298.482C155.583 298.687 155.624 298.892 155.693 299.091C155.521 299.002 155.391 299.105 155.302 299.242C155.042 299.639 154.953 300.255 154.98 300.919C155.008 301.583 155.131 302.309 155.282 303.028C155.302 303.138 155.323 303.261 155.35 303.391C154.357 302.761 154.57 304.829 154.686 305.671C154.83 306.726 155.131 308.314 156.069 308.958C156.138 309.43 156.234 309.91 156.384 310.389C156.604 311.094 156.898 311.724 157.24 312.306C157.24 312.313 157.234 312.32 157.234 312.334C157.268 313.059 157.295 313.792 157.33 314.518C157.33 314.58 157.35 314.696 157.343 314.771C157.33 314.717 157.179 314.833 157.138 314.853C156.994 314.922 156.857 314.984 156.713 315.052C156.713 315.052 156.713 315.045 156.706 315.045L156.282 314.977L156.275 314.963L156.179 314.936C155.912 314.867 155.645 314.826 155.371 314.799L155.337 314.792C154.987 314.751 154.638 314.73 154.296 314.71C153.672 314.675 153.049 314.504 152.44 314.491C150.926 314.463 148.892 315.764 148.618 319.291C148.488 320.941 149.296 322.564 150.714 323.474L168.554 334.539ZM165.589 312.491C165.582 312.587 165.568 312.669 165.561 312.731C165.575 312.655 165.582 312.573 165.589 312.491Z" fill="#305DAD"/>
<path d="M224.548 336.422L192.579 316.928V327.699L224.548 347.193V336.422Z" fill="white"/>
<path d="M192.579 335.71V346.481L241.087 376.055V365.284L192.579 335.71Z" fill="white"/>
<path d="M181.873 352.297C193.155 345.703 193.04 324.52 181.617 304.984C170.194 285.448 151.788 274.957 140.506 281.551C129.225 288.145 129.339 309.328 140.763 328.864C152.186 348.4 170.592 358.892 181.873 352.297Z" stroke="white" stroke-width="1.5451" stroke-miterlimit="10" stroke-linecap="round" stroke-linejoin="round"/>
<path d="M363.115 384.402C363.115 379.458 360.478 374.891 356.198 372.419L289.883 334.136C286.254 332.04 283.281 334.286 283.281 339.127V382.519C283.281 387.1 285.726 391.338 289.698 393.625L350.61 428.786C356.171 431.997 363.122 427.985 363.122 421.562V384.402H363.115Z" fill="#D9E9FF"/>
<path d="M330.796 381.642V393.454L353.41 407.244V395.433L330.796 381.642Z" fill="white"/>
<path d="M313.976 362.579C310.819 361.853 308.696 363.243 307.224 364.674C306.772 365.119 305.847 364.579 305.402 363.606C303.895 360.32 301.676 356.122 298.642 353.719C292.842 349.131 288.685 352.609 290.342 360.183C292.116 369.269 306.135 389.893 306.135 389.893L306.477 390.092C306.477 390.092 320.496 385.655 322.27 378.616C323.941 372.966 320.373 364.044 313.976 362.579Z" fill="#E655BE"/>
<path d="M308.039 381.629C308.025 381.622 308.012 381.615 307.998 381.601C307.498 381.293 307.067 380.684 306.895 380.04L304.45 370.789L303.183 373.809C303.005 374.24 302.553 374.336 302.053 374.049L297.705 371.536C297.369 371.344 297.164 370.981 297.164 370.591C297.164 369.755 298.068 369.228 298.794 369.646L301.389 371.145L303.362 366.441C303.54 366.01 303.998 365.914 304.492 366.202C304.498 366.202 304.498 366.208 304.505 366.208C305.012 366.51 305.464 367.14 305.635 367.783L308.135 377.246L309.162 375.151C309.354 374.754 309.792 374.678 310.272 374.959L314.963 377.664C315.299 377.856 315.504 378.219 315.504 378.609C315.504 379.444 314.6 379.971 313.874 379.554L310.916 377.842L309.162 381.437C308.957 381.834 308.525 381.902 308.039 381.629Z" fill="white"/>
</svg>
