<svg width="748" height="566" viewBox="0 0 748 566" fill="none" xmlns="http://www.w3.org/2000/svg">
<path d="M539 461.5C539 438.414 557.715 419.7 580.8 419.7H706.2C729.286 419.7 748 438.414 748 461.5C748 484.586 729.286 503.3 706.2 503.3H580.8C557.714 503.3 539 484.586 539 461.5Z" fill="#08F7C8"/>
<path d="M643.5 566C620.414 566 601.7 547.286 601.7 524.2V398.8C601.7 375.714 620.414 357 643.5 357C666.586 357 685.3 375.714 685.3 398.8V524.2C685.3 547.286 666.586 566 643.5 566Z" fill="#08F7C8"/>
<path d="M0 234C0 230.907 2.50721 228.4 5.6 228.4H22.4C25.4928 228.4 28 230.907 28 234C28 237.093 25.4928 239.6 22.4 239.6H5.6C2.50721 239.6 0 237.093 0 234Z" fill="#FFD15B"/>
<path d="M14 248C10.9072 248 8.4 245.493 8.4 242.4V225.6C8.4 222.507 10.9072 220 14 220C17.0928 220 19.6 222.507 19.6 225.6V242.4C19.6 245.493 17.0928 248 14 248Z" fill="#FFD15B"/>
<path d="M548 10.5C548 8.1804 549.88 6.3 552.2 6.3H564.8C567.12 6.3 569 8.1804 569 10.5C569 12.8196 567.12 14.7 564.8 14.7H552.2C549.88 14.7 548 12.8196 548 10.5Z" fill="#FFD15B"/>
<path d="M558.5 21C556.18 21 554.3 19.1196 554.3 16.8V4.2C554.3 1.8804 556.18 0 558.5 0C560.82 0 562.7 1.8804 562.7 4.2V16.8C562.7 19.1196 560.82 21 558.5 21Z" fill="#FFD15B"/>
<path d="M494 498.5C494 496.401 495.701 494.7 497.8 494.7H509.2C511.299 494.7 513 496.401 513 498.5C513 500.599 511.299 502.3 509.2 502.3H497.8C495.701 502.3 494 500.599 494 498.5Z" fill="#FFD15B"/>
<path d="M503.5 508C501.401 508 499.7 506.299 499.7 504.2V492.8C499.7 490.701 501.401 489 503.5 489C505.599 489 507.3 490.701 507.3 492.8V504.2C507.3 506.299 505.599 508 503.5 508Z" fill="#FFD15B"/>
</svg>
