<svg width="752" height="618" viewBox="0 0 752 618" fill="none" xmlns="http://www.w3.org/2000/svg">
<path d="M535 509.5C535 485.531 554.431 466.1 578.4 466.1H708.6C732.569 466.1 752 485.531 752 509.5C752 533.469 732.569 552.9 708.6 552.9H578.4C554.431 552.9 535 533.469 535 509.5Z" fill="#08F7C8"/>
<path d="M643.5 618C619.531 618 600.1 598.569 600.1 574.6V444.4C600.1 420.431 619.531 401 643.5 401C667.469 401 686.9 420.431 686.9 444.4V574.6C686.9 598.569 667.469 618 643.5 618Z" fill="#08F7C8"/>
<path d="M0 282C0 278.907 2.50721 276.4 5.6 276.4H22.4C25.4928 276.4 28 278.907 28 282C28 285.093 25.4928 287.6 22.4 287.6H5.6C2.5072 287.6 0 285.093 0 282Z" fill="#FFD15B"/>
<path d="M14 296C10.9072 296 8.4 293.493 8.4 290.4V273.6C8.4 270.507 10.9072 268 14 268C17.0928 268 19.6 270.507 19.6 273.6V290.4C19.6 293.493 17.0928 296 14 296Z" fill="#FFD15B"/>
<path opacity="0.4" d="M242.677 464.317L242.204 464.064L238.848 462.249L233.541 459.38L221.104 452.656C216.077 449.938 209.626 451.403 206.77 455.909C203.914 460.414 205.688 466.323 210.721 469.042L222.891 475.615L226.007 477.3L226.473 477.553L227.596 478.162L232.294 480.703C237.321 483.421 243.773 481.956 246.628 477.45C249.484 472.945 247.704 467.035 242.677 464.317Z" fill="#CAD9EB"/>
<path d="M203.086 467.747L226.391 480.983C231.945 484.14 239.068 482.175 242.225 476.622C245.382 471.068 243.417 463.94 237.863 460.791L214.557 447.555C209.003 444.398 201.88 446.363 198.723 451.917C195.566 457.463 197.531 464.591 203.086 467.747Z" fill="#E1E8F2"/>
<path d="M238.376 461.085L231.952 457.436C226.398 454.279 219.275 456.244 216.118 461.797C212.961 467.351 214.926 474.479 220.481 477.628L221.72 478.334L226.905 481.278C232.459 484.435 239.581 482.469 242.738 476.916C245.896 471.363 243.93 464.235 238.376 461.085Z" fill="#4285FF"/>
<path d="M236.623 460.086L228.295 455.354C222.741 452.197 217.522 455.245 214.365 460.798C211.208 466.351 210.975 472.226 216.529 475.382L219.967 477.334L225.151 480.278C230.706 483.435 237.828 481.47 240.985 475.917C244.143 470.363 242.177 463.242 236.623 460.086Z" fill="#2964D6"/>
<path opacity="0.61" d="M227.898 469.247L203.051 456.141C201.9 455.539 201.462 454.101 202.065 452.95C202.667 451.8 204.106 451.355 205.256 451.964L230.103 465.07C231.253 465.673 231.692 467.111 231.089 468.261C230.479 469.411 229.041 469.856 227.898 469.247Z" fill="#F3F3F3"/>
<path opacity="0.4" d="M180.375 453.695C188.792 453.529 195.532 449.131 195.429 443.872C195.325 438.613 188.417 434.484 179.999 434.649C171.581 434.815 164.841 439.213 164.945 444.472C165.049 449.732 171.957 453.861 180.375 453.695Z" fill="#89A8CC"/>
<path d="M176.39 452.544C184.808 452.378 191.548 447.98 191.444 442.721C191.34 437.462 184.432 433.333 176.014 433.499C167.596 433.664 160.856 438.062 160.96 443.322C161.064 448.581 167.972 452.71 176.39 452.544Z" fill="#E1E8F2"/>
<path d="M191.366 437.078L160.882 437.681L161.003 443.774L191.487 443.17L191.366 437.078Z" fill="#E1E8F2"/>
<path d="M176.295 447.558C184.713 447.392 191.453 442.994 191.349 437.735C191.245 432.476 184.337 428.346 175.92 428.512C167.502 428.678 160.762 433.076 160.865 438.335C160.969 443.594 167.877 447.724 176.295 447.558Z" fill="#F3F3F3"/>
<path d="M176.23 444.348C182.387 444.227 187.316 441.011 187.24 437.166C187.164 433.321 182.112 430.302 175.956 430.423C169.799 430.544 164.87 433.76 164.946 437.605C165.022 441.45 170.074 444.469 176.23 444.348Z" fill="#E1E8F2"/>
<path d="M183.355 438.153L167.836 438.632C167.014 438.659 166.315 438.002 166.288 437.18C166.261 436.359 166.918 435.66 167.74 435.633L183.259 435.154C184.081 435.126 184.779 435.784 184.806 436.605C184.834 437.434 184.183 438.125 183.355 438.153Z" fill="#C2D6F2"/>
<path opacity="0.1" d="M263.237 450.013L262.97 449.862L206.606 417.331L262.888 384.847L263.155 384.998L319.519 417.529L263.237 450.013ZM208.723 417.324L263.237 448.794L317.403 417.522L262.888 386.052L208.723 417.324Z" fill="#66A3DE"/>
<path opacity="0.1" d="M318.806 482.085L318.539 481.935L262.175 449.403L318.457 416.92L318.724 417.07L375.088 449.602L318.806 482.085ZM264.292 449.403L318.806 480.874L372.971 449.602L318.457 418.132L264.292 449.403Z" fill="#66A3DE"/>
<path opacity="0.1" d="M208.01 481.887L207.743 481.736L151.379 449.205L207.661 416.721L207.928 416.872L264.292 449.403L208.01 481.887ZM153.496 449.198L208.01 480.668L262.176 449.397L207.661 417.926L153.496 449.198Z" fill="#66A3DE"/>
<path opacity="0.1" d="M263.58 513.967L263.312 513.816L206.949 481.284L263.23 448.801L263.497 448.951L319.861 481.483L263.58 513.967ZM209.065 481.278L263.58 512.748L317.745 481.476L263.23 450.006L209.065 481.278Z" fill="#66A3DE"/>
<path opacity="0.1" d="M319.148 546.039L318.881 545.889L262.518 513.357L318.799 480.874L319.066 481.024L375.43 513.556L319.148 546.039ZM264.634 513.357L319.148 544.827L373.314 513.556L318.799 482.085L264.634 513.357Z" fill="#66A3DE"/>
<path opacity="0.1" d="M374.718 578.12L374.451 577.969L318.087 545.437L374.369 512.954L374.636 513.104L431 545.636L374.718 578.12ZM320.21 545.43L374.725 576.901L428.89 545.629L374.376 514.159L320.21 545.43Z" fill="#66A3DE"/>
<path opacity="0.1" d="M152.79 513.761L152.523 513.61L96.1592 481.079L152.441 448.595L152.708 448.746L209.072 481.277L152.79 513.761ZM98.2754 481.079L152.79 512.549L206.955 481.284L152.441 449.814L98.2754 481.079Z" fill="#66A3DE"/>
<path opacity="0.1" d="M208.359 545.841L208.092 545.69L151.729 513.152L208.01 480.668L208.277 480.819L264.641 513.35L208.359 545.841ZM153.845 513.152L208.359 544.622L262.525 513.357L208.01 481.887L153.845 513.152Z" fill="#66A3DE"/>
<path opacity="0.1" d="M263.929 577.921L263.662 577.77L207.298 545.239L263.579 512.755L263.846 512.906L320.21 545.437L263.929 577.921ZM209.414 545.232L263.929 576.702L318.094 545.43L263.579 513.96L209.414 545.232Z" fill="#66A3DE"/>
<path opacity="0.1" d="M319.498 610L319.231 609.849L262.867 577.318L319.149 544.834L319.416 544.985L375.78 577.516L319.498 610ZM264.983 577.311L319.498 608.781L373.663 577.51L319.149 546.039L264.983 577.311Z" fill="#66A3DE"/>
<path opacity="0.1" d="M207.736 609.418L207.469 609.267L151.105 576.736L207.387 544.252L207.654 544.403L264.018 576.934L207.736 609.418ZM153.222 576.736L207.736 608.206L261.902 576.934L207.387 545.464L153.222 576.736Z" fill="#66A3DE"/>
<g opacity="0.4">
<path opacity="0.4" d="M153.591 606.816C151.461 606.816 149.317 606.508 147.222 605.782C141.839 603.913 137.901 599.674 135.518 593.169C129.553 576.893 152.345 558.282 166.466 548.634C182.602 537.61 184.478 508.276 184.499 507.982C184.615 506.017 186.3 504.517 188.265 504.627C190.231 504.743 191.731 506.428 191.621 508.393C191.546 509.742 189.491 541.541 170.493 554.516C150.002 568.519 139.168 582.392 142.222 590.711C143.859 595.169 146.256 597.894 149.564 599.044C154.262 600.674 161.049 599.092 168.185 594.703C176.862 589.362 182.417 585.048 186.882 581.584C190.402 578.852 193.45 576.489 196.826 574.579C207.017 568.827 213.358 564.52 218.954 560.72C222.919 558.029 226.665 555.489 231.206 552.811L251.012 541.623C252.724 540.657 254.902 541.26 255.868 542.972C256.833 544.683 256.23 546.861 254.518 547.826L234.774 558.981C230.487 561.507 226.836 563.986 222.967 566.609C217.255 570.484 210.783 574.873 200.339 580.776C197.415 582.426 194.703 584.535 191.265 587.205C186.67 590.773 180.944 595.217 171.931 600.763C167.85 603.283 160.83 606.816 153.591 606.816Z" fill="#A8C4E5"/>
</g>
<path d="M307.737 73.4526C349.939 21.5947 418.932 7.53334 491.053 44.8162C597.653 99.925 670.689 246.342 654.195 371.843C637.701 497.343 537.922 554.41 431.322 499.301C360.389 462.63 304.316 385.536 279.593 301.077L307.737 73.4526Z" fill="#EDF5FF"/>
<path d="M602.659 314.628C602.659 441.207 519.887 513.809 428.726 491.713C330.182 467.829 266.442 293.641 266.442 167.061C266.442 40.4818 341.708 -29.1006 434.554 11.6478C527.4 52.3961 602.659 188.048 602.659 314.628Z" fill="#CFE4FF"/>
<path d="M245.916 236.527C245.916 236.527 252.964 198.819 232.192 185.672C211.42 172.525 228.028 136.111 195.525 125.751C163.021 115.391 162.699 102.998 162.699 102.998C162.699 102.998 157.782 150.094 177.766 166.26C197.75 182.427 209.064 219.32 218.139 226.975C227.22 234.631 240.349 253.94 240.349 253.94L245.916 236.527Z" fill="#497AD1"/>
<path d="M232.843 220.95C232.843 220.95 219.2 189.719 199.155 163.439C187.676 148.396 165.179 120.39 163.515 109.113" stroke="#B4C4F0" stroke-width="2.8252" stroke-miterlimit="10" stroke-linecap="round" stroke-linejoin="round"/>
<path d="M251.82 258.253C251.82 258.253 218.584 202.188 183.293 192.992C147.996 183.796 134.956 203.201 134.956 203.201C134.956 203.201 150.413 201.215 165.473 213.027C180.533 224.832 193.457 230.008 202.291 232.775C211.119 235.541 228.631 259.39 228.631 259.39L251.82 258.253Z" fill="#699EFF"/>
<path d="M221.748 231.59C221.748 231.59 191.833 205.105 178.636 204.085C165.439 203.064 151.317 196.751 141.394 200.49" stroke="#B6CFF0" stroke-width="2.8252" stroke-miterlimit="10" stroke-linecap="round" stroke-linejoin="round"/>
<path d="M77.2774 153.079C80.5189 153.079 83.1466 150.452 83.1466 147.211C83.1466 143.97 80.5189 141.343 77.2774 141.343C74.0359 141.343 71.4082 143.97 71.4082 147.211C71.4082 150.452 74.0359 153.079 77.2774 153.079Z" fill="#D9E9FF"/>
<path d="M262.13 554.823C262.651 551.624 260.48 548.609 257.28 548.089C254.081 547.568 251.065 549.74 250.545 552.938C250.024 556.137 252.196 559.152 255.395 559.673C258.594 560.193 261.61 558.022 262.13 554.823Z" fill="#D9E9FF"/>
<path d="M531.459 596.415C532.204 593.261 530.251 590.1 527.096 589.356C523.941 588.611 520.78 590.564 520.035 593.718C519.29 596.872 521.244 600.033 524.398 600.777C527.553 601.522 530.714 599.569 531.459 596.415Z" fill="#D9E9FF"/>
<path d="M435.211 505.12L511.757 459.154C518.284 455.121 518.202 445.61 511.606 441.694L284.624 306.76L254.792 401.103L435.211 505.12Z" fill="#B5D0F2"/>
<path d="M424.137 511.536L264.599 405.759C254.621 400 246.533 384.546 246.533 371.249V23.1037C246.533 9.79937 254.621 3.69156 264.599 9.45015L431.17 105.6C441.148 111.359 449.237 126.813 449.237 140.111V486.612C449.237 495.363 445.963 499.013 440.457 502.19L424.137 511.536Z" fill="#A8C9ED"/>
<path d="M331.866 184.488C331.866 184.488 246.458 384.203 246.458 370.899L232.425 18.8513L253.361 7.79977C256.436 6.35499 260.305 6.66997 264.517 9.10076L431.095 105.251C435.964 108.065 440.388 113.187 443.642 119.24L331.866 184.488Z" fill="#EBF1F7"/>
<path d="M414.391 510.406L248.224 414.256C238.246 408.497 230.569 393.043 230.569 379.746V31.5939C230.569 18.2896 238.445 12.1818 248.423 17.9404L414.494 114.09C424.472 119.849 432.061 135.303 432.061 148.601V496.746C432.061 510.057 424.37 516.165 414.391 510.406Z" fill="white"/>
<path d="M411.056 511.646L244.896 415.489C234.917 409.73 227.24 394.276 227.24 380.978V32.8266C227.24 19.5223 235.116 13.4145 245.094 19.1731L411.165 115.323C421.144 121.082 428.732 136.536 428.732 149.833V497.978C428.725 511.289 421.034 517.404 411.056 511.646Z" fill="#2C1F9C"/>
<path d="M406.446 452.143L244.437 358.629C242.752 357.656 241.711 355.856 241.711 353.911V59.901C241.711 55.7105 246.252 53.0879 249.881 55.1832L411.891 148.704C413.576 149.676 414.617 151.477 414.617 153.422V447.432C414.617 451.622 410.076 454.245 406.446 452.143Z" fill="#699EFF"/>
<path d="M356.308 106.319L304.93 76.6563C303.129 75.6155 301.65 72.8013 301.65 70.3979C301.65 67.9945 303.122 66.8784 304.93 67.9192L356.308 97.5817C358.109 98.6225 359.589 101.437 359.589 103.84C359.589 106.244 358.109 107.36 356.308 106.319Z" fill="#4A3EB5"/>
<path d="M440.039 197.429C437.314 198.586 435.081 197.135 435.081 194.191V174.368C435.081 171.43 437.314 168.075 440.039 166.911C442.765 165.754 444.998 167.205 444.998 170.15V189.973C444.998 192.91 442.765 196.265 440.039 197.429Z" fill="#E6F0FF"/>
<path d="M442.169 197.696C439.444 198.854 437.211 197.402 437.211 194.458V174.635C437.211 171.697 439.444 168.342 442.169 167.178C444.895 166.021 447.128 167.472 447.128 170.417V190.24C447.121 193.177 444.895 196.532 442.169 197.696Z" fill="#6899E3"/>
<path d="M440.039 233.515C437.313 234.672 435.081 233.22 435.081 230.276V210.453C435.081 207.515 437.313 204.16 440.039 202.996C442.765 201.839 444.997 203.291 444.997 206.235V226.058C444.997 228.996 442.765 232.351 440.039 233.515Z" fill="#E6F0FF"/>
<path d="M442.169 233.775C439.444 234.932 437.211 233.48 437.211 230.536V210.713C437.211 207.775 439.444 204.42 442.169 203.256C444.895 202.099 447.128 203.551 447.128 206.495V226.318C447.121 229.262 444.895 232.618 442.169 233.775Z" fill="#6899E3"/>
<path opacity="0.4" d="M231.919 114.85C209.668 103.682 190.458 74.4854 189.006 49.6297C187.554 24.7808 204.415 13.6881 226.666 24.8561C248.917 36.0241 267.935 64.8992 269.805 89.9535C271.866 117.5 254.17 126.018 231.919 114.85Z" fill="#A8C4E5"/>
<path d="M225.392 105.031C204.264 94.4246 186.012 66.693 184.636 43.0903C183.259 19.4876 199.271 8.95648 220.399 19.563C241.527 30.1695 259.593 57.5861 261.367 81.3874C263.333 107.558 246.519 115.644 225.392 105.031Z" fill="#00D1A7"/>
<path d="M214.366 111.187C193.238 100.58 174.986 72.8485 173.61 49.2458C172.233 25.6432 188.245 15.112 209.373 25.7185C230.501 36.325 248.567 63.7416 250.341 87.5429C252.3 113.706 235.494 121.793 214.366 111.187Z" fill="#08F7C8"/>
<path d="M185.006 52.06L185.061 62.7076C185.068 63.7552 185.629 64.7139 186.533 65.2343L231.042 90.6309C233.001 91.7471 235.432 90.3297 235.418 88.0769L235.363 77.4293C235.357 76.3817 234.795 75.4231 233.891 74.9027L189.382 49.506C187.423 48.3899 184.992 49.8073 185.006 52.06Z" fill="#FCFEFF"/>
<path d="M204.189 95.2597L213.585 100.621C215.544 101.737 217.975 100.32 217.961 98.0671L217.715 47.397C217.708 46.3494 217.146 45.3908 216.242 44.8704L206.846 39.5089C204.887 38.3928 202.456 39.8102 202.47 42.063L202.716 92.7331C202.716 93.7739 203.278 94.7393 204.189 95.2597Z" fill="#FCFEFF"/>
<path opacity="0.71" d="M410.638 179.448L461.29 207.125C462.94 208.029 464.296 210.651 464.296 212.952V248.147L466.844 262.075L453.304 247.688L410.638 224.38C408.987 223.476 407.631 220.854 407.631 218.553V182.002C407.631 179.688 408.987 178.544 410.638 179.448Z" fill="#699EFF"/>
<path d="M430.513 169.17L377.655 138.658C375.93 137.666 374.519 138.727 374.519 141.028V176.223L370.129 194.396L385.99 188.391L430.513 214.088C432.239 215.081 433.649 214.02 433.649 211.719V175.168C433.649 172.861 432.239 170.163 430.513 169.17Z" fill="white"/>
<path d="M395.893 175.36C395.893 177.99 394.037 179.044 391.743 177.723C389.449 176.401 387.593 173.197 387.593 170.567C387.593 167.938 389.449 166.883 391.743 168.205C394.037 169.526 395.893 172.731 395.893 175.36Z" fill="#699EFF"/>
<path d="M408.672 182.858C408.672 185.487 406.816 186.542 404.522 185.22C402.228 183.899 400.372 180.694 400.372 178.065C400.372 175.435 402.228 174.381 404.522 175.702C406.816 177.024 408.672 180.228 408.672 182.858Z" fill="#699EFF"/>
<path d="M420.255 193.007C421.865 192.066 421.848 189.043 420.218 186.255C418.588 183.467 415.961 181.97 414.351 182.911C412.742 183.852 412.758 186.875 414.388 189.663C416.019 192.451 418.645 193.948 420.255 193.007Z" fill="#699EFF"/>
<path d="M323.976 412.825L208.913 346.406C205.599 344.496 202.894 339.319 202.894 334.902V263.677C202.894 259.26 205.606 257.213 208.913 259.123L323.976 325.542C327.291 327.453 329.996 332.629 329.996 337.046V408.271C329.996 412.695 327.284 414.742 323.976 412.825Z" fill="#D9E9FF"/>
<path d="M247.984 343.952C256.702 338.863 256.417 322.146 247.347 306.614C238.277 291.082 223.857 282.616 215.139 287.705C206.42 292.794 206.706 309.511 215.776 325.043C224.846 340.575 239.266 349.041 247.984 343.952Z" fill="white"/>
<path d="M239.554 334.539C241.54 335.772 243.965 334.053 243.403 331.801C242.862 329.616 242.15 327.548 241.547 326.631C241.006 325.809 240.335 325.152 239.753 324.577C239.15 323.981 238.356 323.146 237.596 322.331C237.342 322.057 237.082 321.783 236.829 321.516L235.281 319.804C235.048 319.503 234.822 319.195 234.589 318.893C234.548 318.839 234.466 318.75 234.425 318.681C234.411 318.572 234.418 318.448 234.418 318.346C234.39 317.633 234.356 316.928 234.329 316.216C234.952 315.901 235.336 315.162 235.452 314.169C236.486 314.833 236.712 313.491 236.808 312.539C236.87 311.861 236.952 310.149 236.151 309.471C236.171 309.362 236.185 309.266 236.205 309.177C236.322 308.622 236.425 308.04 236.425 307.383C236.418 306.726 236.308 305.993 236.02 305.254C235.952 305.082 235.863 304.897 235.76 304.761C235.774 304.541 235.705 304.247 235.63 303.98C235.021 301.926 233.788 300.056 232.514 298.886C231.24 297.715 229.918 297.174 228.692 296.955C227.788 296.797 226.597 296.879 226.583 298.482C226.583 298.687 226.624 298.892 226.693 299.091C226.521 299.002 226.391 299.105 226.302 299.242C226.042 299.639 225.953 300.255 225.98 300.919C226.008 301.583 226.131 302.309 226.282 303.028C226.302 303.138 226.323 303.261 226.35 303.391C225.357 302.761 225.57 304.829 225.686 305.671C225.83 306.726 226.131 308.314 227.069 308.958C227.138 309.43 227.234 309.91 227.384 310.389C227.604 311.094 227.898 311.724 228.24 312.306C228.24 312.313 228.234 312.32 228.234 312.334C228.268 313.059 228.295 313.792 228.33 314.518C228.33 314.58 228.35 314.696 228.343 314.771C228.33 314.717 228.179 314.833 228.138 314.853C227.994 314.922 227.857 314.984 227.713 315.052C227.713 315.052 227.713 315.045 227.706 315.045L227.282 314.977L227.275 314.963L227.179 314.936C226.912 314.867 226.645 314.826 226.371 314.799L226.337 314.792C225.987 314.751 225.638 314.73 225.296 314.71C224.672 314.675 224.049 314.504 223.44 314.491C221.926 314.463 219.892 315.764 219.618 319.291C219.488 320.941 220.296 322.564 221.714 323.474L239.554 334.539ZM236.589 312.491C236.582 312.587 236.568 312.669 236.561 312.731C236.575 312.655 236.582 312.573 236.589 312.491Z" fill="#305DAD"/>
<path d="M295.548 336.422L263.579 316.928V327.699L295.548 347.193V336.422Z" fill="white"/>
<path d="M263.579 335.71V346.481L312.087 376.055V365.284L263.579 335.71Z" fill="white"/>
<path d="M252.873 352.297C264.155 345.703 264.04 324.52 252.617 304.984C241.194 285.448 222.788 274.957 211.506 281.551C200.225 288.145 200.339 309.328 211.763 328.864C223.186 348.4 241.592 358.892 252.873 352.297Z" stroke="white" stroke-width="1.5451" stroke-miterlimit="10" stroke-linecap="round" stroke-linejoin="round"/>
<path d="M272.764 277.913L272.688 277.871C272.688 277.878 272.715 277.899 272.764 277.913Z" fill="#FF619A"/>
<path d="M389.12 311.766L387.346 251.482C386.97 247.052 385.059 243.087 382.169 240.095C380.71 237.979 378.881 236.048 376.58 234.398C366.958 227.503 345.002 212.329 331.77 205.886C313.656 197.066 291.925 192.985 277.618 202.174C275.105 203.359 272.729 205.434 270.51 208.693C270.503 208.7 270.503 208.707 270.496 208.713C269.455 210.056 268.791 211.261 268.4 212.404C261.839 226.818 265.859 243.354 264.791 263.875C265.729 271.572 266.976 274.701 272.742 277.686L273.009 277.837C272.907 277.926 272.818 277.933 272.756 277.912L352.816 322.126C352.994 322.228 353.172 322.331 353.357 322.427L354.322 322.961C354.322 322.961 354.357 322.954 354.411 322.94C367.054 328.644 390.031 323.057 389.12 311.766Z" fill="url(#paint0_linear)"/>
<path d="M297.219 196.977C289.987 197.011 283.234 198.579 277.618 202.181C275.105 203.365 272.729 205.44 270.51 208.699C270.503 208.706 270.503 208.713 270.496 208.72C269.455 210.062 268.791 211.267 268.4 212.411C261.839 226.824 265.859 243.361 264.791 263.882C265.729 271.578 266.976 274.708 272.742 277.693L273.009 277.844C272.907 277.933 272.818 277.939 272.756 277.919L286.412 285.458C286.419 285.458 308.416 196.922 297.219 196.977Z" fill="#D9E9FF"/>
<path d="M389.12 311.765L387.346 251.481C386.969 247.051 385.058 243.087 382.168 240.094C380.71 237.979 378.881 236.048 376.58 234.397C366.958 227.502 367.266 226.845 353.802 220.908C341.536 215.499 316.669 302.145 316.614 302.131L352.822 322.132C353 322.235 353.178 322.337 353.363 322.433L354.329 322.967C354.329 322.967 354.363 322.961 354.418 322.947C367.053 328.644 390.03 323.056 389.12 311.765Z" fill="#D9E9FF"/>
<path d="M342.269 217.156L298.37 215.91L305.376 192.177C319.922 191.903 330.161 196.546 342.406 204.858L342.269 217.156Z" fill="#174082"/>
<path d="M313.019 220.908C313.019 220.908 316.504 222.113 319.586 221.442L330.763 240.382L330.188 241.005C328.394 242.936 325.099 242.731 323.908 240.608L313.019 220.908Z" fill="#152859"/>
<path d="M323.997 222.887C323.997 222.887 320.627 222.606 318.436 220.908L300.801 232.487L300.986 233.213C301.561 235.472 304.321 236.513 306.245 235.199L323.997 222.887Z" fill="#152859"/>
<path d="M317.265 237.623C317.265 238.978 316.306 239.526 315.121 238.841C313.936 238.157 312.978 236.506 312.978 235.151C312.978 233.795 313.936 233.247 315.121 233.932C316.306 234.61 317.265 236.267 317.265 237.623Z" fill="#152859"/>
<path d="M317.265 247.298C317.265 248.654 316.306 249.202 315.121 248.517C313.936 247.832 312.978 246.182 312.978 244.826C312.978 243.471 313.936 242.923 315.121 243.608C316.306 244.292 317.265 245.943 317.265 247.298Z" fill="#152859"/>
<path d="M316.649 258.351C317.479 257.866 317.469 256.306 316.627 254.866C315.785 253.426 314.43 252.652 313.601 253.137C312.771 253.622 312.782 255.182 313.623 256.622C314.465 258.061 315.82 258.836 316.649 258.351Z" fill="#152859"/>
<path d="M321.579 220.176C321.579 220.176 309.683 220.128 307.457 199.435L299.54 198.333C298.445 199.202 296.157 198.614 295.096 205.536C294.466 209.651 294.746 213.862 295.753 217.902L298.691 229.7C299.349 232.343 302.595 233.548 304.814 231.98L321.579 220.176Z" fill="#6CA4FF"/>
<path d="M321.888 220.23C321.888 220.23 318.518 219.95 316.326 218.251L298.691 229.83L298.876 230.556C299.452 232.816 302.212 233.856 304.136 232.542L321.888 220.23Z" fill="#FCFEFF"/>
<path d="M315.443 215.02L310.58 172.861L334.954 184.494L338.892 218.916C339.967 224.585 320.175 236.862 315.443 215.02Z" fill="#FFC2B0"/>
<path d="M314.471 207.96C314.841 209.022 327.161 204.927 326.791 203.599C326.791 203.599 321.456 211.459 315.32 213.918L314.471 207.96Z" fill="#D18B77"/>
<path d="M315.669 219.271C315.669 219.271 329.01 223.88 342.406 204.865L352.733 216.32C353.514 217.998 353.226 218.416 351.864 219.901L333.886 239.957C331.804 242.224 327.942 241.963 326.592 239.464L315.669 219.271Z" fill="#6CA4FF"/>
<path d="M315.669 219.272C315.669 219.272 318.833 219.806 321.887 219.6L333.633 239.553L333.057 240.177C331.263 242.108 327.969 241.902 326.777 239.779L315.669 219.272Z" fill="#FCFEFF"/>
<path d="M287.481 198.929C283.248 217.149 275.317 237.869 277.749 250.818L286.597 249.79L280.796 265.868L282.508 283.267L289.761 287.307C292.425 262.027 297.726 228.173 308.239 193.622C299.76 193.266 297.062 194.902 287.481 198.929Z" fill="white"/>
<path d="M368.917 226.797L343.447 271.825L330.777 269.36L331.599 289.197L322.805 305.555L312.505 299.837C316.895 284.931 322.833 267.559 330.66 249.777C336.338 236.89 343.748 217.122 342.406 204.858C350.905 209.206 361.801 219.046 368.917 226.797Z" fill="white"/>
<path d="M339.81 204.694C344.015 208.309 347.638 212.753 346.494 218.655C345.611 223.216 343.125 227.18 342.461 231.857C341.159 241.032 343.604 250.167 343.858 259.322C343.933 262.02 348.138 261.978 348.063 259.267C347.72 247.127 344.488 236.013 349.035 224.229C352.562 215.081 350.104 208.015 342.782 201.722C340.735 199.962 337.756 202.927 339.81 204.694Z" fill="#1E3980"/>
<path d="M344.597 222.894C339.098 233.295 325.606 239.649 326.298 253.173C326.435 255.864 330.64 255.829 330.503 253.118C329.879 240.902 343.214 234.507 348.234 225.003C349.501 222.613 345.864 220.504 344.597 222.894Z" fill="#1E3980"/>
<path d="M340.742 263.779L327.072 293.202C323.881 299.461 321.593 302.802 313.615 299.303C313.19 300.433 312.772 301.57 312.409 302.72L313.635 303.288C319.429 305.979 326.353 303.521 329.044 297.728L345.419 262.472C348.111 256.672 343.378 258.096 340.742 263.779Z" fill="#6CA4FF"/>
<path d="M309.868 297.564L314.203 299.015C315.422 299.426 316.087 300.755 315.676 301.973L315.464 302.603C315.053 303.822 313.724 304.486 312.505 304.076L308.17 302.624C306.951 302.213 306.286 300.885 306.697 299.666L306.91 299.036C307.314 297.817 308.649 297.153 309.868 297.564Z" fill="#1E3980"/>
<path d="M330.51 259.678L330.544 292.12C330.812 299.139 331.476 303.138 340.194 303.309C340.105 304.514 340.002 305.719 339.852 306.917H338.502C332.113 306.924 326.867 301.782 326.86 295.393L326.819 256.521C326.812 250.133 330.503 253.412 330.51 259.678Z" fill="#6CA4FF"/>
<path d="M344.323 303.302L339.783 302.795C338.502 302.652 337.345 303.583 337.201 304.863L337.125 305.521C336.982 306.801 337.913 307.958 339.194 308.102L343.734 308.609C345.015 308.753 346.172 307.821 346.316 306.541L346.392 305.884C346.535 304.61 345.604 303.446 344.323 303.302Z" fill="#1E3980"/>
<path d="M343.276 261.78L345.529 262.43C346.7 262.766 347.919 262.088 348.255 260.917L348.597 259.712C348.933 258.541 348.255 257.322 347.084 256.987L344.831 256.336C343.66 256.001 342.441 256.679 342.105 257.85L341.756 259.055C341.427 260.226 342.105 261.444 343.276 261.78Z" fill="#1E3980"/>
<path d="M327.523 257.446L329.866 257.624C331.078 257.713 332.139 256.809 332.228 255.59L332.324 254.344C332.413 253.132 331.509 252.07 330.29 251.981L327.948 251.803C326.736 251.714 325.674 252.618 325.585 253.837L325.489 255.083C325.4 256.295 326.311 257.357 327.523 257.446Z" fill="#1E3980"/>
<path d="M292.644 261.951C294.185 246.223 294.562 230.262 297.096 214.643C298.76 204.393 301.767 192.157 313.512 189.849C315.854 189.39 315.56 185.645 313.19 186.111C302.362 188.24 297.363 196.744 294.829 206.844C290.419 224.421 290.72 243.313 288.96 261.26C288.727 263.65 292.411 264.355 292.644 261.951Z" fill="#1E3980"/>
<path d="M280.488 263.478C278.468 268.641 281.022 274.461 286.186 276.481C291.35 278.501 297.171 275.947 299.191 270.784C301.212 265.621 298.657 259.801 293.493 257.781C288.329 255.768 282.508 258.315 280.488 263.478Z" fill="url(#paint1_linear)"/>
<path d="M290.75 272.729C295.002 272.341 298.134 268.579 297.746 264.328C297.357 260.076 293.595 256.944 289.343 257.333C285.09 257.721 281.958 261.483 282.347 265.735C282.735 269.986 286.498 273.118 290.75 272.729Z" fill="#FBFBFF"/>
<path d="M291.025 269.697C295.286 269.411 298.507 265.726 298.221 261.466C297.934 257.206 294.248 253.985 289.988 254.272C285.727 254.558 282.506 258.244 282.792 262.503C283.079 266.763 286.765 269.984 291.025 269.697Z" fill="#1E3980"/>
<path d="M316.901 208.001L306.471 208.453C294.157 209.151 285.953 199.647 285.254 187.336L282.953 146.69C282.255 134.379 291.76 123.738 304.074 123.04L312.066 122.588C324.38 121.889 335.023 131.393 335.721 143.705L338.022 184.35C338.714 196.662 329.215 207.303 316.901 208.001Z" fill="#FFC2B0"/>
<path d="M315.669 154.53C307.389 158.666 296.281 159.399 286.919 156.037C276.756 152.387 269.551 140.651 277.283 133.112C281.461 129.038 292.699 124.046 301.719 120.143C327.291 109.071 354.966 120.561 356.631 150.004C356.631 150.004 359.945 190.315 336.564 196.819L334.9 190.951C334.9 190.951 344.166 181.961 333.469 174.573C330.236 172.34 327.017 166.787 327.216 161.878C327.415 156.92 320.114 152.312 315.669 154.53Z" fill="#305DAD"/>
<path d="M344.194 179.235C345.261 174.007 343.197 169.171 339.584 168.434C335.97 167.697 332.176 171.337 331.109 176.566C330.043 181.794 332.107 186.629 335.72 187.367C339.334 188.104 343.128 184.463 344.194 179.235Z" fill="#FFC2B0"/>
<path d="M310.102 180.53C310.266 182.248 309.704 183.714 308.855 183.796C307.999 183.878 307.177 182.549 307.013 180.824C306.849 179.105 307.41 177.64 308.259 177.558C309.115 177.476 309.937 178.804 310.102 180.53Z" fill="#1D3570"/>
<path d="M293.35 172.669C293.555 174.388 293.028 175.86 292.179 175.963C291.33 176.065 290.473 174.751 290.268 173.032C290.063 171.313 290.59 169.841 291.439 169.738C292.295 169.642 293.144 170.957 293.35 172.669Z" fill="#1D3570"/>
<path d="M306.835 172.347C309.465 172.34 311.971 173.915 313.745 175.75C315.259 177.312 317.635 174.929 316.128 173.367C313.738 170.896 310.341 168.965 306.835 168.978C304.664 168.985 304.664 172.354 306.835 172.347Z" fill="#1D3570"/>
<path d="M288.042 163.569C290.508 163.631 292.74 164.747 294.384 166.562C295.843 168.171 298.219 165.788 296.767 164.179C294.541 161.714 291.357 160.276 288.042 160.2C285.871 160.146 285.878 163.514 288.042 163.569Z" fill="#1D3570"/>
<path d="M296.116 188.404C295.007 188.404 293.842 188.076 293.041 186.98C292.281 185.939 291.466 183.796 294.561 181.167C297.26 178.866 297.657 174.21 297.664 174.162C297.691 173.813 297.992 173.559 298.342 173.58C298.691 173.607 298.951 173.915 298.924 174.258C298.91 174.47 298.479 179.489 295.383 182.125C293.616 183.632 293.178 185.008 294.068 186.234C295.417 188.076 298.725 186.549 298.76 186.528C299.075 186.377 299.451 186.514 299.602 186.829C299.753 187.144 299.616 187.521 299.301 187.672C299.191 187.719 297.712 188.404 296.116 188.404Z" fill="#D18B77"/>
<path d="M335.372 176.832C335.372 176.832 339.118 172.683 340.577 176.517C342.043 180.352 336.742 184.385 336.742 184.385C336.742 184.385 339.351 181.023 337.413 179.283C335.482 177.544 335.372 176.832 335.372 176.832Z" fill="#D18B77"/>
<path d="M292.48 189.65L304.28 194.704C304.766 194.909 305.067 195.416 304.992 195.943C304.718 197.819 303.39 201.784 296.945 199.483C292.432 197.874 291.165 193.485 290.816 190.89C290.699 189.979 291.631 189.287 292.48 189.65Z" fill="white"/>
<path d="M295.178 261.321C295.178 263.697 293.254 265.621 290.877 265.621C288.501 265.621 286.576 263.697 286.576 261.321C286.576 258.945 288.501 257.021 290.877 257.021C293.247 257.021 295.178 258.945 295.178 261.321Z" fill="#25469E"/>
<path d="M94.5834 307.623C100.679 315.853 111.157 332.512 121.382 334.252C135.524 336.662 146.639 318.222 155.905 308.314C160.056 303.877 153.94 296.523 149.735 301.015C142.236 309.033 132.298 316.654 120.642 314.477C112.855 313.025 106.479 307.664 101.877 301.453C98.2268 296.509 90.9331 302.686 94.5834 307.623Z" fill="#E2B134"/>
<path opacity="0.4" d="M120.526 508.541C139.642 508.203 155.002 500.232 154.834 490.738C154.666 481.244 139.033 473.822 119.917 474.161C100.801 474.499 85.441 482.469 85.6091 491.963C85.7772 501.457 101.41 508.879 120.526 508.541Z" fill="#A8C4E5"/>
<path d="M94.8304 479.894L102.357 478.949C107.398 476.669 109.747 474.95 111.993 476.244L112.63 476.614C114.876 477.908 114.589 480.195 112 481.688L100.932 490.48C98.3437 491.973 94.851 491.5 92.7827 489.686C92.7827 489.686 91.5431 488.57 92.4266 483.866C92.9334 481.188 92.7553 481.092 94.8304 479.894Z" fill="#2C1F9C"/>
<path d="M103.726 480.223C103.124 485.427 93.5903 485.427 93.5903 481.462L98.8706 361.367L130.675 352.404L103.726 480.223Z" fill="#FFC2B0"/>
<path d="M126.662 491.37L134.121 492.774C139.613 492.144 142.38 491.233 144.119 493.151L144.613 493.692C146.352 495.609 145.38 497.697 142.462 498.327L129.237 503.312C126.313 503.942 123.135 502.429 121.725 500.066C121.725 500.066 120.889 498.622 123.17 494.417C124.464 492.021 124.32 491.877 126.662 491.37Z" fill="#2C1F9C"/>
<path d="M132.751 494.554C131.086 498.758 123.806 497.834 123.93 494.39C127.333 452.772 119.499 413.475 109.404 375.233L139.948 371.932C141.14 416.68 140.736 455.025 132.751 494.554Z" fill="#FFC2B0"/>
<path d="M138.058 361.1L148.681 419.385C148.681 419.385 122.286 445.535 92.0908 419.385L95.4877 364.654L138.058 361.1Z" fill="#2C1F9C"/>
<path d="M121.08 291.167C126.425 290.476 129.771 282.276 128.552 272.851C127.334 263.427 122.013 256.347 116.667 257.038C111.322 257.729 107.977 265.929 109.196 275.353C110.414 284.778 115.735 291.858 121.08 291.167Z" fill="#FFC2B0"/>
<path d="M136.264 280.952C133.99 288.868 125.505 291.73 120.519 286.56C115.533 281.397 113.328 270.791 115.602 262.875C117.875 254.96 123.758 252.734 128.744 257.897C133.73 263.074 138.531 273.044 136.264 280.952Z" fill="#FFC2B0"/>
<path d="M117.068 303.795L116.218 303.603C113.356 302.966 111.534 300.097 112.171 297.235L115.773 281.082C116.41 278.22 119.28 276.399 122.142 277.035L122.992 277.227C125.854 277.864 127.676 280.733 127.039 283.595L125.861 299.625C125.224 302.487 119.93 304.432 117.068 303.795Z" fill="#FFC2B0"/>
<path d="M110.294 282.096C110.294 282.096 109.308 287.58 118.889 288.115C126.553 288.539 124.279 274.68 131.874 273.441C140.236 272.078 141.75 261.752 138.455 257.788C135.161 253.823 125.957 251.755 119.286 254.693C112.616 257.63 98.6173 259.774 110.294 282.096Z" fill="#4432DB"/>
<path d="M131.901 277.727C131.347 279.651 129.34 280.761 127.415 280.213C125.491 279.658 124.382 277.652 124.929 275.728C125.484 273.804 127.491 272.694 129.415 273.242C131.347 273.797 132.456 275.803 131.901 277.727Z" fill="#FFC2B0"/>
<path d="M95.3506 364.038C98.0558 349.206 95.1451 337.491 95.3848 321.728C95.3848 293.387 94.022 286.471 109.013 290.778L113.239 291.901C115.266 292.442 117.239 293.202 119.101 294.161C138.86 304.336 144.133 307.479 143.263 319.284C143.352 338.73 134.298 342.695 139.113 359.717C135.031 373.165 99.8706 373.658 95.3506 364.038Z" fill="#FFD15B"/>
<path d="M126.635 289.169L125.779 287.183C125.779 287.183 127.306 288.717 130.224 288.34C130.217 288.34 128.498 289.326 126.635 289.169Z" fill="#F09A82"/>
<path d="M111.027 274.557C114.84 274.557 117.931 270.967 117.931 266.539C117.931 262.11 114.84 258.521 111.027 258.521C107.215 258.521 104.124 262.11 104.124 266.539C104.124 270.967 107.215 274.557 111.027 274.557Z" fill="#2C1F9C"/>
<path d="M110.849 264.033C111.178 259.924 105.576 258.117 103.377 261.602C102.658 262.739 102.021 264.334 101.521 266.525C98.7339 278.857 77.9621 277.07 88.1528 298.762C88.1528 298.762 78.8799 312.998 96.1108 318.996C104.932 322.064 104.733 299.365 104.733 299.365C104.733 299.365 108.253 288.923 111.65 280.733C113.246 276.892 113.397 272.516 111.698 268.723C111 267.169 110.719 265.608 110.849 264.033Z" fill="#4432DB"/>
<path d="M113.109 289.95C111.465 289.553 109.959 290.997 110.239 292.661C110.548 294.51 111.678 296.722 115.054 297.865C119.725 299.447 124.861 298.598 127.327 298.009C127.909 297.872 128.025 297.098 127.518 296.783C124.731 295.058 118.054 291.148 113.109 289.95Z" fill="#2C1F9C"/>
<path d="M156.31 305.733L159.926 302.562C161.809 300.912 162.001 298.029 160.35 296.146C158.7 294.263 155.817 294.072 153.933 295.722L150.317 298.892C148.434 300.542 148.249 303.425 149.893 305.308C151.536 307.191 154.426 307.383 156.31 305.733Z" fill="#FFC2B0"/>
<path d="M139.106 338.853L130.039 319.954C129.203 333.444 131.429 345.529 137.634 353.951L139.106 338.853Z" fill="#E2B134"/>
<path d="M126.381 319.53C126.381 319.53 142.517 365.585 159.296 346.043C170.883 332.547 168.664 306.678 168.664 306.678L161.261 306.808C161.261 306.808 160.124 337.648 151.05 334.471C141.982 331.294 146.009 310.553 141.626 309.554C137.25 308.547 126.381 319.53 126.381 319.53Z" fill="#FFD15B"/>
<path d="M164.569 313.518C162.227 313.141 160.61 310.923 160.987 308.574L162.597 298.509C162.973 296.167 165.192 294.551 167.541 294.928C169.883 295.304 171.5 297.523 171.123 299.871L169.514 309.937C169.137 312.285 166.911 313.895 164.569 313.518Z" fill="#FFC2B0"/>
<path d="M164.37 313.1L152.844 307.273C152.159 306.938 151.803 305.979 152.05 305.137L158.508 283.109C158.755 282.267 159.508 281.856 160.193 282.198L171.63 287.827C172.315 288.162 172.671 289.121 172.424 289.963L165.994 311.888C165.829 312.443 165.583 312.553 165.09 312.765L164.37 313.1Z" fill="#97CBFF"/>
<path d="M161.967 292.388C161.967 292.388 151.803 305.98 152.05 305.137L158.392 282.411L159.33 282.144C159.604 282.041 159.905 282.055 160.193 282.199L171.63 287.827C171.965 287.992 172.219 288.307 172.363 288.676L161.967 292.388Z" fill="#97CBFF"/>
<path d="M163.309 313.156L151.906 307.528C151.221 307.192 150.899 306.234 151.146 305.392L157.604 283.364C157.851 282.522 158.59 282.111 159.275 282.453L170.671 288.082C171.356 288.417 171.671 289.376 171.425 290.218L164.966 312.246C164.72 313.088 163.994 313.492 163.309 313.156Z" fill="#2C1F9C"/>
<path d="M171.308 291.895L170.938 293.155C170.911 293.244 170.966 293.278 171.061 293.237L171.048 293.23C171.144 293.189 171.198 293.086 171.219 292.997L171.589 291.737C171.616 291.648 171.603 291.607 171.507 291.648L171.5 291.662C171.411 291.703 171.335 291.813 171.308 291.895Z" fill="#45446C"/>
<path d="M170.664 294.099L170.294 295.359C170.267 295.448 170.322 295.483 170.417 295.442L170.404 295.435C170.5 295.394 170.554 295.291 170.575 295.202L170.945 293.942C170.972 293.853 170.958 293.812 170.863 293.853L170.856 293.867C170.76 293.908 170.685 294.01 170.664 294.099Z" fill="#45446C"/>
<path d="M164.316 309.533L153.084 304.007L158.72 284.588L169.884 290.08L164.076 309.047C164.028 309.211 164.466 309.608 164.316 309.533Z" fill="#DBEDFF"/>
<path d="M166.576 287.553L163.049 285.814C162.926 285.752 162.857 285.581 162.905 285.424C162.953 285.273 163.09 285.198 163.213 285.259L166.74 286.999C166.864 287.06 166.932 287.231 166.884 287.389C166.843 287.539 166.706 287.615 166.576 287.553Z" fill="white"/>
<path d="M167.897 309.423L168.671 306.678C167.685 306.821 167.247 311.019 167.124 310.204L165.185 298.892C165.069 298.077 165.774 297.297 166.761 297.153C167.747 297.009 168.644 297.557 168.767 298.372L169.589 303.98C169.699 304.795 168.877 309.28 167.897 309.423Z" fill="#FFC2B0"/>
<path d="M434.115 384.402C434.115 379.458 431.478 374.891 427.198 372.419L360.883 334.136C357.254 332.04 354.281 334.286 354.281 339.127V382.519C354.281 387.1 356.726 391.338 360.698 393.625L421.61 428.786C427.171 431.997 434.122 427.985 434.122 421.562V384.402H434.115Z" fill="#D9E9FF"/>
<path d="M401.796 381.642V393.454L424.41 407.244V395.433L401.796 381.642Z" fill="white"/>
<path d="M384.976 362.579C381.819 361.853 379.696 363.243 378.224 364.674C377.772 365.119 376.847 364.579 376.402 363.606C374.895 360.32 372.676 356.122 369.642 353.719C363.842 349.131 359.685 352.609 361.342 360.183C363.116 369.269 377.135 389.893 377.135 389.893L377.477 390.092C377.477 390.092 391.496 385.655 393.27 378.616C394.941 372.966 391.373 364.044 384.976 362.579Z" fill="#E655BE"/>
<path d="M379.039 381.629C379.025 381.622 379.012 381.615 378.998 381.601C378.498 381.293 378.067 380.684 377.895 380.04L375.45 370.789L374.183 373.809C374.005 374.24 373.553 374.336 373.053 374.049L368.705 371.536C368.369 371.344 368.164 370.981 368.164 370.591C368.164 369.755 369.068 369.228 369.794 369.646L372.389 371.145L374.362 366.441C374.54 366.01 374.998 365.914 375.492 366.202C375.498 366.202 375.498 366.208 375.505 366.208C376.012 366.51 376.464 367.14 376.635 367.783L379.135 377.246L380.162 375.151C380.354 374.754 380.792 374.678 381.272 374.959L385.963 377.664C386.299 377.856 386.504 378.219 386.504 378.609C386.504 379.444 385.6 379.971 384.874 379.554L381.916 377.842L380.162 381.437C379.957 381.834 379.525 381.902 379.039 381.629Z" fill="white"/>
<path opacity="0.4" d="M325.011 490.186L311.923 483.517C311.313 483.209 310.786 482.791 310.355 482.305C303.472 481.476 296.247 481.935 289.816 483.667C286.837 485.003 283.768 486.694 280.413 488.625L268.188 495.999C268.174 496.006 268.167 496.02 268.154 496.027L228.816 519.965C217.42 526.477 212.502 530.613 217.57 535.871C219.495 533.276 223.665 530.53 229.596 527.141L268.935 503.203C268.948 503.196 268.955 503.182 268.969 503.175L281.193 495.801C291.733 489.741 299.465 485.968 310.403 488.467C310.909 489.392 311.69 490.179 312.697 490.693L325.784 497.362C328.462 498.725 331.77 497.65 333.133 494.972C334.27 492.74 333.708 490.076 331.941 488.46C330.414 490.645 327.455 491.432 325.011 490.186Z" fill="#A8C4E5"/>
<path opacity="0.4" d="M360.52 538.829C360.986 538.637 361.253 538.528 361.253 538.528L369.608 533.536C380.333 524.073 375.053 514.494 372.279 508.317C371.409 512.227 374.286 521.663 369.136 524.689L360.472 531.352C360.472 531.352 360.212 531.461 359.74 531.653C359.596 531.817 359.424 531.968 359.205 532.098L310.135 561.158C297.924 568.32 282.549 570.498 264.38 557.919C260.6 559.029 255.84 558.72 252.621 556.94L237.369 547.607C235.575 548.833 233.719 550.182 231.986 551.496L245.293 559.624L253.402 564.109C256.621 565.89 261.374 566.205 265.161 565.088C283.33 577.667 298.705 575.489 310.916 568.327L359.986 539.267C360.205 539.151 360.376 539 360.52 538.829Z" fill="#A8C4E5"/>
<path opacity="0.4" d="M230.754 544.15C227.61 542.41 226.83 539.767 228.439 537.576C223.309 534.803 220.2 531.996 218.646 529.236C217.057 534.152 219.529 539.514 229.22 544.752C227.617 546.95 228.398 549.593 231.535 551.325L231.767 551.456C233.48 550.141 235.199 548.84 236.952 547.58L230.754 544.15Z" fill="#A8C4E5"/>
<path opacity="0.4" d="M361.507 507.031C360.144 507.51 358.589 507.462 357.206 506.757L344.118 500.088C343.673 499.862 343.276 499.574 342.92 499.252C342.769 499.464 342.632 499.677 342.516 499.916C341.153 502.594 342.228 505.901 344.906 507.264L357.994 513.933C359.377 514.638 360.925 514.686 362.288 514.207C363.692 515.323 364.76 516.377 365.548 517.398C367.376 514.227 366.493 510.988 361.507 507.031Z" fill="#A8C4E5"/>
<path d="M341.926 542.815C342.392 542.623 366.095 528.757 366.095 528.757C371.252 525.731 374.245 521.958 375.114 518.048C376.375 512.385 373.176 506.449 365.602 502.148L363.766 501.108C364.225 502.457 364.17 503.984 363.472 505.353C362.814 506.647 361.698 507.565 360.417 508.01C365.403 511.967 366.28 515.206 364.458 518.377C362.629 521.554 358.082 524.669 352.226 528.36L336.934 537.104C336.934 537.097 343.823 540.624 341.926 542.815Z" fill="#D9E9FF"/>
<path d="M271.839 554.564L268.284 556.708C267.469 557.201 266.538 557.584 265.545 557.878C283.714 570.457 299.089 568.28 311.3 561.117C311.3 561.117 344.831 541.287 344.975 541.123C346.872 538.939 342.858 533.612 340.057 535.296L312.951 551.045C298.096 560.474 290.522 562.631 273.996 552.62C273.517 553.318 272.798 553.982 271.839 554.564Z" fill="#2C1F9C"/>
<path d="M234.733 540.527C232.363 539.548 230.268 538.562 228.432 537.576C226.83 539.774 227.61 542.417 230.747 544.149L236.945 547.58C240.595 544.95 242.123 547.477 239.719 549.114L253.779 556.892C256.998 558.672 261.751 558.987 265.538 557.871C266.531 557.577 267.462 557.193 268.277 556.7L271.832 554.557C272.797 553.975 273.51 553.311 273.982 552.606C275.434 550.442 274.605 547.888 271.544 546.19L248.505 533.447C245.417 531.742 240.917 531.379 237.219 532.338C239.363 533.563 241.945 534.878 244.992 536.302L234.733 540.527Z" fill="#2C1F9C"/>
<path d="M268.195 496.006L280.42 488.632C283.775 486.701 286.843 485.01 289.823 483.674C296.205 480.812 302.177 479.593 309.636 481.298C308.786 479.765 308.69 477.847 309.54 476.17C309.718 475.82 309.937 475.499 310.177 475.197C299.253 473.759 287.33 475.581 279.139 480.648L263.168 490.344C266.483 488.207 269.907 494.849 268.195 496.006Z" fill="#D9E9FF"/>
<path d="M228.432 537.569C230.268 538.562 232.357 539.548 234.733 540.521L244.999 536.296C241.945 534.872 239.369 533.564 237.226 532.331C234.356 530.688 232.281 529.195 230.918 527.785C225.85 522.519 230.768 518.383 242.164 511.878L265.805 497.492C265.819 497.485 271.921 493.753 271.928 493.74C273.64 492.583 270.715 485.626 267.401 487.762L228.152 511.235C220.269 516.11 214.865 522.519 218.639 529.216C220.194 531.996 223.303 534.803 228.432 537.569Z" fill="#2C1F9C"/>
<path d="M309.629 481.291C309.827 481.654 310.074 481.99 310.355 482.305C310.786 482.791 311.314 483.202 311.923 483.517L325.011 490.186C327.456 491.432 330.414 490.638 331.955 488.46C332.106 488.248 332.243 488.036 332.359 487.796C333.722 485.119 332.647 481.812 329.969 480.449L316.881 473.78C314.553 472.595 311.759 473.253 310.163 475.197C309.923 475.492 309.711 475.813 309.526 476.169C308.684 477.84 308.786 479.757 309.629 481.291Z" fill="#2C1F9C"/>
<path d="M356.117 507.735C357.5 508.441 359.048 508.489 360.418 508.009C361.692 507.557 362.808 506.647 363.472 505.353C364.171 503.99 364.226 502.463 363.767 501.107C363.322 499.806 362.397 498.67 361.089 497.999L348.001 491.329C345.323 489.967 342.016 491.042 340.653 493.719C339.516 495.951 340.077 498.615 341.844 500.231C342.2 500.553 342.598 500.84 343.043 501.066L356.117 507.735Z" fill="#2C1F9C"/>
<path opacity="0.4" d="M203.593 526.785C195.593 531.4 182.588 531.38 174.534 526.73C166.487 522.081 166.446 514.576 174.445 509.954C182.444 505.339 195.45 505.36 203.504 510.009C211.551 514.658 211.592 522.163 203.593 526.785Z" fill="#A8C4E5"/>
<path d="M206.602 514.219C206.638 507.669 197.468 502.31 186.121 502.249C174.774 502.187 165.546 507.447 165.511 513.997C165.476 520.547 174.645 525.906 185.992 525.968C197.34 526.029 206.567 520.769 206.602 514.219Z" fill="#6D9CD6"/>
<path d="M206.235 505.614C206.27 499.064 197.1 493.704 185.753 493.643C174.406 493.581 165.179 498.841 165.143 505.391C165.108 511.941 174.278 517.3 185.625 517.362C196.972 517.423 206.199 512.163 206.235 505.614Z" fill="#D9E9FF"/>
<path d="M197.047 504.685C197.066 501.18 192.16 498.311 186.089 498.279C180.018 498.246 175.082 501.061 175.063 504.567C175.044 508.073 179.95 510.941 186.021 510.974C192.091 511.006 197.028 508.191 197.047 504.685Z" fill="#2C1F9C"/>
<path d="M248.444 541.178L228.699 552.332C217.892 558.7 211.77 564.24 194.265 574.127C187.053 578.202 181.451 584.515 165.741 594.183C155.324 600.592 140.401 604.317 134.559 588.384C129.998 575.949 147.078 559.693 164.172 548.019C181.937 535.878 183.752 504.627 183.752 504.627" stroke="#2C1F9C" stroke-width="10.4125" stroke-miterlimit="10" stroke-linecap="round" stroke-linejoin="round"/>
<path d="M548 58.5C548 56.1804 549.88 54.3 552.2 54.3H564.8C567.12 54.3 569 56.1804 569 58.5C569 60.8196 567.12 62.7 564.8 62.7H552.2C549.88 62.7 548 60.8196 548 58.5Z" fill="#FFD15B"/>
<path d="M558.5 69C556.18 69 554.3 67.1196 554.3 64.8V52.2C554.3 49.8804 556.18 48 558.5 48C560.82 48 562.7 49.8804 562.7 52.2V64.8C562.7 67.1196 560.82 69 558.5 69Z" fill="#FFD15B"/>
<path d="M494 546.5C494 544.401 495.701 542.7 497.8 542.7H509.2C511.299 542.7 513 544.401 513 546.5C513 548.599 511.299 550.3 509.2 550.3H497.8C495.701 550.3 494 548.599 494 546.5Z" fill="#FFD15B"/>
<path d="M503.5 556C501.401 556 499.7 554.299 499.7 552.2V540.8C499.7 538.701 501.401 537 503.5 537C505.599 537 507.3 538.701 507.3 540.8V552.2C507.3 554.299 505.599 556 503.5 556Z" fill="#FFD15B"/>
<defs>
<linearGradient id="paint0_linear" x1="292.792" y1="298.974" x2="367.183" y2="224.569" gradientUnits="userSpaceOnUse">
<stop stop-color="#88BEFF"/>
<stop offset="0.1358" stop-color="#80B3FD"/>
<stop offset="0.3739" stop-color="#6C96F8"/>
<stop offset="0.4839" stop-color="#6186F5"/>
<stop offset="0.9946" stop-color="#366BC1"/>
</linearGradient>
<linearGradient id="paint1_linear" x1="279.797" y1="267.135" x2="299.882" y2="267.135" gradientUnits="userSpaceOnUse">
<stop stop-color="#88BEFF"/>
<stop offset="0.1358" stop-color="#80B3FD"/>
<stop offset="0.3739" stop-color="#6C96F8"/>
<stop offset="0.4839" stop-color="#6186F5"/>
<stop offset="0.9946" stop-color="#366BC1"/>
</linearGradient>
</defs>
</svg>
