<svg width="748" height="614" viewBox="0 0 748 614" fill="none" xmlns="http://www.w3.org/2000/svg">
<path opacity="0.4" d="M242.677 464.317L242.204 464.064L238.848 462.249L233.541 459.38L221.104 452.656C216.077 449.938 209.626 451.403 206.77 455.909C203.914 460.414 205.688 466.323 210.721 469.042L222.891 475.615L226.007 477.3L226.473 477.553L227.596 478.162L232.294 480.703C237.321 483.421 243.773 481.956 246.628 477.45C249.484 472.945 247.704 467.035 242.677 464.317Z" fill="#CAD9EB"/>
<path d="M203.086 467.747L226.391 480.983C231.945 484.14 239.068 482.175 242.225 476.622C245.382 471.068 243.417 463.94 237.863 460.791L214.557 447.555C209.003 444.398 201.88 446.363 198.723 451.917C195.566 457.463 197.531 464.591 203.086 467.747Z" fill="#E1E8F2"/>
<path d="M238.376 461.085L231.952 457.436C226.398 454.279 219.275 456.244 216.118 461.797C212.961 467.351 214.926 474.479 220.481 477.628L221.72 478.334L226.905 481.278C232.459 484.435 239.581 482.469 242.738 476.916C245.896 471.363 243.93 464.235 238.376 461.085Z" fill="#4285FF"/>
<path d="M236.623 460.086L228.295 455.354C222.741 452.197 217.522 455.245 214.365 460.798C211.208 466.351 210.975 472.226 216.529 475.382L219.967 477.334L225.151 480.278C230.706 483.435 237.828 481.47 240.985 475.917C244.143 470.363 242.177 463.242 236.623 460.086Z" fill="#2964D6"/>
<path opacity="0.61" d="M227.898 469.247L203.051 456.141C201.9 455.539 201.462 454.101 202.065 452.95C202.667 451.8 204.106 451.355 205.256 451.964L230.103 465.07C231.253 465.673 231.692 467.111 231.089 468.261C230.479 469.411 229.041 469.856 227.898 469.247Z" fill="#F3F3F3"/>
<path opacity="0.4" d="M180.375 453.695C188.792 453.529 195.532 449.131 195.429 443.872C195.325 438.613 188.417 434.484 179.999 434.649C171.581 434.815 164.841 439.213 164.945 444.472C165.049 449.732 171.957 453.861 180.375 453.695Z" fill="#89A8CC"/>
<path d="M176.39 452.544C184.808 452.378 191.548 447.98 191.444 442.721C191.34 437.462 184.432 433.333 176.014 433.499C167.596 433.664 160.856 438.062 160.96 443.322C161.064 448.581 167.972 452.71 176.39 452.544Z" fill="#E1E8F2"/>
<path d="M191.366 437.078L160.882 437.681L161.003 443.774L191.487 443.17L191.366 437.078Z" fill="#E1E8F2"/>
<path d="M176.295 447.558C184.713 447.392 191.453 442.994 191.349 437.735C191.245 432.476 184.337 428.346 175.92 428.512C167.502 428.678 160.762 433.076 160.865 438.335C160.969 443.594 167.877 447.724 176.295 447.558Z" fill="#F3F3F3"/>
<path d="M176.23 444.348C182.387 444.227 187.316 441.011 187.24 437.166C187.164 433.321 182.112 430.302 175.956 430.423C169.799 430.544 164.87 433.76 164.946 437.605C165.022 441.45 170.074 444.469 176.23 444.348Z" fill="#E1E8F2"/>
<path d="M183.355 438.153L167.836 438.632C167.014 438.659 166.315 438.002 166.288 437.18C166.261 436.359 166.918 435.66 167.74 435.633L183.259 435.154C184.081 435.126 184.779 435.784 184.806 436.605C184.834 437.434 184.183 438.125 183.355 438.153Z" fill="#C2D6F2"/>
<path opacity="0.1" d="M263.237 450.013L262.97 449.862L206.606 417.331L262.888 384.847L263.155 384.998L319.519 417.529L263.237 450.013ZM208.723 417.324L263.237 448.794L317.403 417.522L262.888 386.052L208.723 417.324Z" fill="#66A3DE"/>
<path opacity="0.1" d="M318.806 482.085L318.539 481.935L262.175 449.403L318.457 416.92L318.724 417.07L375.088 449.602L318.806 482.085ZM264.292 449.403L318.806 480.874L372.971 449.602L318.457 418.132L264.292 449.403Z" fill="#66A3DE"/>
<path opacity="0.1" d="M208.01 481.887L207.743 481.736L151.379 449.205L207.661 416.721L207.928 416.872L264.292 449.403L208.01 481.887ZM153.496 449.198L208.01 480.668L262.176 449.397L207.661 417.926L153.496 449.198Z" fill="#66A3DE"/>
<path opacity="0.1" d="M263.58 513.967L263.312 513.816L206.949 481.284L263.23 448.801L263.497 448.951L319.861 481.483L263.58 513.967ZM209.065 481.278L263.58 512.748L317.745 481.476L263.23 450.006L209.065 481.278Z" fill="#66A3DE"/>
<path opacity="0.1" d="M319.148 546.039L318.881 545.889L262.518 513.357L318.799 480.874L319.066 481.024L375.43 513.556L319.148 546.039ZM264.634 513.357L319.148 544.827L373.314 513.556L318.799 482.085L264.634 513.357Z" fill="#66A3DE"/>
<path opacity="0.1" d="M374.718 578.12L374.451 577.969L318.087 545.437L374.369 512.954L374.636 513.104L431 545.636L374.718 578.12ZM320.21 545.43L374.725 576.901L428.89 545.629L374.376 514.159L320.21 545.43Z" fill="#66A3DE"/>
<path opacity="0.1" d="M152.79 513.761L152.523 513.61L96.1592 481.079L152.441 448.595L152.708 448.746L209.072 481.277L152.79 513.761ZM98.2754 481.079L152.79 512.549L206.955 481.284L152.441 449.814L98.2754 481.079Z" fill="#66A3DE"/>
<path opacity="0.1" d="M208.359 545.841L208.092 545.69L151.729 513.152L208.01 480.668L208.277 480.819L264.641 513.35L208.359 545.841ZM153.845 513.152L208.359 544.622L262.525 513.357L208.01 481.887L153.845 513.152Z" fill="#66A3DE"/>
<path opacity="0.1" d="M263.929 577.921L263.662 577.77L207.298 545.239L263.579 512.755L263.846 512.906L320.21 545.437L263.929 577.921ZM209.414 545.232L263.929 576.702L318.094 545.43L263.579 513.96L209.414 545.232Z" fill="#66A3DE"/>
<path opacity="0.1" d="M319.498 610L319.231 609.849L262.867 577.318L319.149 544.834L319.416 544.985L375.78 577.516L319.498 610ZM264.983 577.311L319.498 608.781L373.663 577.51L319.149 546.039L264.983 577.311Z" fill="#66A3DE"/>
<path opacity="0.1" d="M207.736 609.418L207.469 609.267L151.105 576.736L207.387 544.252L207.654 544.403L264.018 576.934L207.736 609.418ZM153.222 576.736L207.736 608.206L261.902 576.934L207.387 545.464L153.222 576.736Z" fill="#66A3DE"/>
<path d="M307.737 73.4525C349.939 21.5947 418.932 7.53335 491.053 44.8162C597.653 99.9251 670.689 246.342 654.195 371.843C637.701 497.343 537.922 554.41 431.322 499.301C360.389 462.63 304.316 385.536 279.593 301.077L307.737 73.4525Z" fill="#EDF5FF"/>
<path d="M602.659 314.628C602.659 441.207 519.887 513.809 428.726 491.713C330.182 467.829 266.442 293.641 266.442 167.061C266.442 40.4818 341.708 -29.1006 434.554 11.6478C527.4 52.3961 602.659 188.048 602.659 314.628Z" fill="#CFE4FF"/>
<path d="M245.916 236.527C245.916 236.527 252.964 198.819 232.192 185.672C211.42 172.525 228.028 136.111 195.525 125.751C163.021 115.391 162.699 102.998 162.699 102.998C162.699 102.998 157.782 150.094 177.766 166.26C197.75 182.427 209.064 219.32 218.139 226.975C227.22 234.631 240.349 253.94 240.349 253.94L245.916 236.527Z" fill="#497AD1"/>
<path d="M232.843 220.95C232.843 220.95 219.2 189.719 199.155 163.439C187.676 148.396 165.179 120.39 163.515 109.113" stroke="#B4C4F0" stroke-width="2.8252" stroke-miterlimit="10" stroke-linecap="round" stroke-linejoin="round"/>
<path d="M251.82 258.253C251.82 258.253 218.584 202.188 183.293 192.992C147.996 183.796 134.956 203.201 134.956 203.201C134.956 203.201 150.413 201.215 165.473 213.027C180.533 224.832 193.457 230.008 202.291 232.775C211.119 235.541 228.631 259.39 228.631 259.39L251.82 258.253Z" fill="#699EFF"/>
<path d="M221.748 231.59C221.748 231.59 191.833 205.105 178.636 204.085C165.439 203.064 151.317 196.751 141.394 200.49" stroke="#B6CFF0" stroke-width="2.8252" stroke-miterlimit="10" stroke-linecap="round" stroke-linejoin="round"/>
<path d="M77.2774 153.079C80.5189 153.079 83.1466 150.452 83.1466 147.211C83.1466 143.97 80.5189 141.343 77.2774 141.343C74.0359 141.343 71.4082 143.97 71.4082 147.211C71.4082 150.452 74.0359 153.079 77.2774 153.079Z" fill="#D9E9FF"/>
<path d="M262.13 554.823C262.651 551.624 260.48 548.609 257.28 548.089C254.081 547.568 251.065 549.74 250.545 552.938C250.024 556.137 252.196 559.152 255.395 559.673C258.594 560.193 261.61 558.022 262.13 554.823Z" fill="#D9E9FF"/>
<path d="M531.459 596.415C532.204 593.261 530.251 590.1 527.096 589.356C523.941 588.611 520.78 590.564 520.035 593.718C519.29 596.872 521.244 600.033 524.398 600.777C527.553 601.522 530.714 599.569 531.459 596.415Z" fill="#D9E9FF"/>
<path d="M435.211 505.12L511.757 459.154C518.284 455.121 518.202 445.61 511.606 441.694L284.624 306.76L254.792 401.103L435.211 505.12Z" fill="#B5D0F2"/>
<path d="M424.137 511.536L264.599 405.759C254.621 400 246.533 384.546 246.533 371.249V23.1037C246.533 9.79937 254.621 3.69156 264.599 9.45015L431.17 105.6C441.148 111.359 449.237 126.813 449.237 140.111V486.612C449.237 495.363 445.963 499.013 440.457 502.19L424.137 511.536Z" fill="#A8C9ED"/>
<path d="M331.866 184.488C331.866 184.488 246.458 384.203 246.458 370.899L232.425 18.8513L253.361 7.79977C256.436 6.35499 260.305 6.66997 264.517 9.10076L431.095 105.251C435.964 108.065 440.388 113.187 443.642 119.24L331.866 184.488Z" fill="#EBF1F7"/>
<path d="M414.391 510.406L248.224 414.256C238.246 408.497 230.569 393.043 230.569 379.746V31.5939C230.569 18.2896 238.445 12.1818 248.423 17.9404L414.494 114.09C424.472 119.849 432.061 135.303 432.061 148.601V496.746C432.061 510.057 424.37 516.165 414.391 510.406Z" fill="white"/>
<path d="M411.056 511.646L244.896 415.489C234.917 409.73 227.24 394.276 227.24 380.978V32.8266C227.24 19.5223 235.116 13.4145 245.094 19.1731L411.165 115.323C421.144 121.082 428.732 136.536 428.732 149.833V497.978C428.725 511.289 421.034 517.404 411.056 511.646Z" fill="#2C1F9C"/>
<path d="M406.446 452.143L244.437 358.629C242.752 357.656 241.711 355.856 241.711 353.911V59.901C241.711 55.7105 246.252 53.0879 249.881 55.1832L411.891 148.704C413.576 149.676 414.617 151.477 414.617 153.422V447.432C414.617 451.622 410.076 454.245 406.446 452.143Z" fill="#699EFF"/>
<path d="M356.308 106.319L304.93 76.6563C303.129 75.6155 301.65 72.8013 301.65 70.3979C301.65 67.9945 303.122 66.8784 304.93 67.9192L356.308 97.5817C358.109 98.6225 359.589 101.437 359.589 103.84C359.589 106.244 358.109 107.36 356.308 106.319Z" fill="#4A3EB5"/>
<path d="M440.039 197.429C437.314 198.586 435.081 197.135 435.081 194.191V174.368C435.081 171.43 437.314 168.075 440.039 166.911C442.765 165.754 444.998 167.205 444.998 170.15V189.973C444.998 192.91 442.765 196.265 440.039 197.429Z" fill="#E6F0FF"/>
<path d="M442.169 197.696C439.444 198.854 437.211 197.402 437.211 194.458V174.635C437.211 171.697 439.444 168.342 442.169 167.178C444.895 166.021 447.128 167.472 447.128 170.417V190.24C447.121 193.177 444.895 196.532 442.169 197.696Z" fill="#6899E3"/>
<path d="M440.039 233.515C437.313 234.672 435.081 233.22 435.081 230.276V210.453C435.081 207.515 437.313 204.16 440.039 202.996C442.765 201.839 444.997 203.291 444.997 206.235V226.058C444.997 228.996 442.765 232.351 440.039 233.515Z" fill="#E6F0FF"/>
<path d="M442.169 233.775C439.444 234.932 437.211 233.48 437.211 230.536V210.713C437.211 207.775 439.444 204.42 442.169 203.256C444.895 202.099 447.128 203.551 447.128 206.495V226.318C447.121 229.262 444.895 232.618 442.169 233.775Z" fill="#6899E3"/>
<path opacity="0.4" d="M231.919 114.85C209.668 103.682 190.458 74.4854 189.006 49.6297C187.554 24.7808 204.415 13.6881 226.666 24.8561C248.917 36.0241 267.935 64.8992 269.805 89.9535C271.866 117.5 254.17 126.018 231.919 114.85Z" fill="#A8C4E5"/>
<path d="M225.392 105.031C204.264 94.4246 186.012 66.693 184.636 43.0903C183.259 19.4876 199.271 8.95648 220.399 19.563C241.527 30.1695 259.593 57.5861 261.367 81.3874C263.333 107.558 246.519 115.644 225.392 105.031Z" fill="#00D1A7"/>
<path d="M214.366 111.187C193.238 100.58 174.986 72.8485 173.61 49.2458C172.233 25.6432 188.245 15.112 209.373 25.7185C230.501 36.325 248.567 63.7416 250.341 87.5429C252.3 113.706 235.493 121.793 214.366 111.187Z" fill="#08F7C8"/>
<path d="M185.006 52.06L185.061 62.7076C185.068 63.7552 185.629 64.7139 186.533 65.2343L231.042 90.6309C233.001 91.7471 235.432 90.3297 235.418 88.0769L235.363 77.4293C235.357 76.3817 234.795 75.4231 233.891 74.9027L189.382 49.506C187.423 48.3899 184.992 49.8073 185.006 52.06Z" fill="#FCFEFF"/>
<path d="M204.189 95.2597L213.585 100.621C215.544 101.737 217.975 100.32 217.961 98.0671L217.715 47.397C217.708 46.3494 217.146 45.3908 216.242 44.8704L206.846 39.5089C204.887 38.3928 202.456 39.8102 202.47 42.063L202.716 92.7331C202.716 93.7739 203.278 94.7393 204.189 95.2597Z" fill="#FCFEFF"/>
<path opacity="0.71" d="M410.638 179.448L461.29 207.125C462.94 208.029 464.296 210.651 464.296 212.952V248.147L466.844 262.075L453.304 247.688L410.638 224.38C408.987 223.476 407.631 220.854 407.631 218.553V182.002C407.631 179.688 408.987 178.544 410.638 179.448Z" fill="#699EFF"/>
<path d="M430.513 169.17L377.655 138.658C375.93 137.666 374.519 138.727 374.519 141.028V176.223L370.129 194.396L385.99 188.39L430.513 214.088C432.239 215.081 433.649 214.02 433.649 211.719V175.168C433.649 172.861 432.239 170.163 430.513 169.17Z" fill="white"/>
<path d="M395.893 175.36C395.893 177.99 394.037 179.044 391.743 177.723C389.449 176.401 387.593 173.197 387.593 170.567C387.593 167.938 389.449 166.883 391.743 168.205C394.037 169.526 395.893 172.731 395.893 175.36Z" fill="#699EFF"/>
<path d="M408.672 182.858C408.672 185.487 406.816 186.542 404.522 185.22C402.228 183.899 400.372 180.694 400.372 178.065C400.372 175.435 402.228 174.381 404.522 175.702C406.816 177.024 408.672 180.228 408.672 182.858Z" fill="#699EFF"/>
<path d="M420.255 193.007C421.865 192.066 421.848 189.043 420.218 186.255C418.588 183.467 415.961 181.97 414.351 182.911C412.742 183.852 412.758 186.875 414.388 189.663C416.019 192.451 418.645 193.948 420.255 193.007Z" fill="#699EFF"/>
<path d="M323.976 412.825L208.913 346.406C205.599 344.496 202.894 339.319 202.894 334.902V263.677C202.894 259.26 205.606 257.213 208.913 259.123L323.976 325.542C327.291 327.453 329.996 332.629 329.996 337.046V408.271C329.996 412.695 327.284 414.742 323.976 412.825Z" fill="#D9E9FF"/>
<path d="M247.984 343.952C256.702 338.863 256.417 322.146 247.347 306.614C238.277 291.082 223.857 282.616 215.139 287.705C206.42 292.794 206.706 309.511 215.776 325.043C224.846 340.575 239.266 349.041 247.984 343.952Z" fill="white"/>
<path d="M239.554 334.539C241.54 335.772 243.965 334.053 243.403 331.801C242.862 329.616 242.15 327.548 241.547 326.631C241.006 325.809 240.335 325.152 239.753 324.577C239.15 323.981 238.356 323.146 237.596 322.331C237.342 322.057 237.082 321.783 236.829 321.516L235.281 319.804C235.048 319.503 234.822 319.195 234.589 318.893C234.548 318.839 234.466 318.75 234.425 318.681C234.411 318.572 234.418 318.448 234.418 318.346C234.391 317.633 234.356 316.928 234.329 316.216C234.952 315.901 235.336 315.162 235.452 314.169C236.486 314.833 236.712 313.491 236.808 312.539C236.87 311.861 236.952 310.149 236.151 309.471C236.171 309.362 236.185 309.266 236.205 309.177C236.322 308.622 236.425 308.04 236.425 307.383C236.418 306.726 236.308 305.993 236.02 305.254C235.952 305.082 235.863 304.897 235.76 304.761C235.774 304.541 235.705 304.247 235.63 303.98C235.021 301.926 233.788 300.056 232.514 298.886C231.24 297.715 229.918 297.174 228.692 296.955C227.788 296.797 226.597 296.879 226.583 298.482C226.583 298.687 226.624 298.892 226.693 299.091C226.521 299.002 226.391 299.105 226.302 299.242C226.042 299.639 225.953 300.255 225.98 300.919C226.008 301.583 226.131 302.309 226.282 303.028C226.302 303.138 226.323 303.261 226.35 303.391C225.357 302.761 225.57 304.829 225.686 305.671C225.83 306.726 226.131 308.314 227.069 308.958C227.138 309.43 227.234 309.91 227.384 310.389C227.604 311.094 227.898 311.724 228.24 312.306C228.24 312.313 228.234 312.32 228.234 312.334C228.268 313.059 228.295 313.792 228.33 314.518C228.33 314.58 228.35 314.696 228.343 314.771C228.33 314.717 228.179 314.833 228.138 314.853C227.994 314.922 227.857 314.984 227.713 315.052C227.713 315.052 227.713 315.045 227.706 315.045L227.282 314.977L227.275 314.963L227.179 314.936C226.912 314.867 226.645 314.826 226.371 314.799L226.337 314.792C225.987 314.751 225.638 314.73 225.296 314.71C224.672 314.675 224.049 314.504 223.44 314.491C221.926 314.463 219.892 315.764 219.618 319.291C219.488 320.941 220.296 322.564 221.714 323.474L239.554 334.539ZM236.589 312.491C236.582 312.587 236.568 312.669 236.561 312.731C236.575 312.655 236.582 312.573 236.589 312.491Z" fill="#305DAD"/>
<path d="M295.548 336.422L263.579 316.928V327.699L295.548 347.193V336.422Z" fill="white"/>
<path d="M263.579 335.71V346.481L312.087 376.055V365.284L263.579 335.71Z" fill="white"/>
<path d="M252.873 352.297C264.155 345.703 264.04 324.52 252.617 304.984C241.194 285.448 222.788 274.957 211.506 281.551C200.225 288.145 200.339 309.328 211.763 328.864C223.186 348.4 241.592 358.892 252.873 352.297Z" stroke="white" stroke-width="1.5451" stroke-miterlimit="10" stroke-linecap="round" stroke-linejoin="round"/>
<path d="M434.115 384.402C434.115 379.458 431.478 374.891 427.198 372.419L360.883 334.136C357.254 332.04 354.281 334.286 354.281 339.127V382.519C354.281 387.1 356.726 391.338 360.698 393.625L421.61 428.786C427.171 431.997 434.122 427.985 434.122 421.562V384.402H434.115Z" fill="#D9E9FF"/>
<path d="M401.796 381.642V393.454L424.41 407.244V395.433L401.796 381.642Z" fill="white"/>
<path d="M384.976 362.579C381.819 361.853 379.696 363.243 378.224 364.674C377.772 365.119 376.847 364.579 376.402 363.606C374.895 360.32 372.676 356.122 369.642 353.719C363.842 349.131 359.685 352.609 361.342 360.183C363.116 369.269 377.135 389.893 377.135 389.893L377.477 390.092C377.477 390.092 391.496 385.655 393.27 378.616C394.941 372.966 391.373 364.044 384.976 362.579Z" fill="#E655BE"/>
<path d="M379.039 381.629C379.025 381.622 379.012 381.615 378.998 381.601C378.498 381.293 378.067 380.684 377.895 380.04L375.45 370.789L374.183 373.809C374.005 374.24 373.553 374.336 373.053 374.049L368.705 371.536C368.369 371.344 368.164 370.981 368.164 370.591C368.164 369.755 369.068 369.228 369.794 369.646L372.389 371.145L374.362 366.441C374.54 366.01 374.998 365.914 375.492 366.202C375.498 366.202 375.498 366.208 375.505 366.208C376.012 366.51 376.464 367.14 376.635 367.783L379.135 377.246L380.162 375.151C380.354 374.754 380.792 374.678 381.272 374.959L385.963 377.664C386.299 377.856 386.504 378.219 386.504 378.609C386.504 379.444 385.6 379.971 384.874 379.554L381.916 377.842L380.162 381.437C379.957 381.834 379.525 381.902 379.039 381.629Z" fill="white"/>
</svg>
