<svg width="17" height="13" viewBox="0 0 17 13" fill="none" xmlns="http://www.w3.org/2000/svg">
<path d="M16.7685 5.94105L11.7096 0.882128C11.4009 0.57347 10.9003 0.57347 10.5917 0.882128C10.283 1.19085 10.283 1.6913 10.5917 2.00002L14.3012 5.70954H0.790456C0.353935 5.70954 0 6.06348 0 6.5C0 6.93646 0.353935 7.29045 0.790456 7.29045H14.3012L10.5918 11C10.2831 11.3087 10.2831 11.8091 10.5918 12.1179C10.7461 12.2721 10.9485 12.3494 11.1507 12.3494C11.353 12.3494 11.5553 12.2721 11.7097 12.1179L16.7685 7.05894C17.0772 6.75022 17.0772 6.24977 16.7685 5.94105Z" fill="black"/>
</svg>
