<svg width="98" height="88" viewBox="0 0 98 88" fill="none" xmlns="http://www.w3.org/2000/svg">
<path d="M92.9747 0.748291H62.4199C59.6459 0.748291 57.3945 2.99969 57.3945 5.77375V36.3285C57.3945 39.1027 59.6459 41.354 62.4199 41.354H77.044C76.8531 49.3546 74.9936 55.7569 71.4758 60.5713C68.7018 64.3705 64.5006 67.5165 58.882 69.9991C56.2989 71.1348 55.1833 74.1903 56.3894 76.7433L60.0077 84.382C61.1736 86.8343 64.0582 87.9099 66.5509 86.8343C73.2046 83.9598 78.8231 80.3213 83.4063 75.8989C88.9947 70.5016 92.824 64.4108 94.8945 57.6163C96.9651 50.8219 98.0002 41.555 98.0002 29.7954V5.77375C98.0002 2.9998 95.7487 0.748291 92.9747 0.748291Z" fill="#C1DDFE" fill-opacity="0.15"/>
<path d="M10.6577 86.8142C17.231 83.9497 22.8193 80.3114 27.4327 75.8989C33.0712 70.5016 36.9207 64.4309 38.9912 57.6867C41.0617 50.9425 42.0968 41.6454 42.0968 29.7954V5.77375C42.0968 2.99969 39.8455 0.748291 37.0714 0.748291H6.51662C3.74257 0.748291 1.49116 2.99969 1.49116 5.77375V36.3285C1.49116 39.1027 3.74257 41.354 6.51662 41.354H21.1407C20.9497 49.3546 19.0903 55.7569 15.5725 60.5713C12.7984 64.3705 8.59716 67.5165 2.9787 69.9991C0.395614 71.1348 -0.720037 74.1903 0.486072 76.7433L4.09435 84.3619C5.26036 86.8142 8.16507 87.8998 10.6577 86.8142Z" fill="#C1DDFE" fill-opacity="0.15"/>
</svg>
