<svg width="8" height="15" viewBox="0 0 8 15" fill="none" xmlns="http://www.w3.org/2000/svg">
<path d="M7.78279 7.95229L1.72295 14.1823C1.5828 14.3266 1.3957 14.406 1.1962 14.406C0.996706 14.406 0.809609 14.3266 0.669453 14.1823L0.223188 13.7237C-0.0671998 13.4248 -0.0671998 12.939 0.223188 12.6405L5.31178 7.40891L0.217542 2.17147C0.0773851 2.02726 0 1.83502 0 1.63003C0 1.42481 0.0773851 1.23257 0.217542 1.08824L0.663807 0.629663C0.804074 0.485453 0.99106 0.406006 1.19056 0.406006C1.39005 0.406006 1.57715 0.485453 1.71731 0.629663L7.78279 6.86542C7.92328 7.01008 8.00044 7.20324 8 7.40857C8.00044 7.6147 7.92328 7.80773 7.78279 7.95229Z" fill="#0957C3"/>
</svg>
