<svg width="15" height="15" viewBox="0 0 15 15" fill="none" xmlns="http://www.w3.org/2000/svg">
<path d="M14.3964 9.14783H14.9816V5.63651H13.4893C12.8439 5.63651 12.3189 5.11146 12.3189 4.46607C12.3189 4.02814 12.5607 3.63018 12.95 3.42741L13.4485 3.16781L11.9583 0L0.0137109 5.63391L0.0149414 5.63651H0V9.14783H0.585234C1.23062 9.14783 1.75567 9.67289 1.75567 10.3183C1.75567 10.9637 1.23062 11.4887 0.585234 11.4887H0V15H14.9816V11.4887H14.3964C13.751 11.4887 13.2259 10.9636 13.2259 10.3182C13.2259 9.67289 13.751 9.14783 14.3964 9.14783ZM7.96374 3.17824C8.10583 3.4604 8.44729 3.57999 8.73492 3.4447C9.02291 3.30923 9.14851 2.96924 9.02092 2.67961L11.3979 1.55845L11.94 2.71084C11.442 3.14915 11.1484 3.78328 11.1484 4.4661C11.1484 4.89231 11.2635 5.29192 11.4633 5.63654H2.75186L7.96374 3.17824ZM13.8111 12.5851V13.8296H11.1777C11.1777 13.5064 10.9157 13.2444 10.5925 13.2444C10.2693 13.2444 10.0073 13.5064 10.0073 13.8296H1.17044V12.5851C2.17896 12.3246 2.92608 11.407 2.92608 10.3182C2.92608 9.22948 2.17893 8.3119 1.17044 8.05143V6.80692H10.0072C10.0072 7.13013 10.2692 7.39213 10.5924 7.39213C10.9156 7.39213 11.1776 7.13013 11.1776 6.80692H13.8111V8.05143C12.8026 8.31193 12.0555 9.22948 12.0555 10.3182C12.0555 11.407 12.8026 12.3246 13.8111 12.5851Z" fill="#454545"/>
</svg>
