<svg width="400" height="370" viewBox="0 0 400 370" fill="none" xmlns="http://www.w3.org/2000/svg">
<g clip-path="url(#clip0)">
<path d="M90.1671 300.788L5.28564 350.257" stroke="#C7E1F8" stroke-width="3.1905" stroke-miterlimit="10" stroke-linecap="round" stroke-linejoin="round"/>
<path d="M224.581 314.863L265.261 337.135C271.5 340.552 279.079 340.403 285.177 336.751L340.031 303.551" stroke="#C7E1F8" stroke-width="3.1905" stroke-miterlimit="10" stroke-linecap="round" stroke-linejoin="round"/>
<path d="M214.063 270.775L241.617 254.854" stroke="#C7E1F8" stroke-width="3.1905" stroke-miterlimit="10" stroke-linecap="round" stroke-linejoin="round"/>
<path d="M140.426 329.669L32.2613 267.218C25.2691 263.182 26.1493 256.131 34.2204 251.473L92.8122 217.645C100.883 212.986 113.094 212.476 120.086 216.516L228.251 278.968C235.243 283.003 234.363 290.054 226.291 294.712L167.7 328.54C159.629 333.199 147.418 333.705 140.426 329.669Z" stroke="#C7E1F8" stroke-width="3.1905" stroke-miterlimit="10" stroke-linecap="round" stroke-linejoin="round"/>
<path d="M145.337 131.991C140.679 132.994 136.558 135.887 138.76 143.484C138.76 143.484 133.195 137.982 138.011 129.825C139.374 127.514 140.656 125.974 141.74 124.95C143.283 123.492 145.689 123.473 147.278 124.882C149.82 127.143 148.664 131.278 145.337 131.991Z" fill="#A35B5B"/>
<path d="M142.871 135.594C143.522 132.406 142.03 129.409 139.539 128.9C137.047 128.391 134.5 130.563 133.848 133.75C133.197 136.938 134.689 139.935 137.18 140.444C139.672 140.953 142.22 138.781 142.871 135.594Z" fill="#C7E1F8"/>
<path d="M141.718 136.318C142.121 134.344 141.199 132.489 139.657 132.174C138.116 131.859 136.54 133.203 136.136 135.177C135.733 137.151 136.656 139.006 138.197 139.321C139.738 139.636 141.315 138.291 141.718 136.318Z" fill="#9C91FF"/>
<path opacity="0.19" d="M350.761 302.341L397.071 274.53C401.016 272.093 400.971 266.333 396.98 263.963L259.669 182.323L241.622 239.407L350.761 302.341Z" fill="#88BDEB"/>
<path d="M344.062 306.228L247.548 242.219C241.513 238.734 236.62 229.386 236.62 221.337V10.6865C236.62 2.638 241.513 -1.05897 247.548 2.42584L348.314 60.6024C354.35 64.0872 359.243 73.4357 359.243 81.4842V291.142C359.243 296.437 357.261 298.644 353.93 300.567L344.062 306.228Z" fill="#9AD0FC"/>
<path d="M288.242 108.338C288.242 108.338 236.575 229.178 236.575 221.129L228.088 8.11784L240.755 1.42807C242.614 0.552355 244.957 0.741943 247.508 2.21351L348.269 60.3946C351.217 62.0964 353.894 65.1975 355.857 68.8584L288.242 108.338Z" fill="#C7E1F8"/>
<path d="M338.167 305.542L237.645 247.365C231.609 243.88 226.964 234.532 226.964 226.483V15.8278C226.964 7.77936 231.731 4.08239 237.766 7.5672L338.23 65.7438C344.265 69.2286 348.856 78.5771 348.856 86.6256V297.276C348.856 305.329 344.202 309.026 338.167 305.542Z" fill="white"/>
<path d="M336.149 306.291L235.631 248.11C229.596 244.625 224.951 235.276 224.951 227.228V16.5771C224.951 8.52863 229.718 4.83165 235.753 8.31647L336.217 66.493C342.252 69.9778 346.843 79.3264 346.843 87.3748V298.026C346.843 306.074 342.189 309.776 336.149 306.291Z" fill="#2C1F9C"/>
<path d="M333.364 270.292L235.356 213.704C234.336 213.117 233.708 212.029 233.708 210.851V32.9586C233.708 30.4218 236.453 28.8373 238.651 30.1058L336.66 86.6889C337.68 87.2757 338.307 88.3636 338.307 89.5417V267.434C338.307 269.971 335.558 271.556 333.364 270.292Z" fill="#699EFF"/>
<path d="M303.03 61.0401L271.946 43.0924C270.854 42.465 269.965 40.7587 269.965 39.3051C269.965 37.8516 270.859 37.1745 271.946 37.8065L303.03 55.7542C304.122 56.3817 305.012 58.0879 305.012 59.5415C305.012 60.995 304.122 61.6721 303.03 61.0401Z" fill="#C7E1F8"/>
<path d="M353.681 116.17C352.034 116.874 350.684 115.989 350.684 114.211V102.217C350.684 100.438 352.034 98.4071 353.681 97.7074C355.329 97.0033 356.679 97.888 356.679 99.6665V111.66C356.683 113.439 355.334 115.466 353.681 116.17Z" fill="#E6F0FF"/>
<path d="M354.973 116.328C353.325 117.032 351.976 116.147 351.976 114.369V102.375C351.976 100.596 353.325 98.5651 354.973 97.8654C356.62 97.1612 357.97 98.046 357.97 99.8245V111.818C357.97 113.597 356.62 115.628 354.973 116.328Z" fill="#4699E3"/>
<path d="M353.681 137.999C352.034 138.704 350.684 137.819 350.684 136.04V124.047C350.684 122.268 352.034 120.237 353.681 119.537C355.329 118.833 356.679 119.718 356.679 121.496V133.49C356.683 135.268 355.334 137.3 353.681 137.999Z" fill="#E6F0FF"/>
<path d="M354.973 138.162C353.325 138.866 351.976 137.981 351.976 136.203V124.209C351.976 122.431 353.325 120.399 354.973 119.7C356.62 118.996 357.97 119.88 357.97 121.659V133.653C357.97 135.431 356.62 137.462 354.973 138.162Z" fill="#4699E3"/>
<path opacity="0.4" d="M156.108 313.148L78.2412 269.637L132.287 233.15L210.389 281.811L156.108 313.148Z" fill="#A8C4E5"/>
<path d="M108.878 311.464L108.376 298.87C108.58 295.936 110.453 295.335 112.051 293.981C112.769 293.372 113.82 293.372 114.565 293.949L116.168 295.195C118.542 296.911 118.262 300.093 117.829 302.12L116.104 313.274C115.671 315.301 109.433 318.221 108.878 311.464Z" fill="#483AC7"/>
<path d="M174.62 174.87L140.95 219.753L196.31 252.362L206.187 198.474C206.828 194.984 205.433 191.477 202.67 189.369C202.341 189.116 174.62 174.87 174.62 174.87Z" fill="#4699E3"/>
<path d="M174.733 174.175L169.551 181.632L192.468 195.021L202.675 189.373L174.733 174.175Z" fill="#9AD0FC"/>
<path d="M176.57 175.177L146.89 159.495C145.026 158.434 142.742 158.43 140.869 159.482L132.288 164.23L171.898 184.083L176.57 175.177Z" fill="#A9CBE8"/>
<path d="M75.8717 270.143C75.0818 269.628 74.8515 268.563 75.3661 267.773L95.4173 233.597C95.9319 232.807 98.681 233.214 99.4709 233.724C100.261 234.238 101.633 236.17 101.123 236.96L78.237 269.633C77.727 270.427 76.6617 270.653 75.8717 270.143Z" fill="#619CCF"/>
<path d="M82.7643 256.975L103.475 268.933L116.868 251.08L77.501 233.114L78.1284 249.292C78.2503 252.484 80.0017 255.382 82.7643 256.975Z" fill="#6FB2ED"/>
<path d="M103.267 268.816L147.229 294.198C149.292 295.389 151.869 293.9 151.869 291.516V257.228L122.136 243.659L103.267 268.816Z" fill="#6FB2ED"/>
<path d="M155.486 313.73C154.551 313.852 153.689 313.184 153.567 312.249L146.76 273.217C146.638 272.282 149.003 270.811 149.938 270.693C150.872 270.571 153.17 271.158 153.477 271.908L157.156 311.626C157.088 312.746 156.42 313.608 155.486 313.73Z" fill="#4699E3"/>
<path d="M209.572 282.488C208.678 282.791 207.703 282.303 207.401 281.41L193.1 244.458C192.798 243.564 194.829 241.659 195.723 241.361C196.617 241.059 198.986 241.19 199.474 241.894L210.84 280.132C210.949 281.211 210.461 282.191 209.572 282.488Z" fill="#4699E3"/>
<path d="M83.6401 228.194V212.016L127.512 186.575V203.954L83.6401 228.194Z" fill="#2F87D6"/>
<path d="M150.89 293.742L193.48 269.669C194.974 268.825 195.899 267.236 195.895 265.52L195.868 249.464L152.028 276.923L152.046 288.235C152.05 291.647 147.97 295.507 150.89 293.742Z" fill="#4699E3"/>
<path d="M167.402 284.533L209.987 260.46C211.481 259.616 212.407 258.027 212.402 256.312L212.375 240.255L168.535 267.714L168.553 279.026C168.558 282.439 164.477 286.298 167.402 284.533Z" fill="#4699E3"/>
<path d="M169.316 181.618L135.777 164.736C133.023 163.35 129.706 164.917 129.024 167.923L126.961 177.014L124.325 189.179L117.919 218.706L134.034 228.199L169.316 181.618Z" fill="#77ACD9"/>
<path d="M190.631 193.147L166.924 180.413L134.265 226.75L185.76 257.084L195.551 203.678C196.314 199.476 194.342 195.251 190.631 193.147Z" fill="#6FB2ED"/>
<path d="M79.4559 236.003L113.455 255.635L142.386 217.072L123.328 206.066C122.095 205.353 120.574 205.353 119.337 206.066L79.4559 229.092C76.7927 230.627 76.7927 234.464 79.4559 236.003Z" fill="#4699E3"/>
<path d="M193.714 246.706L142.173 216.95L113.243 255.513L149.843 276.643C151.075 277.356 152.596 277.356 153.833 276.643L193.714 253.617C196.378 252.082 196.378 248.245 193.714 246.706Z" fill="#4699E3"/>
<path d="M151.869 278.719L151.838 260.93L217.742 220.209V235.633C217.742 238.757 216.045 241.637 213.31 243.149L151.869 278.719Z" fill="#6FB2ED"/>
<path d="M126.966 177.01C123.359 174.992 119.594 174.834 116.204 176.816L83.3468 195.58C74.2872 200.753 68.7214 210.413 68.7937 220.85L68.9787 247.997C68.9923 249.681 69.8815 251.238 71.3215 252.109L77.7359 255.991C80.3315 257.562 83.6402 255.693 83.6402 252.66V243.171V223.391C83.6402 216.421 87.3914 209.994 93.4627 206.572C102.694 201.363 116.267 193.721 124.33 189.179L126.966 177.01Z" fill="#9AD0FC"/>
<path d="M214.041 211.953L205.081 204.523L203.063 214.21C202.53 217.108 199.619 219.446 197.055 220.895L146.66 248.796C140.268 252.335 136.382 259.147 136.589 266.45L137.181 287.31C137.194 288.993 138.02 290.966 139.46 291.837L145.933 295.304C148.529 296.875 151.838 295.006 151.838 291.972V269.773C151.838 264.306 154.785 259.268 159.552 256.592L213.562 226.258C219.042 223.184 219.304 215.388 214.041 211.953Z" fill="#9AD0FC"/>
<path d="M127.566 174.87C127.566 174.87 123.63 186.318 119.463 184.665C115.297 183.013 115.103 166.691 109.045 165.264C109.045 165.264 104.576 163.161 106.743 170.893C108.91 178.626 113.451 203.376 122.88 195.838C132.31 188.299 135.994 177.84 135.994 177.84L127.566 174.87Z" fill="#FEDCD2"/>
<path d="M165.104 122.959C176.741 130.384 166.142 149.257 167.894 163.635L152.221 149.889L153.408 125.089L160.342 122.494C161.913 121.903 163.687 122.052 165.104 122.959Z" fill="#754040"/>
<path d="M139.83 218.733C139.83 218.733 110.006 234.861 108.833 242.336C107.804 248.9 108.797 287.174 108.797 296.328C108.797 302.021 117.175 300.441 117.035 296.319C116.759 287.996 119.355 259.151 125.011 251.337C130.667 243.523 158.749 232.5 158.749 232.5L139.83 218.733Z" fill="#FFD1C3"/>
<path d="M81.8118 297.619L93.503 288.023C95.0152 287.327 98.2789 287.278 100.446 287.774C101.421 287.996 102.089 288.889 102.071 289.887L102.03 292.04C102.08 295.146 101.759 295.566 99.764 296.486L87.9012 301.935C85.9015 302.851 82.9989 302.702 81.4461 301.601L81.0037 301.289C79.4509 300.188 79.8166 298.54 81.8118 297.619Z" fill="#483AC7"/>
<path d="M124.966 210.445C124.966 210.445 96.8798 225.955 95.7061 233.43C94.6769 239.994 93.9321 278.886 93.9321 288.041C93.9321 293.733 102.31 292.153 102.17 288.032C101.895 279.708 104.49 250.863 110.146 243.05C115.803 235.236 143.884 224.213 143.884 224.213L124.966 210.445Z" fill="#FFD1C3"/>
<path d="M133.136 204.396C122.113 216.363 102.233 218.692 93.4175 233.209C89.1653 240.21 118.362 240.657 125.539 254.849C125.539 254.849 153.201 240.707 161.078 235.434C162.644 234.387 163.976 233.029 164.928 231.403C167.289 227.381 170.44 218.972 166.707 206.035C161.25 187.126 133.136 204.396 133.136 204.396Z" fill="#483AC7"/>
<path d="M132.486 204.432C131.809 192.56 132.82 187.64 131.994 172.992C133.087 155.496 133.384 150.675 147.026 150.219L150.605 151.411C152.312 151.979 153.959 152.738 155.503 153.659C172.011 163.508 175.401 165.621 174.02 175.755C173.717 181.009 169.858 175.127 170.074 178.657C170.35 183.113 173.067 193.043 169.889 210.147C169.442 212.567 168.783 216.128 166.734 217.491C157.868 223.405 135.393 211.786 132.486 204.432Z" fill="#FFD15B"/>
<path d="M149.03 223.292L145.703 222.118L145.315 221.725L145.062 221.279L120.019 208.256C119.716 208.098 119.22 208.12 118.908 208.301L109.347 213.907L109.329 213.749L107.528 214.471L107.61 215.216H107.623C107.655 215.288 107.722 215.356 107.822 215.41L133.886 228.961C133.922 228.979 133.94 229.016 133.953 229.061C134.5 231.056 135.407 232.843 137.109 231.805L147.699 225.562C148.538 225.106 149.039 224.253 149.03 223.292Z" fill="#A8C4E5"/>
<path d="M134.951 231.033L104.937 215.428C104.59 215.248 104.599 214.927 104.951 214.72L117.703 207.24C118.06 207.032 118.633 207.01 118.98 207.19L148.994 222.795C149.342 222.976 149.333 223.296 148.981 223.504L136.228 230.984C135.872 231.191 135.299 231.214 134.951 231.033Z" fill="#E1EAF4"/>
<path d="M135.79 220.985L128.527 217.207C128.442 217.162 128.446 217.085 128.532 217.035L131.62 215.225C131.705 215.176 131.845 215.171 131.931 215.212L139.194 218.99C139.28 219.035 139.275 219.112 139.19 219.162L136.102 220.972C136.016 221.021 135.876 221.026 135.79 220.985Z" fill="#A8C4E5"/>
<path d="M132.319 213.474C132.125 212.761 131.452 211.921 130.811 211.591L101.041 196.339C100.775 196.203 100.558 196.176 100.409 196.244L100.405 196.248C100.351 196.271 100.306 196.307 100.27 196.357L99.439 197.291L100.279 197.219L104.743 213.713C104.937 214.426 105.61 215.266 106.251 215.595L134.4 230.018L135.357 230.939L135.488 231.164C136.039 231.277 137.23 230.401 137.23 230.401L132.319 213.474Z" fill="white"/>
<path d="M135.131 231.837C135.131 231.837 104.043 215.415 103.849 214.702L99.3353 198.027C99.1412 197.314 99.5068 197.007 100.148 197.332L129.918 212.585C130.559 212.914 131.236 213.754 131.425 214.467L135.939 231.142C136.138 231.855 135.772 232.162 135.131 231.837Z" fill="#9EBBDE"/>
<path d="M118.439 215.69C118.678 216.575 117.856 216.774 116.606 216.133C115.356 215.492 114.146 214.255 113.907 213.37C113.667 212.485 114.489 212.287 115.739 212.928C116.99 213.569 118.199 214.805 118.439 215.69Z" fill="white"/>
<path d="M163.917 174.175L160.017 201.114C160.058 202.866 133.858 217.676 133.858 217.676L134.987 222.046L162.08 210.761C170.553 206.901 170.634 199.282 170.864 194.677L172.832 171.105L163.917 174.175Z" fill="#FEDCD2"/>
<path d="M174.724 179.759L172.394 197.575C171.817 199.074 157.828 196.889 158.446 194.668C158.555 194.276 160.635 172.97 167.1 167.742C172.349 163.499 176.218 171.516 174.724 179.759Z" fill="#FFD15B"/>
<path d="M140.2 174.861L136.084 182.837C135.203 184.178 121.995 179.072 123.074 177.032C123.264 176.671 129.836 156.299 137.262 152.566C143.297 149.537 143.414 167.124 140.2 174.861Z" fill="#FFD15B"/>
<path opacity="0.4" d="M159.963 142.726C164.882 142.726 168.869 141.06 168.869 139.006C168.869 136.952 164.882 135.287 159.963 135.287C155.045 135.287 151.057 136.952 151.057 139.006C151.057 141.06 155.045 142.726 159.963 142.726Z" fill="#A8C4E5"/>
<path d="M161.99 126.168L158.469 124.746C158.279 124.67 158.094 124.588 157.914 124.494C157.742 124.408 157.571 124.336 157.399 124.277C157.386 124.272 157.368 124.268 157.354 124.263C157.214 124.218 157.074 124.182 156.934 124.155C154.059 123.537 150.511 123.866 148.606 127.076C146.845 130.041 147.703 133.765 147.703 133.765C148.272 136.74 150.899 139.977 151.17 140.085C151.17 140.085 152.199 141.39 153.395 141.2C155.02 140.938 155.693 142.085 157.133 142.171C161.11 142.396 162.857 139.354 163.999 137.101C164.455 136.198 167.822 128.376 161.99 126.168Z" fill="#FF5C97"/>
<path d="M157.214 127.708C156.718 127.992 155.91 127.992 155.409 127.703C154.908 127.414 154.908 126.949 155.404 126.66C155.901 126.376 156.709 126.376 157.21 126.665C157.706 126.954 157.711 127.423 157.214 127.708Z" fill="#BA436E"/>
<path d="M156.311 127.401C156.113 127.401 155.936 127.252 155.909 127.049C155.896 126.954 155.611 124.665 157.381 123.636C157.575 123.523 157.823 123.591 157.936 123.785C158.049 123.979 157.981 124.227 157.787 124.34C156.483 125.099 156.708 126.927 156.713 126.945C156.745 127.166 156.587 127.374 156.365 127.401C156.347 127.401 156.329 127.401 156.311 127.401Z" fill="#22366E"/>
<path d="M150.921 128.349C150.921 128.57 150.741 128.755 150.515 128.755C150.294 128.755 150.109 128.574 150.109 128.349C150.109 128.127 150.289 127.942 150.515 127.942C150.741 127.942 150.921 128.123 150.921 128.349Z" fill="#FFB8D2"/>
<path d="M152.786 129.152C152.786 129.373 152.605 129.558 152.379 129.558C152.158 129.558 151.973 129.378 151.973 129.152C151.973 128.931 152.154 128.746 152.379 128.746C152.605 128.746 152.786 128.926 152.786 129.152Z" fill="#FFB8D2"/>
<path d="M151.323 130.276C151.323 130.497 151.143 130.682 150.917 130.682C150.696 130.682 150.511 130.502 150.511 130.276C150.511 130.055 150.691 129.87 150.917 129.87C151.143 129.87 151.323 130.05 151.323 130.276Z" fill="#FFB8D2"/>
<path d="M149.847 131.007C149.847 131.229 149.667 131.414 149.441 131.414C149.22 131.414 149.035 131.233 149.035 131.007C149.035 130.786 149.215 130.601 149.441 130.601C149.667 130.601 149.847 130.782 149.847 131.007Z" fill="#FFB8D2"/>
<path d="M151.711 131.811C151.711 132.032 151.531 132.217 151.305 132.217C151.084 132.217 150.899 132.036 150.899 131.811C150.899 131.59 151.079 131.405 151.305 131.405C151.531 131.405 151.711 131.585 151.711 131.811Z" fill="#FFB8D2"/>
<path d="M156.429 141.195C156.429 141.195 161.57 141.602 163.683 136.117C165.285 131.951 163.267 129.558 163.267 129.558C163.267 129.558 163.078 133.246 161.575 136.117C159.837 139.426 156.429 141.195 156.429 141.195Z" fill="#E6437E"/>
<path d="M148.037 152.232C148.037 152.232 140.516 159.996 147.039 165.499C153.557 171.001 164.301 159.021 164.301 159.021C158.469 155.369 153.228 152.575 148.037 152.232Z" fill="#FFD1C3"/>
<path d="M149.603 154.932L146.656 141.498L155.742 144.048L158.18 154.512C159.155 157.636 151.924 161.779 149.603 154.932Z" fill="#FFD1C3"/>
<path d="M149.184 153.546C150.294 153.528 152.93 152.629 153.964 151.821C153.964 151.821 152.28 154.742 149.87 155.573L149.184 153.546Z" fill="#D18B77"/>
<path d="M140.932 146.328C140.932 146.328 135.889 141.985 137.185 136.767C138.481 131.549 145.292 127.229 145.292 127.229L140.932 146.328Z" fill="#754040"/>
<path d="M148.52 152.972L145.717 152.67C141.397 152.205 138.246 148.291 138.711 143.972L140.246 129.707C140.711 125.387 144.624 122.237 148.944 122.702L151.748 123.004C156.067 123.469 159.223 127.383 158.753 131.702L157.219 145.967C156.754 150.287 152.84 153.437 148.52 152.972Z" fill="#FFD1C3"/>
<path d="M152.903 130.985C149.712 126.873 149.499 129.911 146.439 128.204C143.117 126.353 139.09 127.595 141.884 125.017C143.387 123.632 147.274 121.641 150.696 120.873C160.274 118.725 167.276 126.836 166.107 135.697C166.107 135.697 165.073 149.677 156.573 150.594C156.573 150.594 155.828 147.998 156.361 146.951C156.911 145.868 157.164 143.967 155.228 141.101C154.018 139.313 156.451 135.553 152.903 130.985Z" fill="#915151"/>
<path d="M141.677 144.486L145.635 146.969C145.798 147.073 145.897 147.276 145.861 147.47C145.744 148.161 145.234 149.587 143.067 148.404C141.55 147.574 141.176 145.863 141.094 144.87C141.063 144.522 141.392 144.306 141.677 144.486Z" fill="white"/>
<path d="M147.301 141.656C147.667 141.701 147.906 142.261 147.879 142.938C147.87 143.236 147.807 143.507 147.698 143.71C147.572 143.949 147.4 144.066 147.211 144.039C147.197 144.039 147.184 144.035 147.17 144.03C146.836 143.945 146.606 143.407 146.628 142.753C146.66 142.08 146.949 141.606 147.301 141.656Z" fill="#21275E"/>
<path d="M141.469 138.176C141.659 138.203 141.821 138.37 141.929 138.645C142.02 138.875 142.06 139.164 142.051 139.462C142.024 140.144 141.74 140.618 141.383 140.563C141.37 140.563 141.356 140.559 141.343 140.554C141.008 140.469 140.778 139.932 140.801 139.281C140.828 138.6 141.117 138.126 141.469 138.176Z" fill="#21275E"/>
<path d="M146.746 139.724C147.631 139.873 148.755 140.622 149.342 141.417C149.762 141.981 150.479 141.322 150.064 140.753C149.31 139.728 147.929 138.835 146.791 138.645C146.159 138.537 146.119 139.616 146.746 139.724Z" fill="#915151"/>
<path d="M140.273 136.018C141.158 136.09 142.336 136.722 142.968 137.467C143.419 138 144.141 137.336 143.69 136.803C142.873 135.842 141.46 135.034 140.313 134.935C139.686 134.885 139.641 135.964 140.273 136.018Z" fill="#915151"/>
<path d="M155.151 131.879C155.151 131.879 134.359 128.326 138.76 143.484C138.76 143.484 133.195 137.981 138.011 129.825C141.875 123.284 145.066 122.914 145.066 122.914L150.149 126.389L155.151 131.879Z" fill="#915151"/>
<path d="M160.307 144.703C161.14 143.018 160.873 141.186 159.708 140.61C158.544 140.034 156.925 140.932 156.091 142.617C155.257 144.302 155.525 146.135 156.689 146.711C157.854 147.287 159.473 146.388 160.307 144.703Z" fill="#FFC2B0"/>
<path d="M105.921 171.669L101.046 166.749C99.5926 165.282 99.6061 162.899 101.073 161.445C102.54 159.992 104.924 160.005 106.377 161.472L111.252 166.393C112.706 167.86 112.692 170.243 111.225 171.697C109.758 173.146 107.37 173.132 105.921 171.669Z" fill="#FEDCD2"/>
<path d="M200.359 72.551C202.07 52.4997 190.076 26.9143 173.568 15.4036C165.976 10.1087 158.749 8.72738 152.993 10.7181L152.989 10.7135L152.926 10.7406C152.149 11.0115 151.4 11.3455 150.682 11.7427L137.176 18.4009L144.119 18.4099C142.241 21.6961 141.004 25.8806 140.575 30.8821C138.865 50.9334 150.858 76.5188 167.366 88.025C170.747 90.3813 174.051 91.9522 177.188 92.8098L178.809 97.1162L188.234 92.6157C188.758 92.4216 189.263 92.1914 189.76 91.9431L189.927 91.8709L189.922 91.8619C195.615 88.9097 199.528 82.2832 200.359 72.551Z" fill="#00D1A7"/>
<path d="M177.071 98.0732C189.955 92.0325 191.918 69.0443 181.455 46.7275C170.991 24.4108 152.065 11.2165 139.181 17.2572C126.297 23.2979 124.334 46.2861 134.797 68.6028C145.261 90.9196 164.187 104.114 177.071 98.0732Z" fill="#08F7C8"/>
<path d="M158.861 77.6336C148.642 74.212 136.305 50.852 138.503 43.2549C138.508 43.2368 138.517 43.2142 138.521 43.1962C139.501 39.8242 141.749 36.9533 144.778 35.1748L146.732 34.0282C147.463 33.5994 148.407 33.5949 149.314 34.0237C150.127 34.4029 150.854 35.089 151.368 35.9512L155.006 42.0587C155.607 43.0653 155.9 44.1848 155.837 45.214C155.765 46.3515 155.25 47.2814 154.424 47.7644L151.449 49.5068C151.418 49.5339 151.346 49.7551 151.476 50.1252C152.352 52.6169 153.395 54.9552 154.578 57.0813C155.887 59.1306 157.453 61.162 159.227 63.121C159.489 63.4099 159.719 63.4506 159.76 63.437L162.73 61.6946C164.355 60.7376 166.743 61.7443 168.052 63.9381L171.69 70.0455C172.823 71.9414 172.584 74.1668 171.153 75.0064L168.846 76.3606C165.93 78.0714 162.45 78.577 159.177 77.7284C159.042 77.6878 158.934 77.6607 158.861 77.6336Z" fill="#FDFDFD"/>
<path d="M157.57 138.853C157.665 138.135 158.491 136.645 158.721 134.777C159.408 129.215 149.283 125.243 145.789 123.929L143.008 123.902C140.869 124.336 139.821 131.409 140.155 134.492C140.155 134.492 149.034 139.128 153.648 132.073C153.648 132.073 154.975 135.734 154.857 139.318C154.74 142.906 157.268 144.125 157.268 144.125L158.342 141.981C158.338 141.976 157.385 140.275 157.57 138.853Z" fill="#A35B5B"/>
<path d="M163.272 144.961C163.924 141.773 162.432 138.776 159.94 138.267C157.449 137.758 154.901 139.929 154.25 143.117C153.598 146.305 155.09 149.302 157.582 149.811C160.073 150.32 162.621 148.148 163.272 144.961Z" fill="#FDFDFD"/>
<path d="M162.12 145.681C162.524 143.707 161.601 141.852 160.06 141.537C158.518 141.222 156.942 142.567 156.539 144.54C156.136 146.514 157.058 148.369 158.599 148.684C160.141 148.999 161.717 147.655 162.12 145.681Z" fill="#9C91FF"/>
<path d="M143.008 123.902C143.008 123.902 158.541 121.835 158.275 139.006L160.365 139.367C160.365 139.367 162.08 127.058 153.589 123.433C145.098 119.804 143.008 123.902 143.008 123.902Z" fill="#FDFDFD"/>
<path d="M145.924 155.166C145.513 155.898 144.249 155.97 143.094 155.324C141.938 154.679 141.338 153.564 141.744 152.833C142.155 152.101 143.419 152.029 144.574 152.675C145.73 153.316 146.33 154.435 145.924 155.166Z" fill="#FDFDFD"/>
<path d="M144.38 153.997C144.38 153.997 152.722 159.586 157.209 149.416" stroke="#FDFDFD" stroke-width="3.1905" stroke-miterlimit="10" stroke-linecap="round" stroke-linejoin="round"/>
<path opacity="0.19" d="M257.75 341.13C270.367 341.13 280.595 336.439 280.595 330.653C280.595 324.867 270.367 320.176 257.75 320.176C245.133 320.176 234.904 324.867 234.904 330.653C234.904 336.439 245.133 341.13 257.75 341.13Z" fill="#88BDEB"/>
<path d="M264.761 329.405C264.792 323.549 256.595 318.757 246.451 318.702C236.307 318.647 228.057 323.35 228.026 329.206C227.994 335.062 236.192 339.854 246.336 339.909C256.48 339.964 264.729 335.261 264.761 329.405Z" fill="#C7E1F8"/>
<path d="M219.435 303.555L228.079 330.053L264.625 330.653L272.967 305.113L219.435 303.555Z" fill="#C7E1F8"/>
<path d="M261.619 304.607L253.277 330.048H253.272C252.121 333.944 251.07 334.81 248.072 336.539C245.906 337.79 243.324 338.873 240.579 339.342C246.75 340.381 253.625 339.216 258.455 336.426C261.452 334.693 263.181 333.817 263.655 330.048H263.659L272.001 304.607H261.619Z" fill="#9AD0FC"/>
<path d="M273.525 302.013C273.572 293.36 261.462 286.279 246.476 286.198C231.491 286.117 219.305 293.066 219.258 301.719C219.211 310.372 231.321 317.453 246.307 317.534C261.292 317.616 273.478 310.667 273.525 302.013Z" fill="#FDFDFD"/>
<path d="M273.529 300.339C273.576 291.686 261.466 284.605 246.48 284.524C231.495 284.443 219.309 291.392 219.262 300.045C219.215 308.698 231.325 315.779 246.31 315.86C261.296 315.941 273.482 308.992 273.529 300.339Z" fill="#D9EEFF"/>
<path d="M269.497 301.484C269.537 294.057 259.141 287.98 246.278 287.91C233.414 287.84 222.953 293.804 222.912 301.231C222.872 308.658 233.268 314.735 246.132 314.805C258.996 314.874 269.457 308.91 269.497 301.484Z" fill="#483AC7"/>
<path d="M247.146 293.444C249.458 272.436 267.324 237.899 267.324 237.899C244.298 244.733 242.777 267.493 242.777 267.493L247.146 293.444Z" fill="#00BD97"/>
<path d="M241.937 274.873C244.366 253.879 234.209 216.309 234.209 216.309C255.136 228.099 251.548 250.624 251.548 250.624L241.937 274.873Z" fill="#00BD97"/>
<path d="M277.223 249.536C258.003 253.874 246.384 287.522 246.384 287.522L246.379 287.589C245.67 244.715 218.586 233.344 218.586 233.344C226.676 245.112 234.291 285.21 236.593 298.166C237.459 303.036 241.77 306.598 246.713 306.363C246.989 306.35 247.264 306.327 247.539 306.3C251.769 305.839 255.096 302.535 255.922 298.364C259.47 280.417 277.223 249.536 277.223 249.536Z" fill="#00D1A7"/>
<g opacity="0.75">
<path opacity="0.75" d="M85.8155 202.288L39.2761 175.416C35.5926 173.29 32.6089 167.589 32.6089 162.678V142.672C32.6089 137.765 35.5926 135.508 39.2761 137.634L85.8155 164.506C89.499 166.632 92.4827 172.333 92.4827 177.244V197.25C92.4827 202.157 89.499 204.414 85.8155 202.288Z" fill="#698AFF"/>
<g clip-path="url(#clip1)">
<path d="M52.4706 170.034C55.4146 167.587 54.5772 161.717 50.6001 156.923C46.6231 152.129 41.0124 150.227 38.0684 152.675C35.1244 155.122 35.9618 160.992 39.9389 165.786C43.9159 170.58 49.5265 172.482 52.4706 170.034Z" fill="white"/>
<path d="M41.971 163.075C41.971 163.075 39.4848 162.853 38.8218 164.293C42.4077 169.975 49.1549 172.379 51.4795 170.558C51.3784 170.178 51.2248 169.769 51.0024 169.364C50.2182 167.952 48.787 166.535 48.787 166.535L47.2225 164.921C47.6227 166.977 47.0446 167.758 45.1809 166.871C43.5962 166.09 42.9453 164.771 43.1434 162.97L41.971 163.075Z" fill="#9C91FF"/>
<path d="M46.4666 163.913C45.4317 163.913 44.1542 163.148 43.2931 161.93C42.9616 161.465 42.719 161.06 42.5654 160.732C42.1247 159.777 41.8539 158.745 41.8013 157.827C41.8013 157.798 41.7811 157.596 41.7649 157.345C41.7205 156.782 41.6881 156.378 41.6841 156.333C41.6841 156.256 41.7447 156.208 41.8215 156.224C41.8983 156.236 41.963 156.309 41.9671 156.382C41.9671 156.43 42.0156 157.001 42.0439 157.377C42.0641 157.628 42.0803 157.835 42.0843 157.863C42.1369 158.745 42.3956 159.741 42.8241 160.659C42.9697 160.971 43.2041 161.355 43.5195 161.805C44.4938 163.176 46.0179 163.933 46.9881 163.533C47.2468 163.423 47.4368 163.298 47.55 163.152C47.9503 162.638 48.1928 161.813 48.2494 160.76C48.2494 160.74 48.2656 160.526 48.2858 160.291C48.3101 159.992 48.3384 159.656 48.3384 159.623C48.3424 159.55 48.4071 159.506 48.4839 159.522C48.5607 159.538 48.6214 159.615 48.6173 159.688C48.6173 159.712 48.5971 159.971 48.5648 160.364C48.5445 160.599 48.5284 160.809 48.5284 160.829C48.4677 161.946 48.2171 162.792 47.7805 163.346C47.643 163.52 47.4288 163.67 47.1336 163.792C46.9315 163.873 46.7051 163.913 46.4666 163.913Z" fill="#2C1F9C"/>
<path d="M48.3545 162.339C48.2818 162.339 48.2373 162.327 48.2292 162.327C48.1524 162.306 48.0918 162.229 48.0998 162.157C48.1039 162.084 48.1726 162.039 48.2535 162.059C48.2696 162.064 48.7143 162.153 48.9488 161.347C49.0337 161.052 49.0216 160.809 48.9084 160.623C48.7911 160.429 48.6052 160.36 48.5971 160.36C48.5203 160.331 48.4677 160.255 48.4799 160.182C48.492 160.109 48.5648 160.072 48.6416 160.101C48.6537 160.105 48.9569 160.21 49.1429 160.518C49.3005 160.781 49.3288 161.1 49.2197 161.469C48.9933 162.234 48.5688 162.339 48.3545 162.339Z" fill="#2C1F9C"/>
<path d="M42.1367 159.332C42.1084 159.332 42.0761 159.324 42.0437 159.304C42.0154 159.283 41.3161 158.794 41.0452 157.551C40.936 157.049 40.9765 156.754 41.1746 156.641C41.3524 156.54 41.6031 156.641 41.7203 156.718C41.789 156.762 41.8214 156.851 41.785 156.912C41.7527 156.973 41.6678 156.985 41.599 156.94C41.5586 156.912 41.4212 156.847 41.3484 156.888C41.312 156.908 41.2069 157.017 41.3201 157.547C41.5627 158.652 42.1691 159.085 42.1731 159.089C42.2418 159.138 42.2701 159.223 42.2337 159.283C42.2135 159.312 42.1771 159.332 42.1367 159.332Z" fill="#2C1F9C"/>
<path d="M46.2281 166.722C45.9734 166.722 45.658 166.628 45.2861 166.446C43.3739 165.508 43.5518 164.152 43.5558 164.14L43.7054 162.383C43.7135 162.306 43.7822 162.262 43.8631 162.286C43.9439 162.31 44.0046 162.387 43.9965 162.46L43.8469 164.225C43.8388 164.277 43.7054 165.378 45.3751 166.195C45.8723 166.438 46.2321 166.499 46.4383 166.365C46.7213 166.187 46.6485 165.694 46.6485 165.69L46.5191 163.82C46.5151 163.743 46.5757 163.686 46.6566 163.695C46.7374 163.703 46.8062 163.775 46.8143 163.852L46.9436 165.71C46.9477 165.722 47.0406 166.353 46.6323 166.608C46.5191 166.685 46.3857 166.722 46.2281 166.722Z" fill="#2C1F9C"/>
<path d="M51.4715 170.687C51.3987 170.687 51.3259 170.631 51.3098 170.558C50.9904 169.364 50.3355 168.284 49.3693 167.337C47.8977 165.9 46.6122 164.423 46.6 164.411C46.5434 164.346 46.5475 164.261 46.6 164.221C46.6566 164.18 46.7456 164.196 46.7981 164.257C46.8102 164.273 48.0877 165.738 49.5472 167.163C50.5457 168.138 51.2491 169.307 51.5806 170.538C51.6009 170.615 51.5564 170.679 51.4796 170.683C51.4796 170.687 51.4755 170.687 51.4715 170.687Z" fill="#2C1F9C"/>
<path d="M38.8704 164.504C38.8462 164.504 38.8219 164.5 38.7977 164.484C38.7249 164.447 38.6845 164.362 38.7087 164.298C39.0604 163.387 39.7841 162.905 40.8028 162.905C40.8311 162.905 40.8594 162.905 40.8918 162.905C42.331 162.905 43.7217 162.707 43.7338 162.703C43.8066 162.691 43.8874 162.744 43.9117 162.82C43.9359 162.897 43.8995 162.966 43.8227 162.974C43.8066 162.974 42.3997 163.177 40.9403 163.177C40.912 163.177 40.8837 163.177 40.8513 163.177C39.9256 163.177 39.2909 163.597 38.9715 164.431C38.9634 164.48 38.9189 164.504 38.8704 164.504Z" fill="#2C1F9C"/>
<path d="M46.4425 167.397C45.9614 167.397 45.452 167.151 45.2175 167.033C44.3928 166.629 42.5453 165.427 43.0951 162.918C43.1113 162.845 43.1881 162.812 43.269 162.841C43.3498 162.869 43.3983 162.954 43.3821 163.027C42.897 165.236 44.3726 166.325 45.2984 166.778C45.5854 166.92 46.3414 167.288 46.7942 167.005C47.1823 166.762 47.2995 166.098 47.1419 165.038C47.1297 164.961 47.1863 164.896 47.2672 164.905C47.348 164.909 47.4208 164.977 47.4329 165.054C47.6068 166.22 47.4532 166.96 46.9842 167.256C46.8184 167.357 46.6325 167.397 46.4425 167.397Z" fill="#2C1F9C"/>
<path d="M46.4262 168.215C46.4262 168.215 46.4221 168.215 46.4262 168.215C46.0947 168.211 45.6783 168.089 45.1932 167.855C44.7121 167.62 44.3038 167.337 43.9682 167.017C43.9076 166.96 43.8995 166.871 43.948 166.823C43.9965 166.774 44.0855 166.782 44.1461 166.839C44.4493 167.134 44.8293 167.393 45.2781 167.612C45.7187 167.826 46.0866 167.936 46.3696 167.94C46.4464 167.94 46.5192 168 46.5353 168.077C46.5515 168.154 46.499 168.215 46.4262 168.215Z" fill="#2C1F9C"/>
<path d="M49.1711 160.34C49.1024 160.34 49.0377 160.291 49.0135 160.226C49.0135 160.226 48.7426 159.664 46.7819 158.47C46.3978 158.235 46.0259 157.94 45.6702 157.584C45.6095 157.523 45.6014 157.438 45.654 157.389C45.7025 157.341 45.7955 157.353 45.8521 157.41C46.1876 157.746 46.5353 158.025 46.8951 158.243C48.0958 158.976 48.6981 159.486 48.9933 159.797C48.9771 159.393 48.9326 158.684 48.8154 157.843C48.8033 157.766 48.8599 157.709 48.9367 157.713C49.0135 157.717 49.0862 157.782 49.0943 157.859C49.2884 159.21 49.2843 160.218 49.2843 160.226C49.2843 160.295 49.2399 160.34 49.1711 160.34Z" fill="#2C1F9C"/>
<path d="M48.8315 157.029C48.7628 157.029 48.6941 156.977 48.6698 156.908C48.1442 155.269 46.3897 153.537 45.1446 153.007C44.8333 152.873 44.4128 152.76 44.1501 152.95C43.5073 153.423 43.8347 154.245 43.8469 154.277C43.8509 154.293 44.2794 155.419 45.1122 156.544C45.1607 156.612 45.1526 156.693 45.092 156.73C45.0314 156.766 44.9424 156.742 44.8939 156.673C44.0288 155.512 43.6002 154.378 43.5841 154.33C43.58 154.326 43.1677 153.294 43.952 152.719C44.2309 152.513 44.6675 152.525 45.2092 152.76C46.5272 153.322 48.3787 155.147 48.9366 156.875C48.9609 156.952 48.9204 157.021 48.8477 157.029C48.8396 157.029 48.8355 157.029 48.8315 157.029Z" fill="#2C1F9C"/>
<path d="M41.2596 156.349C41.1545 156.349 41.0938 156.345 41.0898 156.345C41.0413 156.341 40.9968 156.313 40.9645 156.272C40.9321 156.232 40.924 156.183 40.9402 156.143C40.9443 156.135 41.1949 155.41 41.1747 154.888V154.868C41.1423 154.16 41.1909 152.901 41.862 152.432C42.1369 152.238 42.4886 152.205 42.905 152.331C43.2486 152.436 43.5356 152.614 43.8146 152.784L43.948 152.865C44.0208 152.909 44.0531 152.994 44.0208 153.055C43.9884 153.12 43.9035 153.136 43.8307 153.092L43.6933 153.007C43.4224 152.841 43.1677 152.683 42.8645 152.59C42.533 152.489 42.2622 152.513 42.0479 152.667C41.4415 153.092 41.4294 154.378 41.4496 154.909V154.929C41.4658 155.325 41.3445 155.811 41.2677 156.074C41.862 156.07 43.4709 155.908 43.568 154.273C43.572 154.2 43.6407 154.156 43.7176 154.176C43.7944 154.196 43.855 154.269 43.851 154.342C43.7459 156.204 41.8458 156.349 41.2596 156.349Z" fill="#2C1F9C"/>
<path d="M48.9042 160.57C48.8597 160.57 48.8152 160.55 48.7829 160.514C48.7263 160.453 48.7223 160.368 48.7748 160.319L49.0416 160.089C49.0942 160.044 49.1831 160.056 49.2397 160.117C49.2963 160.178 49.3004 160.263 49.2478 160.311L48.981 160.542C48.9608 160.562 48.9325 160.57 48.9042 160.57Z" fill="#2C1F9C"/>
<path d="M42.3392 154.957C42.315 154.957 42.2867 154.949 42.2584 154.933C42.1856 154.892 42.1533 154.807 42.1816 154.743C42.7678 153.48 43.5318 153.427 43.5642 153.423C43.6369 153.419 43.7178 153.476 43.734 153.553C43.7501 153.63 43.7057 153.695 43.6329 153.699C43.6208 153.699 42.9658 153.767 42.4443 154.892C42.4241 154.933 42.3837 154.957 42.3392 154.957Z" fill="#2C1F9C"/>
<path d="M49.1712 160.222C49.0985 160.222 49.0257 160.166 49.0095 160.093C49.0055 160.081 48.6821 158.895 47.5178 157.373C47.4652 157.308 47.4733 157.223 47.5339 157.187C47.5946 157.151 47.6835 157.175 47.732 157.24C48.9408 158.822 49.2683 160.024 49.2844 160.077C49.3046 160.153 49.2602 160.218 49.1834 160.222C49.1793 160.222 49.1753 160.222 49.1712 160.222Z" fill="#2C1F9C"/>
</g>
</g>
<path d="M60.9613 158.064L61.4037 159.355C61.4669 159.536 61.5842 159.707 61.7242 159.811L62.7173 160.552C63.0694 160.813 63.2093 161.387 62.952 161.522L62.2343 161.91C62.135 161.964 62.0898 162.1 62.1124 162.271L62.2839 163.504C62.3426 163.937 61.977 164.032 61.6655 163.662L60.7762 162.614C60.6498 162.466 60.5054 162.38 60.379 162.384L59.4897 162.407C59.1783 162.416 58.8081 161.897 58.8713 161.531L59.0429 160.493C59.0654 160.348 59.0203 160.159 58.921 159.987L58.2033 158.769C57.9505 158.34 58.0904 157.924 58.438 158.069L59.4311 158.475C59.571 158.534 59.6884 158.502 59.7516 158.394L60.1939 157.617C60.3519 157.347 60.8033 157.608 60.9613 158.064Z" fill="#FDFDFD"/>
<path d="M66.7846 161.576L67.2269 162.867C67.2901 163.048 67.4075 163.219 67.5474 163.323L68.5405 164.063C68.8926 164.325 69.0325 164.899 68.7752 165.034L68.0575 165.422C67.9582 165.476 67.9131 165.612 67.9356 165.783L68.1072 167.016C68.1659 167.449 67.8002 167.544 67.4887 167.174L66.5995 166.126C66.4731 165.977 66.3286 165.892 66.2023 165.896L65.313 165.919C65.0015 165.928 64.6314 165.409 64.6946 165.043L64.8661 164.005C64.8887 163.86 64.8435 163.671 64.7442 163.499L64.0265 162.28C63.7737 161.852 63.9136 161.436 64.2612 161.581L65.2543 161.987C65.3942 162.046 65.5116 162.014 65.5748 161.906L66.0172 161.129C66.1752 160.858 66.6311 161.12 66.7846 161.576Z" fill="#FDFDFD"/>
<path d="M72.6117 165.088L73.0541 166.379C73.1173 166.56 73.2346 166.731 73.3746 166.835L74.3677 167.575C74.7198 167.837 74.8597 168.41 74.6024 168.546L73.8847 168.934C73.7853 168.988 73.7402 169.124 73.7628 169.295L73.9343 170.528C73.993 170.961 73.6274 171.056 73.3159 170.686L72.4266 169.638C72.3002 169.489 72.1558 169.404 72.0294 169.408L71.1401 169.431C70.8287 169.44 70.4585 168.921 70.5217 168.555L70.6933 167.517C70.7158 167.372 70.6707 167.183 70.5714 167.011L69.8536 165.792C69.6009 165.364 69.7408 164.948 70.0884 165.093L71.0815 165.499C71.2214 165.558 71.3388 165.526 71.4019 165.418L71.8443 164.641C72.0023 164.37 72.4537 164.632 72.6117 165.088Z" fill="#FDFDFD"/>
<path d="M78.4398 168.6L78.8822 169.891C78.9454 170.072 79.0628 170.243 79.2027 170.347L80.1958 171.087C80.5479 171.349 80.6878 171.922 80.4305 172.058L79.7128 172.446C79.6135 172.5 79.5683 172.636 79.5909 172.807L79.7624 174.039C79.8211 174.473 79.4555 174.568 79.144 174.197L78.2548 173.15C78.1284 173.001 77.9839 172.915 77.8575 172.92L76.9683 172.942C76.6568 172.952 76.2866 172.432 76.3498 172.067L76.5214 171.029C76.5439 170.884 76.4988 170.695 76.3995 170.523L75.6818 169.304C75.429 168.875 75.5689 168.46 75.9165 168.605L76.9096 169.011C77.0495 169.069 77.1669 169.038 77.2301 168.93L77.6724 168.153C77.8304 167.882 78.2818 168.144 78.4398 168.6Z" fill="#FDFDFD"/>
<path d="M84.2626 172.112L84.705 173.403C84.7682 173.584 84.8855 173.755 85.0255 173.859L86.0185 174.599C86.3706 174.861 86.5106 175.434 86.2533 175.57L85.5355 175.958C85.4362 176.012 85.3911 176.147 85.4137 176.319L85.5852 177.551C85.6439 177.985 85.2782 178.079 84.9668 177.709L84.0775 176.662C83.9511 176.513 83.8067 176.427 83.6803 176.432L82.791 176.454C82.4796 176.463 82.1094 175.944 82.1726 175.579L82.3441 174.54C82.3667 174.396 82.3216 174.206 82.2222 174.035L81.5045 172.816C81.2517 172.387 81.3917 171.972 81.7393 172.116L82.7323 172.523C82.8723 172.581 82.9896 172.55 83.0528 172.441L83.4952 171.665C83.6532 171.394 84.1091 171.656 84.2626 172.112Z" fill="#FDFDFD"/>
<path d="M81.6265 188.015L58.9255 174.911C58.4199 174.622 58.0137 173.841 58.0137 173.168C58.0137 172.496 58.4244 172.189 58.9255 172.478L81.6265 185.582C82.132 185.871 82.5383 186.652 82.5383 187.324C82.5383 187.997 82.1275 188.308 81.6265 188.015Z" fill="white"/>
<path d="M68.5855 175.872L58.9255 170.297C58.4199 170.008 58.0137 169.227 58.0137 168.555C58.0137 167.882 58.4244 167.575 58.9255 167.864L68.5855 173.439C69.0911 173.728 69.4973 174.509 69.4973 175.181C69.4973 175.859 69.0866 176.166 68.5855 175.872Z" fill="white"/>
<path d="M81.5 183.329L72.5984 178.188C72.0928 177.899 71.6865 177.118 71.6865 176.445C71.6865 175.773 72.0973 175.466 72.5984 175.755L81.5 180.896C82.0055 181.185 82.4118 181.966 82.4118 182.639C82.4118 183.316 82.0055 183.623 81.5 183.329Z" fill="white"/>
<path d="M128.279 319.824L112.769 329.8C109.275 332.048 109.429 337.207 113.053 339.243L152.957 361.664C164.68 368.25 179.057 367.943 190.487 360.861L244.231 327.561" stroke="#C7E1F8" stroke-width="3.1905" stroke-miterlimit="10" stroke-linecap="round" stroke-linejoin="round"/>
<path d="M125.891 324.058C128.554 324.058 130.712 322.813 130.712 321.277C130.712 319.742 128.554 318.497 125.891 318.497C123.229 318.497 121.07 319.742 121.07 321.277C121.07 322.813 123.229 324.058 125.891 324.058Z" fill="#C7E1F8"/>
<path d="M214.063 273.194C216.726 273.194 218.884 271.949 218.884 270.413C218.884 268.878 216.726 267.633 214.063 267.633C211.401 267.633 209.242 268.878 209.242 270.413C209.242 271.949 211.401 273.194 214.063 273.194Z" fill="#C7E1F8"/>
<path d="M172.462 369.139C175.125 369.139 177.283 367.894 177.283 366.359C177.283 364.823 175.125 363.578 172.462 363.578C169.8 363.578 167.641 364.823 167.641 366.359C167.641 367.894 169.8 369.139 172.462 369.139Z" fill="#C7E1F8"/>
<path d="M5.28581 353.038C7.94835 353.038 10.1068 351.793 10.1068 350.257C10.1068 348.722 7.94835 347.477 5.28581 347.477C2.62326 347.477 0.464844 348.722 0.464844 350.257C0.464844 351.793 2.62326 353.038 5.28581 353.038Z" fill="#C7E1F8"/>
<path opacity="0.27" d="M68.852 320.487C59.9007 315.116 45.2392 314.877 36.1119 319.946C26.9846 325.015 26.8446 333.479 35.7959 338.846C44.7472 344.218 59.2462 344.461 68.5405 339.496C78.7648 334.034 77.8033 325.855 68.852 320.487Z" fill="#4A70D6"/>
<path d="M61.4669 319.305C52.9625 314.204 39.0413 313.974 30.3744 318.79C21.7075 323.607 21.5721 331.642 30.0765 336.742C38.5809 341.843 52.3486 342.078 61.178 337.361C70.8786 332.17 69.9668 324.406 61.4669 319.305Z" fill="#00D1A7"/>
<path d="M61.169 314.019C52.6646 308.918 38.7434 308.688 30.0765 313.504C21.4096 318.321 21.2742 326.356 29.7786 331.456C38.283 336.557 52.0507 336.792 60.8801 332.075C70.5807 326.884 69.6689 319.115 61.169 314.019Z" fill="#08F7C8"/>
<path d="M40.1381 317.517L37.6147 326.18L58.0452 321.557" stroke="white" stroke-width="10.0579" stroke-miterlimit="10" stroke-linecap="round" stroke-linejoin="round"/>
<path d="M248.577 190.213L248.528 190.186C248.528 190.186 248.546 190.204 248.577 190.213Z" fill="#FF619A"/>
<path d="M325.275 212.53L324.106 172.789C323.858 169.869 322.598 167.255 320.693 165.282C319.732 163.887 318.527 162.614 317.01 161.527C310.668 156.981 296.196 146.978 287.475 142.73C275.535 136.916 261.212 134.226 251.782 140.284C250.126 141.065 248.559 142.432 247.097 144.581C247.092 144.586 247.092 144.59 247.088 144.595C246.402 145.479 245.964 146.274 245.707 147.028C241.382 156.53 244.032 167.431 243.328 180.959C243.946 186.033 244.768 188.096 248.568 190.064L248.745 190.163C248.677 190.222 248.618 190.227 248.578 190.213L301.346 219.36C301.464 219.428 301.581 219.496 301.703 219.559L302.339 219.911C302.339 219.911 302.362 219.906 302.398 219.897C310.726 223.653 325.871 219.974 325.275 212.53Z" fill="url(#paint0_linear)"/>
<path d="M264.702 136.853C259.935 136.876 255.484 137.909 251.782 140.284C250.126 141.065 248.559 142.432 247.097 144.581C247.092 144.586 247.092 144.59 247.088 144.595C246.402 145.479 245.964 146.274 245.707 147.028C241.382 156.53 244.032 167.431 243.328 180.959C243.946 186.033 244.768 188.096 248.568 190.064L248.745 190.164C248.677 190.222 248.618 190.227 248.578 190.213L257.578 195.183C257.578 195.183 272.082 136.817 264.702 136.853Z" fill="#D9E9FF"/>
<path d="M325.275 212.53L324.106 172.789C323.858 169.869 322.598 167.255 320.693 165.282C319.732 163.887 318.527 162.615 317.01 161.527C310.668 156.981 310.871 156.548 301.996 152.634C293.912 149.068 277.521 206.188 277.485 206.179L301.351 219.365C301.468 219.432 301.586 219.5 301.708 219.563L302.344 219.915C302.344 219.915 302.367 219.911 302.403 219.902C310.727 223.653 325.871 219.974 325.275 212.53Z" fill="#D9E9FF"/>
<path d="M294.395 150.16L265.46 149.339L270.078 133.693C279.666 133.513 286.414 136.573 294.485 142.053L294.395 150.16Z" fill="#174082"/>
<path d="M275.111 152.634C275.111 152.634 277.408 153.428 279.44 152.986L286.807 165.472L286.428 165.883C285.245 167.156 283.074 167.02 282.288 165.621L275.111 152.634Z" fill="#152859"/>
<path d="M282.347 153.939C282.347 153.939 280.126 153.754 278.682 152.634L267.058 160.267L267.18 160.746C267.559 162.235 269.378 162.921 270.647 162.055L282.347 153.939Z" fill="#152859"/>
<path d="M277.91 163.648C277.91 164.542 277.278 164.903 276.497 164.452C275.716 164 275.084 162.912 275.084 162.019C275.084 161.125 275.716 160.764 276.497 161.215C277.278 161.667 277.91 162.754 277.91 163.648Z" fill="#152859"/>
<path d="M277.91 170.031C277.91 170.925 277.278 171.286 276.497 170.835C275.716 170.383 275.084 169.295 275.084 168.401C275.084 167.508 275.716 167.147 276.497 167.598C277.278 168.045 277.91 169.137 277.91 170.031Z" fill="#152859"/>
<path d="M277.503 177.313C278.05 176.993 278.043 175.965 277.488 175.015C276.933 174.066 276.04 173.556 275.494 173.876C274.947 174.195 274.954 175.224 275.509 176.173C276.063 177.122 276.956 177.632 277.503 177.313Z" fill="#152859"/>
<path d="M280.753 152.147C280.753 152.147 272.912 152.115 271.445 138.474L266.227 137.747C265.505 138.32 263.997 137.932 263.297 142.496C262.882 145.208 263.067 147.985 263.731 150.648L265.667 158.425C266.101 160.168 268.24 160.962 269.703 159.929L280.753 152.147Z" fill="#6CA4FF"/>
<path d="M280.961 152.183C280.961 152.183 278.74 151.998 277.296 150.878L265.672 158.511L265.794 158.99C266.173 160.479 267.993 161.165 269.261 160.299L280.961 152.183Z" fill="#FCFEFF"/>
<path d="M276.713 148.747L273.508 120.955L289.574 128.624L292.169 151.316C292.878 155.054 279.828 163.147 276.713 148.747Z" fill="#FFC2B0"/>
<path d="M276.068 144.094C276.312 144.793 284.432 142.094 284.189 141.218C284.189 141.218 280.672 146.4 276.628 148.021L276.068 144.094Z" fill="#D18B77"/>
<path d="M276.862 151.551C276.862 151.551 285.656 154.589 294.485 142.053L301.292 149.605C301.807 150.711 301.617 150.986 300.719 151.966L288.87 165.187C287.497 166.682 284.951 166.51 284.062 164.862L276.862 151.551Z" fill="#6CA4FF"/>
<path d="M276.862 151.551C276.862 151.551 278.948 151.903 280.961 151.767L288.703 164.921L288.323 165.332C287.141 166.605 284.97 166.469 284.184 165.07L276.862 151.551Z" fill="#FCFEFF"/>
<path d="M258.283 138.139C255.493 150.151 250.266 163.811 251.868 172.347L257.701 171.67L253.877 182.268L255.006 193.739L259.786 196.402C261.542 179.736 265.036 157.419 271.965 134.641C266.376 134.411 264.598 135.485 258.283 138.139Z" fill="white"/>
<path d="M311.959 156.512L295.171 186.196L286.82 184.571L287.362 197.648L281.566 208.432L274.777 204.663C277.67 194.836 281.584 183.383 286.744 171.661C290.486 163.165 295.37 150.133 294.485 142.049C300.087 144.915 307.264 151.402 311.959 156.512Z" fill="white"/>
<path d="M292.77 141.94C295.541 144.324 297.929 147.253 297.175 151.144C296.593 154.151 294.954 156.764 294.516 159.847C293.659 165.896 295.27 171.918 295.437 177.953C295.487 179.732 298.259 179.705 298.209 177.917C297.983 169.914 295.853 162.587 298.85 154.819C301.175 148.788 299.554 144.13 294.729 139.981C293.383 138.821 291.42 140.776 292.77 141.94Z" fill="#1E3980"/>
<path d="M295.929 153.943C292.305 160.8 283.412 164.989 283.868 173.904C283.958 175.678 286.73 175.655 286.64 173.868C286.229 165.815 295.018 161.599 298.326 155.333C299.157 153.753 296.76 152.363 295.929 153.943Z" fill="#1E3980"/>
<path d="M293.383 180.892L284.373 200.288C282.27 204.414 280.762 206.617 275.503 204.31C275.224 205.055 274.948 205.805 274.709 206.563L275.517 206.938C279.336 208.712 283.9 207.091 285.674 203.272L296.466 180.03C298.24 176.206 295.121 177.145 293.383 180.892Z" fill="#6CA4FF"/>
<path d="M273.034 203.164L275.892 204.121C276.695 204.392 277.133 205.267 276.862 206.071L276.722 206.486C276.452 207.29 275.576 207.727 274.772 207.457L271.915 206.5C271.111 206.229 270.674 205.353 270.944 204.55L271.084 204.134C271.355 203.331 272.231 202.893 273.034 203.164Z" fill="#1E3980"/>
<path d="M286.644 178.188L286.667 199.575C286.843 204.202 287.28 206.838 293.027 206.951C292.968 207.746 292.9 208.54 292.801 209.33H291.912C287.7 209.335 284.243 205.944 284.238 201.733L284.211 176.107C284.202 171.895 286.639 174.058 286.644 178.188Z" fill="#6CA4FF"/>
<path d="M295.749 206.951L292.756 206.617C291.912 206.522 291.149 207.136 291.054 207.98L291.005 208.414C290.91 209.258 291.524 210.021 292.368 210.115L295.361 210.449C296.205 210.544 296.968 209.93 297.063 209.086L297.112 208.653C297.203 207.809 296.589 207.041 295.749 206.951Z" fill="#1E3980"/>
<path d="M295.054 179.578L296.539 180.007C297.311 180.228 298.114 179.781 298.335 179.009L298.561 178.215C298.782 177.443 298.335 176.639 297.563 176.418L296.078 175.989C295.306 175.768 294.503 176.215 294.282 176.987L294.052 177.782C293.839 178.549 294.282 179.357 295.054 179.578Z" fill="#1E3980"/>
<path d="M284.672 176.716L286.216 176.834C287.015 176.892 287.714 176.296 287.773 175.493L287.836 174.671C287.895 173.872 287.299 173.173 286.495 173.114L284.952 172.997C284.153 172.938 283.453 173.534 283.394 174.337L283.331 175.159C283.272 175.958 283.873 176.658 284.672 176.716Z" fill="#1E3980"/>
<path d="M261.686 179.687C262.702 169.318 262.95 158.796 264.621 148.499C265.717 141.742 267.699 133.675 275.441 132.154C276.984 131.852 276.79 129.382 275.228 129.689C268.092 131.093 264.797 136.7 263.126 143.358C260.219 154.945 260.418 167.399 259.258 179.231C259.1 180.806 261.528 181.271 261.686 179.687Z" fill="#1E3980"/>
<path d="M253.674 180.693C252.342 184.097 254.026 187.934 257.43 189.265C260.833 190.597 264.67 188.913 266.002 185.51C267.333 182.106 265.65 178.269 262.246 176.938C258.842 175.61 255.001 177.29 253.674 180.693Z" fill="url(#paint1_linear)"/>
<path d="M260.432 186.793C263.235 186.537 265.299 184.058 265.043 181.255C264.787 178.452 262.307 176.388 259.505 176.644C256.702 176.9 254.637 179.38 254.893 182.182C255.15 184.985 257.629 187.05 260.432 186.793Z" fill="#FBFBFF"/>
<path d="M260.614 184.795C263.422 184.606 265.545 182.176 265.356 179.368C265.168 176.56 262.738 174.437 259.93 174.626C257.122 174.814 254.998 177.244 255.187 180.052C255.376 182.86 257.806 184.984 260.614 184.795Z" fill="#1E3980"/>
<path d="M277.67 144.121L270.795 144.419C262.679 144.879 257.271 138.614 256.811 130.497L255.294 103.702C254.834 95.586 261.099 88.5713 269.216 88.1108L274.483 87.8129C282.6 87.3525 289.614 93.6179 290.075 101.734L291.591 128.529C292.052 136.645 285.786 143.665 277.67 144.121Z" fill="#FFC2B0"/>
<path d="M276.862 108.875C271.405 111.602 264.083 112.085 257.912 109.868C251.214 107.462 246.465 99.7253 251.561 94.7554C254.315 92.0695 261.722 88.7788 267.667 86.2058C284.522 78.9067 302.764 86.4812 303.86 105.891C303.86 105.891 306.045 132.465 290.634 136.754L289.538 132.885C289.538 132.885 295.645 126.958 288.594 122.088C286.463 120.616 284.342 116.955 284.473 113.719C284.599 110.446 279.792 107.408 276.862 108.875Z" fill="#305DAD"/>
<path d="M295.658 125.161C296.362 121.715 295.001 118.527 292.619 118.041C290.238 117.555 287.737 119.955 287.034 123.402C286.331 126.848 287.691 130.036 290.073 130.522C292.455 131.008 294.955 128.608 295.658 125.161Z" fill="#FFC2B0"/>
<path d="M273.188 126.01C273.296 127.143 272.926 128.109 272.366 128.164C271.802 128.218 271.26 127.342 271.152 126.205C271.044 125.071 271.414 124.106 271.974 124.051C272.538 123.997 273.08 124.873 273.188 126.01Z" fill="#1D3570"/>
<path d="M262.151 120.833C262.286 121.966 261.939 122.936 261.379 123.004C260.819 123.072 260.255 122.205 260.12 121.072C259.984 119.939 260.332 118.969 260.892 118.901C261.451 118.838 262.016 119.7 262.151 120.833Z" fill="#1D3570"/>
<path d="M271.035 120.616C272.768 120.612 274.42 121.65 275.59 122.86C276.587 123.889 278.153 122.318 277.16 121.289C275.585 119.659 273.346 118.386 271.035 118.395C269.608 118.4 269.604 120.621 271.035 120.616Z" fill="#1D3570"/>
<path d="M258.648 114.829C260.273 114.87 261.745 115.606 262.828 116.802C263.79 117.863 265.356 116.292 264.399 115.231C262.932 113.606 260.833 112.658 258.648 112.608C257.222 112.572 257.222 114.793 258.648 114.829Z" fill="#1D3570"/>
<path d="M263.97 131.206C263.239 131.206 262.472 130.989 261.944 130.267C261.443 129.581 260.905 128.168 262.946 126.435C264.724 124.918 264.986 121.848 264.991 121.817C265.009 121.587 265.207 121.42 265.437 121.433C265.668 121.451 265.839 121.654 265.821 121.88C265.812 122.02 265.528 125.329 263.487 127.067C262.323 128.06 262.034 128.967 262.621 129.775C263.51 130.989 265.69 129.983 265.713 129.969C265.92 129.87 266.169 129.96 266.268 130.168C266.367 130.375 266.277 130.624 266.069 130.723C265.997 130.755 265.022 131.206 263.97 131.206Z" fill="#D18B77"/>
<path d="M289.849 123.573C289.849 123.573 292.318 120.837 293.28 123.365C294.246 125.893 290.752 128.552 290.752 128.552C290.752 128.552 292.472 126.335 291.194 125.189C289.917 124.042 289.849 123.573 289.849 123.573Z" fill="#D18B77"/>
<path d="M261.573 132.028L269.351 135.359C269.671 135.494 269.87 135.828 269.82 136.176C269.64 137.413 268.764 140.026 264.516 138.51C261.542 137.449 260.706 134.555 260.476 132.845C260.4 132.24 261.013 131.788 261.573 132.028Z" fill="white"/>
<path d="M263.352 179.276C263.352 180.842 262.083 182.111 260.517 182.111C258.951 182.111 257.682 180.842 257.682 179.276C257.682 177.709 258.951 176.441 260.517 176.441C262.083 176.436 263.352 177.709 263.352 179.276Z" fill="#25469E"/>
</g>
<defs>
<linearGradient id="paint0_linear" x1="261.781" y1="204.095" x2="310.822" y2="155.053" gradientUnits="userSpaceOnUse">
<stop stop-color="#88BEFF"/>
<stop offset="0.1358" stop-color="#80B3FD"/>
<stop offset="0.3739" stop-color="#6C96F8"/>
<stop offset="0.4839" stop-color="#6186F5"/>
<stop offset="0.9946" stop-color="#366BC1"/>
</linearGradient>
<linearGradient id="paint1_linear" x1="253.216" y1="183.105" x2="266.454" y2="183.105" gradientUnits="userSpaceOnUse">
<stop stop-color="#88BEFF"/>
<stop offset="0.1358" stop-color="#80B3FD"/>
<stop offset="0.3739" stop-color="#6C96F8"/>
<stop offset="0.4839" stop-color="#6186F5"/>
<stop offset="0.9946" stop-color="#366BC1"/>
</linearGradient>
<clipPath id="clip0">
<rect width="399.535" height="368.235" fill="white" transform="translate(0.464844 0.904541)"/>
</clipPath>
<clipPath id="clip1">
<rect width="17.9213" height="19.5505" fill="white" transform="translate(36.3071 151.606)"/>
</clipPath>
</defs>
</svg>
