<svg width="316" height="335" viewBox="0 0 316 335" fill="none" xmlns="http://www.w3.org/2000/svg">
<g clip-path="url(#clip0)">
<path d="M64.7105 260.355L16.2855 232.462C11.7966 229.875 13.6148 224.208 20.322 219.86L37.7294 208.587C44.4366 204.243 53.5971 202.802 58.0859 205.389L106.511 233.282C111 235.868 109.182 241.535 102.474 245.883L85.067 257.157C78.3598 261.496 69.1994 262.937 64.7105 260.355Z" fill="#3D62C4"/>
<g opacity="0.39">
<path opacity="0.39" d="M256.414 277.76L107.124 191.772L21.5353 242.017L17.4335 242.981L60.5389 268.435L3.78857 301.843L55.5846 332.314L112.574 299.157L166.38 330.93L256.414 277.76Z" fill="#CCD9FC"/>
</g>
<path d="M71.8956 234.32C75.1013 231.924 78.381 229.607 81.8521 227.607C83.0613 226.908 84.2966 226.244 85.5667 225.654C85.6319 225.624 86.9673 225.038 86.0495 225.424C85.1665 225.797 86.3844 225.298 86.4801 225.263C87.0586 225.055 87.6371 224.851 88.2287 224.686C88.655 224.565 89.0856 224.478 89.5162 224.374C91.0473 224.005 88.407 224.348 89.5597 224.365C89.9164 224.369 90.3905 224.413 90.7472 224.356C91.5084 224.239 90.0164 224.361 89.912 224.226C90.0077 224.348 90.4644 224.257 90.5906 224.37C90.6167 224.391 90.9472 224.491 91.0168 224.5C91.8607 224.613 89.9816 223.805 90.3078 224.205C90.3252 224.226 91.0734 224.712 91.1125 224.699C90.5079 224.895 90.1121 223.397 90.708 224.482C91.3083 225.576 89.9686 223.055 90.6428 224.426C90.6906 224.526 91.0734 225.333 91.1299 225.346C90.7689 225.268 90.5993 223.753 90.9864 225.09C91.243 225.966 91.3909 226.856 91.6214 227.732C91.8607 228.644 91.4779 226.153 91.6084 227.654C91.6475 228.127 91.6954 228.596 91.7258 229.069C91.7954 230.136 91.8172 231.213 91.8128 232.284C91.7911 237.04 91.2822 241.788 90.7993 246.513C90.2382 252.024 89.6162 257.548 89.5684 263.094C89.5075 270.644 101.265 270.653 101.33 263.094C101.417 252.553 103.657 242.13 103.574 231.586C103.54 227.177 103.135 222.252 100.738 218.412C97.6893 213.526 92.4566 212.059 86.9977 212.953C79.264 214.22 72.0609 219.631 65.9627 224.187C63.4268 226.084 62.1219 229.256 63.8531 232.211C65.3146 234.71 69.3424 236.233 71.8956 234.32Z" fill="#FFC2B0"/>
<path d="M93.1958 270.084L95.2271 276.302C95.9231 277.348 98.2371 279.114 99.381 278.593C104.127 276.441 116.854 271.863 114.696 266.27C111.986 259.24 94.0135 267.528 94.0135 267.528L93.1958 270.084Z" fill="#2C1F9C"/>
<path d="M97.837 263.861C97.837 263.861 104.997 262.898 108.315 265.306C109.616 266.252 108.415 267.715 106.062 268.821C101.43 271 96.0797 270.375 93.5221 266.821L91.8735 265.836L97.837 263.861Z" fill="#FFC2B0"/>
<path d="M87.0759 265.011L88.8071 279.704C88.8636 280.177 89.1159 280.607 89.503 280.889C90.6035 281.683 92.1476 280.95 92.2172 279.596L92.8697 267.359C92.8957 266.886 92.7218 266.422 92.3912 266.083L90.0119 263.627C88.868 262.447 86.8845 263.389 87.0759 265.011Z" fill="#2C1F9C"/>
<path d="M88.7767 261.397C88.7767 261.397 84.4705 264.508 88.3504 273.647C88.4026 273.769 88.4287 274.129 88.5114 274.02C92.313 268.982 95.2316 274.02 95.2316 274.02L105.927 269.49C105.927 269.49 98.8984 271.278 93.196 265.389C91.6823 263.827 88.7767 261.397 88.7767 261.397Z" fill="#2C1F9C"/>
<path d="M108.05 278.55L110.082 284.768C110.778 285.814 113.092 287.58 114.236 287.06C118.981 284.907 131.708 280.329 129.551 274.736C126.841 267.706 108.868 275.994 108.868 275.994L108.05 278.55Z" fill="#2C1F9C"/>
<path d="M112.691 272.328C112.691 272.328 119.851 271.364 123.17 273.773C124.47 274.719 123.27 276.181 120.917 277.287C116.284 279.466 110.934 278.841 108.377 275.287L106.728 274.302L112.691 272.328Z" fill="#FFC2B0"/>
<path d="M72.5439 246.894C84.984 245.953 95.1709 240.069 105.667 233.924C106.463 233.456 107.267 232.996 108.094 232.579C108.333 232.458 109.512 231.972 108.442 232.384C107.359 232.8 108.677 232.358 108.907 232.254C109.934 231.798 107.889 232.288 108.333 232.293C108.698 232.297 108.555 232.41 107.894 232.202C105.963 231.594 108.712 232.709 106.872 231.906C105.597 231.351 107.063 232.197 105.967 231.373C105.188 230.787 105.41 230.93 105.601 231.121C104.714 230.214 104.688 229.88 104.962 230.357C104.183 228.99 104.449 229.064 104.605 229.624C104.684 229.902 104.688 230.44 104.605 229.442C104.505 228.183 104.584 229.472 104.605 229.785C104.662 230.479 104.705 231.173 104.736 231.872C104.827 233.681 104.853 235.491 104.853 237.3C104.849 240.898 104.714 244.499 104.549 248.092C104.157 256.476 103.518 264.859 103.64 273.256C103.688 276.424 106.31 279.123 109.521 279.123C112.674 279.123 115.445 276.437 115.401 273.256C115.284 265.341 115.854 257.435 116.241 249.533C116.437 245.567 116.602 241.601 116.615 237.63C116.628 234.111 116.754 230.31 116.015 226.847C114.871 221.462 109.425 219.461 104.618 221.362C100.043 223.171 96.0017 226.144 91.726 228.539C90.2471 229.368 88.7465 230.162 87.2197 230.9C86.3759 231.308 85.5277 231.703 84.6665 232.071C84.9057 231.967 85.5799 231.72 84.4794 232.141C84.0271 232.314 83.5747 232.492 83.1223 232.662C81.352 233.317 79.5469 233.877 77.7113 234.319C76.7196 234.558 75.7148 234.749 74.71 234.931C74.5926 234.953 73.5704 235.087 74.4273 234.983C73.801 235.061 73.1746 235.109 72.5483 235.157C69.3817 235.395 66.6675 237.682 66.6675 241.023C66.6631 244.018 69.3599 247.133 72.5439 246.894Z" fill="#FFC2B0"/>
<path d="M101.926 273.478L103.653 288.171C103.709 288.644 103.962 289.074 104.349 289.356C105.449 290.15 106.993 289.416 107.063 288.062L107.715 275.826C107.742 275.353 107.568 274.888 107.237 274.55L104.858 272.094C103.718 270.918 101.735 271.855 101.926 273.478Z" fill="#2C1F9C"/>
<path d="M103.627 269.863C103.627 269.863 99.3206 272.975 103.201 282.113C103.253 282.235 103.279 282.595 103.361 282.486C107.163 277.449 110.082 282.486 110.082 282.486L120.778 277.956C120.778 277.956 113.748 279.744 108.046 273.856C106.537 272.293 103.627 269.863 103.627 269.863Z" fill="#2C1F9C"/>
<path d="M73.0009 250.991L104.762 236.172C104.762 236.172 101.204 210.587 82.5354 213.469C51.7701 218.22 46.3591 211.616 46.3591 211.616L45.0238 235.981C42.8141 262.199 62.7835 257.018 73.0009 250.991Z" fill="#6359C2"/>
<path d="M303.899 172.926L182.765 103.159C179.729 101.41 177.241 96.6716 177.241 92.6317V4.82114C177.241 0.781234 179.724 -1.09335 182.765 0.655394L303.899 70.4274C306.935 72.1761 309.423 76.9146 309.423 80.9546V168.761C309.423 172.805 306.94 174.68 303.899 172.926Z" fill="#CFE4FF"/>
<path d="M295.983 182.703L174.848 112.931C171.812 111.182 169.324 106.443 169.324 102.403V14.5929C169.324 10.553 171.808 8.67844 174.848 10.4272L295.983 80.1992C299.019 81.9479 301.507 86.6864 301.507 90.7263V178.533C301.507 182.577 299.023 184.451 295.983 182.703Z" fill="#699EFF"/>
<path d="M288.313 149.309C298.779 141.368 298.069 122.872 286.728 107.996C275.387 93.1205 257.71 87.4983 247.244 95.4389C236.779 103.38 237.489 121.876 248.829 136.752C260.17 151.628 277.848 157.25 288.313 149.309Z" fill="#4680EB"/>
<path d="M247.324 141.465L247.297 141.45C247.297 141.45 247.307 141.46 247.324 141.465Z" fill="#FF619A"/>
<path d="M287.991 153.298L287.371 132.226C287.24 130.678 286.572 129.292 285.562 128.246C285.052 127.506 284.413 126.831 283.609 126.255C280.246 123.844 272.573 118.54 267.948 116.288C261.618 113.205 254.023 111.779 249.023 114.991C248.145 115.405 247.314 116.13 246.539 117.27C246.536 117.272 246.536 117.274 246.534 117.277C246.17 117.746 245.938 118.167 245.802 118.567C243.509 123.605 244.914 129.385 244.54 136.559C244.868 139.249 245.304 140.343 247.319 141.386L247.412 141.439C247.377 141.47 247.345 141.472 247.324 141.465L275.304 156.92C275.366 156.956 275.428 156.992 275.493 157.025L275.83 157.212C275.83 157.212 275.842 157.209 275.861 157.205C280.277 159.196 288.307 157.245 287.991 153.298Z" fill="url(#paint0_linear)"/>
<path d="M255.873 113.172C253.346 113.184 250.986 113.732 249.023 114.991C248.145 115.405 247.314 116.13 246.539 117.27C246.536 117.272 246.536 117.274 246.534 117.277C246.17 117.746 245.938 118.167 245.802 118.567C243.509 123.605 244.914 129.385 244.54 136.559C244.868 139.249 245.304 140.343 247.319 141.386L247.412 141.439C247.377 141.47 247.345 141.472 247.324 141.465L252.097 144.1C252.097 144.1 259.787 113.153 255.873 113.172Z" fill="#D9E9FF"/>
<path d="M287.991 153.299L287.372 132.227C287.24 130.678 286.572 129.292 285.562 128.246C285.052 127.507 284.413 126.832 283.609 126.255C280.246 123.845 280.354 123.615 275.648 121.54C271.362 119.649 262.671 149.936 262.652 149.931L275.306 156.922C275.368 156.958 275.431 156.994 275.495 157.028L275.833 157.214C275.833 157.214 275.845 157.212 275.864 157.207C280.277 159.196 288.307 157.246 287.991 153.299Z" fill="#D9E9FF"/>
<path d="M271.618 120.228L256.275 119.792L258.724 111.496C263.808 111.401 267.386 113.023 271.665 115.929L271.618 120.228Z" fill="#174082"/>
<path d="M261.393 121.54C261.393 121.54 262.611 121.961 263.688 121.726L267.594 128.347L267.393 128.565C266.766 129.24 265.615 129.168 265.198 128.426L261.393 121.54Z" fill="#152859"/>
<path d="M265.229 122.231C265.229 122.231 264.052 122.133 263.286 121.54L257.123 125.587L257.187 125.841C257.388 126.631 258.353 126.994 259.025 126.535L265.229 122.231Z" fill="#152859"/>
<path d="M262.877 127.38C262.877 127.854 262.542 128.045 262.128 127.806C261.713 127.567 261.378 126.99 261.378 126.516C261.378 126.042 261.713 125.85 262.128 126.09C262.542 126.329 262.877 126.906 262.877 127.38Z" fill="#152859"/>
<path d="M262.877 130.764C262.877 131.238 262.542 131.43 262.128 131.19C261.713 130.951 261.378 130.374 261.378 129.9C261.378 129.426 261.713 129.235 262.128 129.474C262.542 129.711 262.877 130.29 262.877 130.764Z" fill="#152859"/>
<path d="M262.661 134.625C262.951 134.456 262.947 133.91 262.653 133.407C262.359 132.904 261.885 132.633 261.596 132.803C261.306 132.972 261.309 133.518 261.604 134.021C261.898 134.524 262.371 134.795 262.661 134.625Z" fill="#152859"/>
<path d="M264.385 121.28C264.385 121.28 260.227 121.264 259.449 114.031L256.683 113.645C256.3 113.949 255.5 113.743 255.129 116.163C254.909 117.602 255.007 119.074 255.359 120.486L256.386 124.61C256.616 125.534 257.75 125.955 258.526 125.407L264.385 121.28Z" fill="#6CA4FF"/>
<path d="M264.495 121.3C264.495 121.3 263.317 121.202 262.551 120.609L256.388 124.656L256.453 124.91C256.654 125.7 257.618 126.063 258.291 125.604L264.495 121.3Z" fill="#FCFEFF"/>
<path d="M262.242 119.479L260.543 104.742L269.061 108.809L270.438 120.841C270.813 122.822 263.894 127.114 262.242 119.479Z" fill="#FFC2B0"/>
<path d="M261.9 117.011C262.03 117.382 266.335 115.951 266.206 115.487C266.206 115.487 264.342 118.234 262.197 119.094L261.9 117.011Z" fill="#D18B77"/>
<path d="M262.321 120.965C262.321 120.965 266.984 122.576 271.665 115.929L275.275 119.933C275.548 120.52 275.447 120.666 274.971 121.185L268.688 128.195C267.96 128.988 266.61 128.897 266.139 128.023L262.321 120.965Z" fill="#6CA4FF"/>
<path d="M262.321 120.965C262.321 120.965 263.427 121.152 264.495 121.08L268.599 128.054L268.398 128.272C267.771 128.947 266.62 128.875 266.204 128.133L262.321 120.965Z" fill="#FCFEFF"/>
<path d="M252.47 113.854C250.991 120.223 248.219 127.466 249.069 131.992L252.161 131.633L250.134 137.253L250.732 143.334L253.267 144.747C254.198 135.91 256.051 124.077 259.724 111.999C256.761 111.877 255.818 112.447 252.47 113.854Z" fill="white"/>
<path d="M280.931 123.595L272.03 139.335L267.602 138.473L267.889 145.407L264.816 151.125L261.216 149.127C262.75 143.916 264.825 137.844 267.561 131.628C269.545 127.123 272.135 120.213 271.666 115.927C274.636 117.447 278.442 120.886 280.931 123.595Z" fill="white"/>
<path d="M270.756 115.87C272.226 117.133 273.492 118.687 273.092 120.75C272.783 122.344 271.915 123.73 271.682 125.365C271.228 128.572 272.082 131.765 272.171 134.965C272.197 135.908 273.667 135.893 273.64 134.946C273.521 130.702 272.391 126.817 273.98 122.698C275.213 119.501 274.354 117.03 271.795 114.831C271.082 114.216 270.041 115.252 270.756 115.87Z" fill="#1E3980"/>
<path d="M272.432 122.234C270.51 125.87 265.795 128.091 266.036 132.818C266.084 133.758 267.554 133.746 267.506 132.799C267.288 128.529 271.948 126.293 273.703 122.971C274.143 122.133 272.872 121.396 272.432 122.234Z" fill="#1E3980"/>
<path d="M271.081 136.522L266.304 146.807C265.189 148.995 264.389 150.163 261.601 148.94C261.453 149.335 261.307 149.732 261.18 150.134L261.608 150.333C263.633 151.273 266.053 150.414 266.993 148.389L272.716 136.065C273.657 134.038 272.003 134.536 271.081 136.522Z" fill="#6CA4FF"/>
<path d="M260.292 148.332L261.807 148.839C262.233 148.983 262.465 149.447 262.321 149.873L262.247 150.094C262.104 150.52 261.639 150.752 261.213 150.608L259.698 150.101C259.272 149.957 259.04 149.493 259.184 149.067L259.258 148.847C259.401 148.421 259.866 148.188 260.292 148.332Z" fill="#1E3980"/>
<path d="M267.508 135.089L267.52 146.43C267.614 148.883 267.846 150.281 270.893 150.341C270.862 150.762 270.826 151.183 270.773 151.602H270.302C268.068 151.604 266.235 149.807 266.233 147.574L266.218 133.986C266.213 131.753 267.506 132.899 267.508 135.089Z" fill="#6CA4FF"/>
<path d="M272.336 150.34L270.749 150.163C270.301 150.113 269.897 150.438 269.846 150.886L269.82 151.115C269.77 151.563 270.095 151.968 270.543 152.018L272.13 152.195C272.577 152.245 272.982 151.92 273.032 151.472L273.058 151.242C273.106 150.795 272.781 150.388 272.336 150.34Z" fill="#1E3980"/>
<path d="M271.967 135.826L272.755 136.054C273.164 136.171 273.59 135.934 273.707 135.525L273.827 135.103C273.944 134.694 273.707 134.268 273.298 134.151L272.51 133.923C272.101 133.806 271.675 134.043 271.558 134.452L271.436 134.874C271.323 135.281 271.558 135.709 271.967 135.826Z" fill="#1E3980"/>
<path d="M266.462 134.309L267.281 134.371C267.704 134.403 268.075 134.087 268.106 133.661L268.14 133.225C268.171 132.801 267.855 132.43 267.429 132.399L266.61 132.337C266.187 132.306 265.816 132.622 265.785 133.048L265.751 133.483C265.72 133.907 266.038 134.278 266.462 134.309Z" fill="#1E3980"/>
<path d="M254.275 135.883C254.813 130.385 254.945 124.806 255.83 119.347C256.412 115.763 257.463 111.486 261.567 110.68C262.386 110.519 262.283 109.21 261.455 109.373C257.671 110.117 255.924 113.09 255.038 116.62C253.497 122.764 253.602 129.368 252.987 135.641C252.903 136.477 254.191 136.723 254.275 135.883Z" fill="#1E3980"/>
<path d="M250.026 136.418C249.32 138.223 250.213 140.257 252.017 140.963C253.822 141.669 255.857 140.776 256.563 138.972C257.269 137.167 256.376 135.133 254.571 134.427C252.767 133.723 250.73 134.613 250.026 136.418Z" fill="url(#paint1_linear)"/>
<path d="M253.609 139.653C255.096 139.517 256.19 138.202 256.054 136.716C255.919 135.23 254.604 134.135 253.118 134.271C251.631 134.407 250.537 135.722 250.673 137.208C250.808 138.694 252.123 139.789 253.609 139.653Z" fill="#FBFBFF"/>
<path d="M253.706 138.593C255.195 138.493 256.32 137.204 256.22 135.715C256.12 134.226 254.832 133.101 253.343 133.201C251.854 133.301 250.728 134.589 250.828 136.078C250.928 137.567 252.217 138.693 253.706 138.593Z" fill="#1E3980"/>
<path d="M262.75 117.025L259.104 117.183C254.801 117.427 251.934 114.105 251.689 109.802L250.885 95.5942C250.641 91.2907 253.963 87.5713 258.267 87.3272L261.06 87.1692C265.363 86.9251 269.083 90.2472 269.327 94.5507L270.131 108.758C270.375 113.062 267.053 116.784 262.75 117.025Z" fill="#FFC2B0"/>
<path d="M262.322 98.3371C259.428 99.7827 255.546 100.039 252.274 98.8636C248.722 97.5879 246.204 93.4855 248.906 90.8503C250.366 89.4262 254.294 87.6813 257.446 86.3171C266.383 82.4468 276.055 86.4631 276.637 96.755C276.637 96.755 277.795 110.845 269.624 113.119L269.042 111.068C269.042 111.068 272.281 107.925 268.542 105.343C267.412 104.562 266.287 102.621 266.357 100.905C266.424 99.17 263.875 97.5592 262.322 98.3371Z" fill="#305DAD"/>
<path d="M272.288 106.973C272.66 105.145 271.939 103.455 270.676 103.197C269.413 102.939 268.087 104.212 267.715 106.04C267.342 107.867 268.063 109.557 269.326 109.815C270.589 110.073 271.915 108.8 272.288 106.973Z" fill="#FFC2B0"/>
<path d="M260.373 107.423C260.431 108.023 260.234 108.536 259.938 108.564C259.638 108.593 259.351 108.129 259.294 107.526C259.236 106.925 259.432 106.413 259.729 106.384C260.028 106.355 260.316 106.819 260.373 107.423Z" fill="#1D3570"/>
<path d="M254.521 104.678C254.593 105.279 254.409 105.793 254.112 105.829C253.815 105.865 253.516 105.405 253.444 104.805C253.372 104.204 253.557 103.689 253.854 103.653C254.15 103.62 254.45 104.077 254.521 104.678Z" fill="#1D3570"/>
<path d="M259.231 104.562C260.15 104.56 261.026 105.11 261.646 105.752C262.175 106.297 263.006 105.464 262.479 104.919C261.644 104.055 260.457 103.38 259.231 103.385C258.475 103.387 258.473 104.565 259.231 104.562Z" fill="#1D3570"/>
<path d="M252.664 101.494C253.526 101.515 254.306 101.906 254.88 102.54C255.39 103.102 256.221 102.269 255.713 101.707C254.935 100.845 253.822 100.343 252.664 100.316C251.908 100.297 251.908 101.475 252.664 101.494Z" fill="#1D3570"/>
<path d="M255.486 110.177C255.098 110.177 254.691 110.062 254.411 109.679C254.145 109.315 253.861 108.566 254.942 107.647C255.885 106.843 256.024 105.215 256.027 105.199C256.036 105.077 256.141 104.988 256.264 104.995C256.386 105.005 256.477 105.113 256.467 105.232C256.462 105.306 256.311 107.061 255.23 107.982C254.612 108.509 254.459 108.99 254.77 109.418C255.242 110.062 256.398 109.529 256.41 109.521C256.52 109.469 256.651 109.517 256.704 109.627C256.757 109.737 256.709 109.868 256.599 109.921C256.56 109.938 256.043 110.177 255.486 110.177Z" fill="#D18B77"/>
<path d="M269.208 106.13C269.208 106.13 270.517 104.68 271.027 106.02C271.539 107.36 269.686 108.77 269.686 108.77C269.686 108.77 270.598 107.595 269.921 106.987C269.243 106.379 269.208 106.13 269.208 106.13Z" fill="#D18B77"/>
<path d="M254.215 110.613L258.339 112.38C258.509 112.452 258.614 112.629 258.588 112.813C258.492 113.469 258.028 114.855 255.775 114.05C254.198 113.488 253.755 111.954 253.633 111.047C253.593 110.726 253.918 110.487 254.215 110.613Z" fill="white"/>
<path d="M255.158 135.666C255.158 136.496 254.485 137.169 253.655 137.169C252.824 137.169 252.152 136.496 252.152 135.666C252.152 134.835 252.824 134.163 253.655 134.163C254.485 134.16 255.158 134.835 255.158 135.666Z" fill="#25469E"/>
<path d="M257.962 278.025L258.362 277.973C259.559 277.821 260.402 276.727 260.25 275.534L251.668 208.904C251.516 207.71 250.42 206.869 249.224 207.02L248.823 207.073C247.627 207.224 246.783 208.318 246.936 209.511L255.518 276.142C255.67 277.335 256.766 278.177 257.962 278.025Z" fill="#6359C2"/>
<path d="M166.158 331.801C164.857 331.689 163.896 330.547 164.009 329.25L173.291 221.756C173.404 220.459 174.548 219.5 175.849 219.613C177.149 219.725 178.111 220.867 177.998 222.164L168.715 329.658C168.602 330.951 167.454 331.914 166.158 331.801Z" fill="#6359C2"/>
<path d="M21.1047 244.729L20.4523 244.672C19.3344 244.577 18.5036 243.592 18.5993 242.477L25.4239 163.436C25.5196 162.321 26.507 161.492 27.6249 161.587L28.2773 161.644C29.3952 161.739 30.226 162.724 30.1303 163.839L23.3057 242.88C23.21 243.995 22.2226 244.824 21.1047 244.729Z" fill="#40379C"/>
<path d="M173.696 271.928L169.203 268.86L170.486 255.951L175.275 256.697L173.696 271.928Z" fill="#40379C"/>
<path d="M249.824 231.43L254.156 228.136L252.482 215.248L247.471 216.294L249.824 231.43Z" fill="#40379C"/>
<path d="M260.359 208.552H250.046L103.997 124.43C101.57 123.033 97.3331 123.207 94.5319 124.821L29.7391 162.139H20.061V169.099C19.8827 170.123 20.4003 171.126 21.6574 171.85L176.38 260.971C178.807 262.369 183.044 262.195 185.845 260.581L258.041 218.997C259.624 218.086 260.407 216.91 260.355 215.808H260.359V208.552Z" fill="#9EC2FF"/>
<path d="M176.38 254.011L21.6616 164.894C19.2345 163.497 19.539 161.058 22.3401 159.444L94.5361 117.86C97.3373 116.246 101.574 116.072 104.001 117.47L258.719 206.586C261.146 207.983 260.842 210.422 258.041 212.036L185.845 253.62C183.043 255.23 178.807 255.408 176.38 254.011Z" fill="#DBEFFF"/>
<g opacity="0.39">
<path opacity="0.39" d="M158.955 183.749L109.56 154.667C106.911 153.144 119.712 146.049 122.539 144.431L124.066 136.655C126.893 135.036 119.956 128.779 122.6 130.306L187.276 167.559C189.924 169.082 189.777 171.629 186.949 173.248L168.868 183.589C166.036 185.203 161.599 185.277 158.955 183.749Z" fill="#A7BCF5"/>
</g>
<path d="M182.399 137.76V137.756C182.399 137.734 182.399 137.713 182.399 137.691C182.399 137.669 182.399 137.648 182.395 137.626C182.395 137.622 182.395 137.622 182.395 137.617C182.395 137.613 182.395 137.613 182.395 137.608C182.395 137.595 182.391 137.578 182.391 137.565C182.391 137.543 182.386 137.522 182.382 137.5C182.382 137.491 182.378 137.478 182.378 137.47C182.378 137.465 182.378 137.461 182.378 137.457C182.378 137.448 182.378 137.444 182.373 137.435C182.369 137.413 182.365 137.392 182.36 137.37C182.356 137.348 182.352 137.331 182.347 137.309C182.347 137.309 182.347 137.309 182.347 137.305C182.343 137.283 182.339 137.261 182.334 137.24C182.33 137.218 182.326 137.196 182.317 137.175C182.317 137.17 182.312 137.162 182.312 137.157C182.312 137.153 182.308 137.149 182.308 137.144C182.304 137.131 182.304 137.122 182.299 137.109C182.295 137.088 182.286 137.07 182.282 137.049C182.278 137.031 182.273 137.018 182.265 137.001C182.265 136.997 182.265 136.997 182.26 136.997C182.26 136.992 182.26 136.992 182.256 136.988C182.247 136.971 182.243 136.949 182.234 136.932C182.225 136.914 182.221 136.897 182.212 136.875C182.208 136.866 182.204 136.858 182.204 136.853C182.204 136.849 182.199 136.845 182.199 136.845C182.195 136.836 182.195 136.832 182.191 136.823C182.182 136.806 182.173 136.784 182.165 136.767C182.156 136.749 182.147 136.728 182.138 136.71C182.138 136.71 182.139 136.706 182.134 136.706C182.134 136.702 182.13 136.702 182.13 136.697C182.121 136.676 182.108 136.658 182.099 136.636C182.091 136.619 182.078 136.602 182.069 136.584C182.06 136.571 182.056 136.558 182.047 136.55C182.043 136.545 182.043 136.537 182.038 136.532C182.021 136.502 182.004 136.476 181.986 136.446C181.982 136.437 181.973 136.428 181.969 136.42C181.969 136.42 181.969 136.415 181.965 136.415C181.943 136.38 181.917 136.346 181.891 136.311C181.886 136.307 181.882 136.302 181.878 136.298C181.873 136.294 181.869 136.289 181.869 136.285C181.86 136.272 181.851 136.263 181.843 136.25C181.83 136.233 181.812 136.211 181.795 136.194C181.791 136.185 181.782 136.181 181.777 136.172C181.773 136.168 181.773 136.163 181.769 136.159C181.764 136.15 181.756 136.146 181.751 136.137C181.734 136.12 181.721 136.103 181.704 136.085C181.69 136.072 181.677 136.059 181.669 136.046C181.664 136.042 181.664 136.042 181.66 136.038L181.656 136.033C181.638 136.016 181.621 135.999 181.603 135.981C181.586 135.964 181.569 135.947 181.547 135.929C181.53 135.912 181.512 135.899 181.495 135.881C181.477 135.864 181.456 135.851 181.438 135.834C181.434 135.834 181.434 135.829 181.429 135.829C181.425 135.829 181.425 135.825 181.421 135.825C181.408 135.816 181.395 135.803 181.377 135.795C181.36 135.782 181.338 135.769 181.321 135.751C181.316 135.747 181.308 135.743 181.303 135.738L181.299 135.734C181.286 135.725 181.277 135.717 181.264 135.712C181.247 135.699 181.225 135.686 181.203 135.677C181.199 135.673 180.886 135.495 180.881 135.495L179.124 136.446C179.124 136.446 179.546 136.689 179.563 136.702C179.585 136.715 179.603 136.728 179.62 136.741C179.642 136.754 179.659 136.767 179.677 136.784C179.694 136.797 179.716 136.814 179.733 136.827C179.742 136.832 179.751 136.84 179.755 136.845C179.785 136.871 179.816 136.897 179.846 136.923C179.877 136.949 179.907 136.979 179.933 137.005C179.938 137.01 179.942 137.014 179.942 137.014C179.968 137.04 179.994 137.07 180.02 137.096C180.025 137.101 180.029 137.105 180.033 137.109C180.059 137.14 180.081 137.166 180.107 137.196C180.112 137.201 180.116 137.205 180.12 137.214C180.142 137.244 180.168 137.274 180.19 137.305C180.203 137.322 180.212 137.335 180.225 137.352C180.238 137.37 180.251 137.392 180.264 137.409C180.281 137.431 180.294 137.457 180.307 137.478C180.316 137.496 180.325 137.509 180.338 137.526C180.346 137.539 180.355 137.552 180.359 137.565C180.373 137.591 180.386 137.613 180.399 137.639C180.403 137.648 180.407 137.652 180.407 137.661C180.425 137.695 180.442 137.73 180.46 137.765C180.46 137.769 180.464 137.769 180.464 137.773C180.481 137.808 180.499 137.847 180.512 137.882C180.512 137.886 180.516 137.891 180.516 137.895C180.529 137.93 180.542 137.969 180.555 138.003C180.555 138.008 180.56 138.012 180.56 138.016C180.573 138.051 180.581 138.09 180.594 138.125C180.594 138.129 180.599 138.138 180.599 138.142C180.607 138.177 180.62 138.216 180.629 138.251C180.629 138.255 180.634 138.264 180.634 138.268C180.642 138.303 180.651 138.342 180.655 138.377C180.655 138.381 180.655 138.385 180.66 138.394C180.664 138.429 180.673 138.468 180.677 138.502C180.677 138.507 180.677 138.511 180.677 138.515C180.681 138.55 180.686 138.589 180.686 138.624C180.686 138.641 180.686 138.659 180.69 138.68C180.69 138.702 180.69 138.724 180.69 138.745C180.69 138.767 180.69 138.789 180.69 138.81C180.69 138.832 180.686 138.854 180.686 138.876C180.686 138.902 180.681 138.923 180.677 138.949C180.673 138.967 180.673 138.988 180.668 139.006C180.668 139.006 180.664 139.04 180.651 139.106L174.579 176.554C174.548 176.732 173.857 177.873 174.013 177.782L175.675 176.376C176.027 176.081 176.262 175.664 176.332 175.213L182.291 138.468C182.321 138.29 182.365 138.021 182.365 138.021C182.369 138.003 182.369 137.986 182.373 137.964C182.373 137.947 182.378 137.934 182.378 137.917C182.378 137.917 182.378 137.917 182.378 137.912V137.908C182.378 137.904 182.378 137.899 182.378 137.891C182.378 137.869 182.382 137.847 182.382 137.825C182.382 137.808 182.382 137.791 182.382 137.773C182.399 137.769 182.399 137.765 182.399 137.76Z" fill="#99A8E0"/>
<path d="M179.52 136.659C180.312 137.115 180.843 138.165 180.708 139.002L174.544 176.997C174.409 177.835 173.657 178.143 172.865 177.687L114.536 144.092C113.744 143.637 113.214 142.587 113.349 141.749L119.508 103.754C119.643 102.916 120.395 102.608 121.187 103.064L179.52 136.659Z" fill="white"/>
<path d="M183.052 133.378V133.374C183.052 133.352 183.052 133.33 183.052 133.309C183.052 133.287 183.052 133.265 183.048 133.244C183.048 133.239 183.048 133.239 183.048 133.235C183.048 133.231 183.048 133.231 183.048 133.226C183.048 133.213 183.044 133.196 183.044 133.183C183.044 133.161 183.039 133.14 183.035 133.118C183.035 133.109 183.031 133.096 183.031 133.087C183.031 133.083 183.031 133.079 183.031 133.074C183.031 133.066 183.031 133.061 183.026 133.053C183.022 133.031 183.017 133.009 183.013 132.988C183.009 132.966 183.004 132.949 183 132.927C183 132.927 183 132.927 183 132.923C182.996 132.901 182.991 132.879 182.987 132.857C182.983 132.836 182.978 132.814 182.97 132.792C182.97 132.788 182.965 132.779 182.965 132.775C182.965 132.771 182.961 132.766 182.961 132.762C182.957 132.749 182.957 132.74 182.952 132.727C182.948 132.706 182.939 132.688 182.935 132.667C182.931 132.649 182.926 132.636 182.917 132.619C182.917 132.614 182.917 132.614 182.913 132.614C182.913 132.61 182.913 132.61 182.909 132.606C182.9 132.588 182.896 132.567 182.887 132.549C182.878 132.532 182.874 132.515 182.865 132.493C182.861 132.484 182.857 132.476 182.857 132.471C182.857 132.467 182.852 132.463 182.852 132.463C182.848 132.454 182.848 132.45 182.844 132.441C182.835 132.424 182.826 132.402 182.817 132.384C182.809 132.367 182.8 132.345 182.791 132.328C182.791 132.328 182.791 132.324 182.787 132.324C182.787 132.319 182.783 132.319 182.783 132.315C182.774 132.293 182.761 132.276 182.752 132.254C182.743 132.237 182.73 132.22 182.722 132.202C182.713 132.189 182.709 132.176 182.7 132.168C182.696 132.163 182.696 132.155 182.691 132.15C182.674 132.12 182.656 132.094 182.639 132.063C182.635 132.055 182.626 132.046 182.622 132.037C182.622 132.037 182.622 132.033 182.617 132.033C182.596 131.998 182.569 131.964 182.543 131.929C182.539 131.925 182.535 131.92 182.53 131.916C182.526 131.912 182.522 131.907 182.522 131.903C182.513 131.89 182.504 131.881 182.496 131.868C182.482 131.851 182.465 131.829 182.448 131.812C182.443 131.803 182.435 131.799 182.43 131.79C182.426 131.786 182.426 131.781 182.422 131.777C182.417 131.768 182.409 131.764 182.404 131.755C182.387 131.738 182.374 131.721 182.356 131.703C182.343 131.69 182.33 131.677 182.322 131.664C182.317 131.66 182.317 131.66 182.313 131.655L182.309 131.651C182.291 131.634 182.274 131.616 182.256 131.599C182.239 131.582 182.222 131.564 182.2 131.547C182.182 131.53 182.165 131.517 182.148 131.499C182.13 131.482 182.108 131.469 182.091 131.452C182.087 131.452 182.087 131.447 182.082 131.447C182.078 131.447 182.078 131.443 182.074 131.443C182.061 131.43 182.048 131.421 182.03 131.412C182.013 131.399 181.991 131.386 181.974 131.369C181.969 131.365 181.961 131.36 181.956 131.356L181.952 131.352C181.939 131.343 181.93 131.334 181.917 131.33C181.895 131.317 181.878 131.304 181.856 131.295C181.852 131.291 180.447 130.484 180.442 130.484L178.707 131.53C178.707 131.53 180.195 132.306 180.216 132.319C180.238 132.332 180.255 132.345 180.273 132.358C180.295 132.371 180.312 132.385 180.329 132.402C180.347 132.415 180.369 132.432 180.386 132.445C180.395 132.45 180.403 132.458 180.408 132.463C180.438 132.489 180.469 132.515 180.499 132.541C180.529 132.567 180.556 132.597 180.586 132.623C180.59 132.628 180.595 132.632 180.595 132.632C180.621 132.658 180.647 132.688 180.673 132.714C180.677 132.719 180.682 132.723 180.686 132.727C180.712 132.758 180.734 132.784 180.76 132.814C180.764 132.818 180.769 132.823 180.773 132.831C180.795 132.862 180.821 132.892 180.843 132.923C180.856 132.94 180.864 132.953 180.877 132.97C180.891 132.988 180.904 133.009 180.917 133.027C180.934 133.048 180.947 133.074 180.96 133.096C180.969 133.114 180.977 133.127 180.991 133.144C180.999 133.157 181.008 133.17 181.012 133.183C181.025 133.209 181.038 133.231 181.051 133.257C181.056 133.265 181.06 133.27 181.06 133.278C181.078 133.313 181.095 133.348 181.112 133.383C181.112 133.387 181.117 133.387 181.117 133.391C181.134 133.426 181.151 133.465 181.165 133.5C181.165 133.504 181.169 133.508 181.169 133.513C181.182 133.547 181.195 133.586 181.208 133.621C181.208 133.626 181.212 133.63 181.212 133.634C181.225 133.669 181.234 133.708 181.247 133.743C181.247 133.747 181.252 133.756 181.252 133.76C181.26 133.795 181.273 133.834 181.282 133.869C181.282 133.873 181.286 133.882 181.286 133.886C181.295 133.921 181.304 133.96 181.308 133.994C181.308 133.999 181.308 134.003 181.312 134.012C181.317 134.046 181.325 134.086 181.33 134.12C181.33 134.125 181.33 134.129 181.33 134.133C181.334 134.168 181.339 134.207 181.339 134.242C181.339 134.259 181.339 134.276 181.343 134.298C181.343 134.32 181.343 134.342 181.343 134.363C181.343 134.385 181.343 134.407 181.343 134.428C181.343 134.45 181.339 134.472 181.339 134.493C181.339 134.519 181.334 134.541 181.33 134.567C181.325 134.585 181.325 134.606 181.321 134.624C181.321 134.624 181.317 134.658 181.304 134.723L175.232 172.172C175.201 172.35 174.51 173.491 174.666 173.4L176.328 171.994C176.68 171.694 176.915 171.282 176.984 170.831L182.944 134.086C182.974 133.908 183.017 133.639 183.017 133.639C183.022 133.621 183.022 133.604 183.026 133.582C183.026 133.565 183.031 133.552 183.031 133.534C183.031 133.534 183.031 133.534 183.031 133.53V133.526C183.031 133.521 183.031 133.517 183.031 133.508C183.031 133.487 183.035 133.465 183.035 133.443C183.035 133.426 183.035 133.409 183.035 133.391C183.052 133.387 183.052 133.383 183.052 133.378Z" fill="#99A8E0"/>
<path d="M173.57 180.394L173.548 177.591L171.278 179.505L170.79 178.381L113.731 145.515C113.044 145.12 111.678 145.168 110.887 145.628L86.1673 159.778V159.383L82.4135 161.202L81.8872 160.989L81.9568 162.716C82.0133 163.093 82.1612 163.25 82.3918 163.384L141.769 197.674C142.457 198.068 143.67 198.064 144.462 197.608L172.913 181.245C173.348 180.993 173.565 180.685 173.57 180.381V180.394Z" fill="#99A8E0"/>
<path d="M141.734 195.382L82.3569 161.184C81.6696 160.789 81.7566 160.09 82.5482 159.635L111 143.245C111.791 142.79 113.005 142.738 113.692 143.132L173.069 177.331C173.757 177.725 173.67 178.424 172.878 178.88L144.427 195.269C143.635 195.725 142.422 195.777 141.734 195.382Z" fill="#EDF4FF"/>
<path d="M114.562 149.468C114.475 149.516 114.302 149.499 114.171 149.425L110.565 147.351C110.435 147.277 110.4 147.173 110.487 147.125L112.875 145.749C112.962 145.702 113.136 145.719 113.266 145.797L116.872 147.871C117.003 147.945 117.037 148.049 116.95 148.097L114.562 149.468Z" fill="#A7C1F5"/>
<path d="M118.742 155.665C118.655 155.717 118.481 155.695 118.351 155.622L114.745 153.547C114.614 153.474 114.58 153.374 114.667 153.322L117.054 151.946C117.137 151.898 117.315 151.916 117.446 151.99L121.052 154.064C121.182 154.137 121.217 154.242 121.134 154.289L118.742 155.665Z" fill="#A7C1F5"/>
<path d="M116.628 158.238C116.541 158.285 116.367 158.268 116.237 158.19L112.631 156.116C112.505 156.042 112.466 155.942 112.553 155.89L114.941 154.515C115.023 154.467 115.202 154.489 115.332 154.562L118.938 156.636C119.068 156.71 119.103 156.814 119.021 156.862L116.628 158.238Z" fill="#A7C1F5"/>
<path d="M110.909 158.733C110.822 158.78 110.648 158.763 110.517 158.689L106.911 156.615C106.781 156.541 106.746 156.437 106.833 156.389L109.221 155.014C109.308 154.966 109.482 154.983 109.612 155.057L113.218 157.131C113.349 157.205 113.384 157.309 113.297 157.357L110.909 158.733Z" fill="#A7C1F5"/>
<path d="M100.991 157.292C100.904 157.339 100.73 157.322 100.6 157.244L96.9938 155.17C96.8633 155.096 96.8285 154.992 96.9155 154.944L99.7211 153.33C99.8037 153.282 99.9821 153.299 100.113 153.378L103.718 155.452C103.849 155.526 103.884 155.63 103.797 155.677L100.991 157.292Z" fill="#A7C1F5"/>
<path d="M107.207 160.867C107.12 160.915 106.911 160.876 106.742 160.78L102.018 158.06C101.848 157.964 101.779 157.843 101.866 157.791L104.671 156.176C104.754 156.129 104.967 156.168 105.137 156.263L109.86 158.984C110.03 159.084 110.1 159.205 110.013 159.253L107.207 160.867Z" fill="#A7C1F5"/>
<path d="M138.233 178.755C138.163 178.798 137.998 178.768 137.868 178.694L134.266 176.62C134.136 176.546 134.088 176.45 134.157 176.407L135.193 175.808C135.262 175.769 135.428 175.795 135.562 175.869L139.164 177.943C139.294 178.017 139.342 178.112 139.268 178.156L138.233 178.755Z" fill="#A7C1F5"/>
<path d="M143.048 181.601C142.978 181.644 142.813 181.614 142.683 181.54L139.081 179.466C138.951 179.392 138.903 179.297 138.972 179.253L140.008 178.654C140.077 178.615 140.242 178.641 140.377 178.715L143.979 180.789C144.109 180.863 144.157 180.959 144.083 181.002L143.048 181.601Z" fill="#A7C1F5"/>
<path d="M148.155 184.474C148.085 184.513 147.924 184.487 147.794 184.409L144.192 182.334C144.062 182.261 144.01 182.165 144.079 182.126L145.08 181.549C145.149 181.51 145.315 181.54 145.441 181.614L149.042 183.688C149.173 183.762 149.221 183.858 149.155 183.897L148.155 184.474Z" fill="#A7C1F5"/>
<path d="M145.014 180.503C144.945 180.542 144.784 180.516 144.653 180.438L141.052 178.364C140.921 178.29 140.869 178.195 140.939 178.156L141.939 177.579C142.009 177.54 142.174 177.57 142.3 177.644L145.902 179.718C146.032 179.792 146.08 179.887 146.015 179.926L145.014 180.503Z" fill="#A7C1F5"/>
<path d="M132 175.14C131.913 175.188 131.735 175.171 131.609 175.092L108.151 161.589C108.025 161.515 107.986 161.411 108.073 161.363L110.878 159.749C110.961 159.701 111.143 159.723 111.27 159.796L134.727 173.3C134.858 173.374 134.893 173.478 134.81 173.526L132 175.14Z" fill="#A7C1F5"/>
<path d="M106.563 159.974C106.559 159.978 106.542 159.974 106.524 159.965L103.767 158.377C103.754 158.368 103.745 158.36 103.749 158.355L103.923 158.255C103.928 158.251 103.945 158.255 103.962 158.264L106.72 159.852C106.737 159.861 106.742 159.87 106.737 159.874L106.563 159.974Z" fill="#A7C1F5"/>
<path d="M99.4947 155.604C99.4903 155.609 99.4816 155.609 99.4729 155.604L98.3029 154.932C98.2985 154.927 98.2942 154.923 98.3029 154.919L98.4769 154.819C98.4812 154.815 98.4899 154.815 98.4986 154.819L99.6687 155.492C99.673 155.496 99.6774 155.5 99.6687 155.505L99.4947 155.604Z" fill="#A7C1F5"/>
<path d="M115.85 161.575C115.763 161.623 115.589 161.605 115.458 161.527L111.853 159.453C111.726 159.379 111.687 159.275 111.774 159.227L114.162 157.852C114.249 157.804 114.428 157.826 114.554 157.9L118.16 159.974C118.29 160.047 118.325 160.152 118.238 160.199L115.85 161.575Z" fill="#A7C1F5"/>
<path d="M120.812 164.434C120.725 164.482 120.551 164.465 120.421 164.391L116.815 162.317C116.685 162.243 116.65 162.139 116.737 162.091L119.125 160.716C119.212 160.668 119.39 160.685 119.516 160.763L123.122 162.838C123.248 162.911 123.287 163.016 123.2 163.063L120.812 164.434Z" fill="#A7C1F5"/>
<path d="M125.78 167.289C125.693 167.337 125.519 167.32 125.389 167.246L121.783 165.172C121.652 165.098 121.618 164.998 121.705 164.946L124.093 163.571C124.18 163.523 124.354 163.54 124.484 163.614L128.09 165.688C128.22 165.762 128.255 165.866 128.168 165.914L125.78 167.289Z" fill="#A7C1F5"/>
<path d="M130.743 170.149C130.656 170.197 130.482 170.18 130.352 170.106L126.746 168.032C126.615 167.958 126.58 167.854 126.667 167.806L129.055 166.431C129.142 166.383 129.316 166.4 129.447 166.478L133.053 168.553C133.183 168.626 133.218 168.73 133.131 168.778L130.743 170.149Z" fill="#A7C1F5"/>
<path d="M135.706 173.005C135.619 173.053 135.445 173.036 135.315 172.958L131.713 170.883C131.583 170.81 131.548 170.71 131.635 170.658L134.023 169.282C134.11 169.234 134.284 169.252 134.414 169.326L138.016 171.4C138.146 171.474 138.181 171.578 138.098 171.625L135.706 173.005Z" fill="#A7C1F5"/>
<path d="M140.669 175.86C140.582 175.907 140.408 175.89 140.277 175.812L136.672 173.738C136.541 173.664 136.506 173.56 136.593 173.512L138.981 172.137C139.068 172.089 139.242 172.106 139.373 172.184L142.979 174.259C143.109 174.332 143.144 174.436 143.057 174.484L140.669 175.86Z" fill="#A7C1F5"/>
<path d="M151.852 182.299C151.765 182.347 151.591 182.329 151.46 182.251L141.639 176.597C141.508 176.523 141.474 176.419 141.561 176.372L143.949 174.996C144.036 174.948 144.21 174.966 144.34 175.039L154.162 180.693C154.292 180.767 154.327 180.871 154.24 180.919L151.852 182.299Z" fill="#A7C1F5"/>
<path d="M121.569 161.08C121.482 161.133 121.308 161.111 121.178 161.037L117.572 158.963C117.441 158.889 117.407 158.789 117.494 158.737L119.882 157.362C119.964 157.314 120.143 157.331 120.273 157.409L123.879 159.484C124.009 159.557 124.044 159.657 123.957 159.709L121.569 161.08Z" fill="#A7C1F5"/>
<path d="M126.533 163.935C126.446 163.983 126.272 163.966 126.141 163.892L122.535 161.818C122.409 161.744 122.37 161.644 122.457 161.592L124.845 160.217C124.928 160.169 125.106 160.186 125.232 160.26L128.838 162.334C128.968 162.408 129.003 162.508 128.916 162.56L126.533 163.935Z" fill="#A7C1F5"/>
<path d="M131.496 166.796C131.409 166.843 131.235 166.822 131.104 166.748L127.498 164.674C127.372 164.6 127.333 164.496 127.416 164.448L129.804 163.072C129.886 163.025 130.069 163.046 130.195 163.12L133.801 165.194C133.931 165.268 133.966 165.372 133.884 165.42L131.496 166.796Z" fill="#A7C1F5"/>
<path d="M136.458 169.65C136.371 169.698 136.197 169.681 136.067 169.603L132.461 167.529C132.331 167.455 132.296 167.355 132.383 167.303L134.771 165.927C134.853 165.88 135.032 165.897 135.162 165.975L138.768 168.049C138.899 168.123 138.933 168.227 138.846 168.275L136.458 169.65Z" fill="#A7C1F5"/>
<path d="M141.426 172.506C141.339 172.553 141.165 172.536 141.034 172.458L137.428 170.384C137.298 170.31 137.263 170.21 137.35 170.158L139.738 168.783C139.821 168.735 139.999 168.752 140.13 168.83L143.735 170.905C143.866 170.978 143.901 171.082 143.814 171.13L141.426 172.506Z" fill="#A7C1F5"/>
<path d="M146.389 175.366C146.302 175.413 146.128 175.396 145.997 175.322L142.396 173.248C142.265 173.174 142.226 173.07 142.313 173.022L144.701 171.647C144.784 171.599 144.962 171.616 145.093 171.695L148.694 173.769C148.825 173.842 148.859 173.942 148.772 173.994L146.389 175.366Z" fill="#A7C1F5"/>
<path d="M151.352 178.22C151.265 178.268 151.091 178.251 150.961 178.177L147.355 176.103C147.224 176.029 147.189 175.929 147.276 175.877L149.664 174.502C149.747 174.454 149.925 174.471 150.051 174.545L153.657 176.619C153.788 176.693 153.823 176.793 153.736 176.845L151.352 178.22Z" fill="#A7C1F5"/>
<path d="M123.683 158.507C123.596 158.559 123.422 158.537 123.292 158.463L119.686 156.389C119.56 156.315 119.521 156.216 119.608 156.164L121.996 154.788C122.078 154.74 122.257 154.758 122.383 154.831L125.989 156.906C126.119 156.979 126.154 157.083 126.067 157.131L123.683 158.507Z" fill="#A7C1F5"/>
<path d="M128.646 161.362C128.559 161.414 128.381 161.393 128.255 161.319L124.649 159.245C124.519 159.171 124.484 159.067 124.571 159.019L126.959 157.644C127.041 157.596 127.22 157.613 127.35 157.691L130.956 159.765C131.082 159.839 131.121 159.939 131.034 159.991L128.646 161.362Z" fill="#A7C1F5"/>
<path d="M133.609 164.222C133.522 164.274 133.348 164.252 133.218 164.178L129.612 162.104C129.482 162.03 129.447 161.931 129.534 161.878L131.922 160.503C132.004 160.455 132.183 160.473 132.313 160.546L135.919 162.62C136.05 162.694 136.084 162.798 136.002 162.846L133.609 164.222Z" fill="#A7C1F5"/>
<path d="M138.573 167.077C138.486 167.129 138.312 167.108 138.181 167.034L134.575 164.96C134.445 164.886 134.41 164.782 134.497 164.734L136.885 163.358C136.968 163.311 137.146 163.328 137.277 163.406L140.882 165.48C141.013 165.554 141.048 165.654 140.961 165.706L138.573 167.077Z" fill="#A7C1F5"/>
<path d="M143.54 169.932C143.453 169.985 143.279 169.963 143.148 169.889L139.542 167.815C139.412 167.741 139.377 167.641 139.464 167.589L141.852 166.214C141.934 166.166 142.113 166.183 142.243 166.261L145.849 168.336C145.975 168.409 146.01 168.509 145.928 168.561L143.54 169.932Z" fill="#A7C1F5"/>
<path d="M148.503 172.792C148.416 172.844 148.242 172.822 148.107 172.744L144.501 170.67C144.375 170.596 144.336 170.497 144.423 170.444L146.811 169.069C146.893 169.021 147.072 169.043 147.202 169.112L150.808 171.187C150.939 171.26 150.973 171.364 150.891 171.412L148.503 172.792Z" fill="#A7C1F5"/>
<path d="M153.466 175.647C153.379 175.699 153.205 175.678 153.074 175.604L149.468 173.53C149.338 173.456 149.303 173.356 149.39 173.304L151.778 171.929C151.861 171.881 152.039 171.898 152.17 171.976L155.775 174.05C155.906 174.124 155.941 174.224 155.854 174.276L153.466 175.647Z" fill="#A7C1F5"/>
<path d="M113.779 152.806C113.692 152.858 113.518 152.836 113.388 152.762L107.277 149.243C107.146 149.169 107.111 149.065 107.198 149.017L109.586 147.642C109.669 147.594 109.847 147.611 109.978 147.69L116.089 151.209C116.22 151.283 116.254 151.387 116.172 151.434L113.779 152.806Z" fill="#A7C1F5"/>
<path d="M161.717 176.611C161.63 176.659 161.456 176.642 161.326 176.568L155.214 173.049C155.088 172.975 155.049 172.871 155.136 172.823L157.524 171.447C157.611 171.4 157.789 171.417 157.916 171.491L164.027 175.01C164.157 175.084 164.192 175.188 164.105 175.236L161.717 176.611Z" fill="#A7C1F5"/>
<path d="M111.665 155.378C111.578 155.426 111.404 155.408 111.274 155.33L103.988 151.134C103.857 151.06 103.823 150.961 103.91 150.909L106.298 149.533C106.38 149.485 106.559 149.503 106.689 149.581L113.975 153.777C114.105 153.851 114.14 153.955 114.058 154.002L111.665 155.378Z" fill="#A7C1F5"/>
<path d="M105.95 155.877C105.863 155.925 105.689 155.908 105.558 155.83L100.7 153.031C100.569 152.957 100.535 152.853 100.622 152.805L103.01 151.429C103.097 151.382 103.271 151.399 103.401 151.473L108.26 154.272C108.39 154.345 108.425 154.45 108.338 154.497L105.95 155.877Z" fill="#A7C1F5"/>
<path d="M119.525 152.323C119.438 152.371 119.264 152.354 119.134 152.276L115.532 150.202C115.402 150.128 115.367 150.024 115.454 149.976L117.842 148.6C117.929 148.553 118.103 148.57 118.234 148.648L121.835 150.722C121.966 150.796 122 150.9 121.913 150.948L119.525 152.323Z" fill="#A7C1F5"/>
<path d="M124.466 155.166C124.379 155.213 124.205 155.196 124.075 155.118L120.469 153.044C120.338 152.97 120.304 152.866 120.391 152.818L122.779 151.443C122.866 151.39 123.04 151.412 123.17 151.486L126.776 153.56C126.906 153.634 126.941 153.738 126.854 153.786L124.466 155.166Z" fill="#A7C1F5"/>
<path d="M129.429 158.026C129.342 158.073 129.168 158.056 129.038 157.982L125.432 155.908C125.301 155.834 125.267 155.734 125.354 155.682L127.742 154.307C127.829 154.255 128.002 154.276 128.133 154.35L131.739 156.424C131.869 156.498 131.904 156.598 131.817 156.65L129.429 158.026Z" fill="#A7C1F5"/>
<path d="M134.393 160.881C134.306 160.929 134.132 160.912 134.001 160.834L130.4 158.759C130.269 158.686 130.234 158.581 130.321 158.534L132.709 157.158C132.796 157.11 132.97 157.128 133.101 157.206L136.702 159.28C136.833 159.354 136.868 159.458 136.781 159.506L134.393 160.881Z" fill="#A7C1F5"/>
<path d="M139.355 163.74C139.268 163.788 139.094 163.77 138.964 163.696L135.358 161.622C135.228 161.549 135.193 161.444 135.28 161.397L137.668 160.021C137.755 159.973 137.929 159.991 138.059 160.069L141.665 162.143C141.796 162.217 141.83 162.317 141.743 162.369L139.355 163.74Z" fill="#A7C1F5"/>
<path d="M144.318 166.596C144.231 166.644 144.057 166.626 143.927 166.553L140.321 164.478C140.19 164.405 140.156 164.305 140.243 164.253L142.631 162.877C142.718 162.829 142.892 162.847 143.022 162.921L146.628 164.995C146.754 165.069 146.793 165.168 146.706 165.22L144.318 166.596Z" fill="#A7C1F5"/>
<path d="M149.286 169.456C149.199 169.504 149.025 169.486 148.894 169.412L145.288 167.338C145.158 167.264 145.123 167.16 145.21 167.113L147.598 165.737C147.685 165.685 147.859 165.707 147.989 165.785L151.595 167.859C151.726 167.933 151.761 168.037 151.674 168.085L149.286 169.456Z" fill="#A7C1F5"/>
<path d="M154.244 172.311C154.157 172.359 153.984 172.341 153.853 172.267L150.247 170.189C150.121 170.115 150.082 170.015 150.169 169.963L152.557 168.588C152.644 168.54 152.818 168.557 152.948 168.631L156.554 170.71C156.685 170.783 156.719 170.883 156.632 170.935L154.244 172.311Z" fill="#A7C1F5"/>
<path d="M157.133 174.831C157.072 174.797 156.998 174.77 156.919 174.762C156.846 174.753 156.78 174.762 156.741 174.788L154.353 176.163C154.314 176.185 154.297 176.224 154.31 176.268C154.327 176.311 154.371 176.354 154.427 176.389L155.367 176.931L152.235 178.737C152.196 178.758 152.178 178.797 152.196 178.841C152.213 178.884 152.257 178.928 152.317 178.962L154.745 180.36C154.806 180.394 154.879 180.42 154.958 180.429C155.036 180.438 155.097 180.429 155.136 180.407L160.812 177.135C160.852 177.114 160.869 177.075 160.852 177.031C160.838 176.988 160.791 176.944 160.73 176.91L157.133 174.831Z" fill="#A7C1F5"/>
<path d="M105.302 154.714C105.297 154.718 105.28 154.714 105.263 154.705L102.505 153.117C102.492 153.109 102.483 153.1 102.487 153.096L102.661 152.996C102.666 152.991 102.683 152.996 102.701 153.004L105.458 154.593C105.476 154.601 105.48 154.61 105.476 154.614L105.302 154.714Z" fill="#A7C1F5"/>
<path d="M119.725 177.999L106.532 170.614C106.38 170.527 106.385 170.384 106.541 170.297L112.148 167.077C112.304 166.986 112.557 166.982 112.709 167.069L125.902 174.454C126.054 174.541 126.049 174.684 125.893 174.771L120.286 177.991C120.13 178.082 119.877 178.086 119.725 177.999Z" fill="#A7C1F5"/>
<path d="M171.421 181.735C171.351 181.735 171.282 181.722 171.217 181.701C170.825 181.566 170.638 181.067 170.803 180.585C170.973 180.095 171.417 179.822 171.817 179.956C172.017 180.026 172.169 180.191 172.243 180.412C172.308 180.616 172.304 180.85 172.226 181.071C172.134 181.336 171.956 181.549 171.73 181.657C171.634 181.714 171.525 181.735 171.421 181.735ZM171.612 180.364C171.465 180.364 171.295 180.516 171.221 180.729C171.138 180.972 171.204 181.232 171.36 181.288C171.43 181.31 171.499 181.288 171.543 181.267C171.66 181.21 171.76 181.084 171.813 180.933C171.856 180.802 171.86 180.663 171.826 180.551C171.808 180.499 171.765 180.403 171.673 180.373C171.656 180.368 171.634 180.364 171.612 180.364Z" fill="#342B8C"/>
<path d="M181.543 131.126L123.731 97.8305C123.731 97.8305 123.727 97.8305 123.727 97.8261L123.64 97.7784C123.574 97.7393 123.496 97.6959 123.487 97.6916C123.466 97.6829 123.448 97.6699 123.426 97.6612C123.405 97.6525 123.387 97.6439 123.366 97.6308C123.344 97.6222 123.326 97.6135 123.305 97.6048C123.283 97.5961 123.261 97.5875 123.244 97.5831C123.222 97.5744 123.2 97.5701 123.183 97.5614C123.161 97.5527 123.139 97.5484 123.118 97.5441H123.113H123.109C123.091 97.5397 123.07 97.5354 123.052 97.531C123.044 97.531 123.035 97.5267 123.022 97.5267C123.013 97.5267 123.004 97.5224 122.996 97.5224C122.991 97.5224 122.983 97.518 122.978 97.518C122.957 97.5137 122.931 97.5137 122.909 97.5093H122.904C122.878 97.5093 122.848 97.505 122.822 97.505C122.817 97.505 122.817 97.505 122.813 97.505C122.8 97.505 122.787 97.505 122.774 97.505C122.761 97.505 122.744 97.505 122.73 97.505C122.726 97.505 122.722 97.505 122.717 97.505C122.696 97.505 122.678 97.5093 122.657 97.5137C122.648 97.5137 122.635 97.518 122.626 97.518C122.622 97.518 122.622 97.518 122.617 97.518C122.578 97.5267 122.539 97.5354 122.504 97.5484C122.5 97.5484 122.5 97.5484 122.496 97.5527C122.491 97.5527 122.487 97.5571 122.483 97.5571C122.435 97.5744 122.387 97.5961 122.343 97.6222L120.647 98.6072C120.69 98.5812 120.734 98.5638 120.782 98.5464C120.799 98.5378 120.817 98.5334 120.838 98.5291C120.86 98.5204 120.882 98.5161 120.904 98.5117C120.93 98.5074 120.96 98.5031 120.986 98.4987C120.995 98.4987 121.008 98.4944 121.017 98.4944C121.056 98.49 121.095 98.49 121.134 98.49C121.143 98.49 121.147 98.49 121.156 98.49C121.195 98.49 121.239 98.4944 121.282 98.4987C121.286 98.4987 121.286 98.4987 121.291 98.4987C121.334 98.5074 121.382 98.5161 121.426 98.5247C121.43 98.5247 121.434 98.5247 121.439 98.5291C121.482 98.5421 121.53 98.5551 121.573 98.5725C121.578 98.5725 121.582 98.5768 121.587 98.5768C121.634 98.5942 121.682 98.6159 121.73 98.6419C121.752 98.6506 121.769 98.6636 121.791 98.6723C121.808 98.681 121.821 98.6896 121.839 98.6983L122.161 98.8806L180.059 132.228C180.125 132.267 180.207 132.267 180.272 132.228L181.543 131.491C181.682 131.417 181.682 131.209 181.543 131.126Z" fill="#E6F0FF"/>
<path d="M180.164 132.232C180.955 132.688 181.486 133.738 181.351 134.576L175.188 172.571C175.053 173.408 174.3 173.716 173.509 173.261L115.18 139.666C114.388 139.21 113.857 138.16 113.992 137.322L120.151 99.3273C120.286 98.4898 121.039 98.1817 121.83 98.6374L180.164 132.232Z" fill="#1A3EA1"/>
<path d="M178.081 134.68C178.833 135.105 179.342 136.016 179.216 136.719L173.644 168.592C173.522 169.294 172.813 169.52 172.061 169.095L116.737 137.83C115.984 137.405 115.476 136.494 115.602 135.791L121.174 103.914C121.295 103.211 122.004 102.985 122.757 103.411L178.081 134.68Z" fill="#85BCFF"/>
<g opacity="0.28">
<path opacity="0.28" d="M115.602 135.791L121.174 103.914C121.295 103.211 122.004 102.985 122.757 103.411L165.571 127.607L115.602 135.791Z" fill="#DBECFF"/>
</g>
<path d="M177.445 168.079C177.441 168.079 177.436 168.079 177.432 168.079C177.389 168.075 177.363 168.032 177.367 167.993L182.821 134.28C183.274 131.785 180.629 130.51 180.603 130.497L123.444 97.7607C123.409 97.739 123.396 97.6913 123.413 97.6566C123.435 97.6175 123.483 97.6088 123.518 97.6305L180.673 130.366C180.694 130.375 183.443 131.703 182.974 134.311L177.519 168.023C177.515 168.049 177.484 168.079 177.445 168.079Z" fill="#342B8C"/>
<path d="M150.834 192.827C150.76 192.827 150.686 192.788 150.643 192.719C150.582 192.615 150.617 192.48 150.721 192.419L153.322 190.896C153.427 190.836 153.561 190.87 153.622 190.974C153.683 191.079 153.648 191.213 153.544 191.274L150.943 192.797C150.912 192.819 150.873 192.827 150.834 192.827Z" fill="#342B8C"/>
<path d="M147.58 194.78C147.506 194.78 147.432 194.741 147.389 194.671C147.328 194.567 147.363 194.433 147.467 194.372L150.068 192.849C150.173 192.788 150.307 192.823 150.368 192.927C150.429 193.031 150.394 193.166 150.29 193.227L147.689 194.75C147.659 194.771 147.619 194.78 147.58 194.78Z" fill="#342B8C"/>
<path d="M173.031 177.439C172.991 177.439 172.952 177.43 172.913 177.409L113.061 142.946C112.948 142.881 112.914 142.738 112.974 142.629C113.04 142.516 113.183 142.482 113.292 142.542L173.144 177.005C173.257 177.07 173.291 177.213 173.231 177.322C173.191 177.4 173.113 177.439 173.031 177.439Z" fill="#99A8E0"/>
<path d="M113.166 149.828C113.166 149.828 106.345 149.029 105.058 150.444C103.775 151.854 113.492 153.464 113.166 149.828Z" fill="#FFC2B0"/>
<path d="M108.933 148.92C108.933 148.92 102.691 149.467 98.1025 156.631C98.1025 156.631 110.151 150.877 108.933 148.92Z" fill="#FFC2B0"/>
<path d="M107.406 147.549C107.406 147.549 99.7336 148.413 95.6841 156.228C95.6841 156.228 98.3026 158.545 99.5857 157.877C102.996 156.111 108.294 148.968 107.406 147.549Z" fill="#FFC2B0"/>
<path d="M115.901 148.339C115.901 148.339 109.038 148.061 107.859 149.563C106.685 151.064 116.497 151.932 115.901 148.339Z" fill="#FFC2B0"/>
<path d="M113.361 147.194C113.361 147.194 106.498 146.916 105.319 148.417C104.144 149.919 113.957 150.787 113.361 147.194Z" fill="#FFC2B0"/>
<path d="M96.0105 156.801L105.071 151.498C105.071 151.498 118.076 148.708 119.077 150.813C120.386 153.559 111.782 153.264 111.782 153.264C111.782 153.264 104.871 156.588 104.888 156.823C104.897 156.922 104.366 157.443 104.597 157.912C104.984 158.702 105.367 158.576 106.237 158.328L109.147 157.057C109.147 157.057 113.066 155.195 113.305 156.896C113.518 158.424 109.93 159.192 109.93 159.192L104.123 162.555L99.6643 163.267C97.5938 163.596 95.5712 162.433 94.8231 160.476L94.7752 160.346C94.2576 159.014 94.7839 157.517 96.0105 156.801Z" fill="#FFC2B0"/>
<path d="M146.432 162.426C146.454 162.443 146.971 162.829 146.906 163.593C146.906 163.597 146.906 163.602 146.906 163.61C146.775 164.977 144.909 166.57 141.351 168.34C141.243 168.431 140.882 168.826 140.39 169.386C141.625 168.883 143.183 168.7 144.357 168.987C149.002 170.124 150.868 171.56 150.947 171.621L151.051 171.703L151.06 171.838C151.064 171.89 151.077 172.337 150.608 172.693C149.69 173.382 147.619 173.161 144.453 172.033C143.6 171.729 142.626 171.881 141.543 172.489C142.287 172.228 143.065 172.176 143.744 172.363C145.862 172.931 150.003 175.049 150.181 175.14L150.347 175.222L150.342 175.409C150.342 175.457 150.32 175.869 149.864 176.173C149.703 176.281 149.511 176.359 149.285 176.411C149.35 176.433 149.385 176.442 149.385 176.442L149.672 176.533L149.577 176.819C148.868 178.928 146.549 178.256 144.853 177.765C144.635 177.7 144.422 177.639 144.218 177.583C143.426 177.37 142.287 177.344 141.691 177.969C140.038 179.701 138.95 181.089 138.62 181.883C138.537 182.078 137.524 183.541 137.398 183.762C134.988 187.976 129.768 184.99 129.733 180.069C132.682 175.543 135.914 168.318 138.715 166.782L138.746 166.748L146.28 162.309L146.432 162.426Z" fill="#FFC2B0"/>
<path d="M103.823 201.805C109.995 199.527 116.111 197.076 121.761 193.678C126.254 190.974 130.617 188.158 135.306 185.78C139.803 183.502 136.467 176.429 131.965 178.712C127.276 181.09 122.913 183.906 118.42 186.609C112.77 190.007 106.654 192.459 100.482 194.737C95.7454 196.485 99.1294 203.541 103.823 201.805Z" fill="#FFC2B0"/>
<path d="M128.768 192.046C128.768 192.046 121.752 187.394 124.153 180.881L128.698 178.251C131.848 178.594 135.01 187.099 133.918 188.9L128.768 192.046Z" fill="white"/>
<path d="M93.3399 195.022L125.388 179.366C126.819 180.729 129.386 186.782 130.308 192.553L110.704 201.193C102.479 205.077 98.329 202.742 92.744 196.268C92.7092 196.224 92.7397 196.263 93.3399 195.022Z" fill="#FFD15B"/>
<path d="M65.5541 180.056C71.7132 177.743 77.8158 175.261 83.4443 171.829C87.9245 169.099 92.2698 166.261 96.9413 163.857C101.426 161.553 98.0462 154.497 93.5616 156.806C88.8857 159.21 84.5404 162.048 80.0646 164.777C74.4361 168.205 68.3335 170.692 62.1744 173.005C57.4462 174.779 60.8694 181.818 65.5541 180.056Z" fill="#FFC2B0"/>
<path d="M90.4432 170.158C90.4432 170.158 83.4011 165.545 85.7673 159.019L90.2997 156.363C93.4532 156.689 96.6589 165.176 95.5802 166.982L90.4432 170.158Z" fill="white"/>
<path d="M55.0322 173.33L86.9937 157.492C88.4334 158.846 91.0345 164.886 91.9871 170.649L62.07 185.09C57.2419 182.582 55.1845 178.498 55.0322 173.33Z" fill="#E2B134"/>
<path d="M74.7362 259.465L104.762 236.172L102.953 229.068C61.7132 261.4 47.3114 247.172 47.3114 247.172C45.1018 273.39 64.5144 265.497 74.7362 259.465Z" fill="#4537BD"/>
<path d="M37.9641 173.425C37.9641 173.425 34.1059 217.391 34.7453 220.594C34.7453 220.594 32.2356 245.853 59.9083 236.714C71.5567 236.363 81.1043 231.746 81.8829 222.564L80.1169 209.281V175.391L37.9641 173.425Z" fill="#FFD15B"/>
<path d="M77.8113 187.532C78.8813 186.938 81.6216 182.399 81.6216 182.399C82.609 176.207 85.7016 170.279 80.0036 164.825C78.5377 163.419 64.4708 154.762 53.4009 152.275C48.0334 151.069 42.5615 153.846 40.1648 158.784C39.3123 160.542 38.4293 163.362 37.8682 165.302C37.381 166.99 37.4941 169.949 37.7116 171.867C38.4815 178.689 41.0217 171.807 41.5002 177.469C41.4784 177.318 39.6994 176.684 39.682 176.532C39.682 176.532 43.3705 180.655 44.0665 188.947C44.4927 194.124 44.7972 197.864 44.8146 198.389C44.8146 198.415 44.8146 198.446 44.8146 198.454L63.5096 214.497L74.4751 196.589L77.8113 187.532Z" fill="#FFD15B"/>
<path d="M55.9106 156.888L60.5256 139.817L70.7604 147.341L67.1632 160.659C66.7413 163.197 54.8971 162.711 55.9106 156.888Z" fill="#FFC2B0"/>
<path d="M49.8561 153.3C46.6634 155.63 53.5098 159.891 56.5198 161.336C60.3562 163.176 70.3866 161.48 74.4666 161.241C75.9237 161.154 69.2165 157.053 67.742 157.14C61.4741 157.505 57.2332 157.769 55.0453 152.705C54.0057 150.306 46.3677 139.991 52.8095 153.218L49.8561 153.3Z" fill="white"/>
<path d="M61.8483 116.342C61.8483 116.342 50.6131 107.568 50.7523 123.897C50.848 135.257 58.5556 145.012 68.8339 149.325C75.2323 152.011 82.9573 148.384 83.2226 142.725C84.6145 134.459 84.5232 126.743 81.461 120.139C81.7785 113.313 76.672 115.8 67.7813 115.466L61.8483 116.342Z" fill="#FFC2B0"/>
<path d="M54.1362 147.085C54.1362 147.085 43.0923 144.95 44.3233 127.788C45.402 112.744 57.4506 110.895 66.9503 109.81C71.1565 109.329 78.9555 112.054 81.2521 115.868C83.9576 120.368 81.8871 120.429 77.2069 122.954C75.2365 124.017 76.4587 130.049 76.0455 132.115C75.3104 135.79 71.3479 137.365 70.5693 140.928C69.8342 144.299 67.9421 148.044 64.7276 148.478C58.9904 149.242 54.1362 147.085 54.1362 147.085Z" fill="#915151"/>
<path d="M74.6927 136.945C74.9841 139.714 73.6052 142.131 71.6174 142.339C71.4 142.361 71.1825 142.356 70.9737 142.326C69.2425 142.083 67.7506 140.165 67.4939 137.696C67.2025 134.927 68.5814 132.51 70.5692 132.302C72.5526 132.098 74.4012 134.177 74.6927 136.945Z" fill="#FFC2B0"/>
<path d="M87.111 135.3C87.1719 135.621 86.9588 135.925 86.7369 136.172C86.1149 136.862 85.3581 137.431 84.5229 137.834C84.1228 138.029 83.653 138.186 83.2441 138.008C82.8135 137.821 82.6091 137.326 82.509 136.866C82.2437 135.647 82.2829 133.438 83.6661 132.853C84.2315 132.614 82.9832 128.63 83.2006 129.186C84.0749 131.408 86.0453 134.072 87.111 135.3Z" fill="#FFC2B0"/>
<path d="M80.4475 132.115C80.4823 132.844 80.8433 133.421 81.2522 133.4C81.6611 133.382 81.9655 132.775 81.9264 132.042C81.8916 131.313 81.5306 130.735 81.1217 130.757C80.7172 130.779 80.4127 131.386 80.4475 132.115Z" fill="#21275E"/>
<path d="M79.5773 129.407C80.1993 128.891 81.1432 128.283 81.9957 128.374C82.6612 128.444 82.783 127.415 82.1175 127.346C80.9779 127.224 79.773 127.901 78.9248 128.604C78.4116 129.025 79.0597 129.832 79.5773 129.407Z" fill="#915151"/>
<path d="M78.2248 140.776C78.812 142.225 80.1691 142.681 81.6306 142.464C82.3004 142.364 82.0177 141.349 81.3479 141.449C80.5823 141.561 79.5949 141.375 79.2426 140.494C78.9947 139.873 77.9725 140.142 78.2248 140.776Z" fill="#D18B77"/>
<path d="M72.4397 137.644C72.7224 137.335 72.6702 136.849 72.3266 136.611C71.8351 136.272 71.1217 136.008 70.7737 136.954C70.4214 137.908 71.1261 138.885 71.7002 139.479C71.8046 139.588 71.9742 139.47 71.9177 139.332C71.7437 138.911 71.6567 138.39 72.0482 138.034C72.2048 137.887 72.3353 137.756 72.4397 137.644Z" fill="#D18B77"/>
<g opacity="0.4">
<path opacity="0.4" d="M177.907 36.4717C170.795 32.9091 164.653 23.5969 164.192 15.6733C163.727 7.74972 169.116 4.21317 176.228 7.77142C183.339 11.334 189.416 20.542 190.016 28.5307C190.673 37.3179 185.018 40.0343 177.907 36.4717Z" fill="#A8C4E5"/>
</g>
<path d="M175.823 33.3432C169.068 29.9586 163.24 21.115 162.796 13.5906C162.357 6.06627 167.472 2.70329 174.227 6.08796C180.982 9.47263 186.754 18.2164 187.324 25.8058C187.946 34.146 182.574 36.7236 175.823 33.3432Z" fill="#00D1A7"/>
<path d="M172.295 35.3049C165.54 31.9202 159.712 23.0766 159.268 15.5523C158.829 8.02788 163.944 4.6649 170.699 8.04957C177.454 11.4342 183.226 20.178 183.796 27.7675C184.422 36.1076 179.05 38.6852 172.295 35.3049Z" fill="#08F7C8"/>
<path d="M162.913 16.4461L162.93 19.8394C162.93 20.1736 163.113 20.4816 163.4 20.6465L177.624 28.7437C178.25 29.0995 179.024 28.6482 179.024 27.9279L179.007 24.5346C179.007 24.2004 178.824 23.8924 178.537 23.7275L164.314 15.6303C163.687 15.2788 162.909 15.7301 162.913 16.4461Z" fill="#FCFEFF"/>
<path d="M169.042 30.2234L172.043 31.9331C172.669 32.2889 173.444 31.8376 173.444 31.1173L173.365 14.9577C173.365 14.6236 173.183 14.3155 172.895 14.1506L169.894 12.4409C169.268 12.0851 168.494 12.5363 168.494 13.2567L168.572 29.4163C168.572 29.7504 168.755 30.0585 169.042 30.2234Z" fill="#FCFEFF"/>
<path d="M229.01 102.096L183.265 75.7472C181.947 74.9879 180.873 72.9354 180.873 71.1823V42.929C180.873 41.1759 181.951 40.3644 183.265 41.1238L229.01 67.4722C230.328 68.2315 231.403 70.284 231.403 72.0371V100.29C231.407 102.039 230.328 102.851 229.01 102.096Z" fill="#D9E9FF"/>
<path d="M200.789 76.5699C204.256 74.5507 204.143 67.9191 200.537 61.7578C196.932 55.5964 191.198 52.2385 187.732 54.2576C184.265 56.2767 184.378 62.9083 187.983 69.0697C191.589 75.2311 197.323 78.589 200.789 76.5699Z" fill="white"/>
<path d="M197.441 72.8443C198.228 73.3347 199.193 72.6491 198.972 71.7595C198.754 70.8917 198.476 70.0715 198.232 69.707C198.015 69.3816 197.749 69.1212 197.519 68.8912C197.28 68.6569 196.962 68.3228 196.662 68.0017C196.562 67.8932 196.457 67.7847 196.357 67.6806L195.744 67.0036C195.653 66.8821 195.561 66.7606 195.47 66.6435C195.453 66.6218 195.422 66.587 195.405 66.561C195.401 66.5176 195.405 66.4699 195.401 66.4265C195.387 66.1444 195.374 65.8624 195.366 65.5803C195.614 65.4545 195.766 65.1637 195.814 64.7689C196.227 65.0336 196.314 64.4998 196.353 64.1223C196.379 63.8533 196.41 63.1763 196.092 62.9073C196.101 62.8639 196.105 62.8249 196.114 62.7901C196.162 62.5688 196.201 62.3389 196.201 62.0785C196.201 61.8181 196.153 61.5274 196.04 61.2367C196.014 61.1672 195.979 61.0935 195.936 61.0414C195.94 60.9546 195.914 60.8375 195.883 60.7333C195.64 59.9175 195.153 59.1755 194.644 58.7112C194.135 58.2469 193.613 58.0299 193.126 57.9475C192.769 57.8824 192.29 57.9171 192.286 58.555C192.286 58.6374 192.304 58.7199 192.33 58.798C192.26 58.7633 192.208 58.8023 192.173 58.8587C192.069 59.0149 192.034 59.2623 192.047 59.5226C192.06 59.783 192.108 60.0737 192.164 60.3601C192.173 60.4035 192.182 60.4512 192.19 60.5033C191.795 60.2516 191.877 61.0718 191.925 61.4102C191.982 61.8312 192.103 62.4604 192.473 62.712C192.499 62.8986 192.538 63.0896 192.599 63.2805C192.686 63.5625 192.804 63.8099 192.939 64.0399C192.939 64.0442 192.934 64.0442 192.934 64.0485C192.947 64.3393 192.96 64.6257 192.973 64.9164C192.973 64.9424 192.982 64.9902 192.982 65.0162C192.978 64.9945 192.917 65.0423 192.899 65.0509C192.843 65.077 192.786 65.103 192.73 65.129C192.73 65.129 192.73 65.129 192.73 65.1247L192.569 65.0943V65.09L192.53 65.0813C192.425 65.0553 192.317 65.0379 192.208 65.0249L192.195 65.0206C192.056 65.0032 191.916 64.9945 191.782 64.9902C191.534 64.9772 191.286 64.9077 191.046 64.9034C190.446 64.8904 189.637 65.4068 189.528 66.8084C189.476 67.4636 189.798 68.1058 190.364 68.466L197.441 72.8443ZM196.262 64.0963C196.257 64.131 196.253 64.1657 196.253 64.1917C196.257 64.1614 196.257 64.131 196.262 64.0963Z" fill="#305DAD"/>
<path d="M221.851 76.4506L209.141 68.7179V72.9921L221.851 80.7248V76.4506Z" fill="white"/>
<path d="M209.141 76.1685V80.4428L228.428 92.1719V87.8977L209.141 76.1685Z" fill="white"/>
<path d="M199.698 80.8851C198.071 80.8851 196.27 80.3427 194.404 79.2665C187.975 75.5607 182.743 66.561 182.743 59.1971C182.743 55.5998 183.974 52.9095 186.205 51.625C188.458 50.3276 191.442 50.6183 194.613 52.4408C201.042 56.1466 206.274 65.1464 206.274 72.5102C206.274 76.1075 205.043 78.7979 202.812 80.0823C201.89 80.6204 200.837 80.8851 199.698 80.8851ZM189.328 51.2475C188.262 51.2475 187.284 51.4948 186.423 51.9895C184.326 53.2002 183.169 55.7604 183.169 59.1971C183.169 66.4264 188.306 75.2657 194.622 78.902C197.653 80.6508 200.494 80.9372 202.608 79.7178C204.709 78.5071 205.861 75.9469 205.861 72.5102C205.861 65.2809 200.724 56.4417 194.409 52.8053C192.608 51.7726 190.877 51.2475 189.328 51.2475Z" fill="white"/>
<path d="M183.383 84.5382C181.765 83.6053 179.738 84.7725 179.738 86.6384V97.8643C179.738 99.6174 180.817 101.67 182.13 102.429L227.876 128.778C229.194 129.537 230.268 128.726 230.268 126.972V115.426C230.268 113.026 228.985 110.804 226.901 109.606L183.383 84.5382Z" fill="#D9E9FF"/>
<path d="M48.7863 128.977C47.5553 146.139 55.0324 147.424 55.0324 147.424C55.0324 147.424 58.6949 148.535 60.1433 148.535C59.2081 145.332 59.008 142.308 60.0955 139.305C61.7788 134.666 61.9528 129.515 59.6735 125.137C58.6992 123.271 58.2512 121.375 58.3121 119.448C58.373 117.53 57.403 116.098 56.0459 115.308C52.1616 117.847 49.2865 121.987 48.7863 128.977Z" fill="#7A4343"/>
<path d="M61.5913 121.158C61.8797 116.873 58.4818 113.156 54.0019 112.855C49.5219 112.555 45.6564 115.786 45.3679 120.071C45.0795 124.356 48.4774 128.073 52.9574 128.373C57.4373 128.674 61.3029 125.443 61.5913 121.158Z" fill="#2C1F9C"/>
<path d="M53.849 118.255C54.0056 113.169 46.9374 111.529 44.5798 116.042C43.8708 117.4 43.2619 119.218 42.8226 121.626C40.1084 136.484 15.1716 135.395 28.4512 160.776C28.4512 160.776 18.0772 178.228 38.9905 184.525C42.3441 185.536 46.0065 183.67 49.4558 180.632C58.1595 172.965 60.578 160.58 56.4719 149.745C55.0321 145.944 54.3101 141.778 55.6367 138.116C57.3201 133.477 57.494 128.326 55.2148 123.948C54.2361 122.078 53.7881 120.181 53.849 118.255Z" fill="#915151"/>
<path d="M80.669 209.438L79.9469 175.89L79.0118 178.884C75.7756 189.268 74.2532 200.104 74.5055 210.974L74.6751 218.324L75.345 224.339C74.5664 233.521 55.1842 236.862 43.5357 237.218C43.0051 237.391 42.4918 237.552 41.9829 237.7C45.7367 239.591 51.3478 239.986 59.7383 237.218C71.3868 236.866 81.2605 231.985 82.0391 222.803L80.669 209.438Z" fill="#E2B134"/>
<path d="M113.748 302.016L113.922 301.99C115.105 301.816 115.919 300.719 115.745 299.538L107.328 242.936C107.154 241.756 106.054 240.944 104.871 241.118L104.697 241.144C103.513 241.318 102.7 242.415 102.874 243.596L111.291 300.198C111.469 301.378 112.569 302.19 113.748 302.016Z" fill="#40379C"/>
<path d="M7.18121 305.718C5.99374 305.545 5.176 304.438 5.34999 303.258L15.5761 234.462C15.7501 233.277 16.8592 232.462 18.0424 232.635C19.2298 232.809 20.0476 233.915 19.8736 235.096L9.65183 303.891C9.47349 305.076 8.36867 305.892 7.18121 305.718Z" fill="#40379C"/>
<path d="M57.333 334.974C56.0629 334.787 55.1843 333.602 55.3713 332.335L67.3155 251.984C67.5025 250.717 68.69 249.841 69.9601 250.027C71.2302 250.214 72.1089 251.398 71.9218 252.665L59.9776 333.017C59.7906 334.284 58.6074 335.16 57.333 334.974Z" fill="#40379C"/>
<path d="M64.9452 278.155L15.8764 249.78C9.7216 246.508 9.31707 243.978 9.31707 243.978C5.80688 233.742 11.1135 235.048 15.7155 237.699L60.7303 264.139C65.3323 266.79 67.0678 269.558 66.324 272.843C66.3284 272.843 70.7781 281.157 64.9452 278.155Z" fill="#4C73DB"/>
<path d="M107.711 257.135L73.5878 277.977C68.0594 281.353 63.788 279.769 64.0925 274.457L64.3839 269.354C64.6884 264.043 69.46 256.935 74.9884 253.559L109.112 232.713C114.64 229.337 118.911 230.921 118.607 236.232L118.316 241.335C118.011 246.647 113.24 253.759 107.711 257.135Z" fill="#4C73DB"/>
<path d="M8.32957 240.073L0.217415 187.828C-1.23103 179.943 4.67584 177.322 13.0098 182.143L46.3327 201.436C52.3353 204.912 58.0377 211.408 60.5823 217.673L74.6492 252.284C78.6813 262.208 69.9776 271.971 61.561 266.968L8.32957 240.073Z" fill="#4C73DB"/>
<path d="M96.9806 200.642L71.4828 173.001C68.7468 170.037 68.7773 165.468 71.5437 162.538C74.7102 159.189 80.1865 161.901 84.0751 165.602L105.915 190.241L96.9806 200.642Z" fill="#FFD15B"/>
<g opacity="0.39">
<path opacity="0.39" d="M248.154 207.78L230.912 197.938C230.872 197.912 230.829 197.882 230.785 197.856L211.547 186.878C210.568 186.322 208.885 186.387 207.784 187.029L198.306 192.558C197.515 193.018 197.541 194.176 198.35 194.636L213.904 203.515L213.896 203.519L232.547 216.35C233.604 216.953 235.844 216.966 238.341 215.543L247.932 209.95C249.028 209.308 249.128 208.335 248.154 207.78Z" fill="#A7BCF5"/>
</g>
<path d="M242.903 207.046L225.1 196.887C224.121 196.332 194.978 191.433 193.878 192.075L193.943 193.333C193.969 193.854 194.261 194.327 194.713 194.592L231.002 215.824C231.999 216.406 233.216 216.414 234.191 215.841L244.108 210.04C244.695 209.697 244.995 209.259 245 208.842H245.004L244.965 207.119L242.903 207.046Z" fill="#3664E0"/>
<path d="M226.931 196.285L207.693 185.306C206.714 184.751 205.031 184.816 203.93 185.458L194.452 190.986C193.661 191.446 193.687 192.605 194.496 193.065L215.448 205.02L226.705 198.454C227.81 197.812 227.91 196.84 226.931 196.285Z" fill="#4285FF"/>
<path d="M244.304 206.205L225.065 195.226C224.087 194.671 222.403 194.736 221.303 195.378L210.046 201.944L231.111 213.963C232.168 214.567 233.456 214.567 234.487 213.968L244.078 208.374C245.178 207.737 245.278 206.765 244.304 206.205Z" fill="#4285FF"/>
<path d="M194.087 192.123C194.043 192.123 194.004 192.101 193.978 192.062C193.943 192.001 193.965 191.928 194.022 191.893L204.27 185.918C205.309 185.31 206.91 185.249 207.841 185.779C207.901 185.814 207.919 185.887 207.888 185.948C207.854 186.009 207.78 186.026 207.719 185.996C206.858 185.506 205.37 185.566 204.4 186.135L194.152 192.11C194.13 192.114 194.109 192.123 194.087 192.123Z" fill="#96B7FF"/>
<path d="M218.01 194.939C218.052 192.497 214.653 190.458 210.416 190.384C206.179 190.31 202.71 192.229 202.667 194.671C202.624 197.113 206.024 199.152 210.261 199.226C214.497 199.3 217.967 197.381 218.01 194.939Z" fill="white"/>
<path d="M211.103 196.572C211.016 196.433 210.89 196.311 210.798 196.172C210.746 196.094 210.694 196.016 210.637 195.942L210.633 195.934C210.59 195.873 210.542 195.816 210.49 195.764L210.472 195.747H210.468L210.394 195.665C210.389 195.626 210.381 195.582 210.376 195.543C210.376 195.53 210.376 195.482 210.363 195.487C210.376 195.478 210.407 195.469 210.42 195.461C210.577 195.383 210.733 195.304 210.89 195.226C210.894 195.226 210.894 195.222 210.894 195.222C211.064 195.235 211.233 195.226 211.412 195.196C211.533 195.174 211.647 195.14 211.755 195.1C212.021 195.244 212.395 195.122 212.634 195.035C212.825 194.962 213.286 194.766 213.017 194.614C213.047 194.606 213.073 194.597 213.099 194.588C213.269 194.536 213.439 194.484 213.582 194.411C213.726 194.337 213.839 194.246 213.887 194.141C213.904 194.107 213.904 194.063 213.865 194.033C213.917 194.024 213.965 194.011 214.008 193.985C214.339 193.794 214.191 193.508 214.03 193.321C213.908 193.174 213.756 193.035 213.569 192.909C213.352 192.805 213.108 192.718 212.851 192.649C212.521 192.558 212.029 192.475 211.699 192.67C211.655 192.696 211.633 192.723 211.62 192.753C211.568 192.727 211.494 192.731 211.433 192.74C211.251 192.766 211.09 192.835 210.968 192.918C210.846 193 210.75 193.1 210.664 193.2C210.65 193.217 210.633 193.23 210.616 193.248C210.346 193.091 210.015 193.36 209.889 193.473C209.737 193.612 209.537 193.829 209.785 193.981C209.72 194.042 209.659 194.111 209.624 194.181C209.567 194.285 209.559 194.384 209.58 194.48C209.576 194.48 209.576 194.48 209.572 194.484C209.437 194.575 209.306 194.667 209.172 194.758C209.159 194.766 209.145 194.779 209.128 194.788C209.132 194.779 209.05 194.784 209.028 194.784C208.958 194.779 208.889 194.779 208.819 194.775L208.671 194.736L208.637 194.727C208.545 194.697 208.445 194.671 208.341 194.645L208.328 194.64C208.197 194.61 208.062 194.58 207.928 194.549C207.688 194.497 207.471 194.428 207.232 194.376C206.631 194.254 205.557 194.254 204.739 194.662C204.356 194.853 204.356 195.113 204.739 195.335L207.132 196.667L209.472 198.034C209.859 198.251 210.311 198.251 210.637 198.025C211.333 197.535 211.32 196.914 211.103 196.572Z" fill="#3664E0"/>
<path d="M202.669 194.627C202.669 194.627 202.621 190.752 209.946 190.365C209.946 190.365 204.017 191.012 202.669 194.627Z" fill="#C7D9FF"/>
<path d="M220.042 194.214C218.859 193.472 216.919 193.386 215.709 194.023C214.496 194.661 214.474 195.777 215.653 196.523C216.836 197.265 218.754 197.352 219.989 196.727C221.342 196.041 221.225 194.956 220.042 194.214Z" fill="#08F7C8"/>
<path d="M216.936 195.833C216.862 195.833 216.797 195.798 216.753 195.742C216.705 195.676 216.697 195.59 216.727 195.516L217.227 194.375C217.28 194.262 217.41 194.21 217.528 194.257C217.641 194.31 217.693 194.44 217.645 194.557L217.301 195.347L219.776 195.104C219.902 195.099 220.011 195.182 220.024 195.308C220.037 195.433 219.946 195.542 219.82 195.555L216.958 195.837C216.949 195.833 216.945 195.833 216.936 195.833Z" fill="white"/>
<path d="M237.314 208.86L221.203 199.665C220.916 199.5 220.946 199.213 221.268 199.027C221.59 198.84 222.086 198.818 222.369 198.983L238.48 208.178C238.767 208.343 238.737 208.625 238.415 208.816C238.097 209.003 237.601 209.02 237.314 208.86Z" fill="#2B5CE0"/>
<path d="M229.807 208.079L218.676 201.726C218.389 201.561 218.419 201.274 218.741 201.088C219.063 200.901 219.559 200.88 219.841 201.044L230.972 207.397C231.259 207.558 231.229 207.849 230.907 208.035C230.585 208.222 230.089 208.239 229.807 208.079Z" fill="#2B5CE0"/>
<g opacity="0.39">
<path opacity="0.39" d="M291.163 308.877C303.333 308.877 313.199 304.362 313.199 298.793C313.199 293.223 303.333 288.708 291.163 288.708C278.994 288.708 269.128 293.223 269.128 298.793C269.128 304.362 278.994 308.877 291.163 308.877Z" fill="#A7BCF5"/>
</g>
<path d="M296.758 300.429C296.779 296.527 291.305 293.335 284.53 293.298C277.756 293.262 272.247 296.395 272.226 300.296C272.205 304.198 277.679 307.391 284.454 307.427C291.228 307.464 296.737 304.33 296.758 300.429Z" fill="#6AAAE3"/>
<path d="M298.951 297.784C298.976 293.041 292.322 289.16 284.087 289.115C275.852 289.071 269.155 292.879 269.129 297.622C269.103 302.365 275.758 306.246 283.993 306.29C292.228 306.335 298.925 302.526 298.951 297.784Z" fill="#B4D3FA"/>
<path d="M262.156 276.844L269.172 298.306L298.841 298.792L305.613 278.111L262.156 276.844Z" fill="#B4D3FA"/>
<path d="M297.636 278.072L290.864 298.675H290.859C289.663 301.496 289.072 302.533 286.636 303.935C284.874 304.95 282.291 305.592 280.063 305.97C285.074 306.812 289.959 306.243 293.969 304.143C295.875 303.145 297.414 302.615 298.715 299.287L299.254 297.586L305.761 277.673L297.636 278.072Z" fill="#A7C1F5"/>
<path d="M306.072 275.598C306.11 268.591 296.277 262.857 284.11 262.791C271.943 262.725 262.048 268.353 262.01 275.36C261.972 282.368 271.805 288.102 283.972 288.167C296.14 288.233 306.034 282.606 306.072 275.598Z" fill="#B4D3FA"/>
<path d="M306.07 274.243C306.108 267.235 296.275 261.501 284.108 261.435C271.94 261.369 262.046 266.997 262.007 274.004C261.969 281.012 271.802 286.746 283.97 286.812C296.137 286.878 306.032 281.25 306.07 274.243Z" fill="#B4D3FA"/>
<path d="M302.794 275.172C302.827 269.157 294.388 264.235 283.945 264.178C273.503 264.122 265.011 268.952 264.978 274.968C264.945 280.983 273.384 285.905 283.827 285.962C294.27 286.018 302.762 281.188 302.794 275.172Z" fill="#6588E0"/>
<path d="M297.297 282.798C289.937 287.037 277.963 287.015 270.555 282.75C265.209 279.673 263.6 275.16 266.04 271.394C269.429 266.165 299.576 268.968 300.42 269.845C304.409 273.989 303.373 279.296 297.297 282.798Z" fill="#6588E0"/>
<path d="M283.882 277.074C285.48 277.074 286.775 276.361 286.775 275.482C286.775 274.602 285.48 273.889 283.882 273.889C282.285 273.889 280.99 274.602 280.99 275.482C280.99 276.361 282.285 277.074 283.882 277.074Z" fill="#1A3EA1"/>
<path d="M284.021 288.356C271.216 288.356 264.382 281.4 264.313 281.327C264.243 281.253 264.243 281.136 264.317 281.066C264.391 280.997 264.509 280.997 264.578 281.071C264.648 281.14 271.381 287.988 284.017 287.988C284.287 287.988 284.561 287.983 284.839 287.979C297.997 287.671 303.43 281.648 303.486 281.587C303.551 281.509 303.669 281.5 303.747 281.57C303.825 281.639 303.834 281.752 303.765 281.83C303.712 281.891 298.184 288.04 284.848 288.348C284.569 288.352 284.291 288.356 284.021 288.356Z" fill="white"/>
<path d="M302.577 273.707C302.49 273.707 302.407 273.651 302.381 273.559C302.355 273.468 299.563 264.377 284.909 264.377C284.669 264.377 284.43 264.377 284.187 264.386C268.863 264.69 265.587 272.774 265.557 272.857C265.518 272.961 265.4 273.013 265.296 272.974C265.192 272.935 265.139 272.817 265.179 272.713C265.209 272.631 268.584 264.295 284.178 263.983C284.422 263.978 284.669 263.974 284.909 263.974C299.885 263.974 302.742 273.351 302.769 273.447C302.799 273.555 302.738 273.664 302.629 273.694C302.616 273.703 302.599 273.707 302.577 273.707Z" fill="#173891"/>
<path d="M284.035 276.059C283.478 276.059 283.025 275.608 283.025 275.052V219.674C283.025 219.118 283.478 218.667 284.035 218.667C284.591 218.667 285.044 219.118 285.044 219.674V275.048C285.048 275.608 284.596 276.059 284.035 276.059Z" fill="#00D1A7"/>
<path d="M283.643 250.565C283.408 250.565 283.173 250.483 282.982 250.322L270.42 239.513C269.998 239.149 269.95 238.511 270.316 238.09C270.681 237.669 271.32 237.621 271.742 237.986L284.304 248.795C284.726 249.159 284.774 249.797 284.409 250.218C284.208 250.448 283.926 250.565 283.643 250.565Z" fill="#00D1A7"/>
<path d="M284.187 243.9C283.978 243.9 283.765 243.835 283.586 243.7C283.138 243.366 283.047 242.737 283.378 242.29L294.273 227.671C294.608 227.224 295.239 227.133 295.687 227.463C296.135 227.797 296.227 228.426 295.896 228.873L285 243.492C284.8 243.761 284.495 243.9 284.187 243.9Z" fill="#00D1A7"/>
<path d="M311.99 226.192C305.578 233.877 291.99 233.144 291.99 233.144C291.99 233.144 288.797 219.943 295.209 212.258C301.62 204.573 315.208 205.307 315.208 205.307C315.208 205.307 318.401 218.503 311.99 226.192Z" fill="#00D1A7"/>
<path d="M261.181 227.589C270.972 229.737 276.562 242.117 276.562 242.117C276.562 242.117 266.279 251.012 256.492 248.864C246.701 246.716 241.112 234.336 241.112 234.336C241.112 234.336 251.394 225.441 261.181 227.589Z" fill="#00D1A7"/>
<path d="M288.019 204.772C291.999 213.95 285.2 225.714 285.2 225.714C285.2 225.714 271.955 222.598 267.975 213.421C263.995 204.243 270.794 192.479 270.794 192.479C270.794 192.479 284.039 195.595 288.019 204.772Z" fill="#00D1A7"/>
<path d="M272.616 240.689C272.603 240.689 272.586 240.689 272.573 240.685L242.329 234.597C242.212 234.571 242.134 234.458 242.155 234.337C242.182 234.22 242.295 234.141 242.416 234.163L272.66 240.251C272.777 240.277 272.856 240.39 272.834 240.512C272.808 240.62 272.716 240.689 272.616 240.689Z" fill="white"/>
<path d="M258.445 237.838C258.397 237.838 258.354 237.825 258.315 237.794L251.199 232.544C251.099 232.47 251.081 232.335 251.151 232.235C251.221 232.136 251.364 232.118 251.46 232.188L258.576 237.438C258.676 237.512 258.693 237.647 258.624 237.746C258.58 237.807 258.511 237.838 258.445 237.838Z" fill="white"/>
<path d="M258.445 242.03C258.349 242.03 258.262 241.969 258.236 241.874C258.202 241.757 258.267 241.635 258.384 241.601L266.253 239.175C266.37 239.14 266.492 239.205 266.527 239.318C266.562 239.435 266.496 239.557 266.379 239.591L258.51 242.017C258.489 242.03 258.467 242.03 258.445 242.03Z" fill="white"/>
<path d="M294.443 229.806C294.391 229.806 294.339 229.789 294.3 229.75C294.208 229.672 294.2 229.533 294.278 229.437L312.768 208.448C312.847 208.357 312.986 208.348 313.082 208.427C313.173 208.505 313.182 208.644 313.103 208.739L294.613 229.728C294.565 229.78 294.504 229.806 294.443 229.806Z" fill="white"/>
<path d="M297.24 226.643C297.119 226.643 297.019 226.543 297.019 226.421V217.834C297.019 217.712 297.119 217.612 297.24 217.612C297.362 217.612 297.462 217.712 297.462 217.834V226.421C297.462 226.543 297.362 226.643 297.24 226.643Z" fill="white"/>
<path d="M279.546 212.782C279.424 212.782 279.324 212.683 279.324 212.561V203.974C279.324 203.852 279.424 203.752 279.546 203.752C279.667 203.752 279.767 203.852 279.767 203.974V212.561C279.763 212.683 279.667 212.782 279.546 212.782Z" fill="white"/>
<path d="M304.138 219.114C304.043 219.114 303.956 219.053 303.925 218.958C303.891 218.841 303.956 218.719 304.073 218.684L311.572 216.424C311.69 216.389 311.811 216.454 311.846 216.571C311.881 216.688 311.816 216.81 311.698 216.845L304.199 219.105C304.182 219.114 304.16 219.114 304.138 219.114Z" fill="white"/>
<path d="M277.014 207.207C276.984 207.207 276.949 207.198 276.919 207.185L269.863 203.787C269.755 203.735 269.707 203.605 269.759 203.492C269.811 203.384 269.946 203.34 270.055 203.388L277.11 206.786C277.219 206.838 277.266 206.968 277.214 207.081C277.175 207.159 277.097 207.207 277.014 207.207Z" fill="white"/>
<path d="M283.643 221.774C283.561 221.774 283.478 221.726 283.443 221.644L271.925 196.233C271.873 196.124 271.925 195.99 272.034 195.942C272.147 195.894 272.273 195.942 272.325 196.05L283.843 221.461C283.895 221.57 283.843 221.704 283.735 221.752C283.704 221.765 283.674 221.774 283.643 221.774Z" fill="white"/>
<path d="M73.6316 150.175C73.6316 150.175 70.2171 148.001 68.6295 145.714C68.6295 145.714 67.5855 147.215 66.3633 147.918C66.3633 147.923 70.9739 150.648 73.6316 150.175Z" fill="#F0A995"/>
<path d="M168.737 196.667C168.668 196.667 168.598 196.632 168.554 196.572C168.485 196.472 168.511 196.333 168.615 196.268L194.535 178.794L177.745 169.234C177.641 169.173 177.602 169.039 177.663 168.935C177.724 168.83 177.858 168.791 177.963 168.852L195.053 178.585C195.118 178.624 195.161 178.694 195.161 178.768C195.166 178.841 195.127 178.915 195.066 178.958L168.855 196.632C168.82 196.659 168.776 196.667 168.737 196.667Z" fill="#342B8C"/>
<path d="M180.699 199.67L173.618 204.512C171.008 206.296 167.054 206.066 164.836 204C162.618 201.93 162.935 198.78 165.549 196.997L172.631 192.154C175.24 190.371 179.194 190.601 181.413 192.666C183.631 194.732 183.313 197.882 180.699 199.67Z" fill="#A8C4E5"/>
<path d="M178.929 198.038L171.847 202.881C169.238 204.664 165.284 204.434 163.065 202.369C160.847 200.299 161.165 197.148 163.779 195.365L170.86 190.522C173.47 188.739 177.424 188.969 179.642 191.034C181.86 193.104 181.539 196.255 178.929 198.038Z" fill="#2C1F9C"/>
<path d="M177.276 190.54C176.423 190.752 175.666 191.165 175.005 191.737C174.331 192.319 175.31 193.291 175.984 192.714C176.467 192.297 177.028 192.028 177.645 191.872C178.507 191.655 178.141 190.323 177.276 190.54Z" fill="#A8C4E5"/>
<path d="M161.908 154.242C163.822 155.322 166.724 153.973 167.137 151.807L169.098 141.493C169.372 140.048 168.694 138.351 167.585 137.722L129.116 115.96C128.007 115.335 126.876 116.003 126.602 117.453L124.136 130.419C123.875 131.79 124.462 133.053 125.671 133.738L161.908 154.242Z" fill="#D9E9FF"/>
<path d="M163.57 144.699L157.524 141.067L156.863 144.361L162.9 148.231L163.57 144.699Z" fill="white"/>
<path d="M139.347 130.202L138.672 133.734L154.792 143.424L155.462 139.896L139.347 130.202Z" fill="white"/>
<path d="M135.641 124.461C134.614 124.244 133.818 124.661 133.24 125.086C133.062 125.221 132.779 125.06 132.683 124.769C132.361 123.789 131.852 122.53 130.961 121.814C129.26 120.443 127.659 121.48 127.79 123.745C127.872 126.462 131.435 132.623 131.435 132.623L131.539 132.684C131.539 132.684 136.528 131.356 137.524 129.256C138.412 127.568 137.716 124.899 135.641 124.461Z" fill="#E655BE"/>
<path d="M132.548 130.154C132.544 130.149 132.539 130.149 132.535 130.145C132.383 130.054 132.274 129.872 132.252 129.681L131.952 126.917L131.352 127.819C131.269 127.949 131.108 127.975 130.956 127.889L129.629 127.138C129.525 127.082 129.477 126.973 129.499 126.856C129.547 126.604 129.882 126.448 130.103 126.574L130.895 127.021L131.83 125.615C131.917 125.485 132.074 125.459 132.226 125.545C132.226 125.545 132.23 125.545 132.23 125.55C132.383 125.641 132.5 125.828 132.522 126.018L132.826 128.848L133.292 128.223C133.379 128.106 133.531 128.08 133.679 128.166L135.11 128.974C135.214 129.03 135.262 129.138 135.24 129.256C135.193 129.507 134.858 129.663 134.636 129.538L133.731 129.026L132.935 130.097C132.848 130.215 132.696 130.236 132.548 130.154Z" fill="white"/>
<path d="M208.45 106.868L185.305 92.735V97.0093L208.45 111.142V106.868Z" fill="white"/>
<path d="M223.909 116.259L211.199 108.531V112.801L223.909 120.534V116.259Z" fill="white"/>
<g opacity="0.39">
<path opacity="0.39" d="M200.05 235.56L189.58 227.944C188.85 227.523 188.945 226.79 189.789 226.304L211.864 213.633C212.708 213.147 213.982 213.1 214.713 213.52L226.883 220.555C227.614 220.975 227.518 221.709 226.675 222.195L204.6 234.866C203.756 235.347 202.56 235.499 200.05 235.56Z" fill="#A7BCF5"/>
</g>
<path d="M223.795 220.854L211.625 213.82C210.894 213.399 209.62 213.451 208.776 213.933L187.471 226.161C187.663 225.64 187.854 225.085 187.854 225.085L185.997 225.532L186.031 227.354C185.944 227.684 186.097 228.009 186.497 228.244L198.667 235.278C199.398 235.699 200.672 235.647 201.516 235.165L223.591 222.494C224.435 222.008 224.526 221.275 223.795 220.854Z" fill="white"/>
<path d="M224.291 219.574L221.942 219.782L211.625 213.82C210.894 213.399 209.62 213.451 208.776 213.933L200.002 228.535L200.046 235.56C200.559 235.538 201.09 235.404 201.512 235.165L223.586 222.494C224.069 222.217 224.304 221.856 224.282 221.522L224.291 219.574Z" fill="#A8C9ED"/>
<path d="M198.006 233.828C198.006 234.041 197.858 234.123 197.671 234.019C197.488 233.91 197.336 233.654 197.336 233.442C197.336 233.229 197.484 233.147 197.671 233.251C197.858 233.359 198.006 233.615 198.006 233.828Z" fill="#6588E0"/>
<path d="M198.672 233.234L186.501 226.2C185.771 225.779 185.866 225.046 186.71 224.559L208.785 211.889C209.629 211.403 210.903 211.355 211.634 211.776L223.804 218.81C224.535 219.231 224.439 219.964 223.595 220.45L201.521 233.121C200.673 233.603 199.398 233.655 198.672 233.234Z" fill="white"/>
<path d="M198.672 232.844L186.502 225.809C185.771 225.389 185.867 224.655 186.711 224.169L208.785 211.498C209.629 211.012 210.904 210.965 211.634 211.386L223.805 218.42C224.536 218.84 224.44 219.574 223.596 220.06L201.521 232.731C200.673 233.212 199.399 233.264 198.672 232.844Z" fill="#2C1F9C"/>
<path d="M218.119 216.741L214.757 214.796C214.617 214.718 214.635 214.575 214.796 214.484C214.957 214.393 215.2 214.384 215.339 214.462L218.702 216.406C218.841 216.484 218.824 216.628 218.663 216.719C218.502 216.81 218.258 216.823 218.119 216.741Z" fill="#4A3EB5"/>
<path d="M193.67 231.629L190.969 230.067C190.855 230.002 190.76 229.824 190.76 229.672C190.76 229.52 190.855 229.451 190.969 229.516L193.67 231.078C193.783 231.143 193.878 231.321 193.878 231.473C193.878 231.625 193.783 231.698 193.67 231.629Z" fill="#6588E0"/>
<path d="M209.468 212.618L190.903 223.271C190.473 223.519 190.468 224.143 190.903 224.391L202.151 230.895C202.352 231.013 202.599 231.013 202.8 230.895L221.364 220.242C221.795 219.995 221.799 219.37 221.364 219.123L210.116 212.618C209.911 212.501 209.668 212.501 209.468 212.618Z" fill="#699EFF"/>
<path d="M219.306 223.875C219.333 224.1 219.52 224.196 219.715 224.079L221.042 223.311C221.238 223.198 221.377 222.92 221.346 222.69C221.32 222.464 221.133 222.369 220.938 222.486L219.611 223.254C219.415 223.371 219.28 223.649 219.306 223.875Z" fill="#E6F0FF"/>
<path d="M219.415 223.995C219.441 224.221 219.628 224.317 219.824 224.199L221.151 223.431C221.347 223.318 221.486 223.041 221.455 222.811C221.429 222.585 221.242 222.49 221.046 222.607L219.72 223.375C219.524 223.488 219.385 223.77 219.415 223.995Z" fill="#6899E3"/>
<path d="M216.901 225.293C216.927 225.518 217.114 225.614 217.31 225.497L218.637 224.729C218.832 224.616 218.972 224.338 218.941 224.108C218.915 223.882 218.728 223.787 218.532 223.904L217.206 224.672C217.014 224.789 216.875 225.067 216.901 225.293Z" fill="#E6F0FF"/>
<path d="M217.001 225.389C217.027 225.615 217.214 225.71 217.41 225.593L218.737 224.825C218.933 224.712 219.072 224.434 219.041 224.204C219.015 223.979 218.828 223.883 218.632 224L217.306 224.768C217.11 224.886 216.975 225.163 217.001 225.389Z" fill="#6899E3"/>
</g>
<defs>
<linearGradient id="paint0_linear" x1="254.325" y1="148.826" x2="280.328" y2="122.822" gradientUnits="userSpaceOnUse">
<stop stop-color="#88BEFF"/>
<stop offset="0.1358" stop-color="#80B3FD"/>
<stop offset="0.3739" stop-color="#6C96F8"/>
<stop offset="0.4839" stop-color="#6186F5"/>
<stop offset="0.9946" stop-color="#366BC1"/>
</linearGradient>
<linearGradient id="paint1_linear" x1="249.783" y1="137.697" x2="256.803" y2="137.697" gradientUnits="userSpaceOnUse">
<stop stop-color="#88BEFF"/>
<stop offset="0.1358" stop-color="#80B3FD"/>
<stop offset="0.3739" stop-color="#6C96F8"/>
<stop offset="0.4839" stop-color="#6186F5"/>
<stop offset="0.9946" stop-color="#366BC1"/>
</linearGradient>
<clipPath id="clip0">
<rect width="316" height="335" fill="white"/>
</clipPath>
</defs>
</svg>
