<svg width="70" height="70" viewBox="0 0 70 70" fill="none" xmlns="http://www.w3.org/2000/svg">
<circle cx="35" cy="35" r="35" fill="#EDF5FF" fill-opacity="0.5"/>
<circle cx="26.3139" cy="41.9213" r="9.60784" fill="#9AB0FE"/>
<g clip-path="url(#clip0)">
<path d="M17.3604 51.5787C20.6151 53.6153 26.2837 54.498 30.1257 54.806C36.4177 55.3113 47.3584 54.8847 52.6404 51.5787C52.845 51.4508 52.9646 51.2223 52.9529 50.9813C52.9413 50.7402 52.8004 50.5243 52.5844 50.4167C51.9911 50.1213 50.2751 49.1787 49.4564 48.7107C44.9897 46.1067 45.9231 48.6767 41.0004 44.044V40.168C42.2751 38.96 43.0117 37.912 43.0937 36.062C44.4775 35.361 45.4104 34.005 45.5704 32.462C45.7037 31.7953 45.9737 29.9953 45.3704 28.9893C47.4597 24.602 46.1764 18.9893 41.4664 18.4153C40.8091 17.5053 38.5937 15 34.1404 15C28.9164 15 24.3337 19.3333 24.3337 24.2667C24.3508 25.7202 24.5886 27.1626 25.0391 28.5447C23.9304 29.3287 24.2804 31.682 24.4331 32.4613C24.5924 34.0038 25.5242 35.3597 26.9071 36.0613C26.9884 37.9047 27.7171 38.9527 29.0004 40.1687V44.0467C28.0529 44.9736 27.0246 45.8143 25.9277 46.5587C25.3751 46.8865 24.7728 47.1222 24.1444 47.2567C22.2111 47.5987 21.1444 48.426 17.7264 50.2567C17.4411 50.4087 17.0697 50.5233 17.0477 50.9793C17.0354 51.2211 17.1551 51.4505 17.3604 51.5787ZM48.7897 49.8667C49.4771 50.2593 50.1744 50.6427 50.8757 51.022C48.2301 52.1336 45.4385 52.859 42.5864 53.176C43.753 51.7995 44.5236 50.1319 44.8157 48.3513C45.9691 48.7427 46.5004 48.5333 48.7897 49.8667ZM44.2564 32.2373C44.251 32.2644 44.2472 32.2918 44.2451 32.3193C44.1497 33.1768 43.7278 33.9646 43.0671 34.5193C42.9898 33.6409 43.0551 32.7557 43.2604 31.898C43.2752 31.8418 43.284 31.7841 43.2864 31.726C43.2864 31.1187 43.2691 30.626 43.2524 30.2593C43.2751 30.0753 43.4051 29.6647 44.1231 29.6647C44.1477 29.6647 44.1997 29.6707 44.2384 29.672C44.4351 29.9333 44.4837 31.0927 44.2564 32.236V32.2373ZM34.1404 16.3333C38.6664 16.3333 40.4504 19.2773 40.5231 19.4C40.6422 19.6063 40.8622 19.7333 41.1004 19.7333H41.2797C41.4317 19.7427 45.0004 20 45.0004 24.8667C44.9933 26.0663 44.7229 27.2497 44.2084 28.3333C44.1653 28.331 44.1222 28.331 44.0791 28.3333C43.75 28.3335 43.4242 28.3988 43.1204 28.5253C42.5284 23.2587 40.5717 22.0193 40.3364 21.8893C40.0242 21.7166 39.6313 21.8203 39.4451 22.1247C37.6884 24.9913 33.4704 25.4047 33.4871 25.406H30.0071C27.9484 25.406 26.6737 26.414 26.5951 28.0973C26.5897 28.1967 26.5864 28.3093 26.5857 28.4307C26.52 28.4098 26.4532 28.3922 26.3857 28.378C25.9285 27.0547 25.6859 25.6667 25.6671 24.2667C25.6671 20.1147 29.7057 16.3333 34.1404 16.3333ZM25.7591 32.3213C25.757 32.2925 25.7532 32.2638 25.7477 32.2353C25.5044 31.024 25.5744 29.79 25.7804 29.6527C26.1664 29.7093 26.5991 29.6787 26.6471 30.0913C26.6844 30.4247 26.6691 30.7353 26.8244 32.2613C26.9579 33.0048 26.9951 33.7624 26.9351 34.5153C26.2759 33.9622 25.8548 33.1766 25.7591 32.3213ZM28.2311 35.588C28.3335 34.4729 28.3098 33.3498 28.1604 32.24C28.011 30.8846 27.9329 29.5223 27.9264 28.1587C27.9431 27.8067 27.9931 26.7333 30.0071 26.7333H33.5451C33.7317 26.7173 37.8451 26.3233 40.1137 23.4833C41.6364 25.4167 41.9491 29.1613 41.9537 31.6307C41.7994 32.3036 41.7167 32.991 41.7071 33.6813C41.7071 35.7813 42.2357 37.2407 40.2251 39.0613C37.9091 41.1653 37.9577 43 36.1337 43C32.9717 43 33.0004 43.2787 31.7337 41.4167C31.2557 40.6877 30.7088 40.0064 30.1004 39.382C28.8724 38.1553 28.2611 37.5333 28.2311 35.5867V35.588ZM29.0004 45.8513V47C29.0004 47.3682 29.2989 47.6667 29.6671 47.6667C30.0353 47.6667 30.3337 47.3682 30.3337 47V41.7373C31.3164 43.1333 31.9424 44.3333 33.8671 44.3333C37.5417 44.3333 37.6371 44.6273 39.6671 41.7373V47C39.6671 47.3682 39.9655 47.6667 40.3337 47.6667C40.7019 47.6667 41.0004 47.3682 41.0004 47V45.8513C41.7828 46.5877 42.6411 47.2389 43.5611 47.794C43.3164 49.316 42.4804 52.578 39.7551 53.4787C36.5927 53.729 33.4155 53.729 30.2531 53.4787C27.5197 52.5807 26.6844 49.3167 26.4397 47.7933C27.3595 47.2383 28.2178 46.5873 29.0004 45.8513ZM21.2157 49.8627C23.4931 48.536 24.0377 48.7407 25.1851 48.35C25.4771 50.1306 26.2477 51.7983 27.4144 53.1747C24.5623 52.8577 21.7707 52.1322 19.1251 51.0207C19.8264 50.6413 20.5251 50.2573 21.2157 49.8627Z" fill="black"/>
</g>
<defs>
<clipPath id="clip0">
<rect x="15" y="15" width="40" height="40" fill="white"/>
</clipPath>
</defs>
</svg>
