<svg width="51" height="51" viewBox="0 0 51 51" fill="none" xmlns="http://www.w3.org/2000/svg">
<circle cx="25.5" cy="25.5" r="25.5" fill="#EDF5FF" fill-opacity="0.5"/>
<circle cx="26" cy="27" r="8" fill="#A5D7B3"/>
<path d="M34.5342 17.2547L31.0701 16.5947H31.0702C30.1949 16.4279 29.5595 15.6601 29.5595 14.7689V13.3372C29.5595 12.5998 28.9596 12 28.2223 12H22.7781C22.0408 12 21.441 12.5999 21.441 13.3372V14.7689C21.441 15.66 20.8057 16.4278 19.9304 16.5947L16.4661 17.2547C14.3033 17.667 12.7983 19.6333 12.9653 21.8287L14.1776 37.7643C14.2305 38.4572 14.8161 38.9999 15.511 38.9999H35.4895C36.1845 38.9999 36.7701 38.4571 36.8228 37.7642L38.0352 21.8287C38.2021 19.6333 36.6972 17.667 34.5342 17.2547ZM36.7014 21.7272L35.4894 37.6625H32.5672L31.9214 34.5725L34.175 24.7138C34.2573 24.3538 34.0321 23.9951 33.672 23.9129C33.312 23.8303 32.9533 24.0558 32.8711 24.4159L30.5849 34.4172C30.5634 34.5112 30.5625 34.6087 30.5822 34.703L31.2008 37.6626L19.7994 37.6628L20.418 34.703C20.4377 34.6087 20.4368 34.5112 20.4153 34.4172L18.1291 24.4159C18.0468 24.0558 17.6885 23.8305 17.3282 23.9129C16.9681 23.9952 16.743 24.3538 16.8252 24.7138L19.0788 34.5725L18.433 37.6627H15.5112L14.2989 21.7272C14.1836 20.2111 15.2229 18.8533 16.7164 18.5685L20.1807 17.9085C21.6859 17.6216 22.7785 16.3012 22.7785 14.7689L22.7781 13.3375L28.222 13.3372V14.7689C28.222 16.3013 29.3145 17.6216 30.8198 17.9085L34.284 18.5685C35.7775 18.8532 36.8168 20.2111 36.7014 21.7272Z" fill="black"/>
<path d="M25.5003 19.9771C25.2049 19.9771 24.9653 20.2166 24.9653 20.512V32.0988C24.9653 32.3942 25.2049 32.6338 25.5003 32.6338C25.7957 32.6338 26.0353 32.3942 26.0353 32.0988V20.512C26.0353 20.2166 25.7958 19.9771 25.5003 19.9771Z" fill="black"/>
</svg>
