<svg width="51" height="51" viewBox="0 0 51 51" fill="none" xmlns="http://www.w3.org/2000/svg">
<circle cx="25.5" cy="25.5" r="25.5" fill="#EDF5FF" fill-opacity="0.5"/>
<circle cx="25" cy="32" r="7" fill="#FC9DA9"/>
<path d="M33.5594 28.5419C33.56 28.5432 33.5606 28.5444 33.561 28.5454C33.6506 28.7461 33.8408 28.8637 34.0424 28.8637C34.1145 28.8637 34.1881 28.8486 34.2589 28.8171C34.5288 28.6972 34.6454 28.3897 34.5247 28.117C34.4042 27.8442 34.0981 27.7237 33.8278 27.8426C33.5575 27.9616 33.4397 28.2688 33.5594 28.5419Z" fill="black"/>
<path d="M35.0143 30.0786C34.969 29.791 34.6989 29.5945 34.4112 29.6402C34.1236 29.6856 33.9273 29.9556 33.9728 30.2434C34.0911 30.9926 34.1236 31.7562 34.0692 32.5128C33.9432 34.2668 33.0566 35.8676 31.6367 36.905L31.2801 37.1654C30.5816 37.6756 29.7553 37.9453 28.8903 37.9453C28.5772 37.9453 28.2639 37.9088 27.9595 37.8369L26.562 37.5069C23.861 36.8692 21.3973 35.3703 19.6248 33.2867C18.8368 32.3604 18.4815 31.6866 18.2086 30.9926C18.2304 30.9221 18.2382 30.8461 18.2279 30.768C18.225 30.7454 17.9655 28.4677 21.1775 27.0056C23.3804 26.0028 24.411 24.2879 24.7697 23.5486C27.1847 23.8819 28.0159 24.5617 28.0777 24.615C28.2052 24.7502 28.3811 24.7938 28.5632 24.7526C28.6071 24.7427 28.6506 24.7333 28.6938 24.7242C30.3836 24.3695 32.1265 25.2695 32.8388 26.8632C32.9577 27.1292 33.2696 27.2484 33.5355 27.1296C33.8014 27.0107 33.9205 26.6989 33.8018 26.4329C33.3983 25.5305 32.7198 24.7706 31.875 24.2657C31.8754 24.2638 31.8762 24.2622 31.8768 24.2603C31.9831 23.9206 32.0369 23.5663 32.0369 23.2075C32.0369 23.1356 32.034 23.0643 32.0299 22.9934H32.3957C32.6868 22.9934 32.9231 22.7574 32.9231 22.4661C32.9231 22.1748 32.6868 21.9388 32.3957 21.9388H31.7996C31.664 21.589 31.4747 21.2658 31.2409 20.9801L31.4797 20.7413C31.6857 20.5353 31.6857 20.2014 31.4797 19.9954C31.2737 19.7896 30.94 19.7896 30.734 19.9954L30.458 20.2715C30.0303 19.9876 29.5374 19.7946 29.0067 19.72C29.7055 19.1611 30.6234 18.8964 31.7419 18.9346C31.8847 18.9399 32.0235 18.8859 32.1265 18.7867C32.2293 18.6874 32.2872 18.5506 32.2872 18.4076V16.3988C32.2872 16.1244 32.0769 15.896 31.8033 15.8733C31.7178 15.8663 30.7303 15.7911 29.4463 15.9456C28.8722 14.8347 28.0641 14.0095 27.1347 13.5513L27.5079 12.9941C27.67 12.7521 27.6052 12.4246 27.3631 12.2626C27.1213 12.1005 26.7937 12.1652 26.6316 12.4072L26.0973 13.2051C25.8695 13.163 25.6373 13.1406 25.4023 13.1406C25.2667 13.1406 25.1318 13.1482 24.9981 13.1624V12.5273C24.9981 12.2361 24.762 12 24.4708 12C24.1795 12 23.9434 12.2361 23.9434 12.5273V13.4292C23.4486 13.6306 22.98 13.9349 22.5519 14.3378C22.2316 14.6392 21.9434 14.9877 21.6907 15.3744C21.4929 14.9842 21.0879 14.7158 20.6214 14.7158H19.1899C18.5291 14.7158 17.9915 15.2535 17.9915 15.9143V21.3049C17.7261 21.5111 17.4703 21.7528 17.2256 22.0319C16.0695 23.3504 15.8394 25.0783 15.8499 26.2955C15.8619 27.6724 16.1948 29.076 16.7209 29.976C16.8004 30.189 16.8719 30.3944 16.9413 30.5936C17.2958 31.6099 17.6306 32.5701 18.8214 33.97C20.7386 36.2238 23.4015 37.8443 26.3198 38.5334L27.717 38.8634C28.101 38.954 28.4957 38.9999 28.8903 38.9999C29.9805 38.9999 31.022 38.6601 31.902 38.0172L32.2585 37.7568C33.9296 36.5361 34.9729 34.6525 35.1212 32.5884C35.1814 31.7517 35.1453 30.9073 35.0143 30.0786ZM28.5791 23.6718C28.3665 23.5239 28.0042 23.3131 27.4379 23.1018C27.4816 22.5942 27.6288 21.6378 28.1241 20.7706C28.2524 20.7504 28.3834 20.7397 28.5142 20.7397C29.875 20.7397 30.9822 21.8469 30.9822 23.2077C30.9822 23.4172 30.9556 23.624 30.9041 23.8244C30.1556 23.5818 29.3538 23.5272 28.5791 23.6718ZM31.2325 16.9072V17.8828C29.9261 17.9394 28.8483 18.3757 28.0231 19.1828C26.8642 20.3168 26.5146 21.892 26.4098 22.787C25.9053 22.6612 25.3063 22.5477 24.5974 22.463C24.4372 22.3145 24.2775 22.1744 24.1185 22.0422C24.1193 22.0294 24.1204 22.0168 24.1204 22.0039C24.1204 20.5874 24.5781 19.4471 25.4805 18.6146C27.1969 17.0316 30.0905 16.896 31.2325 16.9072ZM25.4023 14.1953C25.6666 14.1953 25.9269 14.2342 26.1803 14.3082C26.1805 14.3082 26.1809 14.3084 26.1811 14.3084C27.0216 14.5539 27.7829 15.1919 28.3422 16.1291C27.1163 16.3934 25.7899 16.8958 24.7686 17.8364C23.7961 18.7319 23.2367 19.8953 23.0995 21.3016C22.6679 21.0338 22.2409 20.828 21.8198 20.6853V17.636C21.8289 17.6148 21.8373 17.5931 21.8439 17.5705C22.4255 15.5517 23.8555 14.1953 25.4023 14.1953ZM19.0461 15.9143C19.0461 15.835 19.1106 15.7705 19.1899 15.7705H20.6214C20.7007 15.7705 20.7652 15.835 20.7652 15.9143V20.4583C20.5884 20.4428 20.4131 20.4387 20.2388 20.4465C19.8262 20.4649 19.4283 20.5493 19.0461 20.6981V15.9143ZM18.0186 22.7273C18.7003 21.9497 19.4631 21.5369 20.2858 21.5002C21.3349 21.4532 22.542 22.0234 23.7871 23.1514C23.4651 23.7832 22.5692 25.2132 20.7406 26.0456C18.7225 26.9642 17.8611 28.2104 17.4936 29.0939C17.4874 29.109 17.4816 29.1236 17.4754 29.1384C16.8088 27.6617 16.4504 24.5159 18.0186 22.7273Z" fill="black"/>
<path d="M22.5378 33.2079C22.3137 33.0219 21.9812 33.053 21.7952 33.2771C21.6094 33.5012 21.6403 33.8337 21.8644 34.0195C23.2909 35.2032 24.9995 36.0539 26.805 36.4803C26.8458 36.49 26.8866 36.4945 26.9267 36.4945C27.1657 36.4945 27.3822 36.331 27.4394 36.0883C27.5064 35.8049 27.3309 35.5208 27.0474 35.4539C25.3993 35.0647 23.8399 34.2879 22.5378 33.2079Z" fill="black"/>
<path d="M20.4835 31.8617C20.2633 32.0524 20.2384 32.3839 20.429 32.6039C20.5334 32.7291 20.6834 32.7936 20.8346 32.7936C20.9536 32.7936 21.0733 32.7536 21.1718 32.6714C21.3955 32.485 21.4258 32.1525 21.2393 31.9288L21.2286 31.9163C21.0379 31.696 20.7036 31.6709 20.4835 31.8617Z" fill="black"/>
</svg>
