<svg width="51" height="51" viewBox="0 0 51 51" fill="none" xmlns="http://www.w3.org/2000/svg">
<circle cx="25.5" cy="25.5" r="25.5" fill="#EDF5FF" fill-opacity="0.5"/>
<ellipse cx="25" cy="25.5" rx="8" ry="7.5" fill="#72E8D9"/>
<g clip-path="url(#clip0)">
<path d="M38.9673 27.0514C38.7678 25.6691 37.6819 24.5832 36.2996 24.3837V23.5656C36.2996 21.3084 34.5838 19.4707 32.4747 19.4707C30.4263 19.4707 28.7114 21.2526 28.6497 23.4432H28.6758L28.6497 23.4477V32.3157C28.6497 35.1507 26.5303 37.4528 23.9248 37.4528C21.3194 37.4528 19.1999 35.1475 19.1999 32.3157V31.5476C19.8524 31.5476 20.5499 31.0746 20.5499 29.7476V28.6159C23.4379 27.8774 25.4998 25.3975 25.4998 22.586V21.6477H24.5998L24.5809 15.7911C24.5744 14.707 23.7965 13.7813 22.7296 13.5883C22.4995 12.8834 21.7415 12.4984 21.0364 12.7286C20.3315 12.9587 19.9465 13.7168 20.1767 14.4218C20.4068 15.1268 21.1648 15.5117 21.8699 15.2816C22.2474 15.1583 22.5509 14.8743 22.699 14.5059C23.2755 14.6699 23.6749 15.1944 23.6796 15.7938L23.6998 21.6477H22.7998V22.599C22.764 24.1643 21.7146 25.5245 20.2097 25.9564C19.4045 26.2119 18.5399 26.2119 17.7347 25.9564C16.2316 25.523 15.1845 24.163 15.15 22.599V21.6477H13.8V15.7978C13.8026 15.1896 14.2116 14.6581 14.799 14.5C15.0728 15.1972 15.86 15.5404 16.5573 15.2665C17.2545 14.9926 17.5976 14.2053 17.3237 13.5082C17.0498 12.811 16.2626 12.4679 15.5654 12.7417C15.1876 12.8902 14.8962 13.1999 14.7711 13.5861C13.6926 13.7704 12.903 14.7037 12.9 15.7978V21.6477H12V22.5837C12 25.3984 14.0632 27.8792 16.9499 28.6159V29.7476C16.9499 31.0746 17.6474 31.5476 18.2999 31.5476V32.3157C18.2999 35.6457 20.823 38.3528 23.9248 38.3528C27.0266 38.3528 29.5497 35.6425 29.5497 32.3157V23.4693C29.5947 21.7616 30.9078 20.372 32.4747 20.372C34.0875 20.372 35.3996 21.8048 35.3996 23.5669V24.3837C33.6778 24.6322 32.4835 26.2295 32.732 27.9513C32.9805 29.6732 34.5778 30.8675 36.2996 30.619C38.0215 30.3705 39.2158 28.7731 38.9673 27.0514ZM21.4499 14.4478C21.2013 14.4478 20.9999 14.2463 20.9999 13.9978C20.9999 13.7493 21.2013 13.5478 21.4499 13.5478C21.6984 13.5478 21.8999 13.7493 21.8999 13.9978C21.8999 14.2463 21.6984 14.4478 21.4499 14.4478ZM16.0499 13.5478C16.2984 13.5478 16.4999 13.7493 16.4999 13.9978C16.4999 14.2463 16.2984 14.4478 16.0499 14.4478C15.8014 14.4478 15.5999 14.2463 15.5999 13.9978C15.5999 13.7493 15.8014 13.5478 16.0499 13.5478ZM12.9 22.5837V22.5477H14.25V22.599C14.2837 24.5548 15.5849 26.2617 17.462 26.8123C18.4456 27.1237 19.5014 27.1237 20.4851 26.8123C22.3631 26.2625 23.6655 24.5555 23.6998 22.599V22.5477H24.5998V22.5837C24.5998 25.087 22.6702 27.2897 20.0099 27.8225C19.3852 27.9476 18.7453 27.979 18.1114 27.9157C17.9027 27.8954 17.6952 27.864 17.4899 27.8216C14.8296 27.2897 12.9 25.087 12.9 22.5837ZM18.2999 30.6476C17.8949 30.6476 17.8499 30.0176 17.8499 29.7476V28.7927C17.8859 28.7972 17.9228 28.799 17.9593 28.8026C18.0043 28.8076 18.0493 28.8112 18.0943 28.8152C18.3071 28.8341 18.5218 28.8467 18.7382 28.8472H18.7607C18.9767 28.8472 19.1909 28.8341 19.4024 28.8152C19.4474 28.8112 19.4951 28.8076 19.5414 28.8026C19.577 28.7986 19.6139 28.7972 19.6494 28.7927V29.7476C19.6494 30.0176 19.6044 30.6476 19.1994 30.6476H18.2999ZM35.8496 29.7476C34.607 29.7476 33.5997 28.7402 33.5997 27.4976C33.5997 26.255 34.607 25.2477 35.8496 25.2477C37.0922 25.2477 38.0996 26.255 38.0996 27.4976C38.0981 28.7397 37.0916 29.7461 35.8496 29.7476Z" fill="black"/>
<path d="M35.8495 26.1475C35.1039 26.1475 34.4995 26.7519 34.4995 27.4974C34.4995 28.243 35.1039 28.8474 35.8495 28.8474C36.5951 28.8474 37.1995 28.243 37.1995 27.4974C37.1995 26.7519 36.5951 26.1475 35.8495 26.1475ZM35.8495 27.9474C35.601 27.9474 35.3995 27.7459 35.3995 27.4974C35.3995 27.2489 35.601 27.0474 35.8495 27.0474C36.098 27.0474 36.2995 27.2489 36.2995 27.4974C36.2995 27.7459 36.098 27.9474 35.8495 27.9474Z" fill="black"/>
</g>
<defs>
<clipPath id="clip0">
<rect width="27" height="27" fill="white" transform="translate(12 12)"/>
</clipPath>
</defs>
</svg>
