<svg width="70" height="70" viewBox="0 0 70 70" fill="none" xmlns="http://www.w3.org/2000/svg">
<circle cx="35" cy="35" r="35" fill="#EDF5FF" fill-opacity="0.5"/>
<circle cx="46.5" cy="45.5" r="10.5" fill="#FC9DA9"/>
<g clip-path="url(#clip0)">
<path d="M43.087 19.5366C40.8889 19.5366 38.7419 20.1545 36.8762 21.3237C36.5183 21.5172 33.8058 23.0854 34.2268 25.9423C34.3805 26.9858 34.9326 27.7315 35.4666 28.4527C36.2201 29.4705 36.9393 30.4434 36.7432 32.4114C36.7326 32.4058 36.7226 32.3992 36.7119 32.3938C36.1541 32.1093 35.519 32.0593 34.9234 32.2528C34.3783 32.4299 33.9267 32.792 33.6362 33.2797C33.4378 33.0876 33.211 32.9225 32.9597 32.7906C32.5218 32.5607 32.0438 32.448 31.5628 32.4552C31.5266 32.0635 31.547 31.806 31.5702 31.5176C31.5995 31.1527 31.6326 30.7391 31.5446 30.0884C31.3733 28.8242 30.6493 27.7197 29.5058 26.9784C28.1267 26.0841 26.273 25.8218 24.6684 26.2934C21.7503 27.1509 20.0632 30.2241 20.9077 33.1439C21.1569 34.0054 21.6148 34.8002 22.2319 35.4421C22.5558 35.779 22.731 36.2239 22.7128 36.6625C22.661 37.9088 22.8332 39.1466 23.2246 40.3418C24.0628 42.9009 25.8845 45.0167 28.354 46.2993C29.8997 47.102 31.5662 47.5097 33.2286 47.5096C34.2222 47.5096 35.2144 47.364 36.1779 47.0702C36.7115 46.9074 37.2342 46.7017 37.7316 46.4583C39.0924 45.7926 40.1711 44.6563 40.7688 43.2583C41.102 42.4791 41.2742 41.6462 41.2828 40.8101C41.6521 40.878 42.0425 40.8583 42.422 40.736C43.6397 40.3436 44.3156 39.014 43.9291 37.7723L43.3298 35.8472C42.9316 34.5682 41.9223 33.5937 40.6301 33.2404C39.8051 33.0151 38.9509 33.0672 38.1824 33.3676C38.7488 30.2608 37.6352 28.7554 36.7227 27.5229C36.2649 26.9045 35.8696 26.3705 35.7729 25.7144C35.4958 23.8339 37.5409 22.7392 37.6256 22.6948C37.6458 22.6844 37.6655 22.6732 37.6848 22.6611C39.3066 21.6391 41.1748 21.099 43.0875 21.099C48.7948 21.099 53.438 25.8706 53.438 31.7355C53.438 38.1715 48.3846 43.5798 44.1456 46.9834C40.1761 50.1703 36.154 52.2468 34.9998 52.815C33.8901 52.2687 30.1329 50.3303 26.3222 47.3538C25.9821 47.0882 25.4913 47.1485 25.2256 47.4885C24.9599 47.8286 25.0203 48.3195 25.3603 48.5852C30.0278 52.231 34.4848 54.3051 34.6723 54.3916C34.7762 54.4396 34.8879 54.4635 34.9997 54.4635C35.1114 54.4635 35.2232 54.4395 35.327 54.3916C35.5268 54.2994 40.2741 52.0897 45.0979 48.2223C47.9491 45.9366 50.2253 43.5464 51.8635 41.1185C53.9447 38.0338 55 34.8769 55 31.7357C55.0001 25.0091 49.6559 19.5366 43.087 19.5366ZM30.5337 35.1712C30.8877 34.8601 31.2699 34.5237 31.4776 34.0243C31.7367 33.9999 31.9975 34.05 32.2333 34.1739C32.5074 34.3179 32.7188 34.5461 32.8422 34.825L32.5163 35.4644L30.2562 35.4197C30.3499 35.3327 30.4429 35.251 30.5337 35.1712ZM37.3997 36.2053L37.6599 35.6947C37.7637 35.5409 37.8866 35.3983 38.0276 35.2708C38.6237 34.7314 39.4424 34.5359 40.2177 34.7478C40.9931 34.9597 41.5987 35.5445 41.8377 36.3119L42.437 38.2368C42.57 38.6642 42.3481 39.1182 41.9424 39.249C41.5572 39.3734 41.1402 39.1808 40.9839 38.8109L40.5272 37.344C40.3989 36.932 39.9609 36.7019 39.549 36.8303C39.137 36.9586 38.907 37.3965 39.0353 37.8085L39.504 39.3139C40.2116 41.5973 39.1773 44.0118 37.0448 45.0548C36.6215 45.2618 36.1765 45.4371 35.7219 45.5757C31.2177 46.9492 26.1746 44.3295 24.7092 39.8555C24.3762 38.8387 24.2297 37.7863 24.2737 36.7275C24.3096 35.8653 23.9759 35.0022 23.3581 34.3595C22.9096 33.8928 22.59 33.3378 22.4085 32.7098C21.8024 30.6141 23.0137 28.4081 25.1088 27.7924C25.4985 27.6779 25.9079 27.622 26.3177 27.622C27.1484 27.622 27.9809 27.8519 28.6557 28.2894C29.19 28.6358 29.8563 29.2654 29.9961 30.298C30.0617 30.7818 30.0389 31.0648 30.0126 31.3925C29.9807 31.79 29.9446 32.2405 30.0551 33.0028C30.1187 33.4415 30.0325 33.5314 29.5021 33.9975C29.3562 34.1257 29.1909 34.271 29.0198 34.4397C29.0196 34.44 29.0142 34.4453 29.0139 34.4455L29.0044 34.4548C28.5771 34.8723 28.4426 35.4998 28.6618 36.0535C28.8793 36.603 29.4025 36.9657 29.9948 36.9774L32.6763 37.0305C33.1572 37.0409 33.6037 36.7714 33.8209 36.3452L34.9515 34.1271C35.0462 33.9413 35.2076 33.8034 35.4061 33.7389C35.6047 33.6746 35.8162 33.6911 36.0022 33.7861C36.1882 33.8807 36.3261 34.0422 36.3905 34.2407C36.455 34.4392 36.4383 34.6508 36.3435 34.8368L36.3037 34.9149C36.1734 35.1207 36.063 35.3376 35.9737 35.5623L35.213 37.0547C34.8712 37.7254 34.2577 38.24 33.5298 38.4667C33.2416 38.5564 32.9439 38.599 32.6454 38.5929L29.2666 38.5249C28.8332 38.5167 28.4785 38.859 28.4698 39.2903C28.4611 39.7217 28.8038 40.0784 29.2352 40.0871L32.614 40.1551C33.0808 40.1642 33.5453 40.0983 33.9944 39.9586C34.7815 39.7134 35.4829 39.2496 36.0156 38.6369L36.5662 40.4051C36.6944 40.8171 37.1321 41.0472 37.5444 40.9188C37.9563 40.7905 38.1863 40.3526 38.058 39.9406L37.3622 37.7057C37.207 37.2068 37.2269 36.6796 37.3997 36.2053Z" fill="black"/>
<path d="M24.1426 45.5316L24.1201 45.5115C23.7991 45.2232 23.3051 45.2498 23.0169 45.5708C22.7286 45.8918 22.7551 46.3858 23.0762 46.6741L23.0986 46.6941C23.2478 46.8281 23.4344 46.8941 23.6203 46.8941C23.8344 46.8941 24.0476 46.8066 24.2019 46.6348C24.4901 46.3137 24.4636 45.8199 24.1426 45.5316Z" fill="black"/>
<path d="M33.1483 21.3394C31.2769 20.16 29.1208 19.5366 26.913 19.5366C20.3442 19.5366 15 25.0091 15 31.7357C15 35.9836 16.9105 40.2148 20.6784 44.3118C20.8324 44.4793 21.0427 44.5641 21.2536 44.5641C21.4426 44.5641 21.6322 44.4959 21.7823 44.3579C22.0999 44.0659 22.1206 43.5716 21.8285 43.254C18.3342 39.4547 16.5625 35.5793 16.5625 31.7357C16.5625 25.8706 21.2058 21.0991 26.913 21.0991C28.8255 21.0991 30.6937 21.6394 32.3152 22.6613C32.6801 22.8914 33.1626 22.782 33.3927 22.4169C33.6227 22.0519 33.5133 21.5695 33.1483 21.3394Z" fill="black"/>
<path d="M43.087 23.2502C42.6555 23.2502 42.3057 23.6 42.3057 24.0315C42.3057 24.463 42.6554 24.8128 43.0869 24.8128H43.0912C43.5227 24.8128 43.8704 24.463 43.8704 24.0315C43.8704 23.6 43.5185 23.2502 43.087 23.2502Z" fill="black"/>
<path d="M49.8723 26.8561C48.906 25.4516 47.568 24.3913 46.0027 23.7898C45.5999 23.635 45.148 23.836 44.9931 24.2387C44.8384 24.6415 45.0394 25.0934 45.4421 25.2483C48.059 26.2539 49.8173 28.861 49.8173 31.7357C49.8173 32.1672 50.167 32.517 50.5985 32.517C51.03 32.517 51.3798 32.1672 51.3798 31.7357C51.3798 29.9769 50.8585 28.2895 49.8723 26.8561Z" fill="black"/>
</g>
<defs>
<clipPath id="clip0">
<rect width="40" height="40" fill="white" transform="translate(15 17)"/>
</clipPath>
</defs>
</svg>
