<svg width="51" height="51" viewBox="0 0 51 51" fill="none" xmlns="http://www.w3.org/2000/svg">
<circle cx="25.5" cy="25.5" r="25.5" fill="#EDF5FF" fill-opacity="0.5"/>
<ellipse cx="31" cy="29.5" rx="8" ry="7.5" fill="#72E8D9"/>
<g clip-path="url(#clip0)">
<path d="M37.4186 37.8447C37.2732 37.3428 37.1997 36.8227 37.2002 36.3001V26.8501C37.2002 23.2294 33.4174 21.4375 30.5719 20.4048C29.6887 20.081 29.1012 19.2407 29.1002 18.3C29.1262 17.5227 29.3786 16.7699 29.8266 16.1342C30.3362 15.3448 30.6762 14.4581 30.8253 13.5304C30.8806 13.1487 30.767 12.7619 30.5141 12.4707C30.2563 12.1719 29.8812 12.0001 29.4865 12H20.8659C20.5594 12.0003 20.262 12.1046 20.0226 12.2959L18.4995 13.5141C18.2753 13.6935 18.1501 13.9691 18.1626 14.256C18.175 14.5429 18.3236 14.8065 18.5625 14.9658L18.9437 15.2201L18.882 15.2818C18.7976 15.3662 18.7501 15.4806 18.7501 15.6C18.7501 15.7193 18.7976 15.8338 18.882 15.9181L19.0138 16.0499L18.882 16.1818C18.745 16.3187 18.7111 16.5279 18.7976 16.7012L19.1727 17.4512C19.0663 17.8712 19.1361 18.3165 19.366 18.6838C19.6488 19.044 20.0938 19.238 20.5501 19.1999C21.0843 19.1999 22.3178 19.2854 22.3495 20.0689C22.1809 20.3053 21.1087 20.6859 20.3212 20.9656C17.7245 21.8875 13.8001 23.2804 13.8001 26.8501V36.3001C13.8007 36.8226 13.7271 37.3427 13.5817 37.8447C13.5008 38.1169 13.5532 38.4113 13.723 38.6388C13.8929 38.8663 14.1602 39.0002 14.4441 39H16.6306C17.0164 39.0008 17.3595 38.755 17.4829 38.3894L17.4831 38.3892C17.6176 37.9882 17.8898 37.1219 18.1478 35.974L18.251 37.7294C18.2937 38.4426 18.8841 38.9994 19.5986 39H31.4015C32.116 38.9993 32.7065 38.4424 32.7491 37.7292L32.8607 35.8334C33.1171 37.0021 33.3867 37.9304 33.5203 38.367C33.6354 38.7448 33.9849 39.0022 34.3798 39H36.556C36.8399 39.0002 37.1073 38.8663 37.2771 38.6388C37.4471 38.4113 37.4994 38.1169 37.4186 37.8447ZM19.5988 38.1C19.3605 38.0998 19.1637 37.9142 19.1494 37.6764L18.7493 30.8737C18.735 30.6307 18.5302 30.4431 18.2869 30.4502C18.0436 30.4573 17.8501 30.6566 17.8501 30.9001C17.8085 33.3478 17.3975 35.7751 16.6309 38.1L14.4452 38.0987C14.6146 37.5142 14.7004 36.9086 14.7001 36.3001V26.8501C14.7001 23.9161 18.123 22.701 20.6222 21.8139C22.2046 21.2521 23.2501 20.8809 23.2501 20.1001C23.2501 18.9729 22.2406 18.3001 20.5501 18.3001C20.3859 18.3191 20.2213 18.2677 20.097 18.1588C20.0128 17.9632 20.0057 17.7431 20.077 17.5424C20.1148 17.4292 20.106 17.3056 20.0526 17.1988L19.7477 16.5888L19.9076 16.4288C20.691 16.151 21.5194 16.0226 22.3501 16.05C22.8368 16.05 24.1003 16.304 24.1003 17.4642L24.1009 17.5554C24.1131 17.6765 24.1007 17.7988 24.0645 17.9151C23.7869 18.4734 23.9009 19.1469 24.3466 19.5828C24.5109 19.7793 24.6064 20.0241 24.6186 20.28C24.4503 25.7657 25.4922 28.0732 26.182 29.6001C26.2533 29.7582 26.318 29.9055 26.3814 30.0525C26.3859 30.0973 26.3972 30.1413 26.4148 30.1828C26.6793 30.6824 26.8281 31.2351 26.8501 31.8C26.8961 32.1703 26.7687 32.541 26.505 32.8049C26.2411 33.0687 25.8703 33.1961 25.5001 33.15C25.0795 33.1293 24.663 33.0583 24.2593 32.9384C23.7845 32.7993 23.2944 32.7192 22.8001 32.7C21.7125 32.7 20.5501 33.291 20.5501 34.95C20.5501 36.1424 21.7678 36.6836 22.8423 37.1611C23.4275 37.3629 23.9652 37.6824 24.4221 38.1H19.5988V38.1ZM27.6262 30.8565C27.9661 30.8948 28.3083 30.9093 28.6502 30.9001C29.321 30.9001 30.0002 31.6728 30.0002 33.1501C30.027 33.7546 29.7986 34.3427 29.3707 34.7706C28.9428 35.1985 28.3547 35.4269 27.7502 35.4001C26.4166 35.4001 25.4485 34.664 24.6637 33.957C24.9387 34.0155 25.219 34.0467 25.5002 34.0501C27.1591 34.0501 27.7502 32.8877 27.7502 31.8001C27.7504 31.4815 27.7087 31.1643 27.6262 30.8565ZM34.3808 38.1031C34.0921 37.1605 33.1502 33.8545 33.1502 30.9001C33.1502 30.6566 32.9566 30.4573 32.7134 30.4503L32.7 30.4501C32.4618 30.4501 32.2649 30.6359 32.251 30.8737L31.8509 37.6762C31.8367 37.914 31.6399 38.0998 31.4015 38.1H25.4346C25.1706 37.2128 24.1366 36.7516 23.2079 36.3389C22.146 35.8669 21.4502 35.5154 21.4502 34.95C21.4041 34.5798 21.5315 34.209 21.7953 33.9451C22.0591 33.6813 22.4299 33.554 22.8002 33.6C22.9529 33.6 23.4068 34.0215 23.7072 34.3003C24.5652 35.0965 25.8618 36.3 27.7502 36.3C28.5939 36.3281 29.4116 36.0053 30.0085 35.4083C30.6054 34.8114 30.9283 33.9937 30.9002 33.15C30.9002 30.9857 29.7338 30 28.6501 30C27.801 30 27.5082 29.9848 27.223 29.7303C27.1534 29.5682 27.0811 29.4047 27.0022 29.2296C26.3075 27.6915 25.3562 25.5851 25.5181 20.3074C25.5123 19.7969 25.3167 19.3069 24.9693 18.9328C24.8069 18.7706 24.7667 18.5226 24.8695 18.3173C24.976 18.0751 25.0211 17.8103 25.0007 17.5465L25.0002 17.4641C25.0002 15.7663 23.4153 15.15 22.3501 15.15C21.548 15.1377 20.7484 15.2409 19.9757 15.4564C20.0673 15.361 20.1118 15.2297 20.0971 15.0982C20.0825 14.9667 20.0101 14.8485 19.8997 14.7756L19.0617 14.2168L20.585 12.9984C20.6648 12.9347 20.7638 12.9 20.8659 12.9H29.4864C29.6196 12.9001 29.7462 12.9582 29.8331 13.0591C29.9152 13.1524 29.9524 13.2769 29.9348 13.3998C29.8007 14.2144 29.4986 14.992 29.0476 15.6834C28.5179 16.4552 28.2235 17.3641 28.2001 18.3C28.2019 19.619 29.0261 20.7969 30.2646 21.2507C32.8557 22.1912 36.3001 23.7948 36.3001 26.8501V36.3001C36.2997 36.9091 36.3859 37.5152 36.5561 38.1L34.3808 38.1031Z" fill="black"/>
</g>
<defs>
<clipPath id="clip0">
<rect width="27" height="27" fill="white" transform="translate(12 12)"/>
</clipPath>
</defs>
</svg>
