<svg width="70" height="70" viewBox="0 0 70 70" fill="none" xmlns="http://www.w3.org/2000/svg">
<circle cx="35" cy="35" r="35" fill="#EDF5FF" fill-opacity="0.5"/>
<circle cx="40.9804" cy="26.9804" r="10.9804" fill="#A5D7B3"/>
<g clip-path="url(#clip0)">
<path d="M51.063 37.9372C50.0974 37.9372 49.2394 37.4688 48.7036 36.7474H44.9226C44.6669 38.1936 44.0976 39.5756 43.2534 40.7815L45.9258 43.4538C46.0691 43.4327 46.2137 43.4219 46.3583 43.4219C47.1105 43.4219 47.8627 43.7082 48.4354 44.2808C48.9902 44.8356 49.2957 45.5733 49.2957 46.3579C49.2957 47.1425 48.9902 47.8801 48.4354 48.435C47.8807 48.9898 47.143 49.2953 46.3583 49.2953C45.5737 49.2953 44.8361 48.9898 44.2813 48.435C43.5986 47.7522 43.323 46.8143 43.4544 45.9253L38.8126 41.2836L39.6014 40.4949L43.8833 44.7769C43.9957 44.6011 44.1279 44.4344 44.2813 44.2809C44.4348 44.1274 44.6014 43.9953 44.7772 43.8829L40.4953 39.601L41.284 38.8123L42.4519 39.9802C43.4417 38.5076 43.9612 36.8009 43.9612 34.9999C43.9612 33.1988 43.4417 31.4921 42.4519 30.0197L41.284 31.1876L40.4953 30.3988L44.7773 26.1168C44.6015 26.0045 44.4349 25.8723 44.2814 25.7189C44.1279 25.5654 43.9957 25.3987 43.8834 25.2229L39.6015 29.5049L38.8127 28.7162L39.9806 27.5483C38.508 26.5586 36.8012 26.039 35.0004 26.039C33.1995 26.039 31.4927 26.5585 30.0202 27.5483L31.1881 28.7162L30.3993 29.5049L26.1174 25.2229C26.0051 25.3987 25.8729 25.5654 25.7194 25.7189C24.5742 26.8642 22.7106 26.8641 21.5654 25.7189C21.0106 25.1641 20.7051 24.4264 20.7051 23.6418C20.7051 22.8572 21.0106 22.1196 21.5654 21.5647C22.1202 21.0099 22.8578 20.7044 23.6425 20.7044C24.4271 20.7044 25.1647 21.0099 25.7195 21.5647C26.4023 22.2475 26.6778 23.1854 26.5464 24.0744L29.2188 26.7467C30.4246 25.9025 31.8068 25.3333 33.2529 25.0775V21.2964C32.5315 20.7607 32.0631 19.9026 32.0631 18.9371C32.0631 17.3174 33.3808 15.9997 35.0004 15.9997C36.6201 15.9997 37.9378 17.3174 37.9378 18.9371C37.9378 19.9026 37.4694 20.7606 36.748 21.2964V25.0775C38.1942 25.3333 39.5764 25.9025 40.7821 26.7467L43.4544 24.0744C43.3232 23.1854 43.5986 22.2475 44.2814 21.5647C44.8361 21.0099 45.5738 20.7044 46.3584 20.7044C47.143 20.7044 47.8807 21.0099 48.4355 21.5647C48.9903 22.1195 49.2958 22.8571 49.2958 23.6418C49.2958 24.4264 48.9903 25.164 48.4355 25.7189C47.7527 26.4017 46.8148 26.6771 45.9258 26.5458L43.2535 29.2181C44.0977 30.4239 44.6669 31.8061 44.9227 33.2522H48.7037C49.2394 32.5308 50.0975 32.0624 51.0631 32.0624C52.6827 32.0624 54.0004 33.3801 54.0004 34.9998C54.0004 36.6194 52.6826 37.9372 51.063 37.9372ZM45.0701 47.6461C45.4142 47.9902 45.8717 48.1798 46.3583 48.1798C46.845 48.1798 47.3025 47.9903 47.6466 47.6461C47.9907 47.302 48.1803 46.8445 48.1803 46.3578C48.1803 45.8712 47.9908 45.4136 47.6466 45.0696C46.9362 44.3592 45.7804 44.3592 45.0701 45.0696C44.3597 45.7799 44.3597 46.9358 45.0701 47.6461ZM24.9307 22.3536C24.5865 22.0095 24.129 21.82 23.6424 21.82C23.1557 21.82 22.6982 22.0094 22.3541 22.3536C22.01 22.6977 21.8205 23.1552 21.8205 23.6419C21.8205 24.1285 22.0099 24.5861 22.3541 24.9301C22.7093 25.2854 23.1757 25.4629 23.6424 25.4629C24.1089 25.4629 24.5755 25.2852 24.9307 24.9301C25.6411 24.2198 25.6411 23.0639 24.9307 22.3536ZM34.3683 24.9437C34.5784 24.9304 34.7892 24.9235 35.0004 24.9235C35.2116 24.9235 35.4224 24.9303 35.6325 24.9437V21.8054C35.4287 21.8502 35.2174 21.8746 35.0004 21.8746C34.7834 21.8746 34.572 21.8502 34.3683 21.8054V24.9437ZM36.8223 18.9372C36.8223 17.9326 36.0049 17.1153 35.0004 17.1153C33.9958 17.1153 33.1784 17.9326 33.1784 18.9372C33.1784 19.9418 33.9958 20.7591 35.0004 20.7591C36.0049 20.7591 36.8223 19.9418 36.8223 18.9372ZM46.3583 25.4629C46.8248 25.4629 47.2915 25.2852 47.6466 24.9301C47.9907 24.5861 48.1803 24.1285 48.1803 23.6419C48.1803 23.1552 47.9908 22.6977 47.6466 22.3536C47.3025 22.0095 46.845 21.82 46.3583 21.82C45.8717 21.82 45.4142 22.0094 45.0701 22.3536C44.3597 23.0639 44.3597 24.2198 45.0701 24.9301C45.4253 25.2854 45.8917 25.4629 46.3583 25.4629ZM48.1948 34.3678H45.0565C45.0698 34.5778 45.0767 34.7887 45.0767 34.9999C45.0767 35.211 45.0698 35.4219 45.0565 35.6319H48.1948C48.1499 35.4282 48.1256 35.2168 48.1256 34.9999C48.1256 34.7829 48.15 34.5715 48.1948 34.3678ZM51.063 33.1779C50.0584 33.1779 49.2411 33.9953 49.2411 34.9999C49.2411 36.0044 50.0584 36.8218 51.063 36.8218C52.0676 36.8218 52.8849 36.0044 52.8849 34.9999C52.8849 33.9953 52.0676 33.1779 51.063 33.1779Z" fill="black"/>
<path d="M21.2967 33.2524H25.0778C25.3311 31.8195 25.8926 30.4497 26.7242 29.2517L25.0927 27.6661L25.8701 26.8661L29.4994 30.3934L28.722 31.1933L27.5354 30.0401C26.5544 31.5079 26.0391 33.2071 26.0391 35C26.0391 36.8009 26.5586 38.5077 27.5484 39.9802L28.7163 38.8123L29.505 39.601L25.2231 43.8829C25.3989 43.9953 25.5655 44.1275 25.719 44.2809C25.8725 44.4344 26.0046 44.6011 26.117 44.7769L30.3989 40.4949L31.1877 41.2836L30.0198 42.4515C31.4922 43.4413 33.1989 43.9608 35 43.9608C36.4369 43.9608 37.8092 43.6311 39.0786 42.981L39.5871 43.9739C38.6831 44.4369 37.7329 44.7549 36.7476 44.9264V48.7033C37.469 49.239 37.9374 50.0971 37.9374 51.0626C37.9374 52.6823 36.6196 54 35 54C33.3804 54 32.0626 52.6823 32.0626 51.0626C32.0626 50.0971 32.531 49.2391 33.2524 48.7033V44.9222C31.8063 44.6665 30.4242 44.0972 29.2183 43.253L26.546 45.9253C26.6773 46.8143 26.4018 47.7522 25.7191 48.435C25.1643 48.9898 24.4266 49.2953 23.642 49.2953C22.8574 49.2953 22.1198 48.9898 21.565 48.435C21.0101 47.8802 20.7046 47.1426 20.7046 46.3579C20.7046 45.5733 21.0101 44.8357 21.565 44.2808C22.1376 43.7082 22.8897 43.4219 23.6419 43.4219C23.7866 43.4219 23.9312 43.4327 24.0746 43.4538L26.7469 40.7815C25.9028 39.5758 25.3335 38.1936 25.0778 36.7474H21.2967C20.761 37.4688 19.9029 37.9372 18.9374 37.9372C17.3177 37.9374 16 36.6196 16 35C16 33.3804 17.3177 32.0626 18.9374 32.0626C19.9029 32.0626 20.7609 32.531 21.2967 33.2524ZM35.6321 45.0568C35.4227 45.0696 35.212 45.0763 35 45.0763C34.7888 45.0763 34.578 45.0696 34.3679 45.0562V48.1945C34.5717 48.1496 34.783 48.1252 35 48.1252C35.217 48.1252 35.4283 48.1496 35.6321 48.1945V45.0568ZM33.1781 51.0626C33.1781 52.0672 33.9954 52.8845 35 52.8845C36.0046 52.8845 36.8219 52.0672 36.8219 51.0626C36.8219 50.058 36.0046 49.2407 35 49.2407C33.9954 49.2407 33.1781 50.058 33.1781 51.0626ZM22.3537 45.0697C22.0097 45.4139 21.8201 45.8713 21.8201 46.358C21.8201 46.8446 22.0096 47.3022 22.3537 47.6463C22.6978 47.9903 23.1554 48.1799 23.642 48.1799C24.1287 48.1799 24.5862 47.9904 24.9303 47.6463C25.6406 46.9359 25.6406 45.78 24.9303 45.0697C24.22 44.3593 23.0641 44.3594 22.3537 45.0697ZM21.8055 35.6321H24.9438C24.9305 35.422 24.9237 35.2112 24.9237 35C24.9237 34.7888 24.9304 34.578 24.9438 34.3679H21.8055C21.8504 34.5717 21.8748 34.783 21.8748 35C21.8748 35.217 21.8504 35.4283 21.8055 35.6321ZM18.9374 33.1781C17.9328 33.1781 17.1155 33.9954 17.1155 35C17.1155 36.0046 17.9328 36.8219 18.9374 36.8219C19.942 36.8219 20.7593 36.0046 20.7593 35C20.7593 33.9954 19.942 33.1781 18.9374 33.1781Z" fill="black"/>
<path d="M32.62 29.6829C34.2396 29.6829 35.5574 31.0006 35.5574 32.6202C35.5574 34.2399 34.2396 35.5576 32.62 35.5576C31.0003 35.5576 29.6826 34.2399 29.6826 32.6202C29.6826 31.0006 31.0003 29.6829 32.62 29.6829ZM32.62 34.4422C33.6246 34.4422 34.4419 33.6248 34.4419 32.6202C34.4419 31.6157 33.6246 30.7983 32.62 30.7983C31.6154 30.7983 30.7981 31.6157 30.7981 32.6202C30.7981 33.6248 31.6154 34.4422 32.62 34.4422Z" fill="black"/>
<path d="M38.569 38.5323C37.2774 38.5323 36.2266 37.4815 36.2266 36.1899C36.2266 34.8983 37.2774 33.8474 38.569 33.8474C39.8607 33.8474 40.9115 34.8983 40.9115 36.1899C40.9115 37.4815 39.8607 38.5323 38.569 38.5323ZM38.569 34.9629C37.8925 34.9629 37.342 35.5133 37.342 36.1899C37.342 36.8664 37.8925 37.4169 38.569 37.4169C39.2456 37.4169 39.796 36.8664 39.796 36.1899C39.796 35.5133 39.2456 34.9629 38.569 34.9629Z" fill="black"/>
<path d="M33.8101 40.9119C32.8464 40.9119 32.0625 40.1279 32.0625 39.1643C32.0625 38.2007 32.8464 37.4168 33.8101 37.4168C34.7737 37.4168 35.5576 38.2007 35.5576 39.1643C35.5576 40.1279 34.7737 40.9119 33.8101 40.9119ZM33.8101 38.5322C33.4615 38.5322 33.178 38.8158 33.178 39.1643C33.178 39.5129 33.4615 39.7964 33.8101 39.7964C34.1586 39.7964 34.4421 39.5129 34.4421 39.1643C34.4421 38.8158 34.1586 38.5322 33.8101 38.5322Z" fill="black"/>
<path d="M29.0508 37.3425H30.2406V36.2271H29.0508V37.3425Z" fill="black"/>
<path d="M27.8613 36.1527H29.0512V35.0373H27.8613V36.1527Z" fill="black"/>
<path d="M41.5439 34.3679H42.7338V33.2525H41.5439V34.3679Z" fill="black"/>
<path d="M40.3545 33.1781H41.5443V32.0626H40.3545V33.1781Z" fill="black"/>
</g>
<defs>
<clipPath id="clip0">
<rect width="38" height="38" transform="matrix(1 0 0 -1 16 54)" fill="white"/>
</clipPath>
</defs>
</svg>
