<svg width="70" height="70" viewBox="0 0 70 70" fill="none" xmlns="http://www.w3.org/2000/svg">
<circle cx="35" cy="35" r="35" fill="#EDF5FF" fill-opacity="0.5"/>
<circle cx="40.5" cy="26.5" r="10.5" fill="#FFDBB0"/>
<g clip-path="url(#clip0)">
<path d="M50.7868 46.0022C50.6525 45.8679 50.4659 45.7905 50.2759 45.7905C50.0859 45.7905 49.8993 45.8679 49.7649 46.0022C49.6306 46.1369 49.5532 46.3232 49.5532 46.5132C49.5532 46.7034 49.6306 46.8898 49.7649 47.0241C49.8993 47.1585 50.0859 47.2358 50.2759 47.2358C50.4659 47.2358 50.6525 47.1585 50.7868 47.0241C50.9212 46.8898 50.9985 46.7034 50.9985 46.5132C50.9985 46.3232 50.9212 46.1369 50.7868 46.0022Z" fill="black"/>
<path d="M40.7989 36.0143L40.8011 34.3302C40.8054 31.4997 39.7053 28.8389 37.7039 26.8374L35.9641 25.0977C35.6818 24.8154 35.2243 24.8154 34.942 25.0977C34.66 25.3797 34.66 25.8373 34.942 26.1196L36.6817 27.8593C38.4096 29.5872 39.3595 31.8845 39.3558 34.3282L39.353 36.3121C39.3527 36.5041 39.4289 36.6884 39.5647 36.8242L47.7211 44.9806C47.8623 45.1218 48.0472 45.1923 48.2321 45.1923C48.417 45.1923 48.6022 45.1218 48.743 44.9806C49.0253 44.6983 49.0253 44.2408 48.743 43.9587L40.7989 36.0143Z" fill="black"/>
<path d="M32.8317 43.5573C32.6962 43.4218 32.5124 43.3456 32.3207 43.3456C32.3205 43.3456 32.3199 43.3456 32.3196 43.3456L29.25 43.3501C29.2455 43.3501 29.2413 43.3501 29.237 43.3501C27.4197 43.3501 25.6616 42.8152 24.1522 41.8029L19.6325 38.7723C19.333 38.571 19.1311 38.265 19.0651 37.9102C18.9987 37.5553 19.0761 37.1971 19.2833 36.9016C19.6844 36.3288 20.4672 36.1639 21.0654 36.5264L23.0188 37.7109C23.4665 37.9822 24.0257 37.8802 24.3487 37.4684C24.6719 37.0565 24.6374 36.4891 24.2674 36.1191L15.8224 27.6739C15.5794 27.4308 15.4453 27.1073 15.4453 26.7632C15.4453 26.4191 15.5794 26.0956 15.8227 25.8523C16.0658 25.6092 16.3893 25.4751 16.7334 25.4751C17.0323 25.4751 17.3158 25.5765 17.5444 25.7628L24.2205 32.4287C24.5025 32.711 24.9601 32.711 25.2424 32.4287C25.5247 32.1464 25.5247 31.6888 25.2424 31.4065L16.8717 23.046C16.3695 22.5438 16.3695 21.7269 16.8717 21.2247C17.3739 20.7222 18.1911 20.7225 18.6933 21.2247L27.0592 29.5903C27.3412 29.8726 27.7988 29.8726 28.0811 29.5903C28.3634 29.308 28.3634 28.8504 28.0811 28.5681L21.41 21.8974C21.224 21.6685 21.1224 21.3853 21.1224 21.0861C21.1224 20.742 21.2565 20.4188 21.4998 20.1755C22.002 19.6733 22.8189 19.6733 23.3211 20.1755L28.2002 25.0644C28.2231 25.0873 29.8976 26.7516 29.8976 26.7516C30.1799 27.0339 30.6375 27.0339 30.9198 26.7516C31.2018 26.4696 31.2018 26.012 30.9198 25.7297L25.7344 20.5444C25.5481 20.3158 25.4468 20.0323 25.4468 19.7331C25.4468 19.3893 25.5806 19.0658 25.8239 18.8224C26.0672 18.5791 26.3907 18.4453 26.7348 18.4453C27.0787 18.4453 27.4022 18.5791 27.6455 18.8224L30.8545 22.0315C31.1368 22.3138 31.5944 22.3138 31.8764 22.0315C32.1587 21.7495 32.1587 21.2919 31.8764 21.0096L28.6677 17.8006C28.1508 17.2843 27.4646 17 26.7346 17C26.0043 17 25.3178 17.2843 24.8017 17.8006C24.4757 18.1263 24.2425 18.5201 24.1146 18.9498C23.0425 18.0933 21.4702 18.1608 20.4777 19.1536C20.1505 19.4805 19.9241 19.8709 19.7979 20.2853L19.7152 20.2026C18.6496 19.1369 16.9155 19.1369 15.8498 20.2026C15.3335 20.7189 15.0493 21.4051 15.0493 22.1354C15.0493 22.8654 15.3335 23.5516 15.8498 24.0679L15.9308 24.1489C15.5085 24.2782 15.1215 24.5091 14.8006 24.8304C14.2843 25.3467 14 26.0332 14 26.7632C14 27.4932 14.2843 28.1797 14.8006 28.696L21.0857 34.9809C19.9876 34.6918 18.78 35.1006 18.0994 36.0725C17.6678 36.689 17.506 37.4356 17.6443 38.1755C17.7824 38.9154 18.2027 39.5534 18.8277 39.9726L23.3474 43.0032C25.0998 44.1786 27.1425 44.7952 29.252 44.7952L32.0218 44.7912L41.0189 53.7883C41.16 53.9294 41.3449 54 41.5298 54C41.7147 54 41.8996 53.9294 42.0408 53.7883C42.323 53.506 42.323 53.0487 42.0408 52.7664L32.8317 43.5573Z" fill="black"/>
<path d="M33.689 33.283C34.8842 33.283 35.8569 32.3102 35.8569 31.115C35.8569 29.9195 34.8842 28.947 33.689 28.947C32.4935 28.947 31.521 29.9195 31.521 31.115C31.521 32.3102 32.4935 33.283 33.689 33.283ZM33.689 30.3923C34.0873 30.3923 34.4116 30.7164 34.4116 31.115C34.4116 31.5133 34.0873 31.8376 33.689 31.8376C33.2904 31.8376 32.9663 31.5133 32.9663 31.115C32.9663 30.7164 33.2904 30.3923 33.689 30.3923Z" fill="black"/>
<path d="M29.5718 41.1831C30.7673 41.1831 31.7397 40.2103 31.7397 39.0151C31.7397 37.8196 30.7673 36.8472 29.5718 36.8472C28.3763 36.8472 27.4038 37.8196 27.4038 39.0151C27.4038 40.2103 28.3763 41.1831 29.5718 41.1831ZM29.5718 38.2925C29.9704 38.2925 30.2944 38.6165 30.2944 39.0151C30.2944 39.4134 29.9704 39.7378 29.5718 39.7378C29.1735 39.7378 28.8491 39.4134 28.8491 39.0151C28.8491 38.6165 29.1735 38.2925 29.5718 38.2925Z" fill="black"/>
<path d="M40.7949 40.9937C39.5994 40.9937 38.627 41.9664 38.627 43.1616C38.627 44.3571 39.5994 45.3296 40.7949 45.3296C41.9904 45.3296 42.9629 44.3571 42.9629 43.1616C42.9629 41.9664 41.9904 40.9937 40.7949 40.9937ZM40.7949 43.8843C40.3966 43.8843 40.0723 43.5602 40.0723 43.1616C40.0723 42.7633 40.3966 42.439 40.7949 42.439C41.1935 42.439 41.5176 42.7633 41.5176 43.1616C41.5176 43.5602 41.1935 43.8843 40.7949 43.8843Z" fill="black"/>
<path d="M46.7856 49.6619C45.5902 49.6619 44.6177 50.6346 44.6177 51.8298C44.6177 53.0253 45.5902 53.9978 46.7856 53.9978C47.9811 53.9978 48.9536 53.0253 48.9536 51.8298C48.9536 50.6346 47.9811 49.6619 46.7856 49.6619ZM46.7856 52.5525C46.3873 52.5525 46.063 52.2284 46.063 51.8298C46.063 51.4315 46.3873 51.1072 46.7856 51.1072C47.1842 51.1072 47.5083 51.4315 47.5083 51.8298C47.5083 52.2284 47.1842 52.5525 46.7856 52.5525Z" fill="black"/>
<path d="M28.9397 33.6335C29.074 33.4983 29.1514 33.3125 29.1514 33.1226C29.1514 32.9317 29.074 32.746 28.9397 32.6108C28.8053 32.4764 28.6187 32.3999 28.4287 32.3999C28.2379 32.3999 28.0521 32.4764 27.9178 32.6108C27.7826 32.7451 27.7061 32.9317 27.7061 33.1226C27.7061 33.3125 27.7826 33.4988 27.9178 33.6335C28.0521 33.7679 28.2379 33.8444 28.4287 33.8444C28.6187 33.8444 28.8053 33.7679 28.9397 33.6335Z" fill="black"/>
<path d="M36.8889 37.3844C37.0232 37.2501 37.1006 37.0638 37.1006 36.8738C37.1006 36.683 37.0232 36.4972 36.8889 36.3628C36.7545 36.2282 36.5679 36.1511 36.3779 36.1511C36.1871 36.1511 36.0014 36.2282 35.867 36.3628C35.7318 36.4972 35.6553 36.683 35.6553 36.8738C35.6553 37.0638 35.7318 37.2501 35.867 37.3844C36.0014 37.5191 36.1871 37.5964 36.3779 37.5964C36.5679 37.5964 36.7545 37.5191 36.8889 37.3844Z" fill="black"/>
<path d="M34.879 41.657C34.7443 41.7914 34.667 41.978 34.667 42.168C34.667 42.3588 34.7443 42.5445 34.879 42.6789C35.0134 42.8133 35.1997 42.8906 35.3896 42.8906C35.5799 42.8906 35.7662 42.8133 35.9006 42.6789C36.0352 42.5445 36.1123 42.3579 36.1123 42.168C36.1123 41.978 36.0352 41.7914 35.9006 41.657C35.7662 41.5227 35.5799 41.4453 35.3896 41.4453C35.1997 41.4453 35.0134 41.5227 34.879 41.657Z" fill="black"/>
<path d="M42.0117 47.6406C41.8215 47.6406 41.6351 47.718 41.5008 47.8523C41.3664 47.9867 41.2891 48.1733 41.2891 48.3633C41.2891 48.5533 41.3664 48.7399 41.5008 48.8742C41.6351 49.0086 41.8215 49.0859 42.0117 49.0859C42.2017 49.0859 42.388 49.0086 42.5227 48.8742C42.657 48.7399 42.7344 48.5533 42.7344 48.3633C42.7344 48.1733 42.657 47.9867 42.5227 47.8523C42.388 47.718 42.2017 47.6406 42.0117 47.6406Z" fill="black"/>
<path d="M33.4092 24.2874C33.6 24.2874 33.7858 24.21 33.9201 24.0756C34.0548 23.9413 34.1318 23.7547 34.1318 23.5647C34.1318 23.3747 34.0548 23.1881 33.9201 23.0538C33.7858 22.9194 33.5994 22.842 33.4092 22.842C33.2192 22.842 33.0329 22.9194 32.8985 23.0538C32.7639 23.1881 32.6865 23.3747 32.6865 23.5647C32.6865 23.7547 32.7639 23.9413 32.8985 24.0756C33.0329 24.21 33.2192 24.2874 33.4092 24.2874Z" fill="black"/>
</g>
<defs>
<clipPath id="clip0">
<rect width="37" height="37" fill="white" transform="translate(14 17)"/>
</clipPath>
</defs>
</svg>
