<svg width="51" height="51" viewBox="0 0 51 51" fill="none" xmlns="http://www.w3.org/2000/svg">
<circle cx="25.5" cy="25.5" r="25.5" fill="#EDF5FF" fill-opacity="0.5"/>
<circle cx="24.5787" cy="27.607" r="7.65" fill="#9AB0FE"/>
<g clip-path="url(#clip0)">
<path d="M38.9912 33.9332L39 33.7716L38.9972 33.7688C38.9991 33.6782 38.9972 33.5853 38.9949 33.491L38.9996 33.4863L38.9907 33.3432C38.981 33.1542 38.9605 32.9595 38.9308 32.7602C38.9257 32.7249 38.9192 32.6905 38.9136 32.6552C38.8913 32.5223 38.8639 32.3881 38.8314 32.252C38.8207 32.2064 38.81 32.1609 38.7984 32.1154C38.7649 31.9885 38.725 31.8599 38.6813 31.7307C38.6669 31.6884 38.6548 31.6457 38.64 31.6034C38.5805 31.439 38.5141 31.2731 38.4365 31.1059C37.5631 29.222 37.5506 26.6813 37.5506 26.6557V25.7377V24.4239V22.2465V17.6007H36.6214V12.0259H27.7945V17.6007H26.8654V21.6365V22.2465V22.9503V26.0536C26.8654 26.7751 26.4101 27.425 25.7323 27.6717L24.1755 28.2376L17.2841 30.744L16.6453 30.9762V32.0029L13.9707 32.0034C13.8499 31.9974 12.7954 31.9858 12.2695 32.6873C12.0613 32.9655 11.8667 33.4589 12.1203 34.2338C12.4762 35.3191 14.17 36.9121 16.6444 37.8305V38.6036L16.9603 38.71C17.5117 38.8963 18.0868 38.9715 18.6824 38.9715C19.8741 38.9715 21.1461 38.6705 22.4668 38.3574L22.8887 38.2575C23.1344 38.1999 23.3751 38.1469 23.6125 38.0972L23.6626 38.087C23.7179 38.0754 23.7714 38.0661 23.8262 38.0554C25.1298 37.7948 26.3084 37.6545 27.3908 37.5908C27.3945 37.5908 27.3987 37.5903 27.4029 37.5899C27.7606 37.569 28.1077 37.5564 28.4459 37.5504C28.4575 37.5504 28.4691 37.5499 28.4807 37.5495C28.8143 37.5439 29.139 37.5448 29.4559 37.5499C29.4689 37.5499 29.4814 37.5504 29.4944 37.5504C29.8113 37.5564 30.1211 37.5667 30.4231 37.5801C30.4305 37.5806 30.438 37.5806 30.4454 37.5811C31.0628 37.6089 31.6528 37.6498 32.2233 37.6888L33.7313 37.7924L33.7206 37.7818C33.9111 37.791 34.0988 37.7989 34.2855 37.8041C34.3924 37.8068 34.4965 37.8087 34.5977 37.8087C34.6507 37.8087 34.6976 37.8054 34.7487 37.805C34.8105 37.8041 34.8714 37.8022 34.9313 37.8003C35.0512 37.7962 35.1664 37.7901 35.2779 37.7818C35.3192 37.7785 35.3601 37.7752 35.4001 37.7715C35.5218 37.7604 35.6384 37.7474 35.7503 37.7316C35.7773 37.7279 35.8042 37.7241 35.8302 37.72C35.9487 37.7018 36.0616 37.6814 36.1694 37.6591C36.187 37.6554 36.2047 37.6517 36.2219 37.648C36.3334 37.6233 36.4393 37.5964 36.5396 37.5676C36.5513 37.5643 36.5629 37.5611 36.5745 37.5578C36.6767 37.5276 36.7733 37.4951 36.8644 37.4612C36.8727 37.4579 36.8811 37.4552 36.889 37.4524C36.981 37.4171 37.0674 37.3808 37.1482 37.3427C37.1538 37.3399 37.1599 37.3376 37.1654 37.3348C37.2467 37.2963 37.3225 37.2563 37.3935 37.2159C37.3982 37.2131 37.4033 37.2108 37.4079 37.208C37.4781 37.1671 37.5436 37.1258 37.6044 37.0835C37.6086 37.0807 37.6128 37.0779 37.617 37.0751C37.6765 37.0333 37.7313 36.992 37.7824 36.9497C37.787 36.946 37.7917 36.9423 37.7959 36.939C37.8451 36.8981 37.8902 36.8577 37.932 36.8173C37.9366 36.8127 37.9422 36.808 37.9468 36.8038C37.9868 36.7648 38.023 36.7262 38.0569 36.6886C38.0621 36.683 38.0676 36.6775 38.0723 36.6724C38.1043 36.6361 38.1331 36.6008 38.1601 36.5664C38.1647 36.5604 38.1708 36.5539 38.1754 36.5478C38.2005 36.5149 38.2228 36.4837 38.2437 36.4535C38.2483 36.447 38.2539 36.4401 38.2581 36.4336C38.2781 36.4043 38.2953 36.3778 38.3115 36.3518C38.3152 36.3458 38.3204 36.3388 38.3241 36.3328C38.3431 36.3021 38.3598 36.2738 38.3747 36.2491L38.4003 36.2069C38.4202 36.1771 38.4439 36.1362 38.469 36.0893C38.4709 36.0856 38.4727 36.0814 38.4746 36.0782C38.6576 35.7302 38.9433 34.9469 38.9912 33.9332ZM37.8158 32.0698C37.8265 32.1028 37.8372 32.1353 37.847 32.1683C37.9064 32.3644 37.9571 32.5627 37.9924 32.7639L37.5445 32.3161L34.2581 29.0297L36.621 26.6669C36.621 26.6715 36.6209 26.6841 36.6214 26.691C36.6214 26.6985 36.6214 26.7022 36.6214 26.7119C36.6214 26.73 36.6223 26.7528 36.6228 26.7802C36.6233 26.7951 36.6233 26.8076 36.6237 26.8248C36.6247 26.8527 36.6256 26.8848 36.627 26.9187C36.6279 26.941 36.6284 26.9614 36.6293 26.9865C36.6307 27.0223 36.6326 27.0613 36.6349 27.1022C36.6363 27.1319 36.6377 27.1598 36.6395 27.1918C36.6419 27.2346 36.6451 27.2806 36.6479 27.327C36.6502 27.3642 36.6525 27.3995 36.6553 27.439C36.659 27.4878 36.6632 27.5403 36.6674 27.5928C36.6707 27.6341 36.6739 27.6741 36.6781 27.7177C36.6832 27.7735 36.6892 27.832 36.6953 27.891C36.6999 27.9375 36.7046 27.9825 36.7097 28.0309C36.7162 28.0908 36.7241 28.1535 36.732 28.2162C36.738 28.2669 36.7441 28.3166 36.751 28.3686C36.7599 28.4336 36.7696 28.501 36.7798 28.5679C36.7877 28.6213 36.7947 28.6738 36.8035 28.7291C36.8142 28.7979 36.8268 28.868 36.8393 28.9386C36.8491 28.9948 36.8579 29.0501 36.8686 29.1077C36.882 29.1802 36.8974 29.2541 36.9122 29.3279C36.9239 29.3846 36.9345 29.4408 36.9466 29.498C36.9633 29.5746 36.9824 29.6522 37.0005 29.7298C37.014 29.786 37.0261 29.8418 37.0405 29.898C37.0604 29.9774 37.0832 30.0573 37.1055 30.1372C37.1208 30.192 37.1348 30.2473 37.1506 30.3021C37.1756 30.3872 37.2035 30.4717 37.2309 30.5563C37.2472 30.606 37.2616 30.6561 37.2788 30.7059C37.3104 30.7978 37.3452 30.8889 37.3796 30.98C37.3954 31.0218 37.4098 31.064 37.4261 31.1059C37.4785 31.2378 37.5343 31.3683 37.5938 31.4966C37.6802 31.6842 37.7522 31.8756 37.8158 32.0698ZM33.6017 28.3728L28.4045 23.1761H36.6214V25.3535L33.6017 28.3728ZM28.7237 15.506C28.9801 15.506 29.1883 15.2979 29.1883 15.0414C29.1883 14.785 28.9801 14.5768 28.7237 14.5768V12.9555H35.6923V17.6012H28.7237V15.506ZM36.6214 18.5304V22.2469H27.7945V18.5304H36.6214ZM27.7945 26.0536V23.8794L38.0453 34.1311C38.0054 34.5497 37.9199 34.9042 37.8358 35.1713C37.7508 35.4371 37.6695 35.6089 37.6411 35.6656C37.637 35.6731 37.6314 35.6842 37.6286 35.6889C37.6142 35.7107 37.597 35.7381 37.577 35.772C37.2853 36.2607 36.7459 36.592 35.9678 36.7578C35.952 36.7611 35.9329 36.7629 35.9167 36.7662C35.7759 36.7945 35.63 36.8196 35.4744 36.8373C35.125 36.8772 34.7371 36.8902 34.3116 36.8763C33.991 36.867 33.6677 36.8512 33.3387 36.8317C33.3197 36.8308 33.3011 36.8294 33.2816 36.8285C33.1339 36.8196 32.9801 36.8089 32.8296 36.7987L24.9686 28.9382L26.0496 28.5447C27.093 28.1651 27.7945 27.164 27.7945 26.0536ZM30.5485 36.6566C30.5388 36.6561 30.5286 36.6556 30.5188 36.6552C29.1776 36.592 27.7086 36.5873 26.0134 36.7746C26.0073 36.775 26.0008 36.776 25.9943 36.7769C25.3309 36.8507 24.6317 36.9548 23.8926 37.096C23.8759 37.0993 23.8601 37.1012 23.8434 37.1044L18.1547 31.4157L21.6278 30.1526L23.9363 29.3131L31.322 36.6988C31.0693 36.683 30.8105 36.6691 30.5485 36.6566ZM13.0035 33.9439C12.8999 33.6276 12.9027 33.3925 13.0123 33.2457C13.2051 32.9864 13.7217 32.9312 13.9317 32.9312C13.9405 32.9312 13.9484 32.9316 13.9563 32.9316H16.6453V36.8359C14.5273 35.9722 13.2321 34.6417 13.0035 33.9439ZM22.2522 37.4533C20.5416 37.8584 18.9184 38.2431 17.5735 37.9207V32.1484L22.7595 37.3344C22.7312 37.3409 22.7042 37.3465 22.6759 37.353L22.2522 37.4533Z" fill="black"/>
<path d="M29.653 14.1132C29.9096 14.1132 30.1176 13.9052 30.1176 13.6487C30.1176 13.3921 29.9096 13.1841 29.653 13.1841C29.3965 13.1841 29.1885 13.3921 29.1885 13.6487C29.1885 13.9052 29.3965 14.1132 29.653 14.1132Z" fill="black"/>
<path d="M31.0466 15.0424C31.3032 15.0424 31.5112 14.8344 31.5112 14.5779C31.5112 14.3213 31.3032 14.1133 31.0466 14.1133C30.79 14.1133 30.582 14.3213 30.582 14.5779C30.582 14.8344 30.79 15.0424 31.0466 15.0424Z" fill="black"/>
<path d="M30.1174 16.436C30.374 16.436 30.582 16.228 30.582 15.9714C30.582 15.7148 30.374 15.5068 30.1174 15.5068C29.8608 15.5068 29.6528 15.7148 29.6528 15.9714C29.6528 16.228 29.8608 16.436 30.1174 16.436Z" fill="black"/>
</g>
<defs>
<clipPath id="clip0">
<rect width="27" height="27" fill="white" transform="translate(12 12)"/>
</clipPath>
</defs>
</svg>
