<svg width="70" height="70" viewBox="0 0 70 70" fill="none" xmlns="http://www.w3.org/2000/svg">
<circle cx="35" cy="35" r="35" fill="#EDF5FF" fill-opacity="0.5"/>
<circle cx="23.5" cy="43.5" r="10.5" fill="#FFDBB0"/>
<mask id="path-3-inside-1" fill="white">
<path fill-rule="evenodd" clip-rule="evenodd" d="M37.2583 15H18.6826C18.2511 15 17.9014 15.3498 17.9014 15.7812V33.0344C17.9014 33.4659 18.2511 33.8156 18.6826 33.8156H25.2771V38.9453C25.2771 39.3767 25.6269 39.7266 26.0584 39.7266H27.1889V44.688C27.1889 45.9298 26.1786 46.9403 24.9366 46.9403C23.6946 46.9403 22.6843 45.9298 22.6843 44.688V43.8785C23.8236 43.5571 24.6614 42.509 24.6614 41.2681V39.7697C24.6614 38.274 23.4446 37.0572 21.9489 37.0572C20.4533 37.0572 19.2365 38.274 19.2365 39.7697V41.2681C19.2365 42.4754 20.0295 43.5005 21.1218 43.8512V44.6879C21.1218 46.7914 22.8331 48.5027 24.9366 48.5027C25.7786 48.5027 26.5572 48.228 27.1889 47.7643V49.7003C27.1889 52.6225 29.5664 54.9999 32.4885 54.9999C35.4107 54.9999 37.7881 52.6225 37.7881 49.7003V45C37.7881 44.5686 37.4383 44.2188 37.0068 44.2188C36.5754 44.2188 36.2256 44.5686 36.2256 45V49.7004C36.2256 51.761 34.5492 53.4375 32.4885 53.4375C30.4279 53.4375 28.7514 51.761 28.7514 49.7004V44.688V39.7266H30.035C30.4664 39.7266 30.8162 39.3767 30.8162 38.9453V33.8156H37.2583C37.6898 33.8156 38.0396 33.4659 38.0396 33.0344V15.7812C38.0396 15.3498 37.6898 15 37.2583 15ZM21.9489 42.4182C21.3148 42.4182 20.7989 41.9023 20.7989 41.2682V39.7698C20.7989 39.1357 21.3148 38.6198 21.9489 38.6198C22.5829 38.6198 23.0988 39.1356 23.0988 39.7698V41.2682C23.0988 41.9023 22.5829 42.4182 21.9489 42.4182ZM19.4639 21.6039H20.5717V26.0836H19.4639V21.6039ZM29.2537 38.1641H26.8396V33.8156H29.2537V38.1641ZM36.4771 26.0836H35.2341V21.6039H36.4771V26.0836ZM36.4771 20.0414H34.4529C34.0214 20.0414 33.6716 20.3913 33.6716 20.8227V26.8648C33.6716 27.2962 34.0214 27.6461 34.4529 27.6461H36.4771V32.2531H30.035H26.0584H19.4639V27.6461H21.3529C21.7844 27.6461 22.1342 27.2962 22.1342 26.8648V20.8227C22.1342 20.3913 21.7844 20.0414 21.3529 20.0414H19.4639V16.5625H36.4771V20.0414ZM37.7726 41.8288C37.7624 41.7796 37.7476 41.7303 37.7281 41.6827C37.7085 41.6358 37.6842 41.5905 37.6562 41.5483C37.6281 41.5053 37.5953 41.4655 37.5593 41.4295C37.5234 41.3936 37.4835 41.3608 37.4406 41.3326C37.3984 41.3046 37.3531 41.2803 37.3054 41.2608C37.2585 41.2412 37.2093 41.2256 37.1593 41.2162C37.0585 41.1959 36.9546 41.1959 36.8538 41.2162C36.8046 41.2256 36.7554 41.2412 36.7078 41.2608C36.6609 41.2803 36.6156 41.3046 36.5734 41.3326C36.5304 41.3608 36.4906 41.3936 36.4546 41.4295C36.4187 41.4655 36.3859 41.5053 36.357 41.5483C36.3288 41.5905 36.3046 41.6358 36.2859 41.6827C36.2663 41.7303 36.2507 41.7796 36.2413 41.8288C36.2312 41.8795 36.2257 41.9312 36.2257 41.9819C36.2257 42.0326 36.2312 42.0843 36.2413 42.1342C36.2507 42.1843 36.2663 42.2335 36.2859 42.2803C36.3054 42.328 36.3295 42.3733 36.3578 42.4155C36.3859 42.4584 36.4187 42.4983 36.4546 42.5342C36.4906 42.5701 36.5304 42.603 36.5734 42.6311C36.6156 42.6592 36.6609 42.6834 36.7078 42.703C36.7554 42.7225 36.8046 42.7373 36.8538 42.7475C36.9046 42.7576 36.9563 42.7631 37.007 42.7631C37.0578 42.7631 37.1094 42.7576 37.1593 42.7475C37.2094 42.7373 37.2586 42.7225 37.3054 42.703C37.3531 42.6834 37.3984 42.6592 37.4406 42.6311C37.4835 42.603 37.5234 42.5701 37.5593 42.5342C37.5953 42.4983 37.6281 42.4584 37.6562 42.4155C37.6842 42.3733 37.7085 42.328 37.7281 42.2803C37.7476 42.2334 37.7624 42.1842 37.7726 42.1342C37.7828 42.0842 37.7881 42.0326 37.7881 41.9819C37.7881 41.9312 37.7828 41.8796 37.7726 41.8288ZM46.3117 38.3949V41.9119C49.5662 42.2996 52.0986 45.0748 52.0986 48.432C52.0986 52.0537 49.1521 55.0001 45.5305 55.0001C41.9088 55.0001 38.9623 52.0537 38.9623 48.432C38.9623 45.0748 41.4946 42.2996 44.7492 41.9119V38.3949C44.7492 36.4758 43.1878 34.9144 41.2688 34.9144C39.3496 34.9144 37.7883 36.4759 37.7883 38.3949V39.0426C37.7883 39.474 37.4384 39.8238 37.007 39.8238C36.5756 39.8238 36.2258 39.474 36.2258 39.0426V38.3949C36.2258 35.6142 38.4881 33.3519 41.2688 33.3519C44.0495 33.3519 46.3117 35.6142 46.3117 38.3949ZM40.5248 48.432C40.5248 51.1921 42.7703 53.4376 45.5305 53.4376C48.2905 53.4376 50.5361 51.1921 50.5361 48.432C50.5361 45.6719 48.2905 43.4263 45.5305 43.4263C42.7703 43.4263 40.5248 45.6719 40.5248 48.432ZM45.5304 44.4783C43.3505 44.4783 41.577 46.2518 41.577 48.4318C41.577 50.6116 43.3504 52.3851 45.5304 52.3851C47.7103 52.3851 49.4837 50.6117 49.4837 48.4318C49.4838 46.2518 47.7103 44.4783 45.5304 44.4783ZM45.5304 50.8226C44.2121 50.8226 43.1395 49.75 43.1395 48.4317C43.1395 47.1133 44.2121 46.0408 45.5304 46.0408C45.905 46.0408 46.2595 46.1276 46.5754 46.2817L44.978 47.8792C44.6729 48.1843 44.6729 48.679 44.978 48.9841C45.1306 49.1366 45.3305 49.2129 45.5304 49.2129C45.7304 49.2129 45.9303 49.1366 46.0829 48.9841L47.6803 47.3866C47.8345 47.7025 47.9212 48.0571 47.9212 48.4317C47.9213 49.75 46.8487 50.8226 45.5304 50.8226ZM30.0672 20.0415C31.6718 20.0415 32.9955 21.4368 33.0808 23.2179C33.1311 24.2692 32.7657 25.0214 32.4865 25.4958C31.8118 26.6418 28.9638 28.5271 28.3997 28.8935C28.2704 28.9775 28.1223 29.0195 27.9743 29.0195C27.8261 29.0195 27.678 28.9775 27.5485 28.8934C26.9825 28.5256 24.1251 26.6334 23.4544 25.4964C23.175 25.0228 22.8094 24.2712 22.8597 23.218C22.9451 21.4368 24.2687 20.0415 25.8733 20.0415C26.7674 20.0415 27.502 20.4318 27.9751 20.7748C28.4522 20.4328 29.1899 20.0415 30.0672 20.0415ZM27.9743 27.3009C29.2203 26.4589 30.8185 25.2492 31.14 24.7031C31.4302 24.2101 31.5439 23.7883 31.5201 23.2925C31.4755 22.3614 30.8238 21.6039 30.0673 21.6039C29.2539 21.6039 28.5431 22.3321 28.536 22.3394C28.3857 22.4989 28.177 22.5897 27.9575 22.5832C27.7383 22.58 27.532 22.4834 27.3864 22.3196L27.3862 22.3193C27.3725 22.3048 26.7159 21.6039 25.8733 21.6039C25.1168 21.6039 24.4651 22.3614 24.4204 23.2926C24.3967 23.7893 24.5103 24.211 24.8002 24.7025C25.1199 25.2443 26.7236 26.4561 27.9743 27.3009Z"/>
</mask>
<path fill-rule="evenodd" clip-rule="evenodd" d="M37.2583 15H18.6826C18.2511 15 17.9014 15.3498 17.9014 15.7812V33.0344C17.9014 33.4659 18.2511 33.8156 18.6826 33.8156H25.2771V38.9453C25.2771 39.3767 25.6269 39.7266 26.0584 39.7266H27.1889V44.688C27.1889 45.9298 26.1786 46.9403 24.9366 46.9403C23.6946 46.9403 22.6843 45.9298 22.6843 44.688V43.8785C23.8236 43.5571 24.6614 42.509 24.6614 41.2681V39.7697C24.6614 38.274 23.4446 37.0572 21.9489 37.0572C20.4533 37.0572 19.2365 38.274 19.2365 39.7697V41.2681C19.2365 42.4754 20.0295 43.5005 21.1218 43.8512V44.6879C21.1218 46.7914 22.8331 48.5027 24.9366 48.5027C25.7786 48.5027 26.5572 48.228 27.1889 47.7643V49.7003C27.1889 52.6225 29.5664 54.9999 32.4885 54.9999C35.4107 54.9999 37.7881 52.6225 37.7881 49.7003V45C37.7881 44.5686 37.4383 44.2188 37.0068 44.2188C36.5754 44.2188 36.2256 44.5686 36.2256 45V49.7004C36.2256 51.761 34.5492 53.4375 32.4885 53.4375C30.4279 53.4375 28.7514 51.761 28.7514 49.7004V44.688V39.7266H30.035C30.4664 39.7266 30.8162 39.3767 30.8162 38.9453V33.8156H37.2583C37.6898 33.8156 38.0396 33.4659 38.0396 33.0344V15.7812C38.0396 15.3498 37.6898 15 37.2583 15ZM21.9489 42.4182C21.3148 42.4182 20.7989 41.9023 20.7989 41.2682V39.7698C20.7989 39.1357 21.3148 38.6198 21.9489 38.6198C22.5829 38.6198 23.0988 39.1356 23.0988 39.7698V41.2682C23.0988 41.9023 22.5829 42.4182 21.9489 42.4182ZM19.4639 21.6039H20.5717V26.0836H19.4639V21.6039ZM29.2537 38.1641H26.8396V33.8156H29.2537V38.1641ZM36.4771 26.0836H35.2341V21.6039H36.4771V26.0836ZM36.4771 20.0414H34.4529C34.0214 20.0414 33.6716 20.3913 33.6716 20.8227V26.8648C33.6716 27.2962 34.0214 27.6461 34.4529 27.6461H36.4771V32.2531H30.035H26.0584H19.4639V27.6461H21.3529C21.7844 27.6461 22.1342 27.2962 22.1342 26.8648V20.8227C22.1342 20.3913 21.7844 20.0414 21.3529 20.0414H19.4639V16.5625H36.4771V20.0414ZM37.7726 41.8288C37.7624 41.7796 37.7476 41.7303 37.7281 41.6827C37.7085 41.6358 37.6842 41.5905 37.6562 41.5483C37.6281 41.5053 37.5953 41.4655 37.5593 41.4295C37.5234 41.3936 37.4835 41.3608 37.4406 41.3326C37.3984 41.3046 37.3531 41.2803 37.3054 41.2608C37.2585 41.2412 37.2093 41.2256 37.1593 41.2162C37.0585 41.1959 36.9546 41.1959 36.8538 41.2162C36.8046 41.2256 36.7554 41.2412 36.7078 41.2608C36.6609 41.2803 36.6156 41.3046 36.5734 41.3326C36.5304 41.3608 36.4906 41.3936 36.4546 41.4295C36.4187 41.4655 36.3859 41.5053 36.357 41.5483C36.3288 41.5905 36.3046 41.6358 36.2859 41.6827C36.2663 41.7303 36.2507 41.7796 36.2413 41.8288C36.2312 41.8795 36.2257 41.9312 36.2257 41.9819C36.2257 42.0326 36.2312 42.0843 36.2413 42.1342C36.2507 42.1843 36.2663 42.2335 36.2859 42.2803C36.3054 42.328 36.3295 42.3733 36.3578 42.4155C36.3859 42.4584 36.4187 42.4983 36.4546 42.5342C36.4906 42.5701 36.5304 42.603 36.5734 42.6311C36.6156 42.6592 36.6609 42.6834 36.7078 42.703C36.7554 42.7225 36.8046 42.7373 36.8538 42.7475C36.9046 42.7576 36.9563 42.7631 37.007 42.7631C37.0578 42.7631 37.1094 42.7576 37.1593 42.7475C37.2094 42.7373 37.2586 42.7225 37.3054 42.703C37.3531 42.6834 37.3984 42.6592 37.4406 42.6311C37.4835 42.603 37.5234 42.5701 37.5593 42.5342C37.5953 42.4983 37.6281 42.4584 37.6562 42.4155C37.6842 42.3733 37.7085 42.328 37.7281 42.2803C37.7476 42.2334 37.7624 42.1842 37.7726 42.1342C37.7828 42.0842 37.7881 42.0326 37.7881 41.9819C37.7881 41.9312 37.7828 41.8796 37.7726 41.8288ZM46.3117 38.3949V41.9119C49.5662 42.2996 52.0986 45.0748 52.0986 48.432C52.0986 52.0537 49.1521 55.0001 45.5305 55.0001C41.9088 55.0001 38.9623 52.0537 38.9623 48.432C38.9623 45.0748 41.4946 42.2996 44.7492 41.9119V38.3949C44.7492 36.4758 43.1878 34.9144 41.2688 34.9144C39.3496 34.9144 37.7883 36.4759 37.7883 38.3949V39.0426C37.7883 39.474 37.4384 39.8238 37.007 39.8238C36.5756 39.8238 36.2258 39.474 36.2258 39.0426V38.3949C36.2258 35.6142 38.4881 33.3519 41.2688 33.3519C44.0495 33.3519 46.3117 35.6142 46.3117 38.3949ZM40.5248 48.432C40.5248 51.1921 42.7703 53.4376 45.5305 53.4376C48.2905 53.4376 50.5361 51.1921 50.5361 48.432C50.5361 45.6719 48.2905 43.4263 45.5305 43.4263C42.7703 43.4263 40.5248 45.6719 40.5248 48.432ZM45.5304 44.4783C43.3505 44.4783 41.577 46.2518 41.577 48.4318C41.577 50.6116 43.3504 52.3851 45.5304 52.3851C47.7103 52.3851 49.4837 50.6117 49.4837 48.4318C49.4838 46.2518 47.7103 44.4783 45.5304 44.4783ZM45.5304 50.8226C44.2121 50.8226 43.1395 49.75 43.1395 48.4317C43.1395 47.1133 44.2121 46.0408 45.5304 46.0408C45.905 46.0408 46.2595 46.1276 46.5754 46.2817L44.978 47.8792C44.6729 48.1843 44.6729 48.679 44.978 48.9841C45.1306 49.1366 45.3305 49.2129 45.5304 49.2129C45.7304 49.2129 45.9303 49.1366 46.0829 48.9841L47.6803 47.3866C47.8345 47.7025 47.9212 48.0571 47.9212 48.4317C47.9213 49.75 46.8487 50.8226 45.5304 50.8226ZM30.0672 20.0415C31.6718 20.0415 32.9955 21.4368 33.0808 23.2179C33.1311 24.2692 32.7657 25.0214 32.4865 25.4958C31.8118 26.6418 28.9638 28.5271 28.3997 28.8935C28.2704 28.9775 28.1223 29.0195 27.9743 29.0195C27.8261 29.0195 27.678 28.9775 27.5485 28.8934C26.9825 28.5256 24.1251 26.6334 23.4544 25.4964C23.175 25.0228 22.8094 24.2712 22.8597 23.218C22.9451 21.4368 24.2687 20.0415 25.8733 20.0415C26.7674 20.0415 27.502 20.4318 27.9751 20.7748C28.4522 20.4328 29.1899 20.0415 30.0672 20.0415ZM27.9743 27.3009C29.2203 26.4589 30.8185 25.2492 31.14 24.7031C31.4302 24.2101 31.5439 23.7883 31.5201 23.2925C31.4755 22.3614 30.8238 21.6039 30.0673 21.6039C29.2539 21.6039 28.5431 22.3321 28.536 22.3394C28.3857 22.4989 28.177 22.5897 27.9575 22.5832C27.7383 22.58 27.532 22.4834 27.3864 22.3196L27.3862 22.3193C27.3725 22.3048 26.7159 21.6039 25.8733 21.6039C25.1168 21.6039 24.4651 22.3614 24.4204 23.2926C24.3967 23.7893 24.5103 24.211 24.8002 24.7025C25.1199 25.2443 26.7236 26.4561 27.9743 27.3009Z" fill="black"/>
<path d="M25.2771 33.8156H25.3771V33.7156H25.2771V33.8156ZM27.1889 39.7266H27.2889V39.6266H27.1889V39.7266ZM22.6843 43.8785L22.6571 43.7823L22.5843 43.8028V43.8785H22.6843ZM21.1218 43.8512H21.2218V43.7782L21.1523 43.756L21.1218 43.8512ZM27.1889 47.7643H27.2889V47.5668L27.1298 47.6837L27.1889 47.7643ZM28.7514 39.7266V39.6266H28.6514V39.7266H28.7514ZM30.8162 33.8156V33.7156H30.7162V33.8156H30.8162ZM20.5717 21.6039H20.6717V21.5039H20.5717V21.6039ZM19.4639 21.6039V21.5039H19.3639V21.6039H19.4639ZM20.5717 26.0836V26.1836H20.6717V26.0836H20.5717ZM19.4639 26.0836H19.3639V26.1836H19.4639V26.0836ZM26.8396 38.1641H26.7396V38.2641H26.8396V38.1641ZM29.2537 38.1641V38.2641H29.3537V38.1641H29.2537ZM26.8396 33.8156V33.7156H26.7396V33.8156H26.8396ZM29.2537 33.8156H29.3537V33.7156H29.2537V33.8156ZM35.2341 26.0836H35.1341V26.1836H35.2341V26.0836ZM36.4771 26.0836V26.1836H36.5771V26.0836H36.4771ZM35.2341 21.6039V21.5039H35.1341V21.6039H35.2341ZM36.4771 21.6039H36.5771V21.5039H36.4771V21.6039ZM36.4771 20.0414V20.1414H36.5771V20.0414H36.4771ZM36.4771 27.6461H36.5771V27.5461H36.4771V27.6461ZM36.4771 32.2531V32.3531H36.5771V32.2531H36.4771ZM19.4639 32.2531H19.3639V32.3531H19.4639V32.2531ZM19.4639 27.6461V27.5461H19.3639V27.6461H19.4639ZM19.4639 20.0414H19.3639V20.1414H19.4639V20.0414ZM19.4639 16.5625V16.4625H19.3639V16.5625H19.4639ZM36.4771 16.5625H36.5771V16.4625H36.4771V16.5625ZM37.7281 41.6827L37.8206 41.6447L37.8204 41.6443L37.7281 41.6827ZM37.7726 41.8288L37.8707 41.8092L37.8705 41.8085L37.7726 41.8288ZM37.6562 41.5483L37.5725 41.603L37.5729 41.6036L37.6562 41.5483ZM37.5593 41.4295L37.63 41.3588L37.63 41.3588L37.5593 41.4295ZM37.4406 41.3326L37.3852 41.4159L37.3858 41.4163L37.4406 41.3326ZM37.3054 41.2608L37.2669 41.3531L37.2675 41.3533L37.3054 41.2608ZM37.1593 41.2162L37.1396 41.3143L37.1409 41.3145L37.1593 41.2162ZM36.8538 41.2162L36.8726 41.3145L36.8736 41.3143L36.8538 41.2162ZM36.7078 41.2608L36.6698 41.1682L36.6693 41.1685L36.7078 41.2608ZM36.5734 41.3326L36.6281 41.4163L36.6287 41.4159L36.5734 41.3326ZM36.357 41.5483L36.274 41.4925L36.2738 41.4928L36.357 41.5483ZM36.2859 41.6827L36.3784 41.7207L36.3787 41.7198L36.2859 41.6827ZM36.2413 41.8288L36.3394 41.8485L36.3396 41.8475L36.2413 41.8288ZM36.2413 42.1342L36.3397 42.1158L36.3393 42.1143L36.2413 42.1342ZM36.2859 42.2803L36.3784 42.2424L36.3782 42.2418L36.2859 42.2803ZM36.3578 42.4155L36.4414 42.3607L36.4409 42.3599L36.3578 42.4155ZM36.5734 42.6311L36.6289 42.5479L36.6281 42.5474L36.5734 42.6311ZM36.7078 42.703L36.6693 42.7953L36.6698 42.7955L36.7078 42.703ZM36.8538 42.7475L36.8336 42.8454L36.8342 42.8455L36.8538 42.7475ZM37.1593 42.7475L37.1394 42.6495L37.1394 42.6495L37.1593 42.7475ZM37.3054 42.703L37.2675 42.6104L37.2669 42.6107L37.3054 42.703ZM37.4406 42.6311L37.3858 42.5474L37.3851 42.5479L37.4406 42.6311ZM37.5593 42.5342L37.63 42.6049L37.63 42.6049L37.5593 42.5342ZM37.6562 42.4155L37.5729 42.3601L37.5725 42.3607L37.6562 42.4155ZM37.7281 42.2803L37.6358 42.2418L37.6355 42.2424L37.7281 42.2803ZM37.7726 42.1342L37.8706 42.1543L37.8706 42.1541L37.7726 42.1342ZM46.3117 41.9119H46.2117V42.0007L46.2999 42.0112L46.3117 41.9119ZM44.7492 41.9119L44.761 42.0112L44.8492 42.0007V41.9119H44.7492ZM49.4837 48.4318L49.3837 48.4318V48.4318H49.4837ZM46.5754 46.2817L46.6462 46.3524L46.7453 46.2533L46.6193 46.1918L46.5754 46.2817ZM44.978 47.8792L45.0487 47.9499L45.0487 47.9499L44.978 47.8792ZM44.978 48.9841L44.9073 49.0548L44.9073 49.0548L44.978 48.9841ZM46.0829 48.9841L46.1536 49.0548L46.1536 49.0548L46.0829 48.9841ZM47.6803 47.3866L47.7702 47.3427L47.7087 47.2168L47.6096 47.3159L47.6803 47.3866ZM47.9212 48.4317L47.8212 48.4317L47.8212 48.4317L47.9212 48.4317ZM33.0808 23.2179L33.1807 23.2132L33.1807 23.2131L33.0808 23.2179ZM32.4865 25.4958L32.5726 25.5465L32.5726 25.5465L32.4865 25.4958ZM28.3997 28.8935L28.4542 28.9773L28.4542 28.9773L28.3997 28.8935ZM27.5485 28.8934L27.494 28.9772L27.4941 28.9773L27.5485 28.8934ZM23.4544 25.4964L23.3682 25.5472L23.3682 25.5473L23.4544 25.4964ZM22.8597 23.218L22.7598 23.2132L22.7598 23.2132L22.8597 23.218ZM27.9751 20.7748L27.9164 20.8558L27.9747 20.8981L28.0333 20.8561L27.9751 20.7748ZM31.14 24.7031L31.0538 24.6523L31.0538 24.6523L31.14 24.7031ZM27.9743 27.3009L27.9183 27.3838L27.9743 27.4216L28.0303 27.3837L27.9743 27.3009ZM31.5201 23.2925L31.62 23.2877L31.62 23.2877L31.5201 23.2925ZM28.536 22.3394L28.4641 22.2698L28.4632 22.2708L28.536 22.3394ZM27.9575 22.5832L27.9605 22.4832L27.9589 22.4832L27.9575 22.5832ZM27.3864 22.3196L27.4612 22.2531L27.4593 22.2511L27.3864 22.3196ZM27.3862 22.3193L27.3132 22.3877L27.3133 22.3878L27.3862 22.3193ZM24.4204 23.2926L24.3206 23.2878L24.3206 23.2878L24.4204 23.2926ZM24.8002 24.7025L24.7141 24.7533L24.7141 24.7533L24.8002 24.7025ZM18.6826 15.1H37.2583V14.9H18.6826V15.1ZM18.0014 15.7812C18.0014 15.405 18.3064 15.1 18.6826 15.1V14.9C18.1959 14.9 17.8014 15.2945 17.8014 15.7812H18.0014ZM18.0014 33.0344V15.7812H17.8014V33.0344H18.0014ZM18.6826 33.7156C18.3064 33.7156 18.0014 33.4106 18.0014 33.0344H17.8014C17.8014 33.5211 18.1959 33.9156 18.6826 33.9156V33.7156ZM25.2771 33.7156H18.6826V33.9156H25.2771V33.7156ZM25.3771 38.9453V33.8156H25.1771V38.9453H25.3771ZM26.0584 39.6266C25.6821 39.6266 25.3771 39.3215 25.3771 38.9453H25.1771C25.1771 39.4319 25.5717 39.8266 26.0584 39.8266V39.6266ZM27.1889 39.6266H26.0584V39.8266H27.1889V39.6266ZM27.2889 44.688V39.7266H27.0889V44.688H27.2889ZM24.9366 47.0403C26.2338 47.0403 27.2889 45.9851 27.2889 44.688H27.0889C27.0889 45.8746 26.1233 46.8403 24.9366 46.8403V47.0403ZM22.5843 44.688C22.5843 45.9851 23.6394 47.0403 24.9366 47.0403V46.8403C23.7499 46.8403 22.7843 45.8746 22.7843 44.688H22.5843ZM22.5843 43.8785V44.688H22.7843V43.8785H22.5843ZM24.5614 41.2681C24.5614 42.4629 23.7547 43.4727 22.6571 43.7823L22.7114 43.9748C23.8926 43.6416 24.7614 42.5551 24.7614 41.2681H24.5614ZM24.5614 39.7697V41.2681H24.7614V39.7697H24.5614ZM21.9489 37.1572C23.3893 37.1572 24.5614 38.3292 24.5614 39.7697H24.7614C24.7614 38.2188 23.4998 36.9572 21.9489 36.9572V37.1572ZM19.3365 39.7697C19.3365 38.3292 20.5086 37.1572 21.9489 37.1572V36.9572C20.3981 36.9572 19.1365 38.2188 19.1365 39.7697H19.3365ZM19.3365 41.2681V39.7697H19.1365V41.2681H19.3365ZM21.1523 43.756C20.1001 43.4182 19.3365 42.4306 19.3365 41.2681H19.1365C19.1365 42.5202 19.9589 43.5829 21.0912 43.9464L21.1523 43.756ZM21.2218 44.6879V43.8512H21.0218V44.6879H21.2218ZM24.9366 48.4027C22.8883 48.4027 21.2218 46.7362 21.2218 44.6879H21.0218C21.0218 46.8466 22.7779 48.6027 24.9366 48.6027V48.4027ZM27.1298 47.6837C26.5145 48.1353 25.7564 48.4027 24.9366 48.4027V48.6027C25.8007 48.6027 26.5999 48.3208 27.2481 47.8449L27.1298 47.6837ZM27.2889 49.7003V47.7643H27.0889V49.7003H27.2889ZM32.4885 54.8999C29.6216 54.8999 27.2889 52.5673 27.2889 49.7003H27.0889C27.0889 52.6777 29.5111 55.0999 32.4885 55.0999V54.8999ZM37.6881 49.7003C37.6881 52.5673 35.3554 54.8999 32.4885 54.8999V55.0999C35.4659 55.0999 37.8881 52.6777 37.8881 49.7003H37.6881ZM37.6881 45V49.7003H37.8881V45H37.6881ZM37.0068 44.3188C37.3831 44.3188 37.6881 44.6238 37.6881 45H37.8881C37.8881 44.5134 37.4936 44.1187 37.0068 44.1187V44.3188ZM36.3256 45C36.3256 44.6238 36.6307 44.3188 37.0068 44.3188V44.1187C36.5202 44.1187 36.1256 44.5134 36.1256 45H36.3256ZM36.3256 49.7004V45H36.1256V49.7004H36.3256ZM32.4885 53.5375C34.6044 53.5375 36.3256 51.8162 36.3256 49.7004H36.1256C36.1256 51.7058 34.4939 53.3375 32.4885 53.3375V53.5375ZM28.6514 49.7004C28.6514 51.8162 30.3726 53.5375 32.4885 53.5375V53.3375C30.4831 53.3375 28.8514 51.7058 28.8514 49.7004H28.6514ZM28.6514 44.688V49.7004H28.8514V44.688H28.6514ZM28.6514 39.7266V44.688H28.8514V39.7266H28.6514ZM30.035 39.6266H28.7514V39.8266H30.035V39.6266ZM30.7162 38.9453C30.7162 39.3215 30.4112 39.6266 30.035 39.6266V39.8266C30.5217 39.8266 30.9162 39.4319 30.9162 38.9453H30.7162ZM30.7162 33.8156V38.9453H30.9162V33.8156H30.7162ZM37.2583 33.7156H30.8162V33.9156H37.2583V33.7156ZM37.9396 33.0344C37.9396 33.4106 37.6346 33.7156 37.2583 33.7156V33.9156C37.745 33.9156 38.1396 33.5211 38.1396 33.0344H37.9396ZM37.9396 15.7812V33.0344H38.1396V15.7812H37.9396ZM37.2583 15.1C37.6346 15.1 37.9396 15.405 37.9396 15.7812H38.1396C38.1396 15.2945 37.745 14.9 37.2583 14.9V15.1ZM20.6989 41.2682C20.6989 41.9576 21.2596 42.5182 21.9489 42.5182V42.3182C21.37 42.3182 20.8989 41.8471 20.8989 41.2682H20.6989ZM20.6989 39.7698V41.2682H20.8989V39.7698H20.6989ZM21.9489 38.5198C21.2596 38.5198 20.6989 39.0805 20.6989 39.7698H20.8989C20.8989 39.1909 21.37 38.7198 21.9489 38.7198V38.5198ZM23.1988 39.7698C23.1988 39.0804 22.6382 38.5198 21.9489 38.5198V38.7198C22.5277 38.7198 22.9988 39.1908 22.9988 39.7698H23.1988ZM23.1988 41.2682V39.7698H22.9988V41.2682H23.1988ZM21.9489 42.5182C22.6382 42.5182 23.1988 41.9575 23.1988 41.2682H22.9988C22.9988 41.847 22.5277 42.3182 21.9489 42.3182V42.5182ZM20.5717 21.5039H19.4639V21.7039H20.5717V21.5039ZM20.6717 26.0836V21.6039H20.4717V26.0836H20.6717ZM19.4639 26.1836H20.5717V25.9836H19.4639V26.1836ZM19.3639 21.6039V26.0836H19.5639V21.6039H19.3639ZM26.8396 38.2641H29.2537V38.0641H26.8396V38.2641ZM26.7396 33.8156V38.1641H26.9396V33.8156H26.7396ZM29.2537 33.7156H26.8396V33.9156H29.2537V33.7156ZM29.3537 38.1641V33.8156H29.1537V38.1641H29.3537ZM35.2341 26.1836H36.4771V25.9836H35.2341V26.1836ZM35.1341 21.6039V26.0836H35.3341V21.6039H35.1341ZM36.4771 21.5039H35.2341V21.7039H36.4771V21.5039ZM36.5771 26.0836V21.6039H36.3771V26.0836H36.5771ZM34.4529 20.1414H36.4771V19.9414H34.4529V20.1414ZM33.7716 20.8227C33.7716 20.4465 34.0766 20.1414 34.4529 20.1414V19.9414C33.9661 19.9414 33.5716 20.336 33.5716 20.8227H33.7716ZM33.7716 26.8648V20.8227H33.5716V26.8648H33.7716ZM34.4529 27.5461C34.0766 27.5461 33.7716 27.241 33.7716 26.8648H33.5716C33.5716 27.3515 33.9661 27.7461 34.4529 27.7461V27.5461ZM36.4771 27.5461H34.4529V27.7461H36.4771V27.5461ZM36.5771 32.2531V27.6461H36.3771V32.2531H36.5771ZM30.035 32.3531H36.4771V32.1531H30.035V32.3531ZM26.0584 32.3531H30.035V32.1531H26.0584V32.3531ZM19.4639 32.3531H26.0584V32.1531H19.4639V32.3531ZM19.3639 27.6461V32.2531H19.5639V27.6461H19.3639ZM21.3529 27.5461H19.4639V27.7461H21.3529V27.5461ZM22.0342 26.8648C22.0342 27.241 21.7292 27.5461 21.3529 27.5461V27.7461C21.8396 27.7461 22.2342 27.3515 22.2342 26.8648H22.0342ZM22.0342 20.8227V26.8648H22.2342V20.8227H22.0342ZM21.3529 20.1414C21.7292 20.1414 22.0342 20.4465 22.0342 20.8227H22.2342C22.2342 20.336 21.8396 19.9414 21.3529 19.9414V20.1414ZM19.4639 20.1414H21.3529V19.9414H19.4639V20.1414ZM19.3639 16.5625V20.0414H19.5639V16.5625H19.3639ZM36.4771 16.4625H19.4639V16.6625H36.4771V16.4625ZM36.5771 20.0414V16.5625H36.3771V20.0414H36.5771ZM37.6356 41.7207C37.6526 41.7623 37.6656 41.8056 37.6747 41.8492L37.8705 41.8085C37.8591 41.7536 37.8426 41.6983 37.8206 41.6447L37.6356 41.7207ZM37.5729 41.6036C37.5974 41.6405 37.6187 41.6803 37.6358 41.7212L37.8204 41.6443C37.7984 41.5914 37.771 41.5404 37.7395 41.4929L37.5729 41.6036ZM37.4886 41.5002C37.52 41.5316 37.5484 41.5661 37.5725 41.603L37.7399 41.4935C37.7078 41.4445 37.6705 41.3993 37.63 41.3588L37.4886 41.5002ZM37.3858 41.4163C37.4227 41.4405 37.4572 41.4689 37.4886 41.5002L37.63 41.3588C37.5895 41.3183 37.5444 41.2811 37.4953 41.249L37.3858 41.4163ZM37.2675 41.3533C37.3088 41.3702 37.3483 41.3914 37.3852 41.4159L37.4959 41.2494C37.4484 41.2178 37.3973 41.1904 37.3433 41.1682L37.2675 41.3533ZM37.1409 41.3145C37.1829 41.3224 37.2254 41.3358 37.2669 41.3531L37.3439 41.1685C37.2917 41.1467 37.2357 41.1288 37.1777 41.118L37.1409 41.3145ZM36.8736 41.3143C36.9613 41.2966 37.0518 41.2966 37.1396 41.3143L37.1791 41.1182C37.0653 41.0953 36.9479 41.0953 36.8341 41.1182L36.8736 41.3143ZM36.7457 41.3533C36.7885 41.3358 36.8312 41.3224 36.8726 41.3145L36.8351 41.118C36.7781 41.1289 36.7224 41.1467 36.6698 41.1682L36.7457 41.3533ZM36.6287 41.4159C36.6657 41.3914 36.7053 41.3701 36.7462 41.3531L36.6693 41.1685C36.6164 41.1905 36.5655 41.2178 36.518 41.2494L36.6287 41.4159ZM36.5253 41.5002C36.5567 41.4689 36.5913 41.4405 36.6281 41.4163L36.5186 41.249C36.4696 41.2811 36.4244 41.3183 36.3839 41.3588L36.5253 41.5002ZM36.4399 41.6041C36.4653 41.5664 36.494 41.5316 36.5253 41.5002L36.3839 41.3588C36.3434 41.3993 36.3065 41.4442 36.274 41.4925L36.4399 41.6041ZM36.3787 41.7198C36.3947 41.6797 36.4156 41.6406 36.4402 41.6037L36.2738 41.4928C36.2421 41.5404 36.2145 41.5918 36.193 41.6456L36.3787 41.7198ZM36.3396 41.8475C36.3475 41.8061 36.3609 41.7633 36.3784 41.7207L36.1934 41.6447C36.1718 41.6973 36.154 41.7531 36.1431 41.8101L36.3396 41.8475ZM36.3257 41.9819C36.3257 41.9383 36.3304 41.8932 36.3394 41.8485L36.1433 41.8092C36.1319 41.8658 36.1257 41.9241 36.1257 41.9819H36.3257ZM36.3393 42.1143C36.3304 42.0705 36.3257 42.0256 36.3257 41.9819H36.1257C36.1257 42.0397 36.1319 42.098 36.1434 42.1541L36.3393 42.1143ZM36.3782 42.2418C36.3609 42.2004 36.3475 42.1579 36.3396 42.1158L36.1431 42.1526C36.1539 42.2107 36.1718 42.2666 36.1936 42.3188L36.3782 42.2418ZM36.4409 42.3599C36.4164 42.3233 36.3954 42.2839 36.3784 42.2424L36.1933 42.3182C36.2154 42.372 36.2427 42.4233 36.2746 42.471L36.4409 42.3599ZM36.5253 42.4635C36.494 42.4321 36.4656 42.3976 36.4414 42.3607L36.2741 42.4702C36.3062 42.5193 36.3434 42.5644 36.3839 42.6049L36.5253 42.4635ZM36.6281 42.5474C36.5912 42.5233 36.5567 42.4949 36.5253 42.4635L36.3839 42.6049C36.4244 42.6454 36.4696 42.6826 36.5186 42.7148L36.6281 42.5474ZM36.7462 42.6106C36.7053 42.5936 36.6656 42.5724 36.6288 42.5479L36.5179 42.7143C36.5655 42.746 36.6165 42.7733 36.6693 42.7953L36.7462 42.6106ZM36.8741 42.6496C36.8308 42.6406 36.7875 42.6276 36.7457 42.6104L36.6698 42.7955C36.7233 42.8174 36.7785 42.834 36.8336 42.8454L36.8741 42.6496ZM37.007 42.6631C36.9634 42.6631 36.9183 42.6584 36.8735 42.6494L36.8342 42.8455C36.8909 42.8569 36.9492 42.8631 37.007 42.8631V42.6631ZM37.1394 42.6495C37.0957 42.6584 37.0507 42.6631 37.007 42.6631V42.8631C37.0648 42.8631 37.1231 42.8569 37.1793 42.8455L37.1394 42.6495ZM37.2669 42.6107C37.2264 42.6276 37.1835 42.6406 37.1394 42.6495L37.1792 42.8455C37.2353 42.8341 37.2908 42.8174 37.3439 42.7952L37.2669 42.6107ZM37.3851 42.5479C37.3483 42.5724 37.3089 42.5935 37.2675 42.6104L37.3433 42.7955C37.3972 42.7734 37.4484 42.746 37.496 42.7143L37.3851 42.5479ZM37.4886 42.4635C37.4572 42.4949 37.4227 42.5233 37.3858 42.5474L37.4953 42.7148C37.5444 42.6826 37.5895 42.6454 37.63 42.6049L37.4886 42.4635ZM37.5725 42.3607C37.5484 42.3976 37.52 42.4321 37.4886 42.4635L37.63 42.6049C37.6705 42.5644 37.7078 42.5193 37.7399 42.4702L37.5725 42.3607ZM37.6355 42.2424C37.6186 42.2837 37.5974 42.3232 37.5729 42.3601L37.7395 42.4708C37.771 42.4233 37.7985 42.3722 37.8206 42.3182L37.6355 42.2424ZM37.6746 42.1142C37.6656 42.1583 37.6526 42.2013 37.6358 42.2418L37.8204 42.3188C37.8426 42.2655 37.8591 42.2101 37.8706 42.1543L37.6746 42.1142ZM37.6881 41.9819C37.6881 42.0257 37.6835 42.0706 37.6746 42.1143L37.8706 42.1541C37.882 42.0978 37.8881 42.0396 37.8881 41.9819H37.6881ZM37.6745 41.8484C37.6835 41.8932 37.6881 41.9382 37.6881 41.9819H37.8881C37.8881 41.9241 37.882 41.866 37.8707 41.8092L37.6745 41.8484ZM46.4117 41.9119V38.3949H46.2117V41.9119H46.4117ZM52.1986 48.432C52.1986 45.0234 49.6277 42.2062 46.3235 41.8126L46.2999 42.0112C49.5048 42.393 51.9986 45.1261 51.9986 48.432H52.1986ZM45.5305 55.1001C49.2073 55.1001 52.1986 52.1089 52.1986 48.432H51.9986C51.9986 51.9984 49.0969 54.9001 45.5305 54.9001V55.1001ZM38.8623 48.432C38.8623 52.1089 41.8535 55.1001 45.5305 55.1001V54.9001C41.964 54.9001 39.0623 51.9984 39.0623 48.432H38.8623ZM44.7374 41.8126C41.4332 42.2062 38.8623 45.0234 38.8623 48.432H39.0623C39.0623 45.1261 41.556 42.393 44.761 42.0112L44.7374 41.8126ZM44.6492 38.3949V41.9119H44.8492V38.3949H44.6492ZM41.2688 35.0144C43.1326 35.0144 44.6492 36.531 44.6492 38.3949H44.8492C44.8492 36.4205 43.243 34.8144 41.2688 34.8144V35.0144ZM37.8883 38.3949C37.8883 36.5311 39.4048 35.0144 41.2688 35.0144V34.8144C39.2944 34.8144 37.6883 36.4206 37.6883 38.3949H37.8883ZM37.8883 39.0426V38.3949H37.6883V39.0426H37.8883ZM37.007 39.9238C37.4937 39.9238 37.8883 39.5292 37.8883 39.0426H37.6883C37.6883 39.4188 37.3832 39.7238 37.007 39.7238V39.9238ZM36.1258 39.0426C36.1258 39.5292 36.5204 39.9238 37.007 39.9238V39.7238C36.6309 39.7238 36.3258 39.4188 36.3258 39.0426H36.1258ZM36.1258 38.3949V39.0426H36.3258V38.3949H36.1258ZM41.2688 33.2519C38.4328 33.2519 36.1258 35.559 36.1258 38.3949H36.3258C36.3258 35.6694 38.5433 33.4519 41.2688 33.4519V33.2519ZM46.4117 38.3949C46.4117 35.559 44.1047 33.2519 41.2688 33.2519V33.4519C43.9942 33.4519 46.2117 35.6694 46.2117 38.3949H46.4117ZM45.5305 53.3376C42.8255 53.3376 40.6248 51.1369 40.6248 48.432H40.4248C40.4248 51.2473 42.7151 53.5376 45.5305 53.5376V53.3376ZM50.4361 48.432C50.4361 51.1369 48.2353 53.3376 45.5305 53.3376V53.5376C48.3458 53.5376 50.6361 51.2473 50.6361 48.432H50.4361ZM45.5305 43.5263C48.2353 43.5263 50.4361 45.7271 50.4361 48.432H50.6361C50.6361 45.6166 48.3458 43.3263 45.5305 43.3263V43.5263ZM40.6248 48.432C40.6248 45.7271 42.8255 43.5263 45.5305 43.5263V43.3263C42.7151 43.3263 40.4248 45.6166 40.4248 48.432H40.6248ZM41.677 48.4318C41.677 46.307 43.4058 44.5783 45.5304 44.5783V44.3783C43.2953 44.3783 41.477 46.1965 41.477 48.4318H41.677ZM45.5304 52.2851C43.4057 52.2851 41.677 50.5564 41.677 48.4318H41.477C41.477 50.6668 43.2952 52.4851 45.5304 52.4851V52.2851ZM49.3837 48.4318C49.3837 50.5565 47.6551 52.2851 45.5304 52.2851V52.4851C47.7655 52.4851 49.5837 50.6669 49.5837 48.4318H49.3837ZM45.5304 44.5783C47.6551 44.5783 49.3838 46.307 49.3837 48.4318L49.5837 48.4318C49.5838 46.1965 47.7655 44.3783 45.5304 44.3783V44.5783ZM43.0395 48.4317C43.0395 49.8052 44.1569 50.9226 45.5304 50.9226V50.7226C44.2673 50.7226 43.2395 49.6947 43.2395 48.4317H43.0395ZM45.5304 45.9408C44.1569 45.9408 43.0395 47.0581 43.0395 48.4317H43.2395C43.2395 47.1686 44.2673 46.1408 45.5304 46.1408V45.9408ZM46.6193 46.1918C46.2901 46.0312 45.9206 45.9408 45.5304 45.9408V46.1408C45.8894 46.1408 46.2289 46.2239 46.5316 46.3716L46.6193 46.1918ZM45.0487 47.9499L46.6462 46.3524L46.5047 46.211L44.9073 47.8085L45.0487 47.9499ZM45.0487 48.9134C44.7827 48.6473 44.7827 48.2159 45.0487 47.9499L44.9073 47.8085C44.5632 48.1526 44.5632 48.7106 44.9073 49.0548L45.0487 48.9134ZM45.5304 49.1129C45.356 49.1129 45.1818 49.0464 45.0487 48.9134L44.9073 49.0548C45.0794 49.2268 45.3051 49.3129 45.5304 49.3129V49.1129ZM46.0122 48.9134C45.8791 49.0464 45.7049 49.1129 45.5304 49.1129V49.3129C45.7558 49.3129 45.9815 49.2268 46.1536 49.0548L46.0122 48.9134ZM47.6096 47.3159L46.0122 48.9134L46.1536 49.0548L47.751 47.4573L47.6096 47.3159ZM48.0212 48.4317C48.0212 48.0415 47.9309 47.672 47.7702 47.3427L47.5904 47.4305C47.7381 47.7331 47.8212 48.0727 47.8212 48.4317H48.0212ZM45.5304 50.9226C46.9039 50.9226 48.0213 49.8053 48.0212 48.4317L47.8212 48.4317C47.8213 49.6948 46.7935 50.7226 45.5304 50.7226V50.9226ZM33.1807 23.2131C33.0933 21.3881 31.7341 19.9415 30.0672 19.9415V20.1415C31.6094 20.1415 32.8977 21.4854 32.9809 23.2227L33.1807 23.2131ZM32.5726 25.5465C32.8567 25.064 33.2323 24.2918 33.1807 23.2132L32.9809 23.2227C33.0299 24.2465 32.6747 24.9789 32.4003 25.4451L32.5726 25.5465ZM28.4542 28.9773C28.7371 28.7936 29.5925 28.2291 30.4622 27.5665C30.8971 27.2353 31.3367 26.8786 31.7106 26.532C32.083 26.1868 32.3963 25.846 32.5726 25.5465L32.4003 25.4451C32.2393 25.7186 31.9437 26.0432 31.5746 26.3853C31.2072 26.7259 30.7731 27.0783 30.341 27.4075C29.4771 28.0656 28.6264 28.627 28.3453 28.8096L28.4542 28.9773ZM27.9743 29.1195C28.1412 29.1195 28.3083 29.0721 28.4542 28.9773L28.3453 28.8096C28.2325 28.8828 28.1034 28.9195 27.9743 28.9195V29.1195ZM27.4941 28.9773C27.6401 29.0721 27.8072 29.1195 27.9743 29.1195V28.9195C27.8451 28.9195 27.7159 28.8828 27.6029 28.8095L27.4941 28.9773ZM23.3682 25.5473C23.5436 25.8445 23.8569 26.1841 24.2295 26.5286C24.6038 26.8746 25.0443 27.2313 25.4801 27.5629C26.3519 28.2262 27.2101 28.7928 27.494 28.9772L27.603 28.8095C27.3208 28.6262 26.4673 28.0627 25.6012 27.4038C25.1681 27.0742 24.7331 26.7218 24.3653 26.3817C23.9959 26.0402 23.7005 25.7168 23.5405 25.4456L23.3682 25.5473ZM22.7598 23.2132C22.7082 24.2939 23.084 25.0654 23.3682 25.5472L23.5405 25.4456C23.266 24.9803 22.9105 24.2485 22.9595 23.2228L22.7598 23.2132ZM25.8733 19.9415C24.2063 19.9415 22.8473 21.3881 22.7598 23.2132L22.9595 23.2228C23.0428 21.4854 24.3311 20.1415 25.8733 20.1415V19.9415ZM28.0338 20.6938C27.5515 20.3442 26.7965 19.9415 25.8733 19.9415V20.1415C26.7383 20.1415 27.4525 20.5194 27.9164 20.8558L28.0338 20.6938ZM30.0672 19.9415C29.1606 19.9415 28.4025 20.3454 27.9168 20.6935L28.0333 20.8561C28.502 20.5202 29.2192 20.1415 30.0672 20.1415V19.9415ZM31.0538 24.6523C30.9811 24.7759 30.8299 24.9458 30.6161 25.1484C30.4044 25.3491 30.1379 25.5759 29.8414 25.8129C29.2485 26.2868 28.5397 26.7981 27.9183 27.218L28.0303 27.3837C28.6549 26.9616 29.3682 26.4471 29.9663 25.9691C30.2652 25.7302 30.5364 25.4995 30.7537 25.2935C30.969 25.0894 31.1381 24.9033 31.2262 24.7538L31.0538 24.6523ZM31.4202 23.2973C31.4429 23.7708 31.3357 24.1735 31.0538 24.6523L31.2261 24.7538C31.5247 24.2467 31.6448 23.8058 31.62 23.2877L31.4202 23.2973ZM30.0673 21.7039C30.7532 21.7039 31.3773 22.4004 31.4202 23.2973L31.62 23.2877C31.5738 22.3224 30.8944 21.5039 30.0673 21.5039V21.7039ZM28.6078 22.409C28.6078 22.409 28.6514 22.3642 28.7292 22.2971C28.807 22.23 28.9183 22.1412 29.0539 22.0527C29.3273 21.8742 29.6888 21.7039 30.0673 21.7039V21.5039C29.6324 21.5039 29.2318 21.6977 28.9446 21.8852C28.6559 22.0736 28.4707 22.2631 28.4641 22.2699L28.6078 22.409ZM27.9545 22.6831C28.204 22.6906 28.4398 22.5872 28.6088 22.408L28.4632 22.2708C28.3316 22.4105 28.1501 22.4889 27.9605 22.4832L27.9545 22.6831ZM27.3116 22.386C27.4755 22.5703 27.7082 22.6795 27.956 22.6831L27.9589 22.4832C27.7685 22.4804 27.5885 22.3965 27.4611 22.2531L27.3116 22.386ZM27.3133 22.3878L27.3135 22.388L27.4593 22.2511L27.4591 22.2509L27.3133 22.3878ZM25.8733 21.7039C26.2675 21.7039 26.6231 21.8683 26.8859 22.0399C27.1478 22.2109 27.3092 22.3835 27.3132 22.3877L27.4591 22.251C27.4495 22.2406 27.2757 22.0555 26.9952 21.8724C26.7157 21.6899 26.3216 21.5039 25.8733 21.5039V21.7039ZM24.5203 23.2974C24.5633 22.4004 25.1874 21.7039 25.8733 21.7039V21.5039C25.0462 21.5039 24.3668 22.3225 24.3206 23.2878L24.5203 23.2974ZM24.8863 24.6516C24.6048 24.1744 24.4976 23.7719 24.5203 23.2974L24.3206 23.2878C24.2957 23.8068 24.4158 24.2475 24.7141 24.7533L24.8863 24.6516ZM28.0302 27.218C27.4065 26.7967 26.6951 26.2842 26.1005 25.8099C25.8031 25.5727 25.5359 25.346 25.3238 25.1456C25.1097 24.9433 24.9586 24.7741 24.8863 24.6516L24.7141 24.7533C24.8017 24.9018 24.9709 25.0873 25.1865 25.291C25.4041 25.4966 25.6759 25.7272 25.9758 25.9663C26.5755 26.4446 27.2913 26.9603 27.9183 27.3838L28.0302 27.218Z" fill="#F6FAFF" mask="url(#path-3-inside-1)"/>
</svg>
