<svg width="70" height="70" viewBox="0 0 70 70" fill="none" xmlns="http://www.w3.org/2000/svg">
<circle cx="35" cy="35" r="35" fill="#EDF5FF" fill-opacity="0.5"/>
<circle cx="25.5" cy="47.5" r="10.5" fill="#9AB0FE"/>
<g clip-path="url(#clip0)">
<path d="M29.4792 41.7917H26.5625V43.2501H29.4792V41.7917Z" fill="black"/>
<path d="M30.9375 44.7083H26.5625V46.1666H30.9375V44.7083Z" fill="black"/>
<path d="M54.3447 48.1814L46.251 40.0867V22.1042C46.251 20.8961 45.2716 19.9167 44.0635 19.9167H29.4071C29.0693 18.2525 27.5981 17 25.8343 17C24.0705 17 22.5994 18.2525 22.2616 19.9167H22.1885C20.9804 19.9167 20.001 20.8961 20.001 22.1042V49.8125C20.001 51.0206 20.9804 52 22.1885 52H44.0635C45.2716 52 46.251 51.0206 46.251 49.8125V46.413L51.1824 51.3438C51.6013 51.7646 52.1708 52.0008 52.7647 52C53.3582 51.9999 53.9273 51.764 54.3467 51.344C55.2195 50.4702 55.2186 49.0542 54.3447 48.1814ZM25.8343 18.4583C26.7867 18.4583 27.5965 19.0671 27.8968 19.9166H23.7718C24.0721 19.0671 24.8819 18.4583 25.8343 18.4583ZM44.7927 49.8125C44.7927 50.2152 44.4662 50.5417 44.0635 50.5417H22.1885C21.7858 50.5417 21.4593 50.2152 21.4593 49.8125V22.1042C21.4593 21.7015 21.7858 21.375 22.1885 21.375H28.0218V29.3958C28.0218 29.7985 27.6953 30.125 27.2926 30.125C26.8899 30.125 26.5634 29.7985 26.5634 29.3958V22.8333H25.1052V29.3958C25.1052 30.6039 26.0846 31.5833 27.2927 31.5833C28.5008 31.5833 29.4802 30.6039 29.4802 29.3958V21.375H44.0635C44.4662 21.375 44.7927 21.7015 44.7927 22.1042V38.6282L42.6052 36.4404V23.5625C42.6052 23.1598 42.2787 22.8333 41.876 22.8333H30.9385V24.2916H41.1468V35.1412L37.0977 33.1212C36.8922 33.0182 36.65 33.0182 36.4445 33.1212C36.4054 33.1407 36.3694 33.1639 36.3355 33.1891L36.3343 33.1876L34.2649 34.7378L33.0982 30.6544C33.0642 30.535 33.0003 30.4263 32.9124 30.3385C32.6276 30.0538 32.1659 30.0539 31.8812 30.3387L29.9074 32.3125H24.376C23.9733 32.3125 23.6468 32.639 23.6468 33.0417V48.3542C23.6468 48.7569 23.9733 49.0834 24.376 49.0834H41.876C42.2787 49.0834 42.6052 48.7569 42.6052 48.3542V42.7676L44.7927 44.9548V49.8125ZM39.1037 36.8049L38.4008 35.4005L39.8057 36.103L39.1037 36.8049ZM41.1468 41.3093V47.625H25.1052V33.7708H30.2094C30.4023 33.7709 30.5874 33.6947 30.7242 33.5586L32.0367 32.2461L33.1537 36.1581C33.1782 36.244 33.2182 36.3247 33.2718 36.3961C33.5135 36.7182 33.9706 36.7833 34.2927 36.5416L36.509 34.8794L38.2513 38.3646L38.2531 38.3637C38.2872 38.4313 38.332 38.4948 38.3884 38.5513L41.1468 41.3093ZM39.9349 38.0358L41.0367 36.934L50.6691 46.5663L49.5673 47.6681L39.9349 38.0358ZM53.3152 50.3142C53.0109 50.6185 52.5176 50.6185 52.2134 50.3142L50.5985 48.6993L51.7003 47.5975L53.3151 49.2124C53.6194 49.5166 53.6194 50.0099 53.3152 50.3142Z" fill="black"/>
</g>
<defs>
<clipPath id="clip0">
<rect width="35" height="35" fill="white" transform="translate(20 17)"/>
</clipPath>
</defs>
</svg>
