<svg width="70" height="70" viewBox="0 0 70 70" fill="none" xmlns="http://www.w3.org/2000/svg">
<circle cx="35" cy="35" r="35" fill="#EDF5FF" fill-opacity="0.5"/>
<circle cx="41.9804" cy="41.9804" r="10.9804" fill="#FC9DA9"/>
<g clip-path="url(#clip0)">
<path d="M17.3191 51.5787C22.2831 54.6833 32.3938 55.236 38.3731 54.9047H38.3871C38.4024 54.9047 38.4184 54.9 38.4338 54.8987C42.6558 54.6607 49.0571 53.798 52.6064 51.5767C52.8452 51.4272 52.9642 51.1438 52.9038 50.8687C52.5246 49.1093 51.0319 47.8098 49.2371 47.6767C47.3751 41.2767 48.8424 30.9153 48.2498 25.5913C47.4344 18.2667 43.7331 15 36.2531 15C29.5904 15 27.6584 18.102 27.1198 19.5333C26.0079 19.3343 24.8617 19.5542 23.9024 20.1507C22.1851 21.2453 21.1818 23.532 20.9191 26.9507C20.3564 34.2933 21.4791 42.5733 20.4131 47.6993C18.7298 47.9452 17.3763 49.2109 17.0184 50.874C16.9602 51.1488 17.0804 51.4306 17.3191 51.5787ZM27.2238 47.6C27.4518 48.9933 28.0531 51.5927 29.5158 53.414C28.6411 53.3333 27.7824 53.236 26.9551 53.1173C26.8398 50.584 26.1624 49.1053 25.5651 48.2867C26.134 48.0986 26.6884 47.8691 27.2238 47.6ZM31.6611 53.5753C29.3331 52.1467 28.6271 48.0927 28.4664 46.8793C29.0476 46.4915 29.5884 46.0461 30.0804 45.55C30.7091 44.9127 30.6804 44.1873 30.6231 43.2793C33.7318 46.3787 36.1038 46.3827 39.2164 43.2793C39.1598 44.1973 39.1331 44.8793 39.7731 45.5287C40.2625 46.0197 40.8006 46.4598 41.3791 46.842C41.2271 48.012 40.5298 52.136 38.1751 53.5807C36.0053 53.6965 33.8308 53.6949 31.6611 53.576V53.5753ZM27.6931 30.3427C28.6377 28.8829 29.3789 27.3012 29.8964 25.6413C31.5151 27.196 35.5118 30.2073 42.1451 30.3693C41.9391 31.9027 41.6198 32.236 42.0464 34.28C42.4351 36.1807 41.8604 37.9133 40.0631 40.262C38.4858 42.3287 37.0431 43.6253 35.7724 44.1207C35.2233 44.3387 34.6116 44.3387 34.0624 44.1207C32.7958 43.6273 31.3538 42.33 29.7758 40.2633C27.9791 37.9153 27.4038 36.1827 27.7918 34.2847C28.2258 32.2 27.9011 31.898 27.6931 30.3427ZM44.2931 48.26C43.6931 49.0747 42.9984 50.5627 42.8831 53.1307C42.0531 53.248 41.1931 53.3433 40.3178 53.4227C41.7978 51.5833 42.3971 48.95 42.6204 47.5647C43.161 47.8358 43.7202 48.0682 44.2938 48.26H44.2931ZM51.4498 50.7107C49.1675 51.8081 46.732 52.5532 44.2264 52.9207C44.4078 50.1433 45.3598 48.9967 45.7238 48.654C46.8001 48.8868 47.8985 49.0028 48.9998 49C50.095 48.9986 51.0742 49.6821 51.4504 50.7107H51.4498ZM24.6071 21.286C25.4301 20.781 26.4329 20.6612 27.3518 20.958C27.541 21.0292 27.7523 21.0106 27.9262 20.9076C28.1001 20.8045 28.2179 20.6281 28.2464 20.428C28.2524 20.3867 28.9158 16.3333 36.2531 16.3333C52.9684 16.3333 44.3724 34.4447 47.8331 47.6167C45.177 47.499 42.6527 46.4263 40.7244 44.596C40.6102 44.4866 40.541 44.3385 40.5304 44.1807C40.5068 43.2373 40.6223 42.2957 40.8731 41.386C42.6631 39.108 43.9304 36.838 43.3518 34.0107C42.9638 32.1533 43.2771 32.136 43.4918 30.3613C43.7584 30.3527 44.0251 30.35 44.2971 30.332C44.5353 30.3162 44.7469 30.1745 44.8523 29.9603C44.9576 29.7461 44.9408 29.492 44.8079 29.2936C44.6751 29.0953 44.4466 28.9828 44.2084 28.9987C34.7024 29.63 30.1564 23.9773 30.1124 23.9213C29.9558 23.7202 29.6982 23.626 29.4488 23.6786C29.1994 23.7312 29.0018 23.9214 28.9398 24.1687C28.3831 26.352 26.9904 29.7773 25.1864 31.1307C24.9569 31.3028 24.8632 31.6026 24.954 31.8748C25.0447 32.147 25.2995 32.3307 25.5864 32.3307C25.7308 32.3312 25.8713 32.2844 25.9864 32.1973C26.1916 32.0407 26.3867 31.8713 26.5704 31.69C26.7301 32.459 26.7015 33.2551 26.4871 34.0107C25.9098 36.8347 27.1791 39.1093 28.9658 41.382C29.2202 42.3057 29.335 43.2623 29.3064 44.22C29.2977 44.3678 29.2351 44.5073 29.1304 44.612C28.0838 45.6787 25.7824 47.4153 21.7871 47.6393C23.3124 39.4627 20.0711 24.2153 24.6071 21.286ZM20.9584 49C22.0258 48.9973 23.0902 48.8879 24.1358 48.6733C24.5164 49.0393 25.4324 50.1933 25.6118 52.9073C23.1367 52.54 20.7316 51.7995 18.4784 50.7113C18.8466 49.6636 19.8482 48.9725 20.9584 49Z" fill="black"/>
</g>
<defs>
<clipPath id="clip0">
<rect x="15" y="15" width="40" height="40" fill="white"/>
</clipPath>
</defs>
</svg>
