<svg width="6" height="11" viewBox="0 0 6 11" fill="none" xmlns="http://www.w3.org/2000/svg">
<path d="M5.83709 5.07078L1.29221 0.17573C1.1871 0.0624223 1.04677 0 0.897152 0C0.74753 0 0.607207 0.0624223 0.50209 0.17573L0.167391 0.536134C-0.0503999 0.770977 -0.0503999 1.15267 0.167391 1.38715L3.98384 5.49772L0.163156 9.61285C0.0580388 9.72616 0 9.8772 0 10.0383C0 10.1995 0.0580388 10.3506 0.163156 10.464L0.497855 10.8243C0.603055 10.9376 0.743295 11 0.892917 11C1.04254 11 1.18286 10.9376 1.28798 10.8243L5.83709 5.92475C5.94246 5.81108 6.00033 5.65932 6 5.49799C6.00033 5.33603 5.94246 5.18436 5.83709 5.07078Z" fill="#3C3C3C"/>
</svg>
