<svg width="70" height="70" viewBox="0 0 70 70" fill="none" xmlns="http://www.w3.org/2000/svg">
<circle cx="35" cy="35" r="35" fill="#EDF5FF" fill-opacity="0.5"/>
<circle cx="24.5" cy="27.5" r="10.5" fill="#FFDD87"/>
<path d="M26.7846 41.7598C27.596 41.7598 28.2537 41.1021 28.2537 40.2907C28.2537 39.4793 27.596 38.8215 26.7846 38.8215C25.9732 38.8215 25.3154 39.4793 25.3154 40.2907C25.3154 41.1021 25.9732 41.7598 26.7846 41.7598Z" fill="black"/>
<path d="M42.2157 41.7598C43.0271 41.7598 43.6849 41.1021 43.6849 40.2907C43.6849 39.4793 43.0271 38.8215 42.2157 38.8215C41.4043 38.8215 40.7466 39.4793 40.7466 40.2907C40.7466 41.1021 41.4043 41.7598 42.2157 41.7598Z" fill="black"/>
<path d="M53 39.667C53 37.5389 51.4574 35.7656 49.4319 35.4032V34.7611C49.4319 26.5275 42.7335 19.8291 34.5 19.8291C26.2665 19.8291 19.5681 26.5275 19.5681 34.7611V35.4032C17.5426 35.7657 16 37.539 16 39.667C16 41.8135 17.5691 43.5993 19.6204 43.9402C19.9091 47.2301 21.4143 49.6602 24.1079 51.1725C26.5034 52.5174 29.9026 53.1711 34.5 53.1711C39.0974 53.1711 42.4967 52.5173 44.8922 51.1725C47.5857 49.6602 49.0909 47.2302 49.3796 43.9402C51.4309 43.5994 53 41.8135 53 39.667ZM17.5296 39.667C17.5296 38.3865 18.393 37.3045 19.568 36.9707V42.3634C18.393 42.0296 17.5296 40.9477 17.5296 39.667ZM47.9024 42.7367C47.9024 46.0955 46.6728 48.4186 44.1434 49.8387C41.9826 51.0519 38.8282 51.6415 34.5 51.6415C30.1719 51.6415 27.0174 51.0519 24.8567 49.8387C22.3272 48.4186 21.0976 46.0955 21.0976 42.7367V34.7611C21.0976 28.7089 25.1304 23.5818 30.6496 21.9233C34.8542 21.9764 37.0935 25.0116 37.0935 27.2094C37.0935 28.8927 35.7241 30.2622 34.0407 30.2622C32.7784 30.2622 31.7514 29.2352 31.7514 27.973C31.7514 27.0475 32.5044 26.2945 33.4299 26.2945C33.8523 26.2945 34.1947 25.952 34.1947 25.5297C34.1947 25.1073 33.8523 24.7649 33.4299 24.7649C31.661 24.7649 30.2219 26.204 30.2219 27.973C30.2219 30.0787 31.935 31.7918 34.0407 31.7918C36.5674 31.7918 38.6231 29.7362 38.6231 27.2094C38.6231 25.622 37.8255 23.9142 36.4896 22.6408C35.9552 22.1315 35.3472 21.7033 34.6838 21.3611C41.9894 21.4599 47.9024 27.4325 47.9024 34.7611V42.7367ZM49.4319 42.3635V36.9708C50.607 37.3046 51.4704 38.3866 51.4704 39.6671C51.4704 40.9477 50.6069 42.0296 49.4319 42.3635Z" fill="black"/>
<path d="M37.4579 42.3968C35.8271 44.0278 33.1732 44.0278 31.5424 42.3968C31.2436 42.0982 30.7595 42.0982 30.4608 42.3968C30.1622 42.6955 30.1622 43.1798 30.4608 43.4784C31.5744 44.5921 33.0373 45.1489 34.5002 45.1489C35.963 45.1489 37.4258 44.5921 38.5396 43.4784C38.8382 43.1798 38.8382 42.6955 38.5396 42.3968C38.2407 42.0982 37.7566 42.0982 37.4579 42.3968Z" fill="black"/>
</svg>
