<svg width="70" height="70" viewBox="0 0 70 70" fill="none" xmlns="http://www.w3.org/2000/svg">
<circle cx="35" cy="35" r="35" fill="#EDF5FF" fill-opacity="0.5"/>
<circle cx="22.5" cy="49.5" r="10.5" fill="#A5D7B3"/>
<g clip-path="url(#clip0)">
<path d="M40.9609 28.2067C41.6801 28.1078 42.3201 27.6849 42.691 27.0424C43.3457 25.9086 42.9557 24.4534 41.8219 23.7986C41.2726 23.4815 40.6329 23.3973 40.02 23.5614C39.4074 23.7256 38.8952 24.1185 38.5783 24.6678C38.2072 25.3103 38.1609 26.0761 38.435 26.7485L36.4422 30.2C36.1458 30.101 35.8291 30.0465 35.4999 30.0465C33.8549 30.0465 32.5166 31.3849 32.5166 33.0298C32.5166 33.3976 32.8146 33.6957 33.1824 33.6957C33.5503 33.6957 33.8483 33.3977 33.8483 33.0298C33.8483 32.119 34.5893 31.3781 35.5 31.3781C36.4107 31.3781 37.1517 32.1191 37.1517 33.0298C37.1517 33.3976 37.4498 33.6957 37.8175 33.6957C38.1853 33.6957 38.4834 33.3977 38.4834 33.0298C38.4834 32.8708 38.4705 32.7147 38.4464 32.5623L40.9609 28.2067ZM39.7544 26.4133C39.5459 26.0836 39.5371 25.6699 39.7314 25.3335C39.8707 25.0922 40.0956 24.9196 40.3647 24.8476C40.6335 24.7755 40.9147 24.8124 41.1561 24.9517C41.6541 25.2393 41.8254 25.8784 41.5378 26.3765C41.3435 26.7129 40.9815 26.913 40.5912 26.8965C40.3422 26.8853 40.1115 27.0145 39.9878 27.2288L39.3684 28.3016L39.1488 28.1749L39.7682 27.1021C39.8919 26.8877 39.8867 26.6225 39.7544 26.4133ZM37.7607 31.0865C37.703 31.0196 37.6426 30.9551 37.5794 30.8934L38.4832 29.328L38.7028 29.4547L37.7607 31.0865Z" fill="black"/>
<path d="M46.818 49.1356L44.8742 51.0205C44.6102 51.2764 44.6037 51.6979 44.8598 51.9619C44.9904 52.0967 45.1639 52.1642 45.3378 52.1642C45.5047 52.1642 45.672 52.1018 45.8012 51.9763L47.7451 50.0915C48.0091 49.8356 48.0156 49.414 47.7595 49.1501C47.5035 48.8862 47.082 48.8795 46.818 49.1356Z" fill="black"/>
<path d="M48.6757 41.8512C48.392 41.6174 47.9722 41.6578 47.7385 41.9417L46.0894 43.9433C45.8556 44.227 45.8962 44.6467 46.18 44.8805C46.304 44.9827 46.454 45.0325 46.6031 45.0325C46.7951 45.0325 46.9857 44.9499 47.1172 44.79L48.7663 42.7884C49.0001 42.5046 48.9595 42.085 48.6757 41.8512Z" fill="black"/>
<path d="M51.2364 33.8296C51.1402 33.1743 50.7485 32.6218 50.1616 32.3136C49.6762 32.0587 49.1292 32.0091 48.6183 32.1646C48.3705 30.8537 47.9788 29.5241 47.4675 28.2275C49.0144 27.4245 50.0134 25.8174 50.0134 24.0345C50.0134 21.6271 48.2028 19.6359 45.8722 19.3475C45.9257 19.1101 45.9548 18.8653 45.9548 18.6149C45.9548 16.4669 43.8927 14.7194 41.3584 14.7194C40.7877 14.7194 40.2341 14.8061 39.7085 14.9773C39.067 14.6997 38.3826 14.488 37.6728 14.3459C37.6771 14.2907 37.68 14.2352 37.68 14.1797C37.6798 12.9779 36.702 12 35.4999 12C34.298 12 33.32 12.9779 33.32 14.1799C33.32 14.2354 33.323 14.2908 33.3272 14.346C32.6173 14.488 31.9329 14.6998 31.2915 14.9775C30.7658 14.8062 30.2123 14.7196 29.6416 14.7196C27.1071 14.7196 25.0451 16.4671 25.0451 18.615C25.0451 18.8655 25.0743 19.1102 25.1278 19.3476C22.7971 19.636 20.9866 21.6271 20.9866 24.0347C20.9866 25.8174 21.9856 27.4247 23.5325 28.2276C23.0211 29.5243 22.6294 30.8538 22.3817 32.1646C21.8706 32.0092 21.3235 32.0589 20.8384 32.3137C20.2515 32.6219 19.8597 33.1744 19.7636 33.8296C19.25 37.3266 18.6781 45.338 18.6299 53.2976C18.6271 53.7515 18.8018 54.1788 19.1219 54.5008C19.4419 54.8228 19.8681 55.0001 20.322 55.0001H50.678C51.132 55.0001 51.5582 54.8228 51.8782 54.5008C52.1983 54.1788 52.373 53.7516 52.3702 53.2976C52.3218 45.338 51.75 37.3266 51.2364 33.8296ZM45.2817 20.6421C45.2841 20.6421 45.2865 20.6419 45.2889 20.6419C47.1597 20.6419 48.6816 22.164 48.6816 24.0346C48.6816 25.2809 48.002 26.4073 46.9417 26.9984C46.8253 26.7457 46.7046 26.4949 46.5796 26.2466C47.3473 25.798 47.8496 24.9658 47.8496 24.0346C47.8496 22.6227 46.7009 21.4739 45.2889 21.4739C44.7411 21.4739 44.2163 21.6504 43.7844 21.9642C43.7762 21.9544 43.7679 21.9445 43.7597 21.9348C44.3793 21.6118 44.902 21.1679 45.2817 20.6421ZM31.1119 36.8302C28.2387 34.9114 25.4714 33.6041 23.6845 32.7606C23.6669 32.7523 23.6499 32.7443 23.6325 32.736C24.2545 29.0978 26.157 25.1315 28.593 22.4068C28.9302 22.4738 29.2809 22.5103 29.6418 22.5103C30.4149 22.5103 31.1701 22.347 31.8433 22.036C32.9532 22.3468 34.211 22.5103 35.5 22.5103C36.789 22.5103 38.0468 22.3468 39.1568 22.036C39.8299 22.347 40.5852 22.5103 41.3583 22.5103C41.7191 22.5103 42.0699 22.4738 42.4071 22.4068C44.8431 25.1313 46.7456 29.0977 47.3675 32.736C47.35 32.7442 47.333 32.7522 47.3153 32.7607C45.5659 33.5864 42.7877 34.8987 39.897 36.8302H31.1119ZM38.0285 38.1618C37.1717 38.8138 36.3226 39.5225 35.5042 40.2915C34.6858 39.5219 33.8372 38.8134 32.9811 38.1618H38.0285ZM24.482 24.0346C24.482 23.357 25.0334 22.8055 25.7111 22.8055C25.957 22.8055 26.1932 22.8801 26.3926 23.013C25.9147 23.665 25.4667 24.3551 25.0535 25.0726C24.7069 24.8526 24.482 24.4661 24.482 24.0346ZM44.6075 23.013C44.8068 22.8801 45.043 22.8055 45.2889 22.8055C45.9666 22.8055 46.518 23.3569 46.518 24.0346C46.518 24.4661 46.2932 24.8525 45.9466 25.0726C45.5333 24.3551 45.0853 23.665 44.6075 23.013ZM35.4999 13.3316C35.9625 13.3316 36.3392 13.704 36.3474 14.1647C36.0668 14.1434 35.784 14.1325 35.4999 14.1325C35.2159 14.1325 34.9331 14.1434 34.6525 14.1647C34.6607 13.704 35.0374 13.3316 35.4999 13.3316ZM29.6417 16.0512C30.1454 16.0512 30.629 16.1399 31.0794 16.3151C31.249 16.3811 31.4383 16.3747 31.6032 16.2975C32.4141 15.9174 33.7484 15.4643 35.4999 15.4643C37.2515 15.4643 38.5858 15.9174 39.3966 16.2975C39.5616 16.3747 39.751 16.381 39.9205 16.3151C40.3708 16.1399 40.8544 16.0512 41.3582 16.0512C43.1584 16.0512 44.623 17.2013 44.623 18.615C44.623 20.0287 43.1584 21.1788 41.3582 21.1788C40.7055 21.1788 40.0743 21.026 39.533 20.7368C39.4355 20.6848 39.3277 20.6583 39.2194 20.6583C39.1537 20.6583 39.0877 20.6679 39.0238 20.6877C37.9777 21.009 36.7591 21.1789 35.4999 21.1789C34.2407 21.1789 33.0221 21.0091 31.976 20.6877C31.8068 20.6356 31.6232 20.6533 31.4668 20.7369C30.9255 21.0261 30.2944 21.1789 29.6417 21.1789C27.8415 21.1789 26.3769 20.0288 26.3769 18.6151C26.3769 17.2013 27.8414 16.0512 29.6417 16.0512ZM22.3183 24.0346C22.3183 22.1639 23.8404 20.6419 25.7111 20.6419C25.7135 20.6419 25.7158 20.6421 25.7183 20.6421C26.098 21.168 26.6208 21.6118 27.2403 21.9348C27.2321 21.9446 27.2239 21.9545 27.2156 21.9642C26.7835 21.6504 26.2588 21.474 25.7111 21.474C24.2992 21.474 23.1505 22.6227 23.1505 24.0347C23.1505 24.9658 23.6528 25.7981 24.4205 26.2467C24.2955 26.495 24.1747 26.7457 24.0583 26.9984C22.9979 26.4072 22.3183 25.2808 22.3183 24.0346ZM20.3219 53.6683V53.6684C20.2252 53.6684 20.1343 53.6306 20.0662 53.5621C19.9979 53.4936 19.9607 53.4024 19.9614 53.3057C20.0076 45.6933 20.5668 37.5236 21.081 34.0231C21.1147 33.794 21.2518 33.6007 21.4574 33.4926C21.6635 33.3842 21.9016 33.3812 22.1102 33.4841C22.3935 33.6237 22.7284 33.7817 23.1159 33.9648C25.7444 35.2056 30.5491 37.4748 34.5539 41.2263C31.4983 44.3853 29.0474 48.4656 28.5725 53.6683H20.3219ZM50.9337 53.562C50.8656 53.6306 50.7748 53.6683 50.678 53.6683H29.9099C30.3958 48.7283 32.8692 44.2954 37.2698 40.4832C41.0946 37.1699 45.511 35.0849 47.8837 33.9649C48.2714 33.7819 48.6062 33.6238 48.8896 33.4841C49.0984 33.3812 49.3363 33.3845 49.5425 33.4926C49.7481 33.6006 49.8852 33.794 49.919 34.0231C50.433 37.5237 50.9925 45.6933 51.0385 53.3057C51.0392 53.4024 51.002 53.4934 50.9337 53.562Z" fill="black"/>
<path d="M27.6756 30.7457H28.4468C28.8146 30.7457 29.1127 30.4477 29.1127 30.0799C29.1127 29.7121 28.8147 29.4141 28.4468 29.4141H27.6756C27.3078 29.4141 27.0098 29.712 27.0098 30.0799C27.0098 30.4477 27.3078 30.7457 27.6756 30.7457Z" fill="black"/>
<path d="M29.1261 32.3623H26.9974C26.6296 32.3623 26.3315 32.6604 26.3315 33.0281C26.3315 33.3959 26.6295 33.694 26.9974 33.694H29.1261C29.4939 33.694 29.792 33.396 29.792 33.0281C29.7919 32.6604 29.4938 32.3623 29.1261 32.3623Z" fill="black"/>
<path d="M41.2085 33.0279C41.2085 33.3956 41.5066 33.6937 41.8743 33.6937H44.0031C44.3708 33.6937 44.6689 33.3957 44.6689 33.0279C44.6689 32.6602 44.3709 32.3621 44.0031 32.3621H41.8743C41.5066 32.3621 41.2085 32.6602 41.2085 33.0279Z" fill="black"/>
<path d="M45.4015 38.5538C45.517 38.6337 45.649 38.6721 45.7795 38.6721C45.9909 38.6721 46.1985 38.5718 46.3278 38.3849L47.3868 36.8534C47.5958 36.551 47.5203 36.1362 47.2178 35.9271C46.9153 35.7178 46.5006 35.7937 46.2915 36.0961L45.2326 37.6276C45.0234 37.93 45.0989 38.3447 45.4015 38.5538Z" fill="black"/>
<path d="M41.8872 30.0799C41.8872 30.4477 42.1852 30.7457 42.553 30.7457H43.3243C43.692 30.7457 43.9901 30.4477 43.9901 30.0799C43.9901 29.7121 43.6921 29.4141 43.3243 29.4141H42.553C42.1852 29.4141 41.8872 29.7121 41.8872 30.0799Z" fill="black"/>
<path d="M22.8124 45.425L24.647 43.5356C24.9032 43.2718 24.8969 42.8503 24.6331 42.5941C24.3694 42.3381 23.9478 42.3441 23.6917 42.608L21.8571 44.4973C21.6009 44.7611 21.6072 45.1826 21.871 45.4388C22.0003 45.5644 22.1676 45.6269 22.3347 45.6269C22.5084 45.627 22.6819 45.5595 22.8124 45.425Z" fill="black"/>
<path d="M23.1946 37.6891C22.922 37.4426 22.5009 37.4635 22.2541 37.7361C22.0075 38.0087 22.0285 38.4298 22.3011 38.6765L24.1267 40.3284C24.2541 40.4437 24.4139 40.5006 24.5733 40.5006C24.7548 40.5006 24.9357 40.4268 25.0671 40.2815C25.3138 40.0089 25.2928 39.5878 25.0201 39.341L23.1946 37.6891Z" fill="black"/>
<path d="M23.5168 48.2986C23.3131 47.9926 22.8999 47.9095 22.5937 48.1135C22.2877 48.3173 22.2048 48.7305 22.4086 49.0367L23.6661 50.925C23.7942 51.1176 24.0056 51.2218 24.2208 51.2218C24.3475 51.2218 24.4758 51.1857 24.5892 51.1101C24.8953 50.9062 24.9782 50.493 24.7743 50.1869L23.5168 48.2986Z" fill="black"/>
<path d="M28.5186 45.3507L26.3259 46.3222C25.9898 46.4713 25.838 46.8645 25.9869 47.2006C26.0971 47.4492 26.3406 47.5969 26.596 47.5969C26.6861 47.5969 26.7777 47.5786 26.8653 47.5397L29.058 46.5681C29.3941 46.4191 29.5459 46.0259 29.397 45.6897C29.2481 45.3534 28.8546 45.2012 28.5186 45.3507Z" fill="black"/>
<path d="M30.3821 40.8266C30.2377 40.4884 29.847 40.3315 29.5083 40.4756L27.3445 41.3991C27.0063 41.5436 26.8492 41.9347 26.9936 42.2729C27.1016 42.526 27.3476 42.6775 27.6063 42.6775C27.6934 42.6775 27.782 42.6603 27.8673 42.624L30.0311 41.7005C30.3693 41.5559 30.5265 41.1647 30.3821 40.8266Z" fill="black"/>
<path d="M43.1881 46.3042L41.5467 45.6399C41.2057 45.5018 40.8177 45.6665 40.6797 46.0073C40.5417 46.3482 40.7062 46.7363 41.0471 46.8743L42.6886 47.5386C42.7705 47.5717 42.855 47.5874 42.938 47.5874C43.2013 47.5874 43.4507 47.4302 43.5555 47.1713C43.6934 46.8303 43.529 46.4421 43.1881 46.3042Z" fill="black"/>
<path d="M39.7084 48.5823C39.5338 48.2587 39.1298 48.1377 38.8064 48.3125C38.4827 48.487 38.3619 48.8909 38.5366 49.2145L39.5877 51.1631C39.708 51.3863 39.9374 51.5129 40.1743 51.5129C40.281 51.5129 40.3893 51.4873 40.4898 51.4331C40.8135 51.2585 40.9343 50.8546 40.7596 50.5311L39.7084 48.5823Z" fill="black"/>
<path d="M45.3062 42.2877C45.5237 41.9912 45.4597 41.5745 45.1632 41.357L43.7179 40.2969C43.4215 40.0792 43.0047 40.1432 42.7872 40.4398C42.5698 40.7363 42.6337 41.153 42.9302 41.3705L44.3755 42.4307C44.4942 42.5178 44.6322 42.5597 44.7689 42.5597C44.9736 42.5597 45.1758 42.4655 45.3062 42.2877Z" fill="black"/>
<path d="M33.6819 49.345C33.42 49.0872 32.9984 49.0904 32.7404 49.3528C32.4825 49.6149 32.4861 50.0364 32.7483 50.2942L34.2454 51.7668C34.375 51.8944 34.5437 51.958 34.7123 51.958C34.8845 51.958 35.0567 51.8915 35.187 51.759C35.4449 51.4969 35.4413 51.0754 35.1792 50.8175L33.6819 49.345Z" fill="black"/>
<path d="M37.9963 43.4176C37.6874 43.2182 37.2754 43.3067 37.0757 43.6155L35.8039 45.584C35.6043 45.8928 35.693 46.305 36.0018 46.5045C36.1136 46.5767 36.2388 46.6111 36.3626 46.6111C36.581 46.6111 36.795 46.5037 36.9225 46.3065L38.1943 44.3379C38.3938 44.0293 38.3051 43.6171 37.9963 43.4176Z" fill="black"/>
</g>
<defs>
<clipPath id="clip0">
<rect width="43" height="43" fill="white" transform="translate(14 12)"/>
</clipPath>
</defs>
</svg>
