<svg width="51" height="51" viewBox="0 0 51 51" fill="none" xmlns="http://www.w3.org/2000/svg">
<circle cx="25.5" cy="25.5" r="25.5" fill="#EDF5FF" fill-opacity="0.5"/>
<circle cx="29" cy="33" r="8" fill="#FFDD87"/>
<g clip-path="url(#clip0)">
<path d="M34.4002 25.3042V24.485C34.4002 23.5616 34.2575 22.6545 33.9766 21.7841L37.1339 19.2415C37.4691 18.9715 37.5932 18.5349 37.4501 18.129C37.3071 17.7232 36.9365 17.461 36.5061 17.461H35.1467L37.24 13.7703C37.4505 13.3992 37.4479 12.9574 37.2332 12.5887C37.0184 12.2201 36.6355 12 36.2088 12H32.3407C31.8904 12 31.472 12.2616 31.2749 12.6666L29.3885 16.5417C28.7161 16.2206 28.0064 15.9867 27.2732 15.8458C26.7271 15.7406 26.165 15.6873 25.6025 15.6873C23.5034 15.6873 21.4709 16.4388 19.8794 17.8034C19.7113 17.9475 19.6919 18.2007 19.836 18.3687C19.9153 18.4612 20.0276 18.5087 20.1406 18.5087C20.2329 18.5087 20.3257 18.4769 20.4013 18.4121C21.8476 17.172 23.6947 16.4891 25.6024 16.4891C26.1141 16.4891 26.6253 16.5376 27.1217 16.6332C27.7857 16.7608 28.4281 16.973 29.0371 17.2633L28.3672 18.6395C28.2176 18.9468 28.2365 19.3033 28.4177 19.5931C28.599 19.883 28.9112 20.056 29.2531 20.056H30.537L29.3653 23.1654C29.2082 23.5825 29.3451 24.0384 29.7062 24.2998C29.8796 24.4254 30.0795 24.4878 30.279 24.4878C30.4947 24.4878 30.7099 24.4147 30.8904 24.2695L33.3027 22.3267C33.4987 23.0263 33.5982 23.7499 33.5982 24.485V25.3203C30.8514 25.2842 27.0669 24.8979 23.8835 23.3491C21.8931 22.3808 21.0725 21.4022 21.0653 21.3935C20.9582 21.2618 20.7798 21.2118 20.62 21.2686C20.46 21.3253 20.3532 21.4767 20.3532 21.6464C20.3532 22.347 20.007 23.1203 19.3784 23.8237C18.8903 24.3698 18.2644 24.8298 17.6071 25.1347V24.485C17.6071 22.7164 18.1726 21.0404 19.2427 19.6383C19.3771 19.4623 19.3433 19.2107 19.1672 19.0764C18.9913 18.942 18.7396 18.9759 18.6053 19.1519C17.4276 20.6949 16.8052 22.5391 16.8052 24.485V25.3066C16.738 25.3043 16.679 25.3027 16.6442 25.3027C14.9059 25.3027 13.4917 26.7166 13.4917 28.4546C13.4917 30.1929 14.9059 31.6071 16.6442 31.6071C16.7349 31.6071 16.8254 31.6023 16.9157 31.5945C17.5848 35.7863 21.225 39 25.6023 39C26.1649 39 26.7271 38.9466 27.2729 38.8414C29.6055 38.393 31.6884 36.9874 32.9878 34.9851C33.1083 34.7994 33.0554 34.5511 32.8697 34.4306C32.684 34.31 32.4356 34.3629 32.3151 34.5487C31.1339 36.3689 29.241 37.6465 27.1214 38.0541C26.6252 38.1497 26.1141 38.1982 25.6023 38.1982C21.1938 38.1982 17.6071 34.6115 17.6071 30.2029V26.006C18.4922 25.664 19.3251 25.0869 19.9763 24.3581C20.5044 23.7672 20.8677 23.1221 21.0403 22.4821C21.5199 22.8921 22.3074 23.4674 23.4719 24.0404C25.3476 24.9634 28.613 26.0599 33.5982 26.1221V30.2029C33.5982 31.2558 33.3969 32.2787 32.9998 33.2435C32.9155 33.4483 33.0132 33.6826 33.218 33.7669C33.2679 33.7874 33.3196 33.7971 33.3704 33.7971C33.5281 33.7971 33.6776 33.7035 33.7413 33.5487C33.9995 32.9213 34.1819 32.2715 34.2885 31.6062C34.3057 31.6065 34.3229 31.6071 34.3401 31.6071C36.0781 31.6071 37.492 30.193 37.492 28.4547C37.4921 26.7367 36.1105 25.3364 34.4002 25.3042ZM30.3875 23.6449C30.2975 23.7173 30.2166 23.6793 30.1765 23.6503C30.1363 23.6212 30.075 23.5563 30.1157 23.4482L31.4917 19.7965C31.5381 19.6734 31.5211 19.5353 31.4463 19.427C31.3714 19.3188 31.2482 19.2542 31.1165 19.2542H29.2531C29.1647 19.2542 29.1177 19.2002 29.0976 19.168C29.0775 19.1358 29.0495 19.07 29.0882 18.9905L31.9959 13.0176C32.0597 12.8866 32.1951 12.8019 32.3408 12.8019H36.2088C36.4078 12.8019 36.5069 12.9351 36.5402 12.9924C36.5736 13.0497 36.6406 13.2016 36.5424 13.3747L34.1096 17.6641C34.0392 17.7882 34.0401 17.9404 34.1119 18.0637C34.1838 18.187 34.3157 18.2628 34.4584 18.2628H36.5061C36.6333 18.2628 36.6798 18.3558 36.6938 18.3957C36.7079 18.4356 36.73 18.5371 36.631 18.6169L30.3875 23.6449ZM16.6443 30.8052C15.3482 30.8052 14.2937 29.7507 14.2937 28.4546C14.2937 27.1588 15.3482 26.1046 16.6443 26.1046C16.6732 26.1046 16.733 26.1064 16.8053 26.109V27.4535C16.2574 27.4417 15.571 27.6304 15.2462 28.3774C15.1578 28.5805 15.2509 28.8167 15.454 28.905C15.5061 28.9276 15.5603 28.9383 15.6136 28.9383C15.7685 28.9383 15.9159 28.8481 15.9815 28.6971C16.1535 28.3016 16.5344 28.2412 16.8053 28.254V30.2029C16.8053 30.4027 16.8127 30.6009 16.8259 30.7975C16.7655 30.8021 16.705 30.8052 16.6443 30.8052ZM34.3797 30.8042C34.393 30.6049 34.4002 30.4044 34.4002 30.2029V28.254C34.6711 28.2412 35.0516 28.3019 35.2235 28.6971C35.2891 28.8481 35.4365 28.9383 35.5914 28.9383C35.6447 28.9383 35.699 28.9276 35.751 28.905C35.9541 28.8167 36.0471 28.5805 35.9588 28.3774C35.6342 27.6307 34.9481 27.4419 34.4002 27.4535V26.1061C35.6683 26.1381 36.6903 27.1789 36.6903 28.4546C36.6903 29.7375 35.6573 30.783 34.3797 30.8042Z" fill="black"/>
<path d="M23.5746 33.81C24.6928 32.6918 26.5121 32.6919 27.6302 33.81C27.7085 33.8883 27.8112 33.9274 27.9137 33.9274C28.0163 33.9274 28.119 33.8883 28.1972 33.81C28.3538 33.6534 28.3538 33.3995 28.1972 33.243C26.7664 31.8122 24.4384 31.8123 23.0076 33.243C22.851 33.3996 22.851 33.6535 23.0076 33.81C23.1642 33.9666 23.418 33.9666 23.5746 33.81Z" fill="black"/>
<path d="M20.8709 30.1369C20.9239 30.3093 21.0826 30.42 21.2539 30.42C21.293 30.42 21.3327 30.4143 21.372 30.4022L23.4912 29.7501C23.6256 29.7087 23.7285 29.6 23.7624 29.4635C23.7963 29.327 23.7562 29.1828 23.6567 29.0834L22.2304 27.657C22.0738 27.5004 21.8199 27.5004 21.6634 27.657C21.5068 27.8136 21.5068 28.0674 21.6634 28.224L22.6189 29.1795L21.1362 29.6357C20.9245 29.7009 20.8057 29.9252 20.8709 30.1369Z" fill="black"/>
<path d="M29.8937 30.42C30.0651 30.42 30.2238 30.3092 30.2768 30.1369C30.3419 29.9252 30.2232 29.7008 30.0115 29.6357L28.5288 29.1795L29.4844 28.224C29.6409 28.0674 29.6409 27.8135 29.4844 27.657C29.3278 27.5004 29.0739 27.5004 28.9174 27.657L27.491 29.0834C27.3916 29.1828 27.3515 29.3271 27.3854 29.4635C27.4193 29.6 27.5222 29.7088 27.6566 29.7501L29.7758 30.4022C29.815 30.4143 29.8547 30.42 29.8937 30.42Z" fill="black"/>
<path d="M15.9495 16.8814L14.399 17.2392C14.2707 17.2688 14.1651 17.3595 14.1165 17.4819C14.0679 17.6042 14.0825 17.7427 14.1555 17.8522L15.7857 20.2975C15.8629 20.4134 15.9901 20.4761 16.1196 20.4761C16.1961 20.4761 16.2733 20.4543 16.3417 20.4087C16.5259 20.2859 16.5757 20.0369 16.4528 19.8527L15.1444 17.8901L16.6984 17.5315C16.8271 17.5018 16.933 17.4107 16.9813 17.2878C17.0297 17.1649 17.0145 17.026 16.9406 16.9166L14.685 13.5747C14.5611 13.3911 14.3118 13.3427 14.1284 13.4666C13.9448 13.5905 13.8964 13.8397 14.0203 14.0233L15.9495 16.8814Z" fill="black"/>
<path d="M18.989 16.9394C19.0542 17.0912 19.2021 17.1821 19.3574 17.1821C19.4103 17.1821 19.464 17.1715 19.5157 17.1494C19.7191 17.0618 19.8131 16.826 19.7256 16.6226L19.079 15.1195L20.1381 15.0717C20.27 15.0658 20.3906 14.9952 20.4604 14.8831C20.5302 14.771 20.5403 14.6317 20.4874 14.5107L19.6598 12.6165C19.5711 12.4136 19.3346 12.3209 19.1319 12.4097C18.9289 12.4983 18.8363 12.7347 18.925 12.9376L19.5189 14.2969L18.4635 14.3445C18.3319 14.3504 18.2117 14.4205 18.1417 14.5321C18.0718 14.6437 18.0612 14.7825 18.1132 14.9034L18.989 16.9394Z" fill="black"/>
</g>
<defs>
<clipPath id="clip0">
<rect width="27" height="27" fill="white" transform="translate(12 12)"/>
</clipPath>
</defs>
</svg>
