<svg width="68" height="11" viewBox="0 0 68 11" fill="none" xmlns="http://www.w3.org/2000/svg">
<g clip-path="url(#clip0)">
<path d="M12.0561 4.76657C12.2954 4.56568 12.3799 4.27085 12.2766 3.99677C12.1732 3.7227 11.9036 3.52705 11.5725 3.48553L8.62851 3.1171C8.50312 3.10137 8.39478 3.03364 8.33878 2.93571L7.02259 0.63828C6.87481 0.380144 6.57486 0.219727 6.24057 0.219727C5.90654 0.219727 5.60658 0.380144 5.4588 0.63828L4.14236 2.93592C4.08637 3.03385 3.97778 3.10158 3.85239 3.11731L0.908377 3.48574C0.577504 3.52705 0.307741 3.72291 0.204267 3.99698C0.101037 4.27106 0.18552 4.56589 0.424849 4.76678L2.55495 6.55507C2.64577 6.63139 2.6874 6.74128 2.66597 6.84864L2.16346 9.3738C2.1189 9.59608 2.18659 9.81227 2.3536 9.98276C2.61314 10.2484 3.06624 10.3294 3.42852 10.1654L6.06138 8.97307C6.17143 8.92337 6.30996 8.92379 6.41977 8.97307L9.05288 10.1654C9.18094 10.2235 9.31752 10.2528 9.45849 10.2528C9.71584 10.2528 9.95979 10.1543 10.1275 9.98276C10.2948 9.81227 10.3622 9.59566 10.3177 9.3738L9.81493 6.84864C9.79351 6.74107 9.83514 6.63139 9.92595 6.55507L12.0561 4.76657Z" fill="#FF9900"/>
</g>
<g clip-path="url(#clip1)">
<path d="M26.0857 4.76657C26.325 4.56568 26.4095 4.27085 26.3063 3.99677C26.2028 3.7227 25.9333 3.52705 25.6022 3.48553L22.6582 3.1171C22.5328 3.10137 22.4244 3.03364 22.3684 2.93571L21.0522 0.63828C20.9044 0.380144 20.6045 0.219727 20.2702 0.219727C19.9362 0.219727 19.6362 0.380144 19.4884 0.63828L18.172 2.93592C18.116 3.03385 18.0074 3.10158 17.882 3.11731L14.938 3.48574C14.6071 3.52705 14.3374 3.72291 14.2339 3.99698C14.1307 4.27106 14.2152 4.56589 14.4545 4.76678L16.5846 6.55507C16.6754 6.63139 16.717 6.74128 16.6956 6.84864L16.1931 9.3738C16.1485 9.59608 16.2162 9.81227 16.3832 9.98276C16.6428 10.2484 17.0959 10.3294 17.4582 10.1654L20.091 8.97307C20.2011 8.92337 20.3396 8.92379 20.4494 8.97307L23.0825 10.1654C23.2106 10.2235 23.3472 10.2528 23.4881 10.2528C23.7455 10.2528 23.9894 10.1543 24.1572 9.98276C24.3244 9.81227 24.3919 9.59566 24.3473 9.3738L23.8446 6.84864C23.8231 6.74107 23.8648 6.63139 23.9556 6.55507L26.0857 4.76657Z" fill="#FF9900"/>
</g>
<g clip-path="url(#clip2)">
<path d="M39.1795 4.76657C39.4188 4.56568 39.5033 4.27085 39.4 3.99677C39.2966 3.7227 39.027 3.52705 38.6959 3.48553L35.7519 3.1171C35.6265 3.10137 35.5182 3.03364 35.4622 2.93571L34.146 0.63828C33.9982 0.380144 33.6983 0.219727 33.364 0.219727C33.0299 0.219727 32.73 0.380144 32.5822 0.63828L31.2658 2.93592C31.2098 3.03385 31.1012 3.10158 30.9758 3.11731L28.0318 3.48574C27.7009 3.52705 27.4311 3.72291 27.3277 3.99698C27.2244 4.27106 27.3089 4.56589 27.5482 4.76678L29.6784 6.55507C29.7692 6.63139 29.8108 6.74128 29.7894 6.84864L29.2869 9.3738C29.2423 9.59608 29.31 9.81227 29.477 9.98276C29.7365 10.2484 30.1896 10.3294 30.5519 10.1654L33.1848 8.97307C33.2948 8.92337 33.4334 8.92379 33.5432 8.97307L36.1763 10.1654C36.3043 10.2235 36.4409 10.2528 36.5819 10.2528C36.8392 10.2528 37.0832 10.1543 37.2509 9.98276C37.4182 9.81227 37.4856 9.59566 37.4411 9.3738L36.9383 6.84864C36.9169 6.74107 36.9585 6.63139 37.0493 6.55507L39.1795 4.76657Z" fill="#FF9900"/>
</g>
<g clip-path="url(#clip3)">
<path d="M53.2091 4.76657C53.4484 4.56568 53.5329 4.27085 53.4297 3.99677C53.3262 3.7227 53.0567 3.52705 52.7256 3.48553L49.7816 3.1171C49.6562 3.10137 49.5478 3.03364 49.4918 2.93571L48.1756 0.63828C48.0279 0.380144 47.7279 0.219727 47.3936 0.219727C47.0596 0.219727 46.7596 0.380144 46.6118 0.63828L45.2954 2.93592C45.2394 3.03385 45.1308 3.10158 45.0054 3.11731L42.0614 3.48574C41.7305 3.52705 41.4608 3.72291 41.3573 3.99698C41.2541 4.27106 41.3386 4.56589 41.5779 4.76678L43.708 6.55507C43.7988 6.63139 43.8404 6.74128 43.819 6.84864L43.3165 9.3738C43.2719 9.59608 43.3396 9.81227 43.5066 9.98276C43.7662 10.2484 44.2193 10.3294 44.5816 10.1654L47.2144 8.97307C47.3245 8.92337 47.463 8.92379 47.5728 8.97307L50.2059 10.1654C50.334 10.2235 50.4706 10.2528 50.6115 10.2528C50.8689 10.2528 51.1128 10.1543 51.2806 9.98276C51.4479 9.81227 51.5153 9.59566 51.4707 9.3738L50.968 6.84864C50.9466 6.74107 50.9882 6.63139 51.079 6.55507L53.2091 4.76657Z" fill="#FF9900"/>
</g>
<g clip-path="url(#clip4)">
<path d="M67.2382 4.76657C67.4776 4.56568 67.5621 4.27085 67.4588 3.99677C67.3554 3.7227 67.0858 3.52705 66.7547 3.48553L63.8107 3.1171C63.6853 3.10137 63.577 3.03364 63.521 2.93571L62.2048 0.63828C62.057 0.380144 61.757 0.219727 61.4228 0.219727C61.0887 0.219727 60.7888 0.380144 60.641 0.63828L59.3246 2.93592C59.2686 3.03385 59.16 3.10158 59.0346 3.11731L56.0906 3.48574C55.7597 3.52705 55.4899 3.72291 55.3865 3.99698C55.2832 4.27106 55.3677 4.56589 55.607 4.76678L57.7371 6.55507C57.828 6.63139 57.8696 6.74128 57.8482 6.84864L57.3456 9.3738C57.3011 9.59608 57.3688 9.81227 57.5358 9.98276C57.7953 10.2484 58.2484 10.3294 58.6107 10.1654L61.2436 8.97307C61.3536 8.92337 61.4922 8.92379 61.602 8.97307L64.2351 10.1654C64.3631 10.2235 64.4997 10.2528 64.6407 10.2528C64.898 10.2528 65.142 10.1543 65.3097 9.98276C65.477 9.81227 65.5444 9.59566 65.4999 9.3738L64.9971 6.84864C64.9757 6.74107 65.0173 6.63139 65.1081 6.55507L67.2382 4.76657Z" fill="#FF9900"/>
</g>
<defs>
<clipPath id="clip0">
<rect width="12.1588" height="10.4722" fill="white" transform="translate(0.161133)"/>
</clipPath>
<clipPath id="clip1">
<rect width="12.1588" height="10.4722" fill="white" transform="translate(14.1908)"/>
</clipPath>
<clipPath id="clip2">
<rect width="12.1588" height="10.4722" fill="white" transform="translate(27.2845)"/>
</clipPath>
<clipPath id="clip3">
<rect width="12.1588" height="10.4722" fill="white" transform="translate(41.3142)"/>
</clipPath>
<clipPath id="clip4">
<rect width="12.1588" height="10.4722" fill="white" transform="translate(55.3433)"/>
</clipPath>
</defs>
</svg>
