<svg width="29" height="29" viewBox="0 0 29 29" fill="none" xmlns="http://www.w3.org/2000/svg">
<path d="M9.51999 4.73709C11.5864 3.6906 14.11 4.51743 15.1564 6.58387L20.8409 17.8087C21.8874 19.8751 21.0606 22.3987 18.9942 23.4452C16.9277 24.4916 14.4042 23.6648 13.3577 21.5984L7.67321 10.3735C6.62672 8.3071 7.45355 5.78358 9.51999 4.73709Z" fill="#08F7C8"/>
<path d="M4.90304 18.8282C3.85656 16.7618 4.68339 14.2383 6.74982 13.1918L17.9747 7.50726C20.0411 6.46077 22.5646 7.2876 23.6111 9.35403C24.6576 11.4205 23.8308 13.944 21.7643 14.9905L10.5395 20.675C8.47306 21.7215 5.94953 20.8946 4.90304 18.8282Z" fill="#08F7C8"/>
</svg>
