<svg width="18" height="18" viewBox="0 0 18 18" fill="none" xmlns="http://www.w3.org/2000/svg">
<path d="M8.4375 15.3633C8.4375 16.2386 7.73094 16.9453 6.85547 16.9453C5.98 16.9453 5.27344 16.2386 5.27344 15.3633V8.35126C8.21036 7.63028 9.49219 5.85077 9.49219 2.53221V1.05469H7.38281V0H6.32812V3.16406H7.38281V2.10938H8.4375V2.53221C8.4375 5.44647 7.4008 6.84682 4.74609 7.40712C2.09138 6.84682 1.05469 5.44647 1.05469 2.53221V2.10938H2.10938V3.16406H3.16406V0H2.10938V1.05469H0V2.53221C0 5.85077 1.28183 7.63028 4.21875 8.35112V15.3633C4.21875 16.8187 5.40005 18 6.85547 18C8.22656 18 9.34456 16.9559 9.48161 15.627C9.13362 15.3211 8.80664 15.0469 8.51138 14.7726C8.45865 14.9626 8.4375 15.1629 8.4375 15.3633Z" fill="#2C1F9C"/>
<path d="M12.1641 13.7812C12.4595 13.7812 12.6914 13.5492 12.6914 13.2539C12.6914 12.9585 12.4595 12.7266 12.1641 12.7266C11.8687 12.7266 11.6367 12.9585 11.6367 13.2539C11.6367 13.5492 11.8687 13.7812 12.1641 13.7812Z" fill="#2C1F9C"/>
<path d="M14.8008 7.41797C13.5352 7.41797 12.6703 8.12453 12.1641 8.8418C11.6579 8.12453 10.7578 7.41797 9.49219 7.41797C7.68864 7.41797 6.32812 8.96127 6.32812 10.9547C6.32812 12.4735 7.1613 13.5386 8.51138 14.7726C8.74333 13.7391 9.61166 12.9375 10.6664 12.7687C10.8669 12.1359 11.4575 11.6719 12.1641 11.6719C13.0395 11.6719 13.7461 12.3784 13.7461 13.2539C13.7461 14.1292 13.0395 14.8359 12.1641 14.8359C11.4997 14.8359 10.9302 14.4246 10.6981 13.8446C10.0231 14.0132 9.49219 14.625 9.49219 15.3633C9.49219 15.4476 9.49219 15.5321 9.48161 15.627C9.62924 15.743 9.77701 15.8695 9.92464 15.9961C10.4941 16.4813 11.1515 17.0332 11.8159 17.6344L12.1641 17.9508L12.5122 17.6344C13.1766 17.0332 13.7988 16.4813 14.3683 15.9961C16.5304 14.161 18 12.9481 18 10.9547C18 8.96127 16.6043 7.41797 14.8008 7.41797Z" fill="#2C1F9C"/>
</svg>
