<svg width="172" height="124" viewBox="0 0 172 124" fill="none" xmlns="http://www.w3.org/2000/svg">
<path d="M148.345 30.0995C148.264 29.9328 148.179 29.7687 148.095 29.6045C148.008 29.4354 147.919 29.2663 147.828 29.0996C146.611 26.8463 145.186 24.7123 143.667 22.7275C143.174 22.0858 142.671 21.4591 142.161 20.8522C141.43 19.9717 140.679 19.1261 139.929 18.3203C138.853 17.1612 137.771 16.0793 136.715 15.0745C133.006 11.5651 127.272 6.63308 120.278 4.42199C111.807 1.7458 101.953 3.53158 94.6435 8.72976C93.1098 9.81665 91.6876 11.0577 90.4141 12.4381C90.0449 12.8435 89.6782 13.2589 89.3264 13.6842C88.4815 14.6915 87.6787 15.7436 86.8957 16.7732C86.8933 16.7807 86.8908 16.7807 86.8858 16.7882C84.7501 19.5937 82.5474 22.4912 79.5716 24.3516C79.304 24.5208 79.029 24.6799 78.749 24.8292C77.8818 25.2967 76.9601 25.6723 75.9839 25.9509C74.1256 26.4931 72.0716 26.6995 69.7971 26.5776C69.5345 26.5652 69.2644 26.5453 68.9943 26.5229C66.8486 26.3438 64.5171 25.8812 61.9849 25.1376C60.5528 24.7172 59.1058 24.2397 57.7034 23.7746C54.3461 22.6653 50.8872 21.5187 47.3243 21.0835C46.6305 20.9964 45.9318 20.9368 45.2331 20.9119C38.4491 20.6532 32.24 23.3891 27.3986 26.5627C27.0442 26.7965 26.6974 27.0303 26.3579 27.2666C25.1562 28.0973 24.0537 28.9479 23.0576 29.7687C22.624 30.1243 22.1706 30.5148 21.6924 30.9401C16.8559 35.233 10.0942 42.9457 9.67799 52.7277C9.46987 57.5577 10.8252 62.552 13.786 67.8397C14.8093 69.6702 16.0284 71.5356 17.4456 73.4433C17.9857 74.177 18.5631 74.9206 19.1676 75.6718C21.13 78.1067 23.2261 80.4446 25.399 82.7104C27.6711 85.0832 30.0299 87.3714 32.4159 89.6123C34.6483 91.709 36.9006 93.7609 39.133 95.7879C39.3485 95.9819 39.5641 96.1809 39.7772 96.3749L40.4586 96.462C40.1067 96.1411 39.7524 95.8203 39.4006 95.4994C37.0691 93.3828 34.7152 91.2414 32.3862 89.0477C30.0547 86.8516 27.7504 84.6081 25.5328 82.2826C23.4218 80.074 21.3876 77.7958 19.4724 75.428C18.9099 74.7291 18.3698 74.0352 17.8619 73.3463C16.4372 71.4361 15.2107 69.5658 14.18 67.7352C11.2166 62.4774 9.86382 57.5204 10.0695 52.7351C10.4733 43.2342 16.9699 35.6956 21.737 31.4152C22.2895 30.9177 22.8173 30.4676 23.3079 30.0597C24.2444 29.2837 25.2801 28.4878 26.4 27.7018C26.9897 27.289 27.6067 26.8761 28.2435 26.4732C30.5353 25.0281 33.1072 23.7 35.8897 22.7474C38.8034 21.7501 41.9427 21.1656 45.2158 21.2899C46.0879 21.3247 46.9501 21.4068 47.8099 21.5312C51.1499 22.0087 54.4105 23.0857 57.5845 24.1352C58.9869 24.5979 60.4388 25.0804 61.8759 25.5007C63.9844 26.12 65.9542 26.5453 67.8001 26.7766C68.2188 26.8313 68.6301 26.8736 69.0364 26.9059C72.307 27.1746 75.1514 26.799 77.6266 25.7793C78.0751 25.5927 78.5137 25.3863 78.9373 25.16C79.2743 24.9784 79.6063 24.7844 79.9235 24.578C82.8447 22.7026 85.0152 19.8797 87.1138 17.1264C87.1435 17.0866 87.1757 17.0468 87.2055 17.0045C87.9587 16.0122 88.7317 15.0024 89.5395 14.0274C89.921 13.5698 90.31 13.1171 90.7089 12.6843C91.9428 11.3438 93.318 10.14 94.8021 9.07796C102.015 3.91212 111.779 2.12882 120.161 4.78014C127.079 6.96636 132.773 11.8561 136.45 15.3431C137.466 16.3081 138.509 17.3478 139.545 18.4595C140.228 19.1933 140.912 19.9543 141.584 20.7452C142.156 21.4193 142.721 22.1157 143.271 22.832C144.738 24.7371 146.118 26.7791 147.302 28.933C147.565 29.4006 147.813 29.8756 148.051 30.3556C148.132 30.5148 148.212 30.679 148.288 30.8406C148.524 31.3306 148.752 31.8256 148.965 32.3255C148.987 32.3802 149.009 32.4324 149.032 32.4896C150.506 35.9717 151.41 39.7024 151.395 43.5898V43.5923C151.393 44.1818 151.371 44.7737 151.326 45.3706C151.324 45.3881 151.324 45.4104 151.321 45.4278C151.299 45.7263 151.272 46.0248 151.234 46.3207C150.501 52.7724 147.327 58.3561 143.519 62.9897C142.818 63.8453 142.094 64.671 141.356 65.4644C141.016 65.8325 140.672 66.1957 140.327 66.5463C138.432 68.4938 136.504 70.2249 134.738 71.7271C134.383 72.033 134.047 72.3191 133.732 72.5926C129.745 76.0573 128.97 77.3282 128.345 81.825C128.328 81.9767 128.306 82.1359 128.283 82.2976C128.192 82.9989 128.105 83.7724 128.006 84.643C127.461 89.4133 126.388 95.5293 122.85 100.541C121.239 102.827 119.242 104.794 116.829 106.463L117.391 106.535C119.691 104.891 121.603 102.966 123.169 100.752C126.752 95.671 127.845 89.4954 128.392 84.6778C128.494 83.7898 128.586 82.9989 128.68 82.2876C128.7 82.1309 128.719 81.9767 128.744 81.83C129.341 77.5371 130.104 76.2662 133.863 72.9856C134.213 72.6797 134.589 72.3588 134.991 72.0156C136.73 70.5333 138.625 68.8345 140.498 66.9194C140.793 66.621 141.086 66.315 141.381 66.0017C142.176 65.1535 142.964 64.2731 143.722 63.3503C147.676 58.5675 150.979 52.77 151.658 46.0322C151.678 45.8581 151.693 45.6791 151.705 45.5025C151.708 45.4851 151.708 45.4676 151.71 45.4477C151.757 44.8508 151.779 44.2539 151.782 43.6644C151.784 43.6545 151.784 43.652 151.784 43.6446C151.807 39.6726 150.885 35.8672 149.384 32.3155C149.361 32.2583 149.336 32.2036 149.312 32.1439C149.009 31.4599 148.685 30.7735 148.345 30.0995Z" fill="#FFDDD9"/>
<path d="M142.808 27.4308C141.993 26.2047 141.116 25.0258 140.214 23.8966C139.505 23.0186 138.784 22.173 138.051 21.3622C137.639 20.907 137.228 20.4618 136.819 20.0315C135.979 19.1511 135.139 18.3179 134.314 17.5369C128.732 12.2442 124.064 9.19247 119.18 7.64794C116.69 6.85951 114.034 6.49639 111.294 6.56603C105.387 6.72272 99.5619 8.92137 95.1738 12.5676C94.376 13.2266 93.6277 13.938 92.934 14.6916C91.7942 15.9302 90.7412 17.3106 89.6213 18.778C89.6188 18.783 89.6139 18.7855 89.6139 18.7904C88.8681 19.7679 88.1173 20.7553 87.3245 21.7203C87.322 21.7228 87.317 21.7278 87.317 21.7327C86.3334 22.9241 85.2903 24.0781 84.1208 25.1252C83.1322 26.0107 82.0519 26.8215 80.8477 27.5204C80.6842 27.6149 80.5157 27.7094 80.3472 27.7989C79.3239 28.3461 78.2362 28.7938 77.0891 29.1395C75.3844 29.6519 73.5484 29.9354 71.6009 29.9876C69.7749 30.0349 67.8571 29.8857 65.8105 29.53C64.2719 29.2639 62.6614 28.8858 60.9592 28.3859C60.2183 28.167 59.4775 27.9357 58.7416 27.7019C58.0082 27.4681 57.2798 27.2269 56.5637 26.9906C53.8209 26.0828 51.1821 25.2098 48.5508 24.7124C47.3813 24.486 46.2143 24.3418 45.0424 24.2945C44.6236 24.2796 44.1925 24.2746 43.7614 24.2871C41.0384 24.3592 38.4095 24.976 35.964 25.9062C34.3188 26.533 32.7505 27.2965 31.2936 28.1322C29.6063 29.0947 28.0602 30.1518 26.6974 31.1939C26.1821 31.5844 25.6915 31.9749 25.2281 32.3554C24.2792 33.1389 23.1915 34.0989 22.0641 35.2231C17.9982 39.2747 13.4144 45.4379 13.1022 52.8173C12.909 57.3489 14.3361 62.1218 17.4382 67.2851C18.4566 68.9814 19.6558 70.7199 21.0433 72.5082C21.3084 72.8489 21.581 73.1946 21.8585 73.5404C23.4764 75.5425 25.191 77.4875 26.97 79.3827C31.5587 84.27 36.5785 88.8339 41.4745 93.2859C42.9016 94.5842 44.3387 95.8925 45.808 97.1709L46.5092 97.2629C44.8912 95.8626 43.3055 94.4251 41.7396 93.0024C36.8288 88.5404 31.799 83.969 27.2103 79.0693C25.4536 77.199 23.7613 75.2789 22.1657 73.2966C21.9204 72.9932 21.6801 72.6897 21.4422 72.3863C20.077 70.6378 18.8926 68.9341 17.8842 67.2702C14.74 62.1044 13.298 57.3365 13.4863 52.8273C13.791 45.7065 18.1493 39.7249 22.1087 35.723C23.3079 34.5068 24.4724 33.4746 25.4759 32.6489C25.8773 32.3181 26.296 31.9823 26.7371 31.6441C28.0973 30.5945 29.6434 29.525 31.3307 28.5476C32.8273 27.682 34.4403 26.8886 36.1375 26.2445C38.5334 25.3416 41.1028 24.7422 43.7664 24.6726C44.1876 24.6601 44.6063 24.6626 45.0226 24.6775C46.2119 24.7223 47.3962 24.8765 48.588 25.1078C51.1623 25.6077 53.7515 26.4608 56.4448 27.3537C56.8883 27.503 57.3392 27.6522 57.7927 27.7989C58.7961 28.1297 59.8169 28.4531 60.8427 28.754C62.2773 29.1719 63.6475 29.5101 64.9656 29.7663C67.3318 30.2264 69.5246 30.4229 71.6059 30.3707C74.1802 30.301 76.5663 29.8334 78.7243 28.9704C79.3462 28.7267 79.9459 28.4456 80.5281 28.1322C80.8725 27.9482 81.202 27.7567 81.5266 27.5552C82.7159 26.8215 83.7813 25.9758 84.7551 25.0606C86.7249 23.2176 88.3453 21.0911 89.9335 19.0093C91.041 17.5518 92.0891 16.1739 93.2214 14.9453C93.8433 14.2688 94.5123 13.6321 95.2184 13.0302C99.5643 9.33921 105.392 7.10823 111.299 6.95154C113.997 6.8819 116.611 7.23756 119.059 8.01107C123.886 9.54316 128.504 12.5651 134.044 17.8155C134.854 18.5865 135.682 19.4048 136.507 20.2678C136.908 20.6906 137.31 21.1184 137.706 21.5611C138.43 22.3545 139.143 23.1902 139.837 24.0508C140.645 25.0531 141.428 26.0952 142.166 27.1771C142.726 27.9929 143.264 28.8311 143.764 29.6892C143.893 29.9056 144.019 30.1269 144.143 30.3483C144.723 31.3755 145.251 32.4325 145.719 33.5144C146.056 34.2855 146.363 35.0739 146.633 35.8698C146.671 35.9767 146.708 36.0886 146.74 36.1956C146.809 36.4045 146.874 36.6085 146.936 36.8199C146.995 37.0164 147.055 37.2104 147.107 37.4068C147.134 37.5088 147.161 37.6108 147.188 37.7153C147.58 39.2076 147.838 40.7322 147.924 42.2891C147.929 42.3389 147.932 42.3861 147.934 42.4384C147.964 42.993 147.974 43.5501 147.959 44.1073C147.949 44.4828 147.932 44.8584 147.902 45.2339C147.813 46.3631 147.642 47.4873 147.377 48.6041C146.908 50.5938 146.163 52.5711 145.124 54.5583C144.188 56.3541 143.013 58.1597 141.589 59.9803C141.457 60.1495 141.324 60.3186 141.185 60.4852C140.407 61.4552 139.56 62.4302 138.638 63.4126C136.869 65.3054 134.839 67.2205 132.538 69.1828C132.533 69.1878 132.528 69.1928 132.523 69.1953C131.267 70.2672 130.233 71.185 129.376 72.0331C127.022 74.3686 126.011 76.1568 125.38 79.0345C125.204 79.8428 125.057 80.7407 124.916 81.7604C124.891 81.942 124.867 82.126 124.839 82.3225C124.76 82.9443 124.681 83.6158 124.599 84.3346C124.101 88.6996 123.132 94.2733 120.048 98.6483C117.986 101.571 115.067 103.931 111.254 105.747L111.945 105.839C115.565 104.028 118.36 101.707 120.365 98.8671C123.504 94.4201 124.483 88.7867 124.986 84.3744C125.067 83.6407 125.149 82.9592 125.231 82.3275C125.256 82.1385 125.278 81.9544 125.303 81.7729C125.461 80.6138 125.637 79.619 125.85 78.7311C126.405 76.4429 127.258 74.8536 128.97 73.0081C129.914 71.9933 131.118 70.899 132.676 69.5683C132.709 69.5385 132.743 69.5111 132.773 69.4863C135.058 67.5413 137.079 65.6361 138.843 63.7583C139.688 62.8605 140.474 61.9676 141.207 61.0772C141.415 60.821 141.618 60.5673 141.819 60.3086C143.692 57.9259 145.147 55.5756 146.205 53.2277C146.869 51.7553 147.377 50.2804 147.731 48.8005C147.763 48.6613 147.798 48.5195 147.828 48.3802C147.845 48.3081 147.86 48.2335 147.875 48.1638C148.078 47.1988 148.217 46.2313 148.291 45.2613C148.345 44.5773 148.363 43.8959 148.35 43.2193C148.35 43.1646 148.348 43.1124 148.348 43.0577C148.35 43.0477 148.348 43.0403 148.348 43.0328C148.291 40.7546 147.88 38.5261 147.206 36.3722C147.186 36.3125 147.169 36.2528 147.149 36.1931C147.136 36.1533 147.124 36.111 147.109 36.0737C147.077 35.9742 147.045 35.8698 147.01 35.7753C146.975 35.6733 146.941 35.5738 146.906 35.4743C146.651 34.7331 146.358 34.0069 146.046 33.2881C145.154 31.2412 144.044 29.2813 142.808 27.4308Z" fill="#FFDDD9"/>
<path d="M137.786 26.3562C137.521 26.0205 137.251 25.6922 136.983 25.3688C136.639 24.9535 136.292 24.5481 135.945 24.1526C135.828 24.0233 135.714 23.8939 135.603 23.7696C135.472 23.6204 135.338 23.4736 135.204 23.3269C134.837 22.9264 134.468 22.536 134.101 22.1504C133.37 21.3943 132.642 20.6731 131.923 19.9941C126.728 15.0695 122.461 12.2565 118.09 10.8712C115.965 10.1971 113.69 9.88873 111.331 9.94842C105.33 10.1076 99.4457 12.6818 95.5557 16.8428C95.521 16.8777 95.4912 16.91 95.459 16.9423C94.4209 18.069 93.4149 19.3897 92.347 20.79C91.408 22.0261 90.4194 23.3244 89.3267 24.5928C88.2737 25.814 87.1215 27.0178 85.8133 28.1196C85.7563 28.1669 85.6993 28.2166 85.6399 28.2639C84.5299 29.1841 83.3108 30.0323 81.9456 30.7635C81.621 30.9376 81.2915 31.1017 80.9595 31.2584C78.1622 32.5692 75.0378 33.278 71.6408 33.3651C69.5893 33.4173 67.451 33.2556 65.1839 32.8602C63.5115 32.5741 61.7696 32.1588 59.9386 31.6241C59.8891 31.6091 59.837 31.5942 59.7875 31.5768C58.2959 31.1391 56.8464 30.659 55.4465 30.1964C53.67 29.607 51.9455 29.0399 50.2607 28.5897C49.7924 28.4629 49.3315 28.3435 48.8682 28.2415C47.5005 27.9281 46.165 27.7192 44.8593 27.6695C44.5124 27.657 44.1556 27.6545 43.8013 27.6645C41.6432 27.7217 39.5322 28.1893 37.5352 28.9106C37.1586 29.0449 36.7844 29.1891 36.4177 29.3433C35.278 29.8134 34.1853 30.3581 33.1422 30.9475C30.9544 32.1837 29.0044 33.6113 27.4063 34.9295C27.2923 35.024 27.1759 35.121 27.0594 35.2205C25.6892 36.372 24.0465 37.9066 22.4682 39.7446C19.495 43.2043 16.7521 47.7483 16.5316 52.8943C16.3532 57.105 17.8721 61.6565 21.1501 66.7229C22.1189 68.2202 23.2413 69.7572 24.5222 71.344C24.5322 71.3615 24.547 71.3814 24.5619 71.3963C26.1352 73.3512 27.8151 75.2514 29.5619 77.1068C34.0515 81.8871 38.997 86.3839 43.8261 90.7713C46.5441 93.241 49.3068 95.7531 52.1982 97.9965L52.9639 98.0985C49.8965 95.763 46.9678 93.0993 44.0912 90.4828C39.2894 86.1178 34.3687 81.6459 29.9013 76.8979C28.1521 75.0449 26.4772 73.1472 24.9063 71.1973C24.8914 71.1824 24.879 71.165 24.8666 71.1525C23.6005 69.5831 22.488 68.0635 21.5292 66.5861C18.2586 61.562 16.7447 57.0528 16.9231 52.9017C17.1288 48.007 19.6783 43.6495 22.5153 40.2794C24.0713 38.4215 25.719 36.8645 27.1065 35.6806C27.2948 35.519 27.4757 35.3672 27.6565 35.2205C28.0678 34.8797 28.5014 34.5315 28.9598 34.1833L28.9673 34.1759C29.0887 34.0839 29.2101 33.9893 29.3389 33.8998C30.4985 33.0293 31.7894 32.1613 33.1794 31.3654C34.22 30.771 35.3151 30.2188 36.4524 29.7413C36.9702 29.5249 37.493 29.3259 38.0258 29.1394C38.4767 28.9852 38.9375 28.8459 39.3984 28.719C40.8305 28.3286 42.3048 28.0823 43.8038 28.045C44.1506 28.0351 44.4975 28.0376 44.837 28.05C46.1576 28.0997 47.5129 28.3161 48.9029 28.6395C49.1085 28.6892 49.3117 28.7365 49.5174 28.7862V28.7887C51.388 29.2563 53.3256 29.8955 55.3177 30.5546C56.5838 30.9749 57.8895 31.4077 59.2325 31.8081C59.4282 31.8703 59.6264 31.9275 59.8222 31.9872C61.2047 32.3926 62.5402 32.7284 63.8336 32.992C66.6061 33.5616 69.1854 33.8078 71.6433 33.7431C75.4689 33.6436 78.9625 32.7681 82.0274 31.144C82.0621 31.1291 82.0943 31.1092 82.124 31.0943C83.6874 30.2586 85.0576 29.2762 86.2915 28.2092C86.299 28.2017 86.3064 28.1967 86.3113 28.1893C87.6419 27.0402 88.8113 25.7941 89.8768 24.5307C90.8728 23.3517 91.7821 22.1579 92.6543 21.0113C93.6627 19.6857 94.6216 18.4272 95.5953 17.3527C95.6449 17.298 95.6919 17.2458 95.739 17.196C99.5572 13.0499 105.387 10.4807 111.331 10.3265C113.645 10.2643 115.878 10.5702 117.962 11.2268C122.273 12.5948 126.497 15.3804 131.651 20.2627C132.357 20.9342 133.078 21.648 133.799 22.3967C134.193 22.8021 134.587 23.2199 134.974 23.6502C135.125 23.8144 135.273 23.9785 135.417 24.1452C135.551 24.2919 135.682 24.4411 135.811 24.5879C136.086 24.8988 136.354 25.2171 136.626 25.5405C136.958 25.9409 137.288 26.3488 137.612 26.7641C139.713 29.4453 141.591 32.4125 142.858 35.5563C143.271 36.571 143.616 37.6057 143.886 38.6577C143.918 38.7722 143.945 38.8841 143.973 38.9985C144.109 39.583 144.23 40.1724 144.317 40.7619C144.53 42.1622 144.594 43.5873 144.483 45.0199C144.367 46.547 144.054 48.0717 143.546 49.5988C143.512 49.7132 143.47 49.8301 143.43 49.947C143.37 50.1186 143.306 50.2902 143.242 50.4593C142.585 52.1904 141.676 53.9314 140.499 55.6998C140.256 56.0654 140.001 56.4335 139.736 56.8016C139.629 56.9483 139.523 57.0951 139.414 57.2393C138.603 58.3287 137.692 59.428 136.678 60.5398V60.5423C135.256 62.1092 133.631 63.7035 131.8 65.3376C131.319 65.7678 130.821 66.1981 130.308 66.6358C125.392 70.8242 123.408 73.299 122.325 77.2088C121.968 78.4996 121.71 79.9397 121.48 81.6558C121.453 81.8424 121.425 82.0364 121.403 82.2328C121.331 82.7925 121.262 83.3794 121.19 84.0012C120.737 87.9658 119.879 92.9948 117.243 96.733C114.629 100.436 110.268 103.108 104.034 104.791L104.996 104.916C105.558 104.752 106.106 104.578 106.638 104.396C111.648 102.68 115.263 100.208 117.563 96.9494C120.251 93.1366 121.123 88.0478 121.577 84.0385C121.648 83.4093 121.718 82.8124 121.792 82.2453C121.819 82.0463 121.842 81.8548 121.871 81.6633C122.089 80.069 122.33 78.7085 122.657 77.4898C123.712 73.5502 125.657 71.0978 130.561 66.9244C130.913 66.6234 131.259 66.3225 131.599 66.0265C133.606 64.2606 135.372 62.542 136.911 60.8532C137.932 59.7365 138.851 58.6297 139.671 57.5378C139.76 57.4159 139.852 57.299 139.936 57.1772C140.164 56.8638 140.385 56.5554 140.595 56.2445C141.968 54.2373 143.001 52.26 143.72 50.2927C143.772 50.1534 143.819 50.0141 143.866 49.8749C143.901 49.7729 143.935 49.6684 143.968 49.564C144.456 48.0567 144.756 46.552 144.874 45.0423C144.991 43.5152 144.914 42.003 144.674 40.5132C144.582 39.9237 144.461 39.3392 144.314 38.7548C144.287 38.6453 144.26 38.5309 144.228 38.4165C143.953 37.3719 143.601 36.3372 143.187 35.3225C141.876 32.1165 139.939 29.0847 137.786 26.3562Z" fill="#FFDDD9"/>
<path d="M137.934 53.4414C137.656 53.8742 137.361 54.3095 137.047 54.7497C137.138 54.8392 137.23 54.9313 137.322 55.0208C137.612 54.6229 137.884 54.2249 138.137 53.8294C138.739 52.9042 139.257 51.9889 139.693 51.0861L139.579 50.4245C139.133 51.4169 138.585 52.4217 137.934 53.4414ZM91.0729 27.7192C90.6592 28.1719 90.2231 28.6245 89.7721 29.0697C89.9134 29.1095 90.0546 29.1493 90.1958 29.1891C90.7013 28.6867 91.1795 28.1719 91.6428 27.657L91.0729 27.7192ZM88.1864 30.5322C86.8162 31.7061 85.28 32.803 83.5357 33.7381C82.3563 34.3699 81.1225 34.9021 79.844 35.3374C79.3881 35.4941 78.9223 35.6383 78.454 35.7677L78.4886 36.1532C79.4723 35.8846 80.4237 35.5637 81.3504 35.1832C82.1631 34.8574 82.951 34.4868 83.7191 34.0764C85.6715 33.0293 87.3564 31.7907 88.8479 30.465L88.1864 30.5322ZM135.976 29.6468C135.877 29.51 135.776 29.3732 135.672 29.2364C135.461 28.9578 135.248 28.6842 135.03 28.4131C134.77 28.0873 134.51 27.764 134.242 27.4456C134.155 27.3436 134.071 27.2392 133.984 27.1372C133.407 26.4632 132.82 25.8091 132.23 25.1773C131.326 24.2073 130.412 23.302 129.524 22.4589C124.713 17.8999 120.85 15.3207 116.99 14.102C115.226 13.5424 113.333 13.2887 111.36 13.3409C106.237 13.4752 101.232 15.6689 97.9709 19.2056C97.3217 19.9095 96.6602 20.7377 95.9689 21.6306C95.6765 22.0112 95.3767 22.4017 95.0719 22.8046C94.7474 23.2299 94.4129 23.6701 94.0635 24.1178C93.1641 25.2843 92.1805 26.5104 91.0754 27.7192C90.6616 28.1719 90.2255 28.6245 89.7746 29.0697C89.2741 29.5647 88.7464 30.0522 88.1889 30.5297C86.8187 31.7036 85.2825 32.8005 83.5382 33.7357C82.3588 34.3674 81.1249 34.8997 79.8464 35.3349C79.3905 35.4916 78.9247 35.6359 78.4564 35.7652C77.2473 36.101 75.9961 36.3522 74.7101 36.5188C73.7191 36.6481 72.7057 36.7277 71.6725 36.7526C70.2973 36.7874 68.895 36.7377 67.448 36.5934C64.7646 36.3347 61.9425 35.7627 58.9123 34.8773C57.7676 34.5415 56.6625 34.1883 55.5946 33.8376C55.5129 33.8128 55.4336 33.7879 55.3543 33.758C55.0025 33.6436 54.6506 33.5292 54.3062 33.4148C52.5371 32.8278 50.8176 32.2608 49.1798 31.828C48.2135 31.5718 47.2819 31.3629 46.38 31.2261C46.3776 31.2261 46.3751 31.2286 46.3751 31.2286C45.7879 31.1391 45.218 31.0794 44.6655 31.0595C44.3954 31.0495 44.1129 31.047 43.8305 31.0545C43.5629 31.062 43.2928 31.0769 43.0252 31.0993C41.6228 31.2186 40.2403 31.542 38.8998 32.0046C38.6273 32.0991 38.3547 32.1986 38.0847 32.3055C37.5792 32.507 37.0812 32.7234 36.5931 32.9547C36.3998 33.0467 36.209 33.1387 36.0207 33.2357C35.1312 33.6834 34.2789 34.1759 33.4662 34.6882C32.0168 35.606 30.7011 36.5959 29.5762 37.5236C28.0574 38.7746 26.0826 40.5928 24.3185 42.8063C22.044 45.6566 20.1188 49.1685 19.9553 52.9888C19.8041 56.5877 21.2189 60.6169 24.264 65.2107C25.1287 66.519 26.1248 67.8695 27.2546 69.2722C27.4528 69.5135 27.6486 69.7548 27.8468 69.9985C29.3334 71.7942 30.9117 73.5576 32.5569 75.2837C36.8433 79.7929 41.5609 84.0833 46.1669 88.2742C50.498 92.2089 54.9628 96.2704 59.7175 98.9939L60.7656 99.1282C55.7284 96.4346 51.0059 92.1442 46.4345 87.9857C41.8508 83.8197 37.163 79.5567 32.8963 75.0748C31.2635 73.3587 29.6927 71.6127 28.2159 69.8269C27.9979 69.5608 27.7799 69.2946 27.5643 69.026C26.437 67.6332 25.4508 66.2901 24.5911 64.9968C21.593 60.4702 20.1981 56.5181 20.3467 52.9987C20.5078 49.2182 22.4528 45.7337 24.7298 42.9108C26.4469 40.7818 28.3547 39.0259 29.8289 37.8146C30.8968 36.9317 32.1382 35.9915 33.5059 35.116C34.933 34.1983 36.5014 33.3477 38.1441 32.696C38.4043 32.5965 38.662 32.497 38.9246 32.405C40.27 31.9325 41.66 31.6017 43.0673 31.4873C43.3275 31.4624 43.5852 31.4475 43.8453 31.4425C44.1154 31.435 44.388 31.4375 44.6531 31.45C45.1387 31.4674 45.6466 31.5146 46.1645 31.5892C46.1645 31.5892 46.1645 31.5892 46.1694 31.5917C47.1432 31.7285 48.164 31.9573 49.222 32.2409C50.8077 32.6687 52.4702 33.2158 54.1848 33.7854C54.3409 33.8351 54.497 33.8874 54.6531 33.9396C54.7373 33.967 54.8241 33.9968 54.9133 34.0242C56.1595 34.4346 57.4504 34.8524 58.7983 35.2503C61.219 35.9592 63.5035 36.4641 65.6962 36.7775C67.7676 37.0734 69.7547 37.1928 71.6824 37.1406C72.7255 37.1157 73.7488 37.0336 74.7473 36.9018C76.0357 36.7377 77.287 36.4889 78.4961 36.1557C79.4797 35.8871 80.4312 35.5662 81.3578 35.1857C82.1705 34.8599 82.9584 34.4893 83.7265 34.0789C85.679 33.0318 87.3638 31.7932 88.8554 30.4675C89.3261 30.0497 89.7746 29.6244 90.2057 29.1941C90.7112 28.6917 91.1894 28.1768 91.6527 27.662C92.7404 26.4508 93.7067 25.2271 94.6012 24.0681C94.8737 23.7124 95.1413 23.3617 95.4015 23.021C95.6146 22.7424 95.8227 22.4688 96.0308 22.2002C96.8063 21.1854 97.5497 20.2428 98.2707 19.4618C101.459 15.9997 106.36 13.8558 111.378 13.7239C113.308 13.6717 115.159 13.9204 116.878 14.4676C120.682 15.6714 124.502 18.2207 129.264 22.7374C130.216 23.6353 131.192 24.6127 132.156 25.6574C132.669 26.207 133.177 26.7766 133.672 27.3611C133.865 27.5874 134.056 27.8137 134.245 28.045C134.532 28.3957 134.814 28.7464 135.094 29.1046C135.305 29.3781 135.511 29.6492 135.714 29.9278C135.726 29.9378 135.734 29.9552 135.744 29.9651C137.503 32.3553 139.022 34.9494 139.99 37.6355C140.226 38.2822 140.426 38.9338 140.59 39.588C140.612 39.67 140.635 39.7546 140.654 39.8342C140.796 40.4286 140.907 41.028 140.986 41.6299C141.125 42.687 141.162 43.7564 141.078 44.8259C140.962 46.3132 140.622 47.808 140.05 49.3227C140.047 49.3302 140.045 49.3351 140.04 49.3426C139.966 49.5416 139.884 49.743 139.8 49.9445C139.735 50.1012 139.666 50.2604 139.594 50.422C139.145 51.4169 138.6 52.4217 137.949 53.4414C137.671 53.8742 137.376 54.3095 137.062 54.7497C136.321 55.7868 135.473 56.8439 134.517 57.9159C132.755 59.9006 130.617 61.9525 128.105 64.0965C125.994 65.8947 124.349 67.4516 123.055 68.9489C121.484 70.7645 120.429 72.4906 119.673 74.4654C118.903 76.4776 118.437 78.7409 118.053 81.6111C118.03 81.7852 118.006 81.9618 117.986 82.1458C117.919 82.6408 117.859 83.1506 117.797 83.6854C117.391 87.247 116.645 91.7338 114.455 94.8378C111.14 99.5336 103.719 102.371 92.3737 103.269L94.123 103.498C98.568 103.05 102.376 102.287 105.535 101.202C109.832 99.7325 112.921 97.6781 114.775 95.0542C117.015 91.8806 117.77 87.334 118.184 83.7252C118.248 83.1805 118.31 82.6607 118.372 82.1558C118.395 81.9717 118.419 81.7901 118.444 81.6136C118.811 78.8976 119.249 76.7337 119.965 74.8087C120.706 72.8115 121.742 71.0754 123.308 69.2548C124.594 67.7501 126.237 66.1931 128.36 64.3875C130.872 62.246 133.008 60.1941 134.777 58.2044C135.739 57.1274 136.593 56.0654 137.342 55.0208C137.632 54.6229 137.904 54.2249 138.157 53.8294C138.759 52.9042 139.277 51.9889 139.713 51.0861C139.849 50.8026 139.98 50.5215 140.097 50.238C140.206 49.9868 140.307 49.7381 140.404 49.4893C140.412 49.467 140.419 49.4471 140.426 49.4272C141.006 47.8851 141.353 46.363 141.47 44.8458C141.551 43.7689 141.517 42.6944 141.383 41.6274C141.308 41.0454 141.202 40.4634 141.068 39.8814C141.043 39.777 141.019 39.6725 140.989 39.5681C140.81 38.8393 140.585 38.1131 140.325 37.3943C139.309 34.6733 137.765 32.0568 135.976 29.6468Z" fill="#FFDDD9"/>
<path d="M152.409 83.3595C143.467 79.3676 142.552 72.5204 139.267 59.4255C135.982 46.3306 114.5 23.5581 81.2862 25.4285C61.1919 26.5601 48.7514 47.0245 44.3386 55.7545C43.4491 57.5129 42.7157 59.3385 42.0517 61.1939C37.9164 72.7468 22.5868 77.8057 19.0907 78.4548C1.99951 81.6235 0 105.746 0 105.746H24.782H27.8172H129.916H171.998C172 105.746 167.089 89.9107 152.409 83.3595Z" fill="#C1DDFE"/>
<g opacity="0.8">
<g opacity="0.8">
<g opacity="0.8">
<g opacity="0.8">
<g opacity="0.8">
<g opacity="0.8">
<path opacity="0.8" d="M149.314 101.431C149.344 101.138 152.503 71.869 160.115 63.2634C165.164 57.5554 165.561 55.2498 165.348 54.3842C165.241 53.9465 164.971 53.8395 164.959 53.8371L165.06 53.551C165.078 53.556 165.484 53.7052 165.635 54.2922C165.927 55.4164 165.246 57.921 160.34 63.4673C152.793 72.0008 149.646 101.173 149.614 101.466L149.314 101.431Z" fill="#C1DDFE"/>
</g>
</g>
</g>
</g>
</g>
<g opacity="0.8">
<g opacity="0.8">
<g opacity="0.8">
<g opacity="0.8">
<g opacity="0.8">
<path opacity="0.8" d="M165.538 54.6603C165.538 54.6603 160.479 51.3748 165.474 46.0125C165.471 46.0125 171.051 49.8551 165.538 54.6603Z" fill="#C1DDFE"/>
</g>
</g>
</g>
</g>
</g>
<g opacity="0.8">
<g opacity="0.8">
<g opacity="0.8">
<g opacity="0.8">
<g opacity="0.8">
<path opacity="0.8" d="M159.121 60.1892C159.121 60.1892 154.582 59.1123 156.836 53.8992C156.839 53.8992 161.901 55.2472 159.121 60.1892Z" fill="#C1DDFE"/>
</g>
</g>
</g>
</g>
</g>
<g opacity="0.8">
<g opacity="0.8">
<g opacity="0.8">
<g opacity="0.8">
<g opacity="0.8">
<path opacity="0.8" d="M157.488 76.3756C157.488 76.3756 161.123 79.3105 163.836 74.3237C163.836 74.3237 159.669 71.1401 157.488 76.3756Z" fill="#C1DDFE"/>
</g>
</g>
</g>
</g>
</g>
<g opacity="0.8">
<g opacity="0.8">
<g opacity="0.8">
<g opacity="0.8">
<g opacity="0.8">
<path opacity="0.8" d="M161.108 67.5191C161.108 67.5191 164.743 70.4539 167.456 65.4672C167.459 65.4696 163.291 62.2836 161.108 67.5191Z" fill="#C1DDFE"/>
</g>
</g>
</g>
</g>
</g>
<g opacity="0.8">
<g opacity="0.8">
<g opacity="0.8">
<g opacity="0.8">
<g opacity="0.8">
<path opacity="0.8" d="M152.709 70.1254C152.709 70.1254 148.095 70.8118 148.266 65.1311C148.266 65.1311 153.467 64.5019 152.709 70.1254Z" fill="#C1DDFE"/>
</g>
</g>
</g>
</g>
</g>
<g opacity="0.8">
<g opacity="0.8">
<g opacity="0.8">
<g opacity="0.8">
<g opacity="0.8">
<g opacity="0.8">
<path opacity="0.8" d="M160.078 63.3829C160.075 63.358 159.756 60.9827 158.802 59.9058L159.027 59.7043C160.043 60.8509 160.365 63.2411 160.378 63.3431L160.078 63.3829Z" fill="#C1DDFE"/>
</g>
</g>
</g>
</g>
</g>
<g opacity="0.8">
<g opacity="0.8">
<g opacity="0.8">
<g opacity="0.8">
<g opacity="0.8">
<path opacity="0.8" d="M157.182 68.5836L157.021 68.3274C157.139 68.2528 159.959 66.4844 161.582 67.238L161.456 67.5141C159.979 66.8277 157.209 68.5662 157.182 68.5836Z" fill="#C1DDFE"/>
</g>
</g>
</g>
</g>
</g>
<g opacity="0.8">
<g opacity="0.8">
<g opacity="0.8">
<g opacity="0.8">
<g opacity="0.8">
<path opacity="0.8" d="M154.681 74.2965C154.671 74.2567 153.754 70.3743 152.221 69.9365L152.302 69.6455C154.007 70.1305 154.936 74.0627 154.976 74.2294L154.681 74.2965Z" fill="#C1DDFE"/>
</g>
</g>
</g>
</g>
</g>
<g opacity="0.8">
<g opacity="0.8">
<g opacity="0.8">
<g opacity="0.8">
<g opacity="0.8">
<path opacity="0.8" d="M153.913 77.9378L153.744 77.6866C153.853 77.612 156.437 75.8809 157.736 76.055L157.696 76.356C156.509 76.1943 153.94 77.9204 153.913 77.9378Z" fill="#C1DDFE"/>
</g>
</g>
</g>
</g>
</g>
</g>
</g>
<path d="M78.1346 34.365C78.1346 34.365 51.4719 40.6675 50.8203 66.6956C50.8203 66.6956 51.4695 73.2592 52.5547 76.1369C52.5547 76.1369 50.8203 96.36 52.7703 105.747H129.916C129.916 105.747 127.991 88.7941 126.257 84.7748C126.257 84.7748 132.976 75.1321 124.307 51.3971C124.307 51.3971 120.417 36.9367 97.758 34.3675C97.758 34.365 88.3229 37.3695 78.1346 34.365Z" fill="white"/>
<path d="M78.1348 34.365C78.1348 34.365 83.7443 95.1612 90.3697 105.747H105.34C105.34 105.747 99.0764 37.5361 97.7582 34.365C97.7582 34.365 87.2403 37.3695 78.1348 34.365Z" fill="#C1DDFE"/>
<path d="M94.202 25.6526C94.202 25.6526 101.011 24.2051 97.9086 8.08081C97.9086 8.08081 80.5251 8.73991 80.0939 15.015C80.0939 15.015 79.2862 15.2986 79.6331 17.1813C79.9775 19.0641 81.1668 19.3327 81.1668 19.3327C81.1668 19.3327 82.9904 29.3286 78.3818 36.4245C78.3818 36.4245 81.2139 38.8694 88.6643 37.8248C90.9091 37.5089 93.7585 36.2131 96.8457 35.2754C96.8432 35.2754 95.1931 29.0327 94.202 25.6526Z" fill="#FFCBC5"/>
<path d="M93.1396 17.4299C93.1396 17.6686 93.3354 17.8626 93.5732 17.8626C93.8111 17.8626 94.0044 17.6662 94.0044 17.4274C94.0044 17.1886 93.8086 16.9946 93.5708 16.9946C93.3329 16.9946 93.1396 17.1886 93.1396 17.4299Z" fill="#625E7A"/>
<path d="M88.4268 17.4399C88.4268 17.6787 88.6225 17.8727 88.8603 17.8727C89.0982 17.8727 89.2914 17.6762 89.2914 17.4374C89.2914 17.1986 89.0957 17.0046 88.8579 17.0046C88.62 17.0071 88.4268 17.2011 88.4268 17.4399Z" fill="#625E7A"/>
<path d="M91.4173 21.8845C91.348 21.8845 91.2934 21.8298 91.2934 21.7602C91.2934 21.6905 91.348 21.6358 91.4173 21.6358C91.8336 21.6358 92.0838 21.3946 92.1755 21.2826C91.6428 20.2355 91.2984 17.7832 91.2835 17.6762C91.2736 17.6091 91.3207 17.5444 91.3901 17.537C91.452 17.527 91.5214 17.5743 91.5288 17.6439C91.5313 17.6713 91.898 20.2753 92.4307 21.2354C92.453 21.2752 92.4505 21.3249 92.4282 21.3622C92.4134 21.3846 92.0888 21.8845 91.4173 21.8845Z" fill="#FF7E70"/>
<path d="M91.1251 24.0831C90.8154 24.0831 90.4091 24.0036 90.0548 23.6802C90.0052 23.633 90.0002 23.5559 90.0473 23.5036C90.0944 23.4539 90.1712 23.4489 90.2232 23.4962C90.7906 24.016 91.5216 23.7847 91.5538 23.7747C91.6207 23.7548 91.6901 23.7897 91.7099 23.8543C91.7322 23.919 91.695 23.9886 91.6306 24.011C91.6132 24.0185 91.4076 24.0831 91.1251 24.0831Z" fill="#FF7E70"/>
<path d="M95.3221 16.2436C95.3221 16.2436 94.0412 15.1269 93.0278 15.4925C93.0278 15.4925 92.9807 15.873 93.3053 15.8954C93.3053 15.8979 94.4326 15.8979 95.3221 16.2436Z" fill="#625E7A"/>
<path d="M86.9404 16.2635C86.9404 16.2635 88.3106 15.2586 89.2893 15.7088C89.2893 15.7088 89.3041 16.0918 88.9796 16.0869C88.982 16.0894 87.8597 15.9948 86.9404 16.2635Z" fill="#625E7A"/>
<path d="M83.9346 16.2212C83.9346 16.2212 84.0163 9.93866 90.7483 11.916C90.7483 11.916 97.6958 16.0621 100.56 11.3937C103.424 6.72276 98.0278 2.99948 98.0278 2.99948C98.0278 2.99948 94.8687 0.0472153 89.6283 1.97477C89.6283 1.97477 86.0877 -2.08926 80.3592 1.44003C80.3592 1.44003 77.9906 3.38996 78.5604 6.00894C78.5604 6.00894 77.3637 6.0363 77.4108 6.91676C77.4579 7.79721 77.936 8.65777 77.936 8.65777C77.936 8.65777 74.2715 12.0901 79.6333 17.1788C79.6333 17.1788 79.3013 14.2763 82.7899 15.6741L83.9346 16.2212Z" fill="#625E7A"/>
<path d="M90.8055 39.9985L89.4552 42.1449L88.0354 42.3712L86.5166 40.3939L88.0305 37.3422L89.0538 37.2949C89.0538 37.2924 90.2777 39.4264 90.8055 39.9985Z" fill="#00BD97"/>
<path d="M89.4555 42.145C89.4555 42.145 102.218 83.3921 99.4853 89.1773L95.1171 93.8879L89.9337 89.3563C89.9337 89.3563 83.7642 55.6254 88.0358 42.3714L89.4555 42.145Z" fill="#00D1A7"/>
<path d="M95.6915 32.0247C95.6915 32.0247 97.9091 32.6987 98.023 35.7678C98.137 38.8345 92.4953 42.0952 92.4953 42.0952C92.4953 42.0952 89.5517 39.3518 89.0537 37.2925C89.0537 37.2925 93.3203 36.9045 96.0805 33.701L95.6915 32.0247Z" fill="#545ECE"/>
<path d="M88.0306 37.3397C88.0306 37.3397 86.6134 41.5753 84.7055 41.7594C83.3031 41.8937 79.7055 39.4836 78.3725 36.79C77.6515 35.335 78.0207 33.5741 79.2447 32.5096C79.6188 32.1838 80.1193 31.8654 80.6247 31.6416L80.092 33.2408C80.0945 33.2433 83.3032 36.9517 88.0306 37.3397Z" fill="#545ECE"/>
<path d="M100.585 15.0372C107.309 17.0792 101.722 34.855 95.1437 32.8354C94.3707 32.6016 93.999 31.4674 94.2319 30.6915C94.4227 30 94.5714 29.6021 94.7621 28.9106C94.995 28.1346 95.8325 27.7193 96.6056 27.9531L97.9212 28.356C99.6135 28.846 102.049 20.7751 100.419 20.2653L99.1031 19.8623C98.33 19.6285 97.9163 18.7879 98.1492 18.0119C98.3399 17.3205 98.4242 16.9424 98.6794 16.2311C98.9098 15.4501 99.8117 14.8034 100.585 15.0372Z" fill="#4A55CE"/>
<path d="M89.5967 107.483L100.162 122.336H122.488L111.019 107.483H89.5967Z" fill="#FF7867"/>
<path d="M90.3545 106.468L100.919 121.321H123.246L111.777 106.468H90.3545Z" fill="#E0EEFE"/>
<path d="M110.003 111.435C109.964 111.435 109.929 111.417 109.904 111.385C109.875 111.345 109.872 111.293 109.894 111.251L110.71 109.726C110.444 109.457 109.956 109.437 109.617 109.617C109.253 109.806 108.995 110.151 108.772 110.495C108.737 110.596 108.678 110.689 108.599 110.761C108.554 110.803 108.482 110.805 108.435 110.766C108.388 110.726 108.376 110.656 108.408 110.604C108.45 110.534 108.494 110.462 108.542 110.39C108.556 110.335 108.564 110.276 108.559 110.216C108.549 110.074 108.482 109.947 108.383 109.875C108.2 109.748 107.905 109.801 107.761 109.987C107.679 110.094 107.531 110.126 107.409 110.062C106.807 109.738 106.009 109.818 105.472 110.256C105.407 110.308 105.321 110.33 105.239 110.315C105.164 110.301 105.1 110.256 105.063 110.191C105.001 110.082 104.8 109.977 104.597 109.947C103.695 109.82 102.768 109.927 101.919 110.256C101.879 110.271 101.837 110.276 101.797 110.271C101.272 110.208 100.724 110.497 100.464 110.97C100.415 111.059 100.323 111.114 100.221 111.114C100.12 111.106 100.041 111.067 99.9934 110.982C99.9241 110.863 99.8919 110.721 99.9018 110.584C99.9018 110.569 99.8968 110.557 99.8919 110.552C99.0569 110.527 98.2144 110.691 97.4563 111.022C97.3943 111.049 97.32 111.022 97.2927 110.957C97.2655 110.895 97.2927 110.82 97.3572 110.793C98.1475 110.447 99.0247 110.273 99.8869 110.296C99.9588 110.298 100.026 110.328 100.075 110.383C100.127 110.44 100.154 110.519 100.15 110.599C100.142 110.686 100.164 110.778 100.209 110.855C100.229 110.86 100.241 110.855 100.249 110.845C100.558 110.286 101.205 109.947 101.827 110.019C102.721 109.676 103.69 109.567 104.632 109.699C104.87 109.731 105.162 109.858 105.278 110.064C105.291 110.069 105.303 110.067 105.313 110.059C105.925 109.559 106.834 109.47 107.523 109.84C107.528 109.843 107.548 109.853 107.563 109.833C107.786 109.544 108.234 109.467 108.522 109.669C108.646 109.756 108.735 109.888 108.779 110.039C108.973 109.786 109.203 109.547 109.498 109.393C109.907 109.179 110.479 109.191 110.828 109.492L111.113 108.96C111.146 108.9 111.22 108.875 111.282 108.91C111.341 108.943 111.364 109.017 111.331 109.079L111.002 109.696C111.012 109.711 111.022 109.728 111.029 109.746C111.042 109.771 111.051 109.801 111.059 109.828C111.128 110.159 111.054 110.527 110.856 110.835C110.657 111.144 110.353 111.363 110.023 111.432C110.021 111.435 110.013 111.435 110.003 111.435ZM110.841 110.01L110.273 111.074C110.422 110.987 110.556 110.858 110.655 110.701C110.791 110.487 110.856 110.241 110.841 110.01Z" fill="white"/>
<path d="M96.5215 100.601L96.5339 100.593C96.69 100.479 96.908 100.514 97.022 100.67L103.149 109.099L102.575 109.52L96.4472 101.091C96.3332 100.934 96.3679 100.715 96.5215 100.601Z" fill="#FF7867"/>
<path d="M103.37 110.007L103.149 109.099L102.574 109.52L103.37 110.007Z" fill="#545ECE"/>
<path d="M87.3223 105.747L92.0051 108.157L100.33 108.5C100.533 108.507 100.722 108.385 100.794 108.194C100.89 107.945 100.761 107.664 100.511 107.572L99.5423 107.216L101.007 107.572C101.205 107.619 101.415 107.575 101.577 107.445C101.906 107.182 101.909 106.682 101.584 106.413L100.848 105.801L102.084 106.575C102.402 106.771 102.815 106.672 103.009 106.353C103.194 106.045 103.105 105.645 102.805 105.448L98.0557 102.292C97.6766 102.041 97.2158 101.954 96.7723 102.048L93.6949 102.705L89.5101 99.9341L87.3223 105.747Z" fill="#FFCBC5"/>
<path d="M97.9687 108.39C97.9488 108.39 97.929 108.385 97.9092 108.375L95.8329 107.251C95.7734 107.219 95.7511 107.144 95.7833 107.082C95.8155 107.02 95.8923 107 95.9518 107.032L98.0281 108.157C98.0876 108.189 98.1099 108.264 98.0777 108.326C98.0554 108.368 98.0133 108.39 97.9687 108.39Z" fill="#FF9E94"/>
<path d="M99.8046 107.405C99.7873 107.405 99.7674 107.4 99.7501 107.393L96.757 105.943C96.6951 105.913 96.6703 105.839 96.7 105.776C96.7298 105.714 96.8041 105.689 96.866 105.719L99.8591 107.169C99.9211 107.199 99.9458 107.274 99.9161 107.336C99.8963 107.378 99.8517 107.405 99.8046 107.405Z" fill="#FF9E94"/>
<path d="M101.066 106.06C101.044 106.06 101.022 106.055 101.002 106.042L97.6692 104C97.6098 103.966 97.5924 103.889 97.6271 103.829C97.6618 103.769 97.7386 103.752 97.7981 103.787L101.131 105.829C101.19 105.863 101.207 105.94 101.173 106C101.148 106.04 101.106 106.06 101.066 106.06Z" fill="#FF9E94"/>
<path d="M102.183 35.6806L101.346 28.1072L100.179 26.5378L100.209 27.4233C100.218 27.6844 100.035 27.9132 99.7799 27.9605C99.5272 28.0077 99.2769 27.8635 99.1902 27.6197L98.8607 26.6871C98.7615 26.406 98.821 26.0951 99.0143 25.8688L99.9013 24.8391L98.3156 25.3962L97.5425 26.1274C97.374 26.2866 97.1089 26.2767 96.9528 26.1026C96.8215 25.9558 96.8116 25.7394 96.9256 25.5803L97.5599 24.7098C97.7259 24.4809 97.9513 24.3044 98.2115 24.1999L98.7789 23.9711L98.0653 23.9959C97.8894 24.0009 97.7506 23.8492 97.7729 23.6751C97.7804 23.6129 97.8076 23.5557 97.8498 23.511L98.5534 22.7797C98.8607 22.4589 99.272 22.2599 99.7105 22.2127L101.492 22.0211L99.7378 20.6557C99.5767 20.5288 99.5346 20.3025 99.6387 20.1259C99.7477 19.9394 99.9831 19.8747 100.174 19.9742L103.147 21.5361L105.04 25.4509L107.592 33.6362L102.183 35.6806Z" fill="#FFCBC5"/>
<path d="M102.213 26.2146C102.194 26.2146 102.174 26.2096 102.154 26.1996L99.8397 24.9511C99.7802 24.9188 99.7579 24.8441 99.7901 24.782C99.8224 24.7223 99.8967 24.6974 99.9586 24.7322L102.273 25.9808C102.332 26.0131 102.357 26.0877 102.322 26.1499C102.3 26.1897 102.255 26.2146 102.213 26.2146Z" fill="#FF9E94"/>
<path d="M102.845 25.1624C102.82 25.1624 102.798 25.1549 102.776 25.1425L100.563 23.6626L98.6702 24.0979C98.6033 24.1128 98.5364 24.0705 98.5215 24.0034C98.5067 23.9362 98.5488 23.8691 98.6157 23.8541L100.561 23.4064C100.593 23.399 100.628 23.4064 100.657 23.4239L102.915 24.9336C102.971 24.9709 102.986 25.048 102.949 25.1052C102.924 25.145 102.885 25.1624 102.845 25.1624Z" fill="#FF9E94"/>
<path d="M104.074 24.6525C104.037 24.6525 104.002 24.6376 103.977 24.6053L102.121 22.2698L101.472 22.1455C101.405 22.133 101.361 22.0684 101.373 22.0012C101.386 21.9341 101.45 21.8893 101.517 21.9017L102.211 22.0336C102.24 22.0385 102.265 22.0559 102.285 22.0783L104.17 24.4511C104.213 24.5058 104.205 24.5829 104.151 24.6252C104.128 24.6426 104.101 24.6525 104.074 24.6525Z" fill="#FF9E94"/>
<path d="M86.0684 25.4287C90.05 28.3138 93.499 26.0953 93.499 26.0953L93.8013 27.0479C93.8037 27.0479 90.0798 28.8859 86.0684 25.4287Z" fill="#FF9E94"/>
<path d="M102.213 36.2826L101.953 33.5343L107.412 32.5991L110.63 38.5136L102.213 36.2826Z" fill="white"/>
<path d="M120.288 86.4388C119.371 86.4388 118.392 86.3294 117.382 86.0533C113.749 85.0609 110.667 82.2231 108.219 77.6193C106.433 74.2616 105.335 70.5433 104.958 66.5689L101.831 33.5443C101.826 33.4796 101.871 33.4199 101.933 33.41L107.394 32.4748C107.446 32.4649 107.498 32.4897 107.523 32.537C107.674 32.8081 122.751 59.759 124.577 70.0335C124.589 70.1006 124.545 70.1653 124.478 70.1777C124.408 70.1902 124.346 70.1454 124.334 70.0782C122.565 60.1147 108.246 34.3402 107.352 32.7385L102.092 33.6388L105.209 66.5465C105.583 70.4861 106.67 74.1746 108.442 77.5024C110.858 82.0415 113.888 84.8371 117.451 85.812C122.154 87.0979 126.16 84.6903 126.2 84.6655C126.257 84.6281 126.333 84.648 126.371 84.7077C126.405 84.7674 126.388 84.842 126.329 84.8793C126.291 84.8992 123.729 86.4388 120.288 86.4388Z" fill="#C0D6FD"/>
<path d="M87.3215 105.747L90.0049 99.8495C90.0049 99.8495 87.1977 98.5288 86.9375 98.1582L87.3215 105.747Z" fill="white"/>
<path d="M87.3223 105.871C87.3173 105.871 87.3099 105.871 87.3049 105.871C73.6577 103.938 64.9064 95.9671 59.9659 89.6198C54.6165 82.7453 52.4609 76.2414 52.4411 76.1767C52.4188 76.112 52.4559 76.0424 52.5204 76.02C52.5848 76.0001 52.6542 76.0349 52.6765 76.0996C52.6963 76.1643 54.842 82.6359 60.1666 89.4756C65.0675 95.7681 73.7395 103.67 87.2479 105.612L89.8396 99.9117C88.9675 99.5088 83.3356 96.7555 78.3827 90.8186C73.4372 84.8892 68.1671 74.4829 71.1577 58.5701C71.1701 58.5029 71.237 58.4581 71.3014 58.4706C71.3683 58.483 71.4129 58.5477 71.4005 58.6148C68.4273 74.4332 73.6602 84.7699 78.571 90.657C83.8931 97.0365 89.9908 99.7078 90.0502 99.7326C90.08 99.7451 90.1047 99.7699 90.1171 99.8023C90.1295 99.8346 90.127 99.8694 90.1146 99.8993L87.4313 105.796C87.4139 105.841 87.3693 105.871 87.3223 105.871Z" fill="#C0D6FD"/>
<path d="M150.486 121.102C152.654 121.102 154.478 121.04 154.73 118.879L155.506 111.882H145.469L146.244 118.879C146.495 121.04 148.318 121.102 150.486 121.102Z" fill="#C1DDFE"/>
<path d="M155.503 111.959C155.503 112.076 154.872 112.183 153.866 112.255C153.35 112.29 152.736 112.323 152.059 112.34H152.04C151.859 112.345 151.67 112.35 151.482 112.352C151.438 112.352 151.393 112.352 151.351 112.355C151.071 112.357 150.783 112.36 150.486 112.36C150.372 112.36 150.261 112.36 150.149 112.357C150.129 112.36 150.107 112.36 150.085 112.357C149.926 112.357 149.773 112.355 149.619 112.355C149.441 112.352 149.265 112.347 149.094 112.345H149.066C149.024 112.342 148.982 112.342 148.942 112.34C148.365 112.325 147.835 112.303 147.374 112.273C146.212 112.198 145.469 112.086 145.469 111.959C145.469 111.85 146.004 111.753 146.876 111.683C147.436 111.639 148.142 111.601 148.933 111.581C148.938 111.579 148.945 111.579 148.952 111.579C148.985 111.579 149.022 111.579 149.056 111.576C149.322 111.571 149.599 111.567 149.884 111.564C149.976 111.564 150.065 111.562 150.159 111.564C150.191 111.562 150.226 111.562 150.258 111.562H150.486C150.796 111.562 151.103 111.564 151.398 111.569C151.512 111.569 151.626 111.571 151.737 111.574C151.908 111.576 152.082 111.581 152.245 111.584C152.28 111.586 152.315 111.589 152.347 111.589C153.192 111.616 153.918 111.661 154.465 111.716C155.117 111.78 155.503 111.865 155.503 111.959Z" fill="#545ECE"/>
<path d="M155.903 99.9142C155.903 100.747 155.893 101.436 155.819 102.088V102.09C155.675 103.396 155.281 104.545 154.226 106.338L154.223 106.341C154.166 106.443 154.104 106.545 154.042 106.649C154.042 106.652 154.04 106.652 154.04 106.654C154.04 106.657 154.04 106.657 154.037 106.659C153.187 108.07 152.338 109.835 151.736 111.571C151.641 111.833 151.56 112.094 151.48 112.35C151.436 112.35 151.391 112.35 151.349 112.352C151.069 112.355 150.782 112.357 150.484 112.357C150.37 112.357 150.259 112.357 150.147 112.355C150.127 112.357 150.105 112.357 150.083 112.355C149.924 112.355 149.771 112.352 149.617 112.352C149.439 112.35 149.263 112.345 149.092 112.342C149.079 112.3 149.072 112.253 149.062 112.208C149.062 112.206 149.062 112.206 149.062 112.203C149.017 111.999 148.978 111.79 148.951 111.576C148.941 111.517 148.931 111.455 148.926 111.392V111.39C148.866 110.94 148.837 110.475 148.851 109.992V109.987C148.854 109.828 148.861 109.664 148.874 109.502C148.881 109.403 148.889 109.301 148.896 109.206V109.201C149.074 106.925 149.196 105.162 149.612 103.419C149.875 102.317 150.254 101.227 150.839 100.016C152.117 97.3598 152.127 94.9846 153.958 94.0668C154.639 93.7236 155.455 94.1912 155.546 94.9523C155.7 96.2431 155.903 98.2826 155.903 99.9142Z" fill="#00BD97"/>
<path d="M154.788 96.6014C154.75 97.4569 154.557 98.315 154.178 99.091C153.809 99.8695 153.299 100.558 152.887 101.287C152.486 101.989 152.154 102.727 151.876 103.483C151.864 103.516 151.852 103.55 151.839 103.583C151.837 103.59 151.834 103.595 151.832 103.603C151.542 104.386 151.321 105.197 151.138 106.01C151.039 106.421 150.965 106.841 150.885 107.254C150.813 107.672 150.742 108.09 150.677 108.51C150.548 109.348 150.437 110.186 150.33 111.032C150.308 111.206 150.283 111.385 150.258 111.562C150.224 111.825 150.187 112.091 150.149 112.358C150.13 112.36 150.107 112.36 150.085 112.358C150.11 112.094 150.135 111.83 150.159 111.564C150.177 111.383 150.194 111.198 150.209 111.017C150.291 110.171 150.377 109.328 150.484 108.483C150.588 107.637 150.732 106.799 150.913 105.963C151.093 105.13 151.309 104.302 151.604 103.498C151.827 102.899 152.08 102.312 152.374 101.742C152.377 101.735 152.382 101.73 152.384 101.722C152.481 101.538 152.582 101.354 152.687 101.175C153.118 100.437 153.618 99.7526 154.002 99.0064C154.389 98.2653 154.599 97.437 154.661 96.5964C154.736 95.7557 154.661 94.9051 154.542 94.0645C154.721 94.8927 154.82 95.7458 154.788 96.6014Z" fill="white"/>
<path d="M149.884 111.565C149.768 111.963 149.684 112.191 149.684 112.191L149.619 112.355C149.441 112.353 149.265 112.348 149.094 112.346H149.067C149.025 112.343 148.983 112.343 148.943 112.341C148.366 112.326 147.835 112.303 147.375 112.273C147.214 112.089 147.045 111.89 146.877 111.681C145.462 109.94 143.931 107.488 144.352 105.414C145.098 101.738 141.82 101.094 140.531 96.8729C139.416 93.2168 141.966 90.5356 142.672 89.8815C142.672 89.8815 142.672 89.879 142.677 89.8765C142.783 89.777 142.845 89.7273 142.845 89.7273C142.845 89.7273 142.835 89.7795 142.821 89.879V89.8815C142.652 90.9634 141.879 97.4798 147.038 100.636C148.269 101.387 149.087 102.36 149.614 103.422C151.106 106.414 150.298 110.112 149.884 111.565Z" fill="#00D1A7"/>
<path d="M148.856 109.992V109.99C148.715 108.219 148.358 106.408 147.516 104.98V104.978C147.511 104.966 147.503 104.956 147.493 104.943C147.493 104.943 147.491 104.938 147.491 104.941C147.402 104.784 147.305 104.637 147.199 104.488C146.819 103.961 146.344 103.493 145.888 103.043C145.692 102.849 145.491 102.653 145.301 102.451C143.675 100.752 142.429 98.5437 141.881 96.3998C141.262 93.9673 141.535 91.7164 142.672 89.8809C142.672 89.8809 142.672 89.8784 142.677 89.8759C142.711 89.8163 142.754 89.7516 142.793 89.6919L142.845 89.7267L142.895 89.7591C142.87 89.7988 142.843 89.8386 142.818 89.8784V89.8809C140.444 93.6191 142.117 98.7203 145.08 102.033C145.1 102.056 145.117 102.078 145.137 102.1C145.219 102.192 145.301 102.279 145.385 102.366C145.576 102.568 145.776 102.764 145.97 102.956C146.433 103.414 146.909 103.881 147.295 104.421C148.244 105.737 148.69 107.465 148.898 109.206V109.209C148.995 110.01 149.037 110.813 149.054 111.581C149.059 111.793 149.062 112.004 149.062 112.211C149.062 112.213 149.062 112.213 149.062 112.216C149.064 112.26 149.064 112.305 149.064 112.35C149.022 112.347 148.98 112.347 148.94 112.345C148.94 112.096 148.935 111.843 148.93 111.586C148.93 111.522 148.928 111.462 148.926 111.4V111.397C148.916 110.935 148.893 110.465 148.856 109.992Z" fill="white"/>
<path d="M152.06 112.34C152.737 112.323 153.351 112.293 153.866 112.256C154.092 112.094 154.293 111.915 154.464 111.716C154.637 111.512 154.773 111.291 154.86 111.044C155.016 110.599 155.076 110.129 155.237 109.686C155.531 108.875 156.148 108.231 156.696 107.562C157.385 106.712 157.987 105.789 158.482 104.811C158.849 104.088 159.248 103.036 158.539 102.386C158.455 102.309 158.366 102.245 158.267 102.188C157.987 102.026 157.655 101.939 157.33 101.901C156.822 101.844 156.292 101.889 155.821 102.086V102.088C155.779 102.103 155.737 102.12 155.698 102.14C155.135 102.416 154.704 102.904 154.31 103.396C153.002 105.028 152.07 106.57 151.698 108.642C151.525 109.614 151.456 110.584 151.399 111.564C151.384 111.825 151.369 112.086 151.352 112.35C151.394 112.348 151.438 112.348 151.483 112.348C151.674 112.345 151.86 112.34 152.04 112.335H152.06V112.34Z" fill="#00D1A7"/>
<path d="M152.06 112.34C152.154 112.089 152.246 111.838 152.345 111.589C152.526 111.119 152.716 110.654 152.907 110.189C153.232 109.423 153.566 108.664 153.938 107.925C154.307 107.184 154.711 106.46 155.172 105.776C155.405 105.436 155.653 105.107 155.925 104.796C156.195 104.486 156.497 104.2 156.834 103.956C156.101 104.361 155.519 104.995 155.016 105.662C154.763 105.998 154.538 106.351 154.322 106.709C154.22 106.878 154.121 107.05 154.03 107.224V107.226C153.988 107.306 153.94 107.383 153.901 107.465C153.898 107.465 153.898 107.465 153.898 107.468C153.841 107.582 153.779 107.694 153.722 107.811C153.351 108.562 153.019 109.331 152.734 110.114C152.555 110.599 152.389 111.089 152.246 111.581C152.171 111.833 152.102 112.084 152.04 112.338H152.06V112.34Z" fill="white"/>
<path d="M153.849 107.833C154.005 107.378 154.114 106.913 154.21 106.443C154.3 105.973 154.374 105.498 154.386 105.018C154.277 105.485 154.181 105.951 154.089 106.421C153.997 106.888 153.908 107.356 153.849 107.833Z" fill="white"/>
<path d="M152.434 101.879C152.359 101.66 152.322 101.434 152.3 101.205C152.275 100.976 152.273 100.747 152.285 100.521C152.307 100.063 152.384 99.6131 152.496 99.1679C152.602 98.7177 152.682 98.2576 152.721 97.7975C152.756 97.3348 152.768 96.8697 152.699 96.4121C152.709 96.6434 152.704 96.8722 152.689 97.1035C152.677 97.3324 152.657 97.5612 152.627 97.79C152.568 98.2451 152.486 98.6978 152.377 99.143L152.303 99.4813C152.278 99.5957 152.26 99.7101 152.241 99.8245C152.213 100.056 152.186 100.287 152.191 100.521C152.189 100.981 152.243 101.456 152.434 101.879Z" fill="white"/>
<path d="M151.624 103.807C151.731 103.7 151.835 103.593 151.944 103.488C152.05 103.384 152.157 103.279 152.266 103.177C152.486 102.976 152.707 102.777 152.94 102.593C153.173 102.409 153.415 102.237 153.676 102.103C153.807 102.036 153.941 101.976 154.084 101.941C154.226 101.901 154.374 101.889 154.523 101.911C154.379 101.862 154.223 101.862 154.072 101.882C153.921 101.906 153.775 101.956 153.636 102.016C153.356 102.138 153.103 102.309 152.863 102.496C152.627 102.685 152.405 102.889 152.199 103.11C151.993 103.332 151.797 103.56 151.624 103.807Z" fill="white"/>
<path d="M147.61 105.018C147.288 104.789 146.931 104.617 146.557 104.49C146.368 104.428 146.175 104.383 145.974 104.366C145.779 104.349 145.566 104.356 145.39 104.453C145.58 104.403 145.774 104.431 145.962 104.463C146.15 104.5 146.336 104.548 146.517 104.61C146.884 104.727 147.243 104.876 147.61 105.018Z" fill="white"/>
<path d="M145.179 102.232C145.11 101.996 145.05 101.76 144.988 101.523C144.929 101.287 144.874 101.051 144.835 100.812C144.793 100.573 144.76 100.335 144.753 100.093C144.748 99.8521 144.758 99.6108 144.827 99.3745C144.711 99.5934 144.666 99.8471 144.656 100.093C144.644 100.342 144.671 100.591 144.713 100.834C144.758 101.078 144.817 101.317 144.897 101.551C144.973 101.785 145.065 102.013 145.179 102.232Z" fill="white"/>
<path d="M70.2153 113.703L59.3382 110.726L58.8005 99.0091L29.8906 92.5549C29.2811 92.4181 28.7063 92.8982 28.7261 93.5249L29.4521 115.255C29.4669 115.723 29.789 116.126 30.24 116.248L59.4051 123.965C59.747 124.055 60.1137 123.968 60.3788 123.732L71.1048 114.156C71.2188 114.054 71.2832 113.91 71.2832 113.758V112.935L70.2153 113.703Z" fill="#4651CE"/>
<path d="M59.9524 123.048L71.278 112.935L57.4375 109.144L57.9826 122.525L59.9524 123.048Z" fill="#4A55CE"/>
<path d="M28.7538 93.3159L29.4773 114.984L59.2569 122.863C59.6013 122.955 59.9358 122.684 59.9209 122.326L58.8555 99.6756C58.8233 98.9667 58.3277 98.3673 57.6414 98.2007L30.7112 91.7117C29.6904 91.468 28.7191 92.2638 28.7538 93.3159Z" fill="#545ECE"/>
<path d="M42.9777 109.647C44.2339 109.647 45.2522 108.624 45.2522 107.363C45.2522 106.102 44.2339 105.08 42.9777 105.08C41.7215 105.08 40.7031 106.102 40.7031 107.363C40.7031 108.624 41.7215 109.647 42.9777 109.647Z" fill="#5D68D9"/>
</svg>
