<svg width="16" height="14" viewBox="0 0 16 14" fill="none" xmlns="http://www.w3.org/2000/svg">
<path d="M16 2.03941C15.4111 2.30035 14.7792 2.47732 14.1153 2.55632C14.7932 2.15039 15.3121 1.50652 15.558 0.741657C14.9222 1.11758 14.2203 1.39055 13.4724 1.53852C12.8735 0.899644 12.0217 0.501709 11.0769 0.501709C9.26421 0.501709 7.79448 1.97143 7.79448 3.78309C7.79448 4.04004 7.82348 4.29099 7.87948 4.53096C5.152 4.39397 2.73346 3.08723 1.11477 1.10158C0.831817 1.5855 0.67085 2.14937 0.67085 2.75128C0.67085 3.89008 1.25075 4.89489 2.13059 5.48276C1.59268 5.46477 1.08677 5.31679 0.643869 5.07083V5.11183C0.643869 6.70153 1.77566 8.02827 3.27637 8.33023C3.00141 8.40422 2.71148 8.44521 2.41153 8.44521C2.19958 8.44521 1.99461 8.42422 1.79365 8.38422C2.21156 9.68898 3.42335 10.6378 4.85909 10.6638C3.73629 11.5436 2.32055 12.0665 0.78285 12.0665C0.517909 12.0665 0.256941 12.0505 0 12.0216C1.45273 12.9544 3.17741 13.4983 5.03106 13.4983C11.0689 13.4983 14.3693 8.49721 14.3693 4.16004L14.3583 3.73512C15.0032 3.27517 15.561 2.69729 16 2.03941Z" fill="#2C1F9C"/>
</svg>
