<svg width="11" height="11" viewBox="0 0 11 11" fill="none" xmlns="http://www.w3.org/2000/svg">
<path fill-rule="evenodd" clip-rule="evenodd" d="M5.00163 3.93903L8.71989 0.220772C9.01325 -0.0725835 9.48887 -0.0725834 9.78223 0.220772C10.0756 0.514127 10.0756 0.989749 9.78223 1.2831L6.06396 5.00137L9.78226 8.71966C10.0756 9.01302 10.0756 9.48864 9.78226 9.78199C9.4889 10.0753 9.01328 10.0753 8.71992 9.78199L5.00163 6.0637L1.28357 9.78176C0.990214 10.0751 0.514592 10.0751 0.221237 9.78176C-0.072118 9.48841 -0.072118 9.01279 0.221237 8.71943L3.9393 5.00137L0.221267 1.28334C-0.0720882 0.98998 -0.0720882 0.514358 0.221267 0.221003C0.514622 -0.0723517 0.990244 -0.0723517 1.2836 0.221003L5.00163 3.93903Z" fill="#0957C3"/>
</svg>
