<svg width="14" height="14" viewBox="0 0 14 14" fill="none" xmlns="http://www.w3.org/2000/svg">
<path d="M13.1415 4.91094H11.6649C11.6349 2.3625 9.554 0.300781 7.00009 0.300781C4.44619 0.300781 2.36533 2.3625 2.33798 4.91094H0.861421C0.339156 4.95195 0.284468 5.40039 0.311812 5.56172L1.61337 13.2344C1.65986 13.5023 1.89228 13.6992 2.16298 13.6992H11.8372C12.1106 13.6992 12.3431 13.5023 12.3868 13.2344L13.6911 5.56172C13.7185 5.40039 13.6528 4.94922 13.1415 4.91094ZM7.00009 1.41641C8.93877 1.41641 10.5165 2.97773 10.5466 4.9082H3.45361C3.48369 2.97773 5.06142 1.41641 7.00009 1.41641ZM11.3669 12.5836H2.63603L1.52041 6.02656H12.4798L11.3669 12.5836Z" fill="white"/>
</svg>
