<svg width="16" height="16" viewBox="0 0 16 16" fill="none"
     xmlns="http://www.w3.org/2000/svg">
    <path
            d="M14.8514 1.88736C14.5703 1.60495 14.1878 1.44684 13.7894 1.44838H13.2106V1.28908C13.2117 0.959363 13.0848 0.64208 12.8566 0.404053L12.8353 0.381042C12.8337 0.379405 12.832 0.377767 12.8304 0.37613C12.3313 -0.120193 11.5244 -0.118025 11.0281 0.381042C10.788 0.620088 10.6529 0.944937 10.6528 1.28377V1.44307H5.34622V1.28377C5.34733 0.954052 5.22041 0.63677 4.99221 0.398742L4.97097 0.375732C4.96933 0.374094 4.96769 0.372457 4.96606 0.37082C4.46703 -0.125503 3.66011 -0.123335 3.16374 0.375732C2.92364 0.614777 2.78858 0.939627 2.78849 1.27846V1.43776H2.20968L2.20437 1.43422C1.3801 1.43617 0.712396 2.10388 0.710449 2.92815V14.5043C0.710715 14.8899 0.860461 15.2605 1.12818 15.538L1.14942 15.561C1.43051 15.8434 1.81302 16.0015 2.21145 16H13.7894C14.1876 16.002 14.57 15.8445 14.8514 15.5628C15.1338 15.2817 15.2919 14.8992 15.2904 14.5008V2.94939C15.2919 2.55091 15.1338 2.16844 14.8514 1.88736ZM11.3609 1.79177V1.27492C11.3612 1.12535 11.4211 0.982019 11.5272 0.876657C11.5285 0.875418 11.5297 0.874179 11.531 0.872895C11.7505 0.655489 12.1046 0.65717 12.322 0.876657L12.3362 0.890817C12.4331 0.995206 12.4869 1.13247 12.4866 1.27492V2.30863C12.4868 2.31819 12.4867 2.32779 12.4864 2.33735C12.4766 2.6422 12.2215 2.88133 11.9167 2.87151C11.6086 2.86761 11.3608 2.61675 11.3609 2.30863V1.79177ZM3.50359 2.30863V1.79177L3.51067 1.27492C3.51054 1.12557 3.56975 0.982329 3.67529 0.876657C3.67653 0.875418 3.67777 0.874179 3.67905 0.872895C3.89854 0.655489 4.25268 0.65717 4.47004 0.876657L4.4842 0.890817C4.58116 0.995206 4.63492 1.13247 4.63466 1.27492V2.30863C4.63634 2.335 4.63603 2.36142 4.63382 2.38775C4.60877 2.67994 4.35163 2.89655 4.05939 2.87151C4.03996 2.87244 4.02054 2.87235 4.00111 2.87115C3.70843 2.85319 3.48567 2.60135 3.50359 2.30863ZM1.43263 2.92992C1.43458 2.50059 1.78213 2.15304 2.21145 2.1511H2.79026V2.3104C2.79026 2.66087 3.0363 3.58838 4.08594 3.58838C5.12142 3.58838 5.34268 2.66087 5.34268 2.30863V2.14933H10.6493V2.30863C10.6493 2.66087 10.8652 3.58838 11.9273 3.58838C13.0283 3.58838 13.2053 2.66264 13.2053 2.30863V2.14933H13.7823C13.9889 2.14906 14.187 2.23123 14.3328 2.37766C14.479 2.52351 14.5612 2.72158 14.5611 2.92815V5.14957H1.43263V2.92992ZM14.5629 14.5061C14.5632 14.7127 14.481 14.9108 14.3345 15.0566C14.1888 15.203 13.9907 15.2852 13.7841 15.2849H2.21145C2.00338 15.2821 1.80505 15.1961 1.66097 15.0459L1.64504 15.0318C1.50914 14.8883 1.43316 14.6984 1.43263 14.5008V5.86467H14.5629V14.5061Z"
            fill="black"/>
    <rect x="4.80127" y="8" width="1.6" height="1.6" rx="0.8"
          fill="black"/>
    <rect x="9.60107" y="8" width="1.6" height="1.6" rx="0.8"
          fill="black"/>
    <rect x="4.80127" y="11.2002" width="1.6" height="1.6" rx="0.8"
          fill="black"/>
    <rect x="9.60107" y="11.2002" width="1.6" height="1.6" rx="0.8"
          fill="black"/>
</svg>