<svg width="22" height="23" viewBox="0 0 22 23" fill="none" xmlns="http://www.w3.org/2000/svg">
<path d="M19.6255 0H2.37454C1.24074 0 0.322266 0.94685 0.322266 2.13273V15.2748C0.322266 16.0156 0.687881 16.7048 1.28952 17.0969L9.85833 22.6755C10.5196 23.1061 11.3563 23.1087 12.02 22.6822L20.7016 17.0953C21.3077 16.7048 21.6773 16.013 21.6773 15.2681V2.13273C21.6778 0.947365 20.7593 0 19.6255 0Z" fill="#FF6F6F"/>
<path d="M5.83509 8.412C5.83509 7.992 5.89576 7.63267 6.01709 7.334C6.13843 7.03533 6.30643 6.788 6.52109 6.592C6.73576 6.396 6.99243 6.256 7.29109 6.172C7.59909 6.07867 7.93043 6.032 8.28509 6.032C8.63976 6.032 8.96643 6.074 9.26509 6.158C9.56376 6.242 9.82043 6.37733 10.0351 6.564C10.2591 6.75067 10.4318 6.998 10.5531 7.306C10.6744 7.60467 10.7398 7.97333 10.7491 8.412C10.7398 8.85067 10.6744 9.224 10.5531 9.532C10.4318 9.83067 10.2591 10.0733 10.0351 10.26C9.82043 10.4467 9.56376 10.582 9.26509 10.666C8.96643 10.75 8.63976 10.792 8.28509 10.792C7.93043 10.792 7.59909 10.75 7.29109 10.666C6.99243 10.582 6.73576 10.4467 6.52109 10.26C6.30643 10.0733 6.13843 9.83067 6.01709 9.532C5.89576 9.224 5.83509 8.85067 5.83509 8.412ZM7.45909 8.412C7.45909 9.21467 7.73443 9.616 8.28509 9.616C8.57443 9.616 8.77976 9.532 8.90109 9.364C9.03176 9.18667 9.10176 8.86933 9.11109 8.412C9.10176 7.964 9.03176 7.65133 8.90109 7.474C8.77976 7.29667 8.57443 7.208 8.28509 7.208C7.99576 7.208 7.78576 7.29667 7.65509 7.474C7.52443 7.65133 7.45909 7.964 7.45909 8.412ZM11.5191 13.592C11.5191 13.172 11.5798 12.8127 11.7011 12.514C11.8224 12.2153 11.9904 11.968 12.2051 11.772C12.4198 11.576 12.6764 11.436 12.9751 11.352C13.2831 11.2587 13.6144 11.212 13.9691 11.212C14.3238 11.212 14.6504 11.254 14.9491 11.338C15.2478 11.422 15.5044 11.5573 15.7191 11.744C15.9431 11.9307 16.1158 12.178 16.2371 12.486C16.3584 12.7847 16.4238 13.1533 16.4331 13.592C16.4238 14.0307 16.3584 14.404 16.2371 14.712C16.1158 15.0107 15.9431 15.2533 15.7191 15.44C15.5044 15.6267 15.2478 15.762 14.9491 15.846C14.6504 15.93 14.3238 15.972 13.9691 15.972C13.6144 15.972 13.2831 15.93 12.9751 15.846C12.6764 15.762 12.4198 15.6267 12.2051 15.44C11.9904 15.2533 11.8224 15.0107 11.7011 14.712C11.5798 14.404 11.5191 14.0307 11.5191 13.592ZM13.1431 13.592C13.1431 14.3947 13.4184 14.796 13.9691 14.796C14.2584 14.796 14.4638 14.712 14.5851 14.544C14.7158 14.3667 14.7858 14.0493 14.7951 13.592C14.7858 13.144 14.7158 12.8313 14.5851 12.654C14.4638 12.4767 14.2584 12.388 13.9691 12.388C13.6798 12.388 13.4698 12.4767 13.3391 12.654C13.2084 12.8313 13.1431 13.144 13.1431 13.592ZM14.5991 6.004L15.6211 6.928L7.55709 16.196L6.53509 15.23L14.5991 6.004Z" fill="white"/>
</svg>
