<svg width="16" height="16" viewBox="0 0 16 16" fill="none" xmlns="http://www.w3.org/2000/svg">
<g clip-path="url(#clip0)">
<path d="M8.00003 5.2335C6.47407 5.2335 5.23337 6.47456 5.23337 8.00015C5.23337 9.52575 6.47411 10.7668 8.00003 10.7668C9.52595 10.7668 10.7667 9.52575 10.7667 8.00015C10.7667 6.47456 9.52599 5.2335 8.00003 5.2335ZM8.00003 9.90015C6.95238 9.90015 6.10003 9.0478 6.10003 8.00015C6.10003 6.95251 6.95238 6.10015 8.00003 6.10015C9.04768 6.10015 9.90003 6.95251 9.90003 8.00015C9.90003 9.0478 9.04768 9.90015 8.00003 9.90015Z" fill="#0957C3" stroke="#0957C3" stroke-width="0.2"/>
<path d="M15.6667 7.56666H14.077C13.8633 4.5494 11.4509 2.13666 8.43334 1.92299V0.333344C8.43334 0.0938653 8.23948 -0.1 8 -0.1C7.76052 -0.1 7.56666 0.0938652 7.56666 0.333344V1.92299C4.54913 2.13666 2.13666 4.5494 1.92299 7.56666H0.333344C0.0938651 7.56666 -0.1 7.76052 -0.1 8C-0.1 8.23948 0.0938653 8.43334 0.333344 8.43334H1.92299C2.13666 11.4506 4.54913 13.8633 7.56666 14.077V15.6667C7.56666 15.9062 7.76052 16.1 8 16.1C8.23948 16.1 8.43334 15.9062 8.43334 15.6667V14.077C11.4509 13.8633 13.8633 11.4506 14.077 8.43334H15.6667C15.9062 8.43334 16.1 8.23948 16.1 8C16.1 7.76051 15.9061 7.56666 15.6667 7.56666ZM8 13.2333C5.11448 13.2333 2.76666 10.8855 2.76666 8C2.76666 5.11448 5.11448 2.76666 8 2.76666C10.8855 2.76666 13.2333 5.11448 13.2333 8C13.2333 10.8855 10.8855 13.2333 8 13.2333Z" fill="#0957C3" stroke="#0957C3" stroke-width="0.2"/>
</g>
<defs>
<clipPath id="clip0">
<rect width="16" height="16" fill="white" transform="matrix(-1 0 0 1 16 0)"/>
</clipPath>
</defs>
</svg>
