<svg width="32" height="32" viewBox="0 0 32 32" fill="none" xmlns="http://www.w3.org/2000/svg">
<rect width="32" height="32" rx="4" fill="#3EBFAC" fill-opacity="0.1"/>
<g clip-path="url(#clip0)">
<mask id="mask0" mask-type="alpha" maskUnits="userSpaceOnUse" x="7" y="7" width="17" height="18">
<path d="M23.7109 7H7.71094V25H23.7109V7Z" fill="white"/>
<path fill-rule="evenodd" clip-rule="evenodd" d="M22.8519 9.88736C22.5708 9.60495 22.1883 9.44684 21.7899 9.44838H21.2111V9.28908C21.2122 8.95936 21.0852 8.64208 20.857 8.40405L20.8358 8.38104L20.8309 8.37613C20.3318 7.87981 19.5249 7.88197 19.0286 8.38104C18.7885 8.62009 18.6534 8.94494 18.6533 9.28377V9.44307H13.3467V9.28377C13.3478 8.95405 13.2209 8.63677 12.9927 8.39874L12.9715 8.37573L12.9665 8.37082C12.4675 7.8745 11.6606 7.87666 11.1642 8.37573C10.9241 8.61478 10.7891 8.93963 10.789 9.27846V9.43776H10.2102L10.2049 9.43422C9.38059 9.43617 8.71288 10.1039 8.71094 10.9281V22.5043C8.7112 22.8899 8.86095 23.2605 9.12867 23.538L9.14991 23.561C9.431 23.8434 9.8135 24.0015 10.2119 24H21.7899C22.1881 24.002 22.5705 23.8445 22.8519 23.5628C23.1343 23.2817 23.2924 22.8992 23.2909 22.5008V10.9494C23.2924 10.5509 23.1343 10.1684 22.8519 9.88736ZM19.3614 9.79177V9.27492C19.3617 9.12535 19.4216 8.98202 19.5277 8.87666L19.5315 8.8729C19.751 8.65549 20.1051 8.65717 20.3225 8.87666L20.3366 8.89082C20.4336 8.99521 20.4874 9.13247 20.4871 9.27492V10.3086C20.4873 10.3182 20.4872 10.3278 20.4869 10.3373C20.4771 10.6422 20.222 10.8813 19.9171 10.8715C19.6091 10.8676 19.3613 10.6168 19.3614 10.3086V9.79177ZM11.5041 10.3086V9.79177L11.5112 9.27492C11.511 9.12557 11.5702 8.98233 11.6758 8.87666L11.6795 8.8729C11.899 8.65549 12.2532 8.65717 12.4705 8.87666L12.4847 8.89082C12.5816 8.99521 12.6354 9.13247 12.6351 9.27492V10.3086C12.6368 10.335 12.6365 10.3614 12.6343 10.3877C12.6093 10.6799 12.3521 10.8966 12.0599 10.8715C12.0404 10.8724 12.021 10.8724 12.0016 10.8712C11.7089 10.8532 11.4862 10.6013 11.5041 10.3086ZM9.43312 10.9299C9.43507 10.5006 9.78262 10.153 10.2119 10.1511H10.7907V10.3104C10.7907 10.6609 11.0368 11.5884 12.0864 11.5884C13.1219 11.5884 13.3432 10.6609 13.3432 10.3086V10.1493H18.6498V10.3086C18.6498 10.6609 18.8657 11.5884 19.9278 11.5884C21.0287 11.5884 21.2057 10.6626 21.2057 10.3086V10.1493H21.7828C21.9894 10.1491 22.1875 10.2312 22.3333 10.3777C22.4795 10.5235 22.5617 10.7216 22.5616 10.9281V13.1496H9.43312V10.9299ZM22.5634 22.5061C22.5636 22.7127 22.4815 22.9108 22.335 23.0566C22.1893 23.203 21.9912 23.2852 21.7846 23.2849H10.2119C10.0039 23.2821 9.80554 23.1961 9.66146 23.0459L9.64553 23.0318C9.50963 22.8883 9.43365 22.6984 9.43312 22.5008V13.8647H22.5634V22.5061ZM12.8016 16.8C12.8016 16.3582 13.1598 16 13.6016 16C14.0434 16 14.4016 16.3582 14.4016 16.8C14.4016 17.2418 14.0434 17.6 13.6016 17.6C13.1598 17.6 12.8016 17.2418 12.8016 16.8ZM18.4016 16C17.9597 16 17.6016 16.3582 17.6016 16.8C17.6016 17.2418 17.9597 17.6 18.4016 17.6C18.8434 17.6 19.2016 17.2418 19.2016 16.8C19.2016 16.3582 18.8434 16 18.4016 16ZM12.8016 20C12.8016 19.5581 13.1598 19.2 13.6016 19.2C14.0434 19.2 14.4016 19.5581 14.4016 20C14.4016 20.4418 14.0434 20.8 13.6016 20.8C13.1598 20.8 12.8016 20.4418 12.8016 20ZM18.4016 19.2C17.9597 19.2 17.6016 19.5581 17.6016 20C17.6016 20.4418 17.9597 20.8 18.4016 20.8C18.8434 20.8 19.2016 20.4418 19.2016 20C19.2016 19.5581 18.8434 19.2 18.4016 19.2Z" fill="black"/>
</mask>
<g mask="url(#mask0)">
<path fill-rule="evenodd" clip-rule="evenodd" d="M22.8519 9.88736C22.5708 9.60495 22.1883 9.44684 21.7899 9.44838H21.2111V9.28908C21.2122 8.95936 21.0852 8.64208 20.857 8.40405L20.8358 8.38104L20.8309 8.37613C20.3318 7.87981 19.5249 7.88197 19.0286 8.38104C18.7885 8.62009 18.6534 8.94494 18.6533 9.28377V9.44307H13.3467V9.28377C13.3478 8.95405 13.2209 8.63677 12.9927 8.39874L12.9715 8.37573L12.9665 8.37082C12.4675 7.8745 11.6606 7.87666 11.1642 8.37573C10.9241 8.61478 10.7891 8.93963 10.789 9.27846V9.43776H10.2102L10.2049 9.43422C9.38059 9.43617 8.71288 10.1039 8.71094 10.9281V22.5043C8.7112 22.8899 8.86095 23.2605 9.12867 23.538L9.14991 23.561C9.431 23.8434 9.8135 24.0015 10.2119 24H21.7899C22.1881 24.002 22.5705 23.8445 22.8519 23.5628C23.1343 23.2817 23.2924 22.8992 23.2909 22.5008V10.9494C23.2924 10.5509 23.1343 10.1684 22.8519 9.88736ZM19.3614 9.79177V9.27492C19.3617 9.12535 19.4216 8.98202 19.5277 8.87666L19.5315 8.8729C19.751 8.65549 20.1051 8.65717 20.3225 8.87666L20.3366 8.89082C20.4336 8.99521 20.4874 9.13247 20.4871 9.27492V10.3086C20.4873 10.3182 20.4872 10.3278 20.4869 10.3373C20.4771 10.6422 20.222 10.8813 19.9171 10.8715C19.6091 10.8676 19.3613 10.6168 19.3614 10.3086V9.79177ZM11.5041 10.3086V9.79177L11.5112 9.27492C11.511 9.12557 11.5702 8.98233 11.6758 8.87666L11.6795 8.8729C11.899 8.65549 12.2532 8.65717 12.4705 8.87666L12.4847 8.89082C12.5816 8.99521 12.6354 9.13247 12.6351 9.27492V10.3086C12.6368 10.335 12.6365 10.3614 12.6343 10.3877C12.6093 10.6799 12.3521 10.8966 12.0599 10.8715C12.0404 10.8724 12.021 10.8724 12.0016 10.8712C11.7089 10.8532 11.4862 10.6013 11.5041 10.3086ZM9.43312 10.9299C9.43507 10.5006 9.78262 10.153 10.2119 10.1511H10.7907V10.3104C10.7907 10.6609 11.0368 11.5884 12.0864 11.5884C13.1219 11.5884 13.3432 10.6609 13.3432 10.3086V10.1493H18.6498V10.3086C18.6498 10.6609 18.8657 11.5884 19.9278 11.5884C21.0287 11.5884 21.2057 10.6626 21.2057 10.3086V10.1493H21.7828C21.9894 10.1491 22.1875 10.2312 22.3333 10.3777C22.4795 10.5235 22.5617 10.7216 22.5616 10.9281V13.1496H9.43312V10.9299ZM22.5634 22.5061C22.5636 22.7127 22.4815 22.9108 22.335 23.0566C22.1893 23.203 21.9912 23.2852 21.7846 23.2849H10.2119C10.0039 23.2821 9.80554 23.1961 9.66146 23.0459L9.64553 23.0318C9.50963 22.8883 9.43365 22.6984 9.43312 22.5008V13.8647H22.5634V22.5061ZM12.8016 16.8C12.8016 16.3582 13.1598 16 13.6016 16C14.0434 16 14.4016 16.3582 14.4016 16.8C14.4016 17.2418 14.0434 17.6 13.6016 17.6C13.1598 17.6 12.8016 17.2418 12.8016 16.8ZM18.4016 16C17.9597 16 17.6016 16.3582 17.6016 16.8C17.6016 17.2418 17.9597 17.6 18.4016 17.6C18.8434 17.6 19.2016 17.2418 19.2016 16.8C19.2016 16.3582 18.8434 16 18.4016 16ZM12.8016 20C12.8016 19.5581 13.1598 19.2 13.6016 19.2C14.0434 19.2 14.4016 19.5581 14.4016 20C14.4016 20.4418 14.0434 20.8 13.6016 20.8C13.1598 20.8 12.8016 20.4418 12.8016 20ZM18.4016 19.2C17.9597 19.2 17.6016 19.5581 17.6016 20C17.6016 20.4418 17.9597 20.8 18.4016 20.8C18.8434 20.8 19.2016 20.4418 19.2016 20C19.2016 19.5581 18.8434 19.2 18.4016 19.2Z" fill="#3EBFAC"/>
<path d="M21.7907 9.44916V9.64917L21.7914 9.64916L21.7907 9.44916ZM22.8527 9.88814L22.7109 10.0292L22.7116 10.0299L22.8527 9.88814ZM21.2119 9.44916H21.0119V9.64916H21.2119V9.44916ZM21.2119 9.28986L21.0119 9.28919V9.28986H21.2119ZM20.8578 8.40484L20.7109 8.54051L20.7135 8.54324L20.8578 8.40484ZM20.8366 8.38182L20.9837 8.24606L20.978 8.24038L20.8366 8.38182ZM20.8317 8.37691L20.9731 8.23547L20.9727 8.2351L20.8317 8.37691ZM19.0294 8.38182L19.1705 8.52356L19.1712 8.52285L19.0294 8.38182ZM18.6541 9.28455L18.4541 9.2845V9.28455H18.6541ZM18.6541 9.44385V9.64385H18.8541V9.44385H18.6541ZM13.3475 9.44385H13.1475V9.64385H13.3475V9.44385ZM13.3475 9.28455L13.1475 9.28388V9.28455H13.3475ZM12.9935 8.39952L12.8465 8.53521L12.8491 8.53793L12.9935 8.39952ZM12.9722 8.37651L13.1193 8.24075L13.1137 8.23509L12.9722 8.37651ZM12.9673 8.3716L13.1087 8.23018L13.1084 8.2298L12.9673 8.3716ZM11.165 8.37651L11.3061 8.51825L11.3068 8.51755L11.165 8.37651ZM10.7898 9.27924L10.5898 9.27919V9.27924H10.7898ZM10.7898 9.43854V9.63854H10.9898V9.43854H10.7898ZM10.2109 9.43854L10.1 9.60495L10.1504 9.63854H10.2109V9.43854ZM10.2056 9.435L10.3166 9.2686L10.266 9.23486L10.2052 9.235L10.2056 9.435ZM8.71172 10.9289L8.51172 10.9285V10.9289H8.71172ZM8.71172 22.5051H8.51172L8.51172 22.5052L8.71172 22.5051ZM9.12945 23.5388L9.27645 23.4031L9.2734 23.4L9.12945 23.5388ZM9.15069 23.5618L9.00363 23.6976L9.00894 23.7029L9.15069 23.5618ZM10.2127 24.0008V23.8008H10.2119L10.2127 24.0008ZM21.7907 24.0008L21.7917 23.8008H21.7907V24.0008ZM22.8527 23.5636L22.7116 23.4218L22.7112 23.4223L22.8527 23.5636ZM23.2917 22.5016H23.0917V22.5023L23.2917 22.5016ZM23.2917 10.9502L23.0917 10.9494V10.9502H23.2917ZM19.3622 9.2757L19.1622 9.27523V9.2757H19.3622ZM19.5285 8.87744L19.6694 9.01939L19.6699 9.01887L19.5285 8.87744ZM19.5323 8.87368L19.3915 8.73158L19.3909 8.73224L19.5323 8.87368ZM20.3233 8.87744L20.1812 9.01817L20.1819 9.01886L20.3233 8.87744ZM20.3374 8.8916L20.4841 8.7554L20.4789 8.75017L20.3374 8.8916ZM20.4879 9.2757L20.2879 9.27533V9.2757H20.4879ZM20.4879 10.3094H20.2879V10.3131L20.4879 10.3094ZM20.4877 10.3381L20.2878 10.3317V10.3317L20.4877 10.3381ZM19.9179 10.8723L19.9244 10.6724L19.9205 10.6723L19.9179 10.8723ZM19.3622 10.3094L19.5622 10.3094V10.3094H19.3622ZM11.5049 9.79255L11.3049 9.78981V9.79255H11.5049ZM11.5049 10.3094L11.7049 10.3217V10.3094H11.5049ZM11.5119 9.2757L11.7119 9.27844V9.27552L11.5119 9.2757ZM11.6766 8.87744L11.5351 8.73602L11.535 8.73611L11.6766 8.87744ZM11.6803 8.87368L11.5396 8.73158L11.5389 8.73226L11.6803 8.87368ZM12.4713 8.87744L12.3292 9.01817L12.3299 9.01886L12.4713 8.87744ZM12.4855 8.8916L12.6321 8.7554L12.6269 8.75018L12.4855 8.8916ZM12.6359 9.2757L12.4359 9.27533V9.2757H12.6359ZM12.6359 10.3094H12.4355L12.4363 10.3221L12.6359 10.3094ZM12.6351 10.3885L12.8344 10.4056L12.8344 10.4053L12.6351 10.3885ZM12.0607 10.8723L12.0777 10.673L12.0644 10.6719L12.0511 10.6725L12.0607 10.8723ZM12.0024 10.8719L12.0147 10.6723H12.0146L12.0024 10.8719ZM10.2127 10.1519V9.95187L10.2118 9.95188L10.2127 10.1519ZM9.4339 10.9307L9.2339 10.9298V10.9307H9.4339ZM10.7915 10.1519H10.9915V9.95188H10.7915V10.1519ZM13.3439 10.1501V9.95011H13.1439V10.1501H13.3439ZM18.6506 10.1501H18.8506V9.95011H18.6506V10.1501ZM21.2065 10.1501V9.95011H21.0065V10.1501H21.2065ZM21.7836 10.1501V10.3501L21.7838 10.3501L21.7836 10.1501ZM22.3341 10.3784L22.1923 10.5195L22.1928 10.5201L22.3341 10.3784ZM22.5624 10.9289L22.3624 10.9288V10.9289H22.5624ZM22.5624 13.1504V13.3504H22.7624V13.1504H22.5624ZM9.4339 13.1504H9.2339V13.3504H9.4339V13.1504ZM22.3358 23.0574L22.1947 22.9156L22.1941 22.9163L22.3358 23.0574ZM22.5642 22.5069H22.3642V22.5071L22.5642 22.5069ZM21.7854 23.2857L21.7856 23.0857H21.7854V23.2857ZM10.2127 23.2857L10.2101 23.4857H10.2127V23.2857ZM9.66224 23.0467L9.80654 22.9083L9.80104 22.9025L9.7951 22.8972L9.66224 23.0467ZM9.64631 23.0326L9.50111 23.1701L9.50702 23.1764L9.51344 23.1821L9.64631 23.0326ZM9.4339 22.5016H9.2339V22.5021L9.4339 22.5016ZM9.4339 13.8655V13.6655H9.2339V13.8655H9.4339ZM22.5642 13.8655H22.7642V13.6655H22.5642V13.8655ZM21.7914 9.64916C22.1364 9.64782 22.4676 9.78471 22.7109 10.0292L22.9944 9.74705C22.6756 9.42674 22.2418 9.24741 21.7899 9.24917L21.7914 9.64916ZM21.2119 9.64916H21.7907V9.24916H21.2119V9.64916ZM21.0119 9.28986V9.44916H21.4119V9.28986H21.0119ZM20.7135 8.54324C20.9058 8.74387 21.0128 9.01129 21.0119 9.28919L21.4119 9.29053C21.4131 8.90899 21.2663 8.54185 21.0022 8.26642L20.7135 8.54324ZM20.6896 8.51748L20.7109 8.54049L21.0048 8.26918L20.9836 8.24617L20.6896 8.51748ZM20.6903 8.51835L20.6952 8.52327L20.978 8.24038L20.9731 8.23547L20.6903 8.51835ZM19.1712 8.52285C19.5896 8.10212 20.2699 8.10028 20.6907 8.51872L20.9727 8.2351C20.3953 7.6609 19.4618 7.66339 18.8876 8.24079L19.1712 8.52285ZM18.8541 9.2846C18.8542 8.99896 18.9681 8.72509 19.1705 8.52356L18.8883 8.24009C18.6105 8.51665 18.4542 8.89248 18.4541 9.2845L18.8541 9.2846ZM18.8541 9.44385V9.28455H18.4541V9.44385H18.8541ZM13.3475 9.64385H18.6541V9.24385H13.3475V9.64385ZM13.1475 9.28455V9.44385H13.5475V9.28455H13.1475ZM12.8491 8.53793C13.0415 8.73856 13.1484 9.00598 13.1475 9.28388L13.5475 9.28522C13.5488 8.90368 13.4019 8.53654 13.1378 8.26111L12.8491 8.53793ZM12.8253 8.51217L12.8465 8.53518L13.1404 8.26387L13.1192 8.24086L12.8253 8.51217ZM12.8259 8.51302L12.8308 8.51794L13.1137 8.23509L13.1087 8.23018L12.8259 8.51302ZM11.3068 8.51755C11.7253 8.0968 12.4056 8.09498 12.8263 8.51341L13.1084 8.2298C12.531 7.65558 11.5975 7.65809 11.0232 8.23548L11.3068 8.51755ZM10.9898 9.27929C10.9898 8.99365 11.1037 8.71978 11.3061 8.51825L11.0239 8.23478C10.7461 8.51134 10.5899 8.88717 10.5898 9.27919L10.9898 9.27929ZM10.9898 9.43854V9.27924H10.5898V9.43854H10.9898ZM10.2109 9.63854H10.7898V9.23854H10.2109V9.63854ZM10.0947 9.60141L10.1 9.60495L10.3219 9.27214L10.3166 9.2686L10.0947 9.60141ZM8.91172 10.9294C8.91341 10.2152 9.49193 9.63669 10.2061 9.635L10.2052 9.235C9.27081 9.23721 8.51393 9.9941 8.51172 10.9285L8.91172 10.9294ZM8.91172 22.5051V10.9289H8.51172V22.5051H8.91172ZM9.2734 23.4C9.0416 23.1597 8.91195 22.8389 8.91172 22.505L8.51172 22.5052C8.51202 22.9426 8.68186 23.3629 8.98551 23.6777L9.2734 23.4ZM9.29765 23.4262L9.27641 23.4032L8.98249 23.6745L9.00373 23.6975L9.29765 23.4262ZM10.2119 23.8008C9.86699 23.8021 9.53581 23.6652 9.29245 23.4207L9.00894 23.7029C9.32774 24.0232 9.76158 24.2025 10.2135 24.2008L10.2119 23.8008ZM21.7907 23.8008H10.2127V24.2008H21.7907V23.8008ZM22.7112 23.4223C22.4675 23.6662 22.1364 23.8025 21.7917 23.8008L21.7897 24.2008C22.2413 24.203 22.6751 24.0245 22.9942 23.7049L22.7112 23.4223ZM23.0917 22.5023C23.093 22.8473 22.9561 23.1785 22.7116 23.4218L22.9938 23.7053C23.3141 23.3865 23.4934 22.9527 23.4917 22.5008L23.0917 22.5023ZM23.0917 10.9502V22.5016H23.4917V10.9502H23.0917ZM22.7116 10.0299C22.9561 10.2733 23.093 10.6044 23.0917 10.9494L23.4917 10.951C23.4934 10.499 23.3141 10.0652 22.9938 9.74638L22.7116 10.0299ZM19.1622 9.2757V9.79255H19.5622V9.2757H19.1622ZM19.3876 8.73549C19.2438 8.87829 19.1626 9.07253 19.1622 9.27523L19.5621 9.27617C19.5624 9.17973 19.601 9.08731 19.6694 9.01939L19.3876 8.73549ZM19.3909 8.73224L19.3871 8.736L19.6699 9.01887L19.6737 9.01511L19.3909 8.73224ZM20.4654 8.73671C20.1703 8.43872 19.6895 8.43646 19.3915 8.73158L19.673 9.01577C19.8141 8.87609 20.0416 8.87719 20.1812 9.01817L20.4654 8.73671ZM20.4789 8.75017L20.4647 8.73601L20.1819 9.01886L20.196 9.03302L20.4789 8.75017ZM20.6879 9.27607C20.6883 9.083 20.6154 8.89697 20.484 8.75549L20.1909 9.0277C20.2534 9.09501 20.2881 9.1835 20.2879 9.27533L20.6879 9.27607ZM20.6879 10.3094V9.2757H20.2879V10.3094H20.6879ZM20.6876 10.3446C20.6881 10.3314 20.6881 10.3183 20.6879 10.3057L20.2879 10.3131C20.2881 10.3196 20.288 10.3258 20.2878 10.3317L20.6876 10.3446ZM19.9115 11.0722C20.3267 11.0856 20.6742 10.7598 20.6876 10.3446L20.2878 10.3317C20.2816 10.5261 20.1189 10.6787 19.9244 10.6724L19.9115 11.0722ZM19.1622 10.3094C19.1621 10.727 19.4979 11.067 19.9154 11.0723L19.9205 10.6723C19.7218 10.6698 19.5621 10.508 19.5622 10.3094L19.1622 10.3094ZM19.1622 9.79255V10.3094H19.5622V9.79255H19.1622ZM11.3049 9.79255V10.3094H11.7049V9.79255H11.3049ZM11.312 9.27296L11.3049 9.78981L11.7048 9.79529L11.7119 9.27844L11.312 9.27296ZM11.535 8.73611C11.392 8.87932 11.3118 9.07346 11.3119 9.27588L11.7119 9.27552C11.7119 9.17924 11.75 9.0869 11.8181 9.01877L11.535 8.73611ZM11.5389 8.73226L11.5351 8.73602L11.818 9.01886L11.8217 9.01509L11.5389 8.73226ZM12.6134 8.73671C12.3183 8.43872 11.8375 8.43645 11.5396 8.73158L11.8211 9.01577C11.9621 8.87609 12.1896 8.87719 12.3292 9.01817L12.6134 8.73671ZM12.6269 8.75018L12.6127 8.73602L12.3299 9.01886L12.344 9.03302L12.6269 8.75018ZM12.8359 9.27607C12.8363 9.083 12.7634 8.89697 12.632 8.75549L12.3389 9.0277C12.4014 9.09501 12.4361 9.1835 12.4359 9.27533L12.8359 9.27607ZM12.8359 10.3094V9.2757H12.4359V10.3094H12.8359ZM12.8344 10.4053C12.8374 10.3694 12.8378 10.3331 12.8355 10.2967L12.4363 10.3221C12.4374 10.3385 12.4372 10.355 12.4358 10.3718L12.8344 10.4053ZM12.0436 11.0716C12.4459 11.106 12.7999 10.8078 12.8343 10.4056L12.4358 10.3715C12.4202 10.5536 12.2599 10.6886 12.0777 10.673L12.0436 11.0716ZM11.9901 11.0716C12.0171 11.0732 12.0438 11.0733 12.0702 11.0721L12.0511 10.6725C12.0386 10.6731 12.0265 10.673 12.0147 10.6723L11.9901 11.0716ZM11.3052 10.2972C11.2806 10.7002 11.5872 11.0468 11.9901 11.0716L12.0146 10.6723C11.8322 10.6611 11.6933 10.5041 11.7045 10.3216L11.3052 10.2972ZM10.2118 9.95188C9.67274 9.95432 9.23635 10.3907 9.2339 10.9298L9.6339 10.9316C9.63535 10.612 9.89405 10.3533 10.2136 10.3519L10.2118 9.95188ZM10.7915 9.95188H10.2127V10.3519H10.7915V9.95188ZM10.9915 10.3112V10.1519H10.5915V10.3112H10.9915ZM12.0872 11.3892C11.6324 11.3892 11.3678 11.1932 11.2097 10.967C11.044 10.73 10.9915 10.4521 10.9915 10.3112H10.5915C10.5915 10.5207 10.6621 10.8818 10.8818 11.1962C11.1092 11.5214 11.4923 11.7892 12.0872 11.7892V11.3892ZM13.1439 10.3094C13.1439 10.4549 13.0959 10.7339 12.9377 10.9701C12.7872 11.1949 12.5332 11.3892 12.0872 11.3892V11.7892C12.6767 11.7892 13.0511 11.5197 13.2701 11.1927C13.4814 10.8771 13.544 10.5161 13.544 10.3094H13.1439ZM13.1439 10.1501V10.3094H13.544V10.1501H13.1439ZM18.6506 9.95011H13.3439V10.3501H18.6506V9.95011ZM18.8506 10.3094V10.1501H18.4506V10.3094H18.8506ZM19.9286 11.3892C19.4673 11.3892 19.2084 11.1931 19.0569 10.9693C18.8976 10.7339 18.8506 10.4555 18.8506 10.3094H18.4506C18.4506 10.5155 18.5115 10.8771 18.7257 11.1935C18.9477 11.5215 19.3278 11.7892 19.9286 11.7892V11.3892ZM21.0065 10.3094C21.0065 10.462 20.9669 10.7394 20.8135 10.9719C20.6686 11.1915 20.4118 11.3892 19.9286 11.3892V11.7892C20.5463 11.7892 20.9285 11.5239 21.1474 11.1922C21.3577 10.8734 21.4065 10.5108 21.4065 10.3094H21.0065ZM21.0065 10.1501V10.3094H21.4065V10.1501H21.0065ZM21.7836 9.95011H21.2065V10.3501H21.7836V9.95011ZM22.4758 10.2373C22.2925 10.0532 22.0432 9.94977 21.7833 9.95011L21.7838 10.3501C21.9372 10.3499 22.0842 10.4109 22.1923 10.5195L22.4758 10.2373ZM22.7624 10.929C22.7625 10.6693 22.6592 10.4202 22.4753 10.2368L22.1928 10.5201C22.3015 10.6284 22.3625 10.7755 22.3624 10.9288L22.7624 10.929ZM22.7624 13.1504V10.9289H22.3624V13.1504H22.7624ZM9.4339 13.3504H22.5624V12.9504H9.4339V13.3504ZM9.2339 10.9307V13.1504H9.6339V10.9307H9.2339ZM22.4769 23.1991C22.6611 23.0157 22.7645 22.7665 22.7642 22.5066L22.3642 22.5071C22.3644 22.6604 22.3034 22.8074 22.1947 22.9156L22.4769 23.1991ZM21.7851 23.4857C22.045 23.486 22.2942 23.3826 22.4776 23.1985L22.1941 22.9163C22.0859 23.0249 21.9389 23.0859 21.7856 23.0857L21.7851 23.4857ZM10.2127 23.4857H21.7854V23.0857H10.2127V23.4857ZM9.51793 23.1852C9.69911 23.374 9.94849 23.4822 10.2101 23.4857L10.2154 23.0857C10.0608 23.0837 9.91352 23.0197 9.80654 22.9083L9.51793 23.1852ZM9.51344 23.1821L9.52937 23.1962L9.7951 22.8972L9.77917 22.8831L9.51344 23.1821ZM9.2339 22.5021C9.23457 22.7507 9.33015 22.9896 9.50111 23.1701L9.7915 22.895C9.69067 22.7886 9.63429 22.6477 9.6339 22.501L9.2339 22.5021ZM9.2339 13.8655V22.5016H9.6339V13.8655H9.2339ZM22.5642 13.6655H9.4339V14.0655H22.5642V13.6655ZM22.7642 22.5069V13.8655H22.3642V22.5069H22.7642ZM13.6024 15.8008C13.0501 15.8008 12.6024 16.2485 12.6024 16.8008H13.0024C13.0024 16.4694 13.271 16.2008 13.6024 16.2008V15.8008ZM14.6024 16.8008C14.6024 16.2485 14.1547 15.8008 13.6024 15.8008V16.2008C13.9337 16.2008 14.2024 16.4694 14.2024 16.8008H14.6024ZM13.6024 17.8008C14.1547 17.8008 14.6024 17.3531 14.6024 16.8008H14.2024C14.2024 17.1322 13.9337 17.4008 13.6024 17.4008V17.8008ZM12.6024 16.8008C12.6024 17.3531 13.0501 17.8008 13.6024 17.8008V17.4008C13.271 17.4008 13.0024 17.1322 13.0024 16.8008H12.6024ZM17.8023 16.8008C17.8023 16.4694 18.071 16.2008 18.4024 16.2008V15.8008C17.8501 15.8008 17.4023 16.2485 17.4023 16.8008H17.8023ZM18.4024 17.4008C18.071 17.4008 17.8023 17.1322 17.8023 16.8008H17.4023C17.4023 17.3531 17.8501 17.8008 18.4024 17.8008V17.4008ZM19.0024 16.8008C19.0024 17.1322 18.7337 17.4008 18.4024 17.4008V17.8008C18.9546 17.8008 19.4024 17.3531 19.4024 16.8008H19.0024ZM18.4024 16.2008C18.7337 16.2008 19.0024 16.4694 19.0024 16.8008H19.4024C19.4024 16.2485 18.9546 15.8008 18.4024 15.8008V16.2008ZM13.6024 19.0008C13.0501 19.0008 12.6024 19.4485 12.6024 20.0008H13.0024C13.0024 19.6694 13.271 19.4008 13.6024 19.4008V19.0008ZM14.6024 20.0008C14.6024 19.4485 14.1547 19.0008 13.6024 19.0008V19.4008C13.9337 19.4008 14.2024 19.6694 14.2024 20.0008H14.6024ZM13.6024 21.0008C14.1547 21.0008 14.6024 20.5531 14.6024 20.0008H14.2024C14.2024 20.3321 13.9337 20.6008 13.6024 20.6008V21.0008ZM12.6024 20.0008C12.6024 20.5531 13.0501 21.0008 13.6024 21.0008V20.6008C13.271 20.6008 13.0024 20.3321 13.0024 20.0008H12.6024ZM17.8023 20.0008C17.8023 19.6694 18.071 19.4008 18.4024 19.4008V19.0008C17.8501 19.0008 17.4023 19.4485 17.4023 20.0008H17.8023ZM18.4024 20.6008C18.071 20.6008 17.8023 20.3321 17.8023 20.0008H17.4023C17.4023 20.5531 17.8501 21.0008 18.4024 21.0008V20.6008ZM19.0024 20.0008C19.0024 20.3321 18.7337 20.6008 18.4024 20.6008V21.0008C18.9546 21.0008 19.4024 20.5531 19.4024 20.0008H19.0024ZM18.4024 19.4008C18.7337 19.4008 19.0024 19.6694 19.0024 20.0008H19.4024C19.4024 19.4485 18.9546 19.0008 18.4024 19.0008V19.4008Z" fill="#3EBFAC"/>
</g>
</g>
<defs>
<clipPath id="clip0">
<rect x="8" y="8" width="16" height="16" fill="white"/>
</clipPath>
</defs>
</svg>
