<svg width="8" height="8" viewBox="0 0 8 8" fill="none" xmlns="http://www.w3.org/2000/svg">
<path d="M6.45075 1.01157L6.45074 1.01158L4.00064 3.46231L1.5499 1.01157C1.40113 0.862809 1.16034 0.862809 1.01157 1.01157C0.862809 1.16034 0.862809 1.40113 1.01157 1.5499L3.46169 4.00001L1.01157 6.45075C1.01157 6.45075 1.01157 6.45075 1.01156 6.45076C0.862809 6.59952 0.862812 6.84031 1.01157 6.98907C1.08571 7.06321 1.18301 7.10097 1.28106 7.10097C1.3789 7.10097 1.47638 7.06334 1.55009 6.98887C1.55017 6.9888 1.55024 6.98873 1.55031 6.98865L4.00001 4.53896L6.45075 6.98907C6.45075 6.98907 6.45075 6.98908 6.45076 6.98908C6.52481 7.06313 6.62207 7.10097 6.71959 7.10097C6.81667 7.10097 6.91485 7.06342 6.98865 6.98885C7.13719 6.84007 7.13712 6.59945 6.98844 6.45076C6.98843 6.45075 6.98843 6.45075 6.98843 6.45075L4.53895 4.00065L6.98907 1.5499C6.98907 1.54989 6.98908 1.54989 6.98908 1.54989C7.13784 1.40112 7.13783 1.16034 6.98907 1.01157C6.84031 0.862809 6.59951 0.862809 6.45075 1.01157Z" fill="black" stroke="black" stroke-width="0.2"/>
</svg>
