<svg width="11" height="11" viewBox="0 0 11 11" fill="none" xmlns="http://www.w3.org/2000/svg">
<path fill-rule="evenodd" clip-rule="evenodd" d="M5.00139 3.93828L8.71965 0.220016C9.013 -0.0733388 9.48863 -0.0733387 9.78198 0.220016C10.0753 0.513371 10.0753 0.988994 9.78198 1.28235L6.06372 5.00061L9.78201 8.71891C10.0754 9.01226 10.0754 9.48788 9.78201 9.78124C9.48866 10.0746 9.01304 10.0746 8.71968 9.78124L5.00139 6.06294L1.28332 9.78101C0.98997 10.0744 0.514348 10.0744 0.220993 9.78101C-0.0723622 9.48765 -0.0723622 9.01203 0.220993 8.71868L3.93905 5.00061L0.221023 1.28258C-0.0723323 0.989225 -0.0723323 0.513603 0.221023 0.220248C0.514378 -0.073107 0.99 -0.073107 1.28335 0.220248L5.00139 3.93828Z" fill="#0957C3"/>
</svg>
