<svg width="16" height="16" viewBox="0 0 16 16" fill="none" xmlns="http://www.w3.org/2000/svg">
<path fill-rule="evenodd" clip-rule="evenodd" d="M7.2503 7.25027L7.25029 1.99185C7.25029 1.57699 7.58661 1.24067 8.00148 1.24067C8.41634 1.24067 8.75266 1.57699 8.75266 1.99185L8.75266 7.25027L14.0111 7.25027C14.426 7.25027 14.7623 7.58659 14.7623 8.00145C14.7623 8.41632 14.426 8.75264 14.0111 8.75264L8.75266 8.75264L8.75266 14.0108C8.75266 14.4256 8.41635 14.762 8.00148 14.762C7.58661 14.762 7.2503 14.4256 7.2503 14.0108L7.2503 8.75264L1.9922 8.75264C1.57734 8.75264 1.24102 8.41632 1.24102 8.00146C1.24102 7.58659 1.57734 7.25027 1.9922 7.25027L7.2503 7.25027Z" fill="#C2C2C3"/>
</svg>
