<svg width="16" height="16" viewBox="0 0 16 16" fill="none" xmlns="http://www.w3.org/2000/svg">
<path d="M10.3954 6.28793C10.3552 6.90668 10.2039 7.50775 9.94155 8.07857C9.81264 8.3575 9.52539 8.52407 9.22363 8.52407C9.11917 8.52407 9.01306 8.50443 8.91109 8.462C8.51523 8.29818 8.33368 7.86132 8.50611 7.48575C8.72912 7.00096 8.84228 6.48593 8.84228 5.95479C8.84228 4.43718 7.90839 3.12307 6.55668 2.5C7.49098 6.41679 4 6.42936 4 9.70893C4 11.8029 5.79067 13.5 7.99959 13.5C10.2093 13.5 12 11.8029 12 9.70893C12.0004 8.30957 11.1018 7.05675 10.3954 6.28793Z" fill="#FE5000"/>
</svg>
