<svg width="20" height="20" viewBox="0 0 20 20" fill="none" xmlns="http://www.w3.org/2000/svg">
<path d="M18.75 5.61316H14.795C15.0788 5.41941 15.3225 5.22691 15.4925 5.05441C16.5 4.04066 16.5 2.39066 15.4925 1.37691C14.5138 0.391914 12.8063 0.390664 11.8263 1.37691C11.285 1.92066 9.84625 4.13441 10.045 5.61316H9.955C10.1525 4.13441 8.715 1.92066 8.17375 1.37691C7.19375 0.390664 5.48625 0.391914 4.5075 1.37691C3.5 2.39066 3.5 4.04066 4.50625 5.05441C4.6775 5.22691 4.92125 5.41941 5.205 5.61316H1.25C0.56125 5.61316 0 6.17441 0 6.86316V9.98816C0 10.3332 0.28 10.6132 0.625 10.6132H1.25V18.1132C1.25 18.8019 1.81125 19.3632 2.5 19.3632H17.5C18.1887 19.3632 18.75 18.8019 18.75 18.1132V10.6132H19.375C19.72 10.6132 20 10.3332 20 9.98816V6.86316C20 6.17441 19.4387 5.61316 18.75 5.61316ZM5.39375 2.25816C5.6475 2.00316 5.98375 1.86316 6.34125 1.86316C6.6975 1.86316 7.03375 2.00316 7.2875 2.25816C8.13 3.10566 8.9675 5.27066 8.67625 5.57191C8.67625 5.57191 8.62375 5.61316 8.445 5.61316C7.58125 5.61316 5.9325 4.71566 5.39375 4.17316C4.87 3.64566 4.87 2.78566 5.39375 2.25816ZM9.375 18.1132H2.5V10.6132H9.375V18.1132ZM9.375 9.36316H1.25V6.86316H8.445H9.375V9.36316ZM12.7125 2.25816C13.22 1.74941 14.1 1.75066 14.6063 2.25816C15.13 2.78566 15.13 3.64566 14.6063 4.17316C14.0675 4.71566 12.4188 5.61316 11.555 5.61316C11.3763 5.61316 11.3237 5.57316 11.3225 5.57191C11.0325 5.27066 11.87 3.10566 12.7125 2.25816ZM17.5 18.1132H10.625V10.6132H17.5V18.1132ZM18.75 9.36316H10.625V6.86316H11.555H18.75V9.36316Z" fill="white"/>
</svg>
