<svg width="15" height="22" viewBox="0 0 15 22" fill="none" xmlns="http://www.w3.org/2000/svg">
<path d="M13.9872 10.9512C13.8717 8.72821 12.9041 7.27363 11.2521 6.79839C11.3959 6.52968 11.5681 6.24987 11.7795 5.96117C11.8623 5.84791 11.8645 5.69468 11.7882 5.57698L11.0974 4.52435C11.0254 4.41553 10.8969 4.35779 10.7683 4.38222C10.5438 4.4222 10.291 4.49104 10.0251 4.59541C9.63718 3.74265 8.73056 3.46728 8.14866 3.43397C8.0179 3.2341 7.79125 2.72111 8.2293 1.98382C8.28379 1.89277 8.2925 1.77951 8.2511 1.6818C8.20969 1.58409 8.12469 1.5108 8.02444 1.48638L5.99544 1.00892C5.84942 0.973384 5.69904 1.04667 5.63148 1.18213C5.59879 1.24876 4.87959 2.71445 5.38521 4.11129C4.96677 4.39555 4.22578 5.06399 4.16912 6.26097C3.26685 6.49859 2.39728 7.15593 1.81539 8.0731C1.14196 9.13239 0.276745 11.4775 2.0464 15.2772C4.034 19.541 6.5381 21 8.41019 21C8.73492 21 9.04221 20.9556 9.32335 20.8757C11.7076 20.1872 14.1921 14.8997 13.9872 10.9512ZM5.93223 4.55322C6.01287 4.51547 6.07607 4.44662 6.10441 4.36002C6.13274 4.27341 6.12838 4.18014 6.08697 4.10019C5.64892 3.21411 5.94095 2.17703 6.11094 1.71955L7.47088 2.03934C7.10692 2.97427 7.47524 3.71378 7.75855 3.99803C7.82176 4.06244 7.90675 4.09797 7.99611 4.09353C8.00918 4.09353 9.06618 4.07798 9.43014 4.87745C8.7371 5.27496 7.97431 5.9434 7.24204 7.05822C6.48144 6.28984 5.58789 6.17436 4.95151 6.16104C4.91229 6.16104 4.87088 6.16326 4.83165 6.16326C4.95369 5.03734 5.89083 4.57321 5.93223 4.55322ZM9.14682 20.2317C7.36191 20.7469 4.6573 19.3256 2.63701 14.9907C1.00248 11.4842 1.76308 9.37667 2.36241 8.43286C3.07943 7.3025 4.17348 6.81393 4.93844 6.82948C5.53123 6.84058 6.2744 6.9494 6.8868 7.64671C6.87155 7.67336 6.85847 7.70001 6.84104 7.72666C6.44875 8.43952 5.85378 9.51658 4.65076 9.66759C4.47205 9.6898 4.34347 9.85635 4.36744 10.0385C4.38923 10.2206 4.55269 10.3516 4.7314 10.3271C6.2635 10.1339 7.00885 8.77929 7.41203 8.05089C7.46652 7.95095 7.51664 7.8599 7.57331 7.76663C8.66518 5.94118 9.82897 5.29051 10.6746 5.08176L11.117 5.75464C9.95319 7.44685 9.9314 8.82593 9.91178 10.0496C9.88563 11.7262 9.86384 13.0498 7.02192 14.8486C6.86937 14.9463 6.82142 15.1506 6.91731 15.3083C6.97834 15.4104 7.08513 15.4659 7.19628 15.4659C7.25512 15.4659 7.31396 15.4504 7.36845 15.4149C10.5133 13.4251 10.5394 11.7928 10.5678 10.0629C10.5809 9.2301 10.5961 8.37956 10.971 7.41354C12.7864 7.87101 13.2637 9.58986 13.3356 10.9867C13.5187 14.5399 11.2085 19.6387 9.14682 20.2317Z" fill="black" stroke="black" stroke-width="0.2"/>
</svg>
