<svg width="30" height="30" viewBox="0 0 30 30" fill="none" xmlns="http://www.w3.org/2000/svg">
<path d="M20.2376 3.33398L4.03418 26.6676H9.7629L25.9663 3.33398H20.2376Z" fill="white"/>
<path d="M23.6948 13.998C20.1016 13.998 17.3896 16.3647 17.3896 20.4982C17.3896 24.6649 20.1015 26.9982 23.6948 26.9982C27.2881 26.9982 29.9999 24.6649 29.9999 20.4982C29.9999 16.3647 27.2879 13.998 23.6948 13.998ZM23.6948 23.3981C22.949 23.3981 22.2033 22.7314 22.2033 20.498C22.2033 18.2647 22.949 17.5979 23.6948 17.5979C24.4405 17.5979 25.1863 18.2647 25.1863 20.498C25.1863 22.7314 24.4405 23.3981 23.6948 23.3981Z" fill="white"/>
<path d="M12.6102 9.49999C12.6102 5.36667 9.89843 3 6.30512 3C2.71182 3 0 5.36667 0 9.49999C0 13.6667 2.71182 16.0001 6.30512 16.0001C9.89843 16.0001 12.6102 13.6667 12.6102 9.49999ZM4.81364 9.49999C4.81364 7.26664 5.55938 6.59988 6.30512 6.59988C7.05087 6.59988 7.79661 7.26664 7.79661 9.49999C7.79661 11.7333 7.05087 12.4001 6.30512 12.4001C5.55938 12.4001 4.81364 11.7333 4.81364 9.49999Z" fill="white"/>
</svg>
