<svg width="11" height="11" viewBox="0 0 11 11" fill="none" xmlns="http://www.w3.org/2000/svg">
<path d="M10.3611 4.06714L7.4281 3.7898C7.24321 3.77299 7.08344 3.65533 7.00788 3.47884L5.95734 0.932348C5.78925 0.512134 5.19246 0.512134 5.02438 0.932348L3.98224 3.47884C3.915 3.65533 3.74692 3.77299 3.56202 3.7898L0.628906 4.06714C0.19188 4.10916 0.0153893 4.65544 0.343159 4.94959L2.5535 6.89098C2.69637 7.01704 2.7552 7.20193 2.71318 7.38683L2.04924 10.1097C1.94839 10.5384 2.41063 10.8913 2.79723 10.6645L5.24289 9.22728C5.40257 9.13483 5.59587 9.13483 5.75555 9.22728L8.2013 10.6645C8.5879 10.8913 9.05014 10.5468 8.9492 10.1097L8.29366 7.38683C8.25164 7.20193 8.31047 7.01704 8.45335 6.89098L10.6637 4.94959C10.9831 4.65544 10.7982 4.10916 10.3611 4.06714Z" fill="black"/>
</svg>
