<svg width="32" height="32" viewBox="0 0 32 32" fill="none" xmlns="http://www.w3.org/2000/svg">
<rect width="32" height="32" rx="4" fill="#3EBFAC" fill-opacity="0.1"/>
<path d="M16.5 8C12.3645 8 9 11.3645 9 15.5C9 19.6355 12.3645 23 16.5 23C20.6355 23 24 19.6355 24 15.5C24 11.3645 20.6355 8 16.5 8ZM16.5 21.4041C13.2445 21.4041 10.5957 18.7557 10.5957 15.5C10.5957 12.2443 13.2445 9.59587 16.5 9.59587C19.7555 9.59587 22.4043 12.2443 22.4043 15.5C22.4043 18.7557 19.7555 21.4041 16.5 21.4041Z" fill="#3EBFAC"/>
<path d="M20.4064 15.2678H17.0359V11.2152C17.0359 10.8742 16.7594 10.5977 16.4183 10.5977C16.0773 10.5977 15.8008 10.8742 15.8008 11.2152V15.8853C15.8008 16.2264 16.0773 16.5029 16.4183 16.5029H20.4064C20.7474 16.5029 21.0239 16.2264 21.0239 15.8853C21.0239 15.5443 20.7474 15.2678 20.4064 15.2678Z" fill="#3EBFAC"/>
</svg>
