<svg width="28" height="27" viewBox="0 0 28 27" fill="none" xmlns="http://www.w3.org/2000/svg">
<path d="M14 1.32678C20.9828 1.32678 26.6241 6.79975 26.6241 13.5C26.6241 20.2002 20.9828 25.6732 14 25.6732C7.0172 25.6732 1.37592 20.2002 1.37592 13.5C1.37592 6.79975 7.0172 1.32678 14 1.32678ZM14 0C6.26044 0 0 6.03686 0 13.5C0 20.9631 6.26044 27 14 27C21.7396 27 28 20.9631 28 13.5C28 6.03686 21.7396 0 14 0Z" fill="#35BFAE"/>
<path d="M13.9995 19.935C13.4491 19.935 13.002 19.5038 13.002 18.9731V12.6709C13.002 12.1402 13.4491 11.709 13.9995 11.709C14.5499 11.709 14.997 12.1402 14.997 12.6709V19.0063C14.997 19.5038 14.5499 19.935 13.9995 19.935Z" fill="#35BFAE"/>
<path d="M13.9995 8.95606C13.4491 8.95606 13.002 8.52486 13.002 7.99414C13.002 7.46343 13.4491 7.03223 13.9995 7.03223C14.5499 7.03223 14.997 7.46343 14.997 7.99414C14.997 8.52486 14.5499 8.95606 13.9995 8.95606Z" fill="#35BFAE"/>
</svg>
